%TF.GenerationSoftware,KiCad,Pcbnew,(6.0.1-0)*%
%TF.CreationDate,2023-01-20T10:28:08-08:00*%
%TF.ProjectId,ESC Mother,45534320-4d6f-4746-9865-722e6b696361,rev?*%
%TF.SameCoordinates,Original*%
%TF.FileFunction,Copper,L4,Inr*%
%TF.FilePolarity,Positive*%
%FSLAX46Y46*%
G04 Gerber Fmt 4.6, Leading zero omitted, Abs format (unit mm)*
G04 Created by KiCad (PCBNEW (6.0.1-0)) date 2023-01-20 10:28:08*
%MOMM*%
%LPD*%
G01*
G04 APERTURE LIST*
%TA.AperFunction,ComponentPad*%
%ADD10R,2.500000X2.500000*%
%TD*%
%TA.AperFunction,ComponentPad*%
%ADD11C,2.500000*%
%TD*%
%TA.AperFunction,ComponentPad*%
%ADD12R,0.930000X0.930000*%
%TD*%
%TA.AperFunction,ComponentPad*%
%ADD13C,0.930000*%
%TD*%
%TA.AperFunction,ComponentPad*%
%ADD14C,1.250000*%
%TD*%
%TA.AperFunction,ViaPad*%
%ADD15C,0.800000*%
%TD*%
G04 APERTURE END LIST*
D10*
%TO.N,/16V*%
%TO.C,+*%
X184850000Y-48600000D03*
D11*
%TO.N,GND*%
X184850000Y-53680000D03*
%TD*%
D10*
%TO.N,/Phase_1_T3*%
%TO.C,T3*%
X99675000Y-123590000D03*
D11*
%TO.N,/Phase_2_T3*%
X94595000Y-123590000D03*
%TO.N,/Phase_3_T3*%
X89515000Y-123590000D03*
%TD*%
D10*
%TO.N,/Phase_1_T4*%
%TO.C,T4*%
X69510000Y-123610000D03*
D11*
%TO.N,/Phase_2_T4*%
X64430000Y-123610000D03*
%TO.N,/Phase_3_T4*%
X59350000Y-123610000D03*
%TD*%
D10*
%TO.N,/Phase_1_T1*%
%TO.C,T1*%
X159810000Y-123540000D03*
D11*
%TO.N,/Phase_2_T1*%
X154730000Y-123540000D03*
%TO.N,/Phase_3_T1*%
X149650000Y-123540000D03*
%TD*%
D12*
%TO.N,unconnected-(J17-Pad01)*%
%TO.C,J4*%
X68190000Y-71630000D03*
D13*
%TO.N,unconnected-(J17-Pad02)*%
X68190000Y-73630000D03*
%TO.N,unconnected-(J17-Pad03)*%
X66540000Y-71630000D03*
%TO.N,unconnected-(J17-Pad04)*%
X66540000Y-73630000D03*
%TO.N,unconnected-(J17-Pad05)*%
X64890000Y-71630000D03*
%TO.N,unconnected-(J17-Pad06)*%
X64890000Y-73630000D03*
%TO.N,/CAL*%
X63240000Y-71630000D03*
%TO.N,/CAH*%
X63240000Y-73630000D03*
%TO.N,+5V*%
X61590000Y-71630000D03*
%TO.N,GND*%
X61590000Y-73630000D03*
D14*
%TO.N,/16V*%
X68210000Y-57840000D03*
X65710000Y-57840000D03*
X63210000Y-57840000D03*
X60710000Y-57840000D03*
X68210000Y-60840000D03*
X65710000Y-60840000D03*
X63210000Y-60840000D03*
X60710000Y-60840000D03*
%TO.N,GND*%
X68210000Y-63340000D03*
X65710000Y-63340000D03*
X63210000Y-63340000D03*
X60710000Y-63340000D03*
X68210000Y-66340000D03*
X65710000Y-66340000D03*
X63210000Y-66340000D03*
X60710000Y-66340000D03*
%TO.N,/Phase_3_T4*%
X68210000Y-78560000D03*
X65710000Y-78560000D03*
X63210000Y-78560000D03*
X60710000Y-78560000D03*
X68210000Y-81560000D03*
X65710000Y-81560000D03*
X63210000Y-81560000D03*
X60710000Y-81560000D03*
%TO.N,/Phase_2_T4*%
X68210000Y-84060000D03*
X65710000Y-84060000D03*
X63210000Y-84060000D03*
X60710000Y-84060000D03*
X68210000Y-87060000D03*
X65710000Y-87060000D03*
X63210000Y-87060000D03*
X60710000Y-87060000D03*
%TO.N,/Phase_1_T4*%
X68210000Y-89560000D03*
X65710000Y-89560000D03*
X63210000Y-89560000D03*
X60710000Y-89560000D03*
X68210000Y-92560000D03*
X65710000Y-92560000D03*
X63210000Y-92560000D03*
X60710000Y-92560000D03*
%TD*%
D12*
%TO.N,unconnected-(J2-Pad01)*%
%TO.C,J2*%
X128380000Y-71650000D03*
D13*
%TO.N,unconnected-(J2-Pad02)*%
X128380000Y-73650000D03*
%TO.N,unconnected-(J2-Pad03)*%
X126730000Y-71650000D03*
%TO.N,unconnected-(J2-Pad04)*%
X126730000Y-73650000D03*
%TO.N,unconnected-(J2-Pad05)*%
X125080000Y-71650000D03*
%TO.N,unconnected-(J2-Pad06)*%
X125080000Y-73650000D03*
%TO.N,/CAL*%
X123430000Y-71650000D03*
%TO.N,/CAH*%
X123430000Y-73650000D03*
%TO.N,+5V*%
X121780000Y-71650000D03*
%TO.N,GND*%
X121780000Y-73650000D03*
D14*
%TO.N,/16V*%
X128400000Y-57860000D03*
X125900000Y-57860000D03*
X123400000Y-57860000D03*
X120900000Y-57860000D03*
X128400000Y-60860000D03*
X125900000Y-60860000D03*
X123400000Y-60860000D03*
X120900000Y-60860000D03*
%TO.N,GND*%
X128400000Y-63360000D03*
X125900000Y-63360000D03*
X123400000Y-63360000D03*
X120900000Y-63360000D03*
X128400000Y-66360000D03*
X125900000Y-66360000D03*
X123400000Y-66360000D03*
X120900000Y-66360000D03*
%TO.N,/Phase_3_T2*%
X128400000Y-78580000D03*
X125900000Y-78580000D03*
X123400000Y-78580000D03*
X120900000Y-78580000D03*
X128400000Y-81580000D03*
X125900000Y-81580000D03*
X123400000Y-81580000D03*
X120900000Y-81580000D03*
%TO.N,/Phase_2_T2*%
X128400000Y-84080000D03*
X125900000Y-84080000D03*
X123400000Y-84080000D03*
X120900000Y-84080000D03*
X128400000Y-87080000D03*
X125900000Y-87080000D03*
X123400000Y-87080000D03*
X120900000Y-87080000D03*
%TO.N,/Phase_1_T2*%
X128400000Y-89580000D03*
X125900000Y-89580000D03*
X123400000Y-89580000D03*
X120900000Y-89580000D03*
X128400000Y-92580000D03*
X125900000Y-92580000D03*
X123400000Y-92580000D03*
X120900000Y-92580000D03*
%TD*%
D12*
%TO.N,unconnected-(J3-Pad01)*%
%TO.C,J3*%
X98300000Y-71650000D03*
D13*
%TO.N,unconnected-(J3-Pad02)*%
X98300000Y-73650000D03*
%TO.N,unconnected-(J3-Pad03)*%
X96650000Y-71650000D03*
%TO.N,unconnected-(J3-Pad04)*%
X96650000Y-73650000D03*
%TO.N,unconnected-(J3-Pad05)*%
X95000000Y-71650000D03*
%TO.N,unconnected-(J3-Pad06)*%
X95000000Y-73650000D03*
%TO.N,/CAL*%
X93350000Y-71650000D03*
%TO.N,/CAH*%
X93350000Y-73650000D03*
%TO.N,+5V*%
X91700000Y-71650000D03*
%TO.N,GND*%
X91700000Y-73650000D03*
D14*
%TO.N,/16V*%
X98320000Y-57860000D03*
X95820000Y-57860000D03*
X93320000Y-57860000D03*
X90820000Y-57860000D03*
X98320000Y-60860000D03*
X95820000Y-60860000D03*
X93320000Y-60860000D03*
X90820000Y-60860000D03*
%TO.N,GND*%
X98320000Y-63360000D03*
X95820000Y-63360000D03*
X93320000Y-63360000D03*
X90820000Y-63360000D03*
X98320000Y-66360000D03*
X95820000Y-66360000D03*
X93320000Y-66360000D03*
X90820000Y-66360000D03*
%TO.N,/Phase_3_T3*%
X98320000Y-78580000D03*
X95820000Y-78580000D03*
X93320000Y-78580000D03*
X90820000Y-78580000D03*
X98320000Y-81580000D03*
X95820000Y-81580000D03*
X93320000Y-81580000D03*
X90820000Y-81580000D03*
%TO.N,/Phase_2_T3*%
X98320000Y-84080000D03*
X95820000Y-84080000D03*
X93320000Y-84080000D03*
X90820000Y-84080000D03*
X98320000Y-87080000D03*
X95820000Y-87080000D03*
X93320000Y-87080000D03*
X90820000Y-87080000D03*
%TO.N,/Phase_1_T3*%
X98320000Y-89580000D03*
X95820000Y-89580000D03*
X93320000Y-89580000D03*
X90820000Y-89580000D03*
X98320000Y-92580000D03*
X95820000Y-92580000D03*
X93320000Y-92580000D03*
X90820000Y-92580000D03*
%TD*%
D10*
%TO.N,/Phase_1_T2*%
%TO.C,T2*%
X129725000Y-123570000D03*
D11*
%TO.N,/Phase_2_T2*%
X124645000Y-123570000D03*
%TO.N,/Phase_3_T2*%
X119565000Y-123570000D03*
%TD*%
D12*
%TO.N,unconnected-(J1-Pad01)*%
%TO.C,J1*%
X158450000Y-71650000D03*
D13*
%TO.N,unconnected-(J1-Pad02)*%
X158450000Y-73650000D03*
%TO.N,unconnected-(J1-Pad03)*%
X156800000Y-71650000D03*
%TO.N,unconnected-(J1-Pad04)*%
X156800000Y-73650000D03*
%TO.N,unconnected-(J1-Pad05)*%
X155150000Y-71650000D03*
%TO.N,unconnected-(J1-Pad06)*%
X155150000Y-73650000D03*
%TO.N,/CAL*%
X153500000Y-71650000D03*
%TO.N,/CAH*%
X153500000Y-73650000D03*
%TO.N,+5V*%
X151850000Y-71650000D03*
%TO.N,GND*%
X151850000Y-73650000D03*
D14*
%TO.N,/16V*%
X158470000Y-57860000D03*
X155970000Y-57860000D03*
X153470000Y-57860000D03*
X150970000Y-57860000D03*
X158470000Y-60860000D03*
X155970000Y-60860000D03*
X153470000Y-60860000D03*
X150970000Y-60860000D03*
%TO.N,GND*%
X158470000Y-63360000D03*
X155970000Y-63360000D03*
X153470000Y-63360000D03*
X150970000Y-63360000D03*
X158470000Y-66360000D03*
X155970000Y-66360000D03*
X153470000Y-66360000D03*
X150970000Y-66360000D03*
%TO.N,/Phase_3_T1*%
X158470000Y-78580000D03*
X155970000Y-78580000D03*
X153470000Y-78580000D03*
X150970000Y-78580000D03*
X158470000Y-81580000D03*
X155970000Y-81580000D03*
X153470000Y-81580000D03*
X150970000Y-81580000D03*
%TO.N,/Phase_2_T1*%
X158470000Y-84080000D03*
X155970000Y-84080000D03*
X153470000Y-84080000D03*
X150970000Y-84080000D03*
X158470000Y-87080000D03*
X155970000Y-87080000D03*
X153470000Y-87080000D03*
X150970000Y-87080000D03*
%TO.N,/Phase_1_T1*%
X158470000Y-89580000D03*
X155970000Y-89580000D03*
X153470000Y-89580000D03*
X150970000Y-89580000D03*
X158470000Y-92580000D03*
X155970000Y-92580000D03*
X153470000Y-92580000D03*
X150970000Y-92580000D03*
%TD*%
D10*
%TO.N,/16V*%
%TO.C,-*%
X34025000Y-53695000D03*
D11*
%TO.N,GND*%
X34025000Y-48615000D03*
%TD*%
D15*
%TO.N,GND*%
X35240000Y-85490000D03*
X183950000Y-80300000D03*
%TO.N,/CAL*%
X34850000Y-82300000D03*
%TO.N,/CAH*%
X34850000Y-83560000D03*
%TO.N,+5V*%
X35240000Y-80340000D03*
X183950000Y-85030000D03*
%TD*%
%TA.AperFunction,Conductor*%
%TO.N,/Phase_3_T3*%
G36*
X102522751Y-76263743D02*
G01*
X102580917Y-76282722D01*
X102616820Y-76332266D01*
X102621628Y-76362540D01*
X102646828Y-88676889D01*
X102729797Y-129220858D01*
X102711009Y-129279088D01*
X102661582Y-129315153D01*
X102630859Y-129320061D01*
X97334046Y-129323314D01*
X86548970Y-129329939D01*
X86490767Y-129311067D01*
X86454773Y-129261590D01*
X86449909Y-129231030D01*
X86446626Y-125642421D01*
X86445976Y-124932360D01*
X88743892Y-124932360D01*
X88750263Y-124939251D01*
X88805824Y-124973300D01*
X88812730Y-124976819D01*
X89030952Y-125067209D01*
X89038320Y-125069603D01*
X89268004Y-125124745D01*
X89275647Y-125125956D01*
X89511125Y-125144488D01*
X89518875Y-125144488D01*
X89754353Y-125125956D01*
X89761996Y-125124745D01*
X89991680Y-125069603D01*
X89999048Y-125067209D01*
X90217270Y-124976819D01*
X90224176Y-124973300D01*
X90278043Y-124940289D01*
X90286316Y-124930603D01*
X90281732Y-124922417D01*
X89526086Y-124166771D01*
X89514203Y-124160717D01*
X89509172Y-124161513D01*
X88749674Y-124921011D01*
X88743892Y-124932360D01*
X86445976Y-124932360D01*
X86444752Y-123593875D01*
X87960512Y-123593875D01*
X87979044Y-123829353D01*
X87980255Y-123836996D01*
X88035397Y-124066680D01*
X88037791Y-124074048D01*
X88128181Y-124292270D01*
X88131700Y-124299176D01*
X88164711Y-124353043D01*
X88174397Y-124361316D01*
X88182583Y-124356732D01*
X88938229Y-123601086D01*
X88943471Y-123590797D01*
X90085717Y-123590797D01*
X90086513Y-123595828D01*
X90846011Y-124355326D01*
X90857360Y-124361108D01*
X90864251Y-124354737D01*
X90898300Y-124299176D01*
X90901819Y-124292270D01*
X90992209Y-124074048D01*
X90994603Y-124066680D01*
X91049745Y-123836996D01*
X91050956Y-123829353D01*
X91069488Y-123593875D01*
X91069488Y-123586119D01*
X91068100Y-123568477D01*
X92539822Y-123568477D01*
X92540016Y-123571842D01*
X92540016Y-123571846D01*
X92543545Y-123633043D01*
X92555916Y-123847596D01*
X92609741Y-124121948D01*
X92610834Y-124125140D01*
X92690126Y-124356732D01*
X92700303Y-124386457D01*
X92825925Y-124636228D01*
X92984282Y-124866639D01*
X92986552Y-124869133D01*
X92986553Y-124869135D01*
X93084538Y-124976819D01*
X93172444Y-125073427D01*
X93386930Y-125252765D01*
X93623771Y-125401335D01*
X93626839Y-125402720D01*
X93626846Y-125402724D01*
X93792358Y-125477455D01*
X93878583Y-125516387D01*
X93881805Y-125517341D01*
X93881812Y-125517344D01*
X94096263Y-125580867D01*
X94146652Y-125595793D01*
X94149977Y-125596302D01*
X94149978Y-125596302D01*
X94419684Y-125637573D01*
X94419687Y-125637573D01*
X94423018Y-125638083D01*
X94426389Y-125638136D01*
X94426390Y-125638136D01*
X94474571Y-125638893D01*
X94702566Y-125642474D01*
X94705903Y-125642070D01*
X94705907Y-125642070D01*
X94976779Y-125609291D01*
X94976784Y-125609290D01*
X94980123Y-125608886D01*
X95250554Y-125537940D01*
X95416590Y-125469165D01*
X95505746Y-125432236D01*
X95505749Y-125432235D01*
X95508855Y-125430948D01*
X95511760Y-125429251D01*
X95511763Y-125429249D01*
X95747329Y-125291595D01*
X95750245Y-125289891D01*
X95970258Y-125117379D01*
X96164823Y-124916603D01*
X96201526Y-124866639D01*
X96231843Y-124825366D01*
X96330340Y-124691280D01*
X96361864Y-124633221D01*
X96462136Y-124448541D01*
X96463745Y-124445578D01*
X96501294Y-124346206D01*
X96561380Y-124187194D01*
X96561381Y-124187190D01*
X96562570Y-124184044D01*
X96589450Y-124066680D01*
X96624234Y-123914808D01*
X96624235Y-123914801D01*
X96624987Y-123911518D01*
X96649840Y-123633043D01*
X96650230Y-123595828D01*
X96650271Y-123591937D01*
X96650271Y-123591929D01*
X96650291Y-123590000D01*
X96631275Y-123311065D01*
X96574579Y-123037292D01*
X96481253Y-122773746D01*
X96469542Y-122751056D01*
X96354573Y-122528308D01*
X96354570Y-122528302D01*
X96353022Y-122525304D01*
X96192261Y-122296563D01*
X96174512Y-122277462D01*
X96152325Y-122253586D01*
X97624500Y-122253586D01*
X97624501Y-123590797D01*
X97624501Y-124927836D01*
X97624774Y-124932589D01*
X97625716Y-124936668D01*
X97625717Y-124936676D01*
X97657289Y-125073427D01*
X97665173Y-125107577D01*
X97743336Y-125269266D01*
X97855380Y-125409620D01*
X97859713Y-125413079D01*
X97989124Y-125516387D01*
X97995734Y-125521664D01*
X98157423Y-125599827D01*
X98162807Y-125601070D01*
X98162810Y-125601071D01*
X98249045Y-125620979D01*
X98332411Y-125640226D01*
X98337163Y-125640500D01*
X98338586Y-125640500D01*
X99679717Y-125640499D01*
X101012836Y-125640499D01*
X101017589Y-125640226D01*
X101021670Y-125639284D01*
X101021676Y-125639283D01*
X101187190Y-125601071D01*
X101187193Y-125601070D01*
X101192577Y-125599827D01*
X101354266Y-125521664D01*
X101360877Y-125516387D01*
X101490287Y-125413079D01*
X101494620Y-125409620D01*
X101606664Y-125269266D01*
X101684827Y-125107577D01*
X101725226Y-124932589D01*
X101725500Y-124927837D01*
X101725500Y-123590000D01*
X101725499Y-122253577D01*
X101725499Y-122252164D01*
X101725226Y-122247411D01*
X101724284Y-122243330D01*
X101724283Y-122243324D01*
X101686071Y-122077810D01*
X101686070Y-122077807D01*
X101684827Y-122072423D01*
X101606664Y-121910734D01*
X101599931Y-121902299D01*
X101498079Y-121774713D01*
X101494620Y-121770380D01*
X101354266Y-121658336D01*
X101337759Y-121650356D01*
X101197554Y-121582579D01*
X101192577Y-121580173D01*
X101187193Y-121578930D01*
X101187190Y-121578929D01*
X101100955Y-121559021D01*
X101017589Y-121539774D01*
X101012837Y-121539500D01*
X101011414Y-121539500D01*
X99670283Y-121539501D01*
X98337164Y-121539501D01*
X98332411Y-121539774D01*
X98328330Y-121540716D01*
X98328324Y-121540717D01*
X98162810Y-121578929D01*
X98162807Y-121578930D01*
X98157423Y-121580173D01*
X98152446Y-121582579D01*
X98012242Y-121650356D01*
X97995734Y-121658336D01*
X97855380Y-121770380D01*
X97851921Y-121774713D01*
X97750070Y-121902299D01*
X97743336Y-121910734D01*
X97665173Y-122072423D01*
X97624774Y-122247411D01*
X97624500Y-122252163D01*
X97624500Y-122253586D01*
X96152325Y-122253586D01*
X96004238Y-122094226D01*
X96001944Y-122091757D01*
X95978323Y-122072423D01*
X95788204Y-121916814D01*
X95785591Y-121914675D01*
X95547208Y-121768594D01*
X95543397Y-121766921D01*
X95294288Y-121657569D01*
X95294284Y-121657567D01*
X95291205Y-121656216D01*
X95241917Y-121642176D01*
X95025571Y-121580548D01*
X95025566Y-121580547D01*
X95022319Y-121579622D01*
X94745526Y-121540229D01*
X94742159Y-121540211D01*
X94742154Y-121540211D01*
X94617187Y-121539557D01*
X94465947Y-121538765D01*
X94188757Y-121575257D01*
X94185506Y-121576146D01*
X94185503Y-121576147D01*
X94161992Y-121582579D01*
X93919083Y-121649032D01*
X93661917Y-121758722D01*
X93659018Y-121760457D01*
X93647683Y-121767241D01*
X93422018Y-121902299D01*
X93203823Y-122077106D01*
X93201499Y-122079555D01*
X93032557Y-122257583D01*
X93011371Y-122279908D01*
X93009406Y-122282643D01*
X93009404Y-122282645D01*
X92997421Y-122299322D01*
X92848223Y-122506952D01*
X92717398Y-122754038D01*
X92621317Y-123016592D01*
X92561757Y-123289757D01*
X92539822Y-123568477D01*
X91068100Y-123568477D01*
X91050956Y-123350647D01*
X91049745Y-123343004D01*
X90994603Y-123113320D01*
X90992209Y-123105952D01*
X90901819Y-122887730D01*
X90898300Y-122880824D01*
X90865289Y-122826957D01*
X90855603Y-122818684D01*
X90847417Y-122823268D01*
X90091771Y-123578914D01*
X90085717Y-123590797D01*
X88943471Y-123590797D01*
X88944283Y-123589203D01*
X88943487Y-123584172D01*
X88183989Y-122824674D01*
X88172640Y-122818892D01*
X88165749Y-122825263D01*
X88131700Y-122880824D01*
X88128181Y-122887730D01*
X88037791Y-123105952D01*
X88035397Y-123113320D01*
X87980255Y-123343004D01*
X87979044Y-123350647D01*
X87960512Y-123586119D01*
X87960512Y-123593875D01*
X86444752Y-123593875D01*
X86443522Y-122249397D01*
X88743684Y-122249397D01*
X88748268Y-122257583D01*
X89503914Y-123013229D01*
X89515797Y-123019283D01*
X89520828Y-123018487D01*
X90280326Y-122258989D01*
X90286108Y-122247640D01*
X90279737Y-122240749D01*
X90224176Y-122206700D01*
X90217270Y-122203181D01*
X89999048Y-122112791D01*
X89991680Y-122110397D01*
X89761996Y-122055255D01*
X89754353Y-122054044D01*
X89518875Y-122035512D01*
X89511125Y-122035512D01*
X89275647Y-122054044D01*
X89268004Y-122055255D01*
X89038320Y-122110397D01*
X89030952Y-122112791D01*
X88812730Y-122203181D01*
X88805824Y-122206700D01*
X88751957Y-122239711D01*
X88743684Y-122249397D01*
X86443522Y-122249397D01*
X86416342Y-92545053D01*
X89390042Y-92545053D01*
X89403535Y-92779071D01*
X89404427Y-92783028D01*
X89425886Y-92878247D01*
X89455069Y-93007743D01*
X89456598Y-93011507D01*
X89456599Y-93011512D01*
X89496673Y-93110202D01*
X89543259Y-93224928D01*
X89545383Y-93228394D01*
X89545385Y-93228398D01*
X89601521Y-93320003D01*
X89665736Y-93424793D01*
X89668395Y-93427863D01*
X89668396Y-93427864D01*
X89739481Y-93509927D01*
X89819212Y-93601971D01*
X89999565Y-93751703D01*
X90201951Y-93869968D01*
X90420935Y-93953590D01*
X90424910Y-93954399D01*
X90424911Y-93954399D01*
X90646654Y-93999513D01*
X90646658Y-93999513D01*
X90650637Y-94000323D01*
X90654697Y-94000472D01*
X90654698Y-94000472D01*
X90695311Y-94001961D01*
X90884887Y-94008913D01*
X90888906Y-94008398D01*
X90888910Y-94008398D01*
X91113362Y-93979645D01*
X91113368Y-93979644D01*
X91117394Y-93979128D01*
X91121287Y-93977960D01*
X91121292Y-93977959D01*
X91280542Y-93930181D01*
X91341914Y-93911768D01*
X91452707Y-93857491D01*
X91548771Y-93810430D01*
X91548774Y-93810428D01*
X91552418Y-93808643D01*
X91743253Y-93672522D01*
X91909293Y-93507061D01*
X91983616Y-93403630D01*
X91987960Y-93397585D01*
X92037271Y-93361363D01*
X92098456Y-93361043D01*
X92148143Y-93396747D01*
X92152761Y-93403619D01*
X92165736Y-93424793D01*
X92168395Y-93427863D01*
X92168396Y-93427864D01*
X92239481Y-93509927D01*
X92319212Y-93601971D01*
X92499565Y-93751703D01*
X92701951Y-93869968D01*
X92920935Y-93953590D01*
X92924910Y-93954399D01*
X92924911Y-93954399D01*
X93146654Y-93999513D01*
X93146658Y-93999513D01*
X93150637Y-94000323D01*
X93154697Y-94000472D01*
X93154698Y-94000472D01*
X93195311Y-94001961D01*
X93384887Y-94008913D01*
X93388906Y-94008398D01*
X93388910Y-94008398D01*
X93613362Y-93979645D01*
X93613368Y-93979644D01*
X93617394Y-93979128D01*
X93621287Y-93977960D01*
X93621292Y-93977959D01*
X93780542Y-93930181D01*
X93841914Y-93911768D01*
X93952707Y-93857491D01*
X94048771Y-93810430D01*
X94048774Y-93810428D01*
X94052418Y-93808643D01*
X94243253Y-93672522D01*
X94409293Y-93507061D01*
X94483616Y-93403630D01*
X94487960Y-93397585D01*
X94537271Y-93361363D01*
X94598456Y-93361043D01*
X94648143Y-93396747D01*
X94652761Y-93403619D01*
X94665736Y-93424793D01*
X94668395Y-93427863D01*
X94668396Y-93427864D01*
X94739481Y-93509927D01*
X94819212Y-93601971D01*
X94999565Y-93751703D01*
X95201951Y-93869968D01*
X95420935Y-93953590D01*
X95424910Y-93954399D01*
X95424911Y-93954399D01*
X95646654Y-93999513D01*
X95646658Y-93999513D01*
X95650637Y-94000323D01*
X95654697Y-94000472D01*
X95654698Y-94000472D01*
X95695311Y-94001961D01*
X95884887Y-94008913D01*
X95888906Y-94008398D01*
X95888910Y-94008398D01*
X96113362Y-93979645D01*
X96113368Y-93979644D01*
X96117394Y-93979128D01*
X96121287Y-93977960D01*
X96121292Y-93977959D01*
X96280542Y-93930181D01*
X96341914Y-93911768D01*
X96452707Y-93857491D01*
X96548771Y-93810430D01*
X96548774Y-93810428D01*
X96552418Y-93808643D01*
X96743253Y-93672522D01*
X96909293Y-93507061D01*
X96983616Y-93403630D01*
X96987960Y-93397585D01*
X97037271Y-93361363D01*
X97098456Y-93361043D01*
X97148143Y-93396747D01*
X97152761Y-93403619D01*
X97165736Y-93424793D01*
X97168395Y-93427863D01*
X97168396Y-93427864D01*
X97239481Y-93509927D01*
X97319212Y-93601971D01*
X97499565Y-93751703D01*
X97701951Y-93869968D01*
X97920935Y-93953590D01*
X97924910Y-93954399D01*
X97924911Y-93954399D01*
X98146654Y-93999513D01*
X98146658Y-93999513D01*
X98150637Y-94000323D01*
X98154697Y-94000472D01*
X98154698Y-94000472D01*
X98195311Y-94001961D01*
X98384887Y-94008913D01*
X98388906Y-94008398D01*
X98388910Y-94008398D01*
X98613362Y-93979645D01*
X98613368Y-93979644D01*
X98617394Y-93979128D01*
X98621287Y-93977960D01*
X98621292Y-93977959D01*
X98780542Y-93930181D01*
X98841914Y-93911768D01*
X98952707Y-93857491D01*
X99048771Y-93810430D01*
X99048774Y-93810428D01*
X99052418Y-93808643D01*
X99243253Y-93672522D01*
X99409293Y-93507061D01*
X99483616Y-93403630D01*
X99543708Y-93320003D01*
X99543709Y-93320001D01*
X99546079Y-93316703D01*
X99547877Y-93313065D01*
X99547880Y-93313060D01*
X99648138Y-93110202D01*
X99649938Y-93106560D01*
X99651116Y-93102684D01*
X99651118Y-93102678D01*
X99716901Y-92886160D01*
X99716901Y-92886159D01*
X99718081Y-92882276D01*
X99748677Y-92649874D01*
X99750385Y-92580000D01*
X99731178Y-92346381D01*
X99722536Y-92311973D01*
X99675064Y-92122982D01*
X99674073Y-92119036D01*
X99580603Y-91904070D01*
X99453279Y-91707258D01*
X99295520Y-91533883D01*
X99292334Y-91531367D01*
X99292331Y-91531364D01*
X99114751Y-91391119D01*
X99114745Y-91391115D01*
X99111563Y-91388602D01*
X98906348Y-91275317D01*
X98902517Y-91273960D01*
X98902514Y-91273959D01*
X98689222Y-91198428D01*
X98689218Y-91198427D01*
X98685386Y-91197070D01*
X98582192Y-91178688D01*
X98528220Y-91149870D01*
X98501494Y-91094830D01*
X98512223Y-91034593D01*
X98556310Y-90992167D01*
X98586974Y-90983026D01*
X98613351Y-90979647D01*
X98613364Y-90979644D01*
X98617394Y-90979128D01*
X98621287Y-90977960D01*
X98621292Y-90977959D01*
X98780542Y-90930181D01*
X98841914Y-90911768D01*
X98952707Y-90857491D01*
X99048771Y-90810430D01*
X99048774Y-90810428D01*
X99052418Y-90808643D01*
X99243253Y-90672522D01*
X99409293Y-90507061D01*
X99483616Y-90403630D01*
X99543708Y-90320003D01*
X99543709Y-90320001D01*
X99546079Y-90316703D01*
X99547877Y-90313065D01*
X99547880Y-90313060D01*
X99648138Y-90110202D01*
X99649938Y-90106560D01*
X99651116Y-90102684D01*
X99651118Y-90102678D01*
X99716901Y-89886160D01*
X99716901Y-89886159D01*
X99718081Y-89882276D01*
X99748677Y-89649874D01*
X99750385Y-89580000D01*
X99731178Y-89346381D01*
X99722536Y-89311973D01*
X99675064Y-89122982D01*
X99674073Y-89119036D01*
X99580603Y-88904070D01*
X99453279Y-88707258D01*
X99295520Y-88533883D01*
X99292334Y-88531367D01*
X99292331Y-88531364D01*
X99133774Y-88406143D01*
X99099825Y-88355239D01*
X99102281Y-88294103D01*
X99137642Y-88247854D01*
X99243253Y-88172522D01*
X99409293Y-88007061D01*
X99483616Y-87903630D01*
X99543708Y-87820003D01*
X99543709Y-87820001D01*
X99546079Y-87816703D01*
X99547877Y-87813065D01*
X99547880Y-87813060D01*
X99648138Y-87610202D01*
X99649938Y-87606560D01*
X99651116Y-87602684D01*
X99651118Y-87602678D01*
X99716901Y-87386160D01*
X99716901Y-87386159D01*
X99718081Y-87382276D01*
X99748677Y-87149874D01*
X99750385Y-87080000D01*
X99731178Y-86846381D01*
X99722536Y-86811973D01*
X99675064Y-86622982D01*
X99674073Y-86619036D01*
X99580603Y-86404070D01*
X99453279Y-86207258D01*
X99295520Y-86033883D01*
X99292334Y-86031367D01*
X99292331Y-86031364D01*
X99114751Y-85891119D01*
X99114745Y-85891115D01*
X99111563Y-85888602D01*
X98906348Y-85775317D01*
X98902517Y-85773960D01*
X98902514Y-85773959D01*
X98689222Y-85698428D01*
X98689218Y-85698427D01*
X98685386Y-85697070D01*
X98582192Y-85678688D01*
X98528220Y-85649870D01*
X98501494Y-85594830D01*
X98512223Y-85534593D01*
X98556310Y-85492167D01*
X98586974Y-85483026D01*
X98613351Y-85479647D01*
X98613364Y-85479644D01*
X98617394Y-85479128D01*
X98621287Y-85477960D01*
X98621292Y-85477959D01*
X98780542Y-85430181D01*
X98841914Y-85411768D01*
X98952707Y-85357491D01*
X99048771Y-85310430D01*
X99048774Y-85310428D01*
X99052418Y-85308643D01*
X99243253Y-85172522D01*
X99409293Y-85007061D01*
X99483616Y-84903630D01*
X99543708Y-84820003D01*
X99543709Y-84820001D01*
X99546079Y-84816703D01*
X99547877Y-84813065D01*
X99547880Y-84813060D01*
X99648138Y-84610202D01*
X99649938Y-84606560D01*
X99651116Y-84602684D01*
X99651118Y-84602678D01*
X99716901Y-84386160D01*
X99716901Y-84386159D01*
X99718081Y-84382276D01*
X99748677Y-84149874D01*
X99750385Y-84080000D01*
X99731178Y-83846381D01*
X99722536Y-83811973D01*
X99675064Y-83622982D01*
X99674073Y-83619036D01*
X99580603Y-83404070D01*
X99453279Y-83207258D01*
X99295520Y-83033883D01*
X99292334Y-83031367D01*
X99292331Y-83031364D01*
X99114751Y-82891119D01*
X99114745Y-82891115D01*
X99111563Y-82888602D01*
X98906348Y-82775317D01*
X98902517Y-82773960D01*
X98902514Y-82773959D01*
X98689222Y-82698428D01*
X98689218Y-82698427D01*
X98685386Y-82697070D01*
X98546955Y-82672412D01*
X98492982Y-82643593D01*
X98466256Y-82588553D01*
X98476985Y-82528316D01*
X98521072Y-82485890D01*
X98543733Y-82478109D01*
X98602341Y-82465651D01*
X98612153Y-82462463D01*
X98614869Y-82461254D01*
X98622616Y-82454279D01*
X98617164Y-82442849D01*
X98331088Y-82156774D01*
X98319202Y-82150718D01*
X98314171Y-82151514D01*
X98021897Y-82443788D01*
X98017163Y-82453079D01*
X98026349Y-82461796D01*
X98027847Y-82462463D01*
X98037657Y-82465651D01*
X98096591Y-82478178D01*
X98149579Y-82508771D01*
X98174465Y-82564667D01*
X98161743Y-82624515D01*
X98116273Y-82665456D01*
X98090985Y-82672875D01*
X97988511Y-82688556D01*
X97868379Y-82727821D01*
X97769561Y-82760120D01*
X97769557Y-82760121D01*
X97765704Y-82761381D01*
X97762104Y-82763255D01*
X97561387Y-82867741D01*
X97561384Y-82867743D01*
X97557782Y-82869618D01*
X97554540Y-82872053D01*
X97554534Y-82872056D01*
X97529145Y-82891119D01*
X97370330Y-83010361D01*
X97208382Y-83179830D01*
X97206090Y-83183190D01*
X97152312Y-83262025D01*
X97103900Y-83299442D01*
X97042742Y-83301257D01*
X96992197Y-83266777D01*
X96987418Y-83260028D01*
X96953279Y-83207258D01*
X96795520Y-83033883D01*
X96792334Y-83031367D01*
X96792331Y-83031364D01*
X96614751Y-82891119D01*
X96614745Y-82891115D01*
X96611563Y-82888602D01*
X96406348Y-82775317D01*
X96402517Y-82773960D01*
X96402514Y-82773959D01*
X96189222Y-82698428D01*
X96189218Y-82698427D01*
X96185386Y-82697070D01*
X96046955Y-82672412D01*
X95992982Y-82643593D01*
X95966256Y-82588553D01*
X95976985Y-82528316D01*
X96021072Y-82485890D01*
X96043733Y-82478109D01*
X96102341Y-82465651D01*
X96112153Y-82462463D01*
X96114869Y-82461254D01*
X96122616Y-82454279D01*
X96117164Y-82442849D01*
X95831088Y-82156774D01*
X95819202Y-82150718D01*
X95814171Y-82151514D01*
X95521897Y-82443788D01*
X95517163Y-82453079D01*
X95526349Y-82461796D01*
X95527847Y-82462463D01*
X95537657Y-82465651D01*
X95596591Y-82478178D01*
X95649579Y-82508771D01*
X95674465Y-82564667D01*
X95661743Y-82624515D01*
X95616273Y-82665456D01*
X95590985Y-82672875D01*
X95488511Y-82688556D01*
X95368379Y-82727821D01*
X95269561Y-82760120D01*
X95269557Y-82760121D01*
X95265704Y-82761381D01*
X95262104Y-82763255D01*
X95061387Y-82867741D01*
X95061384Y-82867743D01*
X95057782Y-82869618D01*
X95054540Y-82872053D01*
X95054534Y-82872056D01*
X95029145Y-82891119D01*
X94870330Y-83010361D01*
X94708382Y-83179830D01*
X94706090Y-83183190D01*
X94652312Y-83262025D01*
X94603900Y-83299442D01*
X94542742Y-83301257D01*
X94492197Y-83266777D01*
X94487418Y-83260028D01*
X94453279Y-83207258D01*
X94295520Y-83033883D01*
X94292334Y-83031367D01*
X94292331Y-83031364D01*
X94114751Y-82891119D01*
X94114745Y-82891115D01*
X94111563Y-82888602D01*
X93906348Y-82775317D01*
X93902517Y-82773960D01*
X93902514Y-82773959D01*
X93689222Y-82698428D01*
X93689218Y-82698427D01*
X93685386Y-82697070D01*
X93546955Y-82672412D01*
X93492982Y-82643593D01*
X93466256Y-82588553D01*
X93476985Y-82528316D01*
X93521072Y-82485890D01*
X93543733Y-82478109D01*
X93602341Y-82465651D01*
X93612153Y-82462463D01*
X93614869Y-82461254D01*
X93622616Y-82454279D01*
X93617164Y-82442849D01*
X93331088Y-82156774D01*
X93319202Y-82150718D01*
X93314171Y-82151514D01*
X93021897Y-82443788D01*
X93017163Y-82453079D01*
X93026349Y-82461796D01*
X93027847Y-82462463D01*
X93037657Y-82465651D01*
X93096591Y-82478178D01*
X93149579Y-82508771D01*
X93174465Y-82564667D01*
X93161743Y-82624515D01*
X93116273Y-82665456D01*
X93090985Y-82672875D01*
X92988511Y-82688556D01*
X92868379Y-82727821D01*
X92769561Y-82760120D01*
X92769557Y-82760121D01*
X92765704Y-82761381D01*
X92762104Y-82763255D01*
X92561387Y-82867741D01*
X92561384Y-82867743D01*
X92557782Y-82869618D01*
X92554540Y-82872053D01*
X92554534Y-82872056D01*
X92529145Y-82891119D01*
X92370330Y-83010361D01*
X92208382Y-83179830D01*
X92206090Y-83183190D01*
X92152312Y-83262025D01*
X92103900Y-83299442D01*
X92042742Y-83301257D01*
X91992197Y-83266777D01*
X91987418Y-83260028D01*
X91953279Y-83207258D01*
X91795520Y-83033883D01*
X91792334Y-83031367D01*
X91792331Y-83031364D01*
X91614751Y-82891119D01*
X91614745Y-82891115D01*
X91611563Y-82888602D01*
X91406348Y-82775317D01*
X91402517Y-82773960D01*
X91402514Y-82773959D01*
X91189222Y-82698428D01*
X91189218Y-82698427D01*
X91185386Y-82697070D01*
X91046955Y-82672412D01*
X90992982Y-82643593D01*
X90966256Y-82588553D01*
X90976985Y-82528316D01*
X91021072Y-82485890D01*
X91043733Y-82478109D01*
X91102341Y-82465651D01*
X91112153Y-82462463D01*
X91114869Y-82461254D01*
X91122616Y-82454279D01*
X91117164Y-82442849D01*
X90831088Y-82156774D01*
X90819202Y-82150718D01*
X90814171Y-82151514D01*
X90521897Y-82443788D01*
X90517163Y-82453079D01*
X90526349Y-82461796D01*
X90527847Y-82462463D01*
X90537657Y-82465651D01*
X90596591Y-82478178D01*
X90649579Y-82508771D01*
X90674465Y-82564667D01*
X90661743Y-82624515D01*
X90616273Y-82665456D01*
X90590985Y-82672875D01*
X90488511Y-82688556D01*
X90368379Y-82727821D01*
X90269561Y-82760120D01*
X90269557Y-82760121D01*
X90265704Y-82761381D01*
X90262104Y-82763255D01*
X90061387Y-82867741D01*
X90061384Y-82867743D01*
X90057782Y-82869618D01*
X90054540Y-82872053D01*
X90054534Y-82872056D01*
X90029145Y-82891119D01*
X89870330Y-83010361D01*
X89708382Y-83179830D01*
X89576287Y-83373473D01*
X89477594Y-83586091D01*
X89414951Y-83811973D01*
X89390042Y-84045053D01*
X89403535Y-84279071D01*
X89404427Y-84283028D01*
X89425886Y-84378247D01*
X89455069Y-84507743D01*
X89456598Y-84511507D01*
X89456599Y-84511512D01*
X89496673Y-84610202D01*
X89543259Y-84724928D01*
X89545383Y-84728394D01*
X89545385Y-84728398D01*
X89601521Y-84820003D01*
X89665736Y-84924793D01*
X89668395Y-84927863D01*
X89668396Y-84927864D01*
X89739481Y-85009927D01*
X89819212Y-85101971D01*
X89999565Y-85251703D01*
X90201951Y-85369968D01*
X90420935Y-85453590D01*
X90564457Y-85482790D01*
X90617709Y-85512918D01*
X90643083Y-85568594D01*
X90630884Y-85628552D01*
X90585774Y-85669888D01*
X90559694Y-85677663D01*
X90512923Y-85684820D01*
X90488511Y-85688556D01*
X90368379Y-85727821D01*
X90269561Y-85760120D01*
X90269557Y-85760121D01*
X90265704Y-85761381D01*
X90262104Y-85763255D01*
X90061387Y-85867741D01*
X90061384Y-85867743D01*
X90057782Y-85869618D01*
X90054540Y-85872053D01*
X90054534Y-85872056D01*
X90029145Y-85891119D01*
X89870330Y-86010361D01*
X89708382Y-86179830D01*
X89576287Y-86373473D01*
X89477594Y-86586091D01*
X89414951Y-86811973D01*
X89390042Y-87045053D01*
X89403535Y-87279071D01*
X89404427Y-87283028D01*
X89425886Y-87378247D01*
X89455069Y-87507743D01*
X89456598Y-87511507D01*
X89456599Y-87511512D01*
X89496673Y-87610202D01*
X89543259Y-87724928D01*
X89545383Y-87728394D01*
X89545385Y-87728398D01*
X89601521Y-87820003D01*
X89665736Y-87924793D01*
X89668395Y-87927863D01*
X89668396Y-87927864D01*
X89739481Y-88009927D01*
X89819212Y-88101971D01*
X89999565Y-88251703D01*
X89999976Y-88251943D01*
X90036228Y-88300046D01*
X90037299Y-88361222D01*
X90002065Y-88411451D01*
X89873576Y-88507923D01*
X89873570Y-88507928D01*
X89870330Y-88510361D01*
X89708382Y-88679830D01*
X89576287Y-88873473D01*
X89477594Y-89086091D01*
X89414951Y-89311973D01*
X89390042Y-89545053D01*
X89403535Y-89779071D01*
X89404427Y-89783028D01*
X89425886Y-89878247D01*
X89455069Y-90007743D01*
X89456598Y-90011507D01*
X89456599Y-90011512D01*
X89496673Y-90110202D01*
X89543259Y-90224928D01*
X89545383Y-90228394D01*
X89545385Y-90228398D01*
X89601521Y-90320003D01*
X89665736Y-90424793D01*
X89668395Y-90427863D01*
X89668396Y-90427864D01*
X89739481Y-90509927D01*
X89819212Y-90601971D01*
X89999565Y-90751703D01*
X90201951Y-90869968D01*
X90420935Y-90953590D01*
X90564457Y-90982790D01*
X90617709Y-91012918D01*
X90643083Y-91068594D01*
X90630884Y-91128552D01*
X90585774Y-91169888D01*
X90559694Y-91177663D01*
X90512923Y-91184820D01*
X90488511Y-91188556D01*
X90368379Y-91227821D01*
X90269561Y-91260120D01*
X90269557Y-91260121D01*
X90265704Y-91261381D01*
X90262104Y-91263255D01*
X90061387Y-91367741D01*
X90061384Y-91367743D01*
X90057782Y-91369618D01*
X90054540Y-91372053D01*
X90054534Y-91372056D01*
X90029145Y-91391119D01*
X89870330Y-91510361D01*
X89708382Y-91679830D01*
X89576287Y-91873473D01*
X89477594Y-92086091D01*
X89414951Y-92311973D01*
X89390042Y-92545053D01*
X86416342Y-92545053D01*
X86415166Y-91260120D01*
X86406313Y-81585157D01*
X89890447Y-81585157D01*
X89909688Y-81768220D01*
X89911832Y-81778310D01*
X89942344Y-81872212D01*
X89949040Y-81881429D01*
X89954736Y-81879578D01*
X90243228Y-81591086D01*
X90248470Y-81580797D01*
X91390718Y-81580797D01*
X91391514Y-81585828D01*
X91681725Y-81876039D01*
X91691873Y-81881210D01*
X91696109Y-81876974D01*
X91728168Y-81778310D01*
X91730312Y-81768220D01*
X91749553Y-81585157D01*
X92390447Y-81585157D01*
X92409688Y-81768220D01*
X92411832Y-81778310D01*
X92442344Y-81872212D01*
X92449040Y-81881429D01*
X92454736Y-81879578D01*
X92743228Y-81591086D01*
X92748470Y-81580797D01*
X93890718Y-81580797D01*
X93891514Y-81585828D01*
X94181725Y-81876039D01*
X94191873Y-81881210D01*
X94196109Y-81876974D01*
X94228168Y-81778310D01*
X94230312Y-81768220D01*
X94249553Y-81585157D01*
X94890447Y-81585157D01*
X94909688Y-81768220D01*
X94911832Y-81778310D01*
X94942344Y-81872212D01*
X94949040Y-81881429D01*
X94954736Y-81879578D01*
X95243228Y-81591086D01*
X95248470Y-81580797D01*
X96390718Y-81580797D01*
X96391514Y-81585828D01*
X96681725Y-81876039D01*
X96691873Y-81881210D01*
X96696109Y-81876974D01*
X96728168Y-81778310D01*
X96730312Y-81768220D01*
X96749553Y-81585157D01*
X97390447Y-81585157D01*
X97409688Y-81768220D01*
X97411832Y-81778310D01*
X97442344Y-81872212D01*
X97449040Y-81881429D01*
X97454736Y-81879578D01*
X97743228Y-81591086D01*
X97748470Y-81580797D01*
X98890718Y-81580797D01*
X98891514Y-81585828D01*
X99181725Y-81876039D01*
X99191873Y-81881210D01*
X99196109Y-81876974D01*
X99228168Y-81778310D01*
X99230312Y-81768220D01*
X99249553Y-81585157D01*
X99249553Y-81574843D01*
X99230312Y-81391780D01*
X99228168Y-81381690D01*
X99197656Y-81287788D01*
X99190960Y-81278571D01*
X99185264Y-81280422D01*
X98896772Y-81568914D01*
X98890718Y-81580797D01*
X97748470Y-81580797D01*
X97749282Y-81579203D01*
X97748486Y-81574172D01*
X97458275Y-81283961D01*
X97448127Y-81278790D01*
X97443891Y-81283026D01*
X97411832Y-81381690D01*
X97409688Y-81391780D01*
X97390447Y-81574843D01*
X97390447Y-81585157D01*
X96749553Y-81585157D01*
X96749553Y-81574843D01*
X96730312Y-81391780D01*
X96728168Y-81381690D01*
X96697656Y-81287788D01*
X96690960Y-81278571D01*
X96685264Y-81280422D01*
X96396772Y-81568914D01*
X96390718Y-81580797D01*
X95248470Y-81580797D01*
X95249282Y-81579203D01*
X95248486Y-81574172D01*
X94958275Y-81283961D01*
X94948127Y-81278790D01*
X94943891Y-81283026D01*
X94911832Y-81381690D01*
X94909688Y-81391780D01*
X94890447Y-81574843D01*
X94890447Y-81585157D01*
X94249553Y-81585157D01*
X94249553Y-81574843D01*
X94230312Y-81391780D01*
X94228168Y-81381690D01*
X94197656Y-81287788D01*
X94190960Y-81278571D01*
X94185264Y-81280422D01*
X93896772Y-81568914D01*
X93890718Y-81580797D01*
X92748470Y-81580797D01*
X92749282Y-81579203D01*
X92748486Y-81574172D01*
X92458275Y-81283961D01*
X92448127Y-81278790D01*
X92443891Y-81283026D01*
X92411832Y-81381690D01*
X92409688Y-81391780D01*
X92390447Y-81574843D01*
X92390447Y-81585157D01*
X91749553Y-81585157D01*
X91749553Y-81574843D01*
X91730312Y-81391780D01*
X91728168Y-81381690D01*
X91697656Y-81287788D01*
X91690960Y-81278571D01*
X91685264Y-81280422D01*
X91396772Y-81568914D01*
X91390718Y-81580797D01*
X90248470Y-81580797D01*
X90249282Y-81579203D01*
X90248486Y-81574172D01*
X89958275Y-81283961D01*
X89948127Y-81278790D01*
X89943891Y-81283026D01*
X89911832Y-81381690D01*
X89909688Y-81391780D01*
X89890447Y-81574843D01*
X89890447Y-81585157D01*
X86406313Y-81585157D01*
X86405508Y-80705721D01*
X90517384Y-80705721D01*
X90522836Y-80717151D01*
X90808912Y-81003226D01*
X90820798Y-81009282D01*
X90825829Y-81008486D01*
X91118103Y-80716212D01*
X91122837Y-80706921D01*
X91121572Y-80705721D01*
X93017384Y-80705721D01*
X93022836Y-80717151D01*
X93308912Y-81003226D01*
X93320798Y-81009282D01*
X93325829Y-81008486D01*
X93618103Y-80716212D01*
X93622837Y-80706921D01*
X93621572Y-80705721D01*
X95517384Y-80705721D01*
X95522836Y-80717151D01*
X95808912Y-81003226D01*
X95820798Y-81009282D01*
X95825829Y-81008486D01*
X96118103Y-80716212D01*
X96122837Y-80706921D01*
X96121572Y-80705721D01*
X98017384Y-80705721D01*
X98022836Y-80717151D01*
X98308912Y-81003226D01*
X98320798Y-81009282D01*
X98325829Y-81008486D01*
X98618103Y-80716212D01*
X98622837Y-80706921D01*
X98613651Y-80698204D01*
X98612153Y-80697537D01*
X98602341Y-80694349D01*
X98422295Y-80656079D01*
X98412032Y-80655000D01*
X98227968Y-80655000D01*
X98217705Y-80656079D01*
X98037659Y-80694349D01*
X98027847Y-80697537D01*
X98025131Y-80698746D01*
X98017384Y-80705721D01*
X96121572Y-80705721D01*
X96113651Y-80698204D01*
X96112153Y-80697537D01*
X96102341Y-80694349D01*
X95922295Y-80656079D01*
X95912032Y-80655000D01*
X95727968Y-80655000D01*
X95717705Y-80656079D01*
X95537659Y-80694349D01*
X95527847Y-80697537D01*
X95525131Y-80698746D01*
X95517384Y-80705721D01*
X93621572Y-80705721D01*
X93613651Y-80698204D01*
X93612153Y-80697537D01*
X93602341Y-80694349D01*
X93422295Y-80656079D01*
X93412032Y-80655000D01*
X93227968Y-80655000D01*
X93217705Y-80656079D01*
X93037659Y-80694349D01*
X93027847Y-80697537D01*
X93025131Y-80698746D01*
X93017384Y-80705721D01*
X91121572Y-80705721D01*
X91113651Y-80698204D01*
X91112153Y-80697537D01*
X91102341Y-80694349D01*
X90922295Y-80656079D01*
X90912032Y-80655000D01*
X90727968Y-80655000D01*
X90717705Y-80656079D01*
X90537659Y-80694349D01*
X90527847Y-80697537D01*
X90525131Y-80698746D01*
X90517384Y-80705721D01*
X86405508Y-80705721D01*
X86404362Y-79453079D01*
X90517163Y-79453079D01*
X90526349Y-79461796D01*
X90527847Y-79462463D01*
X90537659Y-79465651D01*
X90717705Y-79503921D01*
X90727968Y-79505000D01*
X90912032Y-79505000D01*
X90922295Y-79503921D01*
X91102341Y-79465651D01*
X91112153Y-79462463D01*
X91114869Y-79461254D01*
X91122616Y-79454279D01*
X91122044Y-79453079D01*
X93017163Y-79453079D01*
X93026349Y-79461796D01*
X93027847Y-79462463D01*
X93037659Y-79465651D01*
X93217705Y-79503921D01*
X93227968Y-79505000D01*
X93412032Y-79505000D01*
X93422295Y-79503921D01*
X93602341Y-79465651D01*
X93612153Y-79462463D01*
X93614869Y-79461254D01*
X93622616Y-79454279D01*
X93622044Y-79453079D01*
X95517163Y-79453079D01*
X95526349Y-79461796D01*
X95527847Y-79462463D01*
X95537659Y-79465651D01*
X95717705Y-79503921D01*
X95727968Y-79505000D01*
X95912032Y-79505000D01*
X95922295Y-79503921D01*
X96102341Y-79465651D01*
X96112153Y-79462463D01*
X96114869Y-79461254D01*
X96122616Y-79454279D01*
X96122044Y-79453079D01*
X98017163Y-79453079D01*
X98026349Y-79461796D01*
X98027847Y-79462463D01*
X98037659Y-79465651D01*
X98217705Y-79503921D01*
X98227968Y-79505000D01*
X98412032Y-79505000D01*
X98422295Y-79503921D01*
X98602341Y-79465651D01*
X98612153Y-79462463D01*
X98614869Y-79461254D01*
X98622616Y-79454279D01*
X98617164Y-79442849D01*
X98331088Y-79156774D01*
X98319202Y-79150718D01*
X98314171Y-79151514D01*
X98021897Y-79443788D01*
X98017163Y-79453079D01*
X96122044Y-79453079D01*
X96117164Y-79442849D01*
X95831088Y-79156774D01*
X95819202Y-79150718D01*
X95814171Y-79151514D01*
X95521897Y-79443788D01*
X95517163Y-79453079D01*
X93622044Y-79453079D01*
X93617164Y-79442849D01*
X93331088Y-79156774D01*
X93319202Y-79150718D01*
X93314171Y-79151514D01*
X93021897Y-79443788D01*
X93017163Y-79453079D01*
X91122044Y-79453079D01*
X91117164Y-79442849D01*
X90831088Y-79156774D01*
X90819202Y-79150718D01*
X90814171Y-79151514D01*
X90521897Y-79443788D01*
X90517163Y-79453079D01*
X86404362Y-79453079D01*
X86403568Y-78585157D01*
X89890447Y-78585157D01*
X89909688Y-78768220D01*
X89911832Y-78778310D01*
X89942344Y-78872212D01*
X89949040Y-78881429D01*
X89954736Y-78879578D01*
X90243228Y-78591086D01*
X90248470Y-78580797D01*
X91390718Y-78580797D01*
X91391514Y-78585828D01*
X91681725Y-78876039D01*
X91691873Y-78881210D01*
X91696109Y-78876974D01*
X91728168Y-78778310D01*
X91730312Y-78768220D01*
X91749553Y-78585157D01*
X92390447Y-78585157D01*
X92409688Y-78768220D01*
X92411832Y-78778310D01*
X92442344Y-78872212D01*
X92449040Y-78881429D01*
X92454736Y-78879578D01*
X92743228Y-78591086D01*
X92748470Y-78580797D01*
X93890718Y-78580797D01*
X93891514Y-78585828D01*
X94181725Y-78876039D01*
X94191873Y-78881210D01*
X94196109Y-78876974D01*
X94228168Y-78778310D01*
X94230312Y-78768220D01*
X94249553Y-78585157D01*
X94890447Y-78585157D01*
X94909688Y-78768220D01*
X94911832Y-78778310D01*
X94942344Y-78872212D01*
X94949040Y-78881429D01*
X94954736Y-78879578D01*
X95243228Y-78591086D01*
X95248470Y-78580797D01*
X96390718Y-78580797D01*
X96391514Y-78585828D01*
X96681725Y-78876039D01*
X96691873Y-78881210D01*
X96696109Y-78876974D01*
X96728168Y-78778310D01*
X96730312Y-78768220D01*
X96749553Y-78585157D01*
X97390447Y-78585157D01*
X97409688Y-78768220D01*
X97411832Y-78778310D01*
X97442344Y-78872212D01*
X97449040Y-78881429D01*
X97454736Y-78879578D01*
X97743228Y-78591086D01*
X97748470Y-78580797D01*
X98890718Y-78580797D01*
X98891514Y-78585828D01*
X99181725Y-78876039D01*
X99191873Y-78881210D01*
X99196109Y-78876974D01*
X99228168Y-78778310D01*
X99230312Y-78768220D01*
X99249553Y-78585157D01*
X99249553Y-78574843D01*
X99230312Y-78391780D01*
X99228168Y-78381690D01*
X99197656Y-78287788D01*
X99190960Y-78278571D01*
X99185264Y-78280422D01*
X98896772Y-78568914D01*
X98890718Y-78580797D01*
X97748470Y-78580797D01*
X97749282Y-78579203D01*
X97748486Y-78574172D01*
X97458275Y-78283961D01*
X97448127Y-78278790D01*
X97443891Y-78283026D01*
X97411832Y-78381690D01*
X97409688Y-78391780D01*
X97390447Y-78574843D01*
X97390447Y-78585157D01*
X96749553Y-78585157D01*
X96749553Y-78574843D01*
X96730312Y-78391780D01*
X96728168Y-78381690D01*
X96697656Y-78287788D01*
X96690960Y-78278571D01*
X96685264Y-78280422D01*
X96396772Y-78568914D01*
X96390718Y-78580797D01*
X95248470Y-78580797D01*
X95249282Y-78579203D01*
X95248486Y-78574172D01*
X94958275Y-78283961D01*
X94948127Y-78278790D01*
X94943891Y-78283026D01*
X94911832Y-78381690D01*
X94909688Y-78391780D01*
X94890447Y-78574843D01*
X94890447Y-78585157D01*
X94249553Y-78585157D01*
X94249553Y-78574843D01*
X94230312Y-78391780D01*
X94228168Y-78381690D01*
X94197656Y-78287788D01*
X94190960Y-78278571D01*
X94185264Y-78280422D01*
X93896772Y-78568914D01*
X93890718Y-78580797D01*
X92748470Y-78580797D01*
X92749282Y-78579203D01*
X92748486Y-78574172D01*
X92458275Y-78283961D01*
X92448127Y-78278790D01*
X92443891Y-78283026D01*
X92411832Y-78381690D01*
X92409688Y-78391780D01*
X92390447Y-78574843D01*
X92390447Y-78585157D01*
X91749553Y-78585157D01*
X91749553Y-78574843D01*
X91730312Y-78391780D01*
X91728168Y-78381690D01*
X91697656Y-78287788D01*
X91690960Y-78278571D01*
X91685264Y-78280422D01*
X91396772Y-78568914D01*
X91390718Y-78580797D01*
X90248470Y-78580797D01*
X90249282Y-78579203D01*
X90248486Y-78574172D01*
X89958275Y-78283961D01*
X89948127Y-78278790D01*
X89943891Y-78283026D01*
X89911832Y-78381690D01*
X89909688Y-78391780D01*
X89890447Y-78574843D01*
X89890447Y-78585157D01*
X86403568Y-78585157D01*
X86402764Y-77705721D01*
X90517384Y-77705721D01*
X90522836Y-77717151D01*
X90808912Y-78003226D01*
X90820798Y-78009282D01*
X90825829Y-78008486D01*
X91118103Y-77716212D01*
X91122837Y-77706921D01*
X91121572Y-77705721D01*
X93017384Y-77705721D01*
X93022836Y-77717151D01*
X93308912Y-78003226D01*
X93320798Y-78009282D01*
X93325829Y-78008486D01*
X93618103Y-77716212D01*
X93622837Y-77706921D01*
X93621572Y-77705721D01*
X95517384Y-77705721D01*
X95522836Y-77717151D01*
X95808912Y-78003226D01*
X95820798Y-78009282D01*
X95825829Y-78008486D01*
X96118103Y-77716212D01*
X96122837Y-77706921D01*
X96121572Y-77705721D01*
X98017384Y-77705721D01*
X98022836Y-77717151D01*
X98308912Y-78003226D01*
X98320798Y-78009282D01*
X98325829Y-78008486D01*
X98618103Y-77716212D01*
X98622837Y-77706921D01*
X98613651Y-77698204D01*
X98612153Y-77697537D01*
X98602341Y-77694349D01*
X98422295Y-77656079D01*
X98412032Y-77655000D01*
X98227968Y-77655000D01*
X98217705Y-77656079D01*
X98037659Y-77694349D01*
X98027847Y-77697537D01*
X98025131Y-77698746D01*
X98017384Y-77705721D01*
X96121572Y-77705721D01*
X96113651Y-77698204D01*
X96112153Y-77697537D01*
X96102341Y-77694349D01*
X95922295Y-77656079D01*
X95912032Y-77655000D01*
X95727968Y-77655000D01*
X95717705Y-77656079D01*
X95537659Y-77694349D01*
X95527847Y-77697537D01*
X95525131Y-77698746D01*
X95517384Y-77705721D01*
X93621572Y-77705721D01*
X93613651Y-77698204D01*
X93612153Y-77697537D01*
X93602341Y-77694349D01*
X93422295Y-77656079D01*
X93412032Y-77655000D01*
X93227968Y-77655000D01*
X93217705Y-77656079D01*
X93037659Y-77694349D01*
X93027847Y-77697537D01*
X93025131Y-77698746D01*
X93017384Y-77705721D01*
X91121572Y-77705721D01*
X91113651Y-77698204D01*
X91112153Y-77697537D01*
X91102341Y-77694349D01*
X90922295Y-77656079D01*
X90912032Y-77655000D01*
X90727968Y-77655000D01*
X90717705Y-77656079D01*
X90537659Y-77694349D01*
X90527847Y-77697537D01*
X90525131Y-77698746D01*
X90517384Y-77705721D01*
X86402764Y-77705721D01*
X86401517Y-76343078D01*
X86420371Y-76284870D01*
X86469838Y-76248860D01*
X86500637Y-76243987D01*
X102522751Y-76263743D01*
G37*
%TD.AperFunction*%
%TD*%
%TA.AperFunction,Conductor*%
%TO.N,/Phase_3_T4*%
G36*
X72359451Y-76268907D02*
G01*
X72395415Y-76318407D01*
X72400260Y-76348739D01*
X72539738Y-129240739D01*
X72520984Y-129298979D01*
X72471579Y-129335074D01*
X72440738Y-129340000D01*
X56418963Y-129340000D01*
X56360772Y-129321093D01*
X56324808Y-129271593D01*
X56319963Y-129241037D01*
X56318347Y-124952360D01*
X58578892Y-124952360D01*
X58585263Y-124959251D01*
X58640824Y-124993300D01*
X58647730Y-124996819D01*
X58865952Y-125087209D01*
X58873320Y-125089603D01*
X59103004Y-125144745D01*
X59110647Y-125145956D01*
X59346125Y-125164488D01*
X59353875Y-125164488D01*
X59589353Y-125145956D01*
X59596996Y-125144745D01*
X59826680Y-125089603D01*
X59834048Y-125087209D01*
X60052270Y-124996819D01*
X60059176Y-124993300D01*
X60113043Y-124960289D01*
X60121316Y-124950603D01*
X60116732Y-124942417D01*
X59361086Y-124186771D01*
X59349203Y-124180717D01*
X59344172Y-124181513D01*
X58584674Y-124941011D01*
X58578892Y-124952360D01*
X56318347Y-124952360D01*
X56317843Y-123613875D01*
X57795512Y-123613875D01*
X57814044Y-123849353D01*
X57815255Y-123856996D01*
X57870397Y-124086680D01*
X57872791Y-124094048D01*
X57963181Y-124312270D01*
X57966700Y-124319176D01*
X57999711Y-124373043D01*
X58009397Y-124381316D01*
X58017583Y-124376732D01*
X58773229Y-123621086D01*
X58778471Y-123610797D01*
X59920717Y-123610797D01*
X59921513Y-123615828D01*
X60681011Y-124375326D01*
X60692360Y-124381108D01*
X60699251Y-124374737D01*
X60733300Y-124319176D01*
X60736819Y-124312270D01*
X60827209Y-124094048D01*
X60829603Y-124086680D01*
X60884745Y-123856996D01*
X60885956Y-123849353D01*
X60904488Y-123613875D01*
X60904488Y-123606119D01*
X60903100Y-123588477D01*
X62374822Y-123588477D01*
X62375016Y-123591842D01*
X62375016Y-123591846D01*
X62378545Y-123653043D01*
X62390916Y-123867596D01*
X62444741Y-124141948D01*
X62445834Y-124145140D01*
X62525126Y-124376732D01*
X62535303Y-124406457D01*
X62660925Y-124656228D01*
X62819282Y-124886639D01*
X62821552Y-124889133D01*
X62821553Y-124889135D01*
X62919538Y-124996819D01*
X63007444Y-125093427D01*
X63221930Y-125272765D01*
X63458771Y-125421335D01*
X63461839Y-125422720D01*
X63461846Y-125422724D01*
X63627358Y-125497455D01*
X63713583Y-125536387D01*
X63716805Y-125537341D01*
X63716812Y-125537344D01*
X63931263Y-125600867D01*
X63981652Y-125615793D01*
X63984977Y-125616302D01*
X63984978Y-125616302D01*
X64254684Y-125657573D01*
X64254687Y-125657573D01*
X64258018Y-125658083D01*
X64261389Y-125658136D01*
X64261390Y-125658136D01*
X64309571Y-125658893D01*
X64537566Y-125662474D01*
X64540903Y-125662070D01*
X64540907Y-125662070D01*
X64811779Y-125629291D01*
X64811784Y-125629290D01*
X64815123Y-125628886D01*
X65085554Y-125557940D01*
X65251590Y-125489165D01*
X65340746Y-125452236D01*
X65340749Y-125452235D01*
X65343855Y-125450948D01*
X65346760Y-125449251D01*
X65346763Y-125449249D01*
X65582329Y-125311595D01*
X65585245Y-125309891D01*
X65805258Y-125137379D01*
X65999823Y-124936603D01*
X66036526Y-124886639D01*
X66066843Y-124845366D01*
X66165340Y-124711280D01*
X66196864Y-124653221D01*
X66297136Y-124468541D01*
X66298745Y-124465578D01*
X66336294Y-124366206D01*
X66396380Y-124207194D01*
X66396381Y-124207190D01*
X66397570Y-124204044D01*
X66424450Y-124086680D01*
X66459234Y-123934808D01*
X66459235Y-123934801D01*
X66459987Y-123931518D01*
X66484840Y-123653043D01*
X66485230Y-123615828D01*
X66485271Y-123611937D01*
X66485271Y-123611929D01*
X66485291Y-123610000D01*
X66466275Y-123331065D01*
X66409579Y-123057292D01*
X66316253Y-122793746D01*
X66304542Y-122771056D01*
X66189573Y-122548308D01*
X66189570Y-122548302D01*
X66188022Y-122545304D01*
X66027261Y-122316563D01*
X66009512Y-122297462D01*
X65987325Y-122273586D01*
X67459500Y-122273586D01*
X67459501Y-123610797D01*
X67459501Y-124947836D01*
X67459774Y-124952589D01*
X67460716Y-124956668D01*
X67460717Y-124956676D01*
X67492289Y-125093427D01*
X67500173Y-125127577D01*
X67578336Y-125289266D01*
X67690380Y-125429620D01*
X67694713Y-125433079D01*
X67824124Y-125536387D01*
X67830734Y-125541664D01*
X67992423Y-125619827D01*
X67997807Y-125621070D01*
X67997810Y-125621071D01*
X68084045Y-125640979D01*
X68167411Y-125660226D01*
X68172163Y-125660500D01*
X68173586Y-125660500D01*
X69514717Y-125660499D01*
X70847836Y-125660499D01*
X70852589Y-125660226D01*
X70856670Y-125659284D01*
X70856676Y-125659283D01*
X71022190Y-125621071D01*
X71022193Y-125621070D01*
X71027577Y-125619827D01*
X71189266Y-125541664D01*
X71195877Y-125536387D01*
X71325287Y-125433079D01*
X71329620Y-125429620D01*
X71441664Y-125289266D01*
X71519827Y-125127577D01*
X71560226Y-124952589D01*
X71560500Y-124947837D01*
X71560500Y-123610000D01*
X71560499Y-122273577D01*
X71560499Y-122272164D01*
X71560226Y-122267411D01*
X71559284Y-122263330D01*
X71559283Y-122263324D01*
X71521071Y-122097810D01*
X71521070Y-122097807D01*
X71519827Y-122092423D01*
X71441664Y-121930734D01*
X71434931Y-121922299D01*
X71333079Y-121794713D01*
X71329620Y-121790380D01*
X71189266Y-121678336D01*
X71172759Y-121670356D01*
X71032554Y-121602579D01*
X71027577Y-121600173D01*
X71022193Y-121598930D01*
X71022190Y-121598929D01*
X70935955Y-121579021D01*
X70852589Y-121559774D01*
X70847837Y-121559500D01*
X70846414Y-121559500D01*
X69505283Y-121559501D01*
X68172164Y-121559501D01*
X68167411Y-121559774D01*
X68163330Y-121560716D01*
X68163324Y-121560717D01*
X67997810Y-121598929D01*
X67997807Y-121598930D01*
X67992423Y-121600173D01*
X67987446Y-121602579D01*
X67847242Y-121670356D01*
X67830734Y-121678336D01*
X67690380Y-121790380D01*
X67686921Y-121794713D01*
X67585070Y-121922299D01*
X67578336Y-121930734D01*
X67500173Y-122092423D01*
X67459774Y-122267411D01*
X67459500Y-122272163D01*
X67459500Y-122273586D01*
X65987325Y-122273586D01*
X65839238Y-122114226D01*
X65836944Y-122111757D01*
X65813323Y-122092423D01*
X65623204Y-121936814D01*
X65620591Y-121934675D01*
X65382208Y-121788594D01*
X65378397Y-121786921D01*
X65129288Y-121677569D01*
X65129284Y-121677567D01*
X65126205Y-121676216D01*
X65076917Y-121662176D01*
X64860571Y-121600548D01*
X64860566Y-121600547D01*
X64857319Y-121599622D01*
X64580526Y-121560229D01*
X64577159Y-121560211D01*
X64577154Y-121560211D01*
X64452187Y-121559557D01*
X64300947Y-121558765D01*
X64023757Y-121595257D01*
X64020506Y-121596146D01*
X64020503Y-121596147D01*
X63996992Y-121602579D01*
X63754083Y-121669032D01*
X63496917Y-121778722D01*
X63494018Y-121780457D01*
X63482683Y-121787241D01*
X63257018Y-121922299D01*
X63038823Y-122097106D01*
X63036499Y-122099555D01*
X62867557Y-122277583D01*
X62846371Y-122299908D01*
X62844406Y-122302643D01*
X62844404Y-122302645D01*
X62832421Y-122319322D01*
X62683223Y-122526952D01*
X62552398Y-122774038D01*
X62456317Y-123036592D01*
X62396757Y-123309757D01*
X62374822Y-123588477D01*
X60903100Y-123588477D01*
X60885956Y-123370647D01*
X60884745Y-123363004D01*
X60829603Y-123133320D01*
X60827209Y-123125952D01*
X60736819Y-122907730D01*
X60733300Y-122900824D01*
X60700289Y-122846957D01*
X60690603Y-122838684D01*
X60682417Y-122843268D01*
X59926771Y-123598914D01*
X59920717Y-123610797D01*
X58778471Y-123610797D01*
X58779283Y-123609203D01*
X58778487Y-123604172D01*
X58018989Y-122844674D01*
X58007640Y-122838892D01*
X58000749Y-122845263D01*
X57966700Y-122900824D01*
X57963181Y-122907730D01*
X57872791Y-123125952D01*
X57870397Y-123133320D01*
X57815255Y-123363004D01*
X57814044Y-123370647D01*
X57795512Y-123606119D01*
X57795512Y-123613875D01*
X56317843Y-123613875D01*
X56317336Y-122269397D01*
X58578684Y-122269397D01*
X58583268Y-122277583D01*
X59338914Y-123033229D01*
X59350797Y-123039283D01*
X59355828Y-123038487D01*
X60115326Y-122278989D01*
X60121108Y-122267640D01*
X60114737Y-122260749D01*
X60059176Y-122226700D01*
X60052270Y-122223181D01*
X59834048Y-122132791D01*
X59826680Y-122130397D01*
X59596996Y-122075255D01*
X59589353Y-122074044D01*
X59353875Y-122055512D01*
X59346125Y-122055512D01*
X59110647Y-122074044D01*
X59103004Y-122075255D01*
X58873320Y-122130397D01*
X58865952Y-122132791D01*
X58647730Y-122223181D01*
X58640824Y-122226700D01*
X58586957Y-122259711D01*
X58578684Y-122269397D01*
X56317336Y-122269397D01*
X56310470Y-104043923D01*
X56306131Y-92525053D01*
X59280042Y-92525053D01*
X59293535Y-92759071D01*
X59294427Y-92763028D01*
X59315886Y-92858247D01*
X59345069Y-92987743D01*
X59346598Y-92991507D01*
X59346599Y-92991512D01*
X59386673Y-93090202D01*
X59433259Y-93204928D01*
X59435383Y-93208394D01*
X59435385Y-93208398D01*
X59491521Y-93300003D01*
X59555736Y-93404793D01*
X59558395Y-93407863D01*
X59558396Y-93407864D01*
X59629481Y-93489927D01*
X59709212Y-93581971D01*
X59889565Y-93731703D01*
X60091951Y-93849968D01*
X60310935Y-93933590D01*
X60314910Y-93934399D01*
X60314911Y-93934399D01*
X60536654Y-93979513D01*
X60536658Y-93979513D01*
X60540637Y-93980323D01*
X60544697Y-93980472D01*
X60544698Y-93980472D01*
X60585311Y-93981961D01*
X60774887Y-93988913D01*
X60778906Y-93988398D01*
X60778910Y-93988398D01*
X61003362Y-93959645D01*
X61003368Y-93959644D01*
X61007394Y-93959128D01*
X61011287Y-93957960D01*
X61011292Y-93957959D01*
X61170542Y-93910181D01*
X61231914Y-93891768D01*
X61342707Y-93837491D01*
X61438771Y-93790430D01*
X61438774Y-93790428D01*
X61442418Y-93788643D01*
X61633253Y-93652522D01*
X61799293Y-93487061D01*
X61873616Y-93383630D01*
X61877960Y-93377585D01*
X61927271Y-93341363D01*
X61988456Y-93341043D01*
X62038143Y-93376747D01*
X62042761Y-93383619D01*
X62055736Y-93404793D01*
X62058395Y-93407863D01*
X62058396Y-93407864D01*
X62129481Y-93489927D01*
X62209212Y-93581971D01*
X62389565Y-93731703D01*
X62591951Y-93849968D01*
X62810935Y-93933590D01*
X62814910Y-93934399D01*
X62814911Y-93934399D01*
X63036654Y-93979513D01*
X63036658Y-93979513D01*
X63040637Y-93980323D01*
X63044697Y-93980472D01*
X63044698Y-93980472D01*
X63085311Y-93981961D01*
X63274887Y-93988913D01*
X63278906Y-93988398D01*
X63278910Y-93988398D01*
X63503362Y-93959645D01*
X63503368Y-93959644D01*
X63507394Y-93959128D01*
X63511287Y-93957960D01*
X63511292Y-93957959D01*
X63670542Y-93910181D01*
X63731914Y-93891768D01*
X63842707Y-93837491D01*
X63938771Y-93790430D01*
X63938774Y-93790428D01*
X63942418Y-93788643D01*
X64133253Y-93652522D01*
X64299293Y-93487061D01*
X64373616Y-93383630D01*
X64377960Y-93377585D01*
X64427271Y-93341363D01*
X64488456Y-93341043D01*
X64538143Y-93376747D01*
X64542761Y-93383619D01*
X64555736Y-93404793D01*
X64558395Y-93407863D01*
X64558396Y-93407864D01*
X64629481Y-93489927D01*
X64709212Y-93581971D01*
X64889565Y-93731703D01*
X65091951Y-93849968D01*
X65310935Y-93933590D01*
X65314910Y-93934399D01*
X65314911Y-93934399D01*
X65536654Y-93979513D01*
X65536658Y-93979513D01*
X65540637Y-93980323D01*
X65544697Y-93980472D01*
X65544698Y-93980472D01*
X65585311Y-93981961D01*
X65774887Y-93988913D01*
X65778906Y-93988398D01*
X65778910Y-93988398D01*
X66003362Y-93959645D01*
X66003368Y-93959644D01*
X66007394Y-93959128D01*
X66011287Y-93957960D01*
X66011292Y-93957959D01*
X66170542Y-93910181D01*
X66231914Y-93891768D01*
X66342707Y-93837491D01*
X66438771Y-93790430D01*
X66438774Y-93790428D01*
X66442418Y-93788643D01*
X66633253Y-93652522D01*
X66799293Y-93487061D01*
X66873616Y-93383630D01*
X66877960Y-93377585D01*
X66927271Y-93341363D01*
X66988456Y-93341043D01*
X67038143Y-93376747D01*
X67042761Y-93383619D01*
X67055736Y-93404793D01*
X67058395Y-93407863D01*
X67058396Y-93407864D01*
X67129481Y-93489927D01*
X67209212Y-93581971D01*
X67389565Y-93731703D01*
X67591951Y-93849968D01*
X67810935Y-93933590D01*
X67814910Y-93934399D01*
X67814911Y-93934399D01*
X68036654Y-93979513D01*
X68036658Y-93979513D01*
X68040637Y-93980323D01*
X68044697Y-93980472D01*
X68044698Y-93980472D01*
X68085311Y-93981961D01*
X68274887Y-93988913D01*
X68278906Y-93988398D01*
X68278910Y-93988398D01*
X68503362Y-93959645D01*
X68503368Y-93959644D01*
X68507394Y-93959128D01*
X68511287Y-93957960D01*
X68511292Y-93957959D01*
X68670542Y-93910181D01*
X68731914Y-93891768D01*
X68842707Y-93837491D01*
X68938771Y-93790430D01*
X68938774Y-93790428D01*
X68942418Y-93788643D01*
X69133253Y-93652522D01*
X69299293Y-93487061D01*
X69373616Y-93383630D01*
X69433708Y-93300003D01*
X69433709Y-93300001D01*
X69436079Y-93296703D01*
X69437877Y-93293065D01*
X69437880Y-93293060D01*
X69538138Y-93090202D01*
X69539938Y-93086560D01*
X69541116Y-93082684D01*
X69541118Y-93082678D01*
X69606901Y-92866160D01*
X69606901Y-92866159D01*
X69608081Y-92862276D01*
X69638677Y-92629874D01*
X69640385Y-92560000D01*
X69621178Y-92326381D01*
X69612536Y-92291973D01*
X69565064Y-92102982D01*
X69564073Y-92099036D01*
X69470603Y-91884070D01*
X69343279Y-91687258D01*
X69185520Y-91513883D01*
X69182334Y-91511367D01*
X69182331Y-91511364D01*
X69004751Y-91371119D01*
X69004745Y-91371115D01*
X69001563Y-91368602D01*
X68796348Y-91255317D01*
X68792517Y-91253960D01*
X68792514Y-91253959D01*
X68579222Y-91178428D01*
X68579218Y-91178427D01*
X68575386Y-91177070D01*
X68472192Y-91158688D01*
X68418220Y-91129870D01*
X68391494Y-91074830D01*
X68402223Y-91014593D01*
X68446310Y-90972167D01*
X68476974Y-90963026D01*
X68503351Y-90959647D01*
X68503364Y-90959644D01*
X68507394Y-90959128D01*
X68511287Y-90957960D01*
X68511292Y-90957959D01*
X68670542Y-90910181D01*
X68731914Y-90891768D01*
X68842707Y-90837491D01*
X68938771Y-90790430D01*
X68938774Y-90790428D01*
X68942418Y-90788643D01*
X69133253Y-90652522D01*
X69299293Y-90487061D01*
X69373616Y-90383630D01*
X69433708Y-90300003D01*
X69433709Y-90300001D01*
X69436079Y-90296703D01*
X69437877Y-90293065D01*
X69437880Y-90293060D01*
X69538138Y-90090202D01*
X69539938Y-90086560D01*
X69541116Y-90082684D01*
X69541118Y-90082678D01*
X69606901Y-89866160D01*
X69606901Y-89866159D01*
X69608081Y-89862276D01*
X69638677Y-89629874D01*
X69640385Y-89560000D01*
X69621178Y-89326381D01*
X69612536Y-89291973D01*
X69565064Y-89102982D01*
X69564073Y-89099036D01*
X69470603Y-88884070D01*
X69343279Y-88687258D01*
X69185520Y-88513883D01*
X69182334Y-88511367D01*
X69182331Y-88511364D01*
X69023774Y-88386143D01*
X68989825Y-88335239D01*
X68992281Y-88274103D01*
X69027642Y-88227854D01*
X69133253Y-88152522D01*
X69299293Y-87987061D01*
X69373616Y-87883630D01*
X69433708Y-87800003D01*
X69433709Y-87800001D01*
X69436079Y-87796703D01*
X69437877Y-87793065D01*
X69437880Y-87793060D01*
X69538138Y-87590202D01*
X69539938Y-87586560D01*
X69541116Y-87582684D01*
X69541118Y-87582678D01*
X69606901Y-87366160D01*
X69606901Y-87366159D01*
X69608081Y-87362276D01*
X69638677Y-87129874D01*
X69640385Y-87060000D01*
X69621178Y-86826381D01*
X69612536Y-86791973D01*
X69565064Y-86602982D01*
X69564073Y-86599036D01*
X69470603Y-86384070D01*
X69343279Y-86187258D01*
X69185520Y-86013883D01*
X69182334Y-86011367D01*
X69182331Y-86011364D01*
X69004751Y-85871119D01*
X69004745Y-85871115D01*
X69001563Y-85868602D01*
X68796348Y-85755317D01*
X68792517Y-85753960D01*
X68792514Y-85753959D01*
X68579222Y-85678428D01*
X68579218Y-85678427D01*
X68575386Y-85677070D01*
X68472192Y-85658688D01*
X68418220Y-85629870D01*
X68391494Y-85574830D01*
X68402223Y-85514593D01*
X68446310Y-85472167D01*
X68476974Y-85463026D01*
X68503351Y-85459647D01*
X68503364Y-85459644D01*
X68507394Y-85459128D01*
X68511287Y-85457960D01*
X68511292Y-85457959D01*
X68670542Y-85410181D01*
X68731914Y-85391768D01*
X68842707Y-85337491D01*
X68938771Y-85290430D01*
X68938774Y-85290428D01*
X68942418Y-85288643D01*
X69133253Y-85152522D01*
X69299293Y-84987061D01*
X69373616Y-84883630D01*
X69433708Y-84800003D01*
X69433709Y-84800001D01*
X69436079Y-84796703D01*
X69437877Y-84793065D01*
X69437880Y-84793060D01*
X69538138Y-84590202D01*
X69539938Y-84586560D01*
X69541116Y-84582684D01*
X69541118Y-84582678D01*
X69606901Y-84366160D01*
X69606901Y-84366159D01*
X69608081Y-84362276D01*
X69638677Y-84129874D01*
X69640385Y-84060000D01*
X69621178Y-83826381D01*
X69612536Y-83791973D01*
X69565064Y-83602982D01*
X69564073Y-83599036D01*
X69470603Y-83384070D01*
X69343279Y-83187258D01*
X69185520Y-83013883D01*
X69182334Y-83011367D01*
X69182331Y-83011364D01*
X69004751Y-82871119D01*
X69004745Y-82871115D01*
X69001563Y-82868602D01*
X68796348Y-82755317D01*
X68792517Y-82753960D01*
X68792514Y-82753959D01*
X68579222Y-82678428D01*
X68579218Y-82678427D01*
X68575386Y-82677070D01*
X68436955Y-82652412D01*
X68382982Y-82623593D01*
X68356256Y-82568553D01*
X68366985Y-82508316D01*
X68411072Y-82465890D01*
X68433733Y-82458109D01*
X68492341Y-82445651D01*
X68502153Y-82442463D01*
X68504869Y-82441254D01*
X68512616Y-82434279D01*
X68507164Y-82422849D01*
X68221088Y-82136774D01*
X68209202Y-82130718D01*
X68204171Y-82131514D01*
X67911897Y-82423788D01*
X67907163Y-82433079D01*
X67916349Y-82441796D01*
X67917847Y-82442463D01*
X67927657Y-82445651D01*
X67986591Y-82458178D01*
X68039579Y-82488771D01*
X68064465Y-82544667D01*
X68051743Y-82604515D01*
X68006273Y-82645456D01*
X67980985Y-82652875D01*
X67878511Y-82668556D01*
X67758379Y-82707821D01*
X67659561Y-82740120D01*
X67659557Y-82740121D01*
X67655704Y-82741381D01*
X67652104Y-82743255D01*
X67451387Y-82847741D01*
X67451384Y-82847743D01*
X67447782Y-82849618D01*
X67444540Y-82852053D01*
X67444534Y-82852056D01*
X67419145Y-82871119D01*
X67260330Y-82990361D01*
X67098382Y-83159830D01*
X67096090Y-83163190D01*
X67042312Y-83242025D01*
X66993900Y-83279442D01*
X66932742Y-83281257D01*
X66882197Y-83246777D01*
X66877418Y-83240028D01*
X66843279Y-83187258D01*
X66685520Y-83013883D01*
X66682334Y-83011367D01*
X66682331Y-83011364D01*
X66504751Y-82871119D01*
X66504745Y-82871115D01*
X66501563Y-82868602D01*
X66296348Y-82755317D01*
X66292517Y-82753960D01*
X66292514Y-82753959D01*
X66079222Y-82678428D01*
X66079218Y-82678427D01*
X66075386Y-82677070D01*
X65936955Y-82652412D01*
X65882982Y-82623593D01*
X65856256Y-82568553D01*
X65866985Y-82508316D01*
X65911072Y-82465890D01*
X65933733Y-82458109D01*
X65992341Y-82445651D01*
X66002153Y-82442463D01*
X66004869Y-82441254D01*
X66012616Y-82434279D01*
X66007164Y-82422849D01*
X65721088Y-82136774D01*
X65709202Y-82130718D01*
X65704171Y-82131514D01*
X65411897Y-82423788D01*
X65407163Y-82433079D01*
X65416349Y-82441796D01*
X65417847Y-82442463D01*
X65427657Y-82445651D01*
X65486591Y-82458178D01*
X65539579Y-82488771D01*
X65564465Y-82544667D01*
X65551743Y-82604515D01*
X65506273Y-82645456D01*
X65480985Y-82652875D01*
X65378511Y-82668556D01*
X65258379Y-82707821D01*
X65159561Y-82740120D01*
X65159557Y-82740121D01*
X65155704Y-82741381D01*
X65152104Y-82743255D01*
X64951387Y-82847741D01*
X64951384Y-82847743D01*
X64947782Y-82849618D01*
X64944540Y-82852053D01*
X64944534Y-82852056D01*
X64919145Y-82871119D01*
X64760330Y-82990361D01*
X64598382Y-83159830D01*
X64596090Y-83163190D01*
X64542312Y-83242025D01*
X64493900Y-83279442D01*
X64432742Y-83281257D01*
X64382197Y-83246777D01*
X64377418Y-83240028D01*
X64343279Y-83187258D01*
X64185520Y-83013883D01*
X64182334Y-83011367D01*
X64182331Y-83011364D01*
X64004751Y-82871119D01*
X64004745Y-82871115D01*
X64001563Y-82868602D01*
X63796348Y-82755317D01*
X63792517Y-82753960D01*
X63792514Y-82753959D01*
X63579222Y-82678428D01*
X63579218Y-82678427D01*
X63575386Y-82677070D01*
X63436955Y-82652412D01*
X63382982Y-82623593D01*
X63356256Y-82568553D01*
X63366985Y-82508316D01*
X63411072Y-82465890D01*
X63433733Y-82458109D01*
X63492341Y-82445651D01*
X63502153Y-82442463D01*
X63504869Y-82441254D01*
X63512616Y-82434279D01*
X63507164Y-82422849D01*
X63221088Y-82136774D01*
X63209202Y-82130718D01*
X63204171Y-82131514D01*
X62911897Y-82423788D01*
X62907163Y-82433079D01*
X62916349Y-82441796D01*
X62917847Y-82442463D01*
X62927657Y-82445651D01*
X62986591Y-82458178D01*
X63039579Y-82488771D01*
X63064465Y-82544667D01*
X63051743Y-82604515D01*
X63006273Y-82645456D01*
X62980985Y-82652875D01*
X62878511Y-82668556D01*
X62758379Y-82707821D01*
X62659561Y-82740120D01*
X62659557Y-82740121D01*
X62655704Y-82741381D01*
X62652104Y-82743255D01*
X62451387Y-82847741D01*
X62451384Y-82847743D01*
X62447782Y-82849618D01*
X62444540Y-82852053D01*
X62444534Y-82852056D01*
X62419145Y-82871119D01*
X62260330Y-82990361D01*
X62098382Y-83159830D01*
X62096090Y-83163190D01*
X62042312Y-83242025D01*
X61993900Y-83279442D01*
X61932742Y-83281257D01*
X61882197Y-83246777D01*
X61877418Y-83240028D01*
X61843279Y-83187258D01*
X61685520Y-83013883D01*
X61682334Y-83011367D01*
X61682331Y-83011364D01*
X61504751Y-82871119D01*
X61504745Y-82871115D01*
X61501563Y-82868602D01*
X61296348Y-82755317D01*
X61292517Y-82753960D01*
X61292514Y-82753959D01*
X61079222Y-82678428D01*
X61079218Y-82678427D01*
X61075386Y-82677070D01*
X60936955Y-82652412D01*
X60882982Y-82623593D01*
X60856256Y-82568553D01*
X60866985Y-82508316D01*
X60911072Y-82465890D01*
X60933733Y-82458109D01*
X60992341Y-82445651D01*
X61002153Y-82442463D01*
X61004869Y-82441254D01*
X61012616Y-82434279D01*
X61007164Y-82422849D01*
X60721088Y-82136774D01*
X60709202Y-82130718D01*
X60704171Y-82131514D01*
X60411897Y-82423788D01*
X60407163Y-82433079D01*
X60416349Y-82441796D01*
X60417847Y-82442463D01*
X60427657Y-82445651D01*
X60486591Y-82458178D01*
X60539579Y-82488771D01*
X60564465Y-82544667D01*
X60551743Y-82604515D01*
X60506273Y-82645456D01*
X60480985Y-82652875D01*
X60378511Y-82668556D01*
X60258379Y-82707821D01*
X60159561Y-82740120D01*
X60159557Y-82740121D01*
X60155704Y-82741381D01*
X60152104Y-82743255D01*
X59951387Y-82847741D01*
X59951384Y-82847743D01*
X59947782Y-82849618D01*
X59944540Y-82852053D01*
X59944534Y-82852056D01*
X59919145Y-82871119D01*
X59760330Y-82990361D01*
X59598382Y-83159830D01*
X59466287Y-83353473D01*
X59367594Y-83566091D01*
X59304951Y-83791973D01*
X59280042Y-84025053D01*
X59293535Y-84259071D01*
X59294427Y-84263028D01*
X59315886Y-84358247D01*
X59345069Y-84487743D01*
X59346598Y-84491507D01*
X59346599Y-84491512D01*
X59386673Y-84590202D01*
X59433259Y-84704928D01*
X59435383Y-84708394D01*
X59435385Y-84708398D01*
X59491521Y-84800003D01*
X59555736Y-84904793D01*
X59558395Y-84907863D01*
X59558396Y-84907864D01*
X59629481Y-84989927D01*
X59709212Y-85081971D01*
X59889565Y-85231703D01*
X60091951Y-85349968D01*
X60310935Y-85433590D01*
X60454457Y-85462790D01*
X60507709Y-85492918D01*
X60533083Y-85548594D01*
X60520884Y-85608552D01*
X60475774Y-85649888D01*
X60449694Y-85657663D01*
X60402923Y-85664820D01*
X60378511Y-85668556D01*
X60258379Y-85707821D01*
X60159561Y-85740120D01*
X60159557Y-85740121D01*
X60155704Y-85741381D01*
X60152104Y-85743255D01*
X59951387Y-85847741D01*
X59951384Y-85847743D01*
X59947782Y-85849618D01*
X59944540Y-85852053D01*
X59944534Y-85852056D01*
X59919145Y-85871119D01*
X59760330Y-85990361D01*
X59598382Y-86159830D01*
X59466287Y-86353473D01*
X59367594Y-86566091D01*
X59304951Y-86791973D01*
X59280042Y-87025053D01*
X59293535Y-87259071D01*
X59294427Y-87263028D01*
X59315886Y-87358247D01*
X59345069Y-87487743D01*
X59346598Y-87491507D01*
X59346599Y-87491512D01*
X59386673Y-87590202D01*
X59433259Y-87704928D01*
X59435383Y-87708394D01*
X59435385Y-87708398D01*
X59491521Y-87800003D01*
X59555736Y-87904793D01*
X59558395Y-87907863D01*
X59558396Y-87907864D01*
X59629481Y-87989927D01*
X59709212Y-88081971D01*
X59889565Y-88231703D01*
X59889976Y-88231943D01*
X59926228Y-88280046D01*
X59927299Y-88341222D01*
X59892065Y-88391451D01*
X59763576Y-88487923D01*
X59763570Y-88487928D01*
X59760330Y-88490361D01*
X59598382Y-88659830D01*
X59466287Y-88853473D01*
X59367594Y-89066091D01*
X59304951Y-89291973D01*
X59280042Y-89525053D01*
X59293535Y-89759071D01*
X59294427Y-89763028D01*
X59315886Y-89858247D01*
X59345069Y-89987743D01*
X59346598Y-89991507D01*
X59346599Y-89991512D01*
X59386673Y-90090202D01*
X59433259Y-90204928D01*
X59435383Y-90208394D01*
X59435385Y-90208398D01*
X59491521Y-90300003D01*
X59555736Y-90404793D01*
X59558395Y-90407863D01*
X59558396Y-90407864D01*
X59629481Y-90489927D01*
X59709212Y-90581971D01*
X59889565Y-90731703D01*
X60091951Y-90849968D01*
X60310935Y-90933590D01*
X60454457Y-90962790D01*
X60507709Y-90992918D01*
X60533083Y-91048594D01*
X60520884Y-91108552D01*
X60475774Y-91149888D01*
X60449694Y-91157663D01*
X60402923Y-91164820D01*
X60378511Y-91168556D01*
X60258379Y-91207821D01*
X60159561Y-91240120D01*
X60159557Y-91240121D01*
X60155704Y-91241381D01*
X60152104Y-91243255D01*
X59951387Y-91347741D01*
X59951384Y-91347743D01*
X59947782Y-91349618D01*
X59944540Y-91352053D01*
X59944534Y-91352056D01*
X59919145Y-91371119D01*
X59760330Y-91490361D01*
X59598382Y-91659830D01*
X59466287Y-91853473D01*
X59367594Y-92066091D01*
X59304951Y-92291973D01*
X59280042Y-92525053D01*
X56306131Y-92525053D01*
X56302002Y-81565157D01*
X59780447Y-81565157D01*
X59799688Y-81748220D01*
X59801832Y-81758310D01*
X59832344Y-81852212D01*
X59839040Y-81861429D01*
X59844736Y-81859578D01*
X60133228Y-81571086D01*
X60138470Y-81560797D01*
X61280718Y-81560797D01*
X61281514Y-81565828D01*
X61571725Y-81856039D01*
X61581873Y-81861210D01*
X61586109Y-81856974D01*
X61618168Y-81758310D01*
X61620312Y-81748220D01*
X61639553Y-81565157D01*
X62280447Y-81565157D01*
X62299688Y-81748220D01*
X62301832Y-81758310D01*
X62332344Y-81852212D01*
X62339040Y-81861429D01*
X62344736Y-81859578D01*
X62633228Y-81571086D01*
X62638470Y-81560797D01*
X63780718Y-81560797D01*
X63781514Y-81565828D01*
X64071725Y-81856039D01*
X64081873Y-81861210D01*
X64086109Y-81856974D01*
X64118168Y-81758310D01*
X64120312Y-81748220D01*
X64139553Y-81565157D01*
X64780447Y-81565157D01*
X64799688Y-81748220D01*
X64801832Y-81758310D01*
X64832344Y-81852212D01*
X64839040Y-81861429D01*
X64844736Y-81859578D01*
X65133228Y-81571086D01*
X65138470Y-81560797D01*
X66280718Y-81560797D01*
X66281514Y-81565828D01*
X66571725Y-81856039D01*
X66581873Y-81861210D01*
X66586109Y-81856974D01*
X66618168Y-81758310D01*
X66620312Y-81748220D01*
X66639553Y-81565157D01*
X67280447Y-81565157D01*
X67299688Y-81748220D01*
X67301832Y-81758310D01*
X67332344Y-81852212D01*
X67339040Y-81861429D01*
X67344736Y-81859578D01*
X67633228Y-81571086D01*
X67638470Y-81560797D01*
X68780718Y-81560797D01*
X68781514Y-81565828D01*
X69071725Y-81856039D01*
X69081873Y-81861210D01*
X69086109Y-81856974D01*
X69118168Y-81758310D01*
X69120312Y-81748220D01*
X69139553Y-81565157D01*
X69139553Y-81554843D01*
X69120312Y-81371780D01*
X69118168Y-81361690D01*
X69087656Y-81267788D01*
X69080960Y-81258571D01*
X69075264Y-81260422D01*
X68786772Y-81548914D01*
X68780718Y-81560797D01*
X67638470Y-81560797D01*
X67639282Y-81559203D01*
X67638486Y-81554172D01*
X67348275Y-81263961D01*
X67338127Y-81258790D01*
X67333891Y-81263026D01*
X67301832Y-81361690D01*
X67299688Y-81371780D01*
X67280447Y-81554843D01*
X67280447Y-81565157D01*
X66639553Y-81565157D01*
X66639553Y-81554843D01*
X66620312Y-81371780D01*
X66618168Y-81361690D01*
X66587656Y-81267788D01*
X66580960Y-81258571D01*
X66575264Y-81260422D01*
X66286772Y-81548914D01*
X66280718Y-81560797D01*
X65138470Y-81560797D01*
X65139282Y-81559203D01*
X65138486Y-81554172D01*
X64848275Y-81263961D01*
X64838127Y-81258790D01*
X64833891Y-81263026D01*
X64801832Y-81361690D01*
X64799688Y-81371780D01*
X64780447Y-81554843D01*
X64780447Y-81565157D01*
X64139553Y-81565157D01*
X64139553Y-81554843D01*
X64120312Y-81371780D01*
X64118168Y-81361690D01*
X64087656Y-81267788D01*
X64080960Y-81258571D01*
X64075264Y-81260422D01*
X63786772Y-81548914D01*
X63780718Y-81560797D01*
X62638470Y-81560797D01*
X62639282Y-81559203D01*
X62638486Y-81554172D01*
X62348275Y-81263961D01*
X62338127Y-81258790D01*
X62333891Y-81263026D01*
X62301832Y-81361690D01*
X62299688Y-81371780D01*
X62280447Y-81554843D01*
X62280447Y-81565157D01*
X61639553Y-81565157D01*
X61639553Y-81554843D01*
X61620312Y-81371780D01*
X61618168Y-81361690D01*
X61587656Y-81267788D01*
X61580960Y-81258571D01*
X61575264Y-81260422D01*
X61286772Y-81548914D01*
X61280718Y-81560797D01*
X60138470Y-81560797D01*
X60139282Y-81559203D01*
X60138486Y-81554172D01*
X59848275Y-81263961D01*
X59838127Y-81258790D01*
X59833891Y-81263026D01*
X59801832Y-81361690D01*
X59799688Y-81371780D01*
X59780447Y-81554843D01*
X59780447Y-81565157D01*
X56302002Y-81565157D01*
X56301671Y-80685721D01*
X60407384Y-80685721D01*
X60412836Y-80697151D01*
X60698912Y-80983226D01*
X60710798Y-80989282D01*
X60715829Y-80988486D01*
X61008103Y-80696212D01*
X61012837Y-80686921D01*
X61011572Y-80685721D01*
X62907384Y-80685721D01*
X62912836Y-80697151D01*
X63198912Y-80983226D01*
X63210798Y-80989282D01*
X63215829Y-80988486D01*
X63508103Y-80696212D01*
X63512837Y-80686921D01*
X63511572Y-80685721D01*
X65407384Y-80685721D01*
X65412836Y-80697151D01*
X65698912Y-80983226D01*
X65710798Y-80989282D01*
X65715829Y-80988486D01*
X66008103Y-80696212D01*
X66012837Y-80686921D01*
X66011572Y-80685721D01*
X67907384Y-80685721D01*
X67912836Y-80697151D01*
X68198912Y-80983226D01*
X68210798Y-80989282D01*
X68215829Y-80988486D01*
X68508103Y-80696212D01*
X68512837Y-80686921D01*
X68503651Y-80678204D01*
X68502153Y-80677537D01*
X68492341Y-80674349D01*
X68312295Y-80636079D01*
X68302032Y-80635000D01*
X68117968Y-80635000D01*
X68107705Y-80636079D01*
X67927659Y-80674349D01*
X67917847Y-80677537D01*
X67915131Y-80678746D01*
X67907384Y-80685721D01*
X66011572Y-80685721D01*
X66003651Y-80678204D01*
X66002153Y-80677537D01*
X65992341Y-80674349D01*
X65812295Y-80636079D01*
X65802032Y-80635000D01*
X65617968Y-80635000D01*
X65607705Y-80636079D01*
X65427659Y-80674349D01*
X65417847Y-80677537D01*
X65415131Y-80678746D01*
X65407384Y-80685721D01*
X63511572Y-80685721D01*
X63503651Y-80678204D01*
X63502153Y-80677537D01*
X63492341Y-80674349D01*
X63312295Y-80636079D01*
X63302032Y-80635000D01*
X63117968Y-80635000D01*
X63107705Y-80636079D01*
X62927659Y-80674349D01*
X62917847Y-80677537D01*
X62915131Y-80678746D01*
X62907384Y-80685721D01*
X61011572Y-80685721D01*
X61003651Y-80678204D01*
X61002153Y-80677537D01*
X60992341Y-80674349D01*
X60812295Y-80636079D01*
X60802032Y-80635000D01*
X60617968Y-80635000D01*
X60607705Y-80636079D01*
X60427659Y-80674349D01*
X60417847Y-80677537D01*
X60415131Y-80678746D01*
X60407384Y-80685721D01*
X56301671Y-80685721D01*
X56301199Y-79433079D01*
X60407163Y-79433079D01*
X60416349Y-79441796D01*
X60417847Y-79442463D01*
X60427659Y-79445651D01*
X60607705Y-79483921D01*
X60617968Y-79485000D01*
X60802032Y-79485000D01*
X60812295Y-79483921D01*
X60992341Y-79445651D01*
X61002153Y-79442463D01*
X61004869Y-79441254D01*
X61012616Y-79434279D01*
X61012044Y-79433079D01*
X62907163Y-79433079D01*
X62916349Y-79441796D01*
X62917847Y-79442463D01*
X62927659Y-79445651D01*
X63107705Y-79483921D01*
X63117968Y-79485000D01*
X63302032Y-79485000D01*
X63312295Y-79483921D01*
X63492341Y-79445651D01*
X63502153Y-79442463D01*
X63504869Y-79441254D01*
X63512616Y-79434279D01*
X63512044Y-79433079D01*
X65407163Y-79433079D01*
X65416349Y-79441796D01*
X65417847Y-79442463D01*
X65427659Y-79445651D01*
X65607705Y-79483921D01*
X65617968Y-79485000D01*
X65802032Y-79485000D01*
X65812295Y-79483921D01*
X65992341Y-79445651D01*
X66002153Y-79442463D01*
X66004869Y-79441254D01*
X66012616Y-79434279D01*
X66012044Y-79433079D01*
X67907163Y-79433079D01*
X67916349Y-79441796D01*
X67917847Y-79442463D01*
X67927659Y-79445651D01*
X68107705Y-79483921D01*
X68117968Y-79485000D01*
X68302032Y-79485000D01*
X68312295Y-79483921D01*
X68492341Y-79445651D01*
X68502153Y-79442463D01*
X68504869Y-79441254D01*
X68512616Y-79434279D01*
X68507164Y-79422849D01*
X68221088Y-79136774D01*
X68209202Y-79130718D01*
X68204171Y-79131514D01*
X67911897Y-79423788D01*
X67907163Y-79433079D01*
X66012044Y-79433079D01*
X66007164Y-79422849D01*
X65721088Y-79136774D01*
X65709202Y-79130718D01*
X65704171Y-79131514D01*
X65411897Y-79423788D01*
X65407163Y-79433079D01*
X63512044Y-79433079D01*
X63507164Y-79422849D01*
X63221088Y-79136774D01*
X63209202Y-79130718D01*
X63204171Y-79131514D01*
X62911897Y-79423788D01*
X62907163Y-79433079D01*
X61012044Y-79433079D01*
X61007164Y-79422849D01*
X60721088Y-79136774D01*
X60709202Y-79130718D01*
X60704171Y-79131514D01*
X60411897Y-79423788D01*
X60407163Y-79433079D01*
X56301199Y-79433079D01*
X56300872Y-78565157D01*
X59780447Y-78565157D01*
X59799688Y-78748220D01*
X59801832Y-78758310D01*
X59832344Y-78852212D01*
X59839040Y-78861429D01*
X59844736Y-78859578D01*
X60133228Y-78571086D01*
X60138470Y-78560797D01*
X61280718Y-78560797D01*
X61281514Y-78565828D01*
X61571725Y-78856039D01*
X61581873Y-78861210D01*
X61586109Y-78856974D01*
X61618168Y-78758310D01*
X61620312Y-78748220D01*
X61639553Y-78565157D01*
X62280447Y-78565157D01*
X62299688Y-78748220D01*
X62301832Y-78758310D01*
X62332344Y-78852212D01*
X62339040Y-78861429D01*
X62344736Y-78859578D01*
X62633228Y-78571086D01*
X62638470Y-78560797D01*
X63780718Y-78560797D01*
X63781514Y-78565828D01*
X64071725Y-78856039D01*
X64081873Y-78861210D01*
X64086109Y-78856974D01*
X64118168Y-78758310D01*
X64120312Y-78748220D01*
X64139553Y-78565157D01*
X64780447Y-78565157D01*
X64799688Y-78748220D01*
X64801832Y-78758310D01*
X64832344Y-78852212D01*
X64839040Y-78861429D01*
X64844736Y-78859578D01*
X65133228Y-78571086D01*
X65138470Y-78560797D01*
X66280718Y-78560797D01*
X66281514Y-78565828D01*
X66571725Y-78856039D01*
X66581873Y-78861210D01*
X66586109Y-78856974D01*
X66618168Y-78758310D01*
X66620312Y-78748220D01*
X66639553Y-78565157D01*
X67280447Y-78565157D01*
X67299688Y-78748220D01*
X67301832Y-78758310D01*
X67332344Y-78852212D01*
X67339040Y-78861429D01*
X67344736Y-78859578D01*
X67633228Y-78571086D01*
X67638470Y-78560797D01*
X68780718Y-78560797D01*
X68781514Y-78565828D01*
X69071725Y-78856039D01*
X69081873Y-78861210D01*
X69086109Y-78856974D01*
X69118168Y-78758310D01*
X69120312Y-78748220D01*
X69139553Y-78565157D01*
X69139553Y-78554843D01*
X69120312Y-78371780D01*
X69118168Y-78361690D01*
X69087656Y-78267788D01*
X69080960Y-78258571D01*
X69075264Y-78260422D01*
X68786772Y-78548914D01*
X68780718Y-78560797D01*
X67638470Y-78560797D01*
X67639282Y-78559203D01*
X67638486Y-78554172D01*
X67348275Y-78263961D01*
X67338127Y-78258790D01*
X67333891Y-78263026D01*
X67301832Y-78361690D01*
X67299688Y-78371780D01*
X67280447Y-78554843D01*
X67280447Y-78565157D01*
X66639553Y-78565157D01*
X66639553Y-78554843D01*
X66620312Y-78371780D01*
X66618168Y-78361690D01*
X66587656Y-78267788D01*
X66580960Y-78258571D01*
X66575264Y-78260422D01*
X66286772Y-78548914D01*
X66280718Y-78560797D01*
X65138470Y-78560797D01*
X65139282Y-78559203D01*
X65138486Y-78554172D01*
X64848275Y-78263961D01*
X64838127Y-78258790D01*
X64833891Y-78263026D01*
X64801832Y-78361690D01*
X64799688Y-78371780D01*
X64780447Y-78554843D01*
X64780447Y-78565157D01*
X64139553Y-78565157D01*
X64139553Y-78554843D01*
X64120312Y-78371780D01*
X64118168Y-78361690D01*
X64087656Y-78267788D01*
X64080960Y-78258571D01*
X64075264Y-78260422D01*
X63786772Y-78548914D01*
X63780718Y-78560797D01*
X62638470Y-78560797D01*
X62639282Y-78559203D01*
X62638486Y-78554172D01*
X62348275Y-78263961D01*
X62338127Y-78258790D01*
X62333891Y-78263026D01*
X62301832Y-78361690D01*
X62299688Y-78371780D01*
X62280447Y-78554843D01*
X62280447Y-78565157D01*
X61639553Y-78565157D01*
X61639553Y-78554843D01*
X61620312Y-78371780D01*
X61618168Y-78361690D01*
X61587656Y-78267788D01*
X61580960Y-78258571D01*
X61575264Y-78260422D01*
X61286772Y-78548914D01*
X61280718Y-78560797D01*
X60138470Y-78560797D01*
X60139282Y-78559203D01*
X60138486Y-78554172D01*
X59848275Y-78263961D01*
X59838127Y-78258790D01*
X59833891Y-78263026D01*
X59801832Y-78361690D01*
X59799688Y-78371780D01*
X59780447Y-78554843D01*
X59780447Y-78565157D01*
X56300872Y-78565157D01*
X56300541Y-77685721D01*
X60407384Y-77685721D01*
X60412836Y-77697151D01*
X60698912Y-77983226D01*
X60710798Y-77989282D01*
X60715829Y-77988486D01*
X61008103Y-77696212D01*
X61012837Y-77686921D01*
X61011572Y-77685721D01*
X62907384Y-77685721D01*
X62912836Y-77697151D01*
X63198912Y-77983226D01*
X63210798Y-77989282D01*
X63215829Y-77988486D01*
X63508103Y-77696212D01*
X63512837Y-77686921D01*
X63511572Y-77685721D01*
X65407384Y-77685721D01*
X65412836Y-77697151D01*
X65698912Y-77983226D01*
X65710798Y-77989282D01*
X65715829Y-77988486D01*
X66008103Y-77696212D01*
X66012837Y-77686921D01*
X66011572Y-77685721D01*
X67907384Y-77685721D01*
X67912836Y-77697151D01*
X68198912Y-77983226D01*
X68210798Y-77989282D01*
X68215829Y-77988486D01*
X68508103Y-77696212D01*
X68512837Y-77686921D01*
X68503651Y-77678204D01*
X68502153Y-77677537D01*
X68492341Y-77674349D01*
X68312295Y-77636079D01*
X68302032Y-77635000D01*
X68117968Y-77635000D01*
X68107705Y-77636079D01*
X67927659Y-77674349D01*
X67917847Y-77677537D01*
X67915131Y-77678746D01*
X67907384Y-77685721D01*
X66011572Y-77685721D01*
X66003651Y-77678204D01*
X66002153Y-77677537D01*
X65992341Y-77674349D01*
X65812295Y-77636079D01*
X65802032Y-77635000D01*
X65617968Y-77635000D01*
X65607705Y-77636079D01*
X65427659Y-77674349D01*
X65417847Y-77677537D01*
X65415131Y-77678746D01*
X65407384Y-77685721D01*
X63511572Y-77685721D01*
X63503651Y-77678204D01*
X63502153Y-77677537D01*
X63492341Y-77674349D01*
X63312295Y-77636079D01*
X63302032Y-77635000D01*
X63117968Y-77635000D01*
X63107705Y-77636079D01*
X62927659Y-77674349D01*
X62917847Y-77677537D01*
X62915131Y-77678746D01*
X62907384Y-77685721D01*
X61011572Y-77685721D01*
X61003651Y-77678204D01*
X61002153Y-77677537D01*
X60992341Y-77674349D01*
X60812295Y-77636079D01*
X60802032Y-77635000D01*
X60617968Y-77635000D01*
X60607705Y-77636079D01*
X60427659Y-77674349D01*
X60417847Y-77677537D01*
X60415131Y-77678746D01*
X60407384Y-77685721D01*
X56300541Y-77685721D01*
X56300037Y-76349036D01*
X56318922Y-76290839D01*
X56368409Y-76254857D01*
X56399037Y-76250000D01*
X72301260Y-76250000D01*
X72359451Y-76268907D01*
G37*
%TD.AperFunction*%
%TD*%
%TA.AperFunction,Conductor*%
%TO.N,/Phase_3_T2*%
G36*
X127699283Y-76248175D02*
G01*
X132616867Y-76251214D01*
X132675046Y-76270157D01*
X132710979Y-76319680D01*
X132715806Y-76350113D01*
X132725886Y-86204255D01*
X132766208Y-125622421D01*
X132769899Y-129230899D01*
X132751051Y-129289109D01*
X132701588Y-129325123D01*
X132670899Y-129330000D01*
X116609048Y-129330000D01*
X116550857Y-129311093D01*
X116514893Y-129261593D01*
X116510048Y-129230952D01*
X116512139Y-124912360D01*
X118793892Y-124912360D01*
X118800263Y-124919251D01*
X118855824Y-124953300D01*
X118862730Y-124956819D01*
X119080952Y-125047209D01*
X119088320Y-125049603D01*
X119318004Y-125104745D01*
X119325647Y-125105956D01*
X119561125Y-125124488D01*
X119568875Y-125124488D01*
X119804353Y-125105956D01*
X119811996Y-125104745D01*
X120041680Y-125049603D01*
X120049048Y-125047209D01*
X120267270Y-124956819D01*
X120274176Y-124953300D01*
X120328043Y-124920289D01*
X120336316Y-124910603D01*
X120331732Y-124902417D01*
X119576086Y-124146771D01*
X119564203Y-124140717D01*
X119559172Y-124141513D01*
X118799674Y-124901011D01*
X118793892Y-124912360D01*
X116512139Y-124912360D01*
X116512787Y-123573875D01*
X118010512Y-123573875D01*
X118029044Y-123809353D01*
X118030255Y-123816996D01*
X118085397Y-124046680D01*
X118087791Y-124054048D01*
X118178181Y-124272270D01*
X118181700Y-124279176D01*
X118214711Y-124333043D01*
X118224397Y-124341316D01*
X118232583Y-124336732D01*
X118988229Y-123581086D01*
X118993471Y-123570797D01*
X120135717Y-123570797D01*
X120136513Y-123575828D01*
X120896011Y-124335326D01*
X120907360Y-124341108D01*
X120914251Y-124334737D01*
X120948300Y-124279176D01*
X120951819Y-124272270D01*
X121042209Y-124054048D01*
X121044603Y-124046680D01*
X121099745Y-123816996D01*
X121100956Y-123809353D01*
X121119488Y-123573875D01*
X121119488Y-123566119D01*
X121118100Y-123548477D01*
X122589822Y-123548477D01*
X122590016Y-123551842D01*
X122590016Y-123551846D01*
X122593545Y-123613043D01*
X122605916Y-123827596D01*
X122659741Y-124101948D01*
X122660834Y-124105140D01*
X122740126Y-124336732D01*
X122750303Y-124366457D01*
X122875925Y-124616228D01*
X123034282Y-124846639D01*
X123036552Y-124849133D01*
X123036553Y-124849135D01*
X123134538Y-124956819D01*
X123222444Y-125053427D01*
X123436930Y-125232765D01*
X123673771Y-125381335D01*
X123676839Y-125382720D01*
X123676846Y-125382724D01*
X123842358Y-125457455D01*
X123928583Y-125496387D01*
X123931805Y-125497341D01*
X123931812Y-125497344D01*
X124146263Y-125560867D01*
X124196652Y-125575793D01*
X124199977Y-125576302D01*
X124199978Y-125576302D01*
X124469684Y-125617573D01*
X124469687Y-125617573D01*
X124473018Y-125618083D01*
X124476389Y-125618136D01*
X124476390Y-125618136D01*
X124524571Y-125618893D01*
X124752566Y-125622474D01*
X124755903Y-125622070D01*
X124755907Y-125622070D01*
X125026779Y-125589291D01*
X125026784Y-125589290D01*
X125030123Y-125588886D01*
X125300554Y-125517940D01*
X125466590Y-125449165D01*
X125555746Y-125412236D01*
X125555749Y-125412235D01*
X125558855Y-125410948D01*
X125561760Y-125409251D01*
X125561763Y-125409249D01*
X125797329Y-125271595D01*
X125800245Y-125269891D01*
X126020258Y-125097379D01*
X126214823Y-124896603D01*
X126251526Y-124846639D01*
X126281843Y-124805366D01*
X126380340Y-124671280D01*
X126411864Y-124613221D01*
X126512136Y-124428541D01*
X126513745Y-124425578D01*
X126551294Y-124326206D01*
X126611380Y-124167194D01*
X126611381Y-124167190D01*
X126612570Y-124164044D01*
X126639450Y-124046680D01*
X126674234Y-123894808D01*
X126674235Y-123894801D01*
X126674987Y-123891518D01*
X126699840Y-123613043D01*
X126700230Y-123575828D01*
X126700271Y-123571937D01*
X126700271Y-123571929D01*
X126700291Y-123570000D01*
X126681275Y-123291065D01*
X126624579Y-123017292D01*
X126531253Y-122753746D01*
X126519542Y-122731056D01*
X126404573Y-122508308D01*
X126404570Y-122508302D01*
X126403022Y-122505304D01*
X126242261Y-122276563D01*
X126224512Y-122257462D01*
X126202325Y-122233586D01*
X127674500Y-122233586D01*
X127674501Y-123570797D01*
X127674501Y-124907836D01*
X127674774Y-124912589D01*
X127675716Y-124916668D01*
X127675717Y-124916676D01*
X127707289Y-125053427D01*
X127715173Y-125087577D01*
X127793336Y-125249266D01*
X127905380Y-125389620D01*
X127909713Y-125393079D01*
X128039124Y-125496387D01*
X128045734Y-125501664D01*
X128207423Y-125579827D01*
X128212807Y-125581070D01*
X128212810Y-125581071D01*
X128299045Y-125600979D01*
X128382411Y-125620226D01*
X128387163Y-125620500D01*
X128388586Y-125620500D01*
X129729717Y-125620499D01*
X131062836Y-125620499D01*
X131067589Y-125620226D01*
X131071670Y-125619284D01*
X131071676Y-125619283D01*
X131237190Y-125581071D01*
X131237193Y-125581070D01*
X131242577Y-125579827D01*
X131404266Y-125501664D01*
X131410877Y-125496387D01*
X131540287Y-125393079D01*
X131544620Y-125389620D01*
X131656664Y-125249266D01*
X131734827Y-125087577D01*
X131775226Y-124912589D01*
X131775500Y-124907837D01*
X131775500Y-123570000D01*
X131775499Y-122233577D01*
X131775499Y-122232164D01*
X131775226Y-122227411D01*
X131774284Y-122223330D01*
X131774283Y-122223324D01*
X131736071Y-122057810D01*
X131736070Y-122057807D01*
X131734827Y-122052423D01*
X131656664Y-121890734D01*
X131649931Y-121882299D01*
X131548079Y-121754713D01*
X131544620Y-121750380D01*
X131404266Y-121638336D01*
X131387759Y-121630356D01*
X131247554Y-121562579D01*
X131242577Y-121560173D01*
X131237193Y-121558930D01*
X131237190Y-121558929D01*
X131150955Y-121539021D01*
X131067589Y-121519774D01*
X131062837Y-121519500D01*
X131061414Y-121519500D01*
X129720283Y-121519501D01*
X128387164Y-121519501D01*
X128382411Y-121519774D01*
X128378330Y-121520716D01*
X128378324Y-121520717D01*
X128212810Y-121558929D01*
X128212807Y-121558930D01*
X128207423Y-121560173D01*
X128202446Y-121562579D01*
X128062242Y-121630356D01*
X128045734Y-121638336D01*
X127905380Y-121750380D01*
X127901921Y-121754713D01*
X127800070Y-121882299D01*
X127793336Y-121890734D01*
X127715173Y-122052423D01*
X127674774Y-122227411D01*
X127674500Y-122232163D01*
X127674500Y-122233586D01*
X126202325Y-122233586D01*
X126054238Y-122074226D01*
X126051944Y-122071757D01*
X126028323Y-122052423D01*
X125838204Y-121896814D01*
X125835591Y-121894675D01*
X125597208Y-121748594D01*
X125593397Y-121746921D01*
X125344288Y-121637569D01*
X125344284Y-121637567D01*
X125341205Y-121636216D01*
X125291917Y-121622176D01*
X125075571Y-121560548D01*
X125075566Y-121560547D01*
X125072319Y-121559622D01*
X124795526Y-121520229D01*
X124792159Y-121520211D01*
X124792154Y-121520211D01*
X124667187Y-121519557D01*
X124515947Y-121518765D01*
X124238757Y-121555257D01*
X124235506Y-121556146D01*
X124235503Y-121556147D01*
X124211992Y-121562579D01*
X123969083Y-121629032D01*
X123711917Y-121738722D01*
X123709018Y-121740457D01*
X123697683Y-121747241D01*
X123472018Y-121882299D01*
X123253823Y-122057106D01*
X123251499Y-122059555D01*
X123082557Y-122237583D01*
X123061371Y-122259908D01*
X123059406Y-122262643D01*
X123059404Y-122262645D01*
X123047421Y-122279322D01*
X122898223Y-122486952D01*
X122767398Y-122734038D01*
X122671317Y-122996592D01*
X122611757Y-123269757D01*
X122589822Y-123548477D01*
X121118100Y-123548477D01*
X121100956Y-123330647D01*
X121099745Y-123323004D01*
X121044603Y-123093320D01*
X121042209Y-123085952D01*
X120951819Y-122867730D01*
X120948300Y-122860824D01*
X120915289Y-122806957D01*
X120905603Y-122798684D01*
X120897417Y-122803268D01*
X120141771Y-123558914D01*
X120135717Y-123570797D01*
X118993471Y-123570797D01*
X118994283Y-123569203D01*
X118993487Y-123564172D01*
X118233989Y-122804674D01*
X118222640Y-122798892D01*
X118215749Y-122805263D01*
X118181700Y-122860824D01*
X118178181Y-122867730D01*
X118087791Y-123085952D01*
X118085397Y-123093320D01*
X118030255Y-123323004D01*
X118029044Y-123330647D01*
X118010512Y-123566119D01*
X118010512Y-123573875D01*
X116512787Y-123573875D01*
X116513438Y-122229397D01*
X118793684Y-122229397D01*
X118798268Y-122237583D01*
X119553914Y-122993229D01*
X119565797Y-122999283D01*
X119570828Y-122998487D01*
X120330326Y-122238989D01*
X120336108Y-122227640D01*
X120329737Y-122220749D01*
X120274176Y-122186700D01*
X120267270Y-122183181D01*
X120049048Y-122092791D01*
X120041680Y-122090397D01*
X119811996Y-122035255D01*
X119804353Y-122034044D01*
X119568875Y-122015512D01*
X119561125Y-122015512D01*
X119325647Y-122034044D01*
X119318004Y-122035255D01*
X119088320Y-122090397D01*
X119080952Y-122092791D01*
X118862730Y-122183181D01*
X118855824Y-122186700D01*
X118801957Y-122219711D01*
X118793684Y-122229397D01*
X116513438Y-122229397D01*
X116527398Y-93397585D01*
X116527811Y-92545053D01*
X119470042Y-92545053D01*
X119483535Y-92779071D01*
X119484427Y-92783028D01*
X119505886Y-92878247D01*
X119535069Y-93007743D01*
X119536598Y-93011507D01*
X119536599Y-93011512D01*
X119576673Y-93110202D01*
X119623259Y-93224928D01*
X119625383Y-93228394D01*
X119625385Y-93228398D01*
X119681521Y-93320003D01*
X119745736Y-93424793D01*
X119748395Y-93427863D01*
X119748396Y-93427864D01*
X119819481Y-93509927D01*
X119899212Y-93601971D01*
X120079565Y-93751703D01*
X120281951Y-93869968D01*
X120500935Y-93953590D01*
X120504910Y-93954399D01*
X120504911Y-93954399D01*
X120726654Y-93999513D01*
X120726658Y-93999513D01*
X120730637Y-94000323D01*
X120734697Y-94000472D01*
X120734698Y-94000472D01*
X120775311Y-94001961D01*
X120964887Y-94008913D01*
X120968906Y-94008398D01*
X120968910Y-94008398D01*
X121193362Y-93979645D01*
X121193368Y-93979644D01*
X121197394Y-93979128D01*
X121201287Y-93977960D01*
X121201292Y-93977959D01*
X121360542Y-93930181D01*
X121421914Y-93911768D01*
X121532707Y-93857491D01*
X121628771Y-93810430D01*
X121628774Y-93810428D01*
X121632418Y-93808643D01*
X121823253Y-93672522D01*
X121989293Y-93507061D01*
X122063616Y-93403630D01*
X122067960Y-93397585D01*
X122117271Y-93361363D01*
X122178456Y-93361043D01*
X122228143Y-93396747D01*
X122232761Y-93403619D01*
X122245736Y-93424793D01*
X122248395Y-93427863D01*
X122248396Y-93427864D01*
X122319481Y-93509927D01*
X122399212Y-93601971D01*
X122579565Y-93751703D01*
X122781951Y-93869968D01*
X123000935Y-93953590D01*
X123004910Y-93954399D01*
X123004911Y-93954399D01*
X123226654Y-93999513D01*
X123226658Y-93999513D01*
X123230637Y-94000323D01*
X123234697Y-94000472D01*
X123234698Y-94000472D01*
X123275311Y-94001961D01*
X123464887Y-94008913D01*
X123468906Y-94008398D01*
X123468910Y-94008398D01*
X123693362Y-93979645D01*
X123693368Y-93979644D01*
X123697394Y-93979128D01*
X123701287Y-93977960D01*
X123701292Y-93977959D01*
X123860542Y-93930181D01*
X123921914Y-93911768D01*
X124032707Y-93857491D01*
X124128771Y-93810430D01*
X124128774Y-93810428D01*
X124132418Y-93808643D01*
X124323253Y-93672522D01*
X124489293Y-93507061D01*
X124563616Y-93403630D01*
X124567960Y-93397585D01*
X124617271Y-93361363D01*
X124678456Y-93361043D01*
X124728143Y-93396747D01*
X124732761Y-93403619D01*
X124745736Y-93424793D01*
X124748395Y-93427863D01*
X124748396Y-93427864D01*
X124819481Y-93509927D01*
X124899212Y-93601971D01*
X125079565Y-93751703D01*
X125281951Y-93869968D01*
X125500935Y-93953590D01*
X125504910Y-93954399D01*
X125504911Y-93954399D01*
X125726654Y-93999513D01*
X125726658Y-93999513D01*
X125730637Y-94000323D01*
X125734697Y-94000472D01*
X125734698Y-94000472D01*
X125775311Y-94001961D01*
X125964887Y-94008913D01*
X125968906Y-94008398D01*
X125968910Y-94008398D01*
X126193362Y-93979645D01*
X126193368Y-93979644D01*
X126197394Y-93979128D01*
X126201287Y-93977960D01*
X126201292Y-93977959D01*
X126360542Y-93930181D01*
X126421914Y-93911768D01*
X126532707Y-93857491D01*
X126628771Y-93810430D01*
X126628774Y-93810428D01*
X126632418Y-93808643D01*
X126823253Y-93672522D01*
X126989293Y-93507061D01*
X127063616Y-93403630D01*
X127067960Y-93397585D01*
X127117271Y-93361363D01*
X127178456Y-93361043D01*
X127228143Y-93396747D01*
X127232761Y-93403619D01*
X127245736Y-93424793D01*
X127248395Y-93427863D01*
X127248396Y-93427864D01*
X127319481Y-93509927D01*
X127399212Y-93601971D01*
X127579565Y-93751703D01*
X127781951Y-93869968D01*
X128000935Y-93953590D01*
X128004910Y-93954399D01*
X128004911Y-93954399D01*
X128226654Y-93999513D01*
X128226658Y-93999513D01*
X128230637Y-94000323D01*
X128234697Y-94000472D01*
X128234698Y-94000472D01*
X128275311Y-94001961D01*
X128464887Y-94008913D01*
X128468906Y-94008398D01*
X128468910Y-94008398D01*
X128693362Y-93979645D01*
X128693368Y-93979644D01*
X128697394Y-93979128D01*
X128701287Y-93977960D01*
X128701292Y-93977959D01*
X128860542Y-93930181D01*
X128921914Y-93911768D01*
X129032707Y-93857491D01*
X129128771Y-93810430D01*
X129128774Y-93810428D01*
X129132418Y-93808643D01*
X129323253Y-93672522D01*
X129489293Y-93507061D01*
X129563616Y-93403630D01*
X129623708Y-93320003D01*
X129623709Y-93320001D01*
X129626079Y-93316703D01*
X129627877Y-93313065D01*
X129627880Y-93313060D01*
X129728138Y-93110202D01*
X129729938Y-93106560D01*
X129731116Y-93102684D01*
X129731118Y-93102678D01*
X129796901Y-92886160D01*
X129796901Y-92886159D01*
X129798081Y-92882276D01*
X129828677Y-92649874D01*
X129830385Y-92580000D01*
X129811178Y-92346381D01*
X129802536Y-92311973D01*
X129755064Y-92122982D01*
X129754073Y-92119036D01*
X129660603Y-91904070D01*
X129533279Y-91707258D01*
X129375520Y-91533883D01*
X129372334Y-91531367D01*
X129372331Y-91531364D01*
X129194751Y-91391119D01*
X129194745Y-91391115D01*
X129191563Y-91388602D01*
X128986348Y-91275317D01*
X128982517Y-91273960D01*
X128982514Y-91273959D01*
X128769222Y-91198428D01*
X128769218Y-91198427D01*
X128765386Y-91197070D01*
X128662192Y-91178688D01*
X128608220Y-91149870D01*
X128581494Y-91094830D01*
X128592223Y-91034593D01*
X128636310Y-90992167D01*
X128666974Y-90983026D01*
X128693351Y-90979647D01*
X128693364Y-90979644D01*
X128697394Y-90979128D01*
X128701287Y-90977960D01*
X128701292Y-90977959D01*
X128860542Y-90930181D01*
X128921914Y-90911768D01*
X129032707Y-90857491D01*
X129128771Y-90810430D01*
X129128774Y-90810428D01*
X129132418Y-90808643D01*
X129323253Y-90672522D01*
X129489293Y-90507061D01*
X129563616Y-90403630D01*
X129623708Y-90320003D01*
X129623709Y-90320001D01*
X129626079Y-90316703D01*
X129627877Y-90313065D01*
X129627880Y-90313060D01*
X129728138Y-90110202D01*
X129729938Y-90106560D01*
X129731116Y-90102684D01*
X129731118Y-90102678D01*
X129796901Y-89886160D01*
X129796901Y-89886159D01*
X129798081Y-89882276D01*
X129828677Y-89649874D01*
X129830385Y-89580000D01*
X129811178Y-89346381D01*
X129802536Y-89311973D01*
X129755064Y-89122982D01*
X129754073Y-89119036D01*
X129660603Y-88904070D01*
X129533279Y-88707258D01*
X129375520Y-88533883D01*
X129372334Y-88531367D01*
X129372331Y-88531364D01*
X129213774Y-88406143D01*
X129179825Y-88355239D01*
X129182281Y-88294103D01*
X129217642Y-88247854D01*
X129323253Y-88172522D01*
X129489293Y-88007061D01*
X129563616Y-87903630D01*
X129623708Y-87820003D01*
X129623709Y-87820001D01*
X129626079Y-87816703D01*
X129627877Y-87813065D01*
X129627880Y-87813060D01*
X129728138Y-87610202D01*
X129729938Y-87606560D01*
X129731116Y-87602684D01*
X129731118Y-87602678D01*
X129796901Y-87386160D01*
X129796901Y-87386159D01*
X129798081Y-87382276D01*
X129828677Y-87149874D01*
X129830385Y-87080000D01*
X129811178Y-86846381D01*
X129802536Y-86811973D01*
X129755064Y-86622982D01*
X129754073Y-86619036D01*
X129660603Y-86404070D01*
X129533279Y-86207258D01*
X129375520Y-86033883D01*
X129372334Y-86031367D01*
X129372331Y-86031364D01*
X129194751Y-85891119D01*
X129194745Y-85891115D01*
X129191563Y-85888602D01*
X128986348Y-85775317D01*
X128982517Y-85773960D01*
X128982514Y-85773959D01*
X128769222Y-85698428D01*
X128769218Y-85698427D01*
X128765386Y-85697070D01*
X128662192Y-85678688D01*
X128608220Y-85649870D01*
X128581494Y-85594830D01*
X128592223Y-85534593D01*
X128636310Y-85492167D01*
X128666974Y-85483026D01*
X128693351Y-85479647D01*
X128693364Y-85479644D01*
X128697394Y-85479128D01*
X128701287Y-85477960D01*
X128701292Y-85477959D01*
X128860542Y-85430181D01*
X128921914Y-85411768D01*
X129032707Y-85357491D01*
X129128771Y-85310430D01*
X129128774Y-85310428D01*
X129132418Y-85308643D01*
X129323253Y-85172522D01*
X129489293Y-85007061D01*
X129563616Y-84903630D01*
X129623708Y-84820003D01*
X129623709Y-84820001D01*
X129626079Y-84816703D01*
X129627877Y-84813065D01*
X129627880Y-84813060D01*
X129728138Y-84610202D01*
X129729938Y-84606560D01*
X129731116Y-84602684D01*
X129731118Y-84602678D01*
X129796901Y-84386160D01*
X129796901Y-84386159D01*
X129798081Y-84382276D01*
X129828677Y-84149874D01*
X129830385Y-84080000D01*
X129811178Y-83846381D01*
X129802536Y-83811973D01*
X129755064Y-83622982D01*
X129754073Y-83619036D01*
X129660603Y-83404070D01*
X129533279Y-83207258D01*
X129375520Y-83033883D01*
X129372334Y-83031367D01*
X129372331Y-83031364D01*
X129194751Y-82891119D01*
X129194745Y-82891115D01*
X129191563Y-82888602D01*
X128986348Y-82775317D01*
X128982517Y-82773960D01*
X128982514Y-82773959D01*
X128769222Y-82698428D01*
X128769218Y-82698427D01*
X128765386Y-82697070D01*
X128626955Y-82672412D01*
X128572982Y-82643593D01*
X128546256Y-82588553D01*
X128556985Y-82528316D01*
X128601072Y-82485890D01*
X128623733Y-82478109D01*
X128682341Y-82465651D01*
X128692153Y-82462463D01*
X128694869Y-82461254D01*
X128702616Y-82454279D01*
X128697164Y-82442849D01*
X128411088Y-82156774D01*
X128399202Y-82150718D01*
X128394171Y-82151514D01*
X128101897Y-82443788D01*
X128097163Y-82453079D01*
X128106349Y-82461796D01*
X128107847Y-82462463D01*
X128117657Y-82465651D01*
X128176591Y-82478178D01*
X128229579Y-82508771D01*
X128254465Y-82564667D01*
X128241743Y-82624515D01*
X128196273Y-82665456D01*
X128170985Y-82672875D01*
X128068511Y-82688556D01*
X127948379Y-82727821D01*
X127849561Y-82760120D01*
X127849557Y-82760121D01*
X127845704Y-82761381D01*
X127842104Y-82763255D01*
X127641387Y-82867741D01*
X127641384Y-82867743D01*
X127637782Y-82869618D01*
X127634540Y-82872053D01*
X127634534Y-82872056D01*
X127609145Y-82891119D01*
X127450330Y-83010361D01*
X127288382Y-83179830D01*
X127286090Y-83183190D01*
X127232312Y-83262025D01*
X127183900Y-83299442D01*
X127122742Y-83301257D01*
X127072197Y-83266777D01*
X127067418Y-83260028D01*
X127033279Y-83207258D01*
X126875520Y-83033883D01*
X126872334Y-83031367D01*
X126872331Y-83031364D01*
X126694751Y-82891119D01*
X126694745Y-82891115D01*
X126691563Y-82888602D01*
X126486348Y-82775317D01*
X126482517Y-82773960D01*
X126482514Y-82773959D01*
X126269222Y-82698428D01*
X126269218Y-82698427D01*
X126265386Y-82697070D01*
X126126955Y-82672412D01*
X126072982Y-82643593D01*
X126046256Y-82588553D01*
X126056985Y-82528316D01*
X126101072Y-82485890D01*
X126123733Y-82478109D01*
X126182341Y-82465651D01*
X126192153Y-82462463D01*
X126194869Y-82461254D01*
X126202616Y-82454279D01*
X126197164Y-82442849D01*
X125911088Y-82156774D01*
X125899202Y-82150718D01*
X125894171Y-82151514D01*
X125601897Y-82443788D01*
X125597163Y-82453079D01*
X125606349Y-82461796D01*
X125607847Y-82462463D01*
X125617657Y-82465651D01*
X125676591Y-82478178D01*
X125729579Y-82508771D01*
X125754465Y-82564667D01*
X125741743Y-82624515D01*
X125696273Y-82665456D01*
X125670985Y-82672875D01*
X125568511Y-82688556D01*
X125448379Y-82727821D01*
X125349561Y-82760120D01*
X125349557Y-82760121D01*
X125345704Y-82761381D01*
X125342104Y-82763255D01*
X125141387Y-82867741D01*
X125141384Y-82867743D01*
X125137782Y-82869618D01*
X125134540Y-82872053D01*
X125134534Y-82872056D01*
X125109145Y-82891119D01*
X124950330Y-83010361D01*
X124788382Y-83179830D01*
X124786090Y-83183190D01*
X124732312Y-83262025D01*
X124683900Y-83299442D01*
X124622742Y-83301257D01*
X124572197Y-83266777D01*
X124567418Y-83260028D01*
X124533279Y-83207258D01*
X124375520Y-83033883D01*
X124372334Y-83031367D01*
X124372331Y-83031364D01*
X124194751Y-82891119D01*
X124194745Y-82891115D01*
X124191563Y-82888602D01*
X123986348Y-82775317D01*
X123982517Y-82773960D01*
X123982514Y-82773959D01*
X123769222Y-82698428D01*
X123769218Y-82698427D01*
X123765386Y-82697070D01*
X123626955Y-82672412D01*
X123572982Y-82643593D01*
X123546256Y-82588553D01*
X123556985Y-82528316D01*
X123601072Y-82485890D01*
X123623733Y-82478109D01*
X123682341Y-82465651D01*
X123692153Y-82462463D01*
X123694869Y-82461254D01*
X123702616Y-82454279D01*
X123697164Y-82442849D01*
X123411088Y-82156774D01*
X123399202Y-82150718D01*
X123394171Y-82151514D01*
X123101897Y-82443788D01*
X123097163Y-82453079D01*
X123106349Y-82461796D01*
X123107847Y-82462463D01*
X123117657Y-82465651D01*
X123176591Y-82478178D01*
X123229579Y-82508771D01*
X123254465Y-82564667D01*
X123241743Y-82624515D01*
X123196273Y-82665456D01*
X123170985Y-82672875D01*
X123068511Y-82688556D01*
X122948379Y-82727821D01*
X122849561Y-82760120D01*
X122849557Y-82760121D01*
X122845704Y-82761381D01*
X122842104Y-82763255D01*
X122641387Y-82867741D01*
X122641384Y-82867743D01*
X122637782Y-82869618D01*
X122634540Y-82872053D01*
X122634534Y-82872056D01*
X122609145Y-82891119D01*
X122450330Y-83010361D01*
X122288382Y-83179830D01*
X122286090Y-83183190D01*
X122232312Y-83262025D01*
X122183900Y-83299442D01*
X122122742Y-83301257D01*
X122072197Y-83266777D01*
X122067418Y-83260028D01*
X122033279Y-83207258D01*
X121875520Y-83033883D01*
X121872334Y-83031367D01*
X121872331Y-83031364D01*
X121694751Y-82891119D01*
X121694745Y-82891115D01*
X121691563Y-82888602D01*
X121486348Y-82775317D01*
X121482517Y-82773960D01*
X121482514Y-82773959D01*
X121269222Y-82698428D01*
X121269218Y-82698427D01*
X121265386Y-82697070D01*
X121126955Y-82672412D01*
X121072982Y-82643593D01*
X121046256Y-82588553D01*
X121056985Y-82528316D01*
X121101072Y-82485890D01*
X121123733Y-82478109D01*
X121182341Y-82465651D01*
X121192153Y-82462463D01*
X121194869Y-82461254D01*
X121202616Y-82454279D01*
X121197164Y-82442849D01*
X120911088Y-82156774D01*
X120899202Y-82150718D01*
X120894171Y-82151514D01*
X120601897Y-82443788D01*
X120597163Y-82453079D01*
X120606349Y-82461796D01*
X120607847Y-82462463D01*
X120617657Y-82465651D01*
X120676591Y-82478178D01*
X120729579Y-82508771D01*
X120754465Y-82564667D01*
X120741743Y-82624515D01*
X120696273Y-82665456D01*
X120670985Y-82672875D01*
X120568511Y-82688556D01*
X120448379Y-82727821D01*
X120349561Y-82760120D01*
X120349557Y-82760121D01*
X120345704Y-82761381D01*
X120342104Y-82763255D01*
X120141387Y-82867741D01*
X120141384Y-82867743D01*
X120137782Y-82869618D01*
X120134540Y-82872053D01*
X120134534Y-82872056D01*
X120109145Y-82891119D01*
X119950330Y-83010361D01*
X119788382Y-83179830D01*
X119656287Y-83373473D01*
X119557594Y-83586091D01*
X119494951Y-83811973D01*
X119470042Y-84045053D01*
X119483535Y-84279071D01*
X119484427Y-84283028D01*
X119505886Y-84378247D01*
X119535069Y-84507743D01*
X119536598Y-84511507D01*
X119536599Y-84511512D01*
X119576673Y-84610202D01*
X119623259Y-84724928D01*
X119625383Y-84728394D01*
X119625385Y-84728398D01*
X119681521Y-84820003D01*
X119745736Y-84924793D01*
X119748395Y-84927863D01*
X119748396Y-84927864D01*
X119819481Y-85009927D01*
X119899212Y-85101971D01*
X120079565Y-85251703D01*
X120281951Y-85369968D01*
X120500935Y-85453590D01*
X120644457Y-85482790D01*
X120697709Y-85512918D01*
X120723083Y-85568594D01*
X120710884Y-85628552D01*
X120665774Y-85669888D01*
X120639694Y-85677663D01*
X120592923Y-85684820D01*
X120568511Y-85688556D01*
X120448379Y-85727821D01*
X120349561Y-85760120D01*
X120349557Y-85760121D01*
X120345704Y-85761381D01*
X120342104Y-85763255D01*
X120141387Y-85867741D01*
X120141384Y-85867743D01*
X120137782Y-85869618D01*
X120134540Y-85872053D01*
X120134534Y-85872056D01*
X120109145Y-85891119D01*
X119950330Y-86010361D01*
X119788382Y-86179830D01*
X119656287Y-86373473D01*
X119557594Y-86586091D01*
X119494951Y-86811973D01*
X119470042Y-87045053D01*
X119483535Y-87279071D01*
X119484427Y-87283028D01*
X119505886Y-87378247D01*
X119535069Y-87507743D01*
X119536598Y-87511507D01*
X119536599Y-87511512D01*
X119576673Y-87610202D01*
X119623259Y-87724928D01*
X119625383Y-87728394D01*
X119625385Y-87728398D01*
X119681521Y-87820003D01*
X119745736Y-87924793D01*
X119748395Y-87927863D01*
X119748396Y-87927864D01*
X119819481Y-88009927D01*
X119899212Y-88101971D01*
X120079565Y-88251703D01*
X120079976Y-88251943D01*
X120116228Y-88300046D01*
X120117299Y-88361222D01*
X120082065Y-88411451D01*
X119953576Y-88507923D01*
X119953570Y-88507928D01*
X119950330Y-88510361D01*
X119788382Y-88679830D01*
X119656287Y-88873473D01*
X119557594Y-89086091D01*
X119494951Y-89311973D01*
X119470042Y-89545053D01*
X119483535Y-89779071D01*
X119484427Y-89783028D01*
X119505886Y-89878247D01*
X119535069Y-90007743D01*
X119536598Y-90011507D01*
X119536599Y-90011512D01*
X119576673Y-90110202D01*
X119623259Y-90224928D01*
X119625383Y-90228394D01*
X119625385Y-90228398D01*
X119681521Y-90320003D01*
X119745736Y-90424793D01*
X119748395Y-90427863D01*
X119748396Y-90427864D01*
X119819481Y-90509927D01*
X119899212Y-90601971D01*
X120079565Y-90751703D01*
X120281951Y-90869968D01*
X120500935Y-90953590D01*
X120644457Y-90982790D01*
X120697709Y-91012918D01*
X120723083Y-91068594D01*
X120710884Y-91128552D01*
X120665774Y-91169888D01*
X120639694Y-91177663D01*
X120592923Y-91184820D01*
X120568511Y-91188556D01*
X120448379Y-91227821D01*
X120349561Y-91260120D01*
X120349557Y-91260121D01*
X120345704Y-91261381D01*
X120342104Y-91263255D01*
X120141387Y-91367741D01*
X120141384Y-91367743D01*
X120137782Y-91369618D01*
X120134540Y-91372053D01*
X120134534Y-91372056D01*
X120109145Y-91391119D01*
X119950330Y-91510361D01*
X119788382Y-91679830D01*
X119656287Y-91873473D01*
X119557594Y-92086091D01*
X119494951Y-92311973D01*
X119470042Y-92545053D01*
X116527811Y-92545053D01*
X116533117Y-81585157D01*
X119970447Y-81585157D01*
X119989688Y-81768220D01*
X119991832Y-81778310D01*
X120022344Y-81872212D01*
X120029040Y-81881429D01*
X120034736Y-81879578D01*
X120323228Y-81591086D01*
X120328470Y-81580797D01*
X121470718Y-81580797D01*
X121471514Y-81585828D01*
X121761725Y-81876039D01*
X121771873Y-81881210D01*
X121776109Y-81876974D01*
X121808168Y-81778310D01*
X121810312Y-81768220D01*
X121829553Y-81585157D01*
X122470447Y-81585157D01*
X122489688Y-81768220D01*
X122491832Y-81778310D01*
X122522344Y-81872212D01*
X122529040Y-81881429D01*
X122534736Y-81879578D01*
X122823228Y-81591086D01*
X122828470Y-81580797D01*
X123970718Y-81580797D01*
X123971514Y-81585828D01*
X124261725Y-81876039D01*
X124271873Y-81881210D01*
X124276109Y-81876974D01*
X124308168Y-81778310D01*
X124310312Y-81768220D01*
X124329553Y-81585157D01*
X124970447Y-81585157D01*
X124989688Y-81768220D01*
X124991832Y-81778310D01*
X125022344Y-81872212D01*
X125029040Y-81881429D01*
X125034736Y-81879578D01*
X125323228Y-81591086D01*
X125328470Y-81580797D01*
X126470718Y-81580797D01*
X126471514Y-81585828D01*
X126761725Y-81876039D01*
X126771873Y-81881210D01*
X126776109Y-81876974D01*
X126808168Y-81778310D01*
X126810312Y-81768220D01*
X126829553Y-81585157D01*
X127470447Y-81585157D01*
X127489688Y-81768220D01*
X127491832Y-81778310D01*
X127522344Y-81872212D01*
X127529040Y-81881429D01*
X127534736Y-81879578D01*
X127823228Y-81591086D01*
X127828470Y-81580797D01*
X128970718Y-81580797D01*
X128971514Y-81585828D01*
X129261725Y-81876039D01*
X129271873Y-81881210D01*
X129276109Y-81876974D01*
X129308168Y-81778310D01*
X129310312Y-81768220D01*
X129329553Y-81585157D01*
X129329553Y-81574843D01*
X129310312Y-81391780D01*
X129308168Y-81381690D01*
X129277656Y-81287788D01*
X129270960Y-81278571D01*
X129265264Y-81280422D01*
X128976772Y-81568914D01*
X128970718Y-81580797D01*
X127828470Y-81580797D01*
X127829282Y-81579203D01*
X127828486Y-81574172D01*
X127538275Y-81283961D01*
X127528127Y-81278790D01*
X127523891Y-81283026D01*
X127491832Y-81381690D01*
X127489688Y-81391780D01*
X127470447Y-81574843D01*
X127470447Y-81585157D01*
X126829553Y-81585157D01*
X126829553Y-81574843D01*
X126810312Y-81391780D01*
X126808168Y-81381690D01*
X126777656Y-81287788D01*
X126770960Y-81278571D01*
X126765264Y-81280422D01*
X126476772Y-81568914D01*
X126470718Y-81580797D01*
X125328470Y-81580797D01*
X125329282Y-81579203D01*
X125328486Y-81574172D01*
X125038275Y-81283961D01*
X125028127Y-81278790D01*
X125023891Y-81283026D01*
X124991832Y-81381690D01*
X124989688Y-81391780D01*
X124970447Y-81574843D01*
X124970447Y-81585157D01*
X124329553Y-81585157D01*
X124329553Y-81574843D01*
X124310312Y-81391780D01*
X124308168Y-81381690D01*
X124277656Y-81287788D01*
X124270960Y-81278571D01*
X124265264Y-81280422D01*
X123976772Y-81568914D01*
X123970718Y-81580797D01*
X122828470Y-81580797D01*
X122829282Y-81579203D01*
X122828486Y-81574172D01*
X122538275Y-81283961D01*
X122528127Y-81278790D01*
X122523891Y-81283026D01*
X122491832Y-81381690D01*
X122489688Y-81391780D01*
X122470447Y-81574843D01*
X122470447Y-81585157D01*
X121829553Y-81585157D01*
X121829553Y-81574843D01*
X121810312Y-81391780D01*
X121808168Y-81381690D01*
X121777656Y-81287788D01*
X121770960Y-81278571D01*
X121765264Y-81280422D01*
X121476772Y-81568914D01*
X121470718Y-81580797D01*
X120328470Y-81580797D01*
X120329282Y-81579203D01*
X120328486Y-81574172D01*
X120038275Y-81283961D01*
X120028127Y-81278790D01*
X120023891Y-81283026D01*
X119991832Y-81381690D01*
X119989688Y-81391780D01*
X119970447Y-81574843D01*
X119970447Y-81585157D01*
X116533117Y-81585157D01*
X116533543Y-80705721D01*
X120597384Y-80705721D01*
X120602836Y-80717151D01*
X120888912Y-81003226D01*
X120900798Y-81009282D01*
X120905829Y-81008486D01*
X121198103Y-80716212D01*
X121202837Y-80706921D01*
X121201572Y-80705721D01*
X123097384Y-80705721D01*
X123102836Y-80717151D01*
X123388912Y-81003226D01*
X123400798Y-81009282D01*
X123405829Y-81008486D01*
X123698103Y-80716212D01*
X123702837Y-80706921D01*
X123701572Y-80705721D01*
X125597384Y-80705721D01*
X125602836Y-80717151D01*
X125888912Y-81003226D01*
X125900798Y-81009282D01*
X125905829Y-81008486D01*
X126198103Y-80716212D01*
X126202837Y-80706921D01*
X126201572Y-80705721D01*
X128097384Y-80705721D01*
X128102836Y-80717151D01*
X128388912Y-81003226D01*
X128400798Y-81009282D01*
X128405829Y-81008486D01*
X128698103Y-80716212D01*
X128702837Y-80706921D01*
X128693651Y-80698204D01*
X128692153Y-80697537D01*
X128682341Y-80694349D01*
X128502295Y-80656079D01*
X128492032Y-80655000D01*
X128307968Y-80655000D01*
X128297705Y-80656079D01*
X128117659Y-80694349D01*
X128107847Y-80697537D01*
X128105131Y-80698746D01*
X128097384Y-80705721D01*
X126201572Y-80705721D01*
X126193651Y-80698204D01*
X126192153Y-80697537D01*
X126182341Y-80694349D01*
X126002295Y-80656079D01*
X125992032Y-80655000D01*
X125807968Y-80655000D01*
X125797705Y-80656079D01*
X125617659Y-80694349D01*
X125607847Y-80697537D01*
X125605131Y-80698746D01*
X125597384Y-80705721D01*
X123701572Y-80705721D01*
X123693651Y-80698204D01*
X123692153Y-80697537D01*
X123682341Y-80694349D01*
X123502295Y-80656079D01*
X123492032Y-80655000D01*
X123307968Y-80655000D01*
X123297705Y-80656079D01*
X123117659Y-80694349D01*
X123107847Y-80697537D01*
X123105131Y-80698746D01*
X123097384Y-80705721D01*
X121201572Y-80705721D01*
X121193651Y-80698204D01*
X121192153Y-80697537D01*
X121182341Y-80694349D01*
X121002295Y-80656079D01*
X120992032Y-80655000D01*
X120807968Y-80655000D01*
X120797705Y-80656079D01*
X120617659Y-80694349D01*
X120607847Y-80697537D01*
X120605131Y-80698746D01*
X120597384Y-80705721D01*
X116533543Y-80705721D01*
X116534150Y-79453079D01*
X120597163Y-79453079D01*
X120606349Y-79461796D01*
X120607847Y-79462463D01*
X120617659Y-79465651D01*
X120797705Y-79503921D01*
X120807968Y-79505000D01*
X120992032Y-79505000D01*
X121002295Y-79503921D01*
X121182341Y-79465651D01*
X121192153Y-79462463D01*
X121194869Y-79461254D01*
X121202616Y-79454279D01*
X121202044Y-79453079D01*
X123097163Y-79453079D01*
X123106349Y-79461796D01*
X123107847Y-79462463D01*
X123117659Y-79465651D01*
X123297705Y-79503921D01*
X123307968Y-79505000D01*
X123492032Y-79505000D01*
X123502295Y-79503921D01*
X123682341Y-79465651D01*
X123692153Y-79462463D01*
X123694869Y-79461254D01*
X123702616Y-79454279D01*
X123702044Y-79453079D01*
X125597163Y-79453079D01*
X125606349Y-79461796D01*
X125607847Y-79462463D01*
X125617659Y-79465651D01*
X125797705Y-79503921D01*
X125807968Y-79505000D01*
X125992032Y-79505000D01*
X126002295Y-79503921D01*
X126182341Y-79465651D01*
X126192153Y-79462463D01*
X126194869Y-79461254D01*
X126202616Y-79454279D01*
X126202044Y-79453079D01*
X128097163Y-79453079D01*
X128106349Y-79461796D01*
X128107847Y-79462463D01*
X128117659Y-79465651D01*
X128297705Y-79503921D01*
X128307968Y-79505000D01*
X128492032Y-79505000D01*
X128502295Y-79503921D01*
X128682341Y-79465651D01*
X128692153Y-79462463D01*
X128694869Y-79461254D01*
X128702616Y-79454279D01*
X128697164Y-79442849D01*
X128411088Y-79156774D01*
X128399202Y-79150718D01*
X128394171Y-79151514D01*
X128101897Y-79443788D01*
X128097163Y-79453079D01*
X126202044Y-79453079D01*
X126197164Y-79442849D01*
X125911088Y-79156774D01*
X125899202Y-79150718D01*
X125894171Y-79151514D01*
X125601897Y-79443788D01*
X125597163Y-79453079D01*
X123702044Y-79453079D01*
X123697164Y-79442849D01*
X123411088Y-79156774D01*
X123399202Y-79150718D01*
X123394171Y-79151514D01*
X123101897Y-79443788D01*
X123097163Y-79453079D01*
X121202044Y-79453079D01*
X121197164Y-79442849D01*
X120911088Y-79156774D01*
X120899202Y-79150718D01*
X120894171Y-79151514D01*
X120601897Y-79443788D01*
X120597163Y-79453079D01*
X116534150Y-79453079D01*
X116534570Y-78585157D01*
X119970447Y-78585157D01*
X119989688Y-78768220D01*
X119991832Y-78778310D01*
X120022344Y-78872212D01*
X120029040Y-78881429D01*
X120034736Y-78879578D01*
X120323228Y-78591086D01*
X120328470Y-78580797D01*
X121470718Y-78580797D01*
X121471514Y-78585828D01*
X121761725Y-78876039D01*
X121771873Y-78881210D01*
X121776109Y-78876974D01*
X121808168Y-78778310D01*
X121810312Y-78768220D01*
X121829553Y-78585157D01*
X122470447Y-78585157D01*
X122489688Y-78768220D01*
X122491832Y-78778310D01*
X122522344Y-78872212D01*
X122529040Y-78881429D01*
X122534736Y-78879578D01*
X122823228Y-78591086D01*
X122828470Y-78580797D01*
X123970718Y-78580797D01*
X123971514Y-78585828D01*
X124261725Y-78876039D01*
X124271873Y-78881210D01*
X124276109Y-78876974D01*
X124308168Y-78778310D01*
X124310312Y-78768220D01*
X124329553Y-78585157D01*
X124970447Y-78585157D01*
X124989688Y-78768220D01*
X124991832Y-78778310D01*
X125022344Y-78872212D01*
X125029040Y-78881429D01*
X125034736Y-78879578D01*
X125323228Y-78591086D01*
X125328470Y-78580797D01*
X126470718Y-78580797D01*
X126471514Y-78585828D01*
X126761725Y-78876039D01*
X126771873Y-78881210D01*
X126776109Y-78876974D01*
X126808168Y-78778310D01*
X126810312Y-78768220D01*
X126829553Y-78585157D01*
X127470447Y-78585157D01*
X127489688Y-78768220D01*
X127491832Y-78778310D01*
X127522344Y-78872212D01*
X127529040Y-78881429D01*
X127534736Y-78879578D01*
X127823228Y-78591086D01*
X127828470Y-78580797D01*
X128970718Y-78580797D01*
X128971514Y-78585828D01*
X129261725Y-78876039D01*
X129271873Y-78881210D01*
X129276109Y-78876974D01*
X129308168Y-78778310D01*
X129310312Y-78768220D01*
X129329553Y-78585157D01*
X129329553Y-78574843D01*
X129310312Y-78391780D01*
X129308168Y-78381690D01*
X129277656Y-78287788D01*
X129270960Y-78278571D01*
X129265264Y-78280422D01*
X128976772Y-78568914D01*
X128970718Y-78580797D01*
X127828470Y-78580797D01*
X127829282Y-78579203D01*
X127828486Y-78574172D01*
X127538275Y-78283961D01*
X127528127Y-78278790D01*
X127523891Y-78283026D01*
X127491832Y-78381690D01*
X127489688Y-78391780D01*
X127470447Y-78574843D01*
X127470447Y-78585157D01*
X126829553Y-78585157D01*
X126829553Y-78574843D01*
X126810312Y-78391780D01*
X126808168Y-78381690D01*
X126777656Y-78287788D01*
X126770960Y-78278571D01*
X126765264Y-78280422D01*
X126476772Y-78568914D01*
X126470718Y-78580797D01*
X125328470Y-78580797D01*
X125329282Y-78579203D01*
X125328486Y-78574172D01*
X125038275Y-78283961D01*
X125028127Y-78278790D01*
X125023891Y-78283026D01*
X124991832Y-78381690D01*
X124989688Y-78391780D01*
X124970447Y-78574843D01*
X124970447Y-78585157D01*
X124329553Y-78585157D01*
X124329553Y-78574843D01*
X124310312Y-78391780D01*
X124308168Y-78381690D01*
X124277656Y-78287788D01*
X124270960Y-78278571D01*
X124265264Y-78280422D01*
X123976772Y-78568914D01*
X123970718Y-78580797D01*
X122828470Y-78580797D01*
X122829282Y-78579203D01*
X122828486Y-78574172D01*
X122538275Y-78283961D01*
X122528127Y-78278790D01*
X122523891Y-78283026D01*
X122491832Y-78381690D01*
X122489688Y-78391780D01*
X122470447Y-78574843D01*
X122470447Y-78585157D01*
X121829553Y-78585157D01*
X121829553Y-78574843D01*
X121810312Y-78391780D01*
X121808168Y-78381690D01*
X121777656Y-78287788D01*
X121770960Y-78278571D01*
X121765264Y-78280422D01*
X121476772Y-78568914D01*
X121470718Y-78580797D01*
X120328470Y-78580797D01*
X120329282Y-78579203D01*
X120328486Y-78574172D01*
X120038275Y-78283961D01*
X120028127Y-78278790D01*
X120023891Y-78283026D01*
X119991832Y-78381690D01*
X119989688Y-78391780D01*
X119970447Y-78574843D01*
X119970447Y-78585157D01*
X116534570Y-78585157D01*
X116534996Y-77705721D01*
X120597384Y-77705721D01*
X120602836Y-77717151D01*
X120888912Y-78003226D01*
X120900798Y-78009282D01*
X120905829Y-78008486D01*
X121198103Y-77716212D01*
X121202837Y-77706921D01*
X121201572Y-77705721D01*
X123097384Y-77705721D01*
X123102836Y-77717151D01*
X123388912Y-78003226D01*
X123400798Y-78009282D01*
X123405829Y-78008486D01*
X123698103Y-77716212D01*
X123702837Y-77706921D01*
X123701572Y-77705721D01*
X125597384Y-77705721D01*
X125602836Y-77717151D01*
X125888912Y-78003226D01*
X125900798Y-78009282D01*
X125905829Y-78008486D01*
X126198103Y-77716212D01*
X126202837Y-77706921D01*
X126201572Y-77705721D01*
X128097384Y-77705721D01*
X128102836Y-77717151D01*
X128388912Y-78003226D01*
X128400798Y-78009282D01*
X128405829Y-78008486D01*
X128698103Y-77716212D01*
X128702837Y-77706921D01*
X128693651Y-77698204D01*
X128692153Y-77697537D01*
X128682341Y-77694349D01*
X128502295Y-77656079D01*
X128492032Y-77655000D01*
X128307968Y-77655000D01*
X128297705Y-77656079D01*
X128117659Y-77694349D01*
X128107847Y-77697537D01*
X128105131Y-77698746D01*
X128097384Y-77705721D01*
X126201572Y-77705721D01*
X126193651Y-77698204D01*
X126192153Y-77697537D01*
X126182341Y-77694349D01*
X126002295Y-77656079D01*
X125992032Y-77655000D01*
X125807968Y-77655000D01*
X125797705Y-77656079D01*
X125617659Y-77694349D01*
X125607847Y-77697537D01*
X125605131Y-77698746D01*
X125597384Y-77705721D01*
X123701572Y-77705721D01*
X123693651Y-77698204D01*
X123692153Y-77697537D01*
X123682341Y-77694349D01*
X123502295Y-77656079D01*
X123492032Y-77655000D01*
X123307968Y-77655000D01*
X123297705Y-77656079D01*
X123117659Y-77694349D01*
X123107847Y-77697537D01*
X123105131Y-77698746D01*
X123097384Y-77705721D01*
X121201572Y-77705721D01*
X121193651Y-77698204D01*
X121192153Y-77697537D01*
X121182341Y-77694349D01*
X121002295Y-77656079D01*
X120992032Y-77655000D01*
X120807968Y-77655000D01*
X120797705Y-77656079D01*
X120617659Y-77694349D01*
X120607847Y-77697537D01*
X120605131Y-77698746D01*
X120597384Y-77705721D01*
X116534996Y-77705721D01*
X116535657Y-76340288D01*
X116554593Y-76282106D01*
X116604110Y-76246167D01*
X116634717Y-76241336D01*
X127699283Y-76248175D01*
G37*
%TD.AperFunction*%
%TD*%
%TA.AperFunction,Conductor*%
%TO.N,/Phase_3_T1*%
G36*
X162773488Y-76264155D02*
G01*
X162809483Y-76313632D01*
X162814347Y-76344235D01*
X162822096Y-92350428D01*
X162839952Y-129230891D01*
X162821073Y-129289091D01*
X162771590Y-129325079D01*
X162740891Y-129329939D01*
X161713562Y-129329307D01*
X146688891Y-129320061D01*
X146630712Y-129301118D01*
X146594779Y-129251596D01*
X146589952Y-129221109D01*
X146588193Y-125588136D01*
X146587851Y-124882360D01*
X148878892Y-124882360D01*
X148885263Y-124889251D01*
X148940824Y-124923300D01*
X148947730Y-124926819D01*
X149165952Y-125017209D01*
X149173320Y-125019603D01*
X149403004Y-125074745D01*
X149410647Y-125075956D01*
X149646125Y-125094488D01*
X149653875Y-125094488D01*
X149889353Y-125075956D01*
X149896996Y-125074745D01*
X150126680Y-125019603D01*
X150134048Y-125017209D01*
X150352270Y-124926819D01*
X150359176Y-124923300D01*
X150413043Y-124890289D01*
X150421316Y-124880603D01*
X150416732Y-124872417D01*
X149661086Y-124116771D01*
X149649203Y-124110717D01*
X149644172Y-124111513D01*
X148884674Y-124871011D01*
X148878892Y-124882360D01*
X146587851Y-124882360D01*
X146587203Y-123543875D01*
X148095512Y-123543875D01*
X148114044Y-123779353D01*
X148115255Y-123786996D01*
X148170397Y-124016680D01*
X148172791Y-124024048D01*
X148263181Y-124242270D01*
X148266700Y-124249176D01*
X148299711Y-124303043D01*
X148309397Y-124311316D01*
X148317583Y-124306732D01*
X149073229Y-123551086D01*
X149078471Y-123540797D01*
X150220717Y-123540797D01*
X150221513Y-123545828D01*
X150981011Y-124305326D01*
X150992360Y-124311108D01*
X150999251Y-124304737D01*
X151033300Y-124249176D01*
X151036819Y-124242270D01*
X151127209Y-124024048D01*
X151129603Y-124016680D01*
X151184745Y-123786996D01*
X151185956Y-123779353D01*
X151204488Y-123543875D01*
X151204488Y-123536119D01*
X151203100Y-123518477D01*
X152674822Y-123518477D01*
X152675016Y-123521842D01*
X152675016Y-123521846D01*
X152678545Y-123583043D01*
X152690916Y-123797596D01*
X152744741Y-124071948D01*
X152745834Y-124075140D01*
X152825126Y-124306732D01*
X152835303Y-124336457D01*
X152960925Y-124586228D01*
X153119282Y-124816639D01*
X153121552Y-124819133D01*
X153121553Y-124819135D01*
X153219538Y-124926819D01*
X153307444Y-125023427D01*
X153521930Y-125202765D01*
X153758771Y-125351335D01*
X153761839Y-125352720D01*
X153761846Y-125352724D01*
X153927358Y-125427455D01*
X154013583Y-125466387D01*
X154016805Y-125467341D01*
X154016812Y-125467344D01*
X154231263Y-125530867D01*
X154281652Y-125545793D01*
X154284977Y-125546302D01*
X154284978Y-125546302D01*
X154554684Y-125587573D01*
X154554687Y-125587573D01*
X154558018Y-125588083D01*
X154561389Y-125588136D01*
X154561390Y-125588136D01*
X154609571Y-125588893D01*
X154837566Y-125592474D01*
X154840903Y-125592070D01*
X154840907Y-125592070D01*
X155111779Y-125559291D01*
X155111784Y-125559290D01*
X155115123Y-125558886D01*
X155385554Y-125487940D01*
X155551590Y-125419165D01*
X155640746Y-125382236D01*
X155640749Y-125382235D01*
X155643855Y-125380948D01*
X155646760Y-125379251D01*
X155646763Y-125379249D01*
X155882329Y-125241595D01*
X155885245Y-125239891D01*
X156105258Y-125067379D01*
X156299823Y-124866603D01*
X156336526Y-124816639D01*
X156366843Y-124775366D01*
X156465340Y-124641280D01*
X156496864Y-124583221D01*
X156597136Y-124398541D01*
X156598745Y-124395578D01*
X156636294Y-124296206D01*
X156696380Y-124137194D01*
X156696381Y-124137190D01*
X156697570Y-124134044D01*
X156724450Y-124016680D01*
X156759234Y-123864808D01*
X156759235Y-123864801D01*
X156759987Y-123861518D01*
X156784840Y-123583043D01*
X156785230Y-123545828D01*
X156785271Y-123541937D01*
X156785271Y-123541929D01*
X156785291Y-123540000D01*
X156766275Y-123261065D01*
X156709579Y-122987292D01*
X156616253Y-122723746D01*
X156604542Y-122701056D01*
X156489573Y-122478308D01*
X156489570Y-122478302D01*
X156488022Y-122475304D01*
X156327261Y-122246563D01*
X156309512Y-122227462D01*
X156287325Y-122203586D01*
X157759500Y-122203586D01*
X157759501Y-123540797D01*
X157759501Y-124877836D01*
X157759774Y-124882589D01*
X157760716Y-124886668D01*
X157760717Y-124886676D01*
X157792289Y-125023427D01*
X157800173Y-125057577D01*
X157878336Y-125219266D01*
X157990380Y-125359620D01*
X157994713Y-125363079D01*
X158124124Y-125466387D01*
X158130734Y-125471664D01*
X158292423Y-125549827D01*
X158297807Y-125551070D01*
X158297810Y-125551071D01*
X158384045Y-125570979D01*
X158467411Y-125590226D01*
X158472163Y-125590500D01*
X158473586Y-125590500D01*
X159814717Y-125590499D01*
X161147836Y-125590499D01*
X161152589Y-125590226D01*
X161156670Y-125589284D01*
X161156676Y-125589283D01*
X161322190Y-125551071D01*
X161322193Y-125551070D01*
X161327577Y-125549827D01*
X161489266Y-125471664D01*
X161495877Y-125466387D01*
X161625287Y-125363079D01*
X161629620Y-125359620D01*
X161741664Y-125219266D01*
X161819827Y-125057577D01*
X161860226Y-124882589D01*
X161860500Y-124877837D01*
X161860500Y-123540000D01*
X161860499Y-122203577D01*
X161860499Y-122202164D01*
X161860226Y-122197411D01*
X161859284Y-122193330D01*
X161859283Y-122193324D01*
X161821071Y-122027810D01*
X161821070Y-122027807D01*
X161819827Y-122022423D01*
X161741664Y-121860734D01*
X161734931Y-121852299D01*
X161633079Y-121724713D01*
X161629620Y-121720380D01*
X161489266Y-121608336D01*
X161472759Y-121600356D01*
X161332554Y-121532579D01*
X161327577Y-121530173D01*
X161322193Y-121528930D01*
X161322190Y-121528929D01*
X161235955Y-121509021D01*
X161152589Y-121489774D01*
X161147837Y-121489500D01*
X161146414Y-121489500D01*
X159805283Y-121489501D01*
X158472164Y-121489501D01*
X158467411Y-121489774D01*
X158463330Y-121490716D01*
X158463324Y-121490717D01*
X158297810Y-121528929D01*
X158297807Y-121528930D01*
X158292423Y-121530173D01*
X158287446Y-121532579D01*
X158147242Y-121600356D01*
X158130734Y-121608336D01*
X157990380Y-121720380D01*
X157986921Y-121724713D01*
X157885070Y-121852299D01*
X157878336Y-121860734D01*
X157800173Y-122022423D01*
X157759774Y-122197411D01*
X157759500Y-122202163D01*
X157759500Y-122203586D01*
X156287325Y-122203586D01*
X156139238Y-122044226D01*
X156136944Y-122041757D01*
X156113323Y-122022423D01*
X155923204Y-121866814D01*
X155920591Y-121864675D01*
X155682208Y-121718594D01*
X155678397Y-121716921D01*
X155429288Y-121607569D01*
X155429284Y-121607567D01*
X155426205Y-121606216D01*
X155376917Y-121592176D01*
X155160571Y-121530548D01*
X155160566Y-121530547D01*
X155157319Y-121529622D01*
X154880526Y-121490229D01*
X154877159Y-121490211D01*
X154877154Y-121490211D01*
X154752187Y-121489557D01*
X154600947Y-121488765D01*
X154323757Y-121525257D01*
X154320506Y-121526146D01*
X154320503Y-121526147D01*
X154296992Y-121532579D01*
X154054083Y-121599032D01*
X153796917Y-121708722D01*
X153794018Y-121710457D01*
X153782683Y-121717241D01*
X153557018Y-121852299D01*
X153338823Y-122027106D01*
X153336499Y-122029555D01*
X153167557Y-122207583D01*
X153146371Y-122229908D01*
X153144406Y-122232643D01*
X153144404Y-122232645D01*
X153132421Y-122249322D01*
X152983223Y-122456952D01*
X152852398Y-122704038D01*
X152756317Y-122966592D01*
X152696757Y-123239757D01*
X152674822Y-123518477D01*
X151203100Y-123518477D01*
X151185956Y-123300647D01*
X151184745Y-123293004D01*
X151129603Y-123063320D01*
X151127209Y-123055952D01*
X151036819Y-122837730D01*
X151033300Y-122830824D01*
X151000289Y-122776957D01*
X150990603Y-122768684D01*
X150982417Y-122773268D01*
X150226771Y-123528914D01*
X150220717Y-123540797D01*
X149078471Y-123540797D01*
X149079283Y-123539203D01*
X149078487Y-123534172D01*
X148318989Y-122774674D01*
X148307640Y-122768892D01*
X148300749Y-122775263D01*
X148266700Y-122830824D01*
X148263181Y-122837730D01*
X148172791Y-123055952D01*
X148170397Y-123063320D01*
X148115255Y-123293004D01*
X148114044Y-123300647D01*
X148095512Y-123536119D01*
X148095512Y-123543875D01*
X146587203Y-123543875D01*
X146586552Y-122199397D01*
X148878684Y-122199397D01*
X148883268Y-122207583D01*
X149638914Y-122963229D01*
X149650797Y-122969283D01*
X149655828Y-122968487D01*
X150415326Y-122208989D01*
X150421108Y-122197640D01*
X150414737Y-122190749D01*
X150359176Y-122156700D01*
X150352270Y-122153181D01*
X150134048Y-122062791D01*
X150126680Y-122060397D01*
X149896996Y-122005255D01*
X149889353Y-122004044D01*
X149653875Y-121985512D01*
X149646125Y-121985512D01*
X149410647Y-122004044D01*
X149403004Y-122005255D01*
X149173320Y-122060397D01*
X149165952Y-122062791D01*
X148947730Y-122153181D01*
X148940824Y-122156700D01*
X148886957Y-122189711D01*
X148878684Y-122199397D01*
X146586552Y-122199397D01*
X146572189Y-92545053D01*
X149540042Y-92545053D01*
X149553535Y-92779071D01*
X149554427Y-92783028D01*
X149575886Y-92878247D01*
X149605069Y-93007743D01*
X149606598Y-93011507D01*
X149606599Y-93011512D01*
X149646673Y-93110202D01*
X149693259Y-93224928D01*
X149695383Y-93228394D01*
X149695385Y-93228398D01*
X149751521Y-93320003D01*
X149815736Y-93424793D01*
X149818395Y-93427863D01*
X149818396Y-93427864D01*
X149889481Y-93509927D01*
X149969212Y-93601971D01*
X150149565Y-93751703D01*
X150351951Y-93869968D01*
X150570935Y-93953590D01*
X150574910Y-93954399D01*
X150574911Y-93954399D01*
X150796654Y-93999513D01*
X150796658Y-93999513D01*
X150800637Y-94000323D01*
X150804697Y-94000472D01*
X150804698Y-94000472D01*
X150845311Y-94001961D01*
X151034887Y-94008913D01*
X151038906Y-94008398D01*
X151038910Y-94008398D01*
X151263362Y-93979645D01*
X151263368Y-93979644D01*
X151267394Y-93979128D01*
X151271287Y-93977960D01*
X151271292Y-93977959D01*
X151430542Y-93930181D01*
X151491914Y-93911768D01*
X151602707Y-93857491D01*
X151698771Y-93810430D01*
X151698774Y-93810428D01*
X151702418Y-93808643D01*
X151893253Y-93672522D01*
X152059293Y-93507061D01*
X152133616Y-93403630D01*
X152137960Y-93397585D01*
X152187271Y-93361363D01*
X152248456Y-93361043D01*
X152298143Y-93396747D01*
X152302761Y-93403619D01*
X152315736Y-93424793D01*
X152318395Y-93427863D01*
X152318396Y-93427864D01*
X152389481Y-93509927D01*
X152469212Y-93601971D01*
X152649565Y-93751703D01*
X152851951Y-93869968D01*
X153070935Y-93953590D01*
X153074910Y-93954399D01*
X153074911Y-93954399D01*
X153296654Y-93999513D01*
X153296658Y-93999513D01*
X153300637Y-94000323D01*
X153304697Y-94000472D01*
X153304698Y-94000472D01*
X153345311Y-94001961D01*
X153534887Y-94008913D01*
X153538906Y-94008398D01*
X153538910Y-94008398D01*
X153763362Y-93979645D01*
X153763368Y-93979644D01*
X153767394Y-93979128D01*
X153771287Y-93977960D01*
X153771292Y-93977959D01*
X153930542Y-93930181D01*
X153991914Y-93911768D01*
X154102707Y-93857491D01*
X154198771Y-93810430D01*
X154198774Y-93810428D01*
X154202418Y-93808643D01*
X154393253Y-93672522D01*
X154559293Y-93507061D01*
X154633616Y-93403630D01*
X154637960Y-93397585D01*
X154687271Y-93361363D01*
X154748456Y-93361043D01*
X154798143Y-93396747D01*
X154802761Y-93403619D01*
X154815736Y-93424793D01*
X154818395Y-93427863D01*
X154818396Y-93427864D01*
X154889481Y-93509927D01*
X154969212Y-93601971D01*
X155149565Y-93751703D01*
X155351951Y-93869968D01*
X155570935Y-93953590D01*
X155574910Y-93954399D01*
X155574911Y-93954399D01*
X155796654Y-93999513D01*
X155796658Y-93999513D01*
X155800637Y-94000323D01*
X155804697Y-94000472D01*
X155804698Y-94000472D01*
X155845311Y-94001961D01*
X156034887Y-94008913D01*
X156038906Y-94008398D01*
X156038910Y-94008398D01*
X156263362Y-93979645D01*
X156263368Y-93979644D01*
X156267394Y-93979128D01*
X156271287Y-93977960D01*
X156271292Y-93977959D01*
X156430542Y-93930181D01*
X156491914Y-93911768D01*
X156602707Y-93857491D01*
X156698771Y-93810430D01*
X156698774Y-93810428D01*
X156702418Y-93808643D01*
X156893253Y-93672522D01*
X157059293Y-93507061D01*
X157133616Y-93403630D01*
X157137960Y-93397585D01*
X157187271Y-93361363D01*
X157248456Y-93361043D01*
X157298143Y-93396747D01*
X157302761Y-93403619D01*
X157315736Y-93424793D01*
X157318395Y-93427863D01*
X157318396Y-93427864D01*
X157389481Y-93509927D01*
X157469212Y-93601971D01*
X157649565Y-93751703D01*
X157851951Y-93869968D01*
X158070935Y-93953590D01*
X158074910Y-93954399D01*
X158074911Y-93954399D01*
X158296654Y-93999513D01*
X158296658Y-93999513D01*
X158300637Y-94000323D01*
X158304697Y-94000472D01*
X158304698Y-94000472D01*
X158345311Y-94001961D01*
X158534887Y-94008913D01*
X158538906Y-94008398D01*
X158538910Y-94008398D01*
X158763362Y-93979645D01*
X158763368Y-93979644D01*
X158767394Y-93979128D01*
X158771287Y-93977960D01*
X158771292Y-93977959D01*
X158930542Y-93930181D01*
X158991914Y-93911768D01*
X159102707Y-93857491D01*
X159198771Y-93810430D01*
X159198774Y-93810428D01*
X159202418Y-93808643D01*
X159393253Y-93672522D01*
X159559293Y-93507061D01*
X159633616Y-93403630D01*
X159693708Y-93320003D01*
X159693709Y-93320001D01*
X159696079Y-93316703D01*
X159697877Y-93313065D01*
X159697880Y-93313060D01*
X159798138Y-93110202D01*
X159799938Y-93106560D01*
X159801116Y-93102684D01*
X159801118Y-93102678D01*
X159866901Y-92886160D01*
X159866901Y-92886159D01*
X159868081Y-92882276D01*
X159898677Y-92649874D01*
X159900385Y-92580000D01*
X159881178Y-92346381D01*
X159872536Y-92311973D01*
X159825064Y-92122982D01*
X159824073Y-92119036D01*
X159730603Y-91904070D01*
X159603279Y-91707258D01*
X159445520Y-91533883D01*
X159442334Y-91531367D01*
X159442331Y-91531364D01*
X159264751Y-91391119D01*
X159264745Y-91391115D01*
X159261563Y-91388602D01*
X159056348Y-91275317D01*
X159052517Y-91273960D01*
X159052514Y-91273959D01*
X158839222Y-91198428D01*
X158839218Y-91198427D01*
X158835386Y-91197070D01*
X158732192Y-91178688D01*
X158678220Y-91149870D01*
X158651494Y-91094830D01*
X158662223Y-91034593D01*
X158706310Y-90992167D01*
X158736974Y-90983026D01*
X158763351Y-90979647D01*
X158763364Y-90979644D01*
X158767394Y-90979128D01*
X158771287Y-90977960D01*
X158771292Y-90977959D01*
X158930542Y-90930181D01*
X158991914Y-90911768D01*
X159102707Y-90857491D01*
X159198771Y-90810430D01*
X159198774Y-90810428D01*
X159202418Y-90808643D01*
X159393253Y-90672522D01*
X159559293Y-90507061D01*
X159633616Y-90403630D01*
X159693708Y-90320003D01*
X159693709Y-90320001D01*
X159696079Y-90316703D01*
X159697877Y-90313065D01*
X159697880Y-90313060D01*
X159798138Y-90110202D01*
X159799938Y-90106560D01*
X159801116Y-90102684D01*
X159801118Y-90102678D01*
X159866901Y-89886160D01*
X159866901Y-89886159D01*
X159868081Y-89882276D01*
X159898677Y-89649874D01*
X159900385Y-89580000D01*
X159881178Y-89346381D01*
X159872536Y-89311973D01*
X159825064Y-89122982D01*
X159824073Y-89119036D01*
X159730603Y-88904070D01*
X159603279Y-88707258D01*
X159445520Y-88533883D01*
X159442334Y-88531367D01*
X159442331Y-88531364D01*
X159283774Y-88406143D01*
X159249825Y-88355239D01*
X159252281Y-88294103D01*
X159287642Y-88247854D01*
X159393253Y-88172522D01*
X159559293Y-88007061D01*
X159633616Y-87903630D01*
X159693708Y-87820003D01*
X159693709Y-87820001D01*
X159696079Y-87816703D01*
X159697877Y-87813065D01*
X159697880Y-87813060D01*
X159798138Y-87610202D01*
X159799938Y-87606560D01*
X159801116Y-87602684D01*
X159801118Y-87602678D01*
X159866901Y-87386160D01*
X159866901Y-87386159D01*
X159868081Y-87382276D01*
X159898677Y-87149874D01*
X159900385Y-87080000D01*
X159881178Y-86846381D01*
X159872536Y-86811973D01*
X159825064Y-86622982D01*
X159824073Y-86619036D01*
X159730603Y-86404070D01*
X159603279Y-86207258D01*
X159445520Y-86033883D01*
X159442334Y-86031367D01*
X159442331Y-86031364D01*
X159264751Y-85891119D01*
X159264745Y-85891115D01*
X159261563Y-85888602D01*
X159056348Y-85775317D01*
X159052517Y-85773960D01*
X159052514Y-85773959D01*
X158839222Y-85698428D01*
X158839218Y-85698427D01*
X158835386Y-85697070D01*
X158732192Y-85678688D01*
X158678220Y-85649870D01*
X158651494Y-85594830D01*
X158662223Y-85534593D01*
X158706310Y-85492167D01*
X158736974Y-85483026D01*
X158763351Y-85479647D01*
X158763364Y-85479644D01*
X158767394Y-85479128D01*
X158771287Y-85477960D01*
X158771292Y-85477959D01*
X158930542Y-85430181D01*
X158991914Y-85411768D01*
X159102707Y-85357491D01*
X159198771Y-85310430D01*
X159198774Y-85310428D01*
X159202418Y-85308643D01*
X159393253Y-85172522D01*
X159559293Y-85007061D01*
X159633616Y-84903630D01*
X159693708Y-84820003D01*
X159693709Y-84820001D01*
X159696079Y-84816703D01*
X159697877Y-84813065D01*
X159697880Y-84813060D01*
X159798138Y-84610202D01*
X159799938Y-84606560D01*
X159801116Y-84602684D01*
X159801118Y-84602678D01*
X159866901Y-84386160D01*
X159866901Y-84386159D01*
X159868081Y-84382276D01*
X159898677Y-84149874D01*
X159900385Y-84080000D01*
X159881178Y-83846381D01*
X159872536Y-83811973D01*
X159825064Y-83622982D01*
X159824073Y-83619036D01*
X159730603Y-83404070D01*
X159603279Y-83207258D01*
X159445520Y-83033883D01*
X159442334Y-83031367D01*
X159442331Y-83031364D01*
X159264751Y-82891119D01*
X159264745Y-82891115D01*
X159261563Y-82888602D01*
X159056348Y-82775317D01*
X159052517Y-82773960D01*
X159052514Y-82773959D01*
X158839222Y-82698428D01*
X158839218Y-82698427D01*
X158835386Y-82697070D01*
X158696955Y-82672412D01*
X158642982Y-82643593D01*
X158616256Y-82588553D01*
X158626985Y-82528316D01*
X158671072Y-82485890D01*
X158693733Y-82478109D01*
X158752341Y-82465651D01*
X158762153Y-82462463D01*
X158764869Y-82461254D01*
X158772616Y-82454279D01*
X158767164Y-82442849D01*
X158481088Y-82156774D01*
X158469202Y-82150718D01*
X158464171Y-82151514D01*
X158171897Y-82443788D01*
X158167163Y-82453079D01*
X158176349Y-82461796D01*
X158177847Y-82462463D01*
X158187657Y-82465651D01*
X158246591Y-82478178D01*
X158299579Y-82508771D01*
X158324465Y-82564667D01*
X158311743Y-82624515D01*
X158266273Y-82665456D01*
X158240985Y-82672875D01*
X158138511Y-82688556D01*
X158018379Y-82727821D01*
X157919561Y-82760120D01*
X157919557Y-82760121D01*
X157915704Y-82761381D01*
X157912104Y-82763255D01*
X157711387Y-82867741D01*
X157711384Y-82867743D01*
X157707782Y-82869618D01*
X157704540Y-82872053D01*
X157704534Y-82872056D01*
X157679145Y-82891119D01*
X157520330Y-83010361D01*
X157358382Y-83179830D01*
X157356090Y-83183190D01*
X157302312Y-83262025D01*
X157253900Y-83299442D01*
X157192742Y-83301257D01*
X157142197Y-83266777D01*
X157137418Y-83260028D01*
X157103279Y-83207258D01*
X156945520Y-83033883D01*
X156942334Y-83031367D01*
X156942331Y-83031364D01*
X156764751Y-82891119D01*
X156764745Y-82891115D01*
X156761563Y-82888602D01*
X156556348Y-82775317D01*
X156552517Y-82773960D01*
X156552514Y-82773959D01*
X156339222Y-82698428D01*
X156339218Y-82698427D01*
X156335386Y-82697070D01*
X156196955Y-82672412D01*
X156142982Y-82643593D01*
X156116256Y-82588553D01*
X156126985Y-82528316D01*
X156171072Y-82485890D01*
X156193733Y-82478109D01*
X156252341Y-82465651D01*
X156262153Y-82462463D01*
X156264869Y-82461254D01*
X156272616Y-82454279D01*
X156267164Y-82442849D01*
X155981088Y-82156774D01*
X155969202Y-82150718D01*
X155964171Y-82151514D01*
X155671897Y-82443788D01*
X155667163Y-82453079D01*
X155676349Y-82461796D01*
X155677847Y-82462463D01*
X155687657Y-82465651D01*
X155746591Y-82478178D01*
X155799579Y-82508771D01*
X155824465Y-82564667D01*
X155811743Y-82624515D01*
X155766273Y-82665456D01*
X155740985Y-82672875D01*
X155638511Y-82688556D01*
X155518379Y-82727821D01*
X155419561Y-82760120D01*
X155419557Y-82760121D01*
X155415704Y-82761381D01*
X155412104Y-82763255D01*
X155211387Y-82867741D01*
X155211384Y-82867743D01*
X155207782Y-82869618D01*
X155204540Y-82872053D01*
X155204534Y-82872056D01*
X155179145Y-82891119D01*
X155020330Y-83010361D01*
X154858382Y-83179830D01*
X154856090Y-83183190D01*
X154802312Y-83262025D01*
X154753900Y-83299442D01*
X154692742Y-83301257D01*
X154642197Y-83266777D01*
X154637418Y-83260028D01*
X154603279Y-83207258D01*
X154445520Y-83033883D01*
X154442334Y-83031367D01*
X154442331Y-83031364D01*
X154264751Y-82891119D01*
X154264745Y-82891115D01*
X154261563Y-82888602D01*
X154056348Y-82775317D01*
X154052517Y-82773960D01*
X154052514Y-82773959D01*
X153839222Y-82698428D01*
X153839218Y-82698427D01*
X153835386Y-82697070D01*
X153696955Y-82672412D01*
X153642982Y-82643593D01*
X153616256Y-82588553D01*
X153626985Y-82528316D01*
X153671072Y-82485890D01*
X153693733Y-82478109D01*
X153752341Y-82465651D01*
X153762153Y-82462463D01*
X153764869Y-82461254D01*
X153772616Y-82454279D01*
X153767164Y-82442849D01*
X153481088Y-82156774D01*
X153469202Y-82150718D01*
X153464171Y-82151514D01*
X153171897Y-82443788D01*
X153167163Y-82453079D01*
X153176349Y-82461796D01*
X153177847Y-82462463D01*
X153187657Y-82465651D01*
X153246591Y-82478178D01*
X153299579Y-82508771D01*
X153324465Y-82564667D01*
X153311743Y-82624515D01*
X153266273Y-82665456D01*
X153240985Y-82672875D01*
X153138511Y-82688556D01*
X153018379Y-82727821D01*
X152919561Y-82760120D01*
X152919557Y-82760121D01*
X152915704Y-82761381D01*
X152912104Y-82763255D01*
X152711387Y-82867741D01*
X152711384Y-82867743D01*
X152707782Y-82869618D01*
X152704540Y-82872053D01*
X152704534Y-82872056D01*
X152679145Y-82891119D01*
X152520330Y-83010361D01*
X152358382Y-83179830D01*
X152356090Y-83183190D01*
X152302312Y-83262025D01*
X152253900Y-83299442D01*
X152192742Y-83301257D01*
X152142197Y-83266777D01*
X152137418Y-83260028D01*
X152103279Y-83207258D01*
X151945520Y-83033883D01*
X151942334Y-83031367D01*
X151942331Y-83031364D01*
X151764751Y-82891119D01*
X151764745Y-82891115D01*
X151761563Y-82888602D01*
X151556348Y-82775317D01*
X151552517Y-82773960D01*
X151552514Y-82773959D01*
X151339222Y-82698428D01*
X151339218Y-82698427D01*
X151335386Y-82697070D01*
X151196955Y-82672412D01*
X151142982Y-82643593D01*
X151116256Y-82588553D01*
X151126985Y-82528316D01*
X151171072Y-82485890D01*
X151193733Y-82478109D01*
X151252341Y-82465651D01*
X151262153Y-82462463D01*
X151264869Y-82461254D01*
X151272616Y-82454279D01*
X151267164Y-82442849D01*
X150981088Y-82156774D01*
X150969202Y-82150718D01*
X150964171Y-82151514D01*
X150671897Y-82443788D01*
X150667163Y-82453079D01*
X150676349Y-82461796D01*
X150677847Y-82462463D01*
X150687657Y-82465651D01*
X150746591Y-82478178D01*
X150799579Y-82508771D01*
X150824465Y-82564667D01*
X150811743Y-82624515D01*
X150766273Y-82665456D01*
X150740985Y-82672875D01*
X150638511Y-82688556D01*
X150518379Y-82727821D01*
X150419561Y-82760120D01*
X150419557Y-82760121D01*
X150415704Y-82761381D01*
X150412104Y-82763255D01*
X150211387Y-82867741D01*
X150211384Y-82867743D01*
X150207782Y-82869618D01*
X150204540Y-82872053D01*
X150204534Y-82872056D01*
X150179145Y-82891119D01*
X150020330Y-83010361D01*
X149858382Y-83179830D01*
X149726287Y-83373473D01*
X149627594Y-83586091D01*
X149564951Y-83811973D01*
X149540042Y-84045053D01*
X149553535Y-84279071D01*
X149554427Y-84283028D01*
X149575886Y-84378247D01*
X149605069Y-84507743D01*
X149606598Y-84511507D01*
X149606599Y-84511512D01*
X149646673Y-84610202D01*
X149693259Y-84724928D01*
X149695383Y-84728394D01*
X149695385Y-84728398D01*
X149751521Y-84820003D01*
X149815736Y-84924793D01*
X149818395Y-84927863D01*
X149818396Y-84927864D01*
X149889481Y-85009927D01*
X149969212Y-85101971D01*
X150149565Y-85251703D01*
X150351951Y-85369968D01*
X150570935Y-85453590D01*
X150714457Y-85482790D01*
X150767709Y-85512918D01*
X150793083Y-85568594D01*
X150780884Y-85628552D01*
X150735774Y-85669888D01*
X150709694Y-85677663D01*
X150662923Y-85684820D01*
X150638511Y-85688556D01*
X150518379Y-85727821D01*
X150419561Y-85760120D01*
X150419557Y-85760121D01*
X150415704Y-85761381D01*
X150412104Y-85763255D01*
X150211387Y-85867741D01*
X150211384Y-85867743D01*
X150207782Y-85869618D01*
X150204540Y-85872053D01*
X150204534Y-85872056D01*
X150179145Y-85891119D01*
X150020330Y-86010361D01*
X149858382Y-86179830D01*
X149726287Y-86373473D01*
X149627594Y-86586091D01*
X149564951Y-86811973D01*
X149540042Y-87045053D01*
X149553535Y-87279071D01*
X149554427Y-87283028D01*
X149575886Y-87378247D01*
X149605069Y-87507743D01*
X149606598Y-87511507D01*
X149606599Y-87511512D01*
X149646673Y-87610202D01*
X149693259Y-87724928D01*
X149695383Y-87728394D01*
X149695385Y-87728398D01*
X149751521Y-87820003D01*
X149815736Y-87924793D01*
X149818395Y-87927863D01*
X149818396Y-87927864D01*
X149889481Y-88009927D01*
X149969212Y-88101971D01*
X150149565Y-88251703D01*
X150149976Y-88251943D01*
X150186228Y-88300046D01*
X150187299Y-88361222D01*
X150152065Y-88411451D01*
X150023576Y-88507923D01*
X150023570Y-88507928D01*
X150020330Y-88510361D01*
X149858382Y-88679830D01*
X149726287Y-88873473D01*
X149627594Y-89086091D01*
X149564951Y-89311973D01*
X149540042Y-89545053D01*
X149553535Y-89779071D01*
X149554427Y-89783028D01*
X149575886Y-89878247D01*
X149605069Y-90007743D01*
X149606598Y-90011507D01*
X149606599Y-90011512D01*
X149646673Y-90110202D01*
X149693259Y-90224928D01*
X149695383Y-90228394D01*
X149695385Y-90228398D01*
X149751521Y-90320003D01*
X149815736Y-90424793D01*
X149818395Y-90427863D01*
X149818396Y-90427864D01*
X149889481Y-90509927D01*
X149969212Y-90601971D01*
X150149565Y-90751703D01*
X150351951Y-90869968D01*
X150570935Y-90953590D01*
X150714457Y-90982790D01*
X150767709Y-91012918D01*
X150793083Y-91068594D01*
X150780884Y-91128552D01*
X150735774Y-91169888D01*
X150709694Y-91177663D01*
X150662923Y-91184820D01*
X150638511Y-91188556D01*
X150518379Y-91227821D01*
X150419561Y-91260120D01*
X150419557Y-91260121D01*
X150415704Y-91261381D01*
X150412104Y-91263255D01*
X150211387Y-91367741D01*
X150211384Y-91367743D01*
X150207782Y-91369618D01*
X150204540Y-91372053D01*
X150204534Y-91372056D01*
X150179145Y-91391119D01*
X150020330Y-91510361D01*
X149858382Y-91679830D01*
X149726287Y-91873473D01*
X149627594Y-92086091D01*
X149564951Y-92311973D01*
X149540042Y-92545053D01*
X146572189Y-92545053D01*
X146568872Y-85696357D01*
X146566881Y-81585157D01*
X150040447Y-81585157D01*
X150059688Y-81768220D01*
X150061832Y-81778310D01*
X150092344Y-81872212D01*
X150099040Y-81881429D01*
X150104736Y-81879578D01*
X150393228Y-81591086D01*
X150398470Y-81580797D01*
X151540718Y-81580797D01*
X151541514Y-81585828D01*
X151831725Y-81876039D01*
X151841873Y-81881210D01*
X151846109Y-81876974D01*
X151878168Y-81778310D01*
X151880312Y-81768220D01*
X151899553Y-81585157D01*
X152540447Y-81585157D01*
X152559688Y-81768220D01*
X152561832Y-81778310D01*
X152592344Y-81872212D01*
X152599040Y-81881429D01*
X152604736Y-81879578D01*
X152893228Y-81591086D01*
X152898470Y-81580797D01*
X154040718Y-81580797D01*
X154041514Y-81585828D01*
X154331725Y-81876039D01*
X154341873Y-81881210D01*
X154346109Y-81876974D01*
X154378168Y-81778310D01*
X154380312Y-81768220D01*
X154399553Y-81585157D01*
X155040447Y-81585157D01*
X155059688Y-81768220D01*
X155061832Y-81778310D01*
X155092344Y-81872212D01*
X155099040Y-81881429D01*
X155104736Y-81879578D01*
X155393228Y-81591086D01*
X155398470Y-81580797D01*
X156540718Y-81580797D01*
X156541514Y-81585828D01*
X156831725Y-81876039D01*
X156841873Y-81881210D01*
X156846109Y-81876974D01*
X156878168Y-81778310D01*
X156880312Y-81768220D01*
X156899553Y-81585157D01*
X157540447Y-81585157D01*
X157559688Y-81768220D01*
X157561832Y-81778310D01*
X157592344Y-81872212D01*
X157599040Y-81881429D01*
X157604736Y-81879578D01*
X157893228Y-81591086D01*
X157898470Y-81580797D01*
X159040718Y-81580797D01*
X159041514Y-81585828D01*
X159331725Y-81876039D01*
X159341873Y-81881210D01*
X159346109Y-81876974D01*
X159378168Y-81778310D01*
X159380312Y-81768220D01*
X159399553Y-81585157D01*
X159399553Y-81574843D01*
X159380312Y-81391780D01*
X159378168Y-81381690D01*
X159347656Y-81287788D01*
X159340960Y-81278571D01*
X159335264Y-81280422D01*
X159046772Y-81568914D01*
X159040718Y-81580797D01*
X157898470Y-81580797D01*
X157899282Y-81579203D01*
X157898486Y-81574172D01*
X157608275Y-81283961D01*
X157598127Y-81278790D01*
X157593891Y-81283026D01*
X157561832Y-81381690D01*
X157559688Y-81391780D01*
X157540447Y-81574843D01*
X157540447Y-81585157D01*
X156899553Y-81585157D01*
X156899553Y-81574843D01*
X156880312Y-81391780D01*
X156878168Y-81381690D01*
X156847656Y-81287788D01*
X156840960Y-81278571D01*
X156835264Y-81280422D01*
X156546772Y-81568914D01*
X156540718Y-81580797D01*
X155398470Y-81580797D01*
X155399282Y-81579203D01*
X155398486Y-81574172D01*
X155108275Y-81283961D01*
X155098127Y-81278790D01*
X155093891Y-81283026D01*
X155061832Y-81381690D01*
X155059688Y-81391780D01*
X155040447Y-81574843D01*
X155040447Y-81585157D01*
X154399553Y-81585157D01*
X154399553Y-81574843D01*
X154380312Y-81391780D01*
X154378168Y-81381690D01*
X154347656Y-81287788D01*
X154340960Y-81278571D01*
X154335264Y-81280422D01*
X154046772Y-81568914D01*
X154040718Y-81580797D01*
X152898470Y-81580797D01*
X152899282Y-81579203D01*
X152898486Y-81574172D01*
X152608275Y-81283961D01*
X152598127Y-81278790D01*
X152593891Y-81283026D01*
X152561832Y-81381690D01*
X152559688Y-81391780D01*
X152540447Y-81574843D01*
X152540447Y-81585157D01*
X151899553Y-81585157D01*
X151899553Y-81574843D01*
X151880312Y-81391780D01*
X151878168Y-81381690D01*
X151847656Y-81287788D01*
X151840960Y-81278571D01*
X151835264Y-81280422D01*
X151546772Y-81568914D01*
X151540718Y-81580797D01*
X150398470Y-81580797D01*
X150399282Y-81579203D01*
X150398486Y-81574172D01*
X150108275Y-81283961D01*
X150098127Y-81278790D01*
X150093891Y-81283026D01*
X150061832Y-81381690D01*
X150059688Y-81391780D01*
X150040447Y-81574843D01*
X150040447Y-81585157D01*
X146566881Y-81585157D01*
X146566455Y-80705721D01*
X150667384Y-80705721D01*
X150672836Y-80717151D01*
X150958912Y-81003226D01*
X150970798Y-81009282D01*
X150975829Y-81008486D01*
X151268103Y-80716212D01*
X151272837Y-80706921D01*
X151271572Y-80705721D01*
X153167384Y-80705721D01*
X153172836Y-80717151D01*
X153458912Y-81003226D01*
X153470798Y-81009282D01*
X153475829Y-81008486D01*
X153768103Y-80716212D01*
X153772837Y-80706921D01*
X153771572Y-80705721D01*
X155667384Y-80705721D01*
X155672836Y-80717151D01*
X155958912Y-81003226D01*
X155970798Y-81009282D01*
X155975829Y-81008486D01*
X156268103Y-80716212D01*
X156272837Y-80706921D01*
X156271572Y-80705721D01*
X158167384Y-80705721D01*
X158172836Y-80717151D01*
X158458912Y-81003226D01*
X158470798Y-81009282D01*
X158475829Y-81008486D01*
X158768103Y-80716212D01*
X158772837Y-80706921D01*
X158763651Y-80698204D01*
X158762153Y-80697537D01*
X158752341Y-80694349D01*
X158572295Y-80656079D01*
X158562032Y-80655000D01*
X158377968Y-80655000D01*
X158367705Y-80656079D01*
X158187659Y-80694349D01*
X158177847Y-80697537D01*
X158175131Y-80698746D01*
X158167384Y-80705721D01*
X156271572Y-80705721D01*
X156263651Y-80698204D01*
X156262153Y-80697537D01*
X156252341Y-80694349D01*
X156072295Y-80656079D01*
X156062032Y-80655000D01*
X155877968Y-80655000D01*
X155867705Y-80656079D01*
X155687659Y-80694349D01*
X155677847Y-80697537D01*
X155675131Y-80698746D01*
X155667384Y-80705721D01*
X153771572Y-80705721D01*
X153763651Y-80698204D01*
X153762153Y-80697537D01*
X153752341Y-80694349D01*
X153572295Y-80656079D01*
X153562032Y-80655000D01*
X153377968Y-80655000D01*
X153367705Y-80656079D01*
X153187659Y-80694349D01*
X153177847Y-80697537D01*
X153175131Y-80698746D01*
X153167384Y-80705721D01*
X151271572Y-80705721D01*
X151263651Y-80698204D01*
X151262153Y-80697537D01*
X151252341Y-80694349D01*
X151072295Y-80656079D01*
X151062032Y-80655000D01*
X150877968Y-80655000D01*
X150867705Y-80656079D01*
X150687659Y-80694349D01*
X150677847Y-80697537D01*
X150675131Y-80698746D01*
X150667384Y-80705721D01*
X146566455Y-80705721D01*
X146565848Y-79453079D01*
X150667163Y-79453079D01*
X150676349Y-79461796D01*
X150677847Y-79462463D01*
X150687659Y-79465651D01*
X150867705Y-79503921D01*
X150877968Y-79505000D01*
X151062032Y-79505000D01*
X151072295Y-79503921D01*
X151252341Y-79465651D01*
X151262153Y-79462463D01*
X151264869Y-79461254D01*
X151272616Y-79454279D01*
X151272044Y-79453079D01*
X153167163Y-79453079D01*
X153176349Y-79461796D01*
X153177847Y-79462463D01*
X153187659Y-79465651D01*
X153367705Y-79503921D01*
X153377968Y-79505000D01*
X153562032Y-79505000D01*
X153572295Y-79503921D01*
X153752341Y-79465651D01*
X153762153Y-79462463D01*
X153764869Y-79461254D01*
X153772616Y-79454279D01*
X153772044Y-79453079D01*
X155667163Y-79453079D01*
X155676349Y-79461796D01*
X155677847Y-79462463D01*
X155687659Y-79465651D01*
X155867705Y-79503921D01*
X155877968Y-79505000D01*
X156062032Y-79505000D01*
X156072295Y-79503921D01*
X156252341Y-79465651D01*
X156262153Y-79462463D01*
X156264869Y-79461254D01*
X156272616Y-79454279D01*
X156272044Y-79453079D01*
X158167163Y-79453079D01*
X158176349Y-79461796D01*
X158177847Y-79462463D01*
X158187659Y-79465651D01*
X158367705Y-79503921D01*
X158377968Y-79505000D01*
X158562032Y-79505000D01*
X158572295Y-79503921D01*
X158752341Y-79465651D01*
X158762153Y-79462463D01*
X158764869Y-79461254D01*
X158772616Y-79454279D01*
X158767164Y-79442849D01*
X158481088Y-79156774D01*
X158469202Y-79150718D01*
X158464171Y-79151514D01*
X158171897Y-79443788D01*
X158167163Y-79453079D01*
X156272044Y-79453079D01*
X156267164Y-79442849D01*
X155981088Y-79156774D01*
X155969202Y-79150718D01*
X155964171Y-79151514D01*
X155671897Y-79443788D01*
X155667163Y-79453079D01*
X153772044Y-79453079D01*
X153767164Y-79442849D01*
X153481088Y-79156774D01*
X153469202Y-79150718D01*
X153464171Y-79151514D01*
X153171897Y-79443788D01*
X153167163Y-79453079D01*
X151272044Y-79453079D01*
X151267164Y-79442849D01*
X150981088Y-79156774D01*
X150969202Y-79150718D01*
X150964171Y-79151514D01*
X150671897Y-79443788D01*
X150667163Y-79453079D01*
X146565848Y-79453079D01*
X146565428Y-78585157D01*
X150040447Y-78585157D01*
X150059688Y-78768220D01*
X150061832Y-78778310D01*
X150092344Y-78872212D01*
X150099040Y-78881429D01*
X150104736Y-78879578D01*
X150393228Y-78591086D01*
X150398470Y-78580797D01*
X151540718Y-78580797D01*
X151541514Y-78585828D01*
X151831725Y-78876039D01*
X151841873Y-78881210D01*
X151846109Y-78876974D01*
X151878168Y-78778310D01*
X151880312Y-78768220D01*
X151899553Y-78585157D01*
X152540447Y-78585157D01*
X152559688Y-78768220D01*
X152561832Y-78778310D01*
X152592344Y-78872212D01*
X152599040Y-78881429D01*
X152604736Y-78879578D01*
X152893228Y-78591086D01*
X152898470Y-78580797D01*
X154040718Y-78580797D01*
X154041514Y-78585828D01*
X154331725Y-78876039D01*
X154341873Y-78881210D01*
X154346109Y-78876974D01*
X154378168Y-78778310D01*
X154380312Y-78768220D01*
X154399553Y-78585157D01*
X155040447Y-78585157D01*
X155059688Y-78768220D01*
X155061832Y-78778310D01*
X155092344Y-78872212D01*
X155099040Y-78881429D01*
X155104736Y-78879578D01*
X155393228Y-78591086D01*
X155398470Y-78580797D01*
X156540718Y-78580797D01*
X156541514Y-78585828D01*
X156831725Y-78876039D01*
X156841873Y-78881210D01*
X156846109Y-78876974D01*
X156878168Y-78778310D01*
X156880312Y-78768220D01*
X156899553Y-78585157D01*
X157540447Y-78585157D01*
X157559688Y-78768220D01*
X157561832Y-78778310D01*
X157592344Y-78872212D01*
X157599040Y-78881429D01*
X157604736Y-78879578D01*
X157893228Y-78591086D01*
X157898470Y-78580797D01*
X159040718Y-78580797D01*
X159041514Y-78585828D01*
X159331725Y-78876039D01*
X159341873Y-78881210D01*
X159346109Y-78876974D01*
X159378168Y-78778310D01*
X159380312Y-78768220D01*
X159399553Y-78585157D01*
X159399553Y-78574843D01*
X159380312Y-78391780D01*
X159378168Y-78381690D01*
X159347656Y-78287788D01*
X159340960Y-78278571D01*
X159335264Y-78280422D01*
X159046772Y-78568914D01*
X159040718Y-78580797D01*
X157898470Y-78580797D01*
X157899282Y-78579203D01*
X157898486Y-78574172D01*
X157608275Y-78283961D01*
X157598127Y-78278790D01*
X157593891Y-78283026D01*
X157561832Y-78381690D01*
X157559688Y-78391780D01*
X157540447Y-78574843D01*
X157540447Y-78585157D01*
X156899553Y-78585157D01*
X156899553Y-78574843D01*
X156880312Y-78391780D01*
X156878168Y-78381690D01*
X156847656Y-78287788D01*
X156840960Y-78278571D01*
X156835264Y-78280422D01*
X156546772Y-78568914D01*
X156540718Y-78580797D01*
X155398470Y-78580797D01*
X155399282Y-78579203D01*
X155398486Y-78574172D01*
X155108275Y-78283961D01*
X155098127Y-78278790D01*
X155093891Y-78283026D01*
X155061832Y-78381690D01*
X155059688Y-78391780D01*
X155040447Y-78574843D01*
X155040447Y-78585157D01*
X154399553Y-78585157D01*
X154399553Y-78574843D01*
X154380312Y-78391780D01*
X154378168Y-78381690D01*
X154347656Y-78287788D01*
X154340960Y-78278571D01*
X154335264Y-78280422D01*
X154046772Y-78568914D01*
X154040718Y-78580797D01*
X152898470Y-78580797D01*
X152899282Y-78579203D01*
X152898486Y-78574172D01*
X152608275Y-78283961D01*
X152598127Y-78278790D01*
X152593891Y-78283026D01*
X152561832Y-78381690D01*
X152559688Y-78391780D01*
X152540447Y-78574843D01*
X152540447Y-78585157D01*
X151899553Y-78585157D01*
X151899553Y-78574843D01*
X151880312Y-78391780D01*
X151878168Y-78381690D01*
X151847656Y-78287788D01*
X151840960Y-78278571D01*
X151835264Y-78280422D01*
X151546772Y-78568914D01*
X151540718Y-78580797D01*
X150398470Y-78580797D01*
X150399282Y-78579203D01*
X150398486Y-78574172D01*
X150108275Y-78283961D01*
X150098127Y-78278790D01*
X150093891Y-78283026D01*
X150061832Y-78381690D01*
X150059688Y-78391780D01*
X150040447Y-78574843D01*
X150040447Y-78585157D01*
X146565428Y-78585157D01*
X146565002Y-77705721D01*
X150667384Y-77705721D01*
X150672836Y-77717151D01*
X150958912Y-78003226D01*
X150970798Y-78009282D01*
X150975829Y-78008486D01*
X151268103Y-77716212D01*
X151272837Y-77706921D01*
X151271572Y-77705721D01*
X153167384Y-77705721D01*
X153172836Y-77717151D01*
X153458912Y-78003226D01*
X153470798Y-78009282D01*
X153475829Y-78008486D01*
X153768103Y-77716212D01*
X153772837Y-77706921D01*
X153771572Y-77705721D01*
X155667384Y-77705721D01*
X155672836Y-77717151D01*
X155958912Y-78003226D01*
X155970798Y-78009282D01*
X155975829Y-78008486D01*
X156268103Y-77716212D01*
X156272837Y-77706921D01*
X156271572Y-77705721D01*
X158167384Y-77705721D01*
X158172836Y-77717151D01*
X158458912Y-78003226D01*
X158470798Y-78009282D01*
X158475829Y-78008486D01*
X158768103Y-77716212D01*
X158772837Y-77706921D01*
X158763651Y-77698204D01*
X158762153Y-77697537D01*
X158752341Y-77694349D01*
X158572295Y-77656079D01*
X158562032Y-77655000D01*
X158377968Y-77655000D01*
X158367705Y-77656079D01*
X158187659Y-77694349D01*
X158177847Y-77697537D01*
X158175131Y-77698746D01*
X158167384Y-77705721D01*
X156271572Y-77705721D01*
X156263651Y-77698204D01*
X156262153Y-77697537D01*
X156252341Y-77694349D01*
X156072295Y-77656079D01*
X156062032Y-77655000D01*
X155877968Y-77655000D01*
X155867705Y-77656079D01*
X155687659Y-77694349D01*
X155677847Y-77697537D01*
X155675131Y-77698746D01*
X155667384Y-77705721D01*
X153771572Y-77705721D01*
X153763651Y-77698204D01*
X153762153Y-77697537D01*
X153752341Y-77694349D01*
X153572295Y-77656079D01*
X153562032Y-77655000D01*
X153377968Y-77655000D01*
X153367705Y-77656079D01*
X153187659Y-77694349D01*
X153177847Y-77697537D01*
X153175131Y-77698746D01*
X153167384Y-77705721D01*
X151271572Y-77705721D01*
X151263651Y-77698204D01*
X151262153Y-77697537D01*
X151252341Y-77694349D01*
X151072295Y-77656079D01*
X151062032Y-77655000D01*
X150877968Y-77655000D01*
X150867705Y-77656079D01*
X150687659Y-77694349D01*
X150677847Y-77697537D01*
X150675131Y-77698746D01*
X150667384Y-77705721D01*
X146565002Y-77705721D01*
X146564347Y-76354209D01*
X146583226Y-76296009D01*
X146632709Y-76260021D01*
X146663285Y-76255161D01*
X155523990Y-76249708D01*
X162715286Y-76245283D01*
X162773488Y-76264155D01*
G37*
%TD.AperFunction*%
%TD*%
M02*
