%TF.GenerationSoftware,KiCad,Pcbnew,(6.0.1-0)*%
%TF.CreationDate,2023-01-20T10:28:08-08:00*%
%TF.ProjectId,ESC Mother,45534320-4d6f-4746-9865-722e6b696361,rev?*%
%TF.SameCoordinates,Original*%
%TF.FileFunction,Copper,L3,Inr*%
%TF.FilePolarity,Positive*%
%FSLAX46Y46*%
G04 Gerber Fmt 4.6, Leading zero omitted, Abs format (unit mm)*
G04 Created by KiCad (PCBNEW (6.0.1-0)) date 2023-01-20 10:28:08*
%MOMM*%
%LPD*%
G01*
G04 APERTURE LIST*
%TA.AperFunction,ComponentPad*%
%ADD10R,2.500000X2.500000*%
%TD*%
%TA.AperFunction,ComponentPad*%
%ADD11C,2.500000*%
%TD*%
%TA.AperFunction,ComponentPad*%
%ADD12R,0.930000X0.930000*%
%TD*%
%TA.AperFunction,ComponentPad*%
%ADD13C,0.930000*%
%TD*%
%TA.AperFunction,ComponentPad*%
%ADD14C,1.250000*%
%TD*%
%TA.AperFunction,ViaPad*%
%ADD15C,0.800000*%
%TD*%
G04 APERTURE END LIST*
D10*
%TO.N,/16V*%
%TO.C,+*%
X184850000Y-48600000D03*
D11*
%TO.N,GND*%
X184850000Y-53680000D03*
%TD*%
D10*
%TO.N,/Phase_1_T3*%
%TO.C,T3*%
X99675000Y-123590000D03*
D11*
%TO.N,/Phase_2_T3*%
X94595000Y-123590000D03*
%TO.N,/Phase_3_T3*%
X89515000Y-123590000D03*
%TD*%
D10*
%TO.N,/Phase_1_T4*%
%TO.C,T4*%
X69510000Y-123610000D03*
D11*
%TO.N,/Phase_2_T4*%
X64430000Y-123610000D03*
%TO.N,/Phase_3_T4*%
X59350000Y-123610000D03*
%TD*%
D10*
%TO.N,/Phase_1_T1*%
%TO.C,T1*%
X159810000Y-123540000D03*
D11*
%TO.N,/Phase_2_T1*%
X154730000Y-123540000D03*
%TO.N,/Phase_3_T1*%
X149650000Y-123540000D03*
%TD*%
D12*
%TO.N,unconnected-(J17-Pad01)*%
%TO.C,J4*%
X68190000Y-71630000D03*
D13*
%TO.N,unconnected-(J17-Pad02)*%
X68190000Y-73630000D03*
%TO.N,unconnected-(J17-Pad03)*%
X66540000Y-71630000D03*
%TO.N,unconnected-(J17-Pad04)*%
X66540000Y-73630000D03*
%TO.N,unconnected-(J17-Pad05)*%
X64890000Y-71630000D03*
%TO.N,unconnected-(J17-Pad06)*%
X64890000Y-73630000D03*
%TO.N,/CAL*%
X63240000Y-71630000D03*
%TO.N,/CAH*%
X63240000Y-73630000D03*
%TO.N,+5V*%
X61590000Y-71630000D03*
%TO.N,GND*%
X61590000Y-73630000D03*
D14*
%TO.N,/16V*%
X68210000Y-57840000D03*
X65710000Y-57840000D03*
X63210000Y-57840000D03*
X60710000Y-57840000D03*
X68210000Y-60840000D03*
X65710000Y-60840000D03*
X63210000Y-60840000D03*
X60710000Y-60840000D03*
%TO.N,GND*%
X68210000Y-63340000D03*
X65710000Y-63340000D03*
X63210000Y-63340000D03*
X60710000Y-63340000D03*
X68210000Y-66340000D03*
X65710000Y-66340000D03*
X63210000Y-66340000D03*
X60710000Y-66340000D03*
%TO.N,/Phase_3_T4*%
X68210000Y-78560000D03*
X65710000Y-78560000D03*
X63210000Y-78560000D03*
X60710000Y-78560000D03*
X68210000Y-81560000D03*
X65710000Y-81560000D03*
X63210000Y-81560000D03*
X60710000Y-81560000D03*
%TO.N,/Phase_2_T4*%
X68210000Y-84060000D03*
X65710000Y-84060000D03*
X63210000Y-84060000D03*
X60710000Y-84060000D03*
X68210000Y-87060000D03*
X65710000Y-87060000D03*
X63210000Y-87060000D03*
X60710000Y-87060000D03*
%TO.N,/Phase_1_T4*%
X68210000Y-89560000D03*
X65710000Y-89560000D03*
X63210000Y-89560000D03*
X60710000Y-89560000D03*
X68210000Y-92560000D03*
X65710000Y-92560000D03*
X63210000Y-92560000D03*
X60710000Y-92560000D03*
%TD*%
D12*
%TO.N,unconnected-(J2-Pad01)*%
%TO.C,J2*%
X128380000Y-71650000D03*
D13*
%TO.N,unconnected-(J2-Pad02)*%
X128380000Y-73650000D03*
%TO.N,unconnected-(J2-Pad03)*%
X126730000Y-71650000D03*
%TO.N,unconnected-(J2-Pad04)*%
X126730000Y-73650000D03*
%TO.N,unconnected-(J2-Pad05)*%
X125080000Y-71650000D03*
%TO.N,unconnected-(J2-Pad06)*%
X125080000Y-73650000D03*
%TO.N,/CAL*%
X123430000Y-71650000D03*
%TO.N,/CAH*%
X123430000Y-73650000D03*
%TO.N,+5V*%
X121780000Y-71650000D03*
%TO.N,GND*%
X121780000Y-73650000D03*
D14*
%TO.N,/16V*%
X128400000Y-57860000D03*
X125900000Y-57860000D03*
X123400000Y-57860000D03*
X120900000Y-57860000D03*
X128400000Y-60860000D03*
X125900000Y-60860000D03*
X123400000Y-60860000D03*
X120900000Y-60860000D03*
%TO.N,GND*%
X128400000Y-63360000D03*
X125900000Y-63360000D03*
X123400000Y-63360000D03*
X120900000Y-63360000D03*
X128400000Y-66360000D03*
X125900000Y-66360000D03*
X123400000Y-66360000D03*
X120900000Y-66360000D03*
%TO.N,/Phase_3_T2*%
X128400000Y-78580000D03*
X125900000Y-78580000D03*
X123400000Y-78580000D03*
X120900000Y-78580000D03*
X128400000Y-81580000D03*
X125900000Y-81580000D03*
X123400000Y-81580000D03*
X120900000Y-81580000D03*
%TO.N,/Phase_2_T2*%
X128400000Y-84080000D03*
X125900000Y-84080000D03*
X123400000Y-84080000D03*
X120900000Y-84080000D03*
X128400000Y-87080000D03*
X125900000Y-87080000D03*
X123400000Y-87080000D03*
X120900000Y-87080000D03*
%TO.N,/Phase_1_T2*%
X128400000Y-89580000D03*
X125900000Y-89580000D03*
X123400000Y-89580000D03*
X120900000Y-89580000D03*
X128400000Y-92580000D03*
X125900000Y-92580000D03*
X123400000Y-92580000D03*
X120900000Y-92580000D03*
%TD*%
D12*
%TO.N,unconnected-(J3-Pad01)*%
%TO.C,J3*%
X98300000Y-71650000D03*
D13*
%TO.N,unconnected-(J3-Pad02)*%
X98300000Y-73650000D03*
%TO.N,unconnected-(J3-Pad03)*%
X96650000Y-71650000D03*
%TO.N,unconnected-(J3-Pad04)*%
X96650000Y-73650000D03*
%TO.N,unconnected-(J3-Pad05)*%
X95000000Y-71650000D03*
%TO.N,unconnected-(J3-Pad06)*%
X95000000Y-73650000D03*
%TO.N,/CAL*%
X93350000Y-71650000D03*
%TO.N,/CAH*%
X93350000Y-73650000D03*
%TO.N,+5V*%
X91700000Y-71650000D03*
%TO.N,GND*%
X91700000Y-73650000D03*
D14*
%TO.N,/16V*%
X98320000Y-57860000D03*
X95820000Y-57860000D03*
X93320000Y-57860000D03*
X90820000Y-57860000D03*
X98320000Y-60860000D03*
X95820000Y-60860000D03*
X93320000Y-60860000D03*
X90820000Y-60860000D03*
%TO.N,GND*%
X98320000Y-63360000D03*
X95820000Y-63360000D03*
X93320000Y-63360000D03*
X90820000Y-63360000D03*
X98320000Y-66360000D03*
X95820000Y-66360000D03*
X93320000Y-66360000D03*
X90820000Y-66360000D03*
%TO.N,/Phase_3_T3*%
X98320000Y-78580000D03*
X95820000Y-78580000D03*
X93320000Y-78580000D03*
X90820000Y-78580000D03*
X98320000Y-81580000D03*
X95820000Y-81580000D03*
X93320000Y-81580000D03*
X90820000Y-81580000D03*
%TO.N,/Phase_2_T3*%
X98320000Y-84080000D03*
X95820000Y-84080000D03*
X93320000Y-84080000D03*
X90820000Y-84080000D03*
X98320000Y-87080000D03*
X95820000Y-87080000D03*
X93320000Y-87080000D03*
X90820000Y-87080000D03*
%TO.N,/Phase_1_T3*%
X98320000Y-89580000D03*
X95820000Y-89580000D03*
X93320000Y-89580000D03*
X90820000Y-89580000D03*
X98320000Y-92580000D03*
X95820000Y-92580000D03*
X93320000Y-92580000D03*
X90820000Y-92580000D03*
%TD*%
D10*
%TO.N,/Phase_1_T2*%
%TO.C,T2*%
X129725000Y-123570000D03*
D11*
%TO.N,/Phase_2_T2*%
X124645000Y-123570000D03*
%TO.N,/Phase_3_T2*%
X119565000Y-123570000D03*
%TD*%
D12*
%TO.N,unconnected-(J1-Pad01)*%
%TO.C,J1*%
X158450000Y-71650000D03*
D13*
%TO.N,unconnected-(J1-Pad02)*%
X158450000Y-73650000D03*
%TO.N,unconnected-(J1-Pad03)*%
X156800000Y-71650000D03*
%TO.N,unconnected-(J1-Pad04)*%
X156800000Y-73650000D03*
%TO.N,unconnected-(J1-Pad05)*%
X155150000Y-71650000D03*
%TO.N,unconnected-(J1-Pad06)*%
X155150000Y-73650000D03*
%TO.N,/CAL*%
X153500000Y-71650000D03*
%TO.N,/CAH*%
X153500000Y-73650000D03*
%TO.N,+5V*%
X151850000Y-71650000D03*
%TO.N,GND*%
X151850000Y-73650000D03*
D14*
%TO.N,/16V*%
X158470000Y-57860000D03*
X155970000Y-57860000D03*
X153470000Y-57860000D03*
X150970000Y-57860000D03*
X158470000Y-60860000D03*
X155970000Y-60860000D03*
X153470000Y-60860000D03*
X150970000Y-60860000D03*
%TO.N,GND*%
X158470000Y-63360000D03*
X155970000Y-63360000D03*
X153470000Y-63360000D03*
X150970000Y-63360000D03*
X158470000Y-66360000D03*
X155970000Y-66360000D03*
X153470000Y-66360000D03*
X150970000Y-66360000D03*
%TO.N,/Phase_3_T1*%
X158470000Y-78580000D03*
X155970000Y-78580000D03*
X153470000Y-78580000D03*
X150970000Y-78580000D03*
X158470000Y-81580000D03*
X155970000Y-81580000D03*
X153470000Y-81580000D03*
X150970000Y-81580000D03*
%TO.N,/Phase_2_T1*%
X158470000Y-84080000D03*
X155970000Y-84080000D03*
X153470000Y-84080000D03*
X150970000Y-84080000D03*
X158470000Y-87080000D03*
X155970000Y-87080000D03*
X153470000Y-87080000D03*
X150970000Y-87080000D03*
%TO.N,/Phase_1_T1*%
X158470000Y-89580000D03*
X155970000Y-89580000D03*
X153470000Y-89580000D03*
X150970000Y-89580000D03*
X158470000Y-92580000D03*
X155970000Y-92580000D03*
X153470000Y-92580000D03*
X150970000Y-92580000D03*
%TD*%
D10*
%TO.N,/16V*%
%TO.C,-*%
X34025000Y-53695000D03*
D11*
%TO.N,GND*%
X34025000Y-48615000D03*
%TD*%
D15*
%TO.N,GND*%
X35240000Y-85490000D03*
X183950000Y-80300000D03*
%TO.N,/CAL*%
X34850000Y-82300000D03*
%TO.N,/CAH*%
X34850000Y-83560000D03*
%TO.N,+5V*%
X35240000Y-80340000D03*
X183950000Y-85030000D03*
%TD*%
%TA.AperFunction,Conductor*%
%TO.N,/Phase_2_T4*%
G36*
X72359451Y-76268907D02*
G01*
X72395415Y-76318407D01*
X72400260Y-76348739D01*
X72539738Y-129240739D01*
X72520984Y-129298979D01*
X72471579Y-129335074D01*
X72440738Y-129340000D01*
X56418963Y-129340000D01*
X56360772Y-129321093D01*
X56324808Y-129271593D01*
X56319963Y-129241037D01*
X56317833Y-123588477D01*
X57294822Y-123588477D01*
X57295016Y-123591842D01*
X57295016Y-123591846D01*
X57298545Y-123653043D01*
X57310916Y-123867596D01*
X57364741Y-124141948D01*
X57365834Y-124145140D01*
X57445126Y-124376732D01*
X57455303Y-124406457D01*
X57580925Y-124656228D01*
X57739282Y-124886639D01*
X57741552Y-124889133D01*
X57741553Y-124889135D01*
X57839538Y-124996819D01*
X57927444Y-125093427D01*
X58141930Y-125272765D01*
X58378771Y-125421335D01*
X58381839Y-125422720D01*
X58381846Y-125422724D01*
X58547358Y-125497455D01*
X58633583Y-125536387D01*
X58636805Y-125537341D01*
X58636812Y-125537344D01*
X58851263Y-125600867D01*
X58901652Y-125615793D01*
X58904977Y-125616302D01*
X58904978Y-125616302D01*
X59174684Y-125657573D01*
X59174687Y-125657573D01*
X59178018Y-125658083D01*
X59181389Y-125658136D01*
X59181390Y-125658136D01*
X59229571Y-125658893D01*
X59457566Y-125662474D01*
X59460903Y-125662070D01*
X59460907Y-125662070D01*
X59731779Y-125629291D01*
X59731784Y-125629290D01*
X59735123Y-125628886D01*
X60005554Y-125557940D01*
X60171590Y-125489165D01*
X60260746Y-125452236D01*
X60260749Y-125452235D01*
X60263855Y-125450948D01*
X60266760Y-125449251D01*
X60266763Y-125449249D01*
X60502329Y-125311595D01*
X60505245Y-125309891D01*
X60725258Y-125137379D01*
X60904553Y-124952360D01*
X63658892Y-124952360D01*
X63665263Y-124959251D01*
X63720824Y-124993300D01*
X63727730Y-124996819D01*
X63945952Y-125087209D01*
X63953320Y-125089603D01*
X64183004Y-125144745D01*
X64190647Y-125145956D01*
X64426125Y-125164488D01*
X64433875Y-125164488D01*
X64669353Y-125145956D01*
X64676996Y-125144745D01*
X64906680Y-125089603D01*
X64914048Y-125087209D01*
X65132270Y-124996819D01*
X65139176Y-124993300D01*
X65193043Y-124960289D01*
X65201316Y-124950603D01*
X65196732Y-124942417D01*
X64441086Y-124186771D01*
X64429203Y-124180717D01*
X64424172Y-124181513D01*
X63664674Y-124941011D01*
X63658892Y-124952360D01*
X60904553Y-124952360D01*
X60919823Y-124936603D01*
X60956526Y-124886639D01*
X60986843Y-124845366D01*
X61085340Y-124711280D01*
X61116864Y-124653221D01*
X61217136Y-124468541D01*
X61218745Y-124465578D01*
X61256294Y-124366206D01*
X61316380Y-124207194D01*
X61316381Y-124207190D01*
X61317570Y-124204044D01*
X61344450Y-124086680D01*
X61379234Y-123934808D01*
X61379235Y-123934801D01*
X61379987Y-123931518D01*
X61404840Y-123653043D01*
X61405230Y-123615828D01*
X61405251Y-123613875D01*
X62875512Y-123613875D01*
X62894044Y-123849353D01*
X62895255Y-123856996D01*
X62950397Y-124086680D01*
X62952791Y-124094048D01*
X63043181Y-124312270D01*
X63046700Y-124319176D01*
X63079711Y-124373043D01*
X63089397Y-124381316D01*
X63097583Y-124376732D01*
X63853229Y-123621086D01*
X63858471Y-123610797D01*
X65000717Y-123610797D01*
X65001513Y-123615828D01*
X65761011Y-124375326D01*
X65772360Y-124381108D01*
X65779251Y-124374737D01*
X65813300Y-124319176D01*
X65816819Y-124312270D01*
X65907209Y-124094048D01*
X65909603Y-124086680D01*
X65964745Y-123856996D01*
X65965956Y-123849353D01*
X65984488Y-123613875D01*
X65984488Y-123606119D01*
X65965956Y-123370647D01*
X65964745Y-123363004D01*
X65909603Y-123133320D01*
X65907209Y-123125952D01*
X65816819Y-122907730D01*
X65813300Y-122900824D01*
X65780289Y-122846957D01*
X65770603Y-122838684D01*
X65762417Y-122843268D01*
X65006771Y-123598914D01*
X65000717Y-123610797D01*
X63858471Y-123610797D01*
X63859283Y-123609203D01*
X63858487Y-123604172D01*
X63098989Y-122844674D01*
X63087640Y-122838892D01*
X63080749Y-122845263D01*
X63046700Y-122900824D01*
X63043181Y-122907730D01*
X62952791Y-123125952D01*
X62950397Y-123133320D01*
X62895255Y-123363004D01*
X62894044Y-123370647D01*
X62875512Y-123606119D01*
X62875512Y-123613875D01*
X61405251Y-123613875D01*
X61405271Y-123611937D01*
X61405271Y-123611929D01*
X61405291Y-123610000D01*
X61386275Y-123331065D01*
X61329579Y-123057292D01*
X61236253Y-122793746D01*
X61224542Y-122771056D01*
X61109573Y-122548308D01*
X61109570Y-122548302D01*
X61108022Y-122545304D01*
X60947261Y-122316563D01*
X60929512Y-122297462D01*
X60903432Y-122269397D01*
X63658684Y-122269397D01*
X63663268Y-122277583D01*
X64418914Y-123033229D01*
X64430797Y-123039283D01*
X64435828Y-123038487D01*
X65195326Y-122278989D01*
X65198079Y-122273586D01*
X67459500Y-122273586D01*
X67459501Y-123610797D01*
X67459501Y-124947836D01*
X67459774Y-124952589D01*
X67460716Y-124956668D01*
X67460717Y-124956676D01*
X67492289Y-125093427D01*
X67500173Y-125127577D01*
X67578336Y-125289266D01*
X67690380Y-125429620D01*
X67694713Y-125433079D01*
X67824124Y-125536387D01*
X67830734Y-125541664D01*
X67992423Y-125619827D01*
X67997807Y-125621070D01*
X67997810Y-125621071D01*
X68084045Y-125640979D01*
X68167411Y-125660226D01*
X68172163Y-125660500D01*
X68173586Y-125660500D01*
X69514717Y-125660499D01*
X70847836Y-125660499D01*
X70852589Y-125660226D01*
X70856670Y-125659284D01*
X70856676Y-125659283D01*
X71022190Y-125621071D01*
X71022193Y-125621070D01*
X71027577Y-125619827D01*
X71189266Y-125541664D01*
X71195877Y-125536387D01*
X71325287Y-125433079D01*
X71329620Y-125429620D01*
X71441664Y-125289266D01*
X71519827Y-125127577D01*
X71560226Y-124952589D01*
X71560500Y-124947837D01*
X71560500Y-123610000D01*
X71560499Y-122273577D01*
X71560499Y-122272164D01*
X71560226Y-122267411D01*
X71559284Y-122263330D01*
X71559283Y-122263324D01*
X71521071Y-122097810D01*
X71521070Y-122097807D01*
X71519827Y-122092423D01*
X71441664Y-121930734D01*
X71434931Y-121922299D01*
X71333079Y-121794713D01*
X71329620Y-121790380D01*
X71189266Y-121678336D01*
X71172759Y-121670356D01*
X71032554Y-121602579D01*
X71027577Y-121600173D01*
X71022193Y-121598930D01*
X71022190Y-121598929D01*
X70935955Y-121579021D01*
X70852589Y-121559774D01*
X70847837Y-121559500D01*
X70846414Y-121559500D01*
X69505283Y-121559501D01*
X68172164Y-121559501D01*
X68167411Y-121559774D01*
X68163330Y-121560716D01*
X68163324Y-121560717D01*
X67997810Y-121598929D01*
X67997807Y-121598930D01*
X67992423Y-121600173D01*
X67987446Y-121602579D01*
X67847242Y-121670356D01*
X67830734Y-121678336D01*
X67690380Y-121790380D01*
X67686921Y-121794713D01*
X67585070Y-121922299D01*
X67578336Y-121930734D01*
X67500173Y-122092423D01*
X67459774Y-122267411D01*
X67459500Y-122272163D01*
X67459500Y-122273586D01*
X65198079Y-122273586D01*
X65201108Y-122267640D01*
X65194737Y-122260749D01*
X65139176Y-122226700D01*
X65132270Y-122223181D01*
X64914048Y-122132791D01*
X64906680Y-122130397D01*
X64676996Y-122075255D01*
X64669353Y-122074044D01*
X64433875Y-122055512D01*
X64426125Y-122055512D01*
X64190647Y-122074044D01*
X64183004Y-122075255D01*
X63953320Y-122130397D01*
X63945952Y-122132791D01*
X63727730Y-122223181D01*
X63720824Y-122226700D01*
X63666957Y-122259711D01*
X63658684Y-122269397D01*
X60903432Y-122269397D01*
X60759238Y-122114226D01*
X60756944Y-122111757D01*
X60733323Y-122092423D01*
X60543204Y-121936814D01*
X60540591Y-121934675D01*
X60302208Y-121788594D01*
X60298397Y-121786921D01*
X60049288Y-121677569D01*
X60049284Y-121677567D01*
X60046205Y-121676216D01*
X59996917Y-121662176D01*
X59780571Y-121600548D01*
X59780566Y-121600547D01*
X59777319Y-121599622D01*
X59500526Y-121560229D01*
X59497159Y-121560211D01*
X59497154Y-121560211D01*
X59372187Y-121559557D01*
X59220947Y-121558765D01*
X58943757Y-121595257D01*
X58940506Y-121596146D01*
X58940503Y-121596147D01*
X58916992Y-121602579D01*
X58674083Y-121669032D01*
X58416917Y-121778722D01*
X58414018Y-121780457D01*
X58402683Y-121787241D01*
X58177018Y-121922299D01*
X57958823Y-122097106D01*
X57956499Y-122099555D01*
X57787557Y-122277583D01*
X57766371Y-122299908D01*
X57764406Y-122302643D01*
X57764404Y-122302645D01*
X57752421Y-122319322D01*
X57603223Y-122526952D01*
X57472398Y-122774038D01*
X57376317Y-123036592D01*
X57316757Y-123309757D01*
X57294822Y-123588477D01*
X56317833Y-123588477D01*
X56310470Y-104043923D01*
X56306131Y-92525053D01*
X59280042Y-92525053D01*
X59293535Y-92759071D01*
X59294427Y-92763028D01*
X59315886Y-92858247D01*
X59345069Y-92987743D01*
X59346598Y-92991507D01*
X59346599Y-92991512D01*
X59386673Y-93090202D01*
X59433259Y-93204928D01*
X59435383Y-93208394D01*
X59435385Y-93208398D01*
X59491521Y-93300003D01*
X59555736Y-93404793D01*
X59558395Y-93407863D01*
X59558396Y-93407864D01*
X59629481Y-93489927D01*
X59709212Y-93581971D01*
X59889565Y-93731703D01*
X60091951Y-93849968D01*
X60310935Y-93933590D01*
X60314910Y-93934399D01*
X60314911Y-93934399D01*
X60536654Y-93979513D01*
X60536658Y-93979513D01*
X60540637Y-93980323D01*
X60544697Y-93980472D01*
X60544698Y-93980472D01*
X60585311Y-93981961D01*
X60774887Y-93988913D01*
X60778906Y-93988398D01*
X60778910Y-93988398D01*
X61003362Y-93959645D01*
X61003368Y-93959644D01*
X61007394Y-93959128D01*
X61011287Y-93957960D01*
X61011292Y-93957959D01*
X61170542Y-93910181D01*
X61231914Y-93891768D01*
X61342707Y-93837491D01*
X61438771Y-93790430D01*
X61438774Y-93790428D01*
X61442418Y-93788643D01*
X61633253Y-93652522D01*
X61799293Y-93487061D01*
X61873616Y-93383630D01*
X61877960Y-93377585D01*
X61927271Y-93341363D01*
X61988456Y-93341043D01*
X62038143Y-93376747D01*
X62042761Y-93383619D01*
X62055736Y-93404793D01*
X62058395Y-93407863D01*
X62058396Y-93407864D01*
X62129481Y-93489927D01*
X62209212Y-93581971D01*
X62389565Y-93731703D01*
X62591951Y-93849968D01*
X62810935Y-93933590D01*
X62814910Y-93934399D01*
X62814911Y-93934399D01*
X63036654Y-93979513D01*
X63036658Y-93979513D01*
X63040637Y-93980323D01*
X63044697Y-93980472D01*
X63044698Y-93980472D01*
X63085311Y-93981961D01*
X63274887Y-93988913D01*
X63278906Y-93988398D01*
X63278910Y-93988398D01*
X63503362Y-93959645D01*
X63503368Y-93959644D01*
X63507394Y-93959128D01*
X63511287Y-93957960D01*
X63511292Y-93957959D01*
X63670542Y-93910181D01*
X63731914Y-93891768D01*
X63842707Y-93837491D01*
X63938771Y-93790430D01*
X63938774Y-93790428D01*
X63942418Y-93788643D01*
X64133253Y-93652522D01*
X64299293Y-93487061D01*
X64373616Y-93383630D01*
X64377960Y-93377585D01*
X64427271Y-93341363D01*
X64488456Y-93341043D01*
X64538143Y-93376747D01*
X64542761Y-93383619D01*
X64555736Y-93404793D01*
X64558395Y-93407863D01*
X64558396Y-93407864D01*
X64629481Y-93489927D01*
X64709212Y-93581971D01*
X64889565Y-93731703D01*
X65091951Y-93849968D01*
X65310935Y-93933590D01*
X65314910Y-93934399D01*
X65314911Y-93934399D01*
X65536654Y-93979513D01*
X65536658Y-93979513D01*
X65540637Y-93980323D01*
X65544697Y-93980472D01*
X65544698Y-93980472D01*
X65585311Y-93981961D01*
X65774887Y-93988913D01*
X65778906Y-93988398D01*
X65778910Y-93988398D01*
X66003362Y-93959645D01*
X66003368Y-93959644D01*
X66007394Y-93959128D01*
X66011287Y-93957960D01*
X66011292Y-93957959D01*
X66170542Y-93910181D01*
X66231914Y-93891768D01*
X66342707Y-93837491D01*
X66438771Y-93790430D01*
X66438774Y-93790428D01*
X66442418Y-93788643D01*
X66633253Y-93652522D01*
X66799293Y-93487061D01*
X66873616Y-93383630D01*
X66877960Y-93377585D01*
X66927271Y-93341363D01*
X66988456Y-93341043D01*
X67038143Y-93376747D01*
X67042761Y-93383619D01*
X67055736Y-93404793D01*
X67058395Y-93407863D01*
X67058396Y-93407864D01*
X67129481Y-93489927D01*
X67209212Y-93581971D01*
X67389565Y-93731703D01*
X67591951Y-93849968D01*
X67810935Y-93933590D01*
X67814910Y-93934399D01*
X67814911Y-93934399D01*
X68036654Y-93979513D01*
X68036658Y-93979513D01*
X68040637Y-93980323D01*
X68044697Y-93980472D01*
X68044698Y-93980472D01*
X68085311Y-93981961D01*
X68274887Y-93988913D01*
X68278906Y-93988398D01*
X68278910Y-93988398D01*
X68503362Y-93959645D01*
X68503368Y-93959644D01*
X68507394Y-93959128D01*
X68511287Y-93957960D01*
X68511292Y-93957959D01*
X68670542Y-93910181D01*
X68731914Y-93891768D01*
X68842707Y-93837491D01*
X68938771Y-93790430D01*
X68938774Y-93790428D01*
X68942418Y-93788643D01*
X69133253Y-93652522D01*
X69299293Y-93487061D01*
X69373616Y-93383630D01*
X69433708Y-93300003D01*
X69433709Y-93300001D01*
X69436079Y-93296703D01*
X69437877Y-93293065D01*
X69437880Y-93293060D01*
X69538138Y-93090202D01*
X69539938Y-93086560D01*
X69541116Y-93082684D01*
X69541118Y-93082678D01*
X69606901Y-92866160D01*
X69606901Y-92866159D01*
X69608081Y-92862276D01*
X69638677Y-92629874D01*
X69640385Y-92560000D01*
X69621178Y-92326381D01*
X69612536Y-92291973D01*
X69565064Y-92102982D01*
X69564073Y-92099036D01*
X69470603Y-91884070D01*
X69343279Y-91687258D01*
X69185520Y-91513883D01*
X69182334Y-91511367D01*
X69182331Y-91511364D01*
X69004751Y-91371119D01*
X69004745Y-91371115D01*
X69001563Y-91368602D01*
X68796348Y-91255317D01*
X68792517Y-91253960D01*
X68792514Y-91253959D01*
X68579222Y-91178428D01*
X68579218Y-91178427D01*
X68575386Y-91177070D01*
X68472192Y-91158688D01*
X68418220Y-91129870D01*
X68391494Y-91074830D01*
X68402223Y-91014593D01*
X68446310Y-90972167D01*
X68476974Y-90963026D01*
X68503351Y-90959647D01*
X68503364Y-90959644D01*
X68507394Y-90959128D01*
X68511287Y-90957960D01*
X68511292Y-90957959D01*
X68670542Y-90910181D01*
X68731914Y-90891768D01*
X68842707Y-90837491D01*
X68938771Y-90790430D01*
X68938774Y-90790428D01*
X68942418Y-90788643D01*
X69133253Y-90652522D01*
X69299293Y-90487061D01*
X69373616Y-90383630D01*
X69433708Y-90300003D01*
X69433709Y-90300001D01*
X69436079Y-90296703D01*
X69437877Y-90293065D01*
X69437880Y-90293060D01*
X69538138Y-90090202D01*
X69539938Y-90086560D01*
X69541116Y-90082684D01*
X69541118Y-90082678D01*
X69606901Y-89866160D01*
X69606901Y-89866159D01*
X69608081Y-89862276D01*
X69638677Y-89629874D01*
X69640385Y-89560000D01*
X69621178Y-89326381D01*
X69612536Y-89291973D01*
X69565064Y-89102982D01*
X69564073Y-89099036D01*
X69470603Y-88884070D01*
X69343279Y-88687258D01*
X69185520Y-88513883D01*
X69182334Y-88511367D01*
X69182331Y-88511364D01*
X69004751Y-88371119D01*
X69004745Y-88371115D01*
X69001563Y-88368602D01*
X68796348Y-88255317D01*
X68792517Y-88253960D01*
X68792514Y-88253959D01*
X68579222Y-88178428D01*
X68579218Y-88178427D01*
X68575386Y-88177070D01*
X68436955Y-88152412D01*
X68382982Y-88123593D01*
X68356256Y-88068553D01*
X68366985Y-88008316D01*
X68411072Y-87965890D01*
X68433733Y-87958109D01*
X68492341Y-87945651D01*
X68502153Y-87942463D01*
X68504869Y-87941254D01*
X68512616Y-87934279D01*
X68507164Y-87922849D01*
X68221088Y-87636774D01*
X68209202Y-87630718D01*
X68204171Y-87631514D01*
X67911897Y-87923788D01*
X67907163Y-87933079D01*
X67916349Y-87941796D01*
X67917847Y-87942463D01*
X67927657Y-87945651D01*
X67986591Y-87958178D01*
X68039579Y-87988771D01*
X68064465Y-88044667D01*
X68051743Y-88104515D01*
X68006273Y-88145456D01*
X67980985Y-88152875D01*
X67878511Y-88168556D01*
X67758379Y-88207821D01*
X67659561Y-88240120D01*
X67659557Y-88240121D01*
X67655704Y-88241381D01*
X67652104Y-88243255D01*
X67451387Y-88347741D01*
X67451384Y-88347743D01*
X67447782Y-88349618D01*
X67444540Y-88352053D01*
X67444534Y-88352056D01*
X67419145Y-88371119D01*
X67260330Y-88490361D01*
X67098382Y-88659830D01*
X67096090Y-88663190D01*
X67042312Y-88742025D01*
X66993900Y-88779442D01*
X66932742Y-88781257D01*
X66882197Y-88746777D01*
X66877418Y-88740028D01*
X66843279Y-88687258D01*
X66685520Y-88513883D01*
X66682334Y-88511367D01*
X66682331Y-88511364D01*
X66504751Y-88371119D01*
X66504745Y-88371115D01*
X66501563Y-88368602D01*
X66296348Y-88255317D01*
X66292517Y-88253960D01*
X66292514Y-88253959D01*
X66079222Y-88178428D01*
X66079218Y-88178427D01*
X66075386Y-88177070D01*
X65936955Y-88152412D01*
X65882982Y-88123593D01*
X65856256Y-88068553D01*
X65866985Y-88008316D01*
X65911072Y-87965890D01*
X65933733Y-87958109D01*
X65992341Y-87945651D01*
X66002153Y-87942463D01*
X66004869Y-87941254D01*
X66012616Y-87934279D01*
X66007164Y-87922849D01*
X65721088Y-87636774D01*
X65709202Y-87630718D01*
X65704171Y-87631514D01*
X65411897Y-87923788D01*
X65407163Y-87933079D01*
X65416349Y-87941796D01*
X65417847Y-87942463D01*
X65427657Y-87945651D01*
X65486591Y-87958178D01*
X65539579Y-87988771D01*
X65564465Y-88044667D01*
X65551743Y-88104515D01*
X65506273Y-88145456D01*
X65480985Y-88152875D01*
X65378511Y-88168556D01*
X65258379Y-88207821D01*
X65159561Y-88240120D01*
X65159557Y-88240121D01*
X65155704Y-88241381D01*
X65152104Y-88243255D01*
X64951387Y-88347741D01*
X64951384Y-88347743D01*
X64947782Y-88349618D01*
X64944540Y-88352053D01*
X64944534Y-88352056D01*
X64919145Y-88371119D01*
X64760330Y-88490361D01*
X64598382Y-88659830D01*
X64596090Y-88663190D01*
X64542312Y-88742025D01*
X64493900Y-88779442D01*
X64432742Y-88781257D01*
X64382197Y-88746777D01*
X64377418Y-88740028D01*
X64343279Y-88687258D01*
X64185520Y-88513883D01*
X64182334Y-88511367D01*
X64182331Y-88511364D01*
X64004751Y-88371119D01*
X64004745Y-88371115D01*
X64001563Y-88368602D01*
X63796348Y-88255317D01*
X63792517Y-88253960D01*
X63792514Y-88253959D01*
X63579222Y-88178428D01*
X63579218Y-88178427D01*
X63575386Y-88177070D01*
X63436955Y-88152412D01*
X63382982Y-88123593D01*
X63356256Y-88068553D01*
X63366985Y-88008316D01*
X63411072Y-87965890D01*
X63433733Y-87958109D01*
X63492341Y-87945651D01*
X63502153Y-87942463D01*
X63504869Y-87941254D01*
X63512616Y-87934279D01*
X63507164Y-87922849D01*
X63221088Y-87636774D01*
X63209202Y-87630718D01*
X63204171Y-87631514D01*
X62911897Y-87923788D01*
X62907163Y-87933079D01*
X62916349Y-87941796D01*
X62917847Y-87942463D01*
X62927657Y-87945651D01*
X62986591Y-87958178D01*
X63039579Y-87988771D01*
X63064465Y-88044667D01*
X63051743Y-88104515D01*
X63006273Y-88145456D01*
X62980985Y-88152875D01*
X62878511Y-88168556D01*
X62758379Y-88207821D01*
X62659561Y-88240120D01*
X62659557Y-88240121D01*
X62655704Y-88241381D01*
X62652104Y-88243255D01*
X62451387Y-88347741D01*
X62451384Y-88347743D01*
X62447782Y-88349618D01*
X62444540Y-88352053D01*
X62444534Y-88352056D01*
X62419145Y-88371119D01*
X62260330Y-88490361D01*
X62098382Y-88659830D01*
X62096090Y-88663190D01*
X62042312Y-88742025D01*
X61993900Y-88779442D01*
X61932742Y-88781257D01*
X61882197Y-88746777D01*
X61877418Y-88740028D01*
X61843279Y-88687258D01*
X61685520Y-88513883D01*
X61682334Y-88511367D01*
X61682331Y-88511364D01*
X61504751Y-88371119D01*
X61504745Y-88371115D01*
X61501563Y-88368602D01*
X61296348Y-88255317D01*
X61292517Y-88253960D01*
X61292514Y-88253959D01*
X61079222Y-88178428D01*
X61079218Y-88178427D01*
X61075386Y-88177070D01*
X60936955Y-88152412D01*
X60882982Y-88123593D01*
X60856256Y-88068553D01*
X60866985Y-88008316D01*
X60911072Y-87965890D01*
X60933733Y-87958109D01*
X60992341Y-87945651D01*
X61002153Y-87942463D01*
X61004869Y-87941254D01*
X61012616Y-87934279D01*
X61007164Y-87922849D01*
X60721088Y-87636774D01*
X60709202Y-87630718D01*
X60704171Y-87631514D01*
X60411897Y-87923788D01*
X60407163Y-87933079D01*
X60416349Y-87941796D01*
X60417847Y-87942463D01*
X60427657Y-87945651D01*
X60486591Y-87958178D01*
X60539579Y-87988771D01*
X60564465Y-88044667D01*
X60551743Y-88104515D01*
X60506273Y-88145456D01*
X60480985Y-88152875D01*
X60378511Y-88168556D01*
X60258379Y-88207821D01*
X60159561Y-88240120D01*
X60159557Y-88240121D01*
X60155704Y-88241381D01*
X60152104Y-88243255D01*
X59951387Y-88347741D01*
X59951384Y-88347743D01*
X59947782Y-88349618D01*
X59944540Y-88352053D01*
X59944534Y-88352056D01*
X59919145Y-88371119D01*
X59760330Y-88490361D01*
X59598382Y-88659830D01*
X59466287Y-88853473D01*
X59367594Y-89066091D01*
X59304951Y-89291973D01*
X59280042Y-89525053D01*
X59293535Y-89759071D01*
X59294427Y-89763028D01*
X59315886Y-89858247D01*
X59345069Y-89987743D01*
X59346598Y-89991507D01*
X59346599Y-89991512D01*
X59386673Y-90090202D01*
X59433259Y-90204928D01*
X59435383Y-90208394D01*
X59435385Y-90208398D01*
X59491521Y-90300003D01*
X59555736Y-90404793D01*
X59558395Y-90407863D01*
X59558396Y-90407864D01*
X59629481Y-90489927D01*
X59709212Y-90581971D01*
X59889565Y-90731703D01*
X60091951Y-90849968D01*
X60310935Y-90933590D01*
X60454457Y-90962790D01*
X60507709Y-90992918D01*
X60533083Y-91048594D01*
X60520884Y-91108552D01*
X60475774Y-91149888D01*
X60449694Y-91157663D01*
X60402923Y-91164820D01*
X60378511Y-91168556D01*
X60258379Y-91207821D01*
X60159561Y-91240120D01*
X60159557Y-91240121D01*
X60155704Y-91241381D01*
X60152104Y-91243255D01*
X59951387Y-91347741D01*
X59951384Y-91347743D01*
X59947782Y-91349618D01*
X59944540Y-91352053D01*
X59944534Y-91352056D01*
X59919145Y-91371119D01*
X59760330Y-91490361D01*
X59598382Y-91659830D01*
X59466287Y-91853473D01*
X59367594Y-92066091D01*
X59304951Y-92291973D01*
X59280042Y-92525053D01*
X56306131Y-92525053D01*
X56304074Y-87065157D01*
X59780447Y-87065157D01*
X59799688Y-87248220D01*
X59801832Y-87258310D01*
X59832344Y-87352212D01*
X59839040Y-87361429D01*
X59844736Y-87359578D01*
X60133228Y-87071086D01*
X60138470Y-87060797D01*
X61280718Y-87060797D01*
X61281514Y-87065828D01*
X61571725Y-87356039D01*
X61581873Y-87361210D01*
X61586109Y-87356974D01*
X61618168Y-87258310D01*
X61620312Y-87248220D01*
X61639553Y-87065157D01*
X62280447Y-87065157D01*
X62299688Y-87248220D01*
X62301832Y-87258310D01*
X62332344Y-87352212D01*
X62339040Y-87361429D01*
X62344736Y-87359578D01*
X62633228Y-87071086D01*
X62638470Y-87060797D01*
X63780718Y-87060797D01*
X63781514Y-87065828D01*
X64071725Y-87356039D01*
X64081873Y-87361210D01*
X64086109Y-87356974D01*
X64118168Y-87258310D01*
X64120312Y-87248220D01*
X64139553Y-87065157D01*
X64780447Y-87065157D01*
X64799688Y-87248220D01*
X64801832Y-87258310D01*
X64832344Y-87352212D01*
X64839040Y-87361429D01*
X64844736Y-87359578D01*
X65133228Y-87071086D01*
X65138470Y-87060797D01*
X66280718Y-87060797D01*
X66281514Y-87065828D01*
X66571725Y-87356039D01*
X66581873Y-87361210D01*
X66586109Y-87356974D01*
X66618168Y-87258310D01*
X66620312Y-87248220D01*
X66639553Y-87065157D01*
X67280447Y-87065157D01*
X67299688Y-87248220D01*
X67301832Y-87258310D01*
X67332344Y-87352212D01*
X67339040Y-87361429D01*
X67344736Y-87359578D01*
X67633228Y-87071086D01*
X67638470Y-87060797D01*
X68780718Y-87060797D01*
X68781514Y-87065828D01*
X69071725Y-87356039D01*
X69081873Y-87361210D01*
X69086109Y-87356974D01*
X69118168Y-87258310D01*
X69120312Y-87248220D01*
X69139553Y-87065157D01*
X69139553Y-87054843D01*
X69120312Y-86871780D01*
X69118168Y-86861690D01*
X69087656Y-86767788D01*
X69080960Y-86758571D01*
X69075264Y-86760422D01*
X68786772Y-87048914D01*
X68780718Y-87060797D01*
X67638470Y-87060797D01*
X67639282Y-87059203D01*
X67638486Y-87054172D01*
X67348275Y-86763961D01*
X67338127Y-86758790D01*
X67333891Y-86763026D01*
X67301832Y-86861690D01*
X67299688Y-86871780D01*
X67280447Y-87054843D01*
X67280447Y-87065157D01*
X66639553Y-87065157D01*
X66639553Y-87054843D01*
X66620312Y-86871780D01*
X66618168Y-86861690D01*
X66587656Y-86767788D01*
X66580960Y-86758571D01*
X66575264Y-86760422D01*
X66286772Y-87048914D01*
X66280718Y-87060797D01*
X65138470Y-87060797D01*
X65139282Y-87059203D01*
X65138486Y-87054172D01*
X64848275Y-86763961D01*
X64838127Y-86758790D01*
X64833891Y-86763026D01*
X64801832Y-86861690D01*
X64799688Y-86871780D01*
X64780447Y-87054843D01*
X64780447Y-87065157D01*
X64139553Y-87065157D01*
X64139553Y-87054843D01*
X64120312Y-86871780D01*
X64118168Y-86861690D01*
X64087656Y-86767788D01*
X64080960Y-86758571D01*
X64075264Y-86760422D01*
X63786772Y-87048914D01*
X63780718Y-87060797D01*
X62638470Y-87060797D01*
X62639282Y-87059203D01*
X62638486Y-87054172D01*
X62348275Y-86763961D01*
X62338127Y-86758790D01*
X62333891Y-86763026D01*
X62301832Y-86861690D01*
X62299688Y-86871780D01*
X62280447Y-87054843D01*
X62280447Y-87065157D01*
X61639553Y-87065157D01*
X61639553Y-87054843D01*
X61620312Y-86871780D01*
X61618168Y-86861690D01*
X61587656Y-86767788D01*
X61580960Y-86758571D01*
X61575264Y-86760422D01*
X61286772Y-87048914D01*
X61280718Y-87060797D01*
X60138470Y-87060797D01*
X60139282Y-87059203D01*
X60138486Y-87054172D01*
X59848275Y-86763961D01*
X59838127Y-86758790D01*
X59833891Y-86763026D01*
X59801832Y-86861690D01*
X59799688Y-86871780D01*
X59780447Y-87054843D01*
X59780447Y-87065157D01*
X56304074Y-87065157D01*
X56303743Y-86185721D01*
X60407384Y-86185721D01*
X60412836Y-86197151D01*
X60698912Y-86483226D01*
X60710798Y-86489282D01*
X60715829Y-86488486D01*
X61008103Y-86196212D01*
X61012837Y-86186921D01*
X61011572Y-86185721D01*
X62907384Y-86185721D01*
X62912836Y-86197151D01*
X63198912Y-86483226D01*
X63210798Y-86489282D01*
X63215829Y-86488486D01*
X63508103Y-86196212D01*
X63512837Y-86186921D01*
X63511572Y-86185721D01*
X65407384Y-86185721D01*
X65412836Y-86197151D01*
X65698912Y-86483226D01*
X65710798Y-86489282D01*
X65715829Y-86488486D01*
X66008103Y-86196212D01*
X66012837Y-86186921D01*
X66011572Y-86185721D01*
X67907384Y-86185721D01*
X67912836Y-86197151D01*
X68198912Y-86483226D01*
X68210798Y-86489282D01*
X68215829Y-86488486D01*
X68508103Y-86196212D01*
X68512837Y-86186921D01*
X68503651Y-86178204D01*
X68502153Y-86177537D01*
X68492341Y-86174349D01*
X68312295Y-86136079D01*
X68302032Y-86135000D01*
X68117968Y-86135000D01*
X68107705Y-86136079D01*
X67927659Y-86174349D01*
X67917847Y-86177537D01*
X67915131Y-86178746D01*
X67907384Y-86185721D01*
X66011572Y-86185721D01*
X66003651Y-86178204D01*
X66002153Y-86177537D01*
X65992341Y-86174349D01*
X65812295Y-86136079D01*
X65802032Y-86135000D01*
X65617968Y-86135000D01*
X65607705Y-86136079D01*
X65427659Y-86174349D01*
X65417847Y-86177537D01*
X65415131Y-86178746D01*
X65407384Y-86185721D01*
X63511572Y-86185721D01*
X63503651Y-86178204D01*
X63502153Y-86177537D01*
X63492341Y-86174349D01*
X63312295Y-86136079D01*
X63302032Y-86135000D01*
X63117968Y-86135000D01*
X63107705Y-86136079D01*
X62927659Y-86174349D01*
X62917847Y-86177537D01*
X62915131Y-86178746D01*
X62907384Y-86185721D01*
X61011572Y-86185721D01*
X61003651Y-86178204D01*
X61002153Y-86177537D01*
X60992341Y-86174349D01*
X60812295Y-86136079D01*
X60802032Y-86135000D01*
X60617968Y-86135000D01*
X60607705Y-86136079D01*
X60427659Y-86174349D01*
X60417847Y-86177537D01*
X60415131Y-86178746D01*
X60407384Y-86185721D01*
X56303743Y-86185721D01*
X56303271Y-84933079D01*
X60407163Y-84933079D01*
X60416349Y-84941796D01*
X60417847Y-84942463D01*
X60427659Y-84945651D01*
X60607705Y-84983921D01*
X60617968Y-84985000D01*
X60802032Y-84985000D01*
X60812295Y-84983921D01*
X60992341Y-84945651D01*
X61002153Y-84942463D01*
X61004869Y-84941254D01*
X61012616Y-84934279D01*
X61012044Y-84933079D01*
X62907163Y-84933079D01*
X62916349Y-84941796D01*
X62917847Y-84942463D01*
X62927659Y-84945651D01*
X63107705Y-84983921D01*
X63117968Y-84985000D01*
X63302032Y-84985000D01*
X63312295Y-84983921D01*
X63492341Y-84945651D01*
X63502153Y-84942463D01*
X63504869Y-84941254D01*
X63512616Y-84934279D01*
X63512044Y-84933079D01*
X65407163Y-84933079D01*
X65416349Y-84941796D01*
X65417847Y-84942463D01*
X65427659Y-84945651D01*
X65607705Y-84983921D01*
X65617968Y-84985000D01*
X65802032Y-84985000D01*
X65812295Y-84983921D01*
X65992341Y-84945651D01*
X66002153Y-84942463D01*
X66004869Y-84941254D01*
X66012616Y-84934279D01*
X66012044Y-84933079D01*
X67907163Y-84933079D01*
X67916349Y-84941796D01*
X67917847Y-84942463D01*
X67927659Y-84945651D01*
X68107705Y-84983921D01*
X68117968Y-84985000D01*
X68302032Y-84985000D01*
X68312295Y-84983921D01*
X68492341Y-84945651D01*
X68502153Y-84942463D01*
X68504869Y-84941254D01*
X68512616Y-84934279D01*
X68507164Y-84922849D01*
X68221088Y-84636774D01*
X68209202Y-84630718D01*
X68204171Y-84631514D01*
X67911897Y-84923788D01*
X67907163Y-84933079D01*
X66012044Y-84933079D01*
X66007164Y-84922849D01*
X65721088Y-84636774D01*
X65709202Y-84630718D01*
X65704171Y-84631514D01*
X65411897Y-84923788D01*
X65407163Y-84933079D01*
X63512044Y-84933079D01*
X63507164Y-84922849D01*
X63221088Y-84636774D01*
X63209202Y-84630718D01*
X63204171Y-84631514D01*
X62911897Y-84923788D01*
X62907163Y-84933079D01*
X61012044Y-84933079D01*
X61007164Y-84922849D01*
X60721088Y-84636774D01*
X60709202Y-84630718D01*
X60704171Y-84631514D01*
X60411897Y-84923788D01*
X60407163Y-84933079D01*
X56303271Y-84933079D01*
X56302944Y-84065157D01*
X59780447Y-84065157D01*
X59799688Y-84248220D01*
X59801832Y-84258310D01*
X59832344Y-84352212D01*
X59839040Y-84361429D01*
X59844736Y-84359578D01*
X60133228Y-84071086D01*
X60138470Y-84060797D01*
X61280718Y-84060797D01*
X61281514Y-84065828D01*
X61571725Y-84356039D01*
X61581873Y-84361210D01*
X61586109Y-84356974D01*
X61618168Y-84258310D01*
X61620312Y-84248220D01*
X61639553Y-84065157D01*
X62280447Y-84065157D01*
X62299688Y-84248220D01*
X62301832Y-84258310D01*
X62332344Y-84352212D01*
X62339040Y-84361429D01*
X62344736Y-84359578D01*
X62633228Y-84071086D01*
X62638470Y-84060797D01*
X63780718Y-84060797D01*
X63781514Y-84065828D01*
X64071725Y-84356039D01*
X64081873Y-84361210D01*
X64086109Y-84356974D01*
X64118168Y-84258310D01*
X64120312Y-84248220D01*
X64139553Y-84065157D01*
X64780447Y-84065157D01*
X64799688Y-84248220D01*
X64801832Y-84258310D01*
X64832344Y-84352212D01*
X64839040Y-84361429D01*
X64844736Y-84359578D01*
X65133228Y-84071086D01*
X65138470Y-84060797D01*
X66280718Y-84060797D01*
X66281514Y-84065828D01*
X66571725Y-84356039D01*
X66581873Y-84361210D01*
X66586109Y-84356974D01*
X66618168Y-84258310D01*
X66620312Y-84248220D01*
X66639553Y-84065157D01*
X67280447Y-84065157D01*
X67299688Y-84248220D01*
X67301832Y-84258310D01*
X67332344Y-84352212D01*
X67339040Y-84361429D01*
X67344736Y-84359578D01*
X67633228Y-84071086D01*
X67638470Y-84060797D01*
X68780718Y-84060797D01*
X68781514Y-84065828D01*
X69071725Y-84356039D01*
X69081873Y-84361210D01*
X69086109Y-84356974D01*
X69118168Y-84258310D01*
X69120312Y-84248220D01*
X69139553Y-84065157D01*
X69139553Y-84054843D01*
X69120312Y-83871780D01*
X69118168Y-83861690D01*
X69087656Y-83767788D01*
X69080960Y-83758571D01*
X69075264Y-83760422D01*
X68786772Y-84048914D01*
X68780718Y-84060797D01*
X67638470Y-84060797D01*
X67639282Y-84059203D01*
X67638486Y-84054172D01*
X67348275Y-83763961D01*
X67338127Y-83758790D01*
X67333891Y-83763026D01*
X67301832Y-83861690D01*
X67299688Y-83871780D01*
X67280447Y-84054843D01*
X67280447Y-84065157D01*
X66639553Y-84065157D01*
X66639553Y-84054843D01*
X66620312Y-83871780D01*
X66618168Y-83861690D01*
X66587656Y-83767788D01*
X66580960Y-83758571D01*
X66575264Y-83760422D01*
X66286772Y-84048914D01*
X66280718Y-84060797D01*
X65138470Y-84060797D01*
X65139282Y-84059203D01*
X65138486Y-84054172D01*
X64848275Y-83763961D01*
X64838127Y-83758790D01*
X64833891Y-83763026D01*
X64801832Y-83861690D01*
X64799688Y-83871780D01*
X64780447Y-84054843D01*
X64780447Y-84065157D01*
X64139553Y-84065157D01*
X64139553Y-84054843D01*
X64120312Y-83871780D01*
X64118168Y-83861690D01*
X64087656Y-83767788D01*
X64080960Y-83758571D01*
X64075264Y-83760422D01*
X63786772Y-84048914D01*
X63780718Y-84060797D01*
X62638470Y-84060797D01*
X62639282Y-84059203D01*
X62638486Y-84054172D01*
X62348275Y-83763961D01*
X62338127Y-83758790D01*
X62333891Y-83763026D01*
X62301832Y-83861690D01*
X62299688Y-83871780D01*
X62280447Y-84054843D01*
X62280447Y-84065157D01*
X61639553Y-84065157D01*
X61639553Y-84054843D01*
X61620312Y-83871780D01*
X61618168Y-83861690D01*
X61587656Y-83767788D01*
X61580960Y-83758571D01*
X61575264Y-83760422D01*
X61286772Y-84048914D01*
X61280718Y-84060797D01*
X60138470Y-84060797D01*
X60139282Y-84059203D01*
X60138486Y-84054172D01*
X59848275Y-83763961D01*
X59838127Y-83758790D01*
X59833891Y-83763026D01*
X59801832Y-83861690D01*
X59799688Y-83871780D01*
X59780447Y-84054843D01*
X59780447Y-84065157D01*
X56302944Y-84065157D01*
X56301987Y-81525053D01*
X59280042Y-81525053D01*
X59293535Y-81759071D01*
X59294427Y-81763028D01*
X59315886Y-81858247D01*
X59345069Y-81987743D01*
X59346598Y-81991507D01*
X59346599Y-81991512D01*
X59386673Y-82090202D01*
X59433259Y-82204928D01*
X59435383Y-82208394D01*
X59435385Y-82208398D01*
X59491521Y-82300003D01*
X59555736Y-82404793D01*
X59558395Y-82407863D01*
X59558396Y-82407864D01*
X59629481Y-82489927D01*
X59709212Y-82581971D01*
X59889565Y-82731703D01*
X60091951Y-82849968D01*
X60310935Y-82933590D01*
X60314910Y-82934399D01*
X60314911Y-82934399D01*
X60482901Y-82968577D01*
X60536155Y-82998707D01*
X60561528Y-83054383D01*
X60549329Y-83114340D01*
X60504219Y-83155676D01*
X60483747Y-83162427D01*
X60427659Y-83174349D01*
X60417847Y-83177537D01*
X60415131Y-83178746D01*
X60407384Y-83185721D01*
X60412836Y-83197151D01*
X60698912Y-83483226D01*
X60710798Y-83489282D01*
X60715829Y-83488486D01*
X61008103Y-83196212D01*
X61012837Y-83186921D01*
X61003651Y-83178204D01*
X61002153Y-83177537D01*
X60992341Y-83174348D01*
X60935738Y-83162317D01*
X60882750Y-83131724D01*
X60857863Y-83075828D01*
X60870585Y-83015980D01*
X60916054Y-82975039D01*
X60943742Y-82967282D01*
X61003362Y-82959645D01*
X61003368Y-82959644D01*
X61007394Y-82959128D01*
X61011287Y-82957960D01*
X61011292Y-82957959D01*
X61170542Y-82910181D01*
X61231914Y-82891768D01*
X61342707Y-82837491D01*
X61438771Y-82790430D01*
X61438774Y-82790428D01*
X61442418Y-82788643D01*
X61633253Y-82652522D01*
X61799293Y-82487061D01*
X61873616Y-82383630D01*
X61877960Y-82377585D01*
X61927271Y-82341363D01*
X61988456Y-82341043D01*
X62038143Y-82376747D01*
X62042761Y-82383619D01*
X62055736Y-82404793D01*
X62058395Y-82407863D01*
X62058396Y-82407864D01*
X62129481Y-82489927D01*
X62209212Y-82581971D01*
X62389565Y-82731703D01*
X62591951Y-82849968D01*
X62810935Y-82933590D01*
X62814910Y-82934399D01*
X62814911Y-82934399D01*
X62982901Y-82968577D01*
X63036155Y-82998707D01*
X63061528Y-83054383D01*
X63049329Y-83114340D01*
X63004219Y-83155676D01*
X62983747Y-83162427D01*
X62927659Y-83174349D01*
X62917847Y-83177537D01*
X62915131Y-83178746D01*
X62907384Y-83185721D01*
X62912836Y-83197151D01*
X63198912Y-83483226D01*
X63210798Y-83489282D01*
X63215829Y-83488486D01*
X63508103Y-83196212D01*
X63512837Y-83186921D01*
X63503651Y-83178204D01*
X63502153Y-83177537D01*
X63492341Y-83174348D01*
X63435738Y-83162317D01*
X63382750Y-83131724D01*
X63357863Y-83075828D01*
X63370585Y-83015980D01*
X63416054Y-82975039D01*
X63443742Y-82967282D01*
X63503362Y-82959645D01*
X63503368Y-82959644D01*
X63507394Y-82959128D01*
X63511287Y-82957960D01*
X63511292Y-82957959D01*
X63670542Y-82910181D01*
X63731914Y-82891768D01*
X63842707Y-82837491D01*
X63938771Y-82790430D01*
X63938774Y-82790428D01*
X63942418Y-82788643D01*
X64133253Y-82652522D01*
X64299293Y-82487061D01*
X64373616Y-82383630D01*
X64377960Y-82377585D01*
X64427271Y-82341363D01*
X64488456Y-82341043D01*
X64538143Y-82376747D01*
X64542761Y-82383619D01*
X64555736Y-82404793D01*
X64558395Y-82407863D01*
X64558396Y-82407864D01*
X64629481Y-82489927D01*
X64709212Y-82581971D01*
X64889565Y-82731703D01*
X65091951Y-82849968D01*
X65310935Y-82933590D01*
X65314910Y-82934399D01*
X65314911Y-82934399D01*
X65482901Y-82968577D01*
X65536155Y-82998707D01*
X65561528Y-83054383D01*
X65549329Y-83114340D01*
X65504219Y-83155676D01*
X65483747Y-83162427D01*
X65427659Y-83174349D01*
X65417847Y-83177537D01*
X65415131Y-83178746D01*
X65407384Y-83185721D01*
X65412836Y-83197151D01*
X65698912Y-83483226D01*
X65710798Y-83489282D01*
X65715829Y-83488486D01*
X66008103Y-83196212D01*
X66012837Y-83186921D01*
X66003651Y-83178204D01*
X66002153Y-83177537D01*
X65992341Y-83174348D01*
X65935738Y-83162317D01*
X65882750Y-83131724D01*
X65857863Y-83075828D01*
X65870585Y-83015980D01*
X65916054Y-82975039D01*
X65943742Y-82967282D01*
X66003362Y-82959645D01*
X66003368Y-82959644D01*
X66007394Y-82959128D01*
X66011287Y-82957960D01*
X66011292Y-82957959D01*
X66170542Y-82910181D01*
X66231914Y-82891768D01*
X66342707Y-82837491D01*
X66438771Y-82790430D01*
X66438774Y-82790428D01*
X66442418Y-82788643D01*
X66633253Y-82652522D01*
X66799293Y-82487061D01*
X66873616Y-82383630D01*
X66877960Y-82377585D01*
X66927271Y-82341363D01*
X66988456Y-82341043D01*
X67038143Y-82376747D01*
X67042761Y-82383619D01*
X67055736Y-82404793D01*
X67058395Y-82407863D01*
X67058396Y-82407864D01*
X67129481Y-82489927D01*
X67209212Y-82581971D01*
X67389565Y-82731703D01*
X67591951Y-82849968D01*
X67810935Y-82933590D01*
X67814910Y-82934399D01*
X67814911Y-82934399D01*
X67982901Y-82968577D01*
X68036155Y-82998707D01*
X68061528Y-83054383D01*
X68049329Y-83114340D01*
X68004219Y-83155676D01*
X67983747Y-83162427D01*
X67927659Y-83174349D01*
X67917847Y-83177537D01*
X67915131Y-83178746D01*
X67907384Y-83185721D01*
X67912836Y-83197151D01*
X68198912Y-83483226D01*
X68210798Y-83489282D01*
X68215829Y-83488486D01*
X68508103Y-83196212D01*
X68512837Y-83186921D01*
X68503651Y-83178204D01*
X68502153Y-83177537D01*
X68492341Y-83174348D01*
X68435738Y-83162317D01*
X68382750Y-83131724D01*
X68357863Y-83075828D01*
X68370585Y-83015980D01*
X68416054Y-82975039D01*
X68443742Y-82967282D01*
X68503362Y-82959645D01*
X68503368Y-82959644D01*
X68507394Y-82959128D01*
X68511287Y-82957960D01*
X68511292Y-82957959D01*
X68670542Y-82910181D01*
X68731914Y-82891768D01*
X68842707Y-82837491D01*
X68938771Y-82790430D01*
X68938774Y-82790428D01*
X68942418Y-82788643D01*
X69133253Y-82652522D01*
X69299293Y-82487061D01*
X69373616Y-82383630D01*
X69433708Y-82300003D01*
X69433709Y-82300001D01*
X69436079Y-82296703D01*
X69437877Y-82293065D01*
X69437880Y-82293060D01*
X69538138Y-82090202D01*
X69539938Y-82086560D01*
X69541116Y-82082684D01*
X69541118Y-82082678D01*
X69606901Y-81866160D01*
X69606901Y-81866159D01*
X69608081Y-81862276D01*
X69638677Y-81629874D01*
X69640385Y-81560000D01*
X69621178Y-81326381D01*
X69612536Y-81291973D01*
X69565064Y-81102982D01*
X69564073Y-81099036D01*
X69470603Y-80884070D01*
X69343279Y-80687258D01*
X69185520Y-80513883D01*
X69182334Y-80511367D01*
X69182331Y-80511364D01*
X69004751Y-80371119D01*
X69004745Y-80371115D01*
X69001563Y-80368602D01*
X68796348Y-80255317D01*
X68792517Y-80253960D01*
X68792514Y-80253959D01*
X68579222Y-80178428D01*
X68579218Y-80178427D01*
X68575386Y-80177070D01*
X68472192Y-80158688D01*
X68418220Y-80129870D01*
X68391494Y-80074830D01*
X68402223Y-80014593D01*
X68446310Y-79972167D01*
X68476974Y-79963026D01*
X68503351Y-79959647D01*
X68503364Y-79959644D01*
X68507394Y-79959128D01*
X68511287Y-79957960D01*
X68511292Y-79957959D01*
X68670542Y-79910181D01*
X68731914Y-79891768D01*
X68842707Y-79837491D01*
X68938771Y-79790430D01*
X68938774Y-79790428D01*
X68942418Y-79788643D01*
X69133253Y-79652522D01*
X69299293Y-79487061D01*
X69373616Y-79383630D01*
X69433708Y-79300003D01*
X69433709Y-79300001D01*
X69436079Y-79296703D01*
X69437877Y-79293065D01*
X69437880Y-79293060D01*
X69538138Y-79090202D01*
X69539938Y-79086560D01*
X69541116Y-79082684D01*
X69541118Y-79082678D01*
X69606901Y-78866160D01*
X69606901Y-78866159D01*
X69608081Y-78862276D01*
X69638677Y-78629874D01*
X69640385Y-78560000D01*
X69621178Y-78326381D01*
X69612536Y-78291973D01*
X69565064Y-78102982D01*
X69564073Y-78099036D01*
X69470603Y-77884070D01*
X69343279Y-77687258D01*
X69185520Y-77513883D01*
X69182334Y-77511367D01*
X69182331Y-77511364D01*
X69004751Y-77371119D01*
X69004745Y-77371115D01*
X69001563Y-77368602D01*
X68796348Y-77255317D01*
X68792517Y-77253960D01*
X68792514Y-77253959D01*
X68579222Y-77178428D01*
X68579218Y-77178427D01*
X68575386Y-77177070D01*
X68344611Y-77135963D01*
X68340565Y-77135914D01*
X68340559Y-77135913D01*
X68211260Y-77134334D01*
X68110221Y-77133099D01*
X67878511Y-77168556D01*
X67758379Y-77207821D01*
X67659561Y-77240120D01*
X67659557Y-77240121D01*
X67655704Y-77241381D01*
X67652104Y-77243255D01*
X67451387Y-77347741D01*
X67451384Y-77347743D01*
X67447782Y-77349618D01*
X67444540Y-77352053D01*
X67444534Y-77352056D01*
X67419145Y-77371119D01*
X67260330Y-77490361D01*
X67098382Y-77659830D01*
X67096090Y-77663190D01*
X67042312Y-77742025D01*
X66993900Y-77779442D01*
X66932742Y-77781257D01*
X66882197Y-77746777D01*
X66877418Y-77740028D01*
X66843279Y-77687258D01*
X66685520Y-77513883D01*
X66682334Y-77511367D01*
X66682331Y-77511364D01*
X66504751Y-77371119D01*
X66504745Y-77371115D01*
X66501563Y-77368602D01*
X66296348Y-77255317D01*
X66292517Y-77253960D01*
X66292514Y-77253959D01*
X66079222Y-77178428D01*
X66079218Y-77178427D01*
X66075386Y-77177070D01*
X65844611Y-77135963D01*
X65840565Y-77135914D01*
X65840559Y-77135913D01*
X65711260Y-77134334D01*
X65610221Y-77133099D01*
X65378511Y-77168556D01*
X65258379Y-77207821D01*
X65159561Y-77240120D01*
X65159557Y-77240121D01*
X65155704Y-77241381D01*
X65152104Y-77243255D01*
X64951387Y-77347741D01*
X64951384Y-77347743D01*
X64947782Y-77349618D01*
X64944540Y-77352053D01*
X64944534Y-77352056D01*
X64919145Y-77371119D01*
X64760330Y-77490361D01*
X64598382Y-77659830D01*
X64596090Y-77663190D01*
X64542312Y-77742025D01*
X64493900Y-77779442D01*
X64432742Y-77781257D01*
X64382197Y-77746777D01*
X64377418Y-77740028D01*
X64343279Y-77687258D01*
X64185520Y-77513883D01*
X64182334Y-77511367D01*
X64182331Y-77511364D01*
X64004751Y-77371119D01*
X64004745Y-77371115D01*
X64001563Y-77368602D01*
X63796348Y-77255317D01*
X63792517Y-77253960D01*
X63792514Y-77253959D01*
X63579222Y-77178428D01*
X63579218Y-77178427D01*
X63575386Y-77177070D01*
X63344611Y-77135963D01*
X63340565Y-77135914D01*
X63340559Y-77135913D01*
X63211260Y-77134334D01*
X63110221Y-77133099D01*
X62878511Y-77168556D01*
X62758379Y-77207821D01*
X62659561Y-77240120D01*
X62659557Y-77240121D01*
X62655704Y-77241381D01*
X62652104Y-77243255D01*
X62451387Y-77347741D01*
X62451384Y-77347743D01*
X62447782Y-77349618D01*
X62444540Y-77352053D01*
X62444534Y-77352056D01*
X62419145Y-77371119D01*
X62260330Y-77490361D01*
X62098382Y-77659830D01*
X62096090Y-77663190D01*
X62042312Y-77742025D01*
X61993900Y-77779442D01*
X61932742Y-77781257D01*
X61882197Y-77746777D01*
X61877418Y-77740028D01*
X61843279Y-77687258D01*
X61685520Y-77513883D01*
X61682334Y-77511367D01*
X61682331Y-77511364D01*
X61504751Y-77371119D01*
X61504745Y-77371115D01*
X61501563Y-77368602D01*
X61296348Y-77255317D01*
X61292517Y-77253960D01*
X61292514Y-77253959D01*
X61079222Y-77178428D01*
X61079218Y-77178427D01*
X61075386Y-77177070D01*
X60844611Y-77135963D01*
X60840565Y-77135914D01*
X60840559Y-77135913D01*
X60711260Y-77134334D01*
X60610221Y-77133099D01*
X60378511Y-77168556D01*
X60258379Y-77207821D01*
X60159561Y-77240120D01*
X60159557Y-77240121D01*
X60155704Y-77241381D01*
X60152104Y-77243255D01*
X59951387Y-77347741D01*
X59951384Y-77347743D01*
X59947782Y-77349618D01*
X59944540Y-77352053D01*
X59944534Y-77352056D01*
X59919145Y-77371119D01*
X59760330Y-77490361D01*
X59598382Y-77659830D01*
X59466287Y-77853473D01*
X59367594Y-78066091D01*
X59304951Y-78291973D01*
X59280042Y-78525053D01*
X59293535Y-78759071D01*
X59294427Y-78763028D01*
X59315886Y-78858247D01*
X59345069Y-78987743D01*
X59346598Y-78991507D01*
X59346599Y-78991512D01*
X59386673Y-79090202D01*
X59433259Y-79204928D01*
X59435383Y-79208394D01*
X59435385Y-79208398D01*
X59491521Y-79300003D01*
X59555736Y-79404793D01*
X59558395Y-79407863D01*
X59558396Y-79407864D01*
X59629481Y-79489927D01*
X59709212Y-79581971D01*
X59889565Y-79731703D01*
X60091951Y-79849968D01*
X60310935Y-79933590D01*
X60454457Y-79962790D01*
X60507709Y-79992918D01*
X60533083Y-80048594D01*
X60520884Y-80108552D01*
X60475774Y-80149888D01*
X60449694Y-80157663D01*
X60402923Y-80164820D01*
X60378511Y-80168556D01*
X60258379Y-80207821D01*
X60159561Y-80240120D01*
X60159557Y-80240121D01*
X60155704Y-80241381D01*
X60152104Y-80243255D01*
X59951387Y-80347741D01*
X59951384Y-80347743D01*
X59947782Y-80349618D01*
X59944540Y-80352053D01*
X59944534Y-80352056D01*
X59919145Y-80371119D01*
X59760330Y-80490361D01*
X59598382Y-80659830D01*
X59466287Y-80853473D01*
X59367594Y-81066091D01*
X59304951Y-81291973D01*
X59280042Y-81525053D01*
X56301987Y-81525053D01*
X56300037Y-76349036D01*
X56318922Y-76290839D01*
X56368409Y-76254857D01*
X56399037Y-76250000D01*
X72301260Y-76250000D01*
X72359451Y-76268907D01*
G37*
%TD.AperFunction*%
%TD*%
%TA.AperFunction,Conductor*%
%TO.N,/Phase_2_T3*%
G36*
X102522733Y-76278145D02*
G01*
X102580899Y-76297124D01*
X102616802Y-76346668D01*
X102621610Y-76376942D01*
X102729797Y-129220858D01*
X102711009Y-129279088D01*
X102661582Y-129315153D01*
X102630859Y-129320061D01*
X97334046Y-129323314D01*
X86548970Y-129329939D01*
X86490767Y-129311067D01*
X86454773Y-129261590D01*
X86449909Y-129231030D01*
X86446624Y-125642421D01*
X86444725Y-123568477D01*
X87459822Y-123568477D01*
X87460016Y-123571842D01*
X87460016Y-123571846D01*
X87463545Y-123633043D01*
X87475916Y-123847596D01*
X87529741Y-124121948D01*
X87530834Y-124125140D01*
X87610126Y-124356732D01*
X87620303Y-124386457D01*
X87745925Y-124636228D01*
X87904282Y-124866639D01*
X87906552Y-124869133D01*
X87906553Y-124869135D01*
X88004538Y-124976819D01*
X88092444Y-125073427D01*
X88306930Y-125252765D01*
X88543771Y-125401335D01*
X88546839Y-125402720D01*
X88546846Y-125402724D01*
X88712358Y-125477455D01*
X88798583Y-125516387D01*
X88801805Y-125517341D01*
X88801812Y-125517344D01*
X89016263Y-125580867D01*
X89066652Y-125595793D01*
X89069977Y-125596302D01*
X89069978Y-125596302D01*
X89339684Y-125637573D01*
X89339687Y-125637573D01*
X89343018Y-125638083D01*
X89346389Y-125638136D01*
X89346390Y-125638136D01*
X89394571Y-125638893D01*
X89622566Y-125642474D01*
X89625903Y-125642070D01*
X89625907Y-125642070D01*
X89896779Y-125609291D01*
X89896784Y-125609290D01*
X89900123Y-125608886D01*
X90170554Y-125537940D01*
X90336590Y-125469165D01*
X90425746Y-125432236D01*
X90425749Y-125432235D01*
X90428855Y-125430948D01*
X90431760Y-125429251D01*
X90431763Y-125429249D01*
X90667329Y-125291595D01*
X90670245Y-125289891D01*
X90890258Y-125117379D01*
X91069553Y-124932360D01*
X93823892Y-124932360D01*
X93830263Y-124939251D01*
X93885824Y-124973300D01*
X93892730Y-124976819D01*
X94110952Y-125067209D01*
X94118320Y-125069603D01*
X94348004Y-125124745D01*
X94355647Y-125125956D01*
X94591125Y-125144488D01*
X94598875Y-125144488D01*
X94834353Y-125125956D01*
X94841996Y-125124745D01*
X95071680Y-125069603D01*
X95079048Y-125067209D01*
X95297270Y-124976819D01*
X95304176Y-124973300D01*
X95358043Y-124940289D01*
X95366316Y-124930603D01*
X95361732Y-124922417D01*
X94606086Y-124166771D01*
X94594203Y-124160717D01*
X94589172Y-124161513D01*
X93829674Y-124921011D01*
X93823892Y-124932360D01*
X91069553Y-124932360D01*
X91084823Y-124916603D01*
X91121526Y-124866639D01*
X91151843Y-124825366D01*
X91250340Y-124691280D01*
X91281864Y-124633221D01*
X91382136Y-124448541D01*
X91383745Y-124445578D01*
X91421294Y-124346206D01*
X91481380Y-124187194D01*
X91481381Y-124187190D01*
X91482570Y-124184044D01*
X91509450Y-124066680D01*
X91544234Y-123914808D01*
X91544235Y-123914801D01*
X91544987Y-123911518D01*
X91569840Y-123633043D01*
X91570230Y-123595828D01*
X91570251Y-123593875D01*
X93040512Y-123593875D01*
X93059044Y-123829353D01*
X93060255Y-123836996D01*
X93115397Y-124066680D01*
X93117791Y-124074048D01*
X93208181Y-124292270D01*
X93211700Y-124299176D01*
X93244711Y-124353043D01*
X93254397Y-124361316D01*
X93262583Y-124356732D01*
X94018229Y-123601086D01*
X94023471Y-123590797D01*
X95165717Y-123590797D01*
X95166513Y-123595828D01*
X95926011Y-124355326D01*
X95937360Y-124361108D01*
X95944251Y-124354737D01*
X95978300Y-124299176D01*
X95981819Y-124292270D01*
X96072209Y-124074048D01*
X96074603Y-124066680D01*
X96129745Y-123836996D01*
X96130956Y-123829353D01*
X96149488Y-123593875D01*
X96149488Y-123586119D01*
X96130956Y-123350647D01*
X96129745Y-123343004D01*
X96074603Y-123113320D01*
X96072209Y-123105952D01*
X95981819Y-122887730D01*
X95978300Y-122880824D01*
X95945289Y-122826957D01*
X95935603Y-122818684D01*
X95927417Y-122823268D01*
X95171771Y-123578914D01*
X95165717Y-123590797D01*
X94023471Y-123590797D01*
X94024283Y-123589203D01*
X94023487Y-123584172D01*
X93263989Y-122824674D01*
X93252640Y-122818892D01*
X93245749Y-122825263D01*
X93211700Y-122880824D01*
X93208181Y-122887730D01*
X93117791Y-123105952D01*
X93115397Y-123113320D01*
X93060255Y-123343004D01*
X93059044Y-123350647D01*
X93040512Y-123586119D01*
X93040512Y-123593875D01*
X91570251Y-123593875D01*
X91570271Y-123591937D01*
X91570271Y-123591929D01*
X91570291Y-123590000D01*
X91551275Y-123311065D01*
X91494579Y-123037292D01*
X91401253Y-122773746D01*
X91389542Y-122751056D01*
X91274573Y-122528308D01*
X91274570Y-122528302D01*
X91273022Y-122525304D01*
X91112261Y-122296563D01*
X91094512Y-122277462D01*
X91068432Y-122249397D01*
X93823684Y-122249397D01*
X93828268Y-122257583D01*
X94583914Y-123013229D01*
X94595797Y-123019283D01*
X94600828Y-123018487D01*
X95360326Y-122258989D01*
X95363079Y-122253586D01*
X97624500Y-122253586D01*
X97624501Y-123590797D01*
X97624501Y-124927836D01*
X97624774Y-124932589D01*
X97625716Y-124936668D01*
X97625717Y-124936676D01*
X97657289Y-125073427D01*
X97665173Y-125107577D01*
X97743336Y-125269266D01*
X97855380Y-125409620D01*
X97859713Y-125413079D01*
X97989124Y-125516387D01*
X97995734Y-125521664D01*
X98157423Y-125599827D01*
X98162807Y-125601070D01*
X98162810Y-125601071D01*
X98249045Y-125620979D01*
X98332411Y-125640226D01*
X98337163Y-125640500D01*
X98338586Y-125640500D01*
X99679717Y-125640499D01*
X101012836Y-125640499D01*
X101017589Y-125640226D01*
X101021670Y-125639284D01*
X101021676Y-125639283D01*
X101187190Y-125601071D01*
X101187193Y-125601070D01*
X101192577Y-125599827D01*
X101354266Y-125521664D01*
X101360877Y-125516387D01*
X101490287Y-125413079D01*
X101494620Y-125409620D01*
X101606664Y-125269266D01*
X101684827Y-125107577D01*
X101725226Y-124932589D01*
X101725500Y-124927837D01*
X101725500Y-123590000D01*
X101725499Y-122253577D01*
X101725499Y-122252164D01*
X101725226Y-122247411D01*
X101724284Y-122243330D01*
X101724283Y-122243324D01*
X101686071Y-122077810D01*
X101686070Y-122077807D01*
X101684827Y-122072423D01*
X101606664Y-121910734D01*
X101599931Y-121902299D01*
X101498079Y-121774713D01*
X101494620Y-121770380D01*
X101354266Y-121658336D01*
X101337759Y-121650356D01*
X101197554Y-121582579D01*
X101192577Y-121580173D01*
X101187193Y-121578930D01*
X101187190Y-121578929D01*
X101100955Y-121559021D01*
X101017589Y-121539774D01*
X101012837Y-121539500D01*
X101011414Y-121539500D01*
X99670283Y-121539501D01*
X98337164Y-121539501D01*
X98332411Y-121539774D01*
X98328330Y-121540716D01*
X98328324Y-121540717D01*
X98162810Y-121578929D01*
X98162807Y-121578930D01*
X98157423Y-121580173D01*
X98152446Y-121582579D01*
X98012242Y-121650356D01*
X97995734Y-121658336D01*
X97855380Y-121770380D01*
X97851921Y-121774713D01*
X97750070Y-121902299D01*
X97743336Y-121910734D01*
X97665173Y-122072423D01*
X97624774Y-122247411D01*
X97624500Y-122252163D01*
X97624500Y-122253586D01*
X95363079Y-122253586D01*
X95366108Y-122247640D01*
X95359737Y-122240749D01*
X95304176Y-122206700D01*
X95297270Y-122203181D01*
X95079048Y-122112791D01*
X95071680Y-122110397D01*
X94841996Y-122055255D01*
X94834353Y-122054044D01*
X94598875Y-122035512D01*
X94591125Y-122035512D01*
X94355647Y-122054044D01*
X94348004Y-122055255D01*
X94118320Y-122110397D01*
X94110952Y-122112791D01*
X93892730Y-122203181D01*
X93885824Y-122206700D01*
X93831957Y-122239711D01*
X93823684Y-122249397D01*
X91068432Y-122249397D01*
X90924238Y-122094226D01*
X90921944Y-122091757D01*
X90898323Y-122072423D01*
X90708204Y-121916814D01*
X90705591Y-121914675D01*
X90467208Y-121768594D01*
X90463397Y-121766921D01*
X90214288Y-121657569D01*
X90214284Y-121657567D01*
X90211205Y-121656216D01*
X90161917Y-121642176D01*
X89945571Y-121580548D01*
X89945566Y-121580547D01*
X89942319Y-121579622D01*
X89665526Y-121540229D01*
X89662159Y-121540211D01*
X89662154Y-121540211D01*
X89537187Y-121539557D01*
X89385947Y-121538765D01*
X89108757Y-121575257D01*
X89105506Y-121576146D01*
X89105503Y-121576147D01*
X89081992Y-121582579D01*
X88839083Y-121649032D01*
X88581917Y-121758722D01*
X88579018Y-121760457D01*
X88567683Y-121767241D01*
X88342018Y-121902299D01*
X88123823Y-122077106D01*
X88121499Y-122079555D01*
X87952557Y-122257583D01*
X87931371Y-122279908D01*
X87929406Y-122282643D01*
X87929404Y-122282645D01*
X87917421Y-122299322D01*
X87768223Y-122506952D01*
X87637398Y-122754038D01*
X87541317Y-123016592D01*
X87481757Y-123289757D01*
X87459822Y-123568477D01*
X86444725Y-123568477D01*
X86416320Y-92545053D01*
X89390042Y-92545053D01*
X89403535Y-92779071D01*
X89404427Y-92783028D01*
X89425886Y-92878247D01*
X89455069Y-93007743D01*
X89456598Y-93011507D01*
X89456599Y-93011512D01*
X89496673Y-93110202D01*
X89543259Y-93224928D01*
X89545383Y-93228394D01*
X89545385Y-93228398D01*
X89601521Y-93320003D01*
X89665736Y-93424793D01*
X89668395Y-93427863D01*
X89668396Y-93427864D01*
X89739481Y-93509927D01*
X89819212Y-93601971D01*
X89999565Y-93751703D01*
X90201951Y-93869968D01*
X90420935Y-93953590D01*
X90424910Y-93954399D01*
X90424911Y-93954399D01*
X90646654Y-93999513D01*
X90646658Y-93999513D01*
X90650637Y-94000323D01*
X90654697Y-94000472D01*
X90654698Y-94000472D01*
X90695311Y-94001961D01*
X90884887Y-94008913D01*
X90888906Y-94008398D01*
X90888910Y-94008398D01*
X91113362Y-93979645D01*
X91113368Y-93979644D01*
X91117394Y-93979128D01*
X91121287Y-93977960D01*
X91121292Y-93977959D01*
X91280542Y-93930181D01*
X91341914Y-93911768D01*
X91452707Y-93857491D01*
X91548771Y-93810430D01*
X91548774Y-93810428D01*
X91552418Y-93808643D01*
X91743253Y-93672522D01*
X91909293Y-93507061D01*
X91983616Y-93403630D01*
X91987960Y-93397585D01*
X92037271Y-93361363D01*
X92098456Y-93361043D01*
X92148143Y-93396747D01*
X92152761Y-93403619D01*
X92165736Y-93424793D01*
X92168395Y-93427863D01*
X92168396Y-93427864D01*
X92239481Y-93509927D01*
X92319212Y-93601971D01*
X92499565Y-93751703D01*
X92701951Y-93869968D01*
X92920935Y-93953590D01*
X92924910Y-93954399D01*
X92924911Y-93954399D01*
X93146654Y-93999513D01*
X93146658Y-93999513D01*
X93150637Y-94000323D01*
X93154697Y-94000472D01*
X93154698Y-94000472D01*
X93195311Y-94001961D01*
X93384887Y-94008913D01*
X93388906Y-94008398D01*
X93388910Y-94008398D01*
X93613362Y-93979645D01*
X93613368Y-93979644D01*
X93617394Y-93979128D01*
X93621287Y-93977960D01*
X93621292Y-93977959D01*
X93780542Y-93930181D01*
X93841914Y-93911768D01*
X93952707Y-93857491D01*
X94048771Y-93810430D01*
X94048774Y-93810428D01*
X94052418Y-93808643D01*
X94243253Y-93672522D01*
X94409293Y-93507061D01*
X94483616Y-93403630D01*
X94487960Y-93397585D01*
X94537271Y-93361363D01*
X94598456Y-93361043D01*
X94648143Y-93396747D01*
X94652761Y-93403619D01*
X94665736Y-93424793D01*
X94668395Y-93427863D01*
X94668396Y-93427864D01*
X94739481Y-93509927D01*
X94819212Y-93601971D01*
X94999565Y-93751703D01*
X95201951Y-93869968D01*
X95420935Y-93953590D01*
X95424910Y-93954399D01*
X95424911Y-93954399D01*
X95646654Y-93999513D01*
X95646658Y-93999513D01*
X95650637Y-94000323D01*
X95654697Y-94000472D01*
X95654698Y-94000472D01*
X95695311Y-94001961D01*
X95884887Y-94008913D01*
X95888906Y-94008398D01*
X95888910Y-94008398D01*
X96113362Y-93979645D01*
X96113368Y-93979644D01*
X96117394Y-93979128D01*
X96121287Y-93977960D01*
X96121292Y-93977959D01*
X96280542Y-93930181D01*
X96341914Y-93911768D01*
X96452707Y-93857491D01*
X96548771Y-93810430D01*
X96548774Y-93810428D01*
X96552418Y-93808643D01*
X96743253Y-93672522D01*
X96909293Y-93507061D01*
X96983616Y-93403630D01*
X96987960Y-93397585D01*
X97037271Y-93361363D01*
X97098456Y-93361043D01*
X97148143Y-93396747D01*
X97152761Y-93403619D01*
X97165736Y-93424793D01*
X97168395Y-93427863D01*
X97168396Y-93427864D01*
X97239481Y-93509927D01*
X97319212Y-93601971D01*
X97499565Y-93751703D01*
X97701951Y-93869968D01*
X97920935Y-93953590D01*
X97924910Y-93954399D01*
X97924911Y-93954399D01*
X98146654Y-93999513D01*
X98146658Y-93999513D01*
X98150637Y-94000323D01*
X98154697Y-94000472D01*
X98154698Y-94000472D01*
X98195311Y-94001961D01*
X98384887Y-94008913D01*
X98388906Y-94008398D01*
X98388910Y-94008398D01*
X98613362Y-93979645D01*
X98613368Y-93979644D01*
X98617394Y-93979128D01*
X98621287Y-93977960D01*
X98621292Y-93977959D01*
X98780542Y-93930181D01*
X98841914Y-93911768D01*
X98952707Y-93857491D01*
X99048771Y-93810430D01*
X99048774Y-93810428D01*
X99052418Y-93808643D01*
X99243253Y-93672522D01*
X99409293Y-93507061D01*
X99483616Y-93403630D01*
X99543708Y-93320003D01*
X99543709Y-93320001D01*
X99546079Y-93316703D01*
X99547877Y-93313065D01*
X99547880Y-93313060D01*
X99648138Y-93110202D01*
X99649938Y-93106560D01*
X99651116Y-93102684D01*
X99651118Y-93102678D01*
X99716901Y-92886160D01*
X99716901Y-92886159D01*
X99718081Y-92882276D01*
X99748677Y-92649874D01*
X99750385Y-92580000D01*
X99731178Y-92346381D01*
X99722536Y-92311973D01*
X99675064Y-92122982D01*
X99674073Y-92119036D01*
X99580603Y-91904070D01*
X99453279Y-91707258D01*
X99295520Y-91533883D01*
X99292334Y-91531367D01*
X99292331Y-91531364D01*
X99114751Y-91391119D01*
X99114745Y-91391115D01*
X99111563Y-91388602D01*
X98906348Y-91275317D01*
X98902517Y-91273960D01*
X98902514Y-91273959D01*
X98689222Y-91198428D01*
X98689218Y-91198427D01*
X98685386Y-91197070D01*
X98582192Y-91178688D01*
X98528220Y-91149870D01*
X98501494Y-91094830D01*
X98512223Y-91034593D01*
X98556310Y-90992167D01*
X98586974Y-90983026D01*
X98613351Y-90979647D01*
X98613364Y-90979644D01*
X98617394Y-90979128D01*
X98621287Y-90977960D01*
X98621292Y-90977959D01*
X98780542Y-90930181D01*
X98841914Y-90911768D01*
X98952707Y-90857491D01*
X99048771Y-90810430D01*
X99048774Y-90810428D01*
X99052418Y-90808643D01*
X99243253Y-90672522D01*
X99409293Y-90507061D01*
X99483616Y-90403630D01*
X99543708Y-90320003D01*
X99543709Y-90320001D01*
X99546079Y-90316703D01*
X99547877Y-90313065D01*
X99547880Y-90313060D01*
X99648138Y-90110202D01*
X99649938Y-90106560D01*
X99651116Y-90102684D01*
X99651118Y-90102678D01*
X99716901Y-89886160D01*
X99716901Y-89886159D01*
X99718081Y-89882276D01*
X99748677Y-89649874D01*
X99750385Y-89580000D01*
X99731178Y-89346381D01*
X99722536Y-89311973D01*
X99675064Y-89122982D01*
X99674073Y-89119036D01*
X99580603Y-88904070D01*
X99453279Y-88707258D01*
X99295520Y-88533883D01*
X99292334Y-88531367D01*
X99292331Y-88531364D01*
X99114751Y-88391119D01*
X99114745Y-88391115D01*
X99111563Y-88388602D01*
X98906348Y-88275317D01*
X98902517Y-88273960D01*
X98902514Y-88273959D01*
X98689222Y-88198428D01*
X98689218Y-88198427D01*
X98685386Y-88197070D01*
X98546955Y-88172412D01*
X98492982Y-88143593D01*
X98466256Y-88088553D01*
X98476985Y-88028316D01*
X98521072Y-87985890D01*
X98543733Y-87978109D01*
X98602341Y-87965651D01*
X98612153Y-87962463D01*
X98614869Y-87961254D01*
X98622616Y-87954279D01*
X98617164Y-87942849D01*
X98331088Y-87656774D01*
X98319202Y-87650718D01*
X98314171Y-87651514D01*
X98021897Y-87943788D01*
X98017163Y-87953079D01*
X98026349Y-87961796D01*
X98027847Y-87962463D01*
X98037657Y-87965651D01*
X98096591Y-87978178D01*
X98149579Y-88008771D01*
X98174465Y-88064667D01*
X98161743Y-88124515D01*
X98116273Y-88165456D01*
X98090985Y-88172875D01*
X97988511Y-88188556D01*
X97868379Y-88227821D01*
X97769561Y-88260120D01*
X97769557Y-88260121D01*
X97765704Y-88261381D01*
X97762104Y-88263255D01*
X97561387Y-88367741D01*
X97561384Y-88367743D01*
X97557782Y-88369618D01*
X97554540Y-88372053D01*
X97554534Y-88372056D01*
X97529145Y-88391119D01*
X97370330Y-88510361D01*
X97208382Y-88679830D01*
X97206090Y-88683190D01*
X97152312Y-88762025D01*
X97103900Y-88799442D01*
X97042742Y-88801257D01*
X96992197Y-88766777D01*
X96987418Y-88760028D01*
X96953279Y-88707258D01*
X96795520Y-88533883D01*
X96792334Y-88531367D01*
X96792331Y-88531364D01*
X96614751Y-88391119D01*
X96614745Y-88391115D01*
X96611563Y-88388602D01*
X96406348Y-88275317D01*
X96402517Y-88273960D01*
X96402514Y-88273959D01*
X96189222Y-88198428D01*
X96189218Y-88198427D01*
X96185386Y-88197070D01*
X96046955Y-88172412D01*
X95992982Y-88143593D01*
X95966256Y-88088553D01*
X95976985Y-88028316D01*
X96021072Y-87985890D01*
X96043733Y-87978109D01*
X96102341Y-87965651D01*
X96112153Y-87962463D01*
X96114869Y-87961254D01*
X96122616Y-87954279D01*
X96117164Y-87942849D01*
X95831088Y-87656774D01*
X95819202Y-87650718D01*
X95814171Y-87651514D01*
X95521897Y-87943788D01*
X95517163Y-87953079D01*
X95526349Y-87961796D01*
X95527847Y-87962463D01*
X95537657Y-87965651D01*
X95596591Y-87978178D01*
X95649579Y-88008771D01*
X95674465Y-88064667D01*
X95661743Y-88124515D01*
X95616273Y-88165456D01*
X95590985Y-88172875D01*
X95488511Y-88188556D01*
X95368379Y-88227821D01*
X95269561Y-88260120D01*
X95269557Y-88260121D01*
X95265704Y-88261381D01*
X95262104Y-88263255D01*
X95061387Y-88367741D01*
X95061384Y-88367743D01*
X95057782Y-88369618D01*
X95054540Y-88372053D01*
X95054534Y-88372056D01*
X95029145Y-88391119D01*
X94870330Y-88510361D01*
X94708382Y-88679830D01*
X94706090Y-88683190D01*
X94652312Y-88762025D01*
X94603900Y-88799442D01*
X94542742Y-88801257D01*
X94492197Y-88766777D01*
X94487418Y-88760028D01*
X94453279Y-88707258D01*
X94295520Y-88533883D01*
X94292334Y-88531367D01*
X94292331Y-88531364D01*
X94114751Y-88391119D01*
X94114745Y-88391115D01*
X94111563Y-88388602D01*
X93906348Y-88275317D01*
X93902517Y-88273960D01*
X93902514Y-88273959D01*
X93689222Y-88198428D01*
X93689218Y-88198427D01*
X93685386Y-88197070D01*
X93546955Y-88172412D01*
X93492982Y-88143593D01*
X93466256Y-88088553D01*
X93476985Y-88028316D01*
X93521072Y-87985890D01*
X93543733Y-87978109D01*
X93602341Y-87965651D01*
X93612153Y-87962463D01*
X93614869Y-87961254D01*
X93622616Y-87954279D01*
X93617164Y-87942849D01*
X93331088Y-87656774D01*
X93319202Y-87650718D01*
X93314171Y-87651514D01*
X93021897Y-87943788D01*
X93017163Y-87953079D01*
X93026349Y-87961796D01*
X93027847Y-87962463D01*
X93037657Y-87965651D01*
X93096591Y-87978178D01*
X93149579Y-88008771D01*
X93174465Y-88064667D01*
X93161743Y-88124515D01*
X93116273Y-88165456D01*
X93090985Y-88172875D01*
X92988511Y-88188556D01*
X92868379Y-88227821D01*
X92769561Y-88260120D01*
X92769557Y-88260121D01*
X92765704Y-88261381D01*
X92762104Y-88263255D01*
X92561387Y-88367741D01*
X92561384Y-88367743D01*
X92557782Y-88369618D01*
X92554540Y-88372053D01*
X92554534Y-88372056D01*
X92529145Y-88391119D01*
X92370330Y-88510361D01*
X92208382Y-88679830D01*
X92206090Y-88683190D01*
X92152312Y-88762025D01*
X92103900Y-88799442D01*
X92042742Y-88801257D01*
X91992197Y-88766777D01*
X91987418Y-88760028D01*
X91953279Y-88707258D01*
X91795520Y-88533883D01*
X91792334Y-88531367D01*
X91792331Y-88531364D01*
X91614751Y-88391119D01*
X91614745Y-88391115D01*
X91611563Y-88388602D01*
X91406348Y-88275317D01*
X91402517Y-88273960D01*
X91402514Y-88273959D01*
X91189222Y-88198428D01*
X91189218Y-88198427D01*
X91185386Y-88197070D01*
X91046955Y-88172412D01*
X90992982Y-88143593D01*
X90966256Y-88088553D01*
X90976985Y-88028316D01*
X91021072Y-87985890D01*
X91043733Y-87978109D01*
X91102341Y-87965651D01*
X91112153Y-87962463D01*
X91114869Y-87961254D01*
X91122616Y-87954279D01*
X91117164Y-87942849D01*
X90831088Y-87656774D01*
X90819202Y-87650718D01*
X90814171Y-87651514D01*
X90521897Y-87943788D01*
X90517163Y-87953079D01*
X90526349Y-87961796D01*
X90527847Y-87962463D01*
X90537657Y-87965651D01*
X90596591Y-87978178D01*
X90649579Y-88008771D01*
X90674465Y-88064667D01*
X90661743Y-88124515D01*
X90616273Y-88165456D01*
X90590985Y-88172875D01*
X90488511Y-88188556D01*
X90368379Y-88227821D01*
X90269561Y-88260120D01*
X90269557Y-88260121D01*
X90265704Y-88261381D01*
X90262104Y-88263255D01*
X90061387Y-88367741D01*
X90061384Y-88367743D01*
X90057782Y-88369618D01*
X90054540Y-88372053D01*
X90054534Y-88372056D01*
X90029145Y-88391119D01*
X89870330Y-88510361D01*
X89708382Y-88679830D01*
X89576287Y-88873473D01*
X89477594Y-89086091D01*
X89414951Y-89311973D01*
X89390042Y-89545053D01*
X89403535Y-89779071D01*
X89404427Y-89783028D01*
X89425886Y-89878247D01*
X89455069Y-90007743D01*
X89456598Y-90011507D01*
X89456599Y-90011512D01*
X89496673Y-90110202D01*
X89543259Y-90224928D01*
X89545383Y-90228394D01*
X89545385Y-90228398D01*
X89601521Y-90320003D01*
X89665736Y-90424793D01*
X89668395Y-90427863D01*
X89668396Y-90427864D01*
X89739481Y-90509927D01*
X89819212Y-90601971D01*
X89999565Y-90751703D01*
X90201951Y-90869968D01*
X90420935Y-90953590D01*
X90564457Y-90982790D01*
X90617709Y-91012918D01*
X90643083Y-91068594D01*
X90630884Y-91128552D01*
X90585774Y-91169888D01*
X90559694Y-91177663D01*
X90512923Y-91184820D01*
X90488511Y-91188556D01*
X90368379Y-91227821D01*
X90269561Y-91260120D01*
X90269557Y-91260121D01*
X90265704Y-91261381D01*
X90262104Y-91263255D01*
X90061387Y-91367741D01*
X90061384Y-91367743D01*
X90057782Y-91369618D01*
X90054540Y-91372053D01*
X90054534Y-91372056D01*
X90029145Y-91391119D01*
X89870330Y-91510361D01*
X89708382Y-91679830D01*
X89576287Y-91873473D01*
X89477594Y-92086091D01*
X89414951Y-92311973D01*
X89390042Y-92545053D01*
X86416320Y-92545053D01*
X86412856Y-88762025D01*
X86411321Y-87085157D01*
X89890447Y-87085157D01*
X89909688Y-87268220D01*
X89911832Y-87278310D01*
X89942344Y-87372212D01*
X89949040Y-87381429D01*
X89954736Y-87379578D01*
X90243228Y-87091086D01*
X90248470Y-87080797D01*
X91390718Y-87080797D01*
X91391514Y-87085828D01*
X91681725Y-87376039D01*
X91691873Y-87381210D01*
X91696109Y-87376974D01*
X91728168Y-87278310D01*
X91730312Y-87268220D01*
X91749553Y-87085157D01*
X92390447Y-87085157D01*
X92409688Y-87268220D01*
X92411832Y-87278310D01*
X92442344Y-87372212D01*
X92449040Y-87381429D01*
X92454736Y-87379578D01*
X92743228Y-87091086D01*
X92748470Y-87080797D01*
X93890718Y-87080797D01*
X93891514Y-87085828D01*
X94181725Y-87376039D01*
X94191873Y-87381210D01*
X94196109Y-87376974D01*
X94228168Y-87278310D01*
X94230312Y-87268220D01*
X94249553Y-87085157D01*
X94890447Y-87085157D01*
X94909688Y-87268220D01*
X94911832Y-87278310D01*
X94942344Y-87372212D01*
X94949040Y-87381429D01*
X94954736Y-87379578D01*
X95243228Y-87091086D01*
X95248470Y-87080797D01*
X96390718Y-87080797D01*
X96391514Y-87085828D01*
X96681725Y-87376039D01*
X96691873Y-87381210D01*
X96696109Y-87376974D01*
X96728168Y-87278310D01*
X96730312Y-87268220D01*
X96749553Y-87085157D01*
X97390447Y-87085157D01*
X97409688Y-87268220D01*
X97411832Y-87278310D01*
X97442344Y-87372212D01*
X97449040Y-87381429D01*
X97454736Y-87379578D01*
X97743228Y-87091086D01*
X97748470Y-87080797D01*
X98890718Y-87080797D01*
X98891514Y-87085828D01*
X99181725Y-87376039D01*
X99191873Y-87381210D01*
X99196109Y-87376974D01*
X99228168Y-87278310D01*
X99230312Y-87268220D01*
X99249553Y-87085157D01*
X99249553Y-87074843D01*
X99230312Y-86891780D01*
X99228168Y-86881690D01*
X99197656Y-86787788D01*
X99190960Y-86778571D01*
X99185264Y-86780422D01*
X98896772Y-87068914D01*
X98890718Y-87080797D01*
X97748470Y-87080797D01*
X97749282Y-87079203D01*
X97748486Y-87074172D01*
X97458275Y-86783961D01*
X97448127Y-86778790D01*
X97443891Y-86783026D01*
X97411832Y-86881690D01*
X97409688Y-86891780D01*
X97390447Y-87074843D01*
X97390447Y-87085157D01*
X96749553Y-87085157D01*
X96749553Y-87074843D01*
X96730312Y-86891780D01*
X96728168Y-86881690D01*
X96697656Y-86787788D01*
X96690960Y-86778571D01*
X96685264Y-86780422D01*
X96396772Y-87068914D01*
X96390718Y-87080797D01*
X95248470Y-87080797D01*
X95249282Y-87079203D01*
X95248486Y-87074172D01*
X94958275Y-86783961D01*
X94948127Y-86778790D01*
X94943891Y-86783026D01*
X94911832Y-86881690D01*
X94909688Y-86891780D01*
X94890447Y-87074843D01*
X94890447Y-87085157D01*
X94249553Y-87085157D01*
X94249553Y-87074843D01*
X94230312Y-86891780D01*
X94228168Y-86881690D01*
X94197656Y-86787788D01*
X94190960Y-86778571D01*
X94185264Y-86780422D01*
X93896772Y-87068914D01*
X93890718Y-87080797D01*
X92748470Y-87080797D01*
X92749282Y-87079203D01*
X92748486Y-87074172D01*
X92458275Y-86783961D01*
X92448127Y-86778790D01*
X92443891Y-86783026D01*
X92411832Y-86881690D01*
X92409688Y-86891780D01*
X92390447Y-87074843D01*
X92390447Y-87085157D01*
X91749553Y-87085157D01*
X91749553Y-87074843D01*
X91730312Y-86891780D01*
X91728168Y-86881690D01*
X91697656Y-86787788D01*
X91690960Y-86778571D01*
X91685264Y-86780422D01*
X91396772Y-87068914D01*
X91390718Y-87080797D01*
X90248470Y-87080797D01*
X90249282Y-87079203D01*
X90248486Y-87074172D01*
X89958275Y-86783961D01*
X89948127Y-86778790D01*
X89943891Y-86783026D01*
X89911832Y-86881690D01*
X89909688Y-86891780D01*
X89890447Y-87074843D01*
X89890447Y-87085157D01*
X86411321Y-87085157D01*
X86410516Y-86205721D01*
X90517384Y-86205721D01*
X90522836Y-86217151D01*
X90808912Y-86503226D01*
X90820798Y-86509282D01*
X90825829Y-86508486D01*
X91118103Y-86216212D01*
X91122837Y-86206921D01*
X91121572Y-86205721D01*
X93017384Y-86205721D01*
X93022836Y-86217151D01*
X93308912Y-86503226D01*
X93320798Y-86509282D01*
X93325829Y-86508486D01*
X93618103Y-86216212D01*
X93622837Y-86206921D01*
X93621572Y-86205721D01*
X95517384Y-86205721D01*
X95522836Y-86217151D01*
X95808912Y-86503226D01*
X95820798Y-86509282D01*
X95825829Y-86508486D01*
X96118103Y-86216212D01*
X96122837Y-86206921D01*
X96121572Y-86205721D01*
X98017384Y-86205721D01*
X98022836Y-86217151D01*
X98308912Y-86503226D01*
X98320798Y-86509282D01*
X98325829Y-86508486D01*
X98618103Y-86216212D01*
X98622837Y-86206921D01*
X98613651Y-86198204D01*
X98612153Y-86197537D01*
X98602341Y-86194349D01*
X98422295Y-86156079D01*
X98412032Y-86155000D01*
X98227968Y-86155000D01*
X98217705Y-86156079D01*
X98037659Y-86194349D01*
X98027847Y-86197537D01*
X98025131Y-86198746D01*
X98017384Y-86205721D01*
X96121572Y-86205721D01*
X96113651Y-86198204D01*
X96112153Y-86197537D01*
X96102341Y-86194349D01*
X95922295Y-86156079D01*
X95912032Y-86155000D01*
X95727968Y-86155000D01*
X95717705Y-86156079D01*
X95537659Y-86194349D01*
X95527847Y-86197537D01*
X95525131Y-86198746D01*
X95517384Y-86205721D01*
X93621572Y-86205721D01*
X93613651Y-86198204D01*
X93612153Y-86197537D01*
X93602341Y-86194349D01*
X93422295Y-86156079D01*
X93412032Y-86155000D01*
X93227968Y-86155000D01*
X93217705Y-86156079D01*
X93037659Y-86194349D01*
X93027847Y-86197537D01*
X93025131Y-86198746D01*
X93017384Y-86205721D01*
X91121572Y-86205721D01*
X91113651Y-86198204D01*
X91112153Y-86197537D01*
X91102341Y-86194349D01*
X90922295Y-86156079D01*
X90912032Y-86155000D01*
X90727968Y-86155000D01*
X90717705Y-86156079D01*
X90537659Y-86194349D01*
X90527847Y-86197537D01*
X90525131Y-86198746D01*
X90517384Y-86205721D01*
X86410516Y-86205721D01*
X86409369Y-84953079D01*
X90517163Y-84953079D01*
X90526349Y-84961796D01*
X90527847Y-84962463D01*
X90537659Y-84965651D01*
X90717705Y-85003921D01*
X90727968Y-85005000D01*
X90912032Y-85005000D01*
X90922295Y-85003921D01*
X91102341Y-84965651D01*
X91112153Y-84962463D01*
X91114869Y-84961254D01*
X91122616Y-84954279D01*
X91122044Y-84953079D01*
X93017163Y-84953079D01*
X93026349Y-84961796D01*
X93027847Y-84962463D01*
X93037659Y-84965651D01*
X93217705Y-85003921D01*
X93227968Y-85005000D01*
X93412032Y-85005000D01*
X93422295Y-85003921D01*
X93602341Y-84965651D01*
X93612153Y-84962463D01*
X93614869Y-84961254D01*
X93622616Y-84954279D01*
X93622044Y-84953079D01*
X95517163Y-84953079D01*
X95526349Y-84961796D01*
X95527847Y-84962463D01*
X95537659Y-84965651D01*
X95717705Y-85003921D01*
X95727968Y-85005000D01*
X95912032Y-85005000D01*
X95922295Y-85003921D01*
X96102341Y-84965651D01*
X96112153Y-84962463D01*
X96114869Y-84961254D01*
X96122616Y-84954279D01*
X96122044Y-84953079D01*
X98017163Y-84953079D01*
X98026349Y-84961796D01*
X98027847Y-84962463D01*
X98037659Y-84965651D01*
X98217705Y-85003921D01*
X98227968Y-85005000D01*
X98412032Y-85005000D01*
X98422295Y-85003921D01*
X98602341Y-84965651D01*
X98612153Y-84962463D01*
X98614869Y-84961254D01*
X98622616Y-84954279D01*
X98617164Y-84942849D01*
X98331088Y-84656774D01*
X98319202Y-84650718D01*
X98314171Y-84651514D01*
X98021897Y-84943788D01*
X98017163Y-84953079D01*
X96122044Y-84953079D01*
X96117164Y-84942849D01*
X95831088Y-84656774D01*
X95819202Y-84650718D01*
X95814171Y-84651514D01*
X95521897Y-84943788D01*
X95517163Y-84953079D01*
X93622044Y-84953079D01*
X93617164Y-84942849D01*
X93331088Y-84656774D01*
X93319202Y-84650718D01*
X93314171Y-84651514D01*
X93021897Y-84943788D01*
X93017163Y-84953079D01*
X91122044Y-84953079D01*
X91117164Y-84942849D01*
X90831088Y-84656774D01*
X90819202Y-84650718D01*
X90814171Y-84651514D01*
X90521897Y-84943788D01*
X90517163Y-84953079D01*
X86409369Y-84953079D01*
X86408574Y-84085157D01*
X89890447Y-84085157D01*
X89909688Y-84268220D01*
X89911832Y-84278310D01*
X89942344Y-84372212D01*
X89949040Y-84381429D01*
X89954736Y-84379578D01*
X90243228Y-84091086D01*
X90248470Y-84080797D01*
X91390718Y-84080797D01*
X91391514Y-84085828D01*
X91681725Y-84376039D01*
X91691873Y-84381210D01*
X91696109Y-84376974D01*
X91728168Y-84278310D01*
X91730312Y-84268220D01*
X91749553Y-84085157D01*
X92390447Y-84085157D01*
X92409688Y-84268220D01*
X92411832Y-84278310D01*
X92442344Y-84372212D01*
X92449040Y-84381429D01*
X92454736Y-84379578D01*
X92743228Y-84091086D01*
X92748470Y-84080797D01*
X93890718Y-84080797D01*
X93891514Y-84085828D01*
X94181725Y-84376039D01*
X94191873Y-84381210D01*
X94196109Y-84376974D01*
X94228168Y-84278310D01*
X94230312Y-84268220D01*
X94249553Y-84085157D01*
X94890447Y-84085157D01*
X94909688Y-84268220D01*
X94911832Y-84278310D01*
X94942344Y-84372212D01*
X94949040Y-84381429D01*
X94954736Y-84379578D01*
X95243228Y-84091086D01*
X95248470Y-84080797D01*
X96390718Y-84080797D01*
X96391514Y-84085828D01*
X96681725Y-84376039D01*
X96691873Y-84381210D01*
X96696109Y-84376974D01*
X96728168Y-84278310D01*
X96730312Y-84268220D01*
X96749553Y-84085157D01*
X97390447Y-84085157D01*
X97409688Y-84268220D01*
X97411832Y-84278310D01*
X97442344Y-84372212D01*
X97449040Y-84381429D01*
X97454736Y-84379578D01*
X97743228Y-84091086D01*
X97748470Y-84080797D01*
X98890718Y-84080797D01*
X98891514Y-84085828D01*
X99181725Y-84376039D01*
X99191873Y-84381210D01*
X99196109Y-84376974D01*
X99228168Y-84278310D01*
X99230312Y-84268220D01*
X99249553Y-84085157D01*
X99249553Y-84074843D01*
X99230312Y-83891780D01*
X99228168Y-83881690D01*
X99197656Y-83787788D01*
X99190960Y-83778571D01*
X99185264Y-83780422D01*
X98896772Y-84068914D01*
X98890718Y-84080797D01*
X97748470Y-84080797D01*
X97749282Y-84079203D01*
X97748486Y-84074172D01*
X97458275Y-83783961D01*
X97448127Y-83778790D01*
X97443891Y-83783026D01*
X97411832Y-83881690D01*
X97409688Y-83891780D01*
X97390447Y-84074843D01*
X97390447Y-84085157D01*
X96749553Y-84085157D01*
X96749553Y-84074843D01*
X96730312Y-83891780D01*
X96728168Y-83881690D01*
X96697656Y-83787788D01*
X96690960Y-83778571D01*
X96685264Y-83780422D01*
X96396772Y-84068914D01*
X96390718Y-84080797D01*
X95248470Y-84080797D01*
X95249282Y-84079203D01*
X95248486Y-84074172D01*
X94958275Y-83783961D01*
X94948127Y-83778790D01*
X94943891Y-83783026D01*
X94911832Y-83881690D01*
X94909688Y-83891780D01*
X94890447Y-84074843D01*
X94890447Y-84085157D01*
X94249553Y-84085157D01*
X94249553Y-84074843D01*
X94230312Y-83891780D01*
X94228168Y-83881690D01*
X94197656Y-83787788D01*
X94190960Y-83778571D01*
X94185264Y-83780422D01*
X93896772Y-84068914D01*
X93890718Y-84080797D01*
X92748470Y-84080797D01*
X92749282Y-84079203D01*
X92748486Y-84074172D01*
X92458275Y-83783961D01*
X92448127Y-83778790D01*
X92443891Y-83783026D01*
X92411832Y-83881690D01*
X92409688Y-83891780D01*
X92390447Y-84074843D01*
X92390447Y-84085157D01*
X91749553Y-84085157D01*
X91749553Y-84074843D01*
X91730312Y-83891780D01*
X91728168Y-83881690D01*
X91697656Y-83787788D01*
X91690960Y-83778571D01*
X91685264Y-83780422D01*
X91396772Y-84068914D01*
X91390718Y-84080797D01*
X90248470Y-84080797D01*
X90249282Y-84079203D01*
X90248486Y-84074172D01*
X89958275Y-83783961D01*
X89948127Y-83778790D01*
X89943891Y-83783026D01*
X89911832Y-83881690D01*
X89909688Y-83891780D01*
X89890447Y-84074843D01*
X89890447Y-84085157D01*
X86408574Y-84085157D01*
X86406248Y-81545053D01*
X89390042Y-81545053D01*
X89403535Y-81779071D01*
X89404427Y-81783028D01*
X89425886Y-81878247D01*
X89455069Y-82007743D01*
X89456598Y-82011507D01*
X89456599Y-82011512D01*
X89496673Y-82110202D01*
X89543259Y-82224928D01*
X89545383Y-82228394D01*
X89545385Y-82228398D01*
X89601521Y-82320003D01*
X89665736Y-82424793D01*
X89668395Y-82427863D01*
X89668396Y-82427864D01*
X89739481Y-82509927D01*
X89819212Y-82601971D01*
X89999565Y-82751703D01*
X90201951Y-82869968D01*
X90420935Y-82953590D01*
X90424910Y-82954399D01*
X90424911Y-82954399D01*
X90592901Y-82988577D01*
X90646155Y-83018707D01*
X90671528Y-83074383D01*
X90659329Y-83134340D01*
X90614219Y-83175676D01*
X90593747Y-83182427D01*
X90537659Y-83194349D01*
X90527847Y-83197537D01*
X90525131Y-83198746D01*
X90517384Y-83205721D01*
X90522836Y-83217151D01*
X90808912Y-83503226D01*
X90820798Y-83509282D01*
X90825829Y-83508486D01*
X91118103Y-83216212D01*
X91122837Y-83206921D01*
X91113651Y-83198204D01*
X91112153Y-83197537D01*
X91102341Y-83194348D01*
X91045738Y-83182317D01*
X90992750Y-83151724D01*
X90967863Y-83095828D01*
X90980585Y-83035980D01*
X91026054Y-82995039D01*
X91053742Y-82987282D01*
X91113362Y-82979645D01*
X91113368Y-82979644D01*
X91117394Y-82979128D01*
X91121287Y-82977960D01*
X91121292Y-82977959D01*
X91280542Y-82930181D01*
X91341914Y-82911768D01*
X91452707Y-82857491D01*
X91548771Y-82810430D01*
X91548774Y-82810428D01*
X91552418Y-82808643D01*
X91743253Y-82672522D01*
X91909293Y-82507061D01*
X91983616Y-82403630D01*
X91987960Y-82397585D01*
X92037271Y-82361363D01*
X92098456Y-82361043D01*
X92148143Y-82396747D01*
X92152761Y-82403619D01*
X92165736Y-82424793D01*
X92168395Y-82427863D01*
X92168396Y-82427864D01*
X92239481Y-82509927D01*
X92319212Y-82601971D01*
X92499565Y-82751703D01*
X92701951Y-82869968D01*
X92920935Y-82953590D01*
X92924910Y-82954399D01*
X92924911Y-82954399D01*
X93092901Y-82988577D01*
X93146155Y-83018707D01*
X93171528Y-83074383D01*
X93159329Y-83134340D01*
X93114219Y-83175676D01*
X93093747Y-83182427D01*
X93037659Y-83194349D01*
X93027847Y-83197537D01*
X93025131Y-83198746D01*
X93017384Y-83205721D01*
X93022836Y-83217151D01*
X93308912Y-83503226D01*
X93320798Y-83509282D01*
X93325829Y-83508486D01*
X93618103Y-83216212D01*
X93622837Y-83206921D01*
X93613651Y-83198204D01*
X93612153Y-83197537D01*
X93602341Y-83194348D01*
X93545738Y-83182317D01*
X93492750Y-83151724D01*
X93467863Y-83095828D01*
X93480585Y-83035980D01*
X93526054Y-82995039D01*
X93553742Y-82987282D01*
X93613362Y-82979645D01*
X93613368Y-82979644D01*
X93617394Y-82979128D01*
X93621287Y-82977960D01*
X93621292Y-82977959D01*
X93780542Y-82930181D01*
X93841914Y-82911768D01*
X93952707Y-82857491D01*
X94048771Y-82810430D01*
X94048774Y-82810428D01*
X94052418Y-82808643D01*
X94243253Y-82672522D01*
X94409293Y-82507061D01*
X94483616Y-82403630D01*
X94487960Y-82397585D01*
X94537271Y-82361363D01*
X94598456Y-82361043D01*
X94648143Y-82396747D01*
X94652761Y-82403619D01*
X94665736Y-82424793D01*
X94668395Y-82427863D01*
X94668396Y-82427864D01*
X94739481Y-82509927D01*
X94819212Y-82601971D01*
X94999565Y-82751703D01*
X95201951Y-82869968D01*
X95420935Y-82953590D01*
X95424910Y-82954399D01*
X95424911Y-82954399D01*
X95592901Y-82988577D01*
X95646155Y-83018707D01*
X95671528Y-83074383D01*
X95659329Y-83134340D01*
X95614219Y-83175676D01*
X95593747Y-83182427D01*
X95537659Y-83194349D01*
X95527847Y-83197537D01*
X95525131Y-83198746D01*
X95517384Y-83205721D01*
X95522836Y-83217151D01*
X95808912Y-83503226D01*
X95820798Y-83509282D01*
X95825829Y-83508486D01*
X96118103Y-83216212D01*
X96122837Y-83206921D01*
X96113651Y-83198204D01*
X96112153Y-83197537D01*
X96102341Y-83194348D01*
X96045738Y-83182317D01*
X95992750Y-83151724D01*
X95967863Y-83095828D01*
X95980585Y-83035980D01*
X96026054Y-82995039D01*
X96053742Y-82987282D01*
X96113362Y-82979645D01*
X96113368Y-82979644D01*
X96117394Y-82979128D01*
X96121287Y-82977960D01*
X96121292Y-82977959D01*
X96280542Y-82930181D01*
X96341914Y-82911768D01*
X96452707Y-82857491D01*
X96548771Y-82810430D01*
X96548774Y-82810428D01*
X96552418Y-82808643D01*
X96743253Y-82672522D01*
X96909293Y-82507061D01*
X96983616Y-82403630D01*
X96987960Y-82397585D01*
X97037271Y-82361363D01*
X97098456Y-82361043D01*
X97148143Y-82396747D01*
X97152761Y-82403619D01*
X97165736Y-82424793D01*
X97168395Y-82427863D01*
X97168396Y-82427864D01*
X97239481Y-82509927D01*
X97319212Y-82601971D01*
X97499565Y-82751703D01*
X97701951Y-82869968D01*
X97920935Y-82953590D01*
X97924910Y-82954399D01*
X97924911Y-82954399D01*
X98092901Y-82988577D01*
X98146155Y-83018707D01*
X98171528Y-83074383D01*
X98159329Y-83134340D01*
X98114219Y-83175676D01*
X98093747Y-83182427D01*
X98037659Y-83194349D01*
X98027847Y-83197537D01*
X98025131Y-83198746D01*
X98017384Y-83205721D01*
X98022836Y-83217151D01*
X98308912Y-83503226D01*
X98320798Y-83509282D01*
X98325829Y-83508486D01*
X98618103Y-83216212D01*
X98622837Y-83206921D01*
X98613651Y-83198204D01*
X98612153Y-83197537D01*
X98602341Y-83194348D01*
X98545738Y-83182317D01*
X98492750Y-83151724D01*
X98467863Y-83095828D01*
X98480585Y-83035980D01*
X98526054Y-82995039D01*
X98553742Y-82987282D01*
X98613362Y-82979645D01*
X98613368Y-82979644D01*
X98617394Y-82979128D01*
X98621287Y-82977960D01*
X98621292Y-82977959D01*
X98780542Y-82930181D01*
X98841914Y-82911768D01*
X98952707Y-82857491D01*
X99048771Y-82810430D01*
X99048774Y-82810428D01*
X99052418Y-82808643D01*
X99243253Y-82672522D01*
X99409293Y-82507061D01*
X99483616Y-82403630D01*
X99543708Y-82320003D01*
X99543709Y-82320001D01*
X99546079Y-82316703D01*
X99547877Y-82313065D01*
X99547880Y-82313060D01*
X99648138Y-82110202D01*
X99649938Y-82106560D01*
X99651116Y-82102684D01*
X99651118Y-82102678D01*
X99716901Y-81886160D01*
X99716901Y-81886159D01*
X99718081Y-81882276D01*
X99748677Y-81649874D01*
X99750385Y-81580000D01*
X99731178Y-81346381D01*
X99722536Y-81311973D01*
X99675064Y-81122982D01*
X99674073Y-81119036D01*
X99580603Y-80904070D01*
X99453279Y-80707258D01*
X99295520Y-80533883D01*
X99292334Y-80531367D01*
X99292331Y-80531364D01*
X99114751Y-80391119D01*
X99114745Y-80391115D01*
X99111563Y-80388602D01*
X98906348Y-80275317D01*
X98902517Y-80273960D01*
X98902514Y-80273959D01*
X98689222Y-80198428D01*
X98689218Y-80198427D01*
X98685386Y-80197070D01*
X98582192Y-80178688D01*
X98528220Y-80149870D01*
X98501494Y-80094830D01*
X98512223Y-80034593D01*
X98556310Y-79992167D01*
X98586974Y-79983026D01*
X98613351Y-79979647D01*
X98613364Y-79979644D01*
X98617394Y-79979128D01*
X98621287Y-79977960D01*
X98621292Y-79977959D01*
X98780542Y-79930181D01*
X98841914Y-79911768D01*
X98952707Y-79857491D01*
X99048771Y-79810430D01*
X99048774Y-79810428D01*
X99052418Y-79808643D01*
X99243253Y-79672522D01*
X99409293Y-79507061D01*
X99483616Y-79403630D01*
X99543708Y-79320003D01*
X99543709Y-79320001D01*
X99546079Y-79316703D01*
X99547877Y-79313065D01*
X99547880Y-79313060D01*
X99648138Y-79110202D01*
X99649938Y-79106560D01*
X99651116Y-79102684D01*
X99651118Y-79102678D01*
X99716901Y-78886160D01*
X99716901Y-78886159D01*
X99718081Y-78882276D01*
X99748677Y-78649874D01*
X99750385Y-78580000D01*
X99731178Y-78346381D01*
X99722536Y-78311973D01*
X99675064Y-78122982D01*
X99674073Y-78119036D01*
X99580603Y-77904070D01*
X99453279Y-77707258D01*
X99295520Y-77533883D01*
X99292334Y-77531367D01*
X99292331Y-77531364D01*
X99114751Y-77391119D01*
X99114745Y-77391115D01*
X99111563Y-77388602D01*
X98906348Y-77275317D01*
X98902517Y-77273960D01*
X98902514Y-77273959D01*
X98689222Y-77198428D01*
X98689218Y-77198427D01*
X98685386Y-77197070D01*
X98454611Y-77155963D01*
X98450565Y-77155914D01*
X98450559Y-77155913D01*
X98321260Y-77154334D01*
X98220221Y-77153099D01*
X97988511Y-77188556D01*
X97868379Y-77227821D01*
X97769561Y-77260120D01*
X97769557Y-77260121D01*
X97765704Y-77261381D01*
X97762104Y-77263255D01*
X97561387Y-77367741D01*
X97561384Y-77367743D01*
X97557782Y-77369618D01*
X97554540Y-77372053D01*
X97554534Y-77372056D01*
X97529145Y-77391119D01*
X97370330Y-77510361D01*
X97208382Y-77679830D01*
X97206090Y-77683190D01*
X97152312Y-77762025D01*
X97103900Y-77799442D01*
X97042742Y-77801257D01*
X96992197Y-77766777D01*
X96987418Y-77760028D01*
X96953279Y-77707258D01*
X96795520Y-77533883D01*
X96792334Y-77531367D01*
X96792331Y-77531364D01*
X96614751Y-77391119D01*
X96614745Y-77391115D01*
X96611563Y-77388602D01*
X96406348Y-77275317D01*
X96402517Y-77273960D01*
X96402514Y-77273959D01*
X96189222Y-77198428D01*
X96189218Y-77198427D01*
X96185386Y-77197070D01*
X95954611Y-77155963D01*
X95950565Y-77155914D01*
X95950559Y-77155913D01*
X95821260Y-77154334D01*
X95720221Y-77153099D01*
X95488511Y-77188556D01*
X95368379Y-77227821D01*
X95269561Y-77260120D01*
X95269557Y-77260121D01*
X95265704Y-77261381D01*
X95262104Y-77263255D01*
X95061387Y-77367741D01*
X95061384Y-77367743D01*
X95057782Y-77369618D01*
X95054540Y-77372053D01*
X95054534Y-77372056D01*
X95029145Y-77391119D01*
X94870330Y-77510361D01*
X94708382Y-77679830D01*
X94706090Y-77683190D01*
X94652312Y-77762025D01*
X94603900Y-77799442D01*
X94542742Y-77801257D01*
X94492197Y-77766777D01*
X94487418Y-77760028D01*
X94453279Y-77707258D01*
X94295520Y-77533883D01*
X94292334Y-77531367D01*
X94292331Y-77531364D01*
X94114751Y-77391119D01*
X94114745Y-77391115D01*
X94111563Y-77388602D01*
X93906348Y-77275317D01*
X93902517Y-77273960D01*
X93902514Y-77273959D01*
X93689222Y-77198428D01*
X93689218Y-77198427D01*
X93685386Y-77197070D01*
X93454611Y-77155963D01*
X93450565Y-77155914D01*
X93450559Y-77155913D01*
X93321260Y-77154334D01*
X93220221Y-77153099D01*
X92988511Y-77188556D01*
X92868379Y-77227821D01*
X92769561Y-77260120D01*
X92769557Y-77260121D01*
X92765704Y-77261381D01*
X92762104Y-77263255D01*
X92561387Y-77367741D01*
X92561384Y-77367743D01*
X92557782Y-77369618D01*
X92554540Y-77372053D01*
X92554534Y-77372056D01*
X92529145Y-77391119D01*
X92370330Y-77510361D01*
X92208382Y-77679830D01*
X92206090Y-77683190D01*
X92152312Y-77762025D01*
X92103900Y-77799442D01*
X92042742Y-77801257D01*
X91992197Y-77766777D01*
X91987418Y-77760028D01*
X91953279Y-77707258D01*
X91795520Y-77533883D01*
X91792334Y-77531367D01*
X91792331Y-77531364D01*
X91614751Y-77391119D01*
X91614745Y-77391115D01*
X91611563Y-77388602D01*
X91406348Y-77275317D01*
X91402517Y-77273960D01*
X91402514Y-77273959D01*
X91189222Y-77198428D01*
X91189218Y-77198427D01*
X91185386Y-77197070D01*
X90954611Y-77155963D01*
X90950565Y-77155914D01*
X90950559Y-77155913D01*
X90821260Y-77154334D01*
X90720221Y-77153099D01*
X90488511Y-77188556D01*
X90368379Y-77227821D01*
X90269561Y-77260120D01*
X90269557Y-77260121D01*
X90265704Y-77261381D01*
X90262104Y-77263255D01*
X90061387Y-77367741D01*
X90061384Y-77367743D01*
X90057782Y-77369618D01*
X90054540Y-77372053D01*
X90054534Y-77372056D01*
X90029145Y-77391119D01*
X89870330Y-77510361D01*
X89708382Y-77679830D01*
X89576287Y-77873473D01*
X89477594Y-78086091D01*
X89414951Y-78311973D01*
X89390042Y-78545053D01*
X89403535Y-78779071D01*
X89404427Y-78783028D01*
X89425886Y-78878247D01*
X89455069Y-79007743D01*
X89456598Y-79011507D01*
X89456599Y-79011512D01*
X89496673Y-79110202D01*
X89543259Y-79224928D01*
X89545383Y-79228394D01*
X89545385Y-79228398D01*
X89601521Y-79320003D01*
X89665736Y-79424793D01*
X89668395Y-79427863D01*
X89668396Y-79427864D01*
X89739481Y-79509927D01*
X89819212Y-79601971D01*
X89999565Y-79751703D01*
X90201951Y-79869968D01*
X90420935Y-79953590D01*
X90564457Y-79982790D01*
X90617709Y-80012918D01*
X90643083Y-80068594D01*
X90630884Y-80128552D01*
X90585774Y-80169888D01*
X90559694Y-80177663D01*
X90512923Y-80184820D01*
X90488511Y-80188556D01*
X90368379Y-80227821D01*
X90269561Y-80260120D01*
X90269557Y-80260121D01*
X90265704Y-80261381D01*
X90262104Y-80263255D01*
X90061387Y-80367741D01*
X90061384Y-80367743D01*
X90057782Y-80369618D01*
X90054540Y-80372053D01*
X90054534Y-80372056D01*
X90029145Y-80391119D01*
X89870330Y-80510361D01*
X89708382Y-80679830D01*
X89576287Y-80873473D01*
X89477594Y-81086091D01*
X89414951Y-81311973D01*
X89390042Y-81545053D01*
X86406248Y-81545053D01*
X86401499Y-76357480D01*
X86420353Y-76299272D01*
X86469820Y-76263262D01*
X86500619Y-76258389D01*
X102522733Y-76278145D01*
G37*
%TD.AperFunction*%
%TD*%
%TA.AperFunction,Conductor*%
%TO.N,/Phase_2_T1*%
G36*
X162773496Y-76278445D02*
G01*
X162809491Y-76327922D01*
X162814355Y-76358525D01*
X162822802Y-93806283D01*
X162839952Y-129230891D01*
X162821073Y-129289091D01*
X162771590Y-129325079D01*
X162740891Y-129329939D01*
X161713562Y-129329307D01*
X146688891Y-129320061D01*
X146630712Y-129301118D01*
X146594779Y-129251596D01*
X146589952Y-129221109D01*
X146588195Y-125592070D01*
X146587191Y-123518477D01*
X147594822Y-123518477D01*
X147595016Y-123521842D01*
X147595016Y-123521846D01*
X147598545Y-123583043D01*
X147610916Y-123797596D01*
X147664741Y-124071948D01*
X147665834Y-124075140D01*
X147745126Y-124306732D01*
X147755303Y-124336457D01*
X147880925Y-124586228D01*
X148039282Y-124816639D01*
X148041552Y-124819133D01*
X148041553Y-124819135D01*
X148139538Y-124926819D01*
X148227444Y-125023427D01*
X148441930Y-125202765D01*
X148678771Y-125351335D01*
X148681839Y-125352720D01*
X148681846Y-125352724D01*
X148847358Y-125427455D01*
X148933583Y-125466387D01*
X148936805Y-125467341D01*
X148936812Y-125467344D01*
X149151263Y-125530867D01*
X149201652Y-125545793D01*
X149204977Y-125546302D01*
X149204978Y-125546302D01*
X149474684Y-125587573D01*
X149474687Y-125587573D01*
X149478018Y-125588083D01*
X149481389Y-125588136D01*
X149481390Y-125588136D01*
X149529571Y-125588893D01*
X149757566Y-125592474D01*
X149760903Y-125592070D01*
X149760907Y-125592070D01*
X150031779Y-125559291D01*
X150031784Y-125559290D01*
X150035123Y-125558886D01*
X150305554Y-125487940D01*
X150471590Y-125419165D01*
X150560746Y-125382236D01*
X150560749Y-125382235D01*
X150563855Y-125380948D01*
X150566760Y-125379251D01*
X150566763Y-125379249D01*
X150802329Y-125241595D01*
X150805245Y-125239891D01*
X151025258Y-125067379D01*
X151204553Y-124882360D01*
X153958892Y-124882360D01*
X153965263Y-124889251D01*
X154020824Y-124923300D01*
X154027730Y-124926819D01*
X154245952Y-125017209D01*
X154253320Y-125019603D01*
X154483004Y-125074745D01*
X154490647Y-125075956D01*
X154726125Y-125094488D01*
X154733875Y-125094488D01*
X154969353Y-125075956D01*
X154976996Y-125074745D01*
X155206680Y-125019603D01*
X155214048Y-125017209D01*
X155432270Y-124926819D01*
X155439176Y-124923300D01*
X155493043Y-124890289D01*
X155501316Y-124880603D01*
X155496732Y-124872417D01*
X154741086Y-124116771D01*
X154729203Y-124110717D01*
X154724172Y-124111513D01*
X153964674Y-124871011D01*
X153958892Y-124882360D01*
X151204553Y-124882360D01*
X151219823Y-124866603D01*
X151256526Y-124816639D01*
X151286843Y-124775366D01*
X151385340Y-124641280D01*
X151416864Y-124583221D01*
X151517136Y-124398541D01*
X151518745Y-124395578D01*
X151556294Y-124296206D01*
X151616380Y-124137194D01*
X151616381Y-124137190D01*
X151617570Y-124134044D01*
X151644450Y-124016680D01*
X151679234Y-123864808D01*
X151679235Y-123864801D01*
X151679987Y-123861518D01*
X151704840Y-123583043D01*
X151705230Y-123545828D01*
X151705251Y-123543875D01*
X153175512Y-123543875D01*
X153194044Y-123779353D01*
X153195255Y-123786996D01*
X153250397Y-124016680D01*
X153252791Y-124024048D01*
X153343181Y-124242270D01*
X153346700Y-124249176D01*
X153379711Y-124303043D01*
X153389397Y-124311316D01*
X153397583Y-124306732D01*
X154153229Y-123551086D01*
X154158471Y-123540797D01*
X155300717Y-123540797D01*
X155301513Y-123545828D01*
X156061011Y-124305326D01*
X156072360Y-124311108D01*
X156079251Y-124304737D01*
X156113300Y-124249176D01*
X156116819Y-124242270D01*
X156207209Y-124024048D01*
X156209603Y-124016680D01*
X156264745Y-123786996D01*
X156265956Y-123779353D01*
X156284488Y-123543875D01*
X156284488Y-123536119D01*
X156265956Y-123300647D01*
X156264745Y-123293004D01*
X156209603Y-123063320D01*
X156207209Y-123055952D01*
X156116819Y-122837730D01*
X156113300Y-122830824D01*
X156080289Y-122776957D01*
X156070603Y-122768684D01*
X156062417Y-122773268D01*
X155306771Y-123528914D01*
X155300717Y-123540797D01*
X154158471Y-123540797D01*
X154159283Y-123539203D01*
X154158487Y-123534172D01*
X153398989Y-122774674D01*
X153387640Y-122768892D01*
X153380749Y-122775263D01*
X153346700Y-122830824D01*
X153343181Y-122837730D01*
X153252791Y-123055952D01*
X153250397Y-123063320D01*
X153195255Y-123293004D01*
X153194044Y-123300647D01*
X153175512Y-123536119D01*
X153175512Y-123543875D01*
X151705251Y-123543875D01*
X151705271Y-123541937D01*
X151705271Y-123541929D01*
X151705291Y-123540000D01*
X151686275Y-123261065D01*
X151629579Y-122987292D01*
X151536253Y-122723746D01*
X151524542Y-122701056D01*
X151409573Y-122478308D01*
X151409570Y-122478302D01*
X151408022Y-122475304D01*
X151247261Y-122246563D01*
X151229512Y-122227462D01*
X151203432Y-122199397D01*
X153958684Y-122199397D01*
X153963268Y-122207583D01*
X154718914Y-122963229D01*
X154730797Y-122969283D01*
X154735828Y-122968487D01*
X155495326Y-122208989D01*
X155498079Y-122203586D01*
X157759500Y-122203586D01*
X157759501Y-123540797D01*
X157759501Y-124877836D01*
X157759774Y-124882589D01*
X157760716Y-124886668D01*
X157760717Y-124886676D01*
X157792289Y-125023427D01*
X157800173Y-125057577D01*
X157878336Y-125219266D01*
X157990380Y-125359620D01*
X157994713Y-125363079D01*
X158124124Y-125466387D01*
X158130734Y-125471664D01*
X158292423Y-125549827D01*
X158297807Y-125551070D01*
X158297810Y-125551071D01*
X158384045Y-125570979D01*
X158467411Y-125590226D01*
X158472163Y-125590500D01*
X158473586Y-125590500D01*
X159814717Y-125590499D01*
X161147836Y-125590499D01*
X161152589Y-125590226D01*
X161156670Y-125589284D01*
X161156676Y-125589283D01*
X161322190Y-125551071D01*
X161322193Y-125551070D01*
X161327577Y-125549827D01*
X161489266Y-125471664D01*
X161495877Y-125466387D01*
X161625287Y-125363079D01*
X161629620Y-125359620D01*
X161741664Y-125219266D01*
X161819827Y-125057577D01*
X161860226Y-124882589D01*
X161860500Y-124877837D01*
X161860500Y-123540000D01*
X161860499Y-122203577D01*
X161860499Y-122202164D01*
X161860226Y-122197411D01*
X161859284Y-122193330D01*
X161859283Y-122193324D01*
X161821071Y-122027810D01*
X161821070Y-122027807D01*
X161819827Y-122022423D01*
X161741664Y-121860734D01*
X161734931Y-121852299D01*
X161633079Y-121724713D01*
X161629620Y-121720380D01*
X161489266Y-121608336D01*
X161472759Y-121600356D01*
X161332554Y-121532579D01*
X161327577Y-121530173D01*
X161322193Y-121528930D01*
X161322190Y-121528929D01*
X161235955Y-121509021D01*
X161152589Y-121489774D01*
X161147837Y-121489500D01*
X161146414Y-121489500D01*
X159805283Y-121489501D01*
X158472164Y-121489501D01*
X158467411Y-121489774D01*
X158463330Y-121490716D01*
X158463324Y-121490717D01*
X158297810Y-121528929D01*
X158297807Y-121528930D01*
X158292423Y-121530173D01*
X158287446Y-121532579D01*
X158147242Y-121600356D01*
X158130734Y-121608336D01*
X157990380Y-121720380D01*
X157986921Y-121724713D01*
X157885070Y-121852299D01*
X157878336Y-121860734D01*
X157800173Y-122022423D01*
X157759774Y-122197411D01*
X157759500Y-122202163D01*
X157759500Y-122203586D01*
X155498079Y-122203586D01*
X155501108Y-122197640D01*
X155494737Y-122190749D01*
X155439176Y-122156700D01*
X155432270Y-122153181D01*
X155214048Y-122062791D01*
X155206680Y-122060397D01*
X154976996Y-122005255D01*
X154969353Y-122004044D01*
X154733875Y-121985512D01*
X154726125Y-121985512D01*
X154490647Y-122004044D01*
X154483004Y-122005255D01*
X154253320Y-122060397D01*
X154245952Y-122062791D01*
X154027730Y-122153181D01*
X154020824Y-122156700D01*
X153966957Y-122189711D01*
X153958684Y-122199397D01*
X151203432Y-122199397D01*
X151059238Y-122044226D01*
X151056944Y-122041757D01*
X151033323Y-122022423D01*
X150843204Y-121866814D01*
X150840591Y-121864675D01*
X150602208Y-121718594D01*
X150598397Y-121716921D01*
X150349288Y-121607569D01*
X150349284Y-121607567D01*
X150346205Y-121606216D01*
X150296917Y-121592176D01*
X150080571Y-121530548D01*
X150080566Y-121530547D01*
X150077319Y-121529622D01*
X149800526Y-121490229D01*
X149797159Y-121490211D01*
X149797154Y-121490211D01*
X149672187Y-121489557D01*
X149520947Y-121488765D01*
X149243757Y-121525257D01*
X149240506Y-121526146D01*
X149240503Y-121526147D01*
X149216992Y-121532579D01*
X148974083Y-121599032D01*
X148716917Y-121708722D01*
X148714018Y-121710457D01*
X148702683Y-121717241D01*
X148477018Y-121852299D01*
X148258823Y-122027106D01*
X148256499Y-122029555D01*
X148087557Y-122207583D01*
X148066371Y-122229908D01*
X148064406Y-122232643D01*
X148064404Y-122232645D01*
X148052421Y-122249322D01*
X147903223Y-122456952D01*
X147772398Y-122704038D01*
X147676317Y-122966592D01*
X147616757Y-123239757D01*
X147594822Y-123518477D01*
X146587191Y-123518477D01*
X146572189Y-92545053D01*
X149540042Y-92545053D01*
X149553535Y-92779071D01*
X149554427Y-92783028D01*
X149575886Y-92878247D01*
X149605069Y-93007743D01*
X149606598Y-93011507D01*
X149606599Y-93011512D01*
X149646673Y-93110202D01*
X149693259Y-93224928D01*
X149695383Y-93228394D01*
X149695385Y-93228398D01*
X149751521Y-93320003D01*
X149815736Y-93424793D01*
X149818395Y-93427863D01*
X149818396Y-93427864D01*
X149889481Y-93509927D01*
X149969212Y-93601971D01*
X150149565Y-93751703D01*
X150351951Y-93869968D01*
X150570935Y-93953590D01*
X150574910Y-93954399D01*
X150574911Y-93954399D01*
X150796654Y-93999513D01*
X150796658Y-93999513D01*
X150800637Y-94000323D01*
X150804697Y-94000472D01*
X150804698Y-94000472D01*
X150845311Y-94001961D01*
X151034887Y-94008913D01*
X151038906Y-94008398D01*
X151038910Y-94008398D01*
X151263362Y-93979645D01*
X151263368Y-93979644D01*
X151267394Y-93979128D01*
X151271287Y-93977960D01*
X151271292Y-93977959D01*
X151430542Y-93930181D01*
X151491914Y-93911768D01*
X151602707Y-93857491D01*
X151698771Y-93810430D01*
X151698774Y-93810428D01*
X151702418Y-93808643D01*
X151893253Y-93672522D01*
X152059293Y-93507061D01*
X152133616Y-93403630D01*
X152137960Y-93397585D01*
X152187271Y-93361363D01*
X152248456Y-93361043D01*
X152298143Y-93396747D01*
X152302761Y-93403619D01*
X152315736Y-93424793D01*
X152318395Y-93427863D01*
X152318396Y-93427864D01*
X152389481Y-93509927D01*
X152469212Y-93601971D01*
X152649565Y-93751703D01*
X152851951Y-93869968D01*
X153070935Y-93953590D01*
X153074910Y-93954399D01*
X153074911Y-93954399D01*
X153296654Y-93999513D01*
X153296658Y-93999513D01*
X153300637Y-94000323D01*
X153304697Y-94000472D01*
X153304698Y-94000472D01*
X153345311Y-94001961D01*
X153534887Y-94008913D01*
X153538906Y-94008398D01*
X153538910Y-94008398D01*
X153763362Y-93979645D01*
X153763368Y-93979644D01*
X153767394Y-93979128D01*
X153771287Y-93977960D01*
X153771292Y-93977959D01*
X153930542Y-93930181D01*
X153991914Y-93911768D01*
X154102707Y-93857491D01*
X154198771Y-93810430D01*
X154198774Y-93810428D01*
X154202418Y-93808643D01*
X154393253Y-93672522D01*
X154559293Y-93507061D01*
X154633616Y-93403630D01*
X154637960Y-93397585D01*
X154687271Y-93361363D01*
X154748456Y-93361043D01*
X154798143Y-93396747D01*
X154802761Y-93403619D01*
X154815736Y-93424793D01*
X154818395Y-93427863D01*
X154818396Y-93427864D01*
X154889481Y-93509927D01*
X154969212Y-93601971D01*
X155149565Y-93751703D01*
X155351951Y-93869968D01*
X155570935Y-93953590D01*
X155574910Y-93954399D01*
X155574911Y-93954399D01*
X155796654Y-93999513D01*
X155796658Y-93999513D01*
X155800637Y-94000323D01*
X155804697Y-94000472D01*
X155804698Y-94000472D01*
X155845311Y-94001961D01*
X156034887Y-94008913D01*
X156038906Y-94008398D01*
X156038910Y-94008398D01*
X156263362Y-93979645D01*
X156263368Y-93979644D01*
X156267394Y-93979128D01*
X156271287Y-93977960D01*
X156271292Y-93977959D01*
X156430542Y-93930181D01*
X156491914Y-93911768D01*
X156602707Y-93857491D01*
X156698771Y-93810430D01*
X156698774Y-93810428D01*
X156702418Y-93808643D01*
X156893253Y-93672522D01*
X157059293Y-93507061D01*
X157133616Y-93403630D01*
X157137960Y-93397585D01*
X157187271Y-93361363D01*
X157248456Y-93361043D01*
X157298143Y-93396747D01*
X157302761Y-93403619D01*
X157315736Y-93424793D01*
X157318395Y-93427863D01*
X157318396Y-93427864D01*
X157389481Y-93509927D01*
X157469212Y-93601971D01*
X157649565Y-93751703D01*
X157851951Y-93869968D01*
X158070935Y-93953590D01*
X158074910Y-93954399D01*
X158074911Y-93954399D01*
X158296654Y-93999513D01*
X158296658Y-93999513D01*
X158300637Y-94000323D01*
X158304697Y-94000472D01*
X158304698Y-94000472D01*
X158345311Y-94001961D01*
X158534887Y-94008913D01*
X158538906Y-94008398D01*
X158538910Y-94008398D01*
X158763362Y-93979645D01*
X158763368Y-93979644D01*
X158767394Y-93979128D01*
X158771287Y-93977960D01*
X158771292Y-93977959D01*
X158930542Y-93930181D01*
X158991914Y-93911768D01*
X159102707Y-93857491D01*
X159198771Y-93810430D01*
X159198774Y-93810428D01*
X159202418Y-93808643D01*
X159393253Y-93672522D01*
X159559293Y-93507061D01*
X159633616Y-93403630D01*
X159693708Y-93320003D01*
X159693709Y-93320001D01*
X159696079Y-93316703D01*
X159697877Y-93313065D01*
X159697880Y-93313060D01*
X159798138Y-93110202D01*
X159799938Y-93106560D01*
X159801116Y-93102684D01*
X159801118Y-93102678D01*
X159866901Y-92886160D01*
X159866901Y-92886159D01*
X159868081Y-92882276D01*
X159898677Y-92649874D01*
X159900385Y-92580000D01*
X159881178Y-92346381D01*
X159872536Y-92311973D01*
X159825064Y-92122982D01*
X159824073Y-92119036D01*
X159730603Y-91904070D01*
X159603279Y-91707258D01*
X159445520Y-91533883D01*
X159442334Y-91531367D01*
X159442331Y-91531364D01*
X159264751Y-91391119D01*
X159264745Y-91391115D01*
X159261563Y-91388602D01*
X159056348Y-91275317D01*
X159052517Y-91273960D01*
X159052514Y-91273959D01*
X158839222Y-91198428D01*
X158839218Y-91198427D01*
X158835386Y-91197070D01*
X158732192Y-91178688D01*
X158678220Y-91149870D01*
X158651494Y-91094830D01*
X158662223Y-91034593D01*
X158706310Y-90992167D01*
X158736974Y-90983026D01*
X158763351Y-90979647D01*
X158763364Y-90979644D01*
X158767394Y-90979128D01*
X158771287Y-90977960D01*
X158771292Y-90977959D01*
X158930542Y-90930181D01*
X158991914Y-90911768D01*
X159102707Y-90857491D01*
X159198771Y-90810430D01*
X159198774Y-90810428D01*
X159202418Y-90808643D01*
X159393253Y-90672522D01*
X159559293Y-90507061D01*
X159633616Y-90403630D01*
X159693708Y-90320003D01*
X159693709Y-90320001D01*
X159696079Y-90316703D01*
X159697877Y-90313065D01*
X159697880Y-90313060D01*
X159798138Y-90110202D01*
X159799938Y-90106560D01*
X159801116Y-90102684D01*
X159801118Y-90102678D01*
X159866901Y-89886160D01*
X159866901Y-89886159D01*
X159868081Y-89882276D01*
X159898677Y-89649874D01*
X159900385Y-89580000D01*
X159881178Y-89346381D01*
X159872536Y-89311973D01*
X159825064Y-89122982D01*
X159824073Y-89119036D01*
X159730603Y-88904070D01*
X159603279Y-88707258D01*
X159445520Y-88533883D01*
X159442334Y-88531367D01*
X159442331Y-88531364D01*
X159264751Y-88391119D01*
X159264745Y-88391115D01*
X159261563Y-88388602D01*
X159056348Y-88275317D01*
X159052517Y-88273960D01*
X159052514Y-88273959D01*
X158839222Y-88198428D01*
X158839218Y-88198427D01*
X158835386Y-88197070D01*
X158696955Y-88172412D01*
X158642982Y-88143593D01*
X158616256Y-88088553D01*
X158626985Y-88028316D01*
X158671072Y-87985890D01*
X158693733Y-87978109D01*
X158752341Y-87965651D01*
X158762153Y-87962463D01*
X158764869Y-87961254D01*
X158772616Y-87954279D01*
X158767164Y-87942849D01*
X158481088Y-87656774D01*
X158469202Y-87650718D01*
X158464171Y-87651514D01*
X158171897Y-87943788D01*
X158167163Y-87953079D01*
X158176349Y-87961796D01*
X158177847Y-87962463D01*
X158187657Y-87965651D01*
X158246591Y-87978178D01*
X158299579Y-88008771D01*
X158324465Y-88064667D01*
X158311743Y-88124515D01*
X158266273Y-88165456D01*
X158240985Y-88172875D01*
X158138511Y-88188556D01*
X158018379Y-88227821D01*
X157919561Y-88260120D01*
X157919557Y-88260121D01*
X157915704Y-88261381D01*
X157912104Y-88263255D01*
X157711387Y-88367741D01*
X157711384Y-88367743D01*
X157707782Y-88369618D01*
X157704540Y-88372053D01*
X157704534Y-88372056D01*
X157679145Y-88391119D01*
X157520330Y-88510361D01*
X157358382Y-88679830D01*
X157356090Y-88683190D01*
X157302312Y-88762025D01*
X157253900Y-88799442D01*
X157192742Y-88801257D01*
X157142197Y-88766777D01*
X157137418Y-88760028D01*
X157103279Y-88707258D01*
X156945520Y-88533883D01*
X156942334Y-88531367D01*
X156942331Y-88531364D01*
X156764751Y-88391119D01*
X156764745Y-88391115D01*
X156761563Y-88388602D01*
X156556348Y-88275317D01*
X156552517Y-88273960D01*
X156552514Y-88273959D01*
X156339222Y-88198428D01*
X156339218Y-88198427D01*
X156335386Y-88197070D01*
X156196955Y-88172412D01*
X156142982Y-88143593D01*
X156116256Y-88088553D01*
X156126985Y-88028316D01*
X156171072Y-87985890D01*
X156193733Y-87978109D01*
X156252341Y-87965651D01*
X156262153Y-87962463D01*
X156264869Y-87961254D01*
X156272616Y-87954279D01*
X156267164Y-87942849D01*
X155981088Y-87656774D01*
X155969202Y-87650718D01*
X155964171Y-87651514D01*
X155671897Y-87943788D01*
X155667163Y-87953079D01*
X155676349Y-87961796D01*
X155677847Y-87962463D01*
X155687657Y-87965651D01*
X155746591Y-87978178D01*
X155799579Y-88008771D01*
X155824465Y-88064667D01*
X155811743Y-88124515D01*
X155766273Y-88165456D01*
X155740985Y-88172875D01*
X155638511Y-88188556D01*
X155518379Y-88227821D01*
X155419561Y-88260120D01*
X155419557Y-88260121D01*
X155415704Y-88261381D01*
X155412104Y-88263255D01*
X155211387Y-88367741D01*
X155211384Y-88367743D01*
X155207782Y-88369618D01*
X155204540Y-88372053D01*
X155204534Y-88372056D01*
X155179145Y-88391119D01*
X155020330Y-88510361D01*
X154858382Y-88679830D01*
X154856090Y-88683190D01*
X154802312Y-88762025D01*
X154753900Y-88799442D01*
X154692742Y-88801257D01*
X154642197Y-88766777D01*
X154637418Y-88760028D01*
X154603279Y-88707258D01*
X154445520Y-88533883D01*
X154442334Y-88531367D01*
X154442331Y-88531364D01*
X154264751Y-88391119D01*
X154264745Y-88391115D01*
X154261563Y-88388602D01*
X154056348Y-88275317D01*
X154052517Y-88273960D01*
X154052514Y-88273959D01*
X153839222Y-88198428D01*
X153839218Y-88198427D01*
X153835386Y-88197070D01*
X153696955Y-88172412D01*
X153642982Y-88143593D01*
X153616256Y-88088553D01*
X153626985Y-88028316D01*
X153671072Y-87985890D01*
X153693733Y-87978109D01*
X153752341Y-87965651D01*
X153762153Y-87962463D01*
X153764869Y-87961254D01*
X153772616Y-87954279D01*
X153767164Y-87942849D01*
X153481088Y-87656774D01*
X153469202Y-87650718D01*
X153464171Y-87651514D01*
X153171897Y-87943788D01*
X153167163Y-87953079D01*
X153176349Y-87961796D01*
X153177847Y-87962463D01*
X153187657Y-87965651D01*
X153246591Y-87978178D01*
X153299579Y-88008771D01*
X153324465Y-88064667D01*
X153311743Y-88124515D01*
X153266273Y-88165456D01*
X153240985Y-88172875D01*
X153138511Y-88188556D01*
X153018379Y-88227821D01*
X152919561Y-88260120D01*
X152919557Y-88260121D01*
X152915704Y-88261381D01*
X152912104Y-88263255D01*
X152711387Y-88367741D01*
X152711384Y-88367743D01*
X152707782Y-88369618D01*
X152704540Y-88372053D01*
X152704534Y-88372056D01*
X152679145Y-88391119D01*
X152520330Y-88510361D01*
X152358382Y-88679830D01*
X152356090Y-88683190D01*
X152302312Y-88762025D01*
X152253900Y-88799442D01*
X152192742Y-88801257D01*
X152142197Y-88766777D01*
X152137418Y-88760028D01*
X152103279Y-88707258D01*
X151945520Y-88533883D01*
X151942334Y-88531367D01*
X151942331Y-88531364D01*
X151764751Y-88391119D01*
X151764745Y-88391115D01*
X151761563Y-88388602D01*
X151556348Y-88275317D01*
X151552517Y-88273960D01*
X151552514Y-88273959D01*
X151339222Y-88198428D01*
X151339218Y-88198427D01*
X151335386Y-88197070D01*
X151196955Y-88172412D01*
X151142982Y-88143593D01*
X151116256Y-88088553D01*
X151126985Y-88028316D01*
X151171072Y-87985890D01*
X151193733Y-87978109D01*
X151252341Y-87965651D01*
X151262153Y-87962463D01*
X151264869Y-87961254D01*
X151272616Y-87954279D01*
X151267164Y-87942849D01*
X150981088Y-87656774D01*
X150969202Y-87650718D01*
X150964171Y-87651514D01*
X150671897Y-87943788D01*
X150667163Y-87953079D01*
X150676349Y-87961796D01*
X150677847Y-87962463D01*
X150687657Y-87965651D01*
X150746591Y-87978178D01*
X150799579Y-88008771D01*
X150824465Y-88064667D01*
X150811743Y-88124515D01*
X150766273Y-88165456D01*
X150740985Y-88172875D01*
X150638511Y-88188556D01*
X150518379Y-88227821D01*
X150419561Y-88260120D01*
X150419557Y-88260121D01*
X150415704Y-88261381D01*
X150412104Y-88263255D01*
X150211387Y-88367741D01*
X150211384Y-88367743D01*
X150207782Y-88369618D01*
X150204540Y-88372053D01*
X150204534Y-88372056D01*
X150179145Y-88391119D01*
X150020330Y-88510361D01*
X149858382Y-88679830D01*
X149726287Y-88873473D01*
X149627594Y-89086091D01*
X149564951Y-89311973D01*
X149540042Y-89545053D01*
X149553535Y-89779071D01*
X149554427Y-89783028D01*
X149575886Y-89878247D01*
X149605069Y-90007743D01*
X149606598Y-90011507D01*
X149606599Y-90011512D01*
X149646673Y-90110202D01*
X149693259Y-90224928D01*
X149695383Y-90228394D01*
X149695385Y-90228398D01*
X149751521Y-90320003D01*
X149815736Y-90424793D01*
X149818395Y-90427863D01*
X149818396Y-90427864D01*
X149889481Y-90509927D01*
X149969212Y-90601971D01*
X150149565Y-90751703D01*
X150351951Y-90869968D01*
X150570935Y-90953590D01*
X150714457Y-90982790D01*
X150767709Y-91012918D01*
X150793083Y-91068594D01*
X150780884Y-91128552D01*
X150735774Y-91169888D01*
X150709694Y-91177663D01*
X150662923Y-91184820D01*
X150638511Y-91188556D01*
X150518379Y-91227821D01*
X150419561Y-91260120D01*
X150419557Y-91260121D01*
X150415704Y-91261381D01*
X150412104Y-91263255D01*
X150211387Y-91367741D01*
X150211384Y-91367743D01*
X150207782Y-91369618D01*
X150204540Y-91372053D01*
X150204534Y-91372056D01*
X150179145Y-91391119D01*
X150020330Y-91510361D01*
X149858382Y-91679830D01*
X149726287Y-91873473D01*
X149627594Y-92086091D01*
X149564951Y-92311973D01*
X149540042Y-92545053D01*
X146572189Y-92545053D01*
X146569966Y-87954279D01*
X146569545Y-87085157D01*
X150040447Y-87085157D01*
X150059688Y-87268220D01*
X150061832Y-87278310D01*
X150092344Y-87372212D01*
X150099040Y-87381429D01*
X150104736Y-87379578D01*
X150393228Y-87091086D01*
X150398470Y-87080797D01*
X151540718Y-87080797D01*
X151541514Y-87085828D01*
X151831725Y-87376039D01*
X151841873Y-87381210D01*
X151846109Y-87376974D01*
X151878168Y-87278310D01*
X151880312Y-87268220D01*
X151899553Y-87085157D01*
X152540447Y-87085157D01*
X152559688Y-87268220D01*
X152561832Y-87278310D01*
X152592344Y-87372212D01*
X152599040Y-87381429D01*
X152604736Y-87379578D01*
X152893228Y-87091086D01*
X152898470Y-87080797D01*
X154040718Y-87080797D01*
X154041514Y-87085828D01*
X154331725Y-87376039D01*
X154341873Y-87381210D01*
X154346109Y-87376974D01*
X154378168Y-87278310D01*
X154380312Y-87268220D01*
X154399553Y-87085157D01*
X155040447Y-87085157D01*
X155059688Y-87268220D01*
X155061832Y-87278310D01*
X155092344Y-87372212D01*
X155099040Y-87381429D01*
X155104736Y-87379578D01*
X155393228Y-87091086D01*
X155398470Y-87080797D01*
X156540718Y-87080797D01*
X156541514Y-87085828D01*
X156831725Y-87376039D01*
X156841873Y-87381210D01*
X156846109Y-87376974D01*
X156878168Y-87278310D01*
X156880312Y-87268220D01*
X156899553Y-87085157D01*
X157540447Y-87085157D01*
X157559688Y-87268220D01*
X157561832Y-87278310D01*
X157592344Y-87372212D01*
X157599040Y-87381429D01*
X157604736Y-87379578D01*
X157893228Y-87091086D01*
X157898470Y-87080797D01*
X159040718Y-87080797D01*
X159041514Y-87085828D01*
X159331725Y-87376039D01*
X159341873Y-87381210D01*
X159346109Y-87376974D01*
X159378168Y-87278310D01*
X159380312Y-87268220D01*
X159399553Y-87085157D01*
X159399553Y-87074843D01*
X159380312Y-86891780D01*
X159378168Y-86881690D01*
X159347656Y-86787788D01*
X159340960Y-86778571D01*
X159335264Y-86780422D01*
X159046772Y-87068914D01*
X159040718Y-87080797D01*
X157898470Y-87080797D01*
X157899282Y-87079203D01*
X157898486Y-87074172D01*
X157608275Y-86783961D01*
X157598127Y-86778790D01*
X157593891Y-86783026D01*
X157561832Y-86881690D01*
X157559688Y-86891780D01*
X157540447Y-87074843D01*
X157540447Y-87085157D01*
X156899553Y-87085157D01*
X156899553Y-87074843D01*
X156880312Y-86891780D01*
X156878168Y-86881690D01*
X156847656Y-86787788D01*
X156840960Y-86778571D01*
X156835264Y-86780422D01*
X156546772Y-87068914D01*
X156540718Y-87080797D01*
X155398470Y-87080797D01*
X155399282Y-87079203D01*
X155398486Y-87074172D01*
X155108275Y-86783961D01*
X155098127Y-86778790D01*
X155093891Y-86783026D01*
X155061832Y-86881690D01*
X155059688Y-86891780D01*
X155040447Y-87074843D01*
X155040447Y-87085157D01*
X154399553Y-87085157D01*
X154399553Y-87074843D01*
X154380312Y-86891780D01*
X154378168Y-86881690D01*
X154347656Y-86787788D01*
X154340960Y-86778571D01*
X154335264Y-86780422D01*
X154046772Y-87068914D01*
X154040718Y-87080797D01*
X152898470Y-87080797D01*
X152899282Y-87079203D01*
X152898486Y-87074172D01*
X152608275Y-86783961D01*
X152598127Y-86778790D01*
X152593891Y-86783026D01*
X152561832Y-86881690D01*
X152559688Y-86891780D01*
X152540447Y-87074843D01*
X152540447Y-87085157D01*
X151899553Y-87085157D01*
X151899553Y-87074843D01*
X151880312Y-86891780D01*
X151878168Y-86881690D01*
X151847656Y-86787788D01*
X151840960Y-86778571D01*
X151835264Y-86780422D01*
X151546772Y-87068914D01*
X151540718Y-87080797D01*
X150398470Y-87080797D01*
X150399282Y-87079203D01*
X150398486Y-87074172D01*
X150108275Y-86783961D01*
X150098127Y-86778790D01*
X150093891Y-86783026D01*
X150061832Y-86881690D01*
X150059688Y-86891780D01*
X150040447Y-87074843D01*
X150040447Y-87085157D01*
X146569545Y-87085157D01*
X146569119Y-86205721D01*
X150667384Y-86205721D01*
X150672836Y-86217151D01*
X150958912Y-86503226D01*
X150970798Y-86509282D01*
X150975829Y-86508486D01*
X151268103Y-86216212D01*
X151272837Y-86206921D01*
X151271572Y-86205721D01*
X153167384Y-86205721D01*
X153172836Y-86217151D01*
X153458912Y-86503226D01*
X153470798Y-86509282D01*
X153475829Y-86508486D01*
X153768103Y-86216212D01*
X153772837Y-86206921D01*
X153771572Y-86205721D01*
X155667384Y-86205721D01*
X155672836Y-86217151D01*
X155958912Y-86503226D01*
X155970798Y-86509282D01*
X155975829Y-86508486D01*
X156268103Y-86216212D01*
X156272837Y-86206921D01*
X156271572Y-86205721D01*
X158167384Y-86205721D01*
X158172836Y-86217151D01*
X158458912Y-86503226D01*
X158470798Y-86509282D01*
X158475829Y-86508486D01*
X158768103Y-86216212D01*
X158772837Y-86206921D01*
X158763651Y-86198204D01*
X158762153Y-86197537D01*
X158752341Y-86194349D01*
X158572295Y-86156079D01*
X158562032Y-86155000D01*
X158377968Y-86155000D01*
X158367705Y-86156079D01*
X158187659Y-86194349D01*
X158177847Y-86197537D01*
X158175131Y-86198746D01*
X158167384Y-86205721D01*
X156271572Y-86205721D01*
X156263651Y-86198204D01*
X156262153Y-86197537D01*
X156252341Y-86194349D01*
X156072295Y-86156079D01*
X156062032Y-86155000D01*
X155877968Y-86155000D01*
X155867705Y-86156079D01*
X155687659Y-86194349D01*
X155677847Y-86197537D01*
X155675131Y-86198746D01*
X155667384Y-86205721D01*
X153771572Y-86205721D01*
X153763651Y-86198204D01*
X153762153Y-86197537D01*
X153752341Y-86194349D01*
X153572295Y-86156079D01*
X153562032Y-86155000D01*
X153377968Y-86155000D01*
X153367705Y-86156079D01*
X153187659Y-86194349D01*
X153177847Y-86197537D01*
X153175131Y-86198746D01*
X153167384Y-86205721D01*
X151271572Y-86205721D01*
X151263651Y-86198204D01*
X151262153Y-86197537D01*
X151252341Y-86194349D01*
X151072295Y-86156079D01*
X151062032Y-86155000D01*
X150877968Y-86155000D01*
X150867705Y-86156079D01*
X150687659Y-86194349D01*
X150677847Y-86197537D01*
X150675131Y-86198746D01*
X150667384Y-86205721D01*
X146569119Y-86205721D01*
X146568512Y-84953079D01*
X150667163Y-84953079D01*
X150676349Y-84961796D01*
X150677847Y-84962463D01*
X150687659Y-84965651D01*
X150867705Y-85003921D01*
X150877968Y-85005000D01*
X151062032Y-85005000D01*
X151072295Y-85003921D01*
X151252341Y-84965651D01*
X151262153Y-84962463D01*
X151264869Y-84961254D01*
X151272616Y-84954279D01*
X151272044Y-84953079D01*
X153167163Y-84953079D01*
X153176349Y-84961796D01*
X153177847Y-84962463D01*
X153187659Y-84965651D01*
X153367705Y-85003921D01*
X153377968Y-85005000D01*
X153562032Y-85005000D01*
X153572295Y-85003921D01*
X153752341Y-84965651D01*
X153762153Y-84962463D01*
X153764869Y-84961254D01*
X153772616Y-84954279D01*
X153772044Y-84953079D01*
X155667163Y-84953079D01*
X155676349Y-84961796D01*
X155677847Y-84962463D01*
X155687659Y-84965651D01*
X155867705Y-85003921D01*
X155877968Y-85005000D01*
X156062032Y-85005000D01*
X156072295Y-85003921D01*
X156252341Y-84965651D01*
X156262153Y-84962463D01*
X156264869Y-84961254D01*
X156272616Y-84954279D01*
X156272044Y-84953079D01*
X158167163Y-84953079D01*
X158176349Y-84961796D01*
X158177847Y-84962463D01*
X158187659Y-84965651D01*
X158367705Y-85003921D01*
X158377968Y-85005000D01*
X158562032Y-85005000D01*
X158572295Y-85003921D01*
X158752341Y-84965651D01*
X158762153Y-84962463D01*
X158764869Y-84961254D01*
X158772616Y-84954279D01*
X158767164Y-84942849D01*
X158481088Y-84656774D01*
X158469202Y-84650718D01*
X158464171Y-84651514D01*
X158171897Y-84943788D01*
X158167163Y-84953079D01*
X156272044Y-84953079D01*
X156267164Y-84942849D01*
X155981088Y-84656774D01*
X155969202Y-84650718D01*
X155964171Y-84651514D01*
X155671897Y-84943788D01*
X155667163Y-84953079D01*
X153772044Y-84953079D01*
X153767164Y-84942849D01*
X153481088Y-84656774D01*
X153469202Y-84650718D01*
X153464171Y-84651514D01*
X153171897Y-84943788D01*
X153167163Y-84953079D01*
X151272044Y-84953079D01*
X151267164Y-84942849D01*
X150981088Y-84656774D01*
X150969202Y-84650718D01*
X150964171Y-84651514D01*
X150671897Y-84943788D01*
X150667163Y-84953079D01*
X146568512Y-84953079D01*
X146568092Y-84085157D01*
X150040447Y-84085157D01*
X150059688Y-84268220D01*
X150061832Y-84278310D01*
X150092344Y-84372212D01*
X150099040Y-84381429D01*
X150104736Y-84379578D01*
X150393228Y-84091086D01*
X150398470Y-84080797D01*
X151540718Y-84080797D01*
X151541514Y-84085828D01*
X151831725Y-84376039D01*
X151841873Y-84381210D01*
X151846109Y-84376974D01*
X151878168Y-84278310D01*
X151880312Y-84268220D01*
X151899553Y-84085157D01*
X152540447Y-84085157D01*
X152559688Y-84268220D01*
X152561832Y-84278310D01*
X152592344Y-84372212D01*
X152599040Y-84381429D01*
X152604736Y-84379578D01*
X152893228Y-84091086D01*
X152898470Y-84080797D01*
X154040718Y-84080797D01*
X154041514Y-84085828D01*
X154331725Y-84376039D01*
X154341873Y-84381210D01*
X154346109Y-84376974D01*
X154378168Y-84278310D01*
X154380312Y-84268220D01*
X154399553Y-84085157D01*
X155040447Y-84085157D01*
X155059688Y-84268220D01*
X155061832Y-84278310D01*
X155092344Y-84372212D01*
X155099040Y-84381429D01*
X155104736Y-84379578D01*
X155393228Y-84091086D01*
X155398470Y-84080797D01*
X156540718Y-84080797D01*
X156541514Y-84085828D01*
X156831725Y-84376039D01*
X156841873Y-84381210D01*
X156846109Y-84376974D01*
X156878168Y-84278310D01*
X156880312Y-84268220D01*
X156899553Y-84085157D01*
X157540447Y-84085157D01*
X157559688Y-84268220D01*
X157561832Y-84278310D01*
X157592344Y-84372212D01*
X157599040Y-84381429D01*
X157604736Y-84379578D01*
X157893228Y-84091086D01*
X157898470Y-84080797D01*
X159040718Y-84080797D01*
X159041514Y-84085828D01*
X159331725Y-84376039D01*
X159341873Y-84381210D01*
X159346109Y-84376974D01*
X159378168Y-84278310D01*
X159380312Y-84268220D01*
X159399553Y-84085157D01*
X159399553Y-84074843D01*
X159380312Y-83891780D01*
X159378168Y-83881690D01*
X159347656Y-83787788D01*
X159340960Y-83778571D01*
X159335264Y-83780422D01*
X159046772Y-84068914D01*
X159040718Y-84080797D01*
X157898470Y-84080797D01*
X157899282Y-84079203D01*
X157898486Y-84074172D01*
X157608275Y-83783961D01*
X157598127Y-83778790D01*
X157593891Y-83783026D01*
X157561832Y-83881690D01*
X157559688Y-83891780D01*
X157540447Y-84074843D01*
X157540447Y-84085157D01*
X156899553Y-84085157D01*
X156899553Y-84074843D01*
X156880312Y-83891780D01*
X156878168Y-83881690D01*
X156847656Y-83787788D01*
X156840960Y-83778571D01*
X156835264Y-83780422D01*
X156546772Y-84068914D01*
X156540718Y-84080797D01*
X155398470Y-84080797D01*
X155399282Y-84079203D01*
X155398486Y-84074172D01*
X155108275Y-83783961D01*
X155098127Y-83778790D01*
X155093891Y-83783026D01*
X155061832Y-83881690D01*
X155059688Y-83891780D01*
X155040447Y-84074843D01*
X155040447Y-84085157D01*
X154399553Y-84085157D01*
X154399553Y-84074843D01*
X154380312Y-83891780D01*
X154378168Y-83881690D01*
X154347656Y-83787788D01*
X154340960Y-83778571D01*
X154335264Y-83780422D01*
X154046772Y-84068914D01*
X154040718Y-84080797D01*
X152898470Y-84080797D01*
X152899282Y-84079203D01*
X152898486Y-84074172D01*
X152608275Y-83783961D01*
X152598127Y-83778790D01*
X152593891Y-83783026D01*
X152561832Y-83881690D01*
X152559688Y-83891780D01*
X152540447Y-84074843D01*
X152540447Y-84085157D01*
X151899553Y-84085157D01*
X151899553Y-84074843D01*
X151880312Y-83891780D01*
X151878168Y-83881690D01*
X151847656Y-83787788D01*
X151840960Y-83778571D01*
X151835264Y-83780422D01*
X151546772Y-84068914D01*
X151540718Y-84080797D01*
X150398470Y-84080797D01*
X150399282Y-84079203D01*
X150398486Y-84074172D01*
X150108275Y-83783961D01*
X150098127Y-83778790D01*
X150093891Y-83783026D01*
X150061832Y-83881690D01*
X150059688Y-83891780D01*
X150040447Y-84074843D01*
X150040447Y-84085157D01*
X146568092Y-84085157D01*
X146566862Y-81545053D01*
X149540042Y-81545053D01*
X149553535Y-81779071D01*
X149554427Y-81783028D01*
X149575886Y-81878247D01*
X149605069Y-82007743D01*
X149606598Y-82011507D01*
X149606599Y-82011512D01*
X149646673Y-82110202D01*
X149693259Y-82224928D01*
X149695383Y-82228394D01*
X149695385Y-82228398D01*
X149751521Y-82320003D01*
X149815736Y-82424793D01*
X149818395Y-82427863D01*
X149818396Y-82427864D01*
X149889481Y-82509927D01*
X149969212Y-82601971D01*
X150149565Y-82751703D01*
X150351951Y-82869968D01*
X150570935Y-82953590D01*
X150574910Y-82954399D01*
X150574911Y-82954399D01*
X150742901Y-82988577D01*
X150796155Y-83018707D01*
X150821528Y-83074383D01*
X150809329Y-83134340D01*
X150764219Y-83175676D01*
X150743747Y-83182427D01*
X150687659Y-83194349D01*
X150677847Y-83197537D01*
X150675131Y-83198746D01*
X150667384Y-83205721D01*
X150672836Y-83217151D01*
X150958912Y-83503226D01*
X150970798Y-83509282D01*
X150975829Y-83508486D01*
X151268103Y-83216212D01*
X151272837Y-83206921D01*
X151263651Y-83198204D01*
X151262153Y-83197537D01*
X151252341Y-83194348D01*
X151195738Y-83182317D01*
X151142750Y-83151724D01*
X151117863Y-83095828D01*
X151130585Y-83035980D01*
X151176054Y-82995039D01*
X151203742Y-82987282D01*
X151263362Y-82979645D01*
X151263368Y-82979644D01*
X151267394Y-82979128D01*
X151271287Y-82977960D01*
X151271292Y-82977959D01*
X151430542Y-82930181D01*
X151491914Y-82911768D01*
X151602707Y-82857491D01*
X151698771Y-82810430D01*
X151698774Y-82810428D01*
X151702418Y-82808643D01*
X151893253Y-82672522D01*
X152059293Y-82507061D01*
X152133616Y-82403630D01*
X152137960Y-82397585D01*
X152187271Y-82361363D01*
X152248456Y-82361043D01*
X152298143Y-82396747D01*
X152302761Y-82403619D01*
X152315736Y-82424793D01*
X152318395Y-82427863D01*
X152318396Y-82427864D01*
X152389481Y-82509927D01*
X152469212Y-82601971D01*
X152649565Y-82751703D01*
X152851951Y-82869968D01*
X153070935Y-82953590D01*
X153074910Y-82954399D01*
X153074911Y-82954399D01*
X153242901Y-82988577D01*
X153296155Y-83018707D01*
X153321528Y-83074383D01*
X153309329Y-83134340D01*
X153264219Y-83175676D01*
X153243747Y-83182427D01*
X153187659Y-83194349D01*
X153177847Y-83197537D01*
X153175131Y-83198746D01*
X153167384Y-83205721D01*
X153172836Y-83217151D01*
X153458912Y-83503226D01*
X153470798Y-83509282D01*
X153475829Y-83508486D01*
X153768103Y-83216212D01*
X153772837Y-83206921D01*
X153763651Y-83198204D01*
X153762153Y-83197537D01*
X153752341Y-83194348D01*
X153695738Y-83182317D01*
X153642750Y-83151724D01*
X153617863Y-83095828D01*
X153630585Y-83035980D01*
X153676054Y-82995039D01*
X153703742Y-82987282D01*
X153763362Y-82979645D01*
X153763368Y-82979644D01*
X153767394Y-82979128D01*
X153771287Y-82977960D01*
X153771292Y-82977959D01*
X153930542Y-82930181D01*
X153991914Y-82911768D01*
X154102707Y-82857491D01*
X154198771Y-82810430D01*
X154198774Y-82810428D01*
X154202418Y-82808643D01*
X154393253Y-82672522D01*
X154559293Y-82507061D01*
X154633616Y-82403630D01*
X154637960Y-82397585D01*
X154687271Y-82361363D01*
X154748456Y-82361043D01*
X154798143Y-82396747D01*
X154802761Y-82403619D01*
X154815736Y-82424793D01*
X154818395Y-82427863D01*
X154818396Y-82427864D01*
X154889481Y-82509927D01*
X154969212Y-82601971D01*
X155149565Y-82751703D01*
X155351951Y-82869968D01*
X155570935Y-82953590D01*
X155574910Y-82954399D01*
X155574911Y-82954399D01*
X155742901Y-82988577D01*
X155796155Y-83018707D01*
X155821528Y-83074383D01*
X155809329Y-83134340D01*
X155764219Y-83175676D01*
X155743747Y-83182427D01*
X155687659Y-83194349D01*
X155677847Y-83197537D01*
X155675131Y-83198746D01*
X155667384Y-83205721D01*
X155672836Y-83217151D01*
X155958912Y-83503226D01*
X155970798Y-83509282D01*
X155975829Y-83508486D01*
X156268103Y-83216212D01*
X156272837Y-83206921D01*
X156263651Y-83198204D01*
X156262153Y-83197537D01*
X156252341Y-83194348D01*
X156195738Y-83182317D01*
X156142750Y-83151724D01*
X156117863Y-83095828D01*
X156130585Y-83035980D01*
X156176054Y-82995039D01*
X156203742Y-82987282D01*
X156263362Y-82979645D01*
X156263368Y-82979644D01*
X156267394Y-82979128D01*
X156271287Y-82977960D01*
X156271292Y-82977959D01*
X156430542Y-82930181D01*
X156491914Y-82911768D01*
X156602707Y-82857491D01*
X156698771Y-82810430D01*
X156698774Y-82810428D01*
X156702418Y-82808643D01*
X156893253Y-82672522D01*
X157059293Y-82507061D01*
X157133616Y-82403630D01*
X157137960Y-82397585D01*
X157187271Y-82361363D01*
X157248456Y-82361043D01*
X157298143Y-82396747D01*
X157302761Y-82403619D01*
X157315736Y-82424793D01*
X157318395Y-82427863D01*
X157318396Y-82427864D01*
X157389481Y-82509927D01*
X157469212Y-82601971D01*
X157649565Y-82751703D01*
X157851951Y-82869968D01*
X158070935Y-82953590D01*
X158074910Y-82954399D01*
X158074911Y-82954399D01*
X158242901Y-82988577D01*
X158296155Y-83018707D01*
X158321528Y-83074383D01*
X158309329Y-83134340D01*
X158264219Y-83175676D01*
X158243747Y-83182427D01*
X158187659Y-83194349D01*
X158177847Y-83197537D01*
X158175131Y-83198746D01*
X158167384Y-83205721D01*
X158172836Y-83217151D01*
X158458912Y-83503226D01*
X158470798Y-83509282D01*
X158475829Y-83508486D01*
X158768103Y-83216212D01*
X158772837Y-83206921D01*
X158763651Y-83198204D01*
X158762153Y-83197537D01*
X158752341Y-83194348D01*
X158695738Y-83182317D01*
X158642750Y-83151724D01*
X158617863Y-83095828D01*
X158630585Y-83035980D01*
X158676054Y-82995039D01*
X158703742Y-82987282D01*
X158763362Y-82979645D01*
X158763368Y-82979644D01*
X158767394Y-82979128D01*
X158771287Y-82977960D01*
X158771292Y-82977959D01*
X158930542Y-82930181D01*
X158991914Y-82911768D01*
X159102707Y-82857491D01*
X159198771Y-82810430D01*
X159198774Y-82810428D01*
X159202418Y-82808643D01*
X159393253Y-82672522D01*
X159559293Y-82507061D01*
X159633616Y-82403630D01*
X159693708Y-82320003D01*
X159693709Y-82320001D01*
X159696079Y-82316703D01*
X159697877Y-82313065D01*
X159697880Y-82313060D01*
X159798138Y-82110202D01*
X159799938Y-82106560D01*
X159801116Y-82102684D01*
X159801118Y-82102678D01*
X159866901Y-81886160D01*
X159866901Y-81886159D01*
X159868081Y-81882276D01*
X159898677Y-81649874D01*
X159900385Y-81580000D01*
X159881178Y-81346381D01*
X159872536Y-81311973D01*
X159825064Y-81122982D01*
X159824073Y-81119036D01*
X159730603Y-80904070D01*
X159603279Y-80707258D01*
X159445520Y-80533883D01*
X159442334Y-80531367D01*
X159442331Y-80531364D01*
X159264751Y-80391119D01*
X159264745Y-80391115D01*
X159261563Y-80388602D01*
X159056348Y-80275317D01*
X159052517Y-80273960D01*
X159052514Y-80273959D01*
X158839222Y-80198428D01*
X158839218Y-80198427D01*
X158835386Y-80197070D01*
X158732192Y-80178688D01*
X158678220Y-80149870D01*
X158651494Y-80094830D01*
X158662223Y-80034593D01*
X158706310Y-79992167D01*
X158736974Y-79983026D01*
X158763351Y-79979647D01*
X158763364Y-79979644D01*
X158767394Y-79979128D01*
X158771287Y-79977960D01*
X158771292Y-79977959D01*
X158930542Y-79930181D01*
X158991914Y-79911768D01*
X159102707Y-79857491D01*
X159198771Y-79810430D01*
X159198774Y-79810428D01*
X159202418Y-79808643D01*
X159393253Y-79672522D01*
X159559293Y-79507061D01*
X159633616Y-79403630D01*
X159693708Y-79320003D01*
X159693709Y-79320001D01*
X159696079Y-79316703D01*
X159697877Y-79313065D01*
X159697880Y-79313060D01*
X159798138Y-79110202D01*
X159799938Y-79106560D01*
X159801116Y-79102684D01*
X159801118Y-79102678D01*
X159866901Y-78886160D01*
X159866901Y-78886159D01*
X159868081Y-78882276D01*
X159898677Y-78649874D01*
X159900385Y-78580000D01*
X159881178Y-78346381D01*
X159872536Y-78311973D01*
X159825064Y-78122982D01*
X159824073Y-78119036D01*
X159730603Y-77904070D01*
X159603279Y-77707258D01*
X159445520Y-77533883D01*
X159442334Y-77531367D01*
X159442331Y-77531364D01*
X159264751Y-77391119D01*
X159264745Y-77391115D01*
X159261563Y-77388602D01*
X159056348Y-77275317D01*
X159052517Y-77273960D01*
X159052514Y-77273959D01*
X158839222Y-77198428D01*
X158839218Y-77198427D01*
X158835386Y-77197070D01*
X158604611Y-77155963D01*
X158600565Y-77155914D01*
X158600559Y-77155913D01*
X158471260Y-77154334D01*
X158370221Y-77153099D01*
X158138511Y-77188556D01*
X158018379Y-77227821D01*
X157919561Y-77260120D01*
X157919557Y-77260121D01*
X157915704Y-77261381D01*
X157912104Y-77263255D01*
X157711387Y-77367741D01*
X157711384Y-77367743D01*
X157707782Y-77369618D01*
X157704540Y-77372053D01*
X157704534Y-77372056D01*
X157679145Y-77391119D01*
X157520330Y-77510361D01*
X157358382Y-77679830D01*
X157356090Y-77683190D01*
X157302312Y-77762025D01*
X157253900Y-77799442D01*
X157192742Y-77801257D01*
X157142197Y-77766777D01*
X157137418Y-77760028D01*
X157103279Y-77707258D01*
X156945520Y-77533883D01*
X156942334Y-77531367D01*
X156942331Y-77531364D01*
X156764751Y-77391119D01*
X156764745Y-77391115D01*
X156761563Y-77388602D01*
X156556348Y-77275317D01*
X156552517Y-77273960D01*
X156552514Y-77273959D01*
X156339222Y-77198428D01*
X156339218Y-77198427D01*
X156335386Y-77197070D01*
X156104611Y-77155963D01*
X156100565Y-77155914D01*
X156100559Y-77155913D01*
X155971260Y-77154334D01*
X155870221Y-77153099D01*
X155638511Y-77188556D01*
X155518379Y-77227821D01*
X155419561Y-77260120D01*
X155419557Y-77260121D01*
X155415704Y-77261381D01*
X155412104Y-77263255D01*
X155211387Y-77367741D01*
X155211384Y-77367743D01*
X155207782Y-77369618D01*
X155204540Y-77372053D01*
X155204534Y-77372056D01*
X155179145Y-77391119D01*
X155020330Y-77510361D01*
X154858382Y-77679830D01*
X154856090Y-77683190D01*
X154802312Y-77762025D01*
X154753900Y-77799442D01*
X154692742Y-77801257D01*
X154642197Y-77766777D01*
X154637418Y-77760028D01*
X154603279Y-77707258D01*
X154445520Y-77533883D01*
X154442334Y-77531367D01*
X154442331Y-77531364D01*
X154264751Y-77391119D01*
X154264745Y-77391115D01*
X154261563Y-77388602D01*
X154056348Y-77275317D01*
X154052517Y-77273960D01*
X154052514Y-77273959D01*
X153839222Y-77198428D01*
X153839218Y-77198427D01*
X153835386Y-77197070D01*
X153604611Y-77155963D01*
X153600565Y-77155914D01*
X153600559Y-77155913D01*
X153471260Y-77154334D01*
X153370221Y-77153099D01*
X153138511Y-77188556D01*
X153018379Y-77227821D01*
X152919561Y-77260120D01*
X152919557Y-77260121D01*
X152915704Y-77261381D01*
X152912104Y-77263255D01*
X152711387Y-77367741D01*
X152711384Y-77367743D01*
X152707782Y-77369618D01*
X152704540Y-77372053D01*
X152704534Y-77372056D01*
X152679145Y-77391119D01*
X152520330Y-77510361D01*
X152358382Y-77679830D01*
X152356090Y-77683190D01*
X152302312Y-77762025D01*
X152253900Y-77799442D01*
X152192742Y-77801257D01*
X152142197Y-77766777D01*
X152137418Y-77760028D01*
X152103279Y-77707258D01*
X151945520Y-77533883D01*
X151942334Y-77531367D01*
X151942331Y-77531364D01*
X151764751Y-77391119D01*
X151764745Y-77391115D01*
X151761563Y-77388602D01*
X151556348Y-77275317D01*
X151552517Y-77273960D01*
X151552514Y-77273959D01*
X151339222Y-77198428D01*
X151339218Y-77198427D01*
X151335386Y-77197070D01*
X151104611Y-77155963D01*
X151100565Y-77155914D01*
X151100559Y-77155913D01*
X150971260Y-77154334D01*
X150870221Y-77153099D01*
X150638511Y-77188556D01*
X150518379Y-77227821D01*
X150419561Y-77260120D01*
X150419557Y-77260121D01*
X150415704Y-77261381D01*
X150412104Y-77263255D01*
X150211387Y-77367741D01*
X150211384Y-77367743D01*
X150207782Y-77369618D01*
X150204540Y-77372053D01*
X150204534Y-77372056D01*
X150179145Y-77391119D01*
X150020330Y-77510361D01*
X149858382Y-77679830D01*
X149726287Y-77873473D01*
X149627594Y-78086091D01*
X149564951Y-78311973D01*
X149540042Y-78545053D01*
X149553535Y-78779071D01*
X149554427Y-78783028D01*
X149575886Y-78878247D01*
X149605069Y-79007743D01*
X149606598Y-79011507D01*
X149606599Y-79011512D01*
X149646673Y-79110202D01*
X149693259Y-79224928D01*
X149695383Y-79228394D01*
X149695385Y-79228398D01*
X149751521Y-79320003D01*
X149815736Y-79424793D01*
X149818395Y-79427863D01*
X149818396Y-79427864D01*
X149889481Y-79509927D01*
X149969212Y-79601971D01*
X150149565Y-79751703D01*
X150351951Y-79869968D01*
X150570935Y-79953590D01*
X150714457Y-79982790D01*
X150767709Y-80012918D01*
X150793083Y-80068594D01*
X150780884Y-80128552D01*
X150735774Y-80169888D01*
X150709694Y-80177663D01*
X150662923Y-80184820D01*
X150638511Y-80188556D01*
X150518379Y-80227821D01*
X150419561Y-80260120D01*
X150419557Y-80260121D01*
X150415704Y-80261381D01*
X150412104Y-80263255D01*
X150211387Y-80367741D01*
X150211384Y-80367743D01*
X150207782Y-80369618D01*
X150204540Y-80372053D01*
X150204534Y-80372056D01*
X150179145Y-80391119D01*
X150020330Y-80510361D01*
X149858382Y-80679830D01*
X149726287Y-80873473D01*
X149627594Y-81086091D01*
X149564951Y-81311973D01*
X149540042Y-81545053D01*
X146566862Y-81545053D01*
X146564355Y-76368499D01*
X146583234Y-76310299D01*
X146632717Y-76274311D01*
X146663293Y-76269451D01*
X155523998Y-76263998D01*
X162715294Y-76259573D01*
X162773496Y-76278445D01*
G37*
%TD.AperFunction*%
%TD*%
%TA.AperFunction,Conductor*%
%TO.N,/Phase_2_T2*%
G36*
X127699264Y-76276647D02*
G01*
X132616848Y-76279686D01*
X132675027Y-76298629D01*
X132710960Y-76348152D01*
X132715787Y-76378585D01*
X132729967Y-90228398D01*
X132766205Y-125622421D01*
X132769899Y-129230899D01*
X132751051Y-129289109D01*
X132701588Y-129325123D01*
X132670899Y-129330000D01*
X116609048Y-129330000D01*
X116550857Y-129311093D01*
X116514893Y-129261593D01*
X116510048Y-129230952D01*
X116512799Y-123548477D01*
X117509822Y-123548477D01*
X117510016Y-123551842D01*
X117510016Y-123551846D01*
X117513545Y-123613043D01*
X117525916Y-123827596D01*
X117579741Y-124101948D01*
X117580834Y-124105140D01*
X117660126Y-124336732D01*
X117670303Y-124366457D01*
X117795925Y-124616228D01*
X117954282Y-124846639D01*
X117956552Y-124849133D01*
X117956553Y-124849135D01*
X118054538Y-124956819D01*
X118142444Y-125053427D01*
X118356930Y-125232765D01*
X118593771Y-125381335D01*
X118596839Y-125382720D01*
X118596846Y-125382724D01*
X118762358Y-125457455D01*
X118848583Y-125496387D01*
X118851805Y-125497341D01*
X118851812Y-125497344D01*
X119066263Y-125560867D01*
X119116652Y-125575793D01*
X119119977Y-125576302D01*
X119119978Y-125576302D01*
X119389684Y-125617573D01*
X119389687Y-125617573D01*
X119393018Y-125618083D01*
X119396389Y-125618136D01*
X119396390Y-125618136D01*
X119444571Y-125618893D01*
X119672566Y-125622474D01*
X119675903Y-125622070D01*
X119675907Y-125622070D01*
X119946779Y-125589291D01*
X119946784Y-125589290D01*
X119950123Y-125588886D01*
X120220554Y-125517940D01*
X120386590Y-125449165D01*
X120475746Y-125412236D01*
X120475749Y-125412235D01*
X120478855Y-125410948D01*
X120481760Y-125409251D01*
X120481763Y-125409249D01*
X120717329Y-125271595D01*
X120720245Y-125269891D01*
X120940258Y-125097379D01*
X121119553Y-124912360D01*
X123873892Y-124912360D01*
X123880263Y-124919251D01*
X123935824Y-124953300D01*
X123942730Y-124956819D01*
X124160952Y-125047209D01*
X124168320Y-125049603D01*
X124398004Y-125104745D01*
X124405647Y-125105956D01*
X124641125Y-125124488D01*
X124648875Y-125124488D01*
X124884353Y-125105956D01*
X124891996Y-125104745D01*
X125121680Y-125049603D01*
X125129048Y-125047209D01*
X125347270Y-124956819D01*
X125354176Y-124953300D01*
X125408043Y-124920289D01*
X125416316Y-124910603D01*
X125411732Y-124902417D01*
X124656086Y-124146771D01*
X124644203Y-124140717D01*
X124639172Y-124141513D01*
X123879674Y-124901011D01*
X123873892Y-124912360D01*
X121119553Y-124912360D01*
X121134823Y-124896603D01*
X121171526Y-124846639D01*
X121201843Y-124805366D01*
X121300340Y-124671280D01*
X121331864Y-124613221D01*
X121432136Y-124428541D01*
X121433745Y-124425578D01*
X121471294Y-124326206D01*
X121531380Y-124167194D01*
X121531381Y-124167190D01*
X121532570Y-124164044D01*
X121559450Y-124046680D01*
X121594234Y-123894808D01*
X121594235Y-123894801D01*
X121594987Y-123891518D01*
X121619840Y-123613043D01*
X121620230Y-123575828D01*
X121620251Y-123573875D01*
X123090512Y-123573875D01*
X123109044Y-123809353D01*
X123110255Y-123816996D01*
X123165397Y-124046680D01*
X123167791Y-124054048D01*
X123258181Y-124272270D01*
X123261700Y-124279176D01*
X123294711Y-124333043D01*
X123304397Y-124341316D01*
X123312583Y-124336732D01*
X124068229Y-123581086D01*
X124073471Y-123570797D01*
X125215717Y-123570797D01*
X125216513Y-123575828D01*
X125976011Y-124335326D01*
X125987360Y-124341108D01*
X125994251Y-124334737D01*
X126028300Y-124279176D01*
X126031819Y-124272270D01*
X126122209Y-124054048D01*
X126124603Y-124046680D01*
X126179745Y-123816996D01*
X126180956Y-123809353D01*
X126199488Y-123573875D01*
X126199488Y-123566119D01*
X126180956Y-123330647D01*
X126179745Y-123323004D01*
X126124603Y-123093320D01*
X126122209Y-123085952D01*
X126031819Y-122867730D01*
X126028300Y-122860824D01*
X125995289Y-122806957D01*
X125985603Y-122798684D01*
X125977417Y-122803268D01*
X125221771Y-123558914D01*
X125215717Y-123570797D01*
X124073471Y-123570797D01*
X124074283Y-123569203D01*
X124073487Y-123564172D01*
X123313989Y-122804674D01*
X123302640Y-122798892D01*
X123295749Y-122805263D01*
X123261700Y-122860824D01*
X123258181Y-122867730D01*
X123167791Y-123085952D01*
X123165397Y-123093320D01*
X123110255Y-123323004D01*
X123109044Y-123330647D01*
X123090512Y-123566119D01*
X123090512Y-123573875D01*
X121620251Y-123573875D01*
X121620271Y-123571937D01*
X121620271Y-123571929D01*
X121620291Y-123570000D01*
X121601275Y-123291065D01*
X121544579Y-123017292D01*
X121451253Y-122753746D01*
X121439542Y-122731056D01*
X121324573Y-122508308D01*
X121324570Y-122508302D01*
X121323022Y-122505304D01*
X121162261Y-122276563D01*
X121144512Y-122257462D01*
X121118432Y-122229397D01*
X123873684Y-122229397D01*
X123878268Y-122237583D01*
X124633914Y-122993229D01*
X124645797Y-122999283D01*
X124650828Y-122998487D01*
X125410326Y-122238989D01*
X125413079Y-122233586D01*
X127674500Y-122233586D01*
X127674501Y-123570797D01*
X127674501Y-124907836D01*
X127674774Y-124912589D01*
X127675716Y-124916668D01*
X127675717Y-124916676D01*
X127707289Y-125053427D01*
X127715173Y-125087577D01*
X127793336Y-125249266D01*
X127905380Y-125389620D01*
X127909713Y-125393079D01*
X128039124Y-125496387D01*
X128045734Y-125501664D01*
X128207423Y-125579827D01*
X128212807Y-125581070D01*
X128212810Y-125581071D01*
X128299045Y-125600979D01*
X128382411Y-125620226D01*
X128387163Y-125620500D01*
X128388586Y-125620500D01*
X129729717Y-125620499D01*
X131062836Y-125620499D01*
X131067589Y-125620226D01*
X131071670Y-125619284D01*
X131071676Y-125619283D01*
X131237190Y-125581071D01*
X131237193Y-125581070D01*
X131242577Y-125579827D01*
X131404266Y-125501664D01*
X131410877Y-125496387D01*
X131540287Y-125393079D01*
X131544620Y-125389620D01*
X131656664Y-125249266D01*
X131734827Y-125087577D01*
X131775226Y-124912589D01*
X131775500Y-124907837D01*
X131775500Y-123570000D01*
X131775499Y-122233577D01*
X131775499Y-122232164D01*
X131775226Y-122227411D01*
X131774284Y-122223330D01*
X131774283Y-122223324D01*
X131736071Y-122057810D01*
X131736070Y-122057807D01*
X131734827Y-122052423D01*
X131656664Y-121890734D01*
X131649931Y-121882299D01*
X131548079Y-121754713D01*
X131544620Y-121750380D01*
X131404266Y-121638336D01*
X131387759Y-121630356D01*
X131247554Y-121562579D01*
X131242577Y-121560173D01*
X131237193Y-121558930D01*
X131237190Y-121558929D01*
X131150955Y-121539021D01*
X131067589Y-121519774D01*
X131062837Y-121519500D01*
X131061414Y-121519500D01*
X129720283Y-121519501D01*
X128387164Y-121519501D01*
X128382411Y-121519774D01*
X128378330Y-121520716D01*
X128378324Y-121520717D01*
X128212810Y-121558929D01*
X128212807Y-121558930D01*
X128207423Y-121560173D01*
X128202446Y-121562579D01*
X128062242Y-121630356D01*
X128045734Y-121638336D01*
X127905380Y-121750380D01*
X127901921Y-121754713D01*
X127800070Y-121882299D01*
X127793336Y-121890734D01*
X127715173Y-122052423D01*
X127674774Y-122227411D01*
X127674500Y-122232163D01*
X127674500Y-122233586D01*
X125413079Y-122233586D01*
X125416108Y-122227640D01*
X125409737Y-122220749D01*
X125354176Y-122186700D01*
X125347270Y-122183181D01*
X125129048Y-122092791D01*
X125121680Y-122090397D01*
X124891996Y-122035255D01*
X124884353Y-122034044D01*
X124648875Y-122015512D01*
X124641125Y-122015512D01*
X124405647Y-122034044D01*
X124398004Y-122035255D01*
X124168320Y-122090397D01*
X124160952Y-122092791D01*
X123942730Y-122183181D01*
X123935824Y-122186700D01*
X123881957Y-122219711D01*
X123873684Y-122229397D01*
X121118432Y-122229397D01*
X120974238Y-122074226D01*
X120971944Y-122071757D01*
X120948323Y-122052423D01*
X120758204Y-121896814D01*
X120755591Y-121894675D01*
X120517208Y-121748594D01*
X120513397Y-121746921D01*
X120264288Y-121637569D01*
X120264284Y-121637567D01*
X120261205Y-121636216D01*
X120211917Y-121622176D01*
X119995571Y-121560548D01*
X119995566Y-121560547D01*
X119992319Y-121559622D01*
X119715526Y-121520229D01*
X119712159Y-121520211D01*
X119712154Y-121520211D01*
X119587187Y-121519557D01*
X119435947Y-121518765D01*
X119158757Y-121555257D01*
X119155506Y-121556146D01*
X119155503Y-121556147D01*
X119131992Y-121562579D01*
X118889083Y-121629032D01*
X118631917Y-121738722D01*
X118629018Y-121740457D01*
X118617683Y-121747241D01*
X118392018Y-121882299D01*
X118173823Y-122057106D01*
X118171499Y-122059555D01*
X118002557Y-122237583D01*
X117981371Y-122259908D01*
X117979406Y-122262643D01*
X117979404Y-122262645D01*
X117967421Y-122279322D01*
X117818223Y-122486952D01*
X117687398Y-122734038D01*
X117591317Y-122996592D01*
X117531757Y-123269757D01*
X117509822Y-123548477D01*
X116512799Y-123548477D01*
X116527145Y-93912937D01*
X116527807Y-92545053D01*
X119470042Y-92545053D01*
X119483535Y-92779071D01*
X119484427Y-92783028D01*
X119505886Y-92878247D01*
X119535069Y-93007743D01*
X119536598Y-93011507D01*
X119536599Y-93011512D01*
X119576673Y-93110202D01*
X119623259Y-93224928D01*
X119625383Y-93228394D01*
X119625385Y-93228398D01*
X119681521Y-93320003D01*
X119745736Y-93424793D01*
X119748395Y-93427863D01*
X119748396Y-93427864D01*
X119819481Y-93509927D01*
X119899212Y-93601971D01*
X120079565Y-93751703D01*
X120281951Y-93869968D01*
X120500935Y-93953590D01*
X120504910Y-93954399D01*
X120504911Y-93954399D01*
X120726654Y-93999513D01*
X120726658Y-93999513D01*
X120730637Y-94000323D01*
X120734697Y-94000472D01*
X120734698Y-94000472D01*
X120775311Y-94001961D01*
X120964887Y-94008913D01*
X120968906Y-94008398D01*
X120968910Y-94008398D01*
X121193362Y-93979645D01*
X121193368Y-93979644D01*
X121197394Y-93979128D01*
X121201287Y-93977960D01*
X121201292Y-93977959D01*
X121360542Y-93930181D01*
X121421914Y-93911768D01*
X121532707Y-93857491D01*
X121628771Y-93810430D01*
X121628774Y-93810428D01*
X121632418Y-93808643D01*
X121823253Y-93672522D01*
X121989293Y-93507061D01*
X122063616Y-93403630D01*
X122067960Y-93397585D01*
X122117271Y-93361363D01*
X122178456Y-93361043D01*
X122228143Y-93396747D01*
X122232761Y-93403619D01*
X122245736Y-93424793D01*
X122248395Y-93427863D01*
X122248396Y-93427864D01*
X122319481Y-93509927D01*
X122399212Y-93601971D01*
X122579565Y-93751703D01*
X122781951Y-93869968D01*
X123000935Y-93953590D01*
X123004910Y-93954399D01*
X123004911Y-93954399D01*
X123226654Y-93999513D01*
X123226658Y-93999513D01*
X123230637Y-94000323D01*
X123234697Y-94000472D01*
X123234698Y-94000472D01*
X123275311Y-94001961D01*
X123464887Y-94008913D01*
X123468906Y-94008398D01*
X123468910Y-94008398D01*
X123693362Y-93979645D01*
X123693368Y-93979644D01*
X123697394Y-93979128D01*
X123701287Y-93977960D01*
X123701292Y-93977959D01*
X123860542Y-93930181D01*
X123921914Y-93911768D01*
X124032707Y-93857491D01*
X124128771Y-93810430D01*
X124128774Y-93810428D01*
X124132418Y-93808643D01*
X124323253Y-93672522D01*
X124489293Y-93507061D01*
X124563616Y-93403630D01*
X124567960Y-93397585D01*
X124617271Y-93361363D01*
X124678456Y-93361043D01*
X124728143Y-93396747D01*
X124732761Y-93403619D01*
X124745736Y-93424793D01*
X124748395Y-93427863D01*
X124748396Y-93427864D01*
X124819481Y-93509927D01*
X124899212Y-93601971D01*
X125079565Y-93751703D01*
X125281951Y-93869968D01*
X125500935Y-93953590D01*
X125504910Y-93954399D01*
X125504911Y-93954399D01*
X125726654Y-93999513D01*
X125726658Y-93999513D01*
X125730637Y-94000323D01*
X125734697Y-94000472D01*
X125734698Y-94000472D01*
X125775311Y-94001961D01*
X125964887Y-94008913D01*
X125968906Y-94008398D01*
X125968910Y-94008398D01*
X126193362Y-93979645D01*
X126193368Y-93979644D01*
X126197394Y-93979128D01*
X126201287Y-93977960D01*
X126201292Y-93977959D01*
X126360542Y-93930181D01*
X126421914Y-93911768D01*
X126532707Y-93857491D01*
X126628771Y-93810430D01*
X126628774Y-93810428D01*
X126632418Y-93808643D01*
X126823253Y-93672522D01*
X126989293Y-93507061D01*
X127063616Y-93403630D01*
X127067960Y-93397585D01*
X127117271Y-93361363D01*
X127178456Y-93361043D01*
X127228143Y-93396747D01*
X127232761Y-93403619D01*
X127245736Y-93424793D01*
X127248395Y-93427863D01*
X127248396Y-93427864D01*
X127319481Y-93509927D01*
X127399212Y-93601971D01*
X127579565Y-93751703D01*
X127781951Y-93869968D01*
X128000935Y-93953590D01*
X128004910Y-93954399D01*
X128004911Y-93954399D01*
X128226654Y-93999513D01*
X128226658Y-93999513D01*
X128230637Y-94000323D01*
X128234697Y-94000472D01*
X128234698Y-94000472D01*
X128275311Y-94001961D01*
X128464887Y-94008913D01*
X128468906Y-94008398D01*
X128468910Y-94008398D01*
X128693362Y-93979645D01*
X128693368Y-93979644D01*
X128697394Y-93979128D01*
X128701287Y-93977960D01*
X128701292Y-93977959D01*
X128860542Y-93930181D01*
X128921914Y-93911768D01*
X129032707Y-93857491D01*
X129128771Y-93810430D01*
X129128774Y-93810428D01*
X129132418Y-93808643D01*
X129323253Y-93672522D01*
X129489293Y-93507061D01*
X129563616Y-93403630D01*
X129623708Y-93320003D01*
X129623709Y-93320001D01*
X129626079Y-93316703D01*
X129627877Y-93313065D01*
X129627880Y-93313060D01*
X129728138Y-93110202D01*
X129729938Y-93106560D01*
X129731116Y-93102684D01*
X129731118Y-93102678D01*
X129796901Y-92886160D01*
X129796901Y-92886159D01*
X129798081Y-92882276D01*
X129828677Y-92649874D01*
X129830385Y-92580000D01*
X129811178Y-92346381D01*
X129802536Y-92311973D01*
X129755064Y-92122982D01*
X129754073Y-92119036D01*
X129660603Y-91904070D01*
X129533279Y-91707258D01*
X129375520Y-91533883D01*
X129372334Y-91531367D01*
X129372331Y-91531364D01*
X129194751Y-91391119D01*
X129194745Y-91391115D01*
X129191563Y-91388602D01*
X128986348Y-91275317D01*
X128982517Y-91273960D01*
X128982514Y-91273959D01*
X128769222Y-91198428D01*
X128769218Y-91198427D01*
X128765386Y-91197070D01*
X128662192Y-91178688D01*
X128608220Y-91149870D01*
X128581494Y-91094830D01*
X128592223Y-91034593D01*
X128636310Y-90992167D01*
X128666974Y-90983026D01*
X128693351Y-90979647D01*
X128693364Y-90979644D01*
X128697394Y-90979128D01*
X128701287Y-90977960D01*
X128701292Y-90977959D01*
X128860542Y-90930181D01*
X128921914Y-90911768D01*
X129032707Y-90857491D01*
X129128771Y-90810430D01*
X129128774Y-90810428D01*
X129132418Y-90808643D01*
X129323253Y-90672522D01*
X129489293Y-90507061D01*
X129563616Y-90403630D01*
X129623708Y-90320003D01*
X129623709Y-90320001D01*
X129626079Y-90316703D01*
X129627877Y-90313065D01*
X129627880Y-90313060D01*
X129728138Y-90110202D01*
X129729938Y-90106560D01*
X129731116Y-90102684D01*
X129731118Y-90102678D01*
X129796901Y-89886160D01*
X129796901Y-89886159D01*
X129798081Y-89882276D01*
X129828677Y-89649874D01*
X129830385Y-89580000D01*
X129811178Y-89346381D01*
X129802536Y-89311973D01*
X129755064Y-89122982D01*
X129754073Y-89119036D01*
X129660603Y-88904070D01*
X129533279Y-88707258D01*
X129375520Y-88533883D01*
X129372334Y-88531367D01*
X129372331Y-88531364D01*
X129194751Y-88391119D01*
X129194745Y-88391115D01*
X129191563Y-88388602D01*
X128986348Y-88275317D01*
X128982517Y-88273960D01*
X128982514Y-88273959D01*
X128769222Y-88198428D01*
X128769218Y-88198427D01*
X128765386Y-88197070D01*
X128626955Y-88172412D01*
X128572982Y-88143593D01*
X128546256Y-88088553D01*
X128556985Y-88028316D01*
X128601072Y-87985890D01*
X128623733Y-87978109D01*
X128682341Y-87965651D01*
X128692153Y-87962463D01*
X128694869Y-87961254D01*
X128702616Y-87954279D01*
X128697164Y-87942849D01*
X128411088Y-87656774D01*
X128399202Y-87650718D01*
X128394171Y-87651514D01*
X128101897Y-87943788D01*
X128097163Y-87953079D01*
X128106349Y-87961796D01*
X128107847Y-87962463D01*
X128117657Y-87965651D01*
X128176591Y-87978178D01*
X128229579Y-88008771D01*
X128254465Y-88064667D01*
X128241743Y-88124515D01*
X128196273Y-88165456D01*
X128170985Y-88172875D01*
X128068511Y-88188556D01*
X127948379Y-88227821D01*
X127849561Y-88260120D01*
X127849557Y-88260121D01*
X127845704Y-88261381D01*
X127842104Y-88263255D01*
X127641387Y-88367741D01*
X127641384Y-88367743D01*
X127637782Y-88369618D01*
X127634540Y-88372053D01*
X127634534Y-88372056D01*
X127609145Y-88391119D01*
X127450330Y-88510361D01*
X127288382Y-88679830D01*
X127286090Y-88683190D01*
X127232312Y-88762025D01*
X127183900Y-88799442D01*
X127122742Y-88801257D01*
X127072197Y-88766777D01*
X127067418Y-88760028D01*
X127033279Y-88707258D01*
X126875520Y-88533883D01*
X126872334Y-88531367D01*
X126872331Y-88531364D01*
X126694751Y-88391119D01*
X126694745Y-88391115D01*
X126691563Y-88388602D01*
X126486348Y-88275317D01*
X126482517Y-88273960D01*
X126482514Y-88273959D01*
X126269222Y-88198428D01*
X126269218Y-88198427D01*
X126265386Y-88197070D01*
X126126955Y-88172412D01*
X126072982Y-88143593D01*
X126046256Y-88088553D01*
X126056985Y-88028316D01*
X126101072Y-87985890D01*
X126123733Y-87978109D01*
X126182341Y-87965651D01*
X126192153Y-87962463D01*
X126194869Y-87961254D01*
X126202616Y-87954279D01*
X126197164Y-87942849D01*
X125911088Y-87656774D01*
X125899202Y-87650718D01*
X125894171Y-87651514D01*
X125601897Y-87943788D01*
X125597163Y-87953079D01*
X125606349Y-87961796D01*
X125607847Y-87962463D01*
X125617657Y-87965651D01*
X125676591Y-87978178D01*
X125729579Y-88008771D01*
X125754465Y-88064667D01*
X125741743Y-88124515D01*
X125696273Y-88165456D01*
X125670985Y-88172875D01*
X125568511Y-88188556D01*
X125448379Y-88227821D01*
X125349561Y-88260120D01*
X125349557Y-88260121D01*
X125345704Y-88261381D01*
X125342104Y-88263255D01*
X125141387Y-88367741D01*
X125141384Y-88367743D01*
X125137782Y-88369618D01*
X125134540Y-88372053D01*
X125134534Y-88372056D01*
X125109145Y-88391119D01*
X124950330Y-88510361D01*
X124788382Y-88679830D01*
X124786090Y-88683190D01*
X124732312Y-88762025D01*
X124683900Y-88799442D01*
X124622742Y-88801257D01*
X124572197Y-88766777D01*
X124567418Y-88760028D01*
X124533279Y-88707258D01*
X124375520Y-88533883D01*
X124372334Y-88531367D01*
X124372331Y-88531364D01*
X124194751Y-88391119D01*
X124194745Y-88391115D01*
X124191563Y-88388602D01*
X123986348Y-88275317D01*
X123982517Y-88273960D01*
X123982514Y-88273959D01*
X123769222Y-88198428D01*
X123769218Y-88198427D01*
X123765386Y-88197070D01*
X123626955Y-88172412D01*
X123572982Y-88143593D01*
X123546256Y-88088553D01*
X123556985Y-88028316D01*
X123601072Y-87985890D01*
X123623733Y-87978109D01*
X123682341Y-87965651D01*
X123692153Y-87962463D01*
X123694869Y-87961254D01*
X123702616Y-87954279D01*
X123697164Y-87942849D01*
X123411088Y-87656774D01*
X123399202Y-87650718D01*
X123394171Y-87651514D01*
X123101897Y-87943788D01*
X123097163Y-87953079D01*
X123106349Y-87961796D01*
X123107847Y-87962463D01*
X123117657Y-87965651D01*
X123176591Y-87978178D01*
X123229579Y-88008771D01*
X123254465Y-88064667D01*
X123241743Y-88124515D01*
X123196273Y-88165456D01*
X123170985Y-88172875D01*
X123068511Y-88188556D01*
X122948379Y-88227821D01*
X122849561Y-88260120D01*
X122849557Y-88260121D01*
X122845704Y-88261381D01*
X122842104Y-88263255D01*
X122641387Y-88367741D01*
X122641384Y-88367743D01*
X122637782Y-88369618D01*
X122634540Y-88372053D01*
X122634534Y-88372056D01*
X122609145Y-88391119D01*
X122450330Y-88510361D01*
X122288382Y-88679830D01*
X122286090Y-88683190D01*
X122232312Y-88762025D01*
X122183900Y-88799442D01*
X122122742Y-88801257D01*
X122072197Y-88766777D01*
X122067418Y-88760028D01*
X122033279Y-88707258D01*
X121875520Y-88533883D01*
X121872334Y-88531367D01*
X121872331Y-88531364D01*
X121694751Y-88391119D01*
X121694745Y-88391115D01*
X121691563Y-88388602D01*
X121486348Y-88275317D01*
X121482517Y-88273960D01*
X121482514Y-88273959D01*
X121269222Y-88198428D01*
X121269218Y-88198427D01*
X121265386Y-88197070D01*
X121126955Y-88172412D01*
X121072982Y-88143593D01*
X121046256Y-88088553D01*
X121056985Y-88028316D01*
X121101072Y-87985890D01*
X121123733Y-87978109D01*
X121182341Y-87965651D01*
X121192153Y-87962463D01*
X121194869Y-87961254D01*
X121202616Y-87954279D01*
X121197164Y-87942849D01*
X120911088Y-87656774D01*
X120899202Y-87650718D01*
X120894171Y-87651514D01*
X120601897Y-87943788D01*
X120597163Y-87953079D01*
X120606349Y-87961796D01*
X120607847Y-87962463D01*
X120617657Y-87965651D01*
X120676591Y-87978178D01*
X120729579Y-88008771D01*
X120754465Y-88064667D01*
X120741743Y-88124515D01*
X120696273Y-88165456D01*
X120670985Y-88172875D01*
X120568511Y-88188556D01*
X120448379Y-88227821D01*
X120349561Y-88260120D01*
X120349557Y-88260121D01*
X120345704Y-88261381D01*
X120342104Y-88263255D01*
X120141387Y-88367741D01*
X120141384Y-88367743D01*
X120137782Y-88369618D01*
X120134540Y-88372053D01*
X120134534Y-88372056D01*
X120109145Y-88391119D01*
X119950330Y-88510361D01*
X119788382Y-88679830D01*
X119656287Y-88873473D01*
X119557594Y-89086091D01*
X119494951Y-89311973D01*
X119470042Y-89545053D01*
X119483535Y-89779071D01*
X119484427Y-89783028D01*
X119505886Y-89878247D01*
X119535069Y-90007743D01*
X119536598Y-90011507D01*
X119536599Y-90011512D01*
X119576673Y-90110202D01*
X119623259Y-90224928D01*
X119625383Y-90228394D01*
X119625385Y-90228398D01*
X119681521Y-90320003D01*
X119745736Y-90424793D01*
X119748395Y-90427863D01*
X119748396Y-90427864D01*
X119819481Y-90509927D01*
X119899212Y-90601971D01*
X120079565Y-90751703D01*
X120281951Y-90869968D01*
X120500935Y-90953590D01*
X120644457Y-90982790D01*
X120697709Y-91012918D01*
X120723083Y-91068594D01*
X120710884Y-91128552D01*
X120665774Y-91169888D01*
X120639694Y-91177663D01*
X120592923Y-91184820D01*
X120568511Y-91188556D01*
X120448379Y-91227821D01*
X120349561Y-91260120D01*
X120349557Y-91260121D01*
X120345704Y-91261381D01*
X120342104Y-91263255D01*
X120141387Y-91367741D01*
X120141384Y-91367743D01*
X120137782Y-91369618D01*
X120134540Y-91372053D01*
X120134534Y-91372056D01*
X120109145Y-91391119D01*
X119950330Y-91510361D01*
X119788382Y-91679830D01*
X119656287Y-91873473D01*
X119557594Y-92086091D01*
X119494951Y-92311973D01*
X119470042Y-92545053D01*
X116527807Y-92545053D01*
X116530450Y-87085157D01*
X119970447Y-87085157D01*
X119989688Y-87268220D01*
X119991832Y-87278310D01*
X120022344Y-87372212D01*
X120029040Y-87381429D01*
X120034736Y-87379578D01*
X120323228Y-87091086D01*
X120328470Y-87080797D01*
X121470718Y-87080797D01*
X121471514Y-87085828D01*
X121761725Y-87376039D01*
X121771873Y-87381210D01*
X121776109Y-87376974D01*
X121808168Y-87278310D01*
X121810312Y-87268220D01*
X121829553Y-87085157D01*
X122470447Y-87085157D01*
X122489688Y-87268220D01*
X122491832Y-87278310D01*
X122522344Y-87372212D01*
X122529040Y-87381429D01*
X122534736Y-87379578D01*
X122823228Y-87091086D01*
X122828470Y-87080797D01*
X123970718Y-87080797D01*
X123971514Y-87085828D01*
X124261725Y-87376039D01*
X124271873Y-87381210D01*
X124276109Y-87376974D01*
X124308168Y-87278310D01*
X124310312Y-87268220D01*
X124329553Y-87085157D01*
X124970447Y-87085157D01*
X124989688Y-87268220D01*
X124991832Y-87278310D01*
X125022344Y-87372212D01*
X125029040Y-87381429D01*
X125034736Y-87379578D01*
X125323228Y-87091086D01*
X125328470Y-87080797D01*
X126470718Y-87080797D01*
X126471514Y-87085828D01*
X126761725Y-87376039D01*
X126771873Y-87381210D01*
X126776109Y-87376974D01*
X126808168Y-87278310D01*
X126810312Y-87268220D01*
X126829553Y-87085157D01*
X127470447Y-87085157D01*
X127489688Y-87268220D01*
X127491832Y-87278310D01*
X127522344Y-87372212D01*
X127529040Y-87381429D01*
X127534736Y-87379578D01*
X127823228Y-87091086D01*
X127828470Y-87080797D01*
X128970718Y-87080797D01*
X128971514Y-87085828D01*
X129261725Y-87376039D01*
X129271873Y-87381210D01*
X129276109Y-87376974D01*
X129308168Y-87278310D01*
X129310312Y-87268220D01*
X129329553Y-87085157D01*
X129329553Y-87074843D01*
X129310312Y-86891780D01*
X129308168Y-86881690D01*
X129277656Y-86787788D01*
X129270960Y-86778571D01*
X129265264Y-86780422D01*
X128976772Y-87068914D01*
X128970718Y-87080797D01*
X127828470Y-87080797D01*
X127829282Y-87079203D01*
X127828486Y-87074172D01*
X127538275Y-86783961D01*
X127528127Y-86778790D01*
X127523891Y-86783026D01*
X127491832Y-86881690D01*
X127489688Y-86891780D01*
X127470447Y-87074843D01*
X127470447Y-87085157D01*
X126829553Y-87085157D01*
X126829553Y-87074843D01*
X126810312Y-86891780D01*
X126808168Y-86881690D01*
X126777656Y-86787788D01*
X126770960Y-86778571D01*
X126765264Y-86780422D01*
X126476772Y-87068914D01*
X126470718Y-87080797D01*
X125328470Y-87080797D01*
X125329282Y-87079203D01*
X125328486Y-87074172D01*
X125038275Y-86783961D01*
X125028127Y-86778790D01*
X125023891Y-86783026D01*
X124991832Y-86881690D01*
X124989688Y-86891780D01*
X124970447Y-87074843D01*
X124970447Y-87085157D01*
X124329553Y-87085157D01*
X124329553Y-87074843D01*
X124310312Y-86891780D01*
X124308168Y-86881690D01*
X124277656Y-86787788D01*
X124270960Y-86778571D01*
X124265264Y-86780422D01*
X123976772Y-87068914D01*
X123970718Y-87080797D01*
X122828470Y-87080797D01*
X122829282Y-87079203D01*
X122828486Y-87074172D01*
X122538275Y-86783961D01*
X122528127Y-86778790D01*
X122523891Y-86783026D01*
X122491832Y-86881690D01*
X122489688Y-86891780D01*
X122470447Y-87074843D01*
X122470447Y-87085157D01*
X121829553Y-87085157D01*
X121829553Y-87074843D01*
X121810312Y-86891780D01*
X121808168Y-86881690D01*
X121777656Y-86787788D01*
X121770960Y-86778571D01*
X121765264Y-86780422D01*
X121476772Y-87068914D01*
X121470718Y-87080797D01*
X120328470Y-87080797D01*
X120329282Y-87079203D01*
X120328486Y-87074172D01*
X120038275Y-86783961D01*
X120028127Y-86778790D01*
X120023891Y-86783026D01*
X119991832Y-86881690D01*
X119989688Y-86891780D01*
X119970447Y-87074843D01*
X119970447Y-87085157D01*
X116530450Y-87085157D01*
X116530876Y-86205721D01*
X120597384Y-86205721D01*
X120602836Y-86217151D01*
X120888912Y-86503226D01*
X120900798Y-86509282D01*
X120905829Y-86508486D01*
X121198103Y-86216212D01*
X121202837Y-86206921D01*
X121201572Y-86205721D01*
X123097384Y-86205721D01*
X123102836Y-86217151D01*
X123388912Y-86503226D01*
X123400798Y-86509282D01*
X123405829Y-86508486D01*
X123698103Y-86216212D01*
X123702837Y-86206921D01*
X123701572Y-86205721D01*
X125597384Y-86205721D01*
X125602836Y-86217151D01*
X125888912Y-86503226D01*
X125900798Y-86509282D01*
X125905829Y-86508486D01*
X126198103Y-86216212D01*
X126202837Y-86206921D01*
X126201572Y-86205721D01*
X128097384Y-86205721D01*
X128102836Y-86217151D01*
X128388912Y-86503226D01*
X128400798Y-86509282D01*
X128405829Y-86508486D01*
X128698103Y-86216212D01*
X128702837Y-86206921D01*
X128693651Y-86198204D01*
X128692153Y-86197537D01*
X128682341Y-86194349D01*
X128502295Y-86156079D01*
X128492032Y-86155000D01*
X128307968Y-86155000D01*
X128297705Y-86156079D01*
X128117659Y-86194349D01*
X128107847Y-86197537D01*
X128105131Y-86198746D01*
X128097384Y-86205721D01*
X126201572Y-86205721D01*
X126193651Y-86198204D01*
X126192153Y-86197537D01*
X126182341Y-86194349D01*
X126002295Y-86156079D01*
X125992032Y-86155000D01*
X125807968Y-86155000D01*
X125797705Y-86156079D01*
X125617659Y-86194349D01*
X125607847Y-86197537D01*
X125605131Y-86198746D01*
X125597384Y-86205721D01*
X123701572Y-86205721D01*
X123693651Y-86198204D01*
X123692153Y-86197537D01*
X123682341Y-86194349D01*
X123502295Y-86156079D01*
X123492032Y-86155000D01*
X123307968Y-86155000D01*
X123297705Y-86156079D01*
X123117659Y-86194349D01*
X123107847Y-86197537D01*
X123105131Y-86198746D01*
X123097384Y-86205721D01*
X121201572Y-86205721D01*
X121193651Y-86198204D01*
X121192153Y-86197537D01*
X121182341Y-86194349D01*
X121002295Y-86156079D01*
X120992032Y-86155000D01*
X120807968Y-86155000D01*
X120797705Y-86156079D01*
X120617659Y-86194349D01*
X120607847Y-86197537D01*
X120605131Y-86198746D01*
X120597384Y-86205721D01*
X116530876Y-86205721D01*
X116531482Y-84953079D01*
X120597163Y-84953079D01*
X120606349Y-84961796D01*
X120607847Y-84962463D01*
X120617659Y-84965651D01*
X120797705Y-85003921D01*
X120807968Y-85005000D01*
X120992032Y-85005000D01*
X121002295Y-85003921D01*
X121182341Y-84965651D01*
X121192153Y-84962463D01*
X121194869Y-84961254D01*
X121202616Y-84954279D01*
X121202044Y-84953079D01*
X123097163Y-84953079D01*
X123106349Y-84961796D01*
X123107847Y-84962463D01*
X123117659Y-84965651D01*
X123297705Y-85003921D01*
X123307968Y-85005000D01*
X123492032Y-85005000D01*
X123502295Y-85003921D01*
X123682341Y-84965651D01*
X123692153Y-84962463D01*
X123694869Y-84961254D01*
X123702616Y-84954279D01*
X123702044Y-84953079D01*
X125597163Y-84953079D01*
X125606349Y-84961796D01*
X125607847Y-84962463D01*
X125617659Y-84965651D01*
X125797705Y-85003921D01*
X125807968Y-85005000D01*
X125992032Y-85005000D01*
X126002295Y-85003921D01*
X126182341Y-84965651D01*
X126192153Y-84962463D01*
X126194869Y-84961254D01*
X126202616Y-84954279D01*
X126202044Y-84953079D01*
X128097163Y-84953079D01*
X128106349Y-84961796D01*
X128107847Y-84962463D01*
X128117659Y-84965651D01*
X128297705Y-85003921D01*
X128307968Y-85005000D01*
X128492032Y-85005000D01*
X128502295Y-85003921D01*
X128682341Y-84965651D01*
X128692153Y-84962463D01*
X128694869Y-84961254D01*
X128702616Y-84954279D01*
X128697164Y-84942849D01*
X128411088Y-84656774D01*
X128399202Y-84650718D01*
X128394171Y-84651514D01*
X128101897Y-84943788D01*
X128097163Y-84953079D01*
X126202044Y-84953079D01*
X126197164Y-84942849D01*
X125911088Y-84656774D01*
X125899202Y-84650718D01*
X125894171Y-84651514D01*
X125601897Y-84943788D01*
X125597163Y-84953079D01*
X123702044Y-84953079D01*
X123697164Y-84942849D01*
X123411088Y-84656774D01*
X123399202Y-84650718D01*
X123394171Y-84651514D01*
X123101897Y-84943788D01*
X123097163Y-84953079D01*
X121202044Y-84953079D01*
X121197164Y-84942849D01*
X120911088Y-84656774D01*
X120899202Y-84650718D01*
X120894171Y-84651514D01*
X120601897Y-84943788D01*
X120597163Y-84953079D01*
X116531482Y-84953079D01*
X116531902Y-84085157D01*
X119970447Y-84085157D01*
X119989688Y-84268220D01*
X119991832Y-84278310D01*
X120022344Y-84372212D01*
X120029040Y-84381429D01*
X120034736Y-84379578D01*
X120323228Y-84091086D01*
X120328470Y-84080797D01*
X121470718Y-84080797D01*
X121471514Y-84085828D01*
X121761725Y-84376039D01*
X121771873Y-84381210D01*
X121776109Y-84376974D01*
X121808168Y-84278310D01*
X121810312Y-84268220D01*
X121829553Y-84085157D01*
X122470447Y-84085157D01*
X122489688Y-84268220D01*
X122491832Y-84278310D01*
X122522344Y-84372212D01*
X122529040Y-84381429D01*
X122534736Y-84379578D01*
X122823228Y-84091086D01*
X122828470Y-84080797D01*
X123970718Y-84080797D01*
X123971514Y-84085828D01*
X124261725Y-84376039D01*
X124271873Y-84381210D01*
X124276109Y-84376974D01*
X124308168Y-84278310D01*
X124310312Y-84268220D01*
X124329553Y-84085157D01*
X124970447Y-84085157D01*
X124989688Y-84268220D01*
X124991832Y-84278310D01*
X125022344Y-84372212D01*
X125029040Y-84381429D01*
X125034736Y-84379578D01*
X125323228Y-84091086D01*
X125328470Y-84080797D01*
X126470718Y-84080797D01*
X126471514Y-84085828D01*
X126761725Y-84376039D01*
X126771873Y-84381210D01*
X126776109Y-84376974D01*
X126808168Y-84278310D01*
X126810312Y-84268220D01*
X126829553Y-84085157D01*
X127470447Y-84085157D01*
X127489688Y-84268220D01*
X127491832Y-84278310D01*
X127522344Y-84372212D01*
X127529040Y-84381429D01*
X127534736Y-84379578D01*
X127823228Y-84091086D01*
X127828470Y-84080797D01*
X128970718Y-84080797D01*
X128971514Y-84085828D01*
X129261725Y-84376039D01*
X129271873Y-84381210D01*
X129276109Y-84376974D01*
X129308168Y-84278310D01*
X129310312Y-84268220D01*
X129329553Y-84085157D01*
X129329553Y-84074843D01*
X129310312Y-83891780D01*
X129308168Y-83881690D01*
X129277656Y-83787788D01*
X129270960Y-83778571D01*
X129265264Y-83780422D01*
X128976772Y-84068914D01*
X128970718Y-84080797D01*
X127828470Y-84080797D01*
X127829282Y-84079203D01*
X127828486Y-84074172D01*
X127538275Y-83783961D01*
X127528127Y-83778790D01*
X127523891Y-83783026D01*
X127491832Y-83881690D01*
X127489688Y-83891780D01*
X127470447Y-84074843D01*
X127470447Y-84085157D01*
X126829553Y-84085157D01*
X126829553Y-84074843D01*
X126810312Y-83891780D01*
X126808168Y-83881690D01*
X126777656Y-83787788D01*
X126770960Y-83778571D01*
X126765264Y-83780422D01*
X126476772Y-84068914D01*
X126470718Y-84080797D01*
X125328470Y-84080797D01*
X125329282Y-84079203D01*
X125328486Y-84074172D01*
X125038275Y-83783961D01*
X125028127Y-83778790D01*
X125023891Y-83783026D01*
X124991832Y-83881690D01*
X124989688Y-83891780D01*
X124970447Y-84074843D01*
X124970447Y-84085157D01*
X124329553Y-84085157D01*
X124329553Y-84074843D01*
X124310312Y-83891780D01*
X124308168Y-83881690D01*
X124277656Y-83787788D01*
X124270960Y-83778571D01*
X124265264Y-83780422D01*
X123976772Y-84068914D01*
X123970718Y-84080797D01*
X122828470Y-84080797D01*
X122829282Y-84079203D01*
X122828486Y-84074172D01*
X122538275Y-83783961D01*
X122528127Y-83778790D01*
X122523891Y-83783026D01*
X122491832Y-83881690D01*
X122489688Y-83891780D01*
X122470447Y-84074843D01*
X122470447Y-84085157D01*
X121829553Y-84085157D01*
X121829553Y-84074843D01*
X121810312Y-83891780D01*
X121808168Y-83881690D01*
X121777656Y-83787788D01*
X121770960Y-83778571D01*
X121765264Y-83780422D01*
X121476772Y-84068914D01*
X121470718Y-84080797D01*
X120328470Y-84080797D01*
X120329282Y-84079203D01*
X120328486Y-84074172D01*
X120038275Y-83783961D01*
X120028127Y-83778790D01*
X120023891Y-83783026D01*
X119991832Y-83881690D01*
X119989688Y-83891780D01*
X119970447Y-84074843D01*
X119970447Y-84085157D01*
X116531902Y-84085157D01*
X116533132Y-81545053D01*
X119470042Y-81545053D01*
X119483535Y-81779071D01*
X119484427Y-81783028D01*
X119505886Y-81878247D01*
X119535069Y-82007743D01*
X119536598Y-82011507D01*
X119536599Y-82011512D01*
X119576673Y-82110202D01*
X119623259Y-82224928D01*
X119625383Y-82228394D01*
X119625385Y-82228398D01*
X119681521Y-82320003D01*
X119745736Y-82424793D01*
X119748395Y-82427863D01*
X119748396Y-82427864D01*
X119819481Y-82509927D01*
X119899212Y-82601971D01*
X120079565Y-82751703D01*
X120281951Y-82869968D01*
X120500935Y-82953590D01*
X120504910Y-82954399D01*
X120504911Y-82954399D01*
X120672901Y-82988577D01*
X120726155Y-83018707D01*
X120751528Y-83074383D01*
X120739329Y-83134340D01*
X120694219Y-83175676D01*
X120673747Y-83182427D01*
X120617659Y-83194349D01*
X120607847Y-83197537D01*
X120605131Y-83198746D01*
X120597384Y-83205721D01*
X120602836Y-83217151D01*
X120888912Y-83503226D01*
X120900798Y-83509282D01*
X120905829Y-83508486D01*
X121198103Y-83216212D01*
X121202837Y-83206921D01*
X121193651Y-83198204D01*
X121192153Y-83197537D01*
X121182341Y-83194348D01*
X121125738Y-83182317D01*
X121072750Y-83151724D01*
X121047863Y-83095828D01*
X121060585Y-83035980D01*
X121106054Y-82995039D01*
X121133742Y-82987282D01*
X121193362Y-82979645D01*
X121193368Y-82979644D01*
X121197394Y-82979128D01*
X121201287Y-82977960D01*
X121201292Y-82977959D01*
X121360542Y-82930181D01*
X121421914Y-82911768D01*
X121532707Y-82857491D01*
X121628771Y-82810430D01*
X121628774Y-82810428D01*
X121632418Y-82808643D01*
X121823253Y-82672522D01*
X121989293Y-82507061D01*
X122063616Y-82403630D01*
X122067960Y-82397585D01*
X122117271Y-82361363D01*
X122178456Y-82361043D01*
X122228143Y-82396747D01*
X122232761Y-82403619D01*
X122245736Y-82424793D01*
X122248395Y-82427863D01*
X122248396Y-82427864D01*
X122319481Y-82509927D01*
X122399212Y-82601971D01*
X122579565Y-82751703D01*
X122781951Y-82869968D01*
X123000935Y-82953590D01*
X123004910Y-82954399D01*
X123004911Y-82954399D01*
X123172901Y-82988577D01*
X123226155Y-83018707D01*
X123251528Y-83074383D01*
X123239329Y-83134340D01*
X123194219Y-83175676D01*
X123173747Y-83182427D01*
X123117659Y-83194349D01*
X123107847Y-83197537D01*
X123105131Y-83198746D01*
X123097384Y-83205721D01*
X123102836Y-83217151D01*
X123388912Y-83503226D01*
X123400798Y-83509282D01*
X123405829Y-83508486D01*
X123698103Y-83216212D01*
X123702837Y-83206921D01*
X123693651Y-83198204D01*
X123692153Y-83197537D01*
X123682341Y-83194348D01*
X123625738Y-83182317D01*
X123572750Y-83151724D01*
X123547863Y-83095828D01*
X123560585Y-83035980D01*
X123606054Y-82995039D01*
X123633742Y-82987282D01*
X123693362Y-82979645D01*
X123693368Y-82979644D01*
X123697394Y-82979128D01*
X123701287Y-82977960D01*
X123701292Y-82977959D01*
X123860542Y-82930181D01*
X123921914Y-82911768D01*
X124032707Y-82857491D01*
X124128771Y-82810430D01*
X124128774Y-82810428D01*
X124132418Y-82808643D01*
X124323253Y-82672522D01*
X124489293Y-82507061D01*
X124563616Y-82403630D01*
X124567960Y-82397585D01*
X124617271Y-82361363D01*
X124678456Y-82361043D01*
X124728143Y-82396747D01*
X124732761Y-82403619D01*
X124745736Y-82424793D01*
X124748395Y-82427863D01*
X124748396Y-82427864D01*
X124819481Y-82509927D01*
X124899212Y-82601971D01*
X125079565Y-82751703D01*
X125281951Y-82869968D01*
X125500935Y-82953590D01*
X125504910Y-82954399D01*
X125504911Y-82954399D01*
X125672901Y-82988577D01*
X125726155Y-83018707D01*
X125751528Y-83074383D01*
X125739329Y-83134340D01*
X125694219Y-83175676D01*
X125673747Y-83182427D01*
X125617659Y-83194349D01*
X125607847Y-83197537D01*
X125605131Y-83198746D01*
X125597384Y-83205721D01*
X125602836Y-83217151D01*
X125888912Y-83503226D01*
X125900798Y-83509282D01*
X125905829Y-83508486D01*
X126198103Y-83216212D01*
X126202837Y-83206921D01*
X126193651Y-83198204D01*
X126192153Y-83197537D01*
X126182341Y-83194348D01*
X126125738Y-83182317D01*
X126072750Y-83151724D01*
X126047863Y-83095828D01*
X126060585Y-83035980D01*
X126106054Y-82995039D01*
X126133742Y-82987282D01*
X126193362Y-82979645D01*
X126193368Y-82979644D01*
X126197394Y-82979128D01*
X126201287Y-82977960D01*
X126201292Y-82977959D01*
X126360542Y-82930181D01*
X126421914Y-82911768D01*
X126532707Y-82857491D01*
X126628771Y-82810430D01*
X126628774Y-82810428D01*
X126632418Y-82808643D01*
X126823253Y-82672522D01*
X126989293Y-82507061D01*
X127063616Y-82403630D01*
X127067960Y-82397585D01*
X127117271Y-82361363D01*
X127178456Y-82361043D01*
X127228143Y-82396747D01*
X127232761Y-82403619D01*
X127245736Y-82424793D01*
X127248395Y-82427863D01*
X127248396Y-82427864D01*
X127319481Y-82509927D01*
X127399212Y-82601971D01*
X127579565Y-82751703D01*
X127781951Y-82869968D01*
X128000935Y-82953590D01*
X128004910Y-82954399D01*
X128004911Y-82954399D01*
X128172901Y-82988577D01*
X128226155Y-83018707D01*
X128251528Y-83074383D01*
X128239329Y-83134340D01*
X128194219Y-83175676D01*
X128173747Y-83182427D01*
X128117659Y-83194349D01*
X128107847Y-83197537D01*
X128105131Y-83198746D01*
X128097384Y-83205721D01*
X128102836Y-83217151D01*
X128388912Y-83503226D01*
X128400798Y-83509282D01*
X128405829Y-83508486D01*
X128698103Y-83216212D01*
X128702837Y-83206921D01*
X128693651Y-83198204D01*
X128692153Y-83197537D01*
X128682341Y-83194348D01*
X128625738Y-83182317D01*
X128572750Y-83151724D01*
X128547863Y-83095828D01*
X128560585Y-83035980D01*
X128606054Y-82995039D01*
X128633742Y-82987282D01*
X128693362Y-82979645D01*
X128693368Y-82979644D01*
X128697394Y-82979128D01*
X128701287Y-82977960D01*
X128701292Y-82977959D01*
X128860542Y-82930181D01*
X128921914Y-82911768D01*
X129032707Y-82857491D01*
X129128771Y-82810430D01*
X129128774Y-82810428D01*
X129132418Y-82808643D01*
X129323253Y-82672522D01*
X129489293Y-82507061D01*
X129563616Y-82403630D01*
X129623708Y-82320003D01*
X129623709Y-82320001D01*
X129626079Y-82316703D01*
X129627877Y-82313065D01*
X129627880Y-82313060D01*
X129728138Y-82110202D01*
X129729938Y-82106560D01*
X129731116Y-82102684D01*
X129731118Y-82102678D01*
X129796901Y-81886160D01*
X129796901Y-81886159D01*
X129798081Y-81882276D01*
X129828677Y-81649874D01*
X129830385Y-81580000D01*
X129811178Y-81346381D01*
X129802536Y-81311973D01*
X129755064Y-81122982D01*
X129754073Y-81119036D01*
X129660603Y-80904070D01*
X129533279Y-80707258D01*
X129375520Y-80533883D01*
X129372334Y-80531367D01*
X129372331Y-80531364D01*
X129194751Y-80391119D01*
X129194745Y-80391115D01*
X129191563Y-80388602D01*
X128986348Y-80275317D01*
X128982517Y-80273960D01*
X128982514Y-80273959D01*
X128769222Y-80198428D01*
X128769218Y-80198427D01*
X128765386Y-80197070D01*
X128662192Y-80178688D01*
X128608220Y-80149870D01*
X128581494Y-80094830D01*
X128592223Y-80034593D01*
X128636310Y-79992167D01*
X128666974Y-79983026D01*
X128693351Y-79979647D01*
X128693364Y-79979644D01*
X128697394Y-79979128D01*
X128701287Y-79977960D01*
X128701292Y-79977959D01*
X128860542Y-79930181D01*
X128921914Y-79911768D01*
X129032707Y-79857491D01*
X129128771Y-79810430D01*
X129128774Y-79810428D01*
X129132418Y-79808643D01*
X129323253Y-79672522D01*
X129489293Y-79507061D01*
X129563616Y-79403630D01*
X129623708Y-79320003D01*
X129623709Y-79320001D01*
X129626079Y-79316703D01*
X129627877Y-79313065D01*
X129627880Y-79313060D01*
X129728138Y-79110202D01*
X129729938Y-79106560D01*
X129731116Y-79102684D01*
X129731118Y-79102678D01*
X129796901Y-78886160D01*
X129796901Y-78886159D01*
X129798081Y-78882276D01*
X129828677Y-78649874D01*
X129830385Y-78580000D01*
X129811178Y-78346381D01*
X129802536Y-78311973D01*
X129755064Y-78122982D01*
X129754073Y-78119036D01*
X129660603Y-77904070D01*
X129533279Y-77707258D01*
X129375520Y-77533883D01*
X129372334Y-77531367D01*
X129372331Y-77531364D01*
X129194751Y-77391119D01*
X129194745Y-77391115D01*
X129191563Y-77388602D01*
X128986348Y-77275317D01*
X128982517Y-77273960D01*
X128982514Y-77273959D01*
X128769222Y-77198428D01*
X128769218Y-77198427D01*
X128765386Y-77197070D01*
X128534611Y-77155963D01*
X128530565Y-77155914D01*
X128530559Y-77155913D01*
X128401260Y-77154334D01*
X128300221Y-77153099D01*
X128068511Y-77188556D01*
X127948379Y-77227821D01*
X127849561Y-77260120D01*
X127849557Y-77260121D01*
X127845704Y-77261381D01*
X127842104Y-77263255D01*
X127641387Y-77367741D01*
X127641384Y-77367743D01*
X127637782Y-77369618D01*
X127634540Y-77372053D01*
X127634534Y-77372056D01*
X127609145Y-77391119D01*
X127450330Y-77510361D01*
X127288382Y-77679830D01*
X127286090Y-77683190D01*
X127232312Y-77762025D01*
X127183900Y-77799442D01*
X127122742Y-77801257D01*
X127072197Y-77766777D01*
X127067418Y-77760028D01*
X127033279Y-77707258D01*
X126875520Y-77533883D01*
X126872334Y-77531367D01*
X126872331Y-77531364D01*
X126694751Y-77391119D01*
X126694745Y-77391115D01*
X126691563Y-77388602D01*
X126486348Y-77275317D01*
X126482517Y-77273960D01*
X126482514Y-77273959D01*
X126269222Y-77198428D01*
X126269218Y-77198427D01*
X126265386Y-77197070D01*
X126034611Y-77155963D01*
X126030565Y-77155914D01*
X126030559Y-77155913D01*
X125901260Y-77154334D01*
X125800221Y-77153099D01*
X125568511Y-77188556D01*
X125448379Y-77227821D01*
X125349561Y-77260120D01*
X125349557Y-77260121D01*
X125345704Y-77261381D01*
X125342104Y-77263255D01*
X125141387Y-77367741D01*
X125141384Y-77367743D01*
X125137782Y-77369618D01*
X125134540Y-77372053D01*
X125134534Y-77372056D01*
X125109145Y-77391119D01*
X124950330Y-77510361D01*
X124788382Y-77679830D01*
X124786090Y-77683190D01*
X124732312Y-77762025D01*
X124683900Y-77799442D01*
X124622742Y-77801257D01*
X124572197Y-77766777D01*
X124567418Y-77760028D01*
X124533279Y-77707258D01*
X124375520Y-77533883D01*
X124372334Y-77531367D01*
X124372331Y-77531364D01*
X124194751Y-77391119D01*
X124194745Y-77391115D01*
X124191563Y-77388602D01*
X123986348Y-77275317D01*
X123982517Y-77273960D01*
X123982514Y-77273959D01*
X123769222Y-77198428D01*
X123769218Y-77198427D01*
X123765386Y-77197070D01*
X123534611Y-77155963D01*
X123530565Y-77155914D01*
X123530559Y-77155913D01*
X123401260Y-77154334D01*
X123300221Y-77153099D01*
X123068511Y-77188556D01*
X122948379Y-77227821D01*
X122849561Y-77260120D01*
X122849557Y-77260121D01*
X122845704Y-77261381D01*
X122842104Y-77263255D01*
X122641387Y-77367741D01*
X122641384Y-77367743D01*
X122637782Y-77369618D01*
X122634540Y-77372053D01*
X122634534Y-77372056D01*
X122609145Y-77391119D01*
X122450330Y-77510361D01*
X122288382Y-77679830D01*
X122286090Y-77683190D01*
X122232312Y-77762025D01*
X122183900Y-77799442D01*
X122122742Y-77801257D01*
X122072197Y-77766777D01*
X122067418Y-77760028D01*
X122033279Y-77707258D01*
X121875520Y-77533883D01*
X121872334Y-77531367D01*
X121872331Y-77531364D01*
X121694751Y-77391119D01*
X121694745Y-77391115D01*
X121691563Y-77388602D01*
X121486348Y-77275317D01*
X121482517Y-77273960D01*
X121482514Y-77273959D01*
X121269222Y-77198428D01*
X121269218Y-77198427D01*
X121265386Y-77197070D01*
X121034611Y-77155963D01*
X121030565Y-77155914D01*
X121030559Y-77155913D01*
X120901260Y-77154334D01*
X120800221Y-77153099D01*
X120568511Y-77188556D01*
X120448379Y-77227821D01*
X120349561Y-77260120D01*
X120349557Y-77260121D01*
X120345704Y-77261381D01*
X120342104Y-77263255D01*
X120141387Y-77367741D01*
X120141384Y-77367743D01*
X120137782Y-77369618D01*
X120134540Y-77372053D01*
X120134534Y-77372056D01*
X120109145Y-77391119D01*
X119950330Y-77510361D01*
X119788382Y-77679830D01*
X119656287Y-77873473D01*
X119557594Y-78086091D01*
X119494951Y-78311973D01*
X119470042Y-78545053D01*
X119483535Y-78779071D01*
X119484427Y-78783028D01*
X119505886Y-78878247D01*
X119535069Y-79007743D01*
X119536598Y-79011507D01*
X119536599Y-79011512D01*
X119576673Y-79110202D01*
X119623259Y-79224928D01*
X119625383Y-79228394D01*
X119625385Y-79228398D01*
X119681521Y-79320003D01*
X119745736Y-79424793D01*
X119748395Y-79427863D01*
X119748396Y-79427864D01*
X119819481Y-79509927D01*
X119899212Y-79601971D01*
X120079565Y-79751703D01*
X120281951Y-79869968D01*
X120500935Y-79953590D01*
X120644457Y-79982790D01*
X120697709Y-80012918D01*
X120723083Y-80068594D01*
X120710884Y-80128552D01*
X120665774Y-80169888D01*
X120639694Y-80177663D01*
X120592923Y-80184820D01*
X120568511Y-80188556D01*
X120448379Y-80227821D01*
X120349561Y-80260120D01*
X120349557Y-80260121D01*
X120345704Y-80261381D01*
X120342104Y-80263255D01*
X120141387Y-80367741D01*
X120141384Y-80367743D01*
X120137782Y-80369618D01*
X120134540Y-80372053D01*
X120134534Y-80372056D01*
X120109145Y-80391119D01*
X119950330Y-80510361D01*
X119788382Y-80679830D01*
X119656287Y-80873473D01*
X119557594Y-81086091D01*
X119494951Y-81311973D01*
X119470042Y-81545053D01*
X116533132Y-81545053D01*
X116535638Y-76368760D01*
X116554573Y-76310578D01*
X116604091Y-76274639D01*
X116634698Y-76269808D01*
X127699264Y-76276647D01*
G37*
%TD.AperFunction*%
%TD*%
M02*
