%TF.GenerationSoftware,KiCad,Pcbnew,(6.0.1-0)*%
%TF.CreationDate,2023-01-20T10:28:08-08:00*%
%TF.ProjectId,ESC Mother,45534320-4d6f-4746-9865-722e6b696361,rev?*%
%TF.SameCoordinates,Original*%
%TF.FileFunction,Copper,L2,Inr*%
%TF.FilePolarity,Positive*%
%FSLAX46Y46*%
G04 Gerber Fmt 4.6, Leading zero omitted, Abs format (unit mm)*
G04 Created by KiCad (PCBNEW (6.0.1-0)) date 2023-01-20 10:28:08*
%MOMM*%
%LPD*%
G01*
G04 APERTURE LIST*
%TA.AperFunction,ComponentPad*%
%ADD10R,2.500000X2.500000*%
%TD*%
%TA.AperFunction,ComponentPad*%
%ADD11C,2.500000*%
%TD*%
%TA.AperFunction,ComponentPad*%
%ADD12R,0.930000X0.930000*%
%TD*%
%TA.AperFunction,ComponentPad*%
%ADD13C,0.930000*%
%TD*%
%TA.AperFunction,ComponentPad*%
%ADD14C,1.250000*%
%TD*%
%TA.AperFunction,ViaPad*%
%ADD15C,0.800000*%
%TD*%
G04 APERTURE END LIST*
D10*
%TO.N,/16V*%
%TO.C,+*%
X184850000Y-48600000D03*
D11*
%TO.N,GND*%
X184850000Y-53680000D03*
%TD*%
D10*
%TO.N,/Phase_1_T3*%
%TO.C,T3*%
X99675000Y-123590000D03*
D11*
%TO.N,/Phase_2_T3*%
X94595000Y-123590000D03*
%TO.N,/Phase_3_T3*%
X89515000Y-123590000D03*
%TD*%
D10*
%TO.N,/Phase_1_T4*%
%TO.C,T4*%
X69510000Y-123610000D03*
D11*
%TO.N,/Phase_2_T4*%
X64430000Y-123610000D03*
%TO.N,/Phase_3_T4*%
X59350000Y-123610000D03*
%TD*%
D10*
%TO.N,/Phase_1_T1*%
%TO.C,T1*%
X159810000Y-123540000D03*
D11*
%TO.N,/Phase_2_T1*%
X154730000Y-123540000D03*
%TO.N,/Phase_3_T1*%
X149650000Y-123540000D03*
%TD*%
D12*
%TO.N,unconnected-(J17-Pad01)*%
%TO.C,J4*%
X68190000Y-71630000D03*
D13*
%TO.N,unconnected-(J17-Pad02)*%
X68190000Y-73630000D03*
%TO.N,unconnected-(J17-Pad03)*%
X66540000Y-71630000D03*
%TO.N,unconnected-(J17-Pad04)*%
X66540000Y-73630000D03*
%TO.N,unconnected-(J17-Pad05)*%
X64890000Y-71630000D03*
%TO.N,unconnected-(J17-Pad06)*%
X64890000Y-73630000D03*
%TO.N,/CAL*%
X63240000Y-71630000D03*
%TO.N,/CAH*%
X63240000Y-73630000D03*
%TO.N,+5V*%
X61590000Y-71630000D03*
%TO.N,GND*%
X61590000Y-73630000D03*
D14*
%TO.N,/16V*%
X68210000Y-57840000D03*
X65710000Y-57840000D03*
X63210000Y-57840000D03*
X60710000Y-57840000D03*
X68210000Y-60840000D03*
X65710000Y-60840000D03*
X63210000Y-60840000D03*
X60710000Y-60840000D03*
%TO.N,GND*%
X68210000Y-63340000D03*
X65710000Y-63340000D03*
X63210000Y-63340000D03*
X60710000Y-63340000D03*
X68210000Y-66340000D03*
X65710000Y-66340000D03*
X63210000Y-66340000D03*
X60710000Y-66340000D03*
%TO.N,/Phase_3_T4*%
X68210000Y-78560000D03*
X65710000Y-78560000D03*
X63210000Y-78560000D03*
X60710000Y-78560000D03*
X68210000Y-81560000D03*
X65710000Y-81560000D03*
X63210000Y-81560000D03*
X60710000Y-81560000D03*
%TO.N,/Phase_2_T4*%
X68210000Y-84060000D03*
X65710000Y-84060000D03*
X63210000Y-84060000D03*
X60710000Y-84060000D03*
X68210000Y-87060000D03*
X65710000Y-87060000D03*
X63210000Y-87060000D03*
X60710000Y-87060000D03*
%TO.N,/Phase_1_T4*%
X68210000Y-89560000D03*
X65710000Y-89560000D03*
X63210000Y-89560000D03*
X60710000Y-89560000D03*
X68210000Y-92560000D03*
X65710000Y-92560000D03*
X63210000Y-92560000D03*
X60710000Y-92560000D03*
%TD*%
D12*
%TO.N,unconnected-(J2-Pad01)*%
%TO.C,J2*%
X128380000Y-71650000D03*
D13*
%TO.N,unconnected-(J2-Pad02)*%
X128380000Y-73650000D03*
%TO.N,unconnected-(J2-Pad03)*%
X126730000Y-71650000D03*
%TO.N,unconnected-(J2-Pad04)*%
X126730000Y-73650000D03*
%TO.N,unconnected-(J2-Pad05)*%
X125080000Y-71650000D03*
%TO.N,unconnected-(J2-Pad06)*%
X125080000Y-73650000D03*
%TO.N,/CAL*%
X123430000Y-71650000D03*
%TO.N,/CAH*%
X123430000Y-73650000D03*
%TO.N,+5V*%
X121780000Y-71650000D03*
%TO.N,GND*%
X121780000Y-73650000D03*
D14*
%TO.N,/16V*%
X128400000Y-57860000D03*
X125900000Y-57860000D03*
X123400000Y-57860000D03*
X120900000Y-57860000D03*
X128400000Y-60860000D03*
X125900000Y-60860000D03*
X123400000Y-60860000D03*
X120900000Y-60860000D03*
%TO.N,GND*%
X128400000Y-63360000D03*
X125900000Y-63360000D03*
X123400000Y-63360000D03*
X120900000Y-63360000D03*
X128400000Y-66360000D03*
X125900000Y-66360000D03*
X123400000Y-66360000D03*
X120900000Y-66360000D03*
%TO.N,/Phase_3_T2*%
X128400000Y-78580000D03*
X125900000Y-78580000D03*
X123400000Y-78580000D03*
X120900000Y-78580000D03*
X128400000Y-81580000D03*
X125900000Y-81580000D03*
X123400000Y-81580000D03*
X120900000Y-81580000D03*
%TO.N,/Phase_2_T2*%
X128400000Y-84080000D03*
X125900000Y-84080000D03*
X123400000Y-84080000D03*
X120900000Y-84080000D03*
X128400000Y-87080000D03*
X125900000Y-87080000D03*
X123400000Y-87080000D03*
X120900000Y-87080000D03*
%TO.N,/Phase_1_T2*%
X128400000Y-89580000D03*
X125900000Y-89580000D03*
X123400000Y-89580000D03*
X120900000Y-89580000D03*
X128400000Y-92580000D03*
X125900000Y-92580000D03*
X123400000Y-92580000D03*
X120900000Y-92580000D03*
%TD*%
D12*
%TO.N,unconnected-(J3-Pad01)*%
%TO.C,J3*%
X98300000Y-71650000D03*
D13*
%TO.N,unconnected-(J3-Pad02)*%
X98300000Y-73650000D03*
%TO.N,unconnected-(J3-Pad03)*%
X96650000Y-71650000D03*
%TO.N,unconnected-(J3-Pad04)*%
X96650000Y-73650000D03*
%TO.N,unconnected-(J3-Pad05)*%
X95000000Y-71650000D03*
%TO.N,unconnected-(J3-Pad06)*%
X95000000Y-73650000D03*
%TO.N,/CAL*%
X93350000Y-71650000D03*
%TO.N,/CAH*%
X93350000Y-73650000D03*
%TO.N,+5V*%
X91700000Y-71650000D03*
%TO.N,GND*%
X91700000Y-73650000D03*
D14*
%TO.N,/16V*%
X98320000Y-57860000D03*
X95820000Y-57860000D03*
X93320000Y-57860000D03*
X90820000Y-57860000D03*
X98320000Y-60860000D03*
X95820000Y-60860000D03*
X93320000Y-60860000D03*
X90820000Y-60860000D03*
%TO.N,GND*%
X98320000Y-63360000D03*
X95820000Y-63360000D03*
X93320000Y-63360000D03*
X90820000Y-63360000D03*
X98320000Y-66360000D03*
X95820000Y-66360000D03*
X93320000Y-66360000D03*
X90820000Y-66360000D03*
%TO.N,/Phase_3_T3*%
X98320000Y-78580000D03*
X95820000Y-78580000D03*
X93320000Y-78580000D03*
X90820000Y-78580000D03*
X98320000Y-81580000D03*
X95820000Y-81580000D03*
X93320000Y-81580000D03*
X90820000Y-81580000D03*
%TO.N,/Phase_2_T3*%
X98320000Y-84080000D03*
X95820000Y-84080000D03*
X93320000Y-84080000D03*
X90820000Y-84080000D03*
X98320000Y-87080000D03*
X95820000Y-87080000D03*
X93320000Y-87080000D03*
X90820000Y-87080000D03*
%TO.N,/Phase_1_T3*%
X98320000Y-89580000D03*
X95820000Y-89580000D03*
X93320000Y-89580000D03*
X90820000Y-89580000D03*
X98320000Y-92580000D03*
X95820000Y-92580000D03*
X93320000Y-92580000D03*
X90820000Y-92580000D03*
%TD*%
D10*
%TO.N,/Phase_1_T2*%
%TO.C,T2*%
X129725000Y-123570000D03*
D11*
%TO.N,/Phase_2_T2*%
X124645000Y-123570000D03*
%TO.N,/Phase_3_T2*%
X119565000Y-123570000D03*
%TD*%
D12*
%TO.N,unconnected-(J1-Pad01)*%
%TO.C,J1*%
X158450000Y-71650000D03*
D13*
%TO.N,unconnected-(J1-Pad02)*%
X158450000Y-73650000D03*
%TO.N,unconnected-(J1-Pad03)*%
X156800000Y-71650000D03*
%TO.N,unconnected-(J1-Pad04)*%
X156800000Y-73650000D03*
%TO.N,unconnected-(J1-Pad05)*%
X155150000Y-71650000D03*
%TO.N,unconnected-(J1-Pad06)*%
X155150000Y-73650000D03*
%TO.N,/CAL*%
X153500000Y-71650000D03*
%TO.N,/CAH*%
X153500000Y-73650000D03*
%TO.N,+5V*%
X151850000Y-71650000D03*
%TO.N,GND*%
X151850000Y-73650000D03*
D14*
%TO.N,/16V*%
X158470000Y-57860000D03*
X155970000Y-57860000D03*
X153470000Y-57860000D03*
X150970000Y-57860000D03*
X158470000Y-60860000D03*
X155970000Y-60860000D03*
X153470000Y-60860000D03*
X150970000Y-60860000D03*
%TO.N,GND*%
X158470000Y-63360000D03*
X155970000Y-63360000D03*
X153470000Y-63360000D03*
X150970000Y-63360000D03*
X158470000Y-66360000D03*
X155970000Y-66360000D03*
X153470000Y-66360000D03*
X150970000Y-66360000D03*
%TO.N,/Phase_3_T1*%
X158470000Y-78580000D03*
X155970000Y-78580000D03*
X153470000Y-78580000D03*
X150970000Y-78580000D03*
X158470000Y-81580000D03*
X155970000Y-81580000D03*
X153470000Y-81580000D03*
X150970000Y-81580000D03*
%TO.N,/Phase_2_T1*%
X158470000Y-84080000D03*
X155970000Y-84080000D03*
X153470000Y-84080000D03*
X150970000Y-84080000D03*
X158470000Y-87080000D03*
X155970000Y-87080000D03*
X153470000Y-87080000D03*
X150970000Y-87080000D03*
%TO.N,/Phase_1_T1*%
X158470000Y-89580000D03*
X155970000Y-89580000D03*
X153470000Y-89580000D03*
X150970000Y-89580000D03*
X158470000Y-92580000D03*
X155970000Y-92580000D03*
X153470000Y-92580000D03*
X150970000Y-92580000D03*
%TD*%
D10*
%TO.N,/16V*%
%TO.C,-*%
X34025000Y-53695000D03*
D11*
%TO.N,GND*%
X34025000Y-48615000D03*
%TD*%
D15*
%TO.N,GND*%
X35240000Y-85490000D03*
X183950000Y-80300000D03*
%TO.N,/CAL*%
X34850000Y-82300000D03*
%TO.N,/CAH*%
X34850000Y-83560000D03*
%TO.N,+5V*%
X35240000Y-80340000D03*
X183950000Y-85030000D03*
%TD*%
%TA.AperFunction,Conductor*%
%TO.N,/Phase_1_T3*%
G36*
X102522758Y-76258046D02*
G01*
X102580924Y-76277025D01*
X102616827Y-76326569D01*
X102621635Y-76356842D01*
X102654443Y-92391780D01*
X102729797Y-129220858D01*
X102711009Y-129279088D01*
X102661582Y-129315153D01*
X102630859Y-129320061D01*
X97334046Y-129323314D01*
X86548970Y-129329939D01*
X86490767Y-129311067D01*
X86454773Y-129261590D01*
X86449909Y-129231030D01*
X86446627Y-125642421D01*
X86444730Y-123568477D01*
X87459822Y-123568477D01*
X87460016Y-123571842D01*
X87460016Y-123571846D01*
X87463545Y-123633043D01*
X87475916Y-123847596D01*
X87529741Y-124121948D01*
X87620303Y-124386457D01*
X87745925Y-124636228D01*
X87904282Y-124866639D01*
X87906552Y-124869133D01*
X87906553Y-124869135D01*
X87951948Y-124919023D01*
X88092444Y-125073427D01*
X88306930Y-125252765D01*
X88543771Y-125401335D01*
X88546839Y-125402720D01*
X88546846Y-125402724D01*
X88712358Y-125477455D01*
X88798583Y-125516387D01*
X88801805Y-125517341D01*
X88801812Y-125517344D01*
X89016263Y-125580867D01*
X89066652Y-125595793D01*
X89069977Y-125596302D01*
X89069978Y-125596302D01*
X89339684Y-125637573D01*
X89339687Y-125637573D01*
X89343018Y-125638083D01*
X89346389Y-125638136D01*
X89346390Y-125638136D01*
X89394571Y-125638893D01*
X89622566Y-125642474D01*
X89625903Y-125642070D01*
X89625907Y-125642070D01*
X89896779Y-125609291D01*
X89896784Y-125609290D01*
X89900123Y-125608886D01*
X90170554Y-125537940D01*
X90336590Y-125469165D01*
X90425746Y-125432236D01*
X90425749Y-125432235D01*
X90428855Y-125430948D01*
X90431760Y-125429251D01*
X90431763Y-125429249D01*
X90667329Y-125291595D01*
X90670245Y-125289891D01*
X90890258Y-125117379D01*
X91084823Y-124916603D01*
X91094557Y-124903353D01*
X91151843Y-124825366D01*
X91250340Y-124691280D01*
X91281864Y-124633221D01*
X91382136Y-124448541D01*
X91383745Y-124445578D01*
X91482570Y-124184044D01*
X91527012Y-123990000D01*
X91544234Y-123914808D01*
X91544235Y-123914801D01*
X91544987Y-123911518D01*
X91569840Y-123633043D01*
X91570291Y-123590000D01*
X91568824Y-123568477D01*
X92539822Y-123568477D01*
X92540016Y-123571842D01*
X92540016Y-123571846D01*
X92543545Y-123633043D01*
X92555916Y-123847596D01*
X92609741Y-124121948D01*
X92700303Y-124386457D01*
X92825925Y-124636228D01*
X92984282Y-124866639D01*
X92986552Y-124869133D01*
X92986553Y-124869135D01*
X93031948Y-124919023D01*
X93172444Y-125073427D01*
X93386930Y-125252765D01*
X93623771Y-125401335D01*
X93626839Y-125402720D01*
X93626846Y-125402724D01*
X93792358Y-125477455D01*
X93878583Y-125516387D01*
X93881805Y-125517341D01*
X93881812Y-125517344D01*
X94096263Y-125580867D01*
X94146652Y-125595793D01*
X94149977Y-125596302D01*
X94149978Y-125596302D01*
X94419684Y-125637573D01*
X94419687Y-125637573D01*
X94423018Y-125638083D01*
X94426389Y-125638136D01*
X94426390Y-125638136D01*
X94474571Y-125638893D01*
X94702566Y-125642474D01*
X94705903Y-125642070D01*
X94705907Y-125642070D01*
X94976779Y-125609291D01*
X94976784Y-125609290D01*
X94980123Y-125608886D01*
X95250554Y-125537940D01*
X95416590Y-125469165D01*
X95505746Y-125432236D01*
X95505749Y-125432235D01*
X95508855Y-125430948D01*
X95511760Y-125429251D01*
X95511763Y-125429249D01*
X95747329Y-125291595D01*
X95750245Y-125289891D01*
X95970258Y-125117379D01*
X96164823Y-124916603D01*
X96174557Y-124903353D01*
X96190507Y-124881639D01*
X98125000Y-124881639D01*
X98125346Y-124887485D01*
X98127234Y-124903353D01*
X98131128Y-124917519D01*
X98169770Y-125004514D01*
X98179946Y-125019321D01*
X98246108Y-125085367D01*
X98260931Y-125095517D01*
X98347980Y-125134000D01*
X98362185Y-125137873D01*
X98377580Y-125139668D01*
X98383292Y-125140000D01*
X99259320Y-125140000D01*
X99272005Y-125135878D01*
X99275000Y-125131757D01*
X99275000Y-125124320D01*
X100075000Y-125124320D01*
X100079122Y-125137005D01*
X100083243Y-125140000D01*
X100966639Y-125140000D01*
X100972485Y-125139654D01*
X100988353Y-125137766D01*
X101002519Y-125133872D01*
X101089514Y-125095230D01*
X101104321Y-125085054D01*
X101170367Y-125018892D01*
X101180517Y-125004069D01*
X101219000Y-124917020D01*
X101222873Y-124902815D01*
X101224668Y-124887420D01*
X101225000Y-124881708D01*
X101225000Y-124005680D01*
X101220878Y-123992995D01*
X101216757Y-123990000D01*
X100090680Y-123990000D01*
X100077995Y-123994122D01*
X100075000Y-123998243D01*
X100075000Y-125124320D01*
X99275000Y-125124320D01*
X99275000Y-124005680D01*
X99270878Y-123992995D01*
X99266757Y-123990000D01*
X98140680Y-123990000D01*
X98127995Y-123994122D01*
X98125000Y-123998243D01*
X98125000Y-124881639D01*
X96190507Y-124881639D01*
X96231843Y-124825366D01*
X96330340Y-124691280D01*
X96361864Y-124633221D01*
X96462136Y-124448541D01*
X96463745Y-124445578D01*
X96562570Y-124184044D01*
X96607012Y-123990000D01*
X96624234Y-123914808D01*
X96624235Y-123914801D01*
X96624987Y-123911518D01*
X96649840Y-123633043D01*
X96650291Y-123590000D01*
X96631275Y-123311065D01*
X96602956Y-123174320D01*
X98125000Y-123174320D01*
X98129122Y-123187005D01*
X98133243Y-123190000D01*
X99259320Y-123190000D01*
X99272005Y-123185878D01*
X99275000Y-123181757D01*
X99275000Y-123174320D01*
X100075000Y-123174320D01*
X100079122Y-123187005D01*
X100083243Y-123190000D01*
X101209320Y-123190000D01*
X101222005Y-123185878D01*
X101225000Y-123181757D01*
X101225000Y-122298361D01*
X101224654Y-122292515D01*
X101222766Y-122276647D01*
X101218872Y-122262481D01*
X101180230Y-122175486D01*
X101170054Y-122160679D01*
X101103892Y-122094633D01*
X101089069Y-122084483D01*
X101002020Y-122046000D01*
X100987815Y-122042127D01*
X100972420Y-122040332D01*
X100966708Y-122040000D01*
X100090680Y-122040000D01*
X100077995Y-122044122D01*
X100075000Y-122048243D01*
X100075000Y-123174320D01*
X99275000Y-123174320D01*
X99275000Y-122055680D01*
X99270878Y-122042995D01*
X99266757Y-122040000D01*
X98383361Y-122040000D01*
X98377515Y-122040346D01*
X98361647Y-122042234D01*
X98347481Y-122046128D01*
X98260486Y-122084770D01*
X98245679Y-122094946D01*
X98179633Y-122161108D01*
X98169483Y-122175931D01*
X98131000Y-122262980D01*
X98127127Y-122277185D01*
X98125332Y-122292580D01*
X98125000Y-122298292D01*
X98125000Y-123174320D01*
X96602956Y-123174320D01*
X96574579Y-123037292D01*
X96481253Y-122773746D01*
X96469542Y-122751056D01*
X96354573Y-122528308D01*
X96354570Y-122528302D01*
X96353022Y-122525304D01*
X96192261Y-122296563D01*
X96188500Y-122292515D01*
X96004907Y-122094946D01*
X96001944Y-122091757D01*
X95941439Y-122042234D01*
X95788204Y-121916814D01*
X95785591Y-121914675D01*
X95547208Y-121768594D01*
X95544126Y-121767241D01*
X95294288Y-121657569D01*
X95294284Y-121657567D01*
X95291205Y-121656216D01*
X95241917Y-121642176D01*
X95025571Y-121580548D01*
X95025566Y-121580547D01*
X95022319Y-121579622D01*
X94745526Y-121540229D01*
X94742159Y-121540211D01*
X94742154Y-121540211D01*
X94617187Y-121539557D01*
X94465947Y-121538765D01*
X94188757Y-121575257D01*
X94185506Y-121576146D01*
X94185503Y-121576147D01*
X94094615Y-121601012D01*
X93919083Y-121649032D01*
X93661917Y-121758722D01*
X93422018Y-121902299D01*
X93203823Y-122077106D01*
X93201499Y-122079555D01*
X93014466Y-122276647D01*
X93011371Y-122279908D01*
X93009406Y-122282643D01*
X93009404Y-122282645D01*
X92997421Y-122299322D01*
X92848223Y-122506952D01*
X92717398Y-122754038D01*
X92621317Y-123016592D01*
X92620599Y-123019887D01*
X92586927Y-123174320D01*
X92561757Y-123289757D01*
X92539822Y-123568477D01*
X91568824Y-123568477D01*
X91551275Y-123311065D01*
X91494579Y-123037292D01*
X91401253Y-122773746D01*
X91389542Y-122751056D01*
X91274573Y-122528308D01*
X91274570Y-122528302D01*
X91273022Y-122525304D01*
X91112261Y-122296563D01*
X91108500Y-122292515D01*
X90924907Y-122094946D01*
X90921944Y-122091757D01*
X90861439Y-122042234D01*
X90708204Y-121916814D01*
X90705591Y-121914675D01*
X90467208Y-121768594D01*
X90464126Y-121767241D01*
X90214288Y-121657569D01*
X90214284Y-121657567D01*
X90211205Y-121656216D01*
X90161917Y-121642176D01*
X89945571Y-121580548D01*
X89945566Y-121580547D01*
X89942319Y-121579622D01*
X89665526Y-121540229D01*
X89662159Y-121540211D01*
X89662154Y-121540211D01*
X89537187Y-121539557D01*
X89385947Y-121538765D01*
X89108757Y-121575257D01*
X89105506Y-121576146D01*
X89105503Y-121576147D01*
X89014615Y-121601012D01*
X88839083Y-121649032D01*
X88581917Y-121758722D01*
X88342018Y-121902299D01*
X88123823Y-122077106D01*
X88121499Y-122079555D01*
X87934466Y-122276647D01*
X87931371Y-122279908D01*
X87929406Y-122282643D01*
X87929404Y-122282645D01*
X87917421Y-122299322D01*
X87768223Y-122506952D01*
X87637398Y-122754038D01*
X87541317Y-123016592D01*
X87540599Y-123019887D01*
X87506927Y-123174320D01*
X87481757Y-123289757D01*
X87459822Y-123568477D01*
X86444730Y-123568477D01*
X86417180Y-93453079D01*
X90517163Y-93453079D01*
X90526349Y-93461796D01*
X90527847Y-93462463D01*
X90537659Y-93465651D01*
X90717705Y-93503921D01*
X90727968Y-93505000D01*
X90912032Y-93505000D01*
X90922295Y-93503921D01*
X91102341Y-93465651D01*
X91112153Y-93462463D01*
X91114869Y-93461254D01*
X91122616Y-93454279D01*
X91122044Y-93453079D01*
X93017163Y-93453079D01*
X93026349Y-93461796D01*
X93027847Y-93462463D01*
X93037659Y-93465651D01*
X93217705Y-93503921D01*
X93227968Y-93505000D01*
X93412032Y-93505000D01*
X93422295Y-93503921D01*
X93602341Y-93465651D01*
X93612153Y-93462463D01*
X93614869Y-93461254D01*
X93622616Y-93454279D01*
X93622044Y-93453079D01*
X95517163Y-93453079D01*
X95526349Y-93461796D01*
X95527847Y-93462463D01*
X95537659Y-93465651D01*
X95717705Y-93503921D01*
X95727968Y-93505000D01*
X95912032Y-93505000D01*
X95922295Y-93503921D01*
X96102341Y-93465651D01*
X96112153Y-93462463D01*
X96114869Y-93461254D01*
X96122616Y-93454279D01*
X96122044Y-93453079D01*
X98017163Y-93453079D01*
X98026349Y-93461796D01*
X98027847Y-93462463D01*
X98037659Y-93465651D01*
X98217705Y-93503921D01*
X98227968Y-93505000D01*
X98412032Y-93505000D01*
X98422295Y-93503921D01*
X98602341Y-93465651D01*
X98612153Y-93462463D01*
X98614869Y-93461254D01*
X98622616Y-93454279D01*
X98617164Y-93442849D01*
X98331088Y-93156774D01*
X98319202Y-93150718D01*
X98314171Y-93151514D01*
X98021897Y-93443788D01*
X98017163Y-93453079D01*
X96122044Y-93453079D01*
X96117164Y-93442849D01*
X95831088Y-93156774D01*
X95819202Y-93150718D01*
X95814171Y-93151514D01*
X95521897Y-93443788D01*
X95517163Y-93453079D01*
X93622044Y-93453079D01*
X93617164Y-93442849D01*
X93331088Y-93156774D01*
X93319202Y-93150718D01*
X93314171Y-93151514D01*
X93021897Y-93443788D01*
X93017163Y-93453079D01*
X91122044Y-93453079D01*
X91117164Y-93442849D01*
X90831088Y-93156774D01*
X90819202Y-93150718D01*
X90814171Y-93151514D01*
X90521897Y-93443788D01*
X90517163Y-93453079D01*
X86417180Y-93453079D01*
X86416649Y-92872212D01*
X86416386Y-92585157D01*
X89890447Y-92585157D01*
X89909688Y-92768220D01*
X89911832Y-92778310D01*
X89942344Y-92872212D01*
X89949040Y-92881429D01*
X89954736Y-92879578D01*
X90243228Y-92591086D01*
X90248470Y-92580797D01*
X91390718Y-92580797D01*
X91391514Y-92585828D01*
X91681725Y-92876039D01*
X91691873Y-92881210D01*
X91696109Y-92876974D01*
X91728168Y-92778310D01*
X91730312Y-92768220D01*
X91749553Y-92585157D01*
X92390447Y-92585157D01*
X92409688Y-92768220D01*
X92411832Y-92778310D01*
X92442344Y-92872212D01*
X92449040Y-92881429D01*
X92454736Y-92879578D01*
X92743228Y-92591086D01*
X92748470Y-92580797D01*
X93890718Y-92580797D01*
X93891514Y-92585828D01*
X94181725Y-92876039D01*
X94191873Y-92881210D01*
X94196109Y-92876974D01*
X94228168Y-92778310D01*
X94230312Y-92768220D01*
X94249553Y-92585157D01*
X94890447Y-92585157D01*
X94909688Y-92768220D01*
X94911832Y-92778310D01*
X94942344Y-92872212D01*
X94949040Y-92881429D01*
X94954736Y-92879578D01*
X95243228Y-92591086D01*
X95248470Y-92580797D01*
X96390718Y-92580797D01*
X96391514Y-92585828D01*
X96681725Y-92876039D01*
X96691873Y-92881210D01*
X96696109Y-92876974D01*
X96728168Y-92778310D01*
X96730312Y-92768220D01*
X96749553Y-92585157D01*
X97390447Y-92585157D01*
X97409688Y-92768220D01*
X97411832Y-92778310D01*
X97442344Y-92872212D01*
X97449040Y-92881429D01*
X97454736Y-92879578D01*
X97743228Y-92591086D01*
X97748470Y-92580797D01*
X98890718Y-92580797D01*
X98891514Y-92585828D01*
X99181725Y-92876039D01*
X99191873Y-92881210D01*
X99196109Y-92876974D01*
X99228168Y-92778310D01*
X99230312Y-92768220D01*
X99249553Y-92585157D01*
X99249553Y-92574843D01*
X99230312Y-92391780D01*
X99228168Y-92381690D01*
X99197656Y-92287788D01*
X99190960Y-92278571D01*
X99185264Y-92280422D01*
X98896772Y-92568914D01*
X98890718Y-92580797D01*
X97748470Y-92580797D01*
X97749282Y-92579203D01*
X97748486Y-92574172D01*
X97458275Y-92283961D01*
X97448127Y-92278790D01*
X97443891Y-92283026D01*
X97411832Y-92381690D01*
X97409688Y-92391780D01*
X97390447Y-92574843D01*
X97390447Y-92585157D01*
X96749553Y-92585157D01*
X96749553Y-92574843D01*
X96730312Y-92391780D01*
X96728168Y-92381690D01*
X96697656Y-92287788D01*
X96690960Y-92278571D01*
X96685264Y-92280422D01*
X96396772Y-92568914D01*
X96390718Y-92580797D01*
X95248470Y-92580797D01*
X95249282Y-92579203D01*
X95248486Y-92574172D01*
X94958275Y-92283961D01*
X94948127Y-92278790D01*
X94943891Y-92283026D01*
X94911832Y-92381690D01*
X94909688Y-92391780D01*
X94890447Y-92574843D01*
X94890447Y-92585157D01*
X94249553Y-92585157D01*
X94249553Y-92574843D01*
X94230312Y-92391780D01*
X94228168Y-92381690D01*
X94197656Y-92287788D01*
X94190960Y-92278571D01*
X94185264Y-92280422D01*
X93896772Y-92568914D01*
X93890718Y-92580797D01*
X92748470Y-92580797D01*
X92749282Y-92579203D01*
X92748486Y-92574172D01*
X92458275Y-92283961D01*
X92448127Y-92278790D01*
X92443891Y-92283026D01*
X92411832Y-92381690D01*
X92409688Y-92391780D01*
X92390447Y-92574843D01*
X92390447Y-92585157D01*
X91749553Y-92585157D01*
X91749553Y-92574843D01*
X91730312Y-92391780D01*
X91728168Y-92381690D01*
X91697656Y-92287788D01*
X91690960Y-92278571D01*
X91685264Y-92280422D01*
X91396772Y-92568914D01*
X91390718Y-92580797D01*
X90248470Y-92580797D01*
X90249282Y-92579203D01*
X90248486Y-92574172D01*
X89958275Y-92283961D01*
X89948127Y-92278790D01*
X89943891Y-92283026D01*
X89911832Y-92381690D01*
X89909688Y-92391780D01*
X89890447Y-92574843D01*
X89890447Y-92585157D01*
X86416386Y-92585157D01*
X86415582Y-91705721D01*
X90517384Y-91705721D01*
X90522836Y-91717151D01*
X90808912Y-92003226D01*
X90820798Y-92009282D01*
X90825829Y-92008486D01*
X91118103Y-91716212D01*
X91122837Y-91706921D01*
X91121572Y-91705721D01*
X93017384Y-91705721D01*
X93022836Y-91717151D01*
X93308912Y-92003226D01*
X93320798Y-92009282D01*
X93325829Y-92008486D01*
X93618103Y-91716212D01*
X93622837Y-91706921D01*
X93621572Y-91705721D01*
X95517384Y-91705721D01*
X95522836Y-91717151D01*
X95808912Y-92003226D01*
X95820798Y-92009282D01*
X95825829Y-92008486D01*
X96118103Y-91716212D01*
X96122837Y-91706921D01*
X96121572Y-91705721D01*
X98017384Y-91705721D01*
X98022836Y-91717151D01*
X98308912Y-92003226D01*
X98320798Y-92009282D01*
X98325829Y-92008486D01*
X98618103Y-91716212D01*
X98622837Y-91706921D01*
X98613651Y-91698204D01*
X98612153Y-91697537D01*
X98602341Y-91694349D01*
X98422295Y-91656079D01*
X98412032Y-91655000D01*
X98227968Y-91655000D01*
X98217705Y-91656079D01*
X98037659Y-91694349D01*
X98027847Y-91697537D01*
X98025131Y-91698746D01*
X98017384Y-91705721D01*
X96121572Y-91705721D01*
X96113651Y-91698204D01*
X96112153Y-91697537D01*
X96102341Y-91694349D01*
X95922295Y-91656079D01*
X95912032Y-91655000D01*
X95727968Y-91655000D01*
X95717705Y-91656079D01*
X95537659Y-91694349D01*
X95527847Y-91697537D01*
X95525131Y-91698746D01*
X95517384Y-91705721D01*
X93621572Y-91705721D01*
X93613651Y-91698204D01*
X93612153Y-91697537D01*
X93602341Y-91694349D01*
X93422295Y-91656079D01*
X93412032Y-91655000D01*
X93227968Y-91655000D01*
X93217705Y-91656079D01*
X93037659Y-91694349D01*
X93027847Y-91697537D01*
X93025131Y-91698746D01*
X93017384Y-91705721D01*
X91121572Y-91705721D01*
X91113651Y-91698204D01*
X91112153Y-91697537D01*
X91102341Y-91694349D01*
X90922295Y-91656079D01*
X90912032Y-91655000D01*
X90727968Y-91655000D01*
X90717705Y-91656079D01*
X90537659Y-91694349D01*
X90527847Y-91697537D01*
X90525131Y-91698746D01*
X90517384Y-91705721D01*
X86415582Y-91705721D01*
X86414436Y-90453079D01*
X90517163Y-90453079D01*
X90526349Y-90461796D01*
X90527847Y-90462463D01*
X90537659Y-90465651D01*
X90717705Y-90503921D01*
X90727968Y-90505000D01*
X90912032Y-90505000D01*
X90922295Y-90503921D01*
X91102341Y-90465651D01*
X91112153Y-90462463D01*
X91114869Y-90461254D01*
X91122616Y-90454279D01*
X91122044Y-90453079D01*
X93017163Y-90453079D01*
X93026349Y-90461796D01*
X93027847Y-90462463D01*
X93037659Y-90465651D01*
X93217705Y-90503921D01*
X93227968Y-90505000D01*
X93412032Y-90505000D01*
X93422295Y-90503921D01*
X93602341Y-90465651D01*
X93612153Y-90462463D01*
X93614869Y-90461254D01*
X93622616Y-90454279D01*
X93622044Y-90453079D01*
X95517163Y-90453079D01*
X95526349Y-90461796D01*
X95527847Y-90462463D01*
X95537659Y-90465651D01*
X95717705Y-90503921D01*
X95727968Y-90505000D01*
X95912032Y-90505000D01*
X95922295Y-90503921D01*
X96102341Y-90465651D01*
X96112153Y-90462463D01*
X96114869Y-90461254D01*
X96122616Y-90454279D01*
X96122044Y-90453079D01*
X98017163Y-90453079D01*
X98026349Y-90461796D01*
X98027847Y-90462463D01*
X98037659Y-90465651D01*
X98217705Y-90503921D01*
X98227968Y-90505000D01*
X98412032Y-90505000D01*
X98422295Y-90503921D01*
X98602341Y-90465651D01*
X98612153Y-90462463D01*
X98614869Y-90461254D01*
X98622616Y-90454279D01*
X98617164Y-90442849D01*
X98331088Y-90156774D01*
X98319202Y-90150718D01*
X98314171Y-90151514D01*
X98021897Y-90443788D01*
X98017163Y-90453079D01*
X96122044Y-90453079D01*
X96117164Y-90442849D01*
X95831088Y-90156774D01*
X95819202Y-90150718D01*
X95814171Y-90151514D01*
X95521897Y-90443788D01*
X95517163Y-90453079D01*
X93622044Y-90453079D01*
X93617164Y-90442849D01*
X93331088Y-90156774D01*
X93319202Y-90150718D01*
X93314171Y-90151514D01*
X93021897Y-90443788D01*
X93017163Y-90453079D01*
X91122044Y-90453079D01*
X91117164Y-90442849D01*
X90831088Y-90156774D01*
X90819202Y-90150718D01*
X90814171Y-90151514D01*
X90521897Y-90443788D01*
X90517163Y-90453079D01*
X86414436Y-90453079D01*
X86413642Y-89585157D01*
X89890447Y-89585157D01*
X89909688Y-89768220D01*
X89911832Y-89778310D01*
X89942344Y-89872212D01*
X89949040Y-89881429D01*
X89954736Y-89879578D01*
X90243228Y-89591086D01*
X90248470Y-89580797D01*
X91390718Y-89580797D01*
X91391514Y-89585828D01*
X91681725Y-89876039D01*
X91691873Y-89881210D01*
X91696109Y-89876974D01*
X91728168Y-89778310D01*
X91730312Y-89768220D01*
X91749553Y-89585157D01*
X92390447Y-89585157D01*
X92409688Y-89768220D01*
X92411832Y-89778310D01*
X92442344Y-89872212D01*
X92449040Y-89881429D01*
X92454736Y-89879578D01*
X92743228Y-89591086D01*
X92748470Y-89580797D01*
X93890718Y-89580797D01*
X93891514Y-89585828D01*
X94181725Y-89876039D01*
X94191873Y-89881210D01*
X94196109Y-89876974D01*
X94228168Y-89778310D01*
X94230312Y-89768220D01*
X94249553Y-89585157D01*
X94890447Y-89585157D01*
X94909688Y-89768220D01*
X94911832Y-89778310D01*
X94942344Y-89872212D01*
X94949040Y-89881429D01*
X94954736Y-89879578D01*
X95243228Y-89591086D01*
X95248470Y-89580797D01*
X96390718Y-89580797D01*
X96391514Y-89585828D01*
X96681725Y-89876039D01*
X96691873Y-89881210D01*
X96696109Y-89876974D01*
X96728168Y-89778310D01*
X96730312Y-89768220D01*
X96749553Y-89585157D01*
X97390447Y-89585157D01*
X97409688Y-89768220D01*
X97411832Y-89778310D01*
X97442344Y-89872212D01*
X97449040Y-89881429D01*
X97454736Y-89879578D01*
X97743228Y-89591086D01*
X97748470Y-89580797D01*
X98890718Y-89580797D01*
X98891514Y-89585828D01*
X99181725Y-89876039D01*
X99191873Y-89881210D01*
X99196109Y-89876974D01*
X99228168Y-89778310D01*
X99230312Y-89768220D01*
X99249553Y-89585157D01*
X99249553Y-89574843D01*
X99230312Y-89391780D01*
X99228168Y-89381690D01*
X99197656Y-89287788D01*
X99190960Y-89278571D01*
X99185264Y-89280422D01*
X98896772Y-89568914D01*
X98890718Y-89580797D01*
X97748470Y-89580797D01*
X97749282Y-89579203D01*
X97748486Y-89574172D01*
X97458275Y-89283961D01*
X97448127Y-89278790D01*
X97443891Y-89283026D01*
X97411832Y-89381690D01*
X97409688Y-89391780D01*
X97390447Y-89574843D01*
X97390447Y-89585157D01*
X96749553Y-89585157D01*
X96749553Y-89574843D01*
X96730312Y-89391780D01*
X96728168Y-89381690D01*
X96697656Y-89287788D01*
X96690960Y-89278571D01*
X96685264Y-89280422D01*
X96396772Y-89568914D01*
X96390718Y-89580797D01*
X95248470Y-89580797D01*
X95249282Y-89579203D01*
X95248486Y-89574172D01*
X94958275Y-89283961D01*
X94948127Y-89278790D01*
X94943891Y-89283026D01*
X94911832Y-89381690D01*
X94909688Y-89391780D01*
X94890447Y-89574843D01*
X94890447Y-89585157D01*
X94249553Y-89585157D01*
X94249553Y-89574843D01*
X94230312Y-89391780D01*
X94228168Y-89381690D01*
X94197656Y-89287788D01*
X94190960Y-89278571D01*
X94185264Y-89280422D01*
X93896772Y-89568914D01*
X93890718Y-89580797D01*
X92748470Y-89580797D01*
X92749282Y-89579203D01*
X92748486Y-89574172D01*
X92458275Y-89283961D01*
X92448127Y-89278790D01*
X92443891Y-89283026D01*
X92411832Y-89381690D01*
X92409688Y-89391780D01*
X92390447Y-89574843D01*
X92390447Y-89585157D01*
X91749553Y-89585157D01*
X91749553Y-89574843D01*
X91730312Y-89391780D01*
X91728168Y-89381690D01*
X91697656Y-89287788D01*
X91690960Y-89278571D01*
X91685264Y-89280422D01*
X91396772Y-89568914D01*
X91390718Y-89580797D01*
X90248470Y-89580797D01*
X90249282Y-89579203D01*
X90248486Y-89574172D01*
X89958275Y-89283961D01*
X89948127Y-89278790D01*
X89943891Y-89283026D01*
X89911832Y-89381690D01*
X89909688Y-89391780D01*
X89890447Y-89574843D01*
X89890447Y-89585157D01*
X86413642Y-89585157D01*
X86411319Y-87045053D01*
X89390042Y-87045053D01*
X89403535Y-87279071D01*
X89404427Y-87283028D01*
X89425886Y-87378247D01*
X89455069Y-87507743D01*
X89456598Y-87511507D01*
X89456599Y-87511512D01*
X89496673Y-87610202D01*
X89543259Y-87724928D01*
X89545383Y-87728394D01*
X89545385Y-87728398D01*
X89601521Y-87820003D01*
X89665736Y-87924793D01*
X89668395Y-87927863D01*
X89668396Y-87927864D01*
X89739481Y-88009927D01*
X89819212Y-88101971D01*
X89999565Y-88251703D01*
X90201951Y-88369968D01*
X90420935Y-88453590D01*
X90424910Y-88454399D01*
X90424911Y-88454399D01*
X90592901Y-88488577D01*
X90646155Y-88518707D01*
X90671528Y-88574383D01*
X90659329Y-88634340D01*
X90614219Y-88675676D01*
X90593747Y-88682427D01*
X90537659Y-88694349D01*
X90527847Y-88697537D01*
X90525131Y-88698746D01*
X90517384Y-88705721D01*
X90522836Y-88717151D01*
X90808912Y-89003226D01*
X90820798Y-89009282D01*
X90825829Y-89008486D01*
X91118103Y-88716212D01*
X91122837Y-88706921D01*
X91113651Y-88698204D01*
X91112153Y-88697537D01*
X91102341Y-88694348D01*
X91045738Y-88682317D01*
X90992750Y-88651724D01*
X90967863Y-88595828D01*
X90980585Y-88535980D01*
X91026054Y-88495039D01*
X91053742Y-88487282D01*
X91113362Y-88479645D01*
X91113368Y-88479644D01*
X91117394Y-88479128D01*
X91121287Y-88477960D01*
X91121292Y-88477959D01*
X91280542Y-88430181D01*
X91341914Y-88411768D01*
X91452707Y-88357491D01*
X91548771Y-88310430D01*
X91548774Y-88310428D01*
X91552418Y-88308643D01*
X91743253Y-88172522D01*
X91909293Y-88007061D01*
X91983616Y-87903630D01*
X91987960Y-87897585D01*
X92037271Y-87861363D01*
X92098456Y-87861043D01*
X92148143Y-87896747D01*
X92152761Y-87903619D01*
X92165736Y-87924793D01*
X92168395Y-87927863D01*
X92168396Y-87927864D01*
X92239481Y-88009927D01*
X92319212Y-88101971D01*
X92499565Y-88251703D01*
X92701951Y-88369968D01*
X92920935Y-88453590D01*
X92924910Y-88454399D01*
X92924911Y-88454399D01*
X93092901Y-88488577D01*
X93146155Y-88518707D01*
X93171528Y-88574383D01*
X93159329Y-88634340D01*
X93114219Y-88675676D01*
X93093747Y-88682427D01*
X93037659Y-88694349D01*
X93027847Y-88697537D01*
X93025131Y-88698746D01*
X93017384Y-88705721D01*
X93022836Y-88717151D01*
X93308912Y-89003226D01*
X93320798Y-89009282D01*
X93325829Y-89008486D01*
X93618103Y-88716212D01*
X93622837Y-88706921D01*
X93613651Y-88698204D01*
X93612153Y-88697537D01*
X93602341Y-88694348D01*
X93545738Y-88682317D01*
X93492750Y-88651724D01*
X93467863Y-88595828D01*
X93480585Y-88535980D01*
X93526054Y-88495039D01*
X93553742Y-88487282D01*
X93613362Y-88479645D01*
X93613368Y-88479644D01*
X93617394Y-88479128D01*
X93621287Y-88477960D01*
X93621292Y-88477959D01*
X93780542Y-88430181D01*
X93841914Y-88411768D01*
X93952707Y-88357491D01*
X94048771Y-88310430D01*
X94048774Y-88310428D01*
X94052418Y-88308643D01*
X94243253Y-88172522D01*
X94409293Y-88007061D01*
X94483616Y-87903630D01*
X94487960Y-87897585D01*
X94537271Y-87861363D01*
X94598456Y-87861043D01*
X94648143Y-87896747D01*
X94652761Y-87903619D01*
X94665736Y-87924793D01*
X94668395Y-87927863D01*
X94668396Y-87927864D01*
X94739481Y-88009927D01*
X94819212Y-88101971D01*
X94999565Y-88251703D01*
X95201951Y-88369968D01*
X95420935Y-88453590D01*
X95424910Y-88454399D01*
X95424911Y-88454399D01*
X95592901Y-88488577D01*
X95646155Y-88518707D01*
X95671528Y-88574383D01*
X95659329Y-88634340D01*
X95614219Y-88675676D01*
X95593747Y-88682427D01*
X95537659Y-88694349D01*
X95527847Y-88697537D01*
X95525131Y-88698746D01*
X95517384Y-88705721D01*
X95522836Y-88717151D01*
X95808912Y-89003226D01*
X95820798Y-89009282D01*
X95825829Y-89008486D01*
X96118103Y-88716212D01*
X96122837Y-88706921D01*
X96113651Y-88698204D01*
X96112153Y-88697537D01*
X96102341Y-88694348D01*
X96045738Y-88682317D01*
X95992750Y-88651724D01*
X95967863Y-88595828D01*
X95980585Y-88535980D01*
X96026054Y-88495039D01*
X96053742Y-88487282D01*
X96113362Y-88479645D01*
X96113368Y-88479644D01*
X96117394Y-88479128D01*
X96121287Y-88477960D01*
X96121292Y-88477959D01*
X96280542Y-88430181D01*
X96341914Y-88411768D01*
X96452707Y-88357491D01*
X96548771Y-88310430D01*
X96548774Y-88310428D01*
X96552418Y-88308643D01*
X96743253Y-88172522D01*
X96909293Y-88007061D01*
X96983616Y-87903630D01*
X96987960Y-87897585D01*
X97037271Y-87861363D01*
X97098456Y-87861043D01*
X97148143Y-87896747D01*
X97152761Y-87903619D01*
X97165736Y-87924793D01*
X97168395Y-87927863D01*
X97168396Y-87927864D01*
X97239481Y-88009927D01*
X97319212Y-88101971D01*
X97499565Y-88251703D01*
X97701951Y-88369968D01*
X97920935Y-88453590D01*
X97924910Y-88454399D01*
X97924911Y-88454399D01*
X98092901Y-88488577D01*
X98146155Y-88518707D01*
X98171528Y-88574383D01*
X98159329Y-88634340D01*
X98114219Y-88675676D01*
X98093747Y-88682427D01*
X98037659Y-88694349D01*
X98027847Y-88697537D01*
X98025131Y-88698746D01*
X98017384Y-88705721D01*
X98022836Y-88717151D01*
X98308912Y-89003226D01*
X98320798Y-89009282D01*
X98325829Y-89008486D01*
X98618103Y-88716212D01*
X98622837Y-88706921D01*
X98613651Y-88698204D01*
X98612153Y-88697537D01*
X98602341Y-88694348D01*
X98545738Y-88682317D01*
X98492750Y-88651724D01*
X98467863Y-88595828D01*
X98480585Y-88535980D01*
X98526054Y-88495039D01*
X98553742Y-88487282D01*
X98613362Y-88479645D01*
X98613368Y-88479644D01*
X98617394Y-88479128D01*
X98621287Y-88477960D01*
X98621292Y-88477959D01*
X98780542Y-88430181D01*
X98841914Y-88411768D01*
X98952707Y-88357491D01*
X99048771Y-88310430D01*
X99048774Y-88310428D01*
X99052418Y-88308643D01*
X99243253Y-88172522D01*
X99409293Y-88007061D01*
X99483616Y-87903630D01*
X99543708Y-87820003D01*
X99543709Y-87820001D01*
X99546079Y-87816703D01*
X99547877Y-87813065D01*
X99547880Y-87813060D01*
X99648138Y-87610202D01*
X99649938Y-87606560D01*
X99651116Y-87602684D01*
X99651118Y-87602678D01*
X99716901Y-87386160D01*
X99716901Y-87386159D01*
X99718081Y-87382276D01*
X99748677Y-87149874D01*
X99750385Y-87080000D01*
X99731178Y-86846381D01*
X99722536Y-86811973D01*
X99675064Y-86622982D01*
X99674073Y-86619036D01*
X99580603Y-86404070D01*
X99453279Y-86207258D01*
X99295520Y-86033883D01*
X99292334Y-86031367D01*
X99292331Y-86031364D01*
X99114751Y-85891119D01*
X99114745Y-85891115D01*
X99111563Y-85888602D01*
X98906348Y-85775317D01*
X98902517Y-85773960D01*
X98902514Y-85773959D01*
X98689222Y-85698428D01*
X98689218Y-85698427D01*
X98685386Y-85697070D01*
X98582192Y-85678688D01*
X98528220Y-85649870D01*
X98501494Y-85594830D01*
X98512223Y-85534593D01*
X98556310Y-85492167D01*
X98586974Y-85483026D01*
X98613351Y-85479647D01*
X98613364Y-85479644D01*
X98617394Y-85479128D01*
X98621287Y-85477960D01*
X98621292Y-85477959D01*
X98780542Y-85430181D01*
X98841914Y-85411768D01*
X98952707Y-85357491D01*
X99048771Y-85310430D01*
X99048774Y-85310428D01*
X99052418Y-85308643D01*
X99243253Y-85172522D01*
X99409293Y-85007061D01*
X99483616Y-84903630D01*
X99543708Y-84820003D01*
X99543709Y-84820001D01*
X99546079Y-84816703D01*
X99547877Y-84813065D01*
X99547880Y-84813060D01*
X99648138Y-84610202D01*
X99649938Y-84606560D01*
X99651116Y-84602684D01*
X99651118Y-84602678D01*
X99716901Y-84386160D01*
X99716901Y-84386159D01*
X99718081Y-84382276D01*
X99748677Y-84149874D01*
X99750385Y-84080000D01*
X99731178Y-83846381D01*
X99722536Y-83811973D01*
X99675064Y-83622982D01*
X99674073Y-83619036D01*
X99580603Y-83404070D01*
X99453279Y-83207258D01*
X99295520Y-83033883D01*
X99292334Y-83031367D01*
X99292331Y-83031364D01*
X99133774Y-82906143D01*
X99099825Y-82855239D01*
X99102281Y-82794103D01*
X99137642Y-82747854D01*
X99243253Y-82672522D01*
X99409293Y-82507061D01*
X99483616Y-82403630D01*
X99543708Y-82320003D01*
X99543709Y-82320001D01*
X99546079Y-82316703D01*
X99547877Y-82313065D01*
X99547880Y-82313060D01*
X99648138Y-82110202D01*
X99649938Y-82106560D01*
X99651116Y-82102684D01*
X99651118Y-82102678D01*
X99716901Y-81886160D01*
X99716901Y-81886159D01*
X99718081Y-81882276D01*
X99748677Y-81649874D01*
X99750385Y-81580000D01*
X99731178Y-81346381D01*
X99722536Y-81311973D01*
X99675064Y-81122982D01*
X99674073Y-81119036D01*
X99580603Y-80904070D01*
X99453279Y-80707258D01*
X99295520Y-80533883D01*
X99292334Y-80531367D01*
X99292331Y-80531364D01*
X99114751Y-80391119D01*
X99114745Y-80391115D01*
X99111563Y-80388602D01*
X98906348Y-80275317D01*
X98902517Y-80273960D01*
X98902514Y-80273959D01*
X98689222Y-80198428D01*
X98689218Y-80198427D01*
X98685386Y-80197070D01*
X98582192Y-80178688D01*
X98528220Y-80149870D01*
X98501494Y-80094830D01*
X98512223Y-80034593D01*
X98556310Y-79992167D01*
X98586974Y-79983026D01*
X98613351Y-79979647D01*
X98613364Y-79979644D01*
X98617394Y-79979128D01*
X98621287Y-79977960D01*
X98621292Y-79977959D01*
X98780542Y-79930181D01*
X98841914Y-79911768D01*
X98952707Y-79857491D01*
X99048771Y-79810430D01*
X99048774Y-79810428D01*
X99052418Y-79808643D01*
X99243253Y-79672522D01*
X99409293Y-79507061D01*
X99483616Y-79403630D01*
X99543708Y-79320003D01*
X99543709Y-79320001D01*
X99546079Y-79316703D01*
X99547877Y-79313065D01*
X99547880Y-79313060D01*
X99648138Y-79110202D01*
X99649938Y-79106560D01*
X99651116Y-79102684D01*
X99651118Y-79102678D01*
X99716901Y-78886160D01*
X99716901Y-78886159D01*
X99718081Y-78882276D01*
X99748677Y-78649874D01*
X99750385Y-78580000D01*
X99731178Y-78346381D01*
X99722536Y-78311973D01*
X99675064Y-78122982D01*
X99674073Y-78119036D01*
X99580603Y-77904070D01*
X99453279Y-77707258D01*
X99295520Y-77533883D01*
X99292334Y-77531367D01*
X99292331Y-77531364D01*
X99114751Y-77391119D01*
X99114745Y-77391115D01*
X99111563Y-77388602D01*
X98906348Y-77275317D01*
X98902517Y-77273960D01*
X98902514Y-77273959D01*
X98689222Y-77198428D01*
X98689218Y-77198427D01*
X98685386Y-77197070D01*
X98454611Y-77155963D01*
X98450565Y-77155914D01*
X98450559Y-77155913D01*
X98321260Y-77154334D01*
X98220221Y-77153099D01*
X97988511Y-77188556D01*
X97868379Y-77227821D01*
X97769561Y-77260120D01*
X97769557Y-77260121D01*
X97765704Y-77261381D01*
X97762104Y-77263255D01*
X97561387Y-77367741D01*
X97561384Y-77367743D01*
X97557782Y-77369618D01*
X97554540Y-77372053D01*
X97554534Y-77372056D01*
X97529145Y-77391119D01*
X97370330Y-77510361D01*
X97208382Y-77679830D01*
X97206090Y-77683190D01*
X97152312Y-77762025D01*
X97103900Y-77799442D01*
X97042742Y-77801257D01*
X96992197Y-77766777D01*
X96987418Y-77760028D01*
X96953279Y-77707258D01*
X96795520Y-77533883D01*
X96792334Y-77531367D01*
X96792331Y-77531364D01*
X96614751Y-77391119D01*
X96614745Y-77391115D01*
X96611563Y-77388602D01*
X96406348Y-77275317D01*
X96402517Y-77273960D01*
X96402514Y-77273959D01*
X96189222Y-77198428D01*
X96189218Y-77198427D01*
X96185386Y-77197070D01*
X95954611Y-77155963D01*
X95950565Y-77155914D01*
X95950559Y-77155913D01*
X95821260Y-77154334D01*
X95720221Y-77153099D01*
X95488511Y-77188556D01*
X95368379Y-77227821D01*
X95269561Y-77260120D01*
X95269557Y-77260121D01*
X95265704Y-77261381D01*
X95262104Y-77263255D01*
X95061387Y-77367741D01*
X95061384Y-77367743D01*
X95057782Y-77369618D01*
X95054540Y-77372053D01*
X95054534Y-77372056D01*
X95029145Y-77391119D01*
X94870330Y-77510361D01*
X94708382Y-77679830D01*
X94706090Y-77683190D01*
X94652312Y-77762025D01*
X94603900Y-77799442D01*
X94542742Y-77801257D01*
X94492197Y-77766777D01*
X94487418Y-77760028D01*
X94453279Y-77707258D01*
X94295520Y-77533883D01*
X94292334Y-77531367D01*
X94292331Y-77531364D01*
X94114751Y-77391119D01*
X94114745Y-77391115D01*
X94111563Y-77388602D01*
X93906348Y-77275317D01*
X93902517Y-77273960D01*
X93902514Y-77273959D01*
X93689222Y-77198428D01*
X93689218Y-77198427D01*
X93685386Y-77197070D01*
X93454611Y-77155963D01*
X93450565Y-77155914D01*
X93450559Y-77155913D01*
X93321260Y-77154334D01*
X93220221Y-77153099D01*
X92988511Y-77188556D01*
X92868379Y-77227821D01*
X92769561Y-77260120D01*
X92769557Y-77260121D01*
X92765704Y-77261381D01*
X92762104Y-77263255D01*
X92561387Y-77367741D01*
X92561384Y-77367743D01*
X92557782Y-77369618D01*
X92554540Y-77372053D01*
X92554534Y-77372056D01*
X92529145Y-77391119D01*
X92370330Y-77510361D01*
X92208382Y-77679830D01*
X92206090Y-77683190D01*
X92152312Y-77762025D01*
X92103900Y-77799442D01*
X92042742Y-77801257D01*
X91992197Y-77766777D01*
X91987418Y-77760028D01*
X91953279Y-77707258D01*
X91795520Y-77533883D01*
X91792334Y-77531367D01*
X91792331Y-77531364D01*
X91614751Y-77391119D01*
X91614745Y-77391115D01*
X91611563Y-77388602D01*
X91406348Y-77275317D01*
X91402517Y-77273960D01*
X91402514Y-77273959D01*
X91189222Y-77198428D01*
X91189218Y-77198427D01*
X91185386Y-77197070D01*
X90954611Y-77155963D01*
X90950565Y-77155914D01*
X90950559Y-77155913D01*
X90821260Y-77154334D01*
X90720221Y-77153099D01*
X90488511Y-77188556D01*
X90368379Y-77227821D01*
X90269561Y-77260120D01*
X90269557Y-77260121D01*
X90265704Y-77261381D01*
X90262104Y-77263255D01*
X90061387Y-77367741D01*
X90061384Y-77367743D01*
X90057782Y-77369618D01*
X90054540Y-77372053D01*
X90054534Y-77372056D01*
X90029145Y-77391119D01*
X89870330Y-77510361D01*
X89708382Y-77679830D01*
X89576287Y-77873473D01*
X89477594Y-78086091D01*
X89414951Y-78311973D01*
X89390042Y-78545053D01*
X89403535Y-78779071D01*
X89404427Y-78783028D01*
X89425886Y-78878247D01*
X89455069Y-79007743D01*
X89456598Y-79011507D01*
X89456599Y-79011512D01*
X89496673Y-79110202D01*
X89543259Y-79224928D01*
X89545383Y-79228394D01*
X89545385Y-79228398D01*
X89601521Y-79320003D01*
X89665736Y-79424793D01*
X89668395Y-79427863D01*
X89668396Y-79427864D01*
X89739481Y-79509927D01*
X89819212Y-79601971D01*
X89999565Y-79751703D01*
X90201951Y-79869968D01*
X90420935Y-79953590D01*
X90564457Y-79982790D01*
X90617709Y-80012918D01*
X90643083Y-80068594D01*
X90630884Y-80128552D01*
X90585774Y-80169888D01*
X90559694Y-80177663D01*
X90512923Y-80184820D01*
X90488511Y-80188556D01*
X90368379Y-80227821D01*
X90269561Y-80260120D01*
X90269557Y-80260121D01*
X90265704Y-80261381D01*
X90262104Y-80263255D01*
X90061387Y-80367741D01*
X90061384Y-80367743D01*
X90057782Y-80369618D01*
X90054540Y-80372053D01*
X90054534Y-80372056D01*
X90029145Y-80391119D01*
X89870330Y-80510361D01*
X89708382Y-80679830D01*
X89576287Y-80873473D01*
X89477594Y-81086091D01*
X89414951Y-81311973D01*
X89390042Y-81545053D01*
X89403535Y-81779071D01*
X89404427Y-81783028D01*
X89425886Y-81878247D01*
X89455069Y-82007743D01*
X89456598Y-82011507D01*
X89456599Y-82011512D01*
X89496673Y-82110202D01*
X89543259Y-82224928D01*
X89545383Y-82228394D01*
X89545385Y-82228398D01*
X89601521Y-82320003D01*
X89665736Y-82424793D01*
X89668395Y-82427863D01*
X89668396Y-82427864D01*
X89739481Y-82509927D01*
X89819212Y-82601971D01*
X89999565Y-82751703D01*
X89999976Y-82751943D01*
X90036228Y-82800046D01*
X90037299Y-82861222D01*
X90002065Y-82911451D01*
X89873576Y-83007923D01*
X89873570Y-83007928D01*
X89870330Y-83010361D01*
X89708382Y-83179830D01*
X89576287Y-83373473D01*
X89477594Y-83586091D01*
X89414951Y-83811973D01*
X89390042Y-84045053D01*
X89403535Y-84279071D01*
X89404427Y-84283028D01*
X89425886Y-84378247D01*
X89455069Y-84507743D01*
X89456598Y-84511507D01*
X89456599Y-84511512D01*
X89496673Y-84610202D01*
X89543259Y-84724928D01*
X89545383Y-84728394D01*
X89545385Y-84728398D01*
X89601521Y-84820003D01*
X89665736Y-84924793D01*
X89668395Y-84927863D01*
X89668396Y-84927864D01*
X89739481Y-85009927D01*
X89819212Y-85101971D01*
X89999565Y-85251703D01*
X90201951Y-85369968D01*
X90420935Y-85453590D01*
X90564457Y-85482790D01*
X90617709Y-85512918D01*
X90643083Y-85568594D01*
X90630884Y-85628552D01*
X90585774Y-85669888D01*
X90559694Y-85677663D01*
X90512923Y-85684820D01*
X90488511Y-85688556D01*
X90368379Y-85727821D01*
X90269561Y-85760120D01*
X90269557Y-85760121D01*
X90265704Y-85761381D01*
X90262104Y-85763255D01*
X90061387Y-85867741D01*
X90061384Y-85867743D01*
X90057782Y-85869618D01*
X90054540Y-85872053D01*
X90054534Y-85872056D01*
X90029145Y-85891119D01*
X89870330Y-86010361D01*
X89708382Y-86179830D01*
X89576287Y-86373473D01*
X89477594Y-86586091D01*
X89414951Y-86811973D01*
X89390042Y-87045053D01*
X86411319Y-87045053D01*
X86401524Y-76337381D01*
X86420378Y-76279173D01*
X86469845Y-76243163D01*
X86500644Y-76238290D01*
X102522758Y-76258046D01*
G37*
%TD.AperFunction*%
%TD*%
%TA.AperFunction,Conductor*%
%TO.N,/Phase_1_T2*%
G36*
X123314536Y-76251860D02*
G01*
X132617669Y-76257565D01*
X132675847Y-76276508D01*
X132711780Y-76326030D01*
X132716607Y-76356464D01*
X132722389Y-82011512D01*
X132766934Y-125574837D01*
X132770672Y-129230823D01*
X132751824Y-129289033D01*
X132702361Y-129325047D01*
X132671672Y-129329924D01*
X124638212Y-129329962D01*
X116609047Y-129330000D01*
X116550858Y-129311093D01*
X116514894Y-129261593D01*
X116510048Y-129230952D01*
X116511798Y-125622070D01*
X116512803Y-123548477D01*
X117509822Y-123548477D01*
X117510016Y-123551842D01*
X117510016Y-123551846D01*
X117513545Y-123613043D01*
X117525916Y-123827596D01*
X117579741Y-124101948D01*
X117670303Y-124366457D01*
X117795925Y-124616228D01*
X117954282Y-124846639D01*
X117956552Y-124849133D01*
X117956553Y-124849135D01*
X118001948Y-124899023D01*
X118142444Y-125053427D01*
X118356930Y-125232765D01*
X118593771Y-125381335D01*
X118596839Y-125382720D01*
X118596846Y-125382724D01*
X118762358Y-125457455D01*
X118848583Y-125496387D01*
X118851805Y-125497341D01*
X118851812Y-125497344D01*
X119066263Y-125560867D01*
X119116652Y-125575793D01*
X119119977Y-125576302D01*
X119119978Y-125576302D01*
X119389684Y-125617573D01*
X119389687Y-125617573D01*
X119393018Y-125618083D01*
X119396389Y-125618136D01*
X119396390Y-125618136D01*
X119444571Y-125618893D01*
X119672566Y-125622474D01*
X119675903Y-125622070D01*
X119675907Y-125622070D01*
X119946779Y-125589291D01*
X119946784Y-125589290D01*
X119950123Y-125588886D01*
X120220554Y-125517940D01*
X120386590Y-125449165D01*
X120475746Y-125412236D01*
X120475749Y-125412235D01*
X120478855Y-125410948D01*
X120481760Y-125409251D01*
X120481763Y-125409249D01*
X120717329Y-125271595D01*
X120720245Y-125269891D01*
X120940258Y-125097379D01*
X121134823Y-124896603D01*
X121144557Y-124883353D01*
X121201843Y-124805366D01*
X121300340Y-124671280D01*
X121331864Y-124613221D01*
X121432136Y-124428541D01*
X121433745Y-124425578D01*
X121532570Y-124164044D01*
X121577012Y-123970000D01*
X121594234Y-123894808D01*
X121594235Y-123894801D01*
X121594987Y-123891518D01*
X121619840Y-123613043D01*
X121620291Y-123570000D01*
X121618824Y-123548477D01*
X122589822Y-123548477D01*
X122590016Y-123551842D01*
X122590016Y-123551846D01*
X122593545Y-123613043D01*
X122605916Y-123827596D01*
X122659741Y-124101948D01*
X122750303Y-124366457D01*
X122875925Y-124616228D01*
X123034282Y-124846639D01*
X123036552Y-124849133D01*
X123036553Y-124849135D01*
X123081948Y-124899023D01*
X123222444Y-125053427D01*
X123436930Y-125232765D01*
X123673771Y-125381335D01*
X123676839Y-125382720D01*
X123676846Y-125382724D01*
X123842358Y-125457455D01*
X123928583Y-125496387D01*
X123931805Y-125497341D01*
X123931812Y-125497344D01*
X124146263Y-125560867D01*
X124196652Y-125575793D01*
X124199977Y-125576302D01*
X124199978Y-125576302D01*
X124469684Y-125617573D01*
X124469687Y-125617573D01*
X124473018Y-125618083D01*
X124476389Y-125618136D01*
X124476390Y-125618136D01*
X124524571Y-125618893D01*
X124752566Y-125622474D01*
X124755903Y-125622070D01*
X124755907Y-125622070D01*
X125026779Y-125589291D01*
X125026784Y-125589290D01*
X125030123Y-125588886D01*
X125300554Y-125517940D01*
X125466590Y-125449165D01*
X125555746Y-125412236D01*
X125555749Y-125412235D01*
X125558855Y-125410948D01*
X125561760Y-125409251D01*
X125561763Y-125409249D01*
X125797329Y-125271595D01*
X125800245Y-125269891D01*
X126020258Y-125097379D01*
X126214823Y-124896603D01*
X126224557Y-124883353D01*
X126240507Y-124861639D01*
X128175000Y-124861639D01*
X128175346Y-124867485D01*
X128177234Y-124883353D01*
X128181128Y-124897519D01*
X128219770Y-124984514D01*
X128229946Y-124999321D01*
X128296108Y-125065367D01*
X128310931Y-125075517D01*
X128397980Y-125114000D01*
X128412185Y-125117873D01*
X128427580Y-125119668D01*
X128433292Y-125120000D01*
X129309320Y-125120000D01*
X129322005Y-125115878D01*
X129325000Y-125111757D01*
X129325000Y-125104320D01*
X130125000Y-125104320D01*
X130129122Y-125117005D01*
X130133243Y-125120000D01*
X131016639Y-125120000D01*
X131022485Y-125119654D01*
X131038353Y-125117766D01*
X131052519Y-125113872D01*
X131139514Y-125075230D01*
X131154321Y-125065054D01*
X131220367Y-124998892D01*
X131230517Y-124984069D01*
X131269000Y-124897020D01*
X131272873Y-124882815D01*
X131274668Y-124867420D01*
X131275000Y-124861708D01*
X131275000Y-123985680D01*
X131270878Y-123972995D01*
X131266757Y-123970000D01*
X130140680Y-123970000D01*
X130127995Y-123974122D01*
X130125000Y-123978243D01*
X130125000Y-125104320D01*
X129325000Y-125104320D01*
X129325000Y-123985680D01*
X129320878Y-123972995D01*
X129316757Y-123970000D01*
X128190680Y-123970000D01*
X128177995Y-123974122D01*
X128175000Y-123978243D01*
X128175000Y-124861639D01*
X126240507Y-124861639D01*
X126281843Y-124805366D01*
X126380340Y-124671280D01*
X126411864Y-124613221D01*
X126512136Y-124428541D01*
X126513745Y-124425578D01*
X126612570Y-124164044D01*
X126657012Y-123970000D01*
X126674234Y-123894808D01*
X126674235Y-123894801D01*
X126674987Y-123891518D01*
X126699840Y-123613043D01*
X126700291Y-123570000D01*
X126681275Y-123291065D01*
X126652956Y-123154320D01*
X128175000Y-123154320D01*
X128179122Y-123167005D01*
X128183243Y-123170000D01*
X129309320Y-123170000D01*
X129322005Y-123165878D01*
X129325000Y-123161757D01*
X129325000Y-123154320D01*
X130125000Y-123154320D01*
X130129122Y-123167005D01*
X130133243Y-123170000D01*
X131259320Y-123170000D01*
X131272005Y-123165878D01*
X131275000Y-123161757D01*
X131275000Y-122278361D01*
X131274654Y-122272515D01*
X131272766Y-122256647D01*
X131268872Y-122242481D01*
X131230230Y-122155486D01*
X131220054Y-122140679D01*
X131153892Y-122074633D01*
X131139069Y-122064483D01*
X131052020Y-122026000D01*
X131037815Y-122022127D01*
X131022420Y-122020332D01*
X131016708Y-122020000D01*
X130140680Y-122020000D01*
X130127995Y-122024122D01*
X130125000Y-122028243D01*
X130125000Y-123154320D01*
X129325000Y-123154320D01*
X129325000Y-122035680D01*
X129320878Y-122022995D01*
X129316757Y-122020000D01*
X128433361Y-122020000D01*
X128427515Y-122020346D01*
X128411647Y-122022234D01*
X128397481Y-122026128D01*
X128310486Y-122064770D01*
X128295679Y-122074946D01*
X128229633Y-122141108D01*
X128219483Y-122155931D01*
X128181000Y-122242980D01*
X128177127Y-122257185D01*
X128175332Y-122272580D01*
X128175000Y-122278292D01*
X128175000Y-123154320D01*
X126652956Y-123154320D01*
X126624579Y-123017292D01*
X126531253Y-122753746D01*
X126519542Y-122731056D01*
X126404573Y-122508308D01*
X126404570Y-122508302D01*
X126403022Y-122505304D01*
X126242261Y-122276563D01*
X126238500Y-122272515D01*
X126054907Y-122074946D01*
X126051944Y-122071757D01*
X125991439Y-122022234D01*
X125838204Y-121896814D01*
X125835591Y-121894675D01*
X125597208Y-121748594D01*
X125594126Y-121747241D01*
X125344288Y-121637569D01*
X125344284Y-121637567D01*
X125341205Y-121636216D01*
X125291917Y-121622176D01*
X125075571Y-121560548D01*
X125075566Y-121560547D01*
X125072319Y-121559622D01*
X124795526Y-121520229D01*
X124792159Y-121520211D01*
X124792154Y-121520211D01*
X124667187Y-121519557D01*
X124515947Y-121518765D01*
X124238757Y-121555257D01*
X124235506Y-121556146D01*
X124235503Y-121556147D01*
X124144615Y-121581012D01*
X123969083Y-121629032D01*
X123711917Y-121738722D01*
X123472018Y-121882299D01*
X123253823Y-122057106D01*
X123251499Y-122059555D01*
X123064466Y-122256647D01*
X123061371Y-122259908D01*
X123059406Y-122262643D01*
X123059404Y-122262645D01*
X123047421Y-122279322D01*
X122898223Y-122486952D01*
X122767398Y-122734038D01*
X122671317Y-122996592D01*
X122670599Y-122999887D01*
X122636927Y-123154320D01*
X122611757Y-123269757D01*
X122589822Y-123548477D01*
X121618824Y-123548477D01*
X121601275Y-123291065D01*
X121544579Y-123017292D01*
X121451253Y-122753746D01*
X121439542Y-122731056D01*
X121324573Y-122508308D01*
X121324570Y-122508302D01*
X121323022Y-122505304D01*
X121162261Y-122276563D01*
X121158500Y-122272515D01*
X120974907Y-122074946D01*
X120971944Y-122071757D01*
X120911439Y-122022234D01*
X120758204Y-121896814D01*
X120755591Y-121894675D01*
X120517208Y-121748594D01*
X120514126Y-121747241D01*
X120264288Y-121637569D01*
X120264284Y-121637567D01*
X120261205Y-121636216D01*
X120211917Y-121622176D01*
X119995571Y-121560548D01*
X119995566Y-121560547D01*
X119992319Y-121559622D01*
X119715526Y-121520229D01*
X119712159Y-121520211D01*
X119712154Y-121520211D01*
X119587187Y-121519557D01*
X119435947Y-121518765D01*
X119158757Y-121555257D01*
X119155506Y-121556146D01*
X119155503Y-121556147D01*
X119064615Y-121581012D01*
X118889083Y-121629032D01*
X118631917Y-121738722D01*
X118392018Y-121882299D01*
X118173823Y-122057106D01*
X118171499Y-122059555D01*
X117984466Y-122256647D01*
X117981371Y-122259908D01*
X117979406Y-122262643D01*
X117979404Y-122262645D01*
X117967421Y-122279322D01*
X117818223Y-122486952D01*
X117687398Y-122734038D01*
X117591317Y-122996592D01*
X117590599Y-122999887D01*
X117556927Y-123154320D01*
X117531757Y-123269757D01*
X117509822Y-123548477D01*
X116512803Y-123548477D01*
X116527393Y-93453079D01*
X120597163Y-93453079D01*
X120606349Y-93461796D01*
X120607847Y-93462463D01*
X120617659Y-93465651D01*
X120797705Y-93503921D01*
X120807968Y-93505000D01*
X120992032Y-93505000D01*
X121002295Y-93503921D01*
X121182341Y-93465651D01*
X121192153Y-93462463D01*
X121194869Y-93461254D01*
X121202616Y-93454279D01*
X121202044Y-93453079D01*
X123097163Y-93453079D01*
X123106349Y-93461796D01*
X123107847Y-93462463D01*
X123117659Y-93465651D01*
X123297705Y-93503921D01*
X123307968Y-93505000D01*
X123492032Y-93505000D01*
X123502295Y-93503921D01*
X123682341Y-93465651D01*
X123692153Y-93462463D01*
X123694869Y-93461254D01*
X123702616Y-93454279D01*
X123702044Y-93453079D01*
X125597163Y-93453079D01*
X125606349Y-93461796D01*
X125607847Y-93462463D01*
X125617659Y-93465651D01*
X125797705Y-93503921D01*
X125807968Y-93505000D01*
X125992032Y-93505000D01*
X126002295Y-93503921D01*
X126182341Y-93465651D01*
X126192153Y-93462463D01*
X126194869Y-93461254D01*
X126202616Y-93454279D01*
X126202044Y-93453079D01*
X128097163Y-93453079D01*
X128106349Y-93461796D01*
X128107847Y-93462463D01*
X128117659Y-93465651D01*
X128297705Y-93503921D01*
X128307968Y-93505000D01*
X128492032Y-93505000D01*
X128502295Y-93503921D01*
X128682341Y-93465651D01*
X128692153Y-93462463D01*
X128694869Y-93461254D01*
X128702616Y-93454279D01*
X128697164Y-93442849D01*
X128411088Y-93156774D01*
X128399202Y-93150718D01*
X128394171Y-93151514D01*
X128101897Y-93443788D01*
X128097163Y-93453079D01*
X126202044Y-93453079D01*
X126197164Y-93442849D01*
X125911088Y-93156774D01*
X125899202Y-93150718D01*
X125894171Y-93151514D01*
X125601897Y-93443788D01*
X125597163Y-93453079D01*
X123702044Y-93453079D01*
X123697164Y-93442849D01*
X123411088Y-93156774D01*
X123399202Y-93150718D01*
X123394171Y-93151514D01*
X123101897Y-93443788D01*
X123097163Y-93453079D01*
X121202044Y-93453079D01*
X121197164Y-93442849D01*
X120911088Y-93156774D01*
X120899202Y-93150718D01*
X120894171Y-93151514D01*
X120601897Y-93443788D01*
X120597163Y-93453079D01*
X116527393Y-93453079D01*
X116527814Y-92585157D01*
X119970447Y-92585157D01*
X119989688Y-92768220D01*
X119991832Y-92778310D01*
X120022344Y-92872212D01*
X120029040Y-92881429D01*
X120034736Y-92879578D01*
X120323228Y-92591086D01*
X120328470Y-92580797D01*
X121470718Y-92580797D01*
X121471514Y-92585828D01*
X121761725Y-92876039D01*
X121771873Y-92881210D01*
X121776109Y-92876974D01*
X121808168Y-92778310D01*
X121810312Y-92768220D01*
X121829553Y-92585157D01*
X122470447Y-92585157D01*
X122489688Y-92768220D01*
X122491832Y-92778310D01*
X122522344Y-92872212D01*
X122529040Y-92881429D01*
X122534736Y-92879578D01*
X122823228Y-92591086D01*
X122828470Y-92580797D01*
X123970718Y-92580797D01*
X123971514Y-92585828D01*
X124261725Y-92876039D01*
X124271873Y-92881210D01*
X124276109Y-92876974D01*
X124308168Y-92778310D01*
X124310312Y-92768220D01*
X124329553Y-92585157D01*
X124970447Y-92585157D01*
X124989688Y-92768220D01*
X124991832Y-92778310D01*
X125022344Y-92872212D01*
X125029040Y-92881429D01*
X125034736Y-92879578D01*
X125323228Y-92591086D01*
X125328470Y-92580797D01*
X126470718Y-92580797D01*
X126471514Y-92585828D01*
X126761725Y-92876039D01*
X126771873Y-92881210D01*
X126776109Y-92876974D01*
X126808168Y-92778310D01*
X126810312Y-92768220D01*
X126829553Y-92585157D01*
X127470447Y-92585157D01*
X127489688Y-92768220D01*
X127491832Y-92778310D01*
X127522344Y-92872212D01*
X127529040Y-92881429D01*
X127534736Y-92879578D01*
X127823228Y-92591086D01*
X127828470Y-92580797D01*
X128970718Y-92580797D01*
X128971514Y-92585828D01*
X129261725Y-92876039D01*
X129271873Y-92881210D01*
X129276109Y-92876974D01*
X129308168Y-92778310D01*
X129310312Y-92768220D01*
X129329553Y-92585157D01*
X129329553Y-92574843D01*
X129310312Y-92391780D01*
X129308168Y-92381690D01*
X129277656Y-92287788D01*
X129270960Y-92278571D01*
X129265264Y-92280422D01*
X128976772Y-92568914D01*
X128970718Y-92580797D01*
X127828470Y-92580797D01*
X127829282Y-92579203D01*
X127828486Y-92574172D01*
X127538275Y-92283961D01*
X127528127Y-92278790D01*
X127523891Y-92283026D01*
X127491832Y-92381690D01*
X127489688Y-92391780D01*
X127470447Y-92574843D01*
X127470447Y-92585157D01*
X126829553Y-92585157D01*
X126829553Y-92574843D01*
X126810312Y-92391780D01*
X126808168Y-92381690D01*
X126777656Y-92287788D01*
X126770960Y-92278571D01*
X126765264Y-92280422D01*
X126476772Y-92568914D01*
X126470718Y-92580797D01*
X125328470Y-92580797D01*
X125329282Y-92579203D01*
X125328486Y-92574172D01*
X125038275Y-92283961D01*
X125028127Y-92278790D01*
X125023891Y-92283026D01*
X124991832Y-92381690D01*
X124989688Y-92391780D01*
X124970447Y-92574843D01*
X124970447Y-92585157D01*
X124329553Y-92585157D01*
X124329553Y-92574843D01*
X124310312Y-92391780D01*
X124308168Y-92381690D01*
X124277656Y-92287788D01*
X124270960Y-92278571D01*
X124265264Y-92280422D01*
X123976772Y-92568914D01*
X123970718Y-92580797D01*
X122828470Y-92580797D01*
X122829282Y-92579203D01*
X122828486Y-92574172D01*
X122538275Y-92283961D01*
X122528127Y-92278790D01*
X122523891Y-92283026D01*
X122491832Y-92381690D01*
X122489688Y-92391780D01*
X122470447Y-92574843D01*
X122470447Y-92585157D01*
X121829553Y-92585157D01*
X121829553Y-92574843D01*
X121810312Y-92391780D01*
X121808168Y-92381690D01*
X121777656Y-92287788D01*
X121770960Y-92278571D01*
X121765264Y-92280422D01*
X121476772Y-92568914D01*
X121470718Y-92580797D01*
X120328470Y-92580797D01*
X120329282Y-92579203D01*
X120328486Y-92574172D01*
X120038275Y-92283961D01*
X120028127Y-92278790D01*
X120023891Y-92283026D01*
X119991832Y-92381690D01*
X119989688Y-92391780D01*
X119970447Y-92574843D01*
X119970447Y-92585157D01*
X116527814Y-92585157D01*
X116528240Y-91705721D01*
X120597384Y-91705721D01*
X120602836Y-91717151D01*
X120888912Y-92003226D01*
X120900798Y-92009282D01*
X120905829Y-92008486D01*
X121198103Y-91716212D01*
X121202837Y-91706921D01*
X121201572Y-91705721D01*
X123097384Y-91705721D01*
X123102836Y-91717151D01*
X123388912Y-92003226D01*
X123400798Y-92009282D01*
X123405829Y-92008486D01*
X123698103Y-91716212D01*
X123702837Y-91706921D01*
X123701572Y-91705721D01*
X125597384Y-91705721D01*
X125602836Y-91717151D01*
X125888912Y-92003226D01*
X125900798Y-92009282D01*
X125905829Y-92008486D01*
X126198103Y-91716212D01*
X126202837Y-91706921D01*
X126201572Y-91705721D01*
X128097384Y-91705721D01*
X128102836Y-91717151D01*
X128388912Y-92003226D01*
X128400798Y-92009282D01*
X128405829Y-92008486D01*
X128698103Y-91716212D01*
X128702837Y-91706921D01*
X128693651Y-91698204D01*
X128692153Y-91697537D01*
X128682341Y-91694349D01*
X128502295Y-91656079D01*
X128492032Y-91655000D01*
X128307968Y-91655000D01*
X128297705Y-91656079D01*
X128117659Y-91694349D01*
X128107847Y-91697537D01*
X128105131Y-91698746D01*
X128097384Y-91705721D01*
X126201572Y-91705721D01*
X126193651Y-91698204D01*
X126192153Y-91697537D01*
X126182341Y-91694349D01*
X126002295Y-91656079D01*
X125992032Y-91655000D01*
X125807968Y-91655000D01*
X125797705Y-91656079D01*
X125617659Y-91694349D01*
X125607847Y-91697537D01*
X125605131Y-91698746D01*
X125597384Y-91705721D01*
X123701572Y-91705721D01*
X123693651Y-91698204D01*
X123692153Y-91697537D01*
X123682341Y-91694349D01*
X123502295Y-91656079D01*
X123492032Y-91655000D01*
X123307968Y-91655000D01*
X123297705Y-91656079D01*
X123117659Y-91694349D01*
X123107847Y-91697537D01*
X123105131Y-91698746D01*
X123097384Y-91705721D01*
X121201572Y-91705721D01*
X121193651Y-91698204D01*
X121192153Y-91697537D01*
X121182341Y-91694349D01*
X121002295Y-91656079D01*
X120992032Y-91655000D01*
X120807968Y-91655000D01*
X120797705Y-91656079D01*
X120617659Y-91694349D01*
X120607847Y-91697537D01*
X120605131Y-91698746D01*
X120597384Y-91705721D01*
X116528240Y-91705721D01*
X116528847Y-90453079D01*
X120597163Y-90453079D01*
X120606349Y-90461796D01*
X120607847Y-90462463D01*
X120617659Y-90465651D01*
X120797705Y-90503921D01*
X120807968Y-90505000D01*
X120992032Y-90505000D01*
X121002295Y-90503921D01*
X121182341Y-90465651D01*
X121192153Y-90462463D01*
X121194869Y-90461254D01*
X121202616Y-90454279D01*
X121202044Y-90453079D01*
X123097163Y-90453079D01*
X123106349Y-90461796D01*
X123107847Y-90462463D01*
X123117659Y-90465651D01*
X123297705Y-90503921D01*
X123307968Y-90505000D01*
X123492032Y-90505000D01*
X123502295Y-90503921D01*
X123682341Y-90465651D01*
X123692153Y-90462463D01*
X123694869Y-90461254D01*
X123702616Y-90454279D01*
X123702044Y-90453079D01*
X125597163Y-90453079D01*
X125606349Y-90461796D01*
X125607847Y-90462463D01*
X125617659Y-90465651D01*
X125797705Y-90503921D01*
X125807968Y-90505000D01*
X125992032Y-90505000D01*
X126002295Y-90503921D01*
X126182341Y-90465651D01*
X126192153Y-90462463D01*
X126194869Y-90461254D01*
X126202616Y-90454279D01*
X126202044Y-90453079D01*
X128097163Y-90453079D01*
X128106349Y-90461796D01*
X128107847Y-90462463D01*
X128117659Y-90465651D01*
X128297705Y-90503921D01*
X128307968Y-90505000D01*
X128492032Y-90505000D01*
X128502295Y-90503921D01*
X128682341Y-90465651D01*
X128692153Y-90462463D01*
X128694869Y-90461254D01*
X128702616Y-90454279D01*
X128697164Y-90442849D01*
X128411088Y-90156774D01*
X128399202Y-90150718D01*
X128394171Y-90151514D01*
X128101897Y-90443788D01*
X128097163Y-90453079D01*
X126202044Y-90453079D01*
X126197164Y-90442849D01*
X125911088Y-90156774D01*
X125899202Y-90150718D01*
X125894171Y-90151514D01*
X125601897Y-90443788D01*
X125597163Y-90453079D01*
X123702044Y-90453079D01*
X123697164Y-90442849D01*
X123411088Y-90156774D01*
X123399202Y-90150718D01*
X123394171Y-90151514D01*
X123101897Y-90443788D01*
X123097163Y-90453079D01*
X121202044Y-90453079D01*
X121197164Y-90442849D01*
X120911088Y-90156774D01*
X120899202Y-90150718D01*
X120894171Y-90151514D01*
X120601897Y-90443788D01*
X120597163Y-90453079D01*
X116528847Y-90453079D01*
X116529268Y-89585157D01*
X119970447Y-89585157D01*
X119989688Y-89768220D01*
X119991832Y-89778310D01*
X120022344Y-89872212D01*
X120029040Y-89881429D01*
X120034736Y-89879578D01*
X120323228Y-89591086D01*
X120328470Y-89580797D01*
X121470718Y-89580797D01*
X121471514Y-89585828D01*
X121761725Y-89876039D01*
X121771873Y-89881210D01*
X121776109Y-89876974D01*
X121808168Y-89778310D01*
X121810312Y-89768220D01*
X121829553Y-89585157D01*
X122470447Y-89585157D01*
X122489688Y-89768220D01*
X122491832Y-89778310D01*
X122522344Y-89872212D01*
X122529040Y-89881429D01*
X122534736Y-89879578D01*
X122823228Y-89591086D01*
X122828470Y-89580797D01*
X123970718Y-89580797D01*
X123971514Y-89585828D01*
X124261725Y-89876039D01*
X124271873Y-89881210D01*
X124276109Y-89876974D01*
X124308168Y-89778310D01*
X124310312Y-89768220D01*
X124329553Y-89585157D01*
X124970447Y-89585157D01*
X124989688Y-89768220D01*
X124991832Y-89778310D01*
X125022344Y-89872212D01*
X125029040Y-89881429D01*
X125034736Y-89879578D01*
X125323228Y-89591086D01*
X125328470Y-89580797D01*
X126470718Y-89580797D01*
X126471514Y-89585828D01*
X126761725Y-89876039D01*
X126771873Y-89881210D01*
X126776109Y-89876974D01*
X126808168Y-89778310D01*
X126810312Y-89768220D01*
X126829553Y-89585157D01*
X127470447Y-89585157D01*
X127489688Y-89768220D01*
X127491832Y-89778310D01*
X127522344Y-89872212D01*
X127529040Y-89881429D01*
X127534736Y-89879578D01*
X127823228Y-89591086D01*
X127828470Y-89580797D01*
X128970718Y-89580797D01*
X128971514Y-89585828D01*
X129261725Y-89876039D01*
X129271873Y-89881210D01*
X129276109Y-89876974D01*
X129308168Y-89778310D01*
X129310312Y-89768220D01*
X129329553Y-89585157D01*
X129329553Y-89574843D01*
X129310312Y-89391780D01*
X129308168Y-89381690D01*
X129277656Y-89287788D01*
X129270960Y-89278571D01*
X129265264Y-89280422D01*
X128976772Y-89568914D01*
X128970718Y-89580797D01*
X127828470Y-89580797D01*
X127829282Y-89579203D01*
X127828486Y-89574172D01*
X127538275Y-89283961D01*
X127528127Y-89278790D01*
X127523891Y-89283026D01*
X127491832Y-89381690D01*
X127489688Y-89391780D01*
X127470447Y-89574843D01*
X127470447Y-89585157D01*
X126829553Y-89585157D01*
X126829553Y-89574843D01*
X126810312Y-89391780D01*
X126808168Y-89381690D01*
X126777656Y-89287788D01*
X126770960Y-89278571D01*
X126765264Y-89280422D01*
X126476772Y-89568914D01*
X126470718Y-89580797D01*
X125328470Y-89580797D01*
X125329282Y-89579203D01*
X125328486Y-89574172D01*
X125038275Y-89283961D01*
X125028127Y-89278790D01*
X125023891Y-89283026D01*
X124991832Y-89381690D01*
X124989688Y-89391780D01*
X124970447Y-89574843D01*
X124970447Y-89585157D01*
X124329553Y-89585157D01*
X124329553Y-89574843D01*
X124310312Y-89391780D01*
X124308168Y-89381690D01*
X124277656Y-89287788D01*
X124270960Y-89278571D01*
X124265264Y-89280422D01*
X123976772Y-89568914D01*
X123970718Y-89580797D01*
X122828470Y-89580797D01*
X122829282Y-89579203D01*
X122828486Y-89574172D01*
X122538275Y-89283961D01*
X122528127Y-89278790D01*
X122523891Y-89283026D01*
X122491832Y-89381690D01*
X122489688Y-89391780D01*
X122470447Y-89574843D01*
X122470447Y-89585157D01*
X121829553Y-89585157D01*
X121829553Y-89574843D01*
X121810312Y-89391780D01*
X121808168Y-89381690D01*
X121777656Y-89287788D01*
X121770960Y-89278571D01*
X121765264Y-89280422D01*
X121476772Y-89568914D01*
X121470718Y-89580797D01*
X120328470Y-89580797D01*
X120329282Y-89579203D01*
X120328486Y-89574172D01*
X120038275Y-89283961D01*
X120028127Y-89278790D01*
X120023891Y-89283026D01*
X119991832Y-89381690D01*
X119989688Y-89391780D01*
X119970447Y-89574843D01*
X119970447Y-89585157D01*
X116529268Y-89585157D01*
X116530499Y-87045053D01*
X119470042Y-87045053D01*
X119483535Y-87279071D01*
X119484427Y-87283028D01*
X119505886Y-87378247D01*
X119535069Y-87507743D01*
X119536598Y-87511507D01*
X119536599Y-87511512D01*
X119576673Y-87610202D01*
X119623259Y-87724928D01*
X119625383Y-87728394D01*
X119625385Y-87728398D01*
X119681521Y-87820003D01*
X119745736Y-87924793D01*
X119748395Y-87927863D01*
X119748396Y-87927864D01*
X119819481Y-88009927D01*
X119899212Y-88101971D01*
X120079565Y-88251703D01*
X120281951Y-88369968D01*
X120500935Y-88453590D01*
X120504910Y-88454399D01*
X120504911Y-88454399D01*
X120672901Y-88488577D01*
X120726155Y-88518707D01*
X120751528Y-88574383D01*
X120739329Y-88634340D01*
X120694219Y-88675676D01*
X120673747Y-88682427D01*
X120617659Y-88694349D01*
X120607847Y-88697537D01*
X120605131Y-88698746D01*
X120597384Y-88705721D01*
X120602836Y-88717151D01*
X120888912Y-89003226D01*
X120900798Y-89009282D01*
X120905829Y-89008486D01*
X121198103Y-88716212D01*
X121202837Y-88706921D01*
X121193651Y-88698204D01*
X121192153Y-88697537D01*
X121182341Y-88694348D01*
X121125738Y-88682317D01*
X121072750Y-88651724D01*
X121047863Y-88595828D01*
X121060585Y-88535980D01*
X121106054Y-88495039D01*
X121133742Y-88487282D01*
X121193362Y-88479645D01*
X121193368Y-88479644D01*
X121197394Y-88479128D01*
X121201287Y-88477960D01*
X121201292Y-88477959D01*
X121360542Y-88430181D01*
X121421914Y-88411768D01*
X121532707Y-88357491D01*
X121628771Y-88310430D01*
X121628774Y-88310428D01*
X121632418Y-88308643D01*
X121823253Y-88172522D01*
X121989293Y-88007061D01*
X122063616Y-87903630D01*
X122067960Y-87897585D01*
X122117271Y-87861363D01*
X122178456Y-87861043D01*
X122228143Y-87896747D01*
X122232761Y-87903619D01*
X122245736Y-87924793D01*
X122248395Y-87927863D01*
X122248396Y-87927864D01*
X122319481Y-88009927D01*
X122399212Y-88101971D01*
X122579565Y-88251703D01*
X122781951Y-88369968D01*
X123000935Y-88453590D01*
X123004910Y-88454399D01*
X123004911Y-88454399D01*
X123172901Y-88488577D01*
X123226155Y-88518707D01*
X123251528Y-88574383D01*
X123239329Y-88634340D01*
X123194219Y-88675676D01*
X123173747Y-88682427D01*
X123117659Y-88694349D01*
X123107847Y-88697537D01*
X123105131Y-88698746D01*
X123097384Y-88705721D01*
X123102836Y-88717151D01*
X123388912Y-89003226D01*
X123400798Y-89009282D01*
X123405829Y-89008486D01*
X123698103Y-88716212D01*
X123702837Y-88706921D01*
X123693651Y-88698204D01*
X123692153Y-88697537D01*
X123682341Y-88694348D01*
X123625738Y-88682317D01*
X123572750Y-88651724D01*
X123547863Y-88595828D01*
X123560585Y-88535980D01*
X123606054Y-88495039D01*
X123633742Y-88487282D01*
X123693362Y-88479645D01*
X123693368Y-88479644D01*
X123697394Y-88479128D01*
X123701287Y-88477960D01*
X123701292Y-88477959D01*
X123860542Y-88430181D01*
X123921914Y-88411768D01*
X124032707Y-88357491D01*
X124128771Y-88310430D01*
X124128774Y-88310428D01*
X124132418Y-88308643D01*
X124323253Y-88172522D01*
X124489293Y-88007061D01*
X124563616Y-87903630D01*
X124567960Y-87897585D01*
X124617271Y-87861363D01*
X124678456Y-87861043D01*
X124728143Y-87896747D01*
X124732761Y-87903619D01*
X124745736Y-87924793D01*
X124748395Y-87927863D01*
X124748396Y-87927864D01*
X124819481Y-88009927D01*
X124899212Y-88101971D01*
X125079565Y-88251703D01*
X125281951Y-88369968D01*
X125500935Y-88453590D01*
X125504910Y-88454399D01*
X125504911Y-88454399D01*
X125672901Y-88488577D01*
X125726155Y-88518707D01*
X125751528Y-88574383D01*
X125739329Y-88634340D01*
X125694219Y-88675676D01*
X125673747Y-88682427D01*
X125617659Y-88694349D01*
X125607847Y-88697537D01*
X125605131Y-88698746D01*
X125597384Y-88705721D01*
X125602836Y-88717151D01*
X125888912Y-89003226D01*
X125900798Y-89009282D01*
X125905829Y-89008486D01*
X126198103Y-88716212D01*
X126202837Y-88706921D01*
X126193651Y-88698204D01*
X126192153Y-88697537D01*
X126182341Y-88694348D01*
X126125738Y-88682317D01*
X126072750Y-88651724D01*
X126047863Y-88595828D01*
X126060585Y-88535980D01*
X126106054Y-88495039D01*
X126133742Y-88487282D01*
X126193362Y-88479645D01*
X126193368Y-88479644D01*
X126197394Y-88479128D01*
X126201287Y-88477960D01*
X126201292Y-88477959D01*
X126360542Y-88430181D01*
X126421914Y-88411768D01*
X126532707Y-88357491D01*
X126628771Y-88310430D01*
X126628774Y-88310428D01*
X126632418Y-88308643D01*
X126823253Y-88172522D01*
X126989293Y-88007061D01*
X127063616Y-87903630D01*
X127067960Y-87897585D01*
X127117271Y-87861363D01*
X127178456Y-87861043D01*
X127228143Y-87896747D01*
X127232761Y-87903619D01*
X127245736Y-87924793D01*
X127248395Y-87927863D01*
X127248396Y-87927864D01*
X127319481Y-88009927D01*
X127399212Y-88101971D01*
X127579565Y-88251703D01*
X127781951Y-88369968D01*
X128000935Y-88453590D01*
X128004910Y-88454399D01*
X128004911Y-88454399D01*
X128172901Y-88488577D01*
X128226155Y-88518707D01*
X128251528Y-88574383D01*
X128239329Y-88634340D01*
X128194219Y-88675676D01*
X128173747Y-88682427D01*
X128117659Y-88694349D01*
X128107847Y-88697537D01*
X128105131Y-88698746D01*
X128097384Y-88705721D01*
X128102836Y-88717151D01*
X128388912Y-89003226D01*
X128400798Y-89009282D01*
X128405829Y-89008486D01*
X128698103Y-88716212D01*
X128702837Y-88706921D01*
X128693651Y-88698204D01*
X128692153Y-88697537D01*
X128682341Y-88694348D01*
X128625738Y-88682317D01*
X128572750Y-88651724D01*
X128547863Y-88595828D01*
X128560585Y-88535980D01*
X128606054Y-88495039D01*
X128633742Y-88487282D01*
X128693362Y-88479645D01*
X128693368Y-88479644D01*
X128697394Y-88479128D01*
X128701287Y-88477960D01*
X128701292Y-88477959D01*
X128860542Y-88430181D01*
X128921914Y-88411768D01*
X129032707Y-88357491D01*
X129128771Y-88310430D01*
X129128774Y-88310428D01*
X129132418Y-88308643D01*
X129323253Y-88172522D01*
X129489293Y-88007061D01*
X129563616Y-87903630D01*
X129623708Y-87820003D01*
X129623709Y-87820001D01*
X129626079Y-87816703D01*
X129627877Y-87813065D01*
X129627880Y-87813060D01*
X129728138Y-87610202D01*
X129729938Y-87606560D01*
X129731116Y-87602684D01*
X129731118Y-87602678D01*
X129796901Y-87386160D01*
X129796901Y-87386159D01*
X129798081Y-87382276D01*
X129828677Y-87149874D01*
X129830385Y-87080000D01*
X129811178Y-86846381D01*
X129802536Y-86811973D01*
X129755064Y-86622982D01*
X129754073Y-86619036D01*
X129660603Y-86404070D01*
X129533279Y-86207258D01*
X129375520Y-86033883D01*
X129372334Y-86031367D01*
X129372331Y-86031364D01*
X129194751Y-85891119D01*
X129194745Y-85891115D01*
X129191563Y-85888602D01*
X128986348Y-85775317D01*
X128982517Y-85773960D01*
X128982514Y-85773959D01*
X128769222Y-85698428D01*
X128769218Y-85698427D01*
X128765386Y-85697070D01*
X128662192Y-85678688D01*
X128608220Y-85649870D01*
X128581494Y-85594830D01*
X128592223Y-85534593D01*
X128636310Y-85492167D01*
X128666974Y-85483026D01*
X128693351Y-85479647D01*
X128693364Y-85479644D01*
X128697394Y-85479128D01*
X128701287Y-85477960D01*
X128701292Y-85477959D01*
X128860542Y-85430181D01*
X128921914Y-85411768D01*
X129032707Y-85357491D01*
X129128771Y-85310430D01*
X129128774Y-85310428D01*
X129132418Y-85308643D01*
X129323253Y-85172522D01*
X129489293Y-85007061D01*
X129563616Y-84903630D01*
X129623708Y-84820003D01*
X129623709Y-84820001D01*
X129626079Y-84816703D01*
X129627877Y-84813065D01*
X129627880Y-84813060D01*
X129728138Y-84610202D01*
X129729938Y-84606560D01*
X129731116Y-84602684D01*
X129731118Y-84602678D01*
X129796901Y-84386160D01*
X129796901Y-84386159D01*
X129798081Y-84382276D01*
X129828677Y-84149874D01*
X129830385Y-84080000D01*
X129811178Y-83846381D01*
X129802536Y-83811973D01*
X129755064Y-83622982D01*
X129754073Y-83619036D01*
X129660603Y-83404070D01*
X129533279Y-83207258D01*
X129375520Y-83033883D01*
X129372334Y-83031367D01*
X129372331Y-83031364D01*
X129213774Y-82906143D01*
X129179825Y-82855239D01*
X129182281Y-82794103D01*
X129217642Y-82747854D01*
X129323253Y-82672522D01*
X129489293Y-82507061D01*
X129563616Y-82403630D01*
X129623708Y-82320003D01*
X129623709Y-82320001D01*
X129626079Y-82316703D01*
X129627877Y-82313065D01*
X129627880Y-82313060D01*
X129728138Y-82110202D01*
X129729938Y-82106560D01*
X129731116Y-82102684D01*
X129731118Y-82102678D01*
X129796901Y-81886160D01*
X129796901Y-81886159D01*
X129798081Y-81882276D01*
X129828677Y-81649874D01*
X129830385Y-81580000D01*
X129811178Y-81346381D01*
X129802536Y-81311973D01*
X129755064Y-81122982D01*
X129754073Y-81119036D01*
X129660603Y-80904070D01*
X129533279Y-80707258D01*
X129375520Y-80533883D01*
X129372334Y-80531367D01*
X129372331Y-80531364D01*
X129194751Y-80391119D01*
X129194745Y-80391115D01*
X129191563Y-80388602D01*
X128986348Y-80275317D01*
X128982517Y-80273960D01*
X128982514Y-80273959D01*
X128769222Y-80198428D01*
X128769218Y-80198427D01*
X128765386Y-80197070D01*
X128662192Y-80178688D01*
X128608220Y-80149870D01*
X128581494Y-80094830D01*
X128592223Y-80034593D01*
X128636310Y-79992167D01*
X128666974Y-79983026D01*
X128693351Y-79979647D01*
X128693364Y-79979644D01*
X128697394Y-79979128D01*
X128701287Y-79977960D01*
X128701292Y-79977959D01*
X128860542Y-79930181D01*
X128921914Y-79911768D01*
X129032707Y-79857491D01*
X129128771Y-79810430D01*
X129128774Y-79810428D01*
X129132418Y-79808643D01*
X129323253Y-79672522D01*
X129489293Y-79507061D01*
X129563616Y-79403630D01*
X129623708Y-79320003D01*
X129623709Y-79320001D01*
X129626079Y-79316703D01*
X129627877Y-79313065D01*
X129627880Y-79313060D01*
X129728138Y-79110202D01*
X129729938Y-79106560D01*
X129731116Y-79102684D01*
X129731118Y-79102678D01*
X129796901Y-78886160D01*
X129796901Y-78886159D01*
X129798081Y-78882276D01*
X129828677Y-78649874D01*
X129830385Y-78580000D01*
X129811178Y-78346381D01*
X129802536Y-78311973D01*
X129755064Y-78122982D01*
X129754073Y-78119036D01*
X129660603Y-77904070D01*
X129533279Y-77707258D01*
X129375520Y-77533883D01*
X129372334Y-77531367D01*
X129372331Y-77531364D01*
X129194751Y-77391119D01*
X129194745Y-77391115D01*
X129191563Y-77388602D01*
X128986348Y-77275317D01*
X128982517Y-77273960D01*
X128982514Y-77273959D01*
X128769222Y-77198428D01*
X128769218Y-77198427D01*
X128765386Y-77197070D01*
X128534611Y-77155963D01*
X128530565Y-77155914D01*
X128530559Y-77155913D01*
X128401260Y-77154334D01*
X128300221Y-77153099D01*
X128068511Y-77188556D01*
X127948379Y-77227821D01*
X127849561Y-77260120D01*
X127849557Y-77260121D01*
X127845704Y-77261381D01*
X127842104Y-77263255D01*
X127641387Y-77367741D01*
X127641384Y-77367743D01*
X127637782Y-77369618D01*
X127634540Y-77372053D01*
X127634534Y-77372056D01*
X127609145Y-77391119D01*
X127450330Y-77510361D01*
X127288382Y-77679830D01*
X127286090Y-77683190D01*
X127232312Y-77762025D01*
X127183900Y-77799442D01*
X127122742Y-77801257D01*
X127072197Y-77766777D01*
X127067418Y-77760028D01*
X127033279Y-77707258D01*
X126875520Y-77533883D01*
X126872334Y-77531367D01*
X126872331Y-77531364D01*
X126694751Y-77391119D01*
X126694745Y-77391115D01*
X126691563Y-77388602D01*
X126486348Y-77275317D01*
X126482517Y-77273960D01*
X126482514Y-77273959D01*
X126269222Y-77198428D01*
X126269218Y-77198427D01*
X126265386Y-77197070D01*
X126034611Y-77155963D01*
X126030565Y-77155914D01*
X126030559Y-77155913D01*
X125901260Y-77154334D01*
X125800221Y-77153099D01*
X125568511Y-77188556D01*
X125448379Y-77227821D01*
X125349561Y-77260120D01*
X125349557Y-77260121D01*
X125345704Y-77261381D01*
X125342104Y-77263255D01*
X125141387Y-77367741D01*
X125141384Y-77367743D01*
X125137782Y-77369618D01*
X125134540Y-77372053D01*
X125134534Y-77372056D01*
X125109145Y-77391119D01*
X124950330Y-77510361D01*
X124788382Y-77679830D01*
X124786090Y-77683190D01*
X124732312Y-77762025D01*
X124683900Y-77799442D01*
X124622742Y-77801257D01*
X124572197Y-77766777D01*
X124567418Y-77760028D01*
X124533279Y-77707258D01*
X124375520Y-77533883D01*
X124372334Y-77531367D01*
X124372331Y-77531364D01*
X124194751Y-77391119D01*
X124194745Y-77391115D01*
X124191563Y-77388602D01*
X123986348Y-77275317D01*
X123982517Y-77273960D01*
X123982514Y-77273959D01*
X123769222Y-77198428D01*
X123769218Y-77198427D01*
X123765386Y-77197070D01*
X123534611Y-77155963D01*
X123530565Y-77155914D01*
X123530559Y-77155913D01*
X123401260Y-77154334D01*
X123300221Y-77153099D01*
X123068511Y-77188556D01*
X122948379Y-77227821D01*
X122849561Y-77260120D01*
X122849557Y-77260121D01*
X122845704Y-77261381D01*
X122842104Y-77263255D01*
X122641387Y-77367741D01*
X122641384Y-77367743D01*
X122637782Y-77369618D01*
X122634540Y-77372053D01*
X122634534Y-77372056D01*
X122609145Y-77391119D01*
X122450330Y-77510361D01*
X122288382Y-77679830D01*
X122286090Y-77683190D01*
X122232312Y-77762025D01*
X122183900Y-77799442D01*
X122122742Y-77801257D01*
X122072197Y-77766777D01*
X122067418Y-77760028D01*
X122033279Y-77707258D01*
X121875520Y-77533883D01*
X121872334Y-77531367D01*
X121872331Y-77531364D01*
X121694751Y-77391119D01*
X121694745Y-77391115D01*
X121691563Y-77388602D01*
X121486348Y-77275317D01*
X121482517Y-77273960D01*
X121482514Y-77273959D01*
X121269222Y-77198428D01*
X121269218Y-77198427D01*
X121265386Y-77197070D01*
X121034611Y-77155963D01*
X121030565Y-77155914D01*
X121030559Y-77155913D01*
X120901260Y-77154334D01*
X120800221Y-77153099D01*
X120568511Y-77188556D01*
X120448379Y-77227821D01*
X120349561Y-77260120D01*
X120349557Y-77260121D01*
X120345704Y-77261381D01*
X120342104Y-77263255D01*
X120141387Y-77367741D01*
X120141384Y-77367743D01*
X120137782Y-77369618D01*
X120134540Y-77372053D01*
X120134534Y-77372056D01*
X120109145Y-77391119D01*
X119950330Y-77510361D01*
X119788382Y-77679830D01*
X119656287Y-77873473D01*
X119557594Y-78086091D01*
X119494951Y-78311973D01*
X119470042Y-78545053D01*
X119483535Y-78779071D01*
X119484427Y-78783028D01*
X119505886Y-78878247D01*
X119535069Y-79007743D01*
X119536598Y-79011507D01*
X119536599Y-79011512D01*
X119576673Y-79110202D01*
X119623259Y-79224928D01*
X119625383Y-79228394D01*
X119625385Y-79228398D01*
X119681521Y-79320003D01*
X119745736Y-79424793D01*
X119748395Y-79427863D01*
X119748396Y-79427864D01*
X119819481Y-79509927D01*
X119899212Y-79601971D01*
X120079565Y-79751703D01*
X120281951Y-79869968D01*
X120500935Y-79953590D01*
X120644457Y-79982790D01*
X120697709Y-80012918D01*
X120723083Y-80068594D01*
X120710884Y-80128552D01*
X120665774Y-80169888D01*
X120639694Y-80177663D01*
X120592923Y-80184820D01*
X120568511Y-80188556D01*
X120448379Y-80227821D01*
X120349561Y-80260120D01*
X120349557Y-80260121D01*
X120345704Y-80261381D01*
X120342104Y-80263255D01*
X120141387Y-80367741D01*
X120141384Y-80367743D01*
X120137782Y-80369618D01*
X120134540Y-80372053D01*
X120134534Y-80372056D01*
X120109145Y-80391119D01*
X119950330Y-80510361D01*
X119788382Y-80679830D01*
X119656287Y-80873473D01*
X119557594Y-81086091D01*
X119494951Y-81311973D01*
X119470042Y-81545053D01*
X119483535Y-81779071D01*
X119484427Y-81783028D01*
X119505886Y-81878247D01*
X119535069Y-82007743D01*
X119536598Y-82011507D01*
X119536599Y-82011512D01*
X119576673Y-82110202D01*
X119623259Y-82224928D01*
X119625383Y-82228394D01*
X119625385Y-82228398D01*
X119681521Y-82320003D01*
X119745736Y-82424793D01*
X119748395Y-82427863D01*
X119748396Y-82427864D01*
X119819481Y-82509927D01*
X119899212Y-82601971D01*
X120079565Y-82751703D01*
X120079976Y-82751943D01*
X120116228Y-82800046D01*
X120117299Y-82861222D01*
X120082065Y-82911451D01*
X119953576Y-83007923D01*
X119953570Y-83007928D01*
X119950330Y-83010361D01*
X119788382Y-83179830D01*
X119656287Y-83373473D01*
X119557594Y-83586091D01*
X119494951Y-83811973D01*
X119470042Y-84045053D01*
X119483535Y-84279071D01*
X119484427Y-84283028D01*
X119505886Y-84378247D01*
X119535069Y-84507743D01*
X119536598Y-84511507D01*
X119536599Y-84511512D01*
X119576673Y-84610202D01*
X119623259Y-84724928D01*
X119625383Y-84728394D01*
X119625385Y-84728398D01*
X119681521Y-84820003D01*
X119745736Y-84924793D01*
X119748395Y-84927863D01*
X119748396Y-84927864D01*
X119819481Y-85009927D01*
X119899212Y-85101971D01*
X120079565Y-85251703D01*
X120281951Y-85369968D01*
X120500935Y-85453590D01*
X120644457Y-85482790D01*
X120697709Y-85512918D01*
X120723083Y-85568594D01*
X120710884Y-85628552D01*
X120665774Y-85669888D01*
X120639694Y-85677663D01*
X120592923Y-85684820D01*
X120568511Y-85688556D01*
X120448379Y-85727821D01*
X120349561Y-85760120D01*
X120349557Y-85760121D01*
X120345704Y-85761381D01*
X120342104Y-85763255D01*
X120141387Y-85867741D01*
X120141384Y-85867743D01*
X120137782Y-85869618D01*
X120134540Y-85872053D01*
X120134534Y-85872056D01*
X120109145Y-85891119D01*
X119950330Y-86010361D01*
X119788382Y-86179830D01*
X119656287Y-86373473D01*
X119557594Y-86586091D01*
X119494951Y-86811973D01*
X119470042Y-87045053D01*
X116530499Y-87045053D01*
X116535685Y-76346715D01*
X116554621Y-76288533D01*
X116604138Y-76252594D01*
X116634746Y-76247763D01*
X123314536Y-76251860D01*
G37*
%TD.AperFunction*%
%TD*%
%TA.AperFunction,Conductor*%
%TO.N,/Phase_1_T1*%
G36*
X162773490Y-76268132D02*
G01*
X162809485Y-76317609D01*
X162814349Y-76348212D01*
X162822484Y-93150718D01*
X162839952Y-129230891D01*
X162821073Y-129289091D01*
X162771590Y-129325079D01*
X162740891Y-129329939D01*
X161713562Y-129329307D01*
X146688891Y-129320061D01*
X146630712Y-129301118D01*
X146594779Y-129251596D01*
X146589952Y-129221109D01*
X146588193Y-125588136D01*
X146587191Y-123518477D01*
X147594822Y-123518477D01*
X147595016Y-123521842D01*
X147595016Y-123521846D01*
X147598545Y-123583043D01*
X147610916Y-123797596D01*
X147664741Y-124071948D01*
X147755303Y-124336457D01*
X147880925Y-124586228D01*
X148039282Y-124816639D01*
X148041552Y-124819133D01*
X148041553Y-124819135D01*
X148086948Y-124869023D01*
X148227444Y-125023427D01*
X148441930Y-125202765D01*
X148678771Y-125351335D01*
X148681839Y-125352720D01*
X148681846Y-125352724D01*
X148847358Y-125427455D01*
X148933583Y-125466387D01*
X148936805Y-125467341D01*
X148936812Y-125467344D01*
X149151263Y-125530867D01*
X149201652Y-125545793D01*
X149204977Y-125546302D01*
X149204978Y-125546302D01*
X149474684Y-125587573D01*
X149474687Y-125587573D01*
X149478018Y-125588083D01*
X149481389Y-125588136D01*
X149481390Y-125588136D01*
X149529571Y-125588893D01*
X149757566Y-125592474D01*
X149760903Y-125592070D01*
X149760907Y-125592070D01*
X150031779Y-125559291D01*
X150031784Y-125559290D01*
X150035123Y-125558886D01*
X150305554Y-125487940D01*
X150471590Y-125419165D01*
X150560746Y-125382236D01*
X150560749Y-125382235D01*
X150563855Y-125380948D01*
X150566760Y-125379251D01*
X150566763Y-125379249D01*
X150802329Y-125241595D01*
X150805245Y-125239891D01*
X151025258Y-125067379D01*
X151219823Y-124866603D01*
X151229557Y-124853353D01*
X151286843Y-124775366D01*
X151385340Y-124641280D01*
X151416864Y-124583221D01*
X151517136Y-124398541D01*
X151518745Y-124395578D01*
X151617570Y-124134044D01*
X151662012Y-123940000D01*
X151679234Y-123864808D01*
X151679235Y-123864801D01*
X151679987Y-123861518D01*
X151704840Y-123583043D01*
X151705291Y-123540000D01*
X151703824Y-123518477D01*
X152674822Y-123518477D01*
X152675016Y-123521842D01*
X152675016Y-123521846D01*
X152678545Y-123583043D01*
X152690916Y-123797596D01*
X152744741Y-124071948D01*
X152835303Y-124336457D01*
X152960925Y-124586228D01*
X153119282Y-124816639D01*
X153121552Y-124819133D01*
X153121553Y-124819135D01*
X153166948Y-124869023D01*
X153307444Y-125023427D01*
X153521930Y-125202765D01*
X153758771Y-125351335D01*
X153761839Y-125352720D01*
X153761846Y-125352724D01*
X153927358Y-125427455D01*
X154013583Y-125466387D01*
X154016805Y-125467341D01*
X154016812Y-125467344D01*
X154231263Y-125530867D01*
X154281652Y-125545793D01*
X154284977Y-125546302D01*
X154284978Y-125546302D01*
X154554684Y-125587573D01*
X154554687Y-125587573D01*
X154558018Y-125588083D01*
X154561389Y-125588136D01*
X154561390Y-125588136D01*
X154609571Y-125588893D01*
X154837566Y-125592474D01*
X154840903Y-125592070D01*
X154840907Y-125592070D01*
X155111779Y-125559291D01*
X155111784Y-125559290D01*
X155115123Y-125558886D01*
X155385554Y-125487940D01*
X155551590Y-125419165D01*
X155640746Y-125382236D01*
X155640749Y-125382235D01*
X155643855Y-125380948D01*
X155646760Y-125379251D01*
X155646763Y-125379249D01*
X155882329Y-125241595D01*
X155885245Y-125239891D01*
X156105258Y-125067379D01*
X156299823Y-124866603D01*
X156309557Y-124853353D01*
X156325507Y-124831639D01*
X158260000Y-124831639D01*
X158260346Y-124837485D01*
X158262234Y-124853353D01*
X158266128Y-124867519D01*
X158304770Y-124954514D01*
X158314946Y-124969321D01*
X158381108Y-125035367D01*
X158395931Y-125045517D01*
X158482980Y-125084000D01*
X158497185Y-125087873D01*
X158512580Y-125089668D01*
X158518292Y-125090000D01*
X159394320Y-125090000D01*
X159407005Y-125085878D01*
X159410000Y-125081757D01*
X159410000Y-125074320D01*
X160210000Y-125074320D01*
X160214122Y-125087005D01*
X160218243Y-125090000D01*
X161101639Y-125090000D01*
X161107485Y-125089654D01*
X161123353Y-125087766D01*
X161137519Y-125083872D01*
X161224514Y-125045230D01*
X161239321Y-125035054D01*
X161305367Y-124968892D01*
X161315517Y-124954069D01*
X161354000Y-124867020D01*
X161357873Y-124852815D01*
X161359668Y-124837420D01*
X161360000Y-124831708D01*
X161360000Y-123955680D01*
X161355878Y-123942995D01*
X161351757Y-123940000D01*
X160225680Y-123940000D01*
X160212995Y-123944122D01*
X160210000Y-123948243D01*
X160210000Y-125074320D01*
X159410000Y-125074320D01*
X159410000Y-123955680D01*
X159405878Y-123942995D01*
X159401757Y-123940000D01*
X158275680Y-123940000D01*
X158262995Y-123944122D01*
X158260000Y-123948243D01*
X158260000Y-124831639D01*
X156325507Y-124831639D01*
X156366843Y-124775366D01*
X156465340Y-124641280D01*
X156496864Y-124583221D01*
X156597136Y-124398541D01*
X156598745Y-124395578D01*
X156697570Y-124134044D01*
X156742012Y-123940000D01*
X156759234Y-123864808D01*
X156759235Y-123864801D01*
X156759987Y-123861518D01*
X156784840Y-123583043D01*
X156785291Y-123540000D01*
X156766275Y-123261065D01*
X156737956Y-123124320D01*
X158260000Y-123124320D01*
X158264122Y-123137005D01*
X158268243Y-123140000D01*
X159394320Y-123140000D01*
X159407005Y-123135878D01*
X159410000Y-123131757D01*
X159410000Y-123124320D01*
X160210000Y-123124320D01*
X160214122Y-123137005D01*
X160218243Y-123140000D01*
X161344320Y-123140000D01*
X161357005Y-123135878D01*
X161360000Y-123131757D01*
X161360000Y-122248361D01*
X161359654Y-122242515D01*
X161357766Y-122226647D01*
X161353872Y-122212481D01*
X161315230Y-122125486D01*
X161305054Y-122110679D01*
X161238892Y-122044633D01*
X161224069Y-122034483D01*
X161137020Y-121996000D01*
X161122815Y-121992127D01*
X161107420Y-121990332D01*
X161101708Y-121990000D01*
X160225680Y-121990000D01*
X160212995Y-121994122D01*
X160210000Y-121998243D01*
X160210000Y-123124320D01*
X159410000Y-123124320D01*
X159410000Y-122005680D01*
X159405878Y-121992995D01*
X159401757Y-121990000D01*
X158518361Y-121990000D01*
X158512515Y-121990346D01*
X158496647Y-121992234D01*
X158482481Y-121996128D01*
X158395486Y-122034770D01*
X158380679Y-122044946D01*
X158314633Y-122111108D01*
X158304483Y-122125931D01*
X158266000Y-122212980D01*
X158262127Y-122227185D01*
X158260332Y-122242580D01*
X158260000Y-122248292D01*
X158260000Y-123124320D01*
X156737956Y-123124320D01*
X156709579Y-122987292D01*
X156616253Y-122723746D01*
X156604542Y-122701056D01*
X156489573Y-122478308D01*
X156489570Y-122478302D01*
X156488022Y-122475304D01*
X156327261Y-122246563D01*
X156323500Y-122242515D01*
X156139907Y-122044946D01*
X156136944Y-122041757D01*
X156076439Y-121992234D01*
X155923204Y-121866814D01*
X155920591Y-121864675D01*
X155682208Y-121718594D01*
X155679126Y-121717241D01*
X155429288Y-121607569D01*
X155429284Y-121607567D01*
X155426205Y-121606216D01*
X155376917Y-121592176D01*
X155160571Y-121530548D01*
X155160566Y-121530547D01*
X155157319Y-121529622D01*
X154880526Y-121490229D01*
X154877159Y-121490211D01*
X154877154Y-121490211D01*
X154752187Y-121489557D01*
X154600947Y-121488765D01*
X154323757Y-121525257D01*
X154320506Y-121526146D01*
X154320503Y-121526147D01*
X154229615Y-121551012D01*
X154054083Y-121599032D01*
X153796917Y-121708722D01*
X153557018Y-121852299D01*
X153338823Y-122027106D01*
X153336499Y-122029555D01*
X153149466Y-122226647D01*
X153146371Y-122229908D01*
X153144406Y-122232643D01*
X153144404Y-122232645D01*
X153132421Y-122249322D01*
X152983223Y-122456952D01*
X152852398Y-122704038D01*
X152756317Y-122966592D01*
X152755599Y-122969887D01*
X152721927Y-123124320D01*
X152696757Y-123239757D01*
X152674822Y-123518477D01*
X151703824Y-123518477D01*
X151686275Y-123261065D01*
X151629579Y-122987292D01*
X151536253Y-122723746D01*
X151524542Y-122701056D01*
X151409573Y-122478308D01*
X151409570Y-122478302D01*
X151408022Y-122475304D01*
X151247261Y-122246563D01*
X151243500Y-122242515D01*
X151059907Y-122044946D01*
X151056944Y-122041757D01*
X150996439Y-121992234D01*
X150843204Y-121866814D01*
X150840591Y-121864675D01*
X150602208Y-121718594D01*
X150599126Y-121717241D01*
X150349288Y-121607569D01*
X150349284Y-121607567D01*
X150346205Y-121606216D01*
X150296917Y-121592176D01*
X150080571Y-121530548D01*
X150080566Y-121530547D01*
X150077319Y-121529622D01*
X149800526Y-121490229D01*
X149797159Y-121490211D01*
X149797154Y-121490211D01*
X149672187Y-121489557D01*
X149520947Y-121488765D01*
X149243757Y-121525257D01*
X149240506Y-121526146D01*
X149240503Y-121526147D01*
X149149615Y-121551012D01*
X148974083Y-121599032D01*
X148716917Y-121708722D01*
X148477018Y-121852299D01*
X148258823Y-122027106D01*
X148256499Y-122029555D01*
X148069466Y-122226647D01*
X148066371Y-122229908D01*
X148064406Y-122232643D01*
X148064404Y-122232645D01*
X148052421Y-122249322D01*
X147903223Y-122456952D01*
X147772398Y-122704038D01*
X147676317Y-122966592D01*
X147675599Y-122969887D01*
X147641927Y-123124320D01*
X147616757Y-123239757D01*
X147594822Y-123518477D01*
X146587191Y-123518477D01*
X146572629Y-93453079D01*
X150667163Y-93453079D01*
X150676349Y-93461796D01*
X150677847Y-93462463D01*
X150687659Y-93465651D01*
X150867705Y-93503921D01*
X150877968Y-93505000D01*
X151062032Y-93505000D01*
X151072295Y-93503921D01*
X151252341Y-93465651D01*
X151262153Y-93462463D01*
X151264869Y-93461254D01*
X151272616Y-93454279D01*
X151272044Y-93453079D01*
X153167163Y-93453079D01*
X153176349Y-93461796D01*
X153177847Y-93462463D01*
X153187659Y-93465651D01*
X153367705Y-93503921D01*
X153377968Y-93505000D01*
X153562032Y-93505000D01*
X153572295Y-93503921D01*
X153752341Y-93465651D01*
X153762153Y-93462463D01*
X153764869Y-93461254D01*
X153772616Y-93454279D01*
X153772044Y-93453079D01*
X155667163Y-93453079D01*
X155676349Y-93461796D01*
X155677847Y-93462463D01*
X155687659Y-93465651D01*
X155867705Y-93503921D01*
X155877968Y-93505000D01*
X156062032Y-93505000D01*
X156072295Y-93503921D01*
X156252341Y-93465651D01*
X156262153Y-93462463D01*
X156264869Y-93461254D01*
X156272616Y-93454279D01*
X156272044Y-93453079D01*
X158167163Y-93453079D01*
X158176349Y-93461796D01*
X158177847Y-93462463D01*
X158187659Y-93465651D01*
X158367705Y-93503921D01*
X158377968Y-93505000D01*
X158562032Y-93505000D01*
X158572295Y-93503921D01*
X158752341Y-93465651D01*
X158762153Y-93462463D01*
X158764869Y-93461254D01*
X158772616Y-93454279D01*
X158767164Y-93442849D01*
X158481088Y-93156774D01*
X158469202Y-93150718D01*
X158464171Y-93151514D01*
X158171897Y-93443788D01*
X158167163Y-93453079D01*
X156272044Y-93453079D01*
X156267164Y-93442849D01*
X155981088Y-93156774D01*
X155969202Y-93150718D01*
X155964171Y-93151514D01*
X155671897Y-93443788D01*
X155667163Y-93453079D01*
X153772044Y-93453079D01*
X153767164Y-93442849D01*
X153481088Y-93156774D01*
X153469202Y-93150718D01*
X153464171Y-93151514D01*
X153171897Y-93443788D01*
X153167163Y-93453079D01*
X151272044Y-93453079D01*
X151267164Y-93442849D01*
X150981088Y-93156774D01*
X150969202Y-93150718D01*
X150964171Y-93151514D01*
X150671897Y-93443788D01*
X150667163Y-93453079D01*
X146572629Y-93453079D01*
X146572211Y-92591086D01*
X146572208Y-92585157D01*
X150040447Y-92585157D01*
X150059688Y-92768220D01*
X150061832Y-92778310D01*
X150092344Y-92872212D01*
X150099040Y-92881429D01*
X150104736Y-92879578D01*
X150393228Y-92591086D01*
X150398470Y-92580797D01*
X151540718Y-92580797D01*
X151541514Y-92585828D01*
X151831725Y-92876039D01*
X151841873Y-92881210D01*
X151846109Y-92876974D01*
X151878168Y-92778310D01*
X151880312Y-92768220D01*
X151899553Y-92585157D01*
X152540447Y-92585157D01*
X152559688Y-92768220D01*
X152561832Y-92778310D01*
X152592344Y-92872212D01*
X152599040Y-92881429D01*
X152604736Y-92879578D01*
X152893228Y-92591086D01*
X152898470Y-92580797D01*
X154040718Y-92580797D01*
X154041514Y-92585828D01*
X154331725Y-92876039D01*
X154341873Y-92881210D01*
X154346109Y-92876974D01*
X154378168Y-92778310D01*
X154380312Y-92768220D01*
X154399553Y-92585157D01*
X155040447Y-92585157D01*
X155059688Y-92768220D01*
X155061832Y-92778310D01*
X155092344Y-92872212D01*
X155099040Y-92881429D01*
X155104736Y-92879578D01*
X155393228Y-92591086D01*
X155398470Y-92580797D01*
X156540718Y-92580797D01*
X156541514Y-92585828D01*
X156831725Y-92876039D01*
X156841873Y-92881210D01*
X156846109Y-92876974D01*
X156878168Y-92778310D01*
X156880312Y-92768220D01*
X156899553Y-92585157D01*
X157540447Y-92585157D01*
X157559688Y-92768220D01*
X157561832Y-92778310D01*
X157592344Y-92872212D01*
X157599040Y-92881429D01*
X157604736Y-92879578D01*
X157893228Y-92591086D01*
X157898470Y-92580797D01*
X159040718Y-92580797D01*
X159041514Y-92585828D01*
X159331725Y-92876039D01*
X159341873Y-92881210D01*
X159346109Y-92876974D01*
X159378168Y-92778310D01*
X159380312Y-92768220D01*
X159399553Y-92585157D01*
X159399553Y-92574843D01*
X159380312Y-92391780D01*
X159378168Y-92381690D01*
X159347656Y-92287788D01*
X159340960Y-92278571D01*
X159335264Y-92280422D01*
X159046772Y-92568914D01*
X159040718Y-92580797D01*
X157898470Y-92580797D01*
X157899282Y-92579203D01*
X157898486Y-92574172D01*
X157608275Y-92283961D01*
X157598127Y-92278790D01*
X157593891Y-92283026D01*
X157561832Y-92381690D01*
X157559688Y-92391780D01*
X157540447Y-92574843D01*
X157540447Y-92585157D01*
X156899553Y-92585157D01*
X156899553Y-92574843D01*
X156880312Y-92391780D01*
X156878168Y-92381690D01*
X156847656Y-92287788D01*
X156840960Y-92278571D01*
X156835264Y-92280422D01*
X156546772Y-92568914D01*
X156540718Y-92580797D01*
X155398470Y-92580797D01*
X155399282Y-92579203D01*
X155398486Y-92574172D01*
X155108275Y-92283961D01*
X155098127Y-92278790D01*
X155093891Y-92283026D01*
X155061832Y-92381690D01*
X155059688Y-92391780D01*
X155040447Y-92574843D01*
X155040447Y-92585157D01*
X154399553Y-92585157D01*
X154399553Y-92574843D01*
X154380312Y-92391780D01*
X154378168Y-92381690D01*
X154347656Y-92287788D01*
X154340960Y-92278571D01*
X154335264Y-92280422D01*
X154046772Y-92568914D01*
X154040718Y-92580797D01*
X152898470Y-92580797D01*
X152899282Y-92579203D01*
X152898486Y-92574172D01*
X152608275Y-92283961D01*
X152598127Y-92278790D01*
X152593891Y-92283026D01*
X152561832Y-92381690D01*
X152559688Y-92391780D01*
X152540447Y-92574843D01*
X152540447Y-92585157D01*
X151899553Y-92585157D01*
X151899553Y-92574843D01*
X151880312Y-92391780D01*
X151878168Y-92381690D01*
X151847656Y-92287788D01*
X151840960Y-92278571D01*
X151835264Y-92280422D01*
X151546772Y-92568914D01*
X151540718Y-92580797D01*
X150398470Y-92580797D01*
X150399282Y-92579203D01*
X150398486Y-92574172D01*
X150108275Y-92283961D01*
X150098127Y-92278790D01*
X150093891Y-92283026D01*
X150061832Y-92381690D01*
X150059688Y-92391780D01*
X150040447Y-92574843D01*
X150040447Y-92585157D01*
X146572208Y-92585157D01*
X146571782Y-91705721D01*
X150667384Y-91705721D01*
X150672836Y-91717151D01*
X150958912Y-92003226D01*
X150970798Y-92009282D01*
X150975829Y-92008486D01*
X151268103Y-91716212D01*
X151272837Y-91706921D01*
X151271572Y-91705721D01*
X153167384Y-91705721D01*
X153172836Y-91717151D01*
X153458912Y-92003226D01*
X153470798Y-92009282D01*
X153475829Y-92008486D01*
X153768103Y-91716212D01*
X153772837Y-91706921D01*
X153771572Y-91705721D01*
X155667384Y-91705721D01*
X155672836Y-91717151D01*
X155958912Y-92003226D01*
X155970798Y-92009282D01*
X155975829Y-92008486D01*
X156268103Y-91716212D01*
X156272837Y-91706921D01*
X156271572Y-91705721D01*
X158167384Y-91705721D01*
X158172836Y-91717151D01*
X158458912Y-92003226D01*
X158470798Y-92009282D01*
X158475829Y-92008486D01*
X158768103Y-91716212D01*
X158772837Y-91706921D01*
X158763651Y-91698204D01*
X158762153Y-91697537D01*
X158752341Y-91694349D01*
X158572295Y-91656079D01*
X158562032Y-91655000D01*
X158377968Y-91655000D01*
X158367705Y-91656079D01*
X158187659Y-91694349D01*
X158177847Y-91697537D01*
X158175131Y-91698746D01*
X158167384Y-91705721D01*
X156271572Y-91705721D01*
X156263651Y-91698204D01*
X156262153Y-91697537D01*
X156252341Y-91694349D01*
X156072295Y-91656079D01*
X156062032Y-91655000D01*
X155877968Y-91655000D01*
X155867705Y-91656079D01*
X155687659Y-91694349D01*
X155677847Y-91697537D01*
X155675131Y-91698746D01*
X155667384Y-91705721D01*
X153771572Y-91705721D01*
X153763651Y-91698204D01*
X153762153Y-91697537D01*
X153752341Y-91694349D01*
X153572295Y-91656079D01*
X153562032Y-91655000D01*
X153377968Y-91655000D01*
X153367705Y-91656079D01*
X153187659Y-91694349D01*
X153177847Y-91697537D01*
X153175131Y-91698746D01*
X153167384Y-91705721D01*
X151271572Y-91705721D01*
X151263651Y-91698204D01*
X151262153Y-91697537D01*
X151252341Y-91694349D01*
X151072295Y-91656079D01*
X151062032Y-91655000D01*
X150877968Y-91655000D01*
X150867705Y-91656079D01*
X150687659Y-91694349D01*
X150677847Y-91697537D01*
X150675131Y-91698746D01*
X150667384Y-91705721D01*
X146571782Y-91705721D01*
X146571175Y-90453079D01*
X150667163Y-90453079D01*
X150676349Y-90461796D01*
X150677847Y-90462463D01*
X150687659Y-90465651D01*
X150867705Y-90503921D01*
X150877968Y-90505000D01*
X151062032Y-90505000D01*
X151072295Y-90503921D01*
X151252341Y-90465651D01*
X151262153Y-90462463D01*
X151264869Y-90461254D01*
X151272616Y-90454279D01*
X151272044Y-90453079D01*
X153167163Y-90453079D01*
X153176349Y-90461796D01*
X153177847Y-90462463D01*
X153187659Y-90465651D01*
X153367705Y-90503921D01*
X153377968Y-90505000D01*
X153562032Y-90505000D01*
X153572295Y-90503921D01*
X153752341Y-90465651D01*
X153762153Y-90462463D01*
X153764869Y-90461254D01*
X153772616Y-90454279D01*
X153772044Y-90453079D01*
X155667163Y-90453079D01*
X155676349Y-90461796D01*
X155677847Y-90462463D01*
X155687659Y-90465651D01*
X155867705Y-90503921D01*
X155877968Y-90505000D01*
X156062032Y-90505000D01*
X156072295Y-90503921D01*
X156252341Y-90465651D01*
X156262153Y-90462463D01*
X156264869Y-90461254D01*
X156272616Y-90454279D01*
X156272044Y-90453079D01*
X158167163Y-90453079D01*
X158176349Y-90461796D01*
X158177847Y-90462463D01*
X158187659Y-90465651D01*
X158367705Y-90503921D01*
X158377968Y-90505000D01*
X158562032Y-90505000D01*
X158572295Y-90503921D01*
X158752341Y-90465651D01*
X158762153Y-90462463D01*
X158764869Y-90461254D01*
X158772616Y-90454279D01*
X158767164Y-90442849D01*
X158481088Y-90156774D01*
X158469202Y-90150718D01*
X158464171Y-90151514D01*
X158171897Y-90443788D01*
X158167163Y-90453079D01*
X156272044Y-90453079D01*
X156267164Y-90442849D01*
X155981088Y-90156774D01*
X155969202Y-90150718D01*
X155964171Y-90151514D01*
X155671897Y-90443788D01*
X155667163Y-90453079D01*
X153772044Y-90453079D01*
X153767164Y-90442849D01*
X153481088Y-90156774D01*
X153469202Y-90150718D01*
X153464171Y-90151514D01*
X153171897Y-90443788D01*
X153167163Y-90453079D01*
X151272044Y-90453079D01*
X151267164Y-90442849D01*
X150981088Y-90156774D01*
X150969202Y-90150718D01*
X150964171Y-90151514D01*
X150671897Y-90443788D01*
X150667163Y-90453079D01*
X146571175Y-90453079D01*
X146570755Y-89585157D01*
X150040447Y-89585157D01*
X150059688Y-89768220D01*
X150061832Y-89778310D01*
X150092344Y-89872212D01*
X150099040Y-89881429D01*
X150104736Y-89879578D01*
X150393228Y-89591086D01*
X150398470Y-89580797D01*
X151540718Y-89580797D01*
X151541514Y-89585828D01*
X151831725Y-89876039D01*
X151841873Y-89881210D01*
X151846109Y-89876974D01*
X151878168Y-89778310D01*
X151880312Y-89768220D01*
X151899553Y-89585157D01*
X152540447Y-89585157D01*
X152559688Y-89768220D01*
X152561832Y-89778310D01*
X152592344Y-89872212D01*
X152599040Y-89881429D01*
X152604736Y-89879578D01*
X152893228Y-89591086D01*
X152898470Y-89580797D01*
X154040718Y-89580797D01*
X154041514Y-89585828D01*
X154331725Y-89876039D01*
X154341873Y-89881210D01*
X154346109Y-89876974D01*
X154378168Y-89778310D01*
X154380312Y-89768220D01*
X154399553Y-89585157D01*
X155040447Y-89585157D01*
X155059688Y-89768220D01*
X155061832Y-89778310D01*
X155092344Y-89872212D01*
X155099040Y-89881429D01*
X155104736Y-89879578D01*
X155393228Y-89591086D01*
X155398470Y-89580797D01*
X156540718Y-89580797D01*
X156541514Y-89585828D01*
X156831725Y-89876039D01*
X156841873Y-89881210D01*
X156846109Y-89876974D01*
X156878168Y-89778310D01*
X156880312Y-89768220D01*
X156899553Y-89585157D01*
X157540447Y-89585157D01*
X157559688Y-89768220D01*
X157561832Y-89778310D01*
X157592344Y-89872212D01*
X157599040Y-89881429D01*
X157604736Y-89879578D01*
X157893228Y-89591086D01*
X157898470Y-89580797D01*
X159040718Y-89580797D01*
X159041514Y-89585828D01*
X159331725Y-89876039D01*
X159341873Y-89881210D01*
X159346109Y-89876974D01*
X159378168Y-89778310D01*
X159380312Y-89768220D01*
X159399553Y-89585157D01*
X159399553Y-89574843D01*
X159380312Y-89391780D01*
X159378168Y-89381690D01*
X159347656Y-89287788D01*
X159340960Y-89278571D01*
X159335264Y-89280422D01*
X159046772Y-89568914D01*
X159040718Y-89580797D01*
X157898470Y-89580797D01*
X157899282Y-89579203D01*
X157898486Y-89574172D01*
X157608275Y-89283961D01*
X157598127Y-89278790D01*
X157593891Y-89283026D01*
X157561832Y-89381690D01*
X157559688Y-89391780D01*
X157540447Y-89574843D01*
X157540447Y-89585157D01*
X156899553Y-89585157D01*
X156899553Y-89574843D01*
X156880312Y-89391780D01*
X156878168Y-89381690D01*
X156847656Y-89287788D01*
X156840960Y-89278571D01*
X156835264Y-89280422D01*
X156546772Y-89568914D01*
X156540718Y-89580797D01*
X155398470Y-89580797D01*
X155399282Y-89579203D01*
X155398486Y-89574172D01*
X155108275Y-89283961D01*
X155098127Y-89278790D01*
X155093891Y-89283026D01*
X155061832Y-89381690D01*
X155059688Y-89391780D01*
X155040447Y-89574843D01*
X155040447Y-89585157D01*
X154399553Y-89585157D01*
X154399553Y-89574843D01*
X154380312Y-89391780D01*
X154378168Y-89381690D01*
X154347656Y-89287788D01*
X154340960Y-89278571D01*
X154335264Y-89280422D01*
X154046772Y-89568914D01*
X154040718Y-89580797D01*
X152898470Y-89580797D01*
X152899282Y-89579203D01*
X152898486Y-89574172D01*
X152608275Y-89283961D01*
X152598127Y-89278790D01*
X152593891Y-89283026D01*
X152561832Y-89381690D01*
X152559688Y-89391780D01*
X152540447Y-89574843D01*
X152540447Y-89585157D01*
X151899553Y-89585157D01*
X151899553Y-89574843D01*
X151880312Y-89391780D01*
X151878168Y-89381690D01*
X151847656Y-89287788D01*
X151840960Y-89278571D01*
X151835264Y-89280422D01*
X151546772Y-89568914D01*
X151540718Y-89580797D01*
X150398470Y-89580797D01*
X150399282Y-89579203D01*
X150398486Y-89574172D01*
X150108275Y-89283961D01*
X150098127Y-89278790D01*
X150093891Y-89283026D01*
X150061832Y-89381690D01*
X150059688Y-89391780D01*
X150040447Y-89574843D01*
X150040447Y-89585157D01*
X146570755Y-89585157D01*
X146569525Y-87045053D01*
X149540042Y-87045053D01*
X149553535Y-87279071D01*
X149554427Y-87283028D01*
X149575886Y-87378247D01*
X149605069Y-87507743D01*
X149606598Y-87511507D01*
X149606599Y-87511512D01*
X149646673Y-87610202D01*
X149693259Y-87724928D01*
X149695383Y-87728394D01*
X149695385Y-87728398D01*
X149751521Y-87820003D01*
X149815736Y-87924793D01*
X149818395Y-87927863D01*
X149818396Y-87927864D01*
X149889481Y-88009927D01*
X149969212Y-88101971D01*
X150149565Y-88251703D01*
X150351951Y-88369968D01*
X150570935Y-88453590D01*
X150574910Y-88454399D01*
X150574911Y-88454399D01*
X150742901Y-88488577D01*
X150796155Y-88518707D01*
X150821528Y-88574383D01*
X150809329Y-88634340D01*
X150764219Y-88675676D01*
X150743747Y-88682427D01*
X150687659Y-88694349D01*
X150677847Y-88697537D01*
X150675131Y-88698746D01*
X150667384Y-88705721D01*
X150672836Y-88717151D01*
X150958912Y-89003226D01*
X150970798Y-89009282D01*
X150975829Y-89008486D01*
X151268103Y-88716212D01*
X151272837Y-88706921D01*
X151263651Y-88698204D01*
X151262153Y-88697537D01*
X151252341Y-88694348D01*
X151195738Y-88682317D01*
X151142750Y-88651724D01*
X151117863Y-88595828D01*
X151130585Y-88535980D01*
X151176054Y-88495039D01*
X151203742Y-88487282D01*
X151263362Y-88479645D01*
X151263368Y-88479644D01*
X151267394Y-88479128D01*
X151271287Y-88477960D01*
X151271292Y-88477959D01*
X151430542Y-88430181D01*
X151491914Y-88411768D01*
X151602707Y-88357491D01*
X151698771Y-88310430D01*
X151698774Y-88310428D01*
X151702418Y-88308643D01*
X151893253Y-88172522D01*
X152059293Y-88007061D01*
X152133616Y-87903630D01*
X152137960Y-87897585D01*
X152187271Y-87861363D01*
X152248456Y-87861043D01*
X152298143Y-87896747D01*
X152302761Y-87903619D01*
X152315736Y-87924793D01*
X152318395Y-87927863D01*
X152318396Y-87927864D01*
X152389481Y-88009927D01*
X152469212Y-88101971D01*
X152649565Y-88251703D01*
X152851951Y-88369968D01*
X153070935Y-88453590D01*
X153074910Y-88454399D01*
X153074911Y-88454399D01*
X153242901Y-88488577D01*
X153296155Y-88518707D01*
X153321528Y-88574383D01*
X153309329Y-88634340D01*
X153264219Y-88675676D01*
X153243747Y-88682427D01*
X153187659Y-88694349D01*
X153177847Y-88697537D01*
X153175131Y-88698746D01*
X153167384Y-88705721D01*
X153172836Y-88717151D01*
X153458912Y-89003226D01*
X153470798Y-89009282D01*
X153475829Y-89008486D01*
X153768103Y-88716212D01*
X153772837Y-88706921D01*
X153763651Y-88698204D01*
X153762153Y-88697537D01*
X153752341Y-88694348D01*
X153695738Y-88682317D01*
X153642750Y-88651724D01*
X153617863Y-88595828D01*
X153630585Y-88535980D01*
X153676054Y-88495039D01*
X153703742Y-88487282D01*
X153763362Y-88479645D01*
X153763368Y-88479644D01*
X153767394Y-88479128D01*
X153771287Y-88477960D01*
X153771292Y-88477959D01*
X153930542Y-88430181D01*
X153991914Y-88411768D01*
X154102707Y-88357491D01*
X154198771Y-88310430D01*
X154198774Y-88310428D01*
X154202418Y-88308643D01*
X154393253Y-88172522D01*
X154559293Y-88007061D01*
X154633616Y-87903630D01*
X154637960Y-87897585D01*
X154687271Y-87861363D01*
X154748456Y-87861043D01*
X154798143Y-87896747D01*
X154802761Y-87903619D01*
X154815736Y-87924793D01*
X154818395Y-87927863D01*
X154818396Y-87927864D01*
X154889481Y-88009927D01*
X154969212Y-88101971D01*
X155149565Y-88251703D01*
X155351951Y-88369968D01*
X155570935Y-88453590D01*
X155574910Y-88454399D01*
X155574911Y-88454399D01*
X155742901Y-88488577D01*
X155796155Y-88518707D01*
X155821528Y-88574383D01*
X155809329Y-88634340D01*
X155764219Y-88675676D01*
X155743747Y-88682427D01*
X155687659Y-88694349D01*
X155677847Y-88697537D01*
X155675131Y-88698746D01*
X155667384Y-88705721D01*
X155672836Y-88717151D01*
X155958912Y-89003226D01*
X155970798Y-89009282D01*
X155975829Y-89008486D01*
X156268103Y-88716212D01*
X156272837Y-88706921D01*
X156263651Y-88698204D01*
X156262153Y-88697537D01*
X156252341Y-88694348D01*
X156195738Y-88682317D01*
X156142750Y-88651724D01*
X156117863Y-88595828D01*
X156130585Y-88535980D01*
X156176054Y-88495039D01*
X156203742Y-88487282D01*
X156263362Y-88479645D01*
X156263368Y-88479644D01*
X156267394Y-88479128D01*
X156271287Y-88477960D01*
X156271292Y-88477959D01*
X156430542Y-88430181D01*
X156491914Y-88411768D01*
X156602707Y-88357491D01*
X156698771Y-88310430D01*
X156698774Y-88310428D01*
X156702418Y-88308643D01*
X156893253Y-88172522D01*
X157059293Y-88007061D01*
X157133616Y-87903630D01*
X157137960Y-87897585D01*
X157187271Y-87861363D01*
X157248456Y-87861043D01*
X157298143Y-87896747D01*
X157302761Y-87903619D01*
X157315736Y-87924793D01*
X157318395Y-87927863D01*
X157318396Y-87927864D01*
X157389481Y-88009927D01*
X157469212Y-88101971D01*
X157649565Y-88251703D01*
X157851951Y-88369968D01*
X158070935Y-88453590D01*
X158074910Y-88454399D01*
X158074911Y-88454399D01*
X158242901Y-88488577D01*
X158296155Y-88518707D01*
X158321528Y-88574383D01*
X158309329Y-88634340D01*
X158264219Y-88675676D01*
X158243747Y-88682427D01*
X158187659Y-88694349D01*
X158177847Y-88697537D01*
X158175131Y-88698746D01*
X158167384Y-88705721D01*
X158172836Y-88717151D01*
X158458912Y-89003226D01*
X158470798Y-89009282D01*
X158475829Y-89008486D01*
X158768103Y-88716212D01*
X158772837Y-88706921D01*
X158763651Y-88698204D01*
X158762153Y-88697537D01*
X158752341Y-88694348D01*
X158695738Y-88682317D01*
X158642750Y-88651724D01*
X158617863Y-88595828D01*
X158630585Y-88535980D01*
X158676054Y-88495039D01*
X158703742Y-88487282D01*
X158763362Y-88479645D01*
X158763368Y-88479644D01*
X158767394Y-88479128D01*
X158771287Y-88477960D01*
X158771292Y-88477959D01*
X158930542Y-88430181D01*
X158991914Y-88411768D01*
X159102707Y-88357491D01*
X159198771Y-88310430D01*
X159198774Y-88310428D01*
X159202418Y-88308643D01*
X159393253Y-88172522D01*
X159559293Y-88007061D01*
X159633616Y-87903630D01*
X159693708Y-87820003D01*
X159693709Y-87820001D01*
X159696079Y-87816703D01*
X159697877Y-87813065D01*
X159697880Y-87813060D01*
X159798138Y-87610202D01*
X159799938Y-87606560D01*
X159801116Y-87602684D01*
X159801118Y-87602678D01*
X159866901Y-87386160D01*
X159866901Y-87386159D01*
X159868081Y-87382276D01*
X159898677Y-87149874D01*
X159900385Y-87080000D01*
X159881178Y-86846381D01*
X159872536Y-86811973D01*
X159825064Y-86622982D01*
X159824073Y-86619036D01*
X159730603Y-86404070D01*
X159603279Y-86207258D01*
X159445520Y-86033883D01*
X159442334Y-86031367D01*
X159442331Y-86031364D01*
X159264751Y-85891119D01*
X159264745Y-85891115D01*
X159261563Y-85888602D01*
X159056348Y-85775317D01*
X159052517Y-85773960D01*
X159052514Y-85773959D01*
X158839222Y-85698428D01*
X158839218Y-85698427D01*
X158835386Y-85697070D01*
X158732192Y-85678688D01*
X158678220Y-85649870D01*
X158651494Y-85594830D01*
X158662223Y-85534593D01*
X158706310Y-85492167D01*
X158736974Y-85483026D01*
X158763351Y-85479647D01*
X158763364Y-85479644D01*
X158767394Y-85479128D01*
X158771287Y-85477960D01*
X158771292Y-85477959D01*
X158930542Y-85430181D01*
X158991914Y-85411768D01*
X159102707Y-85357491D01*
X159198771Y-85310430D01*
X159198774Y-85310428D01*
X159202418Y-85308643D01*
X159393253Y-85172522D01*
X159559293Y-85007061D01*
X159633616Y-84903630D01*
X159693708Y-84820003D01*
X159693709Y-84820001D01*
X159696079Y-84816703D01*
X159697877Y-84813065D01*
X159697880Y-84813060D01*
X159798138Y-84610202D01*
X159799938Y-84606560D01*
X159801116Y-84602684D01*
X159801118Y-84602678D01*
X159866901Y-84386160D01*
X159866901Y-84386159D01*
X159868081Y-84382276D01*
X159898677Y-84149874D01*
X159900385Y-84080000D01*
X159881178Y-83846381D01*
X159872536Y-83811973D01*
X159825064Y-83622982D01*
X159824073Y-83619036D01*
X159730603Y-83404070D01*
X159603279Y-83207258D01*
X159445520Y-83033883D01*
X159442334Y-83031367D01*
X159442331Y-83031364D01*
X159283774Y-82906143D01*
X159249825Y-82855239D01*
X159252281Y-82794103D01*
X159287642Y-82747854D01*
X159393253Y-82672522D01*
X159559293Y-82507061D01*
X159633616Y-82403630D01*
X159693708Y-82320003D01*
X159693709Y-82320001D01*
X159696079Y-82316703D01*
X159697877Y-82313065D01*
X159697880Y-82313060D01*
X159798138Y-82110202D01*
X159799938Y-82106560D01*
X159801116Y-82102684D01*
X159801118Y-82102678D01*
X159866901Y-81886160D01*
X159866901Y-81886159D01*
X159868081Y-81882276D01*
X159898677Y-81649874D01*
X159900385Y-81580000D01*
X159881178Y-81346381D01*
X159872536Y-81311973D01*
X159825064Y-81122982D01*
X159824073Y-81119036D01*
X159730603Y-80904070D01*
X159603279Y-80707258D01*
X159445520Y-80533883D01*
X159442334Y-80531367D01*
X159442331Y-80531364D01*
X159264751Y-80391119D01*
X159264745Y-80391115D01*
X159261563Y-80388602D01*
X159056348Y-80275317D01*
X159052517Y-80273960D01*
X159052514Y-80273959D01*
X158839222Y-80198428D01*
X158839218Y-80198427D01*
X158835386Y-80197070D01*
X158732192Y-80178688D01*
X158678220Y-80149870D01*
X158651494Y-80094830D01*
X158662223Y-80034593D01*
X158706310Y-79992167D01*
X158736974Y-79983026D01*
X158763351Y-79979647D01*
X158763364Y-79979644D01*
X158767394Y-79979128D01*
X158771287Y-79977960D01*
X158771292Y-79977959D01*
X158930542Y-79930181D01*
X158991914Y-79911768D01*
X159102707Y-79857491D01*
X159198771Y-79810430D01*
X159198774Y-79810428D01*
X159202418Y-79808643D01*
X159393253Y-79672522D01*
X159559293Y-79507061D01*
X159633616Y-79403630D01*
X159693708Y-79320003D01*
X159693709Y-79320001D01*
X159696079Y-79316703D01*
X159697877Y-79313065D01*
X159697880Y-79313060D01*
X159798138Y-79110202D01*
X159799938Y-79106560D01*
X159801116Y-79102684D01*
X159801118Y-79102678D01*
X159866901Y-78886160D01*
X159866901Y-78886159D01*
X159868081Y-78882276D01*
X159898677Y-78649874D01*
X159900385Y-78580000D01*
X159881178Y-78346381D01*
X159872536Y-78311973D01*
X159825064Y-78122982D01*
X159824073Y-78119036D01*
X159730603Y-77904070D01*
X159603279Y-77707258D01*
X159445520Y-77533883D01*
X159442334Y-77531367D01*
X159442331Y-77531364D01*
X159264751Y-77391119D01*
X159264745Y-77391115D01*
X159261563Y-77388602D01*
X159056348Y-77275317D01*
X159052517Y-77273960D01*
X159052514Y-77273959D01*
X158839222Y-77198428D01*
X158839218Y-77198427D01*
X158835386Y-77197070D01*
X158604611Y-77155963D01*
X158600565Y-77155914D01*
X158600559Y-77155913D01*
X158471260Y-77154334D01*
X158370221Y-77153099D01*
X158138511Y-77188556D01*
X158018379Y-77227821D01*
X157919561Y-77260120D01*
X157919557Y-77260121D01*
X157915704Y-77261381D01*
X157912104Y-77263255D01*
X157711387Y-77367741D01*
X157711384Y-77367743D01*
X157707782Y-77369618D01*
X157704540Y-77372053D01*
X157704534Y-77372056D01*
X157679145Y-77391119D01*
X157520330Y-77510361D01*
X157358382Y-77679830D01*
X157356090Y-77683190D01*
X157302312Y-77762025D01*
X157253900Y-77799442D01*
X157192742Y-77801257D01*
X157142197Y-77766777D01*
X157137418Y-77760028D01*
X157103279Y-77707258D01*
X156945520Y-77533883D01*
X156942334Y-77531367D01*
X156942331Y-77531364D01*
X156764751Y-77391119D01*
X156764745Y-77391115D01*
X156761563Y-77388602D01*
X156556348Y-77275317D01*
X156552517Y-77273960D01*
X156552514Y-77273959D01*
X156339222Y-77198428D01*
X156339218Y-77198427D01*
X156335386Y-77197070D01*
X156104611Y-77155963D01*
X156100565Y-77155914D01*
X156100559Y-77155913D01*
X155971260Y-77154334D01*
X155870221Y-77153099D01*
X155638511Y-77188556D01*
X155518379Y-77227821D01*
X155419561Y-77260120D01*
X155419557Y-77260121D01*
X155415704Y-77261381D01*
X155412104Y-77263255D01*
X155211387Y-77367741D01*
X155211384Y-77367743D01*
X155207782Y-77369618D01*
X155204540Y-77372053D01*
X155204534Y-77372056D01*
X155179145Y-77391119D01*
X155020330Y-77510361D01*
X154858382Y-77679830D01*
X154856090Y-77683190D01*
X154802312Y-77762025D01*
X154753900Y-77799442D01*
X154692742Y-77801257D01*
X154642197Y-77766777D01*
X154637418Y-77760028D01*
X154603279Y-77707258D01*
X154445520Y-77533883D01*
X154442334Y-77531367D01*
X154442331Y-77531364D01*
X154264751Y-77391119D01*
X154264745Y-77391115D01*
X154261563Y-77388602D01*
X154056348Y-77275317D01*
X154052517Y-77273960D01*
X154052514Y-77273959D01*
X153839222Y-77198428D01*
X153839218Y-77198427D01*
X153835386Y-77197070D01*
X153604611Y-77155963D01*
X153600565Y-77155914D01*
X153600559Y-77155913D01*
X153471260Y-77154334D01*
X153370221Y-77153099D01*
X153138511Y-77188556D01*
X153018379Y-77227821D01*
X152919561Y-77260120D01*
X152919557Y-77260121D01*
X152915704Y-77261381D01*
X152912104Y-77263255D01*
X152711387Y-77367741D01*
X152711384Y-77367743D01*
X152707782Y-77369618D01*
X152704540Y-77372053D01*
X152704534Y-77372056D01*
X152679145Y-77391119D01*
X152520330Y-77510361D01*
X152358382Y-77679830D01*
X152356090Y-77683190D01*
X152302312Y-77762025D01*
X152253900Y-77799442D01*
X152192742Y-77801257D01*
X152142197Y-77766777D01*
X152137418Y-77760028D01*
X152103279Y-77707258D01*
X151945520Y-77533883D01*
X151942334Y-77531367D01*
X151942331Y-77531364D01*
X151764751Y-77391119D01*
X151764745Y-77391115D01*
X151761563Y-77388602D01*
X151556348Y-77275317D01*
X151552517Y-77273960D01*
X151552514Y-77273959D01*
X151339222Y-77198428D01*
X151339218Y-77198427D01*
X151335386Y-77197070D01*
X151104611Y-77155963D01*
X151100565Y-77155914D01*
X151100559Y-77155913D01*
X150971260Y-77154334D01*
X150870221Y-77153099D01*
X150638511Y-77188556D01*
X150518379Y-77227821D01*
X150419561Y-77260120D01*
X150419557Y-77260121D01*
X150415704Y-77261381D01*
X150412104Y-77263255D01*
X150211387Y-77367741D01*
X150211384Y-77367743D01*
X150207782Y-77369618D01*
X150204540Y-77372053D01*
X150204534Y-77372056D01*
X150179145Y-77391119D01*
X150020330Y-77510361D01*
X149858382Y-77679830D01*
X149726287Y-77873473D01*
X149627594Y-78086091D01*
X149564951Y-78311973D01*
X149540042Y-78545053D01*
X149553535Y-78779071D01*
X149554427Y-78783028D01*
X149575886Y-78878247D01*
X149605069Y-79007743D01*
X149606598Y-79011507D01*
X149606599Y-79011512D01*
X149646673Y-79110202D01*
X149693259Y-79224928D01*
X149695383Y-79228394D01*
X149695385Y-79228398D01*
X149751521Y-79320003D01*
X149815736Y-79424793D01*
X149818395Y-79427863D01*
X149818396Y-79427864D01*
X149889481Y-79509927D01*
X149969212Y-79601971D01*
X150149565Y-79751703D01*
X150351951Y-79869968D01*
X150570935Y-79953590D01*
X150714457Y-79982790D01*
X150767709Y-80012918D01*
X150793083Y-80068594D01*
X150780884Y-80128552D01*
X150735774Y-80169888D01*
X150709694Y-80177663D01*
X150662923Y-80184820D01*
X150638511Y-80188556D01*
X150518379Y-80227821D01*
X150419561Y-80260120D01*
X150419557Y-80260121D01*
X150415704Y-80261381D01*
X150412104Y-80263255D01*
X150211387Y-80367741D01*
X150211384Y-80367743D01*
X150207782Y-80369618D01*
X150204540Y-80372053D01*
X150204534Y-80372056D01*
X150179145Y-80391119D01*
X150020330Y-80510361D01*
X149858382Y-80679830D01*
X149726287Y-80873473D01*
X149627594Y-81086091D01*
X149564951Y-81311973D01*
X149540042Y-81545053D01*
X149553535Y-81779071D01*
X149554427Y-81783028D01*
X149575886Y-81878247D01*
X149605069Y-82007743D01*
X149606598Y-82011507D01*
X149606599Y-82011512D01*
X149646673Y-82110202D01*
X149693259Y-82224928D01*
X149695383Y-82228394D01*
X149695385Y-82228398D01*
X149751521Y-82320003D01*
X149815736Y-82424793D01*
X149818395Y-82427863D01*
X149818396Y-82427864D01*
X149889481Y-82509927D01*
X149969212Y-82601971D01*
X150149565Y-82751703D01*
X150149976Y-82751943D01*
X150186228Y-82800046D01*
X150187299Y-82861222D01*
X150152065Y-82911451D01*
X150023576Y-83007923D01*
X150023570Y-83007928D01*
X150020330Y-83010361D01*
X149858382Y-83179830D01*
X149726287Y-83373473D01*
X149627594Y-83586091D01*
X149564951Y-83811973D01*
X149540042Y-84045053D01*
X149553535Y-84279071D01*
X149554427Y-84283028D01*
X149575886Y-84378247D01*
X149605069Y-84507743D01*
X149606598Y-84511507D01*
X149606599Y-84511512D01*
X149646673Y-84610202D01*
X149693259Y-84724928D01*
X149695383Y-84728394D01*
X149695385Y-84728398D01*
X149751521Y-84820003D01*
X149815736Y-84924793D01*
X149818395Y-84927863D01*
X149818396Y-84927864D01*
X149889481Y-85009927D01*
X149969212Y-85101971D01*
X150149565Y-85251703D01*
X150351951Y-85369968D01*
X150570935Y-85453590D01*
X150714457Y-85482790D01*
X150767709Y-85512918D01*
X150793083Y-85568594D01*
X150780884Y-85628552D01*
X150735774Y-85669888D01*
X150709694Y-85677663D01*
X150662923Y-85684820D01*
X150638511Y-85688556D01*
X150518379Y-85727821D01*
X150419561Y-85760120D01*
X150419557Y-85760121D01*
X150415704Y-85761381D01*
X150412104Y-85763255D01*
X150211387Y-85867741D01*
X150211384Y-85867743D01*
X150207782Y-85869618D01*
X150204540Y-85872053D01*
X150204534Y-85872056D01*
X150179145Y-85891119D01*
X150020330Y-86010361D01*
X149858382Y-86179830D01*
X149726287Y-86373473D01*
X149627594Y-86586091D01*
X149564951Y-86811973D01*
X149540042Y-87045053D01*
X146569525Y-87045053D01*
X146564349Y-76358186D01*
X146583228Y-76299986D01*
X146632711Y-76263998D01*
X146663287Y-76259138D01*
X155523992Y-76253685D01*
X162715288Y-76249260D01*
X162773490Y-76268132D01*
G37*
%TD.AperFunction*%
%TD*%
%TA.AperFunction,Conductor*%
%TO.N,/Phase_1_T4*%
G36*
X72359451Y-76268907D02*
G01*
X72395415Y-76318407D01*
X72400260Y-76348739D01*
X72539738Y-129240739D01*
X72520984Y-129298979D01*
X72471579Y-129335074D01*
X72440738Y-129340000D01*
X56418963Y-129340000D01*
X56360772Y-129321093D01*
X56324808Y-129271593D01*
X56319963Y-129241037D01*
X56317833Y-123588477D01*
X57294822Y-123588477D01*
X57295016Y-123591842D01*
X57295016Y-123591846D01*
X57298545Y-123653043D01*
X57310916Y-123867596D01*
X57364741Y-124141948D01*
X57455303Y-124406457D01*
X57580925Y-124656228D01*
X57739282Y-124886639D01*
X57741552Y-124889133D01*
X57741553Y-124889135D01*
X57786948Y-124939023D01*
X57927444Y-125093427D01*
X58141930Y-125272765D01*
X58378771Y-125421335D01*
X58381839Y-125422720D01*
X58381846Y-125422724D01*
X58547358Y-125497455D01*
X58633583Y-125536387D01*
X58636805Y-125537341D01*
X58636812Y-125537344D01*
X58851263Y-125600867D01*
X58901652Y-125615793D01*
X58904977Y-125616302D01*
X58904978Y-125616302D01*
X59174684Y-125657573D01*
X59174687Y-125657573D01*
X59178018Y-125658083D01*
X59181389Y-125658136D01*
X59181390Y-125658136D01*
X59229571Y-125658893D01*
X59457566Y-125662474D01*
X59460903Y-125662070D01*
X59460907Y-125662070D01*
X59731779Y-125629291D01*
X59731784Y-125629290D01*
X59735123Y-125628886D01*
X60005554Y-125557940D01*
X60171590Y-125489165D01*
X60260746Y-125452236D01*
X60260749Y-125452235D01*
X60263855Y-125450948D01*
X60266760Y-125449251D01*
X60266763Y-125449249D01*
X60502329Y-125311595D01*
X60505245Y-125309891D01*
X60725258Y-125137379D01*
X60919823Y-124936603D01*
X60929557Y-124923353D01*
X60986843Y-124845366D01*
X61085340Y-124711280D01*
X61116864Y-124653221D01*
X61217136Y-124468541D01*
X61218745Y-124465578D01*
X61317570Y-124204044D01*
X61362012Y-124010000D01*
X61379234Y-123934808D01*
X61379235Y-123934801D01*
X61379987Y-123931518D01*
X61404840Y-123653043D01*
X61405291Y-123610000D01*
X61403824Y-123588477D01*
X62374822Y-123588477D01*
X62375016Y-123591842D01*
X62375016Y-123591846D01*
X62378545Y-123653043D01*
X62390916Y-123867596D01*
X62444741Y-124141948D01*
X62535303Y-124406457D01*
X62660925Y-124656228D01*
X62819282Y-124886639D01*
X62821552Y-124889133D01*
X62821553Y-124889135D01*
X62866948Y-124939023D01*
X63007444Y-125093427D01*
X63221930Y-125272765D01*
X63458771Y-125421335D01*
X63461839Y-125422720D01*
X63461846Y-125422724D01*
X63627358Y-125497455D01*
X63713583Y-125536387D01*
X63716805Y-125537341D01*
X63716812Y-125537344D01*
X63931263Y-125600867D01*
X63981652Y-125615793D01*
X63984977Y-125616302D01*
X63984978Y-125616302D01*
X64254684Y-125657573D01*
X64254687Y-125657573D01*
X64258018Y-125658083D01*
X64261389Y-125658136D01*
X64261390Y-125658136D01*
X64309571Y-125658893D01*
X64537566Y-125662474D01*
X64540903Y-125662070D01*
X64540907Y-125662070D01*
X64811779Y-125629291D01*
X64811784Y-125629290D01*
X64815123Y-125628886D01*
X65085554Y-125557940D01*
X65251590Y-125489165D01*
X65340746Y-125452236D01*
X65340749Y-125452235D01*
X65343855Y-125450948D01*
X65346760Y-125449251D01*
X65346763Y-125449249D01*
X65582329Y-125311595D01*
X65585245Y-125309891D01*
X65805258Y-125137379D01*
X65999823Y-124936603D01*
X66009557Y-124923353D01*
X66025507Y-124901639D01*
X67960000Y-124901639D01*
X67960346Y-124907485D01*
X67962234Y-124923353D01*
X67966128Y-124937519D01*
X68004770Y-125024514D01*
X68014946Y-125039321D01*
X68081108Y-125105367D01*
X68095931Y-125115517D01*
X68182980Y-125154000D01*
X68197185Y-125157873D01*
X68212580Y-125159668D01*
X68218292Y-125160000D01*
X69094320Y-125160000D01*
X69107005Y-125155878D01*
X69110000Y-125151757D01*
X69110000Y-125144320D01*
X69910000Y-125144320D01*
X69914122Y-125157005D01*
X69918243Y-125160000D01*
X70801639Y-125160000D01*
X70807485Y-125159654D01*
X70823353Y-125157766D01*
X70837519Y-125153872D01*
X70924514Y-125115230D01*
X70939321Y-125105054D01*
X71005367Y-125038892D01*
X71015517Y-125024069D01*
X71054000Y-124937020D01*
X71057873Y-124922815D01*
X71059668Y-124907420D01*
X71060000Y-124901708D01*
X71060000Y-124025680D01*
X71055878Y-124012995D01*
X71051757Y-124010000D01*
X69925680Y-124010000D01*
X69912995Y-124014122D01*
X69910000Y-124018243D01*
X69910000Y-125144320D01*
X69110000Y-125144320D01*
X69110000Y-124025680D01*
X69105878Y-124012995D01*
X69101757Y-124010000D01*
X67975680Y-124010000D01*
X67962995Y-124014122D01*
X67960000Y-124018243D01*
X67960000Y-124901639D01*
X66025507Y-124901639D01*
X66066843Y-124845366D01*
X66165340Y-124711280D01*
X66196864Y-124653221D01*
X66297136Y-124468541D01*
X66298745Y-124465578D01*
X66397570Y-124204044D01*
X66442012Y-124010000D01*
X66459234Y-123934808D01*
X66459235Y-123934801D01*
X66459987Y-123931518D01*
X66484840Y-123653043D01*
X66485291Y-123610000D01*
X66466275Y-123331065D01*
X66437956Y-123194320D01*
X67960000Y-123194320D01*
X67964122Y-123207005D01*
X67968243Y-123210000D01*
X69094320Y-123210000D01*
X69107005Y-123205878D01*
X69110000Y-123201757D01*
X69110000Y-123194320D01*
X69910000Y-123194320D01*
X69914122Y-123207005D01*
X69918243Y-123210000D01*
X71044320Y-123210000D01*
X71057005Y-123205878D01*
X71060000Y-123201757D01*
X71060000Y-122318361D01*
X71059654Y-122312515D01*
X71057766Y-122296647D01*
X71053872Y-122282481D01*
X71015230Y-122195486D01*
X71005054Y-122180679D01*
X70938892Y-122114633D01*
X70924069Y-122104483D01*
X70837020Y-122066000D01*
X70822815Y-122062127D01*
X70807420Y-122060332D01*
X70801708Y-122060000D01*
X69925680Y-122060000D01*
X69912995Y-122064122D01*
X69910000Y-122068243D01*
X69910000Y-123194320D01*
X69110000Y-123194320D01*
X69110000Y-122075680D01*
X69105878Y-122062995D01*
X69101757Y-122060000D01*
X68218361Y-122060000D01*
X68212515Y-122060346D01*
X68196647Y-122062234D01*
X68182481Y-122066128D01*
X68095486Y-122104770D01*
X68080679Y-122114946D01*
X68014633Y-122181108D01*
X68004483Y-122195931D01*
X67966000Y-122282980D01*
X67962127Y-122297185D01*
X67960332Y-122312580D01*
X67960000Y-122318292D01*
X67960000Y-123194320D01*
X66437956Y-123194320D01*
X66409579Y-123057292D01*
X66316253Y-122793746D01*
X66304542Y-122771056D01*
X66189573Y-122548308D01*
X66189570Y-122548302D01*
X66188022Y-122545304D01*
X66027261Y-122316563D01*
X66023500Y-122312515D01*
X65839907Y-122114946D01*
X65836944Y-122111757D01*
X65776439Y-122062234D01*
X65623204Y-121936814D01*
X65620591Y-121934675D01*
X65382208Y-121788594D01*
X65379126Y-121787241D01*
X65129288Y-121677569D01*
X65129284Y-121677567D01*
X65126205Y-121676216D01*
X65076917Y-121662176D01*
X64860571Y-121600548D01*
X64860566Y-121600547D01*
X64857319Y-121599622D01*
X64580526Y-121560229D01*
X64577159Y-121560211D01*
X64577154Y-121560211D01*
X64452187Y-121559557D01*
X64300947Y-121558765D01*
X64023757Y-121595257D01*
X64020506Y-121596146D01*
X64020503Y-121596147D01*
X63929615Y-121621012D01*
X63754083Y-121669032D01*
X63496917Y-121778722D01*
X63257018Y-121922299D01*
X63038823Y-122097106D01*
X63036499Y-122099555D01*
X62849466Y-122296647D01*
X62846371Y-122299908D01*
X62844406Y-122302643D01*
X62844404Y-122302645D01*
X62832421Y-122319322D01*
X62683223Y-122526952D01*
X62552398Y-122774038D01*
X62456317Y-123036592D01*
X62455599Y-123039887D01*
X62421927Y-123194320D01*
X62396757Y-123309757D01*
X62374822Y-123588477D01*
X61403824Y-123588477D01*
X61386275Y-123331065D01*
X61329579Y-123057292D01*
X61236253Y-122793746D01*
X61224542Y-122771056D01*
X61109573Y-122548308D01*
X61109570Y-122548302D01*
X61108022Y-122545304D01*
X60947261Y-122316563D01*
X60943500Y-122312515D01*
X60759907Y-122114946D01*
X60756944Y-122111757D01*
X60696439Y-122062234D01*
X60543204Y-121936814D01*
X60540591Y-121934675D01*
X60302208Y-121788594D01*
X60299126Y-121787241D01*
X60049288Y-121677569D01*
X60049284Y-121677567D01*
X60046205Y-121676216D01*
X59996917Y-121662176D01*
X59780571Y-121600548D01*
X59780566Y-121600547D01*
X59777319Y-121599622D01*
X59500526Y-121560229D01*
X59497159Y-121560211D01*
X59497154Y-121560211D01*
X59372187Y-121559557D01*
X59220947Y-121558765D01*
X58943757Y-121595257D01*
X58940506Y-121596146D01*
X58940503Y-121596147D01*
X58849615Y-121621012D01*
X58674083Y-121669032D01*
X58416917Y-121778722D01*
X58177018Y-121922299D01*
X57958823Y-122097106D01*
X57956499Y-122099555D01*
X57769466Y-122296647D01*
X57766371Y-122299908D01*
X57764406Y-122302643D01*
X57764404Y-122302645D01*
X57752421Y-122319322D01*
X57603223Y-122526952D01*
X57472398Y-122774038D01*
X57376317Y-123036592D01*
X57375599Y-123039887D01*
X57341927Y-123194320D01*
X57316757Y-123309757D01*
X57294822Y-123588477D01*
X56317833Y-123588477D01*
X56306473Y-93433079D01*
X60407163Y-93433079D01*
X60416349Y-93441796D01*
X60417847Y-93442463D01*
X60427659Y-93445651D01*
X60607705Y-93483921D01*
X60617968Y-93485000D01*
X60802032Y-93485000D01*
X60812295Y-93483921D01*
X60992341Y-93445651D01*
X61002153Y-93442463D01*
X61004869Y-93441254D01*
X61012616Y-93434279D01*
X61012044Y-93433079D01*
X62907163Y-93433079D01*
X62916349Y-93441796D01*
X62917847Y-93442463D01*
X62927659Y-93445651D01*
X63107705Y-93483921D01*
X63117968Y-93485000D01*
X63302032Y-93485000D01*
X63312295Y-93483921D01*
X63492341Y-93445651D01*
X63502153Y-93442463D01*
X63504869Y-93441254D01*
X63512616Y-93434279D01*
X63512044Y-93433079D01*
X65407163Y-93433079D01*
X65416349Y-93441796D01*
X65417847Y-93442463D01*
X65427659Y-93445651D01*
X65607705Y-93483921D01*
X65617968Y-93485000D01*
X65802032Y-93485000D01*
X65812295Y-93483921D01*
X65992341Y-93445651D01*
X66002153Y-93442463D01*
X66004869Y-93441254D01*
X66012616Y-93434279D01*
X66012044Y-93433079D01*
X67907163Y-93433079D01*
X67916349Y-93441796D01*
X67917847Y-93442463D01*
X67927659Y-93445651D01*
X68107705Y-93483921D01*
X68117968Y-93485000D01*
X68302032Y-93485000D01*
X68312295Y-93483921D01*
X68492341Y-93445651D01*
X68502153Y-93442463D01*
X68504869Y-93441254D01*
X68512616Y-93434279D01*
X68507164Y-93422849D01*
X68221088Y-93136774D01*
X68209202Y-93130718D01*
X68204171Y-93131514D01*
X67911897Y-93423788D01*
X67907163Y-93433079D01*
X66012044Y-93433079D01*
X66007164Y-93422849D01*
X65721088Y-93136774D01*
X65709202Y-93130718D01*
X65704171Y-93131514D01*
X65411897Y-93423788D01*
X65407163Y-93433079D01*
X63512044Y-93433079D01*
X63507164Y-93422849D01*
X63221088Y-93136774D01*
X63209202Y-93130718D01*
X63204171Y-93131514D01*
X62911897Y-93423788D01*
X62907163Y-93433079D01*
X61012044Y-93433079D01*
X61007164Y-93422849D01*
X60721088Y-93136774D01*
X60709202Y-93130718D01*
X60704171Y-93131514D01*
X60411897Y-93423788D01*
X60407163Y-93433079D01*
X56306473Y-93433079D01*
X56306469Y-93422849D01*
X56306146Y-92565157D01*
X59780447Y-92565157D01*
X59799688Y-92748220D01*
X59801832Y-92758310D01*
X59832344Y-92852212D01*
X59839040Y-92861429D01*
X59844736Y-92859578D01*
X60133228Y-92571086D01*
X60138470Y-92560797D01*
X61280718Y-92560797D01*
X61281514Y-92565828D01*
X61571725Y-92856039D01*
X61581873Y-92861210D01*
X61586109Y-92856974D01*
X61618168Y-92758310D01*
X61620312Y-92748220D01*
X61639553Y-92565157D01*
X62280447Y-92565157D01*
X62299688Y-92748220D01*
X62301832Y-92758310D01*
X62332344Y-92852212D01*
X62339040Y-92861429D01*
X62344736Y-92859578D01*
X62633228Y-92571086D01*
X62638470Y-92560797D01*
X63780718Y-92560797D01*
X63781514Y-92565828D01*
X64071725Y-92856039D01*
X64081873Y-92861210D01*
X64086109Y-92856974D01*
X64118168Y-92758310D01*
X64120312Y-92748220D01*
X64139553Y-92565157D01*
X64780447Y-92565157D01*
X64799688Y-92748220D01*
X64801832Y-92758310D01*
X64832344Y-92852212D01*
X64839040Y-92861429D01*
X64844736Y-92859578D01*
X65133228Y-92571086D01*
X65138470Y-92560797D01*
X66280718Y-92560797D01*
X66281514Y-92565828D01*
X66571725Y-92856039D01*
X66581873Y-92861210D01*
X66586109Y-92856974D01*
X66618168Y-92758310D01*
X66620312Y-92748220D01*
X66639553Y-92565157D01*
X67280447Y-92565157D01*
X67299688Y-92748220D01*
X67301832Y-92758310D01*
X67332344Y-92852212D01*
X67339040Y-92861429D01*
X67344736Y-92859578D01*
X67633228Y-92571086D01*
X67638470Y-92560797D01*
X68780718Y-92560797D01*
X68781514Y-92565828D01*
X69071725Y-92856039D01*
X69081873Y-92861210D01*
X69086109Y-92856974D01*
X69118168Y-92758310D01*
X69120312Y-92748220D01*
X69139553Y-92565157D01*
X69139553Y-92554843D01*
X69120312Y-92371780D01*
X69118168Y-92361690D01*
X69087656Y-92267788D01*
X69080960Y-92258571D01*
X69075264Y-92260422D01*
X68786772Y-92548914D01*
X68780718Y-92560797D01*
X67638470Y-92560797D01*
X67639282Y-92559203D01*
X67638486Y-92554172D01*
X67348275Y-92263961D01*
X67338127Y-92258790D01*
X67333891Y-92263026D01*
X67301832Y-92361690D01*
X67299688Y-92371780D01*
X67280447Y-92554843D01*
X67280447Y-92565157D01*
X66639553Y-92565157D01*
X66639553Y-92554843D01*
X66620312Y-92371780D01*
X66618168Y-92361690D01*
X66587656Y-92267788D01*
X66580960Y-92258571D01*
X66575264Y-92260422D01*
X66286772Y-92548914D01*
X66280718Y-92560797D01*
X65138470Y-92560797D01*
X65139282Y-92559203D01*
X65138486Y-92554172D01*
X64848275Y-92263961D01*
X64838127Y-92258790D01*
X64833891Y-92263026D01*
X64801832Y-92361690D01*
X64799688Y-92371780D01*
X64780447Y-92554843D01*
X64780447Y-92565157D01*
X64139553Y-92565157D01*
X64139553Y-92554843D01*
X64120312Y-92371780D01*
X64118168Y-92361690D01*
X64087656Y-92267788D01*
X64080960Y-92258571D01*
X64075264Y-92260422D01*
X63786772Y-92548914D01*
X63780718Y-92560797D01*
X62638470Y-92560797D01*
X62639282Y-92559203D01*
X62638486Y-92554172D01*
X62348275Y-92263961D01*
X62338127Y-92258790D01*
X62333891Y-92263026D01*
X62301832Y-92361690D01*
X62299688Y-92371780D01*
X62280447Y-92554843D01*
X62280447Y-92565157D01*
X61639553Y-92565157D01*
X61639553Y-92554843D01*
X61620312Y-92371780D01*
X61618168Y-92361690D01*
X61587656Y-92267788D01*
X61580960Y-92258571D01*
X61575264Y-92260422D01*
X61286772Y-92548914D01*
X61280718Y-92560797D01*
X60138470Y-92560797D01*
X60139282Y-92559203D01*
X60138486Y-92554172D01*
X59848275Y-92263961D01*
X59838127Y-92258790D01*
X59833891Y-92263026D01*
X59801832Y-92361690D01*
X59799688Y-92371780D01*
X59780447Y-92554843D01*
X59780447Y-92565157D01*
X56306146Y-92565157D01*
X56305815Y-91685721D01*
X60407384Y-91685721D01*
X60412836Y-91697151D01*
X60698912Y-91983226D01*
X60710798Y-91989282D01*
X60715829Y-91988486D01*
X61008103Y-91696212D01*
X61012837Y-91686921D01*
X61011572Y-91685721D01*
X62907384Y-91685721D01*
X62912836Y-91697151D01*
X63198912Y-91983226D01*
X63210798Y-91989282D01*
X63215829Y-91988486D01*
X63508103Y-91696212D01*
X63512837Y-91686921D01*
X63511572Y-91685721D01*
X65407384Y-91685721D01*
X65412836Y-91697151D01*
X65698912Y-91983226D01*
X65710798Y-91989282D01*
X65715829Y-91988486D01*
X66008103Y-91696212D01*
X66012837Y-91686921D01*
X66011572Y-91685721D01*
X67907384Y-91685721D01*
X67912836Y-91697151D01*
X68198912Y-91983226D01*
X68210798Y-91989282D01*
X68215829Y-91988486D01*
X68508103Y-91696212D01*
X68512837Y-91686921D01*
X68503651Y-91678204D01*
X68502153Y-91677537D01*
X68492341Y-91674349D01*
X68312295Y-91636079D01*
X68302032Y-91635000D01*
X68117968Y-91635000D01*
X68107705Y-91636079D01*
X67927659Y-91674349D01*
X67917847Y-91677537D01*
X67915131Y-91678746D01*
X67907384Y-91685721D01*
X66011572Y-91685721D01*
X66003651Y-91678204D01*
X66002153Y-91677537D01*
X65992341Y-91674349D01*
X65812295Y-91636079D01*
X65802032Y-91635000D01*
X65617968Y-91635000D01*
X65607705Y-91636079D01*
X65427659Y-91674349D01*
X65417847Y-91677537D01*
X65415131Y-91678746D01*
X65407384Y-91685721D01*
X63511572Y-91685721D01*
X63503651Y-91678204D01*
X63502153Y-91677537D01*
X63492341Y-91674349D01*
X63312295Y-91636079D01*
X63302032Y-91635000D01*
X63117968Y-91635000D01*
X63107705Y-91636079D01*
X62927659Y-91674349D01*
X62917847Y-91677537D01*
X62915131Y-91678746D01*
X62907384Y-91685721D01*
X61011572Y-91685721D01*
X61003651Y-91678204D01*
X61002153Y-91677537D01*
X60992341Y-91674349D01*
X60812295Y-91636079D01*
X60802032Y-91635000D01*
X60617968Y-91635000D01*
X60607705Y-91636079D01*
X60427659Y-91674349D01*
X60417847Y-91677537D01*
X60415131Y-91678746D01*
X60407384Y-91685721D01*
X56305815Y-91685721D01*
X56305343Y-90433079D01*
X60407163Y-90433079D01*
X60416349Y-90441796D01*
X60417847Y-90442463D01*
X60427659Y-90445651D01*
X60607705Y-90483921D01*
X60617968Y-90485000D01*
X60802032Y-90485000D01*
X60812295Y-90483921D01*
X60992341Y-90445651D01*
X61002153Y-90442463D01*
X61004869Y-90441254D01*
X61012616Y-90434279D01*
X61012044Y-90433079D01*
X62907163Y-90433079D01*
X62916349Y-90441796D01*
X62917847Y-90442463D01*
X62927659Y-90445651D01*
X63107705Y-90483921D01*
X63117968Y-90485000D01*
X63302032Y-90485000D01*
X63312295Y-90483921D01*
X63492341Y-90445651D01*
X63502153Y-90442463D01*
X63504869Y-90441254D01*
X63512616Y-90434279D01*
X63512044Y-90433079D01*
X65407163Y-90433079D01*
X65416349Y-90441796D01*
X65417847Y-90442463D01*
X65427659Y-90445651D01*
X65607705Y-90483921D01*
X65617968Y-90485000D01*
X65802032Y-90485000D01*
X65812295Y-90483921D01*
X65992341Y-90445651D01*
X66002153Y-90442463D01*
X66004869Y-90441254D01*
X66012616Y-90434279D01*
X66012044Y-90433079D01*
X67907163Y-90433079D01*
X67916349Y-90441796D01*
X67917847Y-90442463D01*
X67927659Y-90445651D01*
X68107705Y-90483921D01*
X68117968Y-90485000D01*
X68302032Y-90485000D01*
X68312295Y-90483921D01*
X68492341Y-90445651D01*
X68502153Y-90442463D01*
X68504869Y-90441254D01*
X68512616Y-90434279D01*
X68507164Y-90422849D01*
X68221088Y-90136774D01*
X68209202Y-90130718D01*
X68204171Y-90131514D01*
X67911897Y-90423788D01*
X67907163Y-90433079D01*
X66012044Y-90433079D01*
X66007164Y-90422849D01*
X65721088Y-90136774D01*
X65709202Y-90130718D01*
X65704171Y-90131514D01*
X65411897Y-90423788D01*
X65407163Y-90433079D01*
X63512044Y-90433079D01*
X63507164Y-90422849D01*
X63221088Y-90136774D01*
X63209202Y-90130718D01*
X63204171Y-90131514D01*
X62911897Y-90423788D01*
X62907163Y-90433079D01*
X61012044Y-90433079D01*
X61007164Y-90422849D01*
X60721088Y-90136774D01*
X60709202Y-90130718D01*
X60704171Y-90131514D01*
X60411897Y-90423788D01*
X60407163Y-90433079D01*
X56305343Y-90433079D01*
X56305016Y-89565157D01*
X59780447Y-89565157D01*
X59799688Y-89748220D01*
X59801832Y-89758310D01*
X59832344Y-89852212D01*
X59839040Y-89861429D01*
X59844736Y-89859578D01*
X60133228Y-89571086D01*
X60138470Y-89560797D01*
X61280718Y-89560797D01*
X61281514Y-89565828D01*
X61571725Y-89856039D01*
X61581873Y-89861210D01*
X61586109Y-89856974D01*
X61618168Y-89758310D01*
X61620312Y-89748220D01*
X61639553Y-89565157D01*
X62280447Y-89565157D01*
X62299688Y-89748220D01*
X62301832Y-89758310D01*
X62332344Y-89852212D01*
X62339040Y-89861429D01*
X62344736Y-89859578D01*
X62633228Y-89571086D01*
X62638470Y-89560797D01*
X63780718Y-89560797D01*
X63781514Y-89565828D01*
X64071725Y-89856039D01*
X64081873Y-89861210D01*
X64086109Y-89856974D01*
X64118168Y-89758310D01*
X64120312Y-89748220D01*
X64139553Y-89565157D01*
X64780447Y-89565157D01*
X64799688Y-89748220D01*
X64801832Y-89758310D01*
X64832344Y-89852212D01*
X64839040Y-89861429D01*
X64844736Y-89859578D01*
X65133228Y-89571086D01*
X65138470Y-89560797D01*
X66280718Y-89560797D01*
X66281514Y-89565828D01*
X66571725Y-89856039D01*
X66581873Y-89861210D01*
X66586109Y-89856974D01*
X66618168Y-89758310D01*
X66620312Y-89748220D01*
X66639553Y-89565157D01*
X67280447Y-89565157D01*
X67299688Y-89748220D01*
X67301832Y-89758310D01*
X67332344Y-89852212D01*
X67339040Y-89861429D01*
X67344736Y-89859578D01*
X67633228Y-89571086D01*
X67638470Y-89560797D01*
X68780718Y-89560797D01*
X68781514Y-89565828D01*
X69071725Y-89856039D01*
X69081873Y-89861210D01*
X69086109Y-89856974D01*
X69118168Y-89758310D01*
X69120312Y-89748220D01*
X69139553Y-89565157D01*
X69139553Y-89554843D01*
X69120312Y-89371780D01*
X69118168Y-89361690D01*
X69087656Y-89267788D01*
X69080960Y-89258571D01*
X69075264Y-89260422D01*
X68786772Y-89548914D01*
X68780718Y-89560797D01*
X67638470Y-89560797D01*
X67639282Y-89559203D01*
X67638486Y-89554172D01*
X67348275Y-89263961D01*
X67338127Y-89258790D01*
X67333891Y-89263026D01*
X67301832Y-89361690D01*
X67299688Y-89371780D01*
X67280447Y-89554843D01*
X67280447Y-89565157D01*
X66639553Y-89565157D01*
X66639553Y-89554843D01*
X66620312Y-89371780D01*
X66618168Y-89361690D01*
X66587656Y-89267788D01*
X66580960Y-89258571D01*
X66575264Y-89260422D01*
X66286772Y-89548914D01*
X66280718Y-89560797D01*
X65138470Y-89560797D01*
X65139282Y-89559203D01*
X65138486Y-89554172D01*
X64848275Y-89263961D01*
X64838127Y-89258790D01*
X64833891Y-89263026D01*
X64801832Y-89361690D01*
X64799688Y-89371780D01*
X64780447Y-89554843D01*
X64780447Y-89565157D01*
X64139553Y-89565157D01*
X64139553Y-89554843D01*
X64120312Y-89371780D01*
X64118168Y-89361690D01*
X64087656Y-89267788D01*
X64080960Y-89258571D01*
X64075264Y-89260422D01*
X63786772Y-89548914D01*
X63780718Y-89560797D01*
X62638470Y-89560797D01*
X62639282Y-89559203D01*
X62638486Y-89554172D01*
X62348275Y-89263961D01*
X62338127Y-89258790D01*
X62333891Y-89263026D01*
X62301832Y-89361690D01*
X62299688Y-89371780D01*
X62280447Y-89554843D01*
X62280447Y-89565157D01*
X61639553Y-89565157D01*
X61639553Y-89554843D01*
X61620312Y-89371780D01*
X61618168Y-89361690D01*
X61587656Y-89267788D01*
X61580960Y-89258571D01*
X61575264Y-89260422D01*
X61286772Y-89548914D01*
X61280718Y-89560797D01*
X60138470Y-89560797D01*
X60139282Y-89559203D01*
X60138486Y-89554172D01*
X59848275Y-89263961D01*
X59838127Y-89258790D01*
X59833891Y-89263026D01*
X59801832Y-89361690D01*
X59799688Y-89371780D01*
X59780447Y-89554843D01*
X59780447Y-89565157D01*
X56305016Y-89565157D01*
X56304059Y-87025053D01*
X59280042Y-87025053D01*
X59293535Y-87259071D01*
X59294427Y-87263028D01*
X59315886Y-87358247D01*
X59345069Y-87487743D01*
X59346598Y-87491507D01*
X59346599Y-87491512D01*
X59386673Y-87590202D01*
X59433259Y-87704928D01*
X59435383Y-87708394D01*
X59435385Y-87708398D01*
X59491521Y-87800003D01*
X59555736Y-87904793D01*
X59558395Y-87907863D01*
X59558396Y-87907864D01*
X59629481Y-87989927D01*
X59709212Y-88081971D01*
X59889565Y-88231703D01*
X60091951Y-88349968D01*
X60310935Y-88433590D01*
X60314910Y-88434399D01*
X60314911Y-88434399D01*
X60482901Y-88468577D01*
X60536155Y-88498707D01*
X60561528Y-88554383D01*
X60549329Y-88614340D01*
X60504219Y-88655676D01*
X60483747Y-88662427D01*
X60427659Y-88674349D01*
X60417847Y-88677537D01*
X60415131Y-88678746D01*
X60407384Y-88685721D01*
X60412836Y-88697151D01*
X60698912Y-88983226D01*
X60710798Y-88989282D01*
X60715829Y-88988486D01*
X61008103Y-88696212D01*
X61012837Y-88686921D01*
X61003651Y-88678204D01*
X61002153Y-88677537D01*
X60992341Y-88674348D01*
X60935738Y-88662317D01*
X60882750Y-88631724D01*
X60857863Y-88575828D01*
X60870585Y-88515980D01*
X60916054Y-88475039D01*
X60943742Y-88467282D01*
X61003362Y-88459645D01*
X61003368Y-88459644D01*
X61007394Y-88459128D01*
X61011287Y-88457960D01*
X61011292Y-88457959D01*
X61170542Y-88410181D01*
X61231914Y-88391768D01*
X61342707Y-88337491D01*
X61438771Y-88290430D01*
X61438774Y-88290428D01*
X61442418Y-88288643D01*
X61633253Y-88152522D01*
X61799293Y-87987061D01*
X61873616Y-87883630D01*
X61877960Y-87877585D01*
X61927271Y-87841363D01*
X61988456Y-87841043D01*
X62038143Y-87876747D01*
X62042761Y-87883619D01*
X62055736Y-87904793D01*
X62058395Y-87907863D01*
X62058396Y-87907864D01*
X62129481Y-87989927D01*
X62209212Y-88081971D01*
X62389565Y-88231703D01*
X62591951Y-88349968D01*
X62810935Y-88433590D01*
X62814910Y-88434399D01*
X62814911Y-88434399D01*
X62982901Y-88468577D01*
X63036155Y-88498707D01*
X63061528Y-88554383D01*
X63049329Y-88614340D01*
X63004219Y-88655676D01*
X62983747Y-88662427D01*
X62927659Y-88674349D01*
X62917847Y-88677537D01*
X62915131Y-88678746D01*
X62907384Y-88685721D01*
X62912836Y-88697151D01*
X63198912Y-88983226D01*
X63210798Y-88989282D01*
X63215829Y-88988486D01*
X63508103Y-88696212D01*
X63512837Y-88686921D01*
X63503651Y-88678204D01*
X63502153Y-88677537D01*
X63492341Y-88674348D01*
X63435738Y-88662317D01*
X63382750Y-88631724D01*
X63357863Y-88575828D01*
X63370585Y-88515980D01*
X63416054Y-88475039D01*
X63443742Y-88467282D01*
X63503362Y-88459645D01*
X63503368Y-88459644D01*
X63507394Y-88459128D01*
X63511287Y-88457960D01*
X63511292Y-88457959D01*
X63670542Y-88410181D01*
X63731914Y-88391768D01*
X63842707Y-88337491D01*
X63938771Y-88290430D01*
X63938774Y-88290428D01*
X63942418Y-88288643D01*
X64133253Y-88152522D01*
X64299293Y-87987061D01*
X64373616Y-87883630D01*
X64377960Y-87877585D01*
X64427271Y-87841363D01*
X64488456Y-87841043D01*
X64538143Y-87876747D01*
X64542761Y-87883619D01*
X64555736Y-87904793D01*
X64558395Y-87907863D01*
X64558396Y-87907864D01*
X64629481Y-87989927D01*
X64709212Y-88081971D01*
X64889565Y-88231703D01*
X65091951Y-88349968D01*
X65310935Y-88433590D01*
X65314910Y-88434399D01*
X65314911Y-88434399D01*
X65482901Y-88468577D01*
X65536155Y-88498707D01*
X65561528Y-88554383D01*
X65549329Y-88614340D01*
X65504219Y-88655676D01*
X65483747Y-88662427D01*
X65427659Y-88674349D01*
X65417847Y-88677537D01*
X65415131Y-88678746D01*
X65407384Y-88685721D01*
X65412836Y-88697151D01*
X65698912Y-88983226D01*
X65710798Y-88989282D01*
X65715829Y-88988486D01*
X66008103Y-88696212D01*
X66012837Y-88686921D01*
X66003651Y-88678204D01*
X66002153Y-88677537D01*
X65992341Y-88674348D01*
X65935738Y-88662317D01*
X65882750Y-88631724D01*
X65857863Y-88575828D01*
X65870585Y-88515980D01*
X65916054Y-88475039D01*
X65943742Y-88467282D01*
X66003362Y-88459645D01*
X66003368Y-88459644D01*
X66007394Y-88459128D01*
X66011287Y-88457960D01*
X66011292Y-88457959D01*
X66170542Y-88410181D01*
X66231914Y-88391768D01*
X66342707Y-88337491D01*
X66438771Y-88290430D01*
X66438774Y-88290428D01*
X66442418Y-88288643D01*
X66633253Y-88152522D01*
X66799293Y-87987061D01*
X66873616Y-87883630D01*
X66877960Y-87877585D01*
X66927271Y-87841363D01*
X66988456Y-87841043D01*
X67038143Y-87876747D01*
X67042761Y-87883619D01*
X67055736Y-87904793D01*
X67058395Y-87907863D01*
X67058396Y-87907864D01*
X67129481Y-87989927D01*
X67209212Y-88081971D01*
X67389565Y-88231703D01*
X67591951Y-88349968D01*
X67810935Y-88433590D01*
X67814910Y-88434399D01*
X67814911Y-88434399D01*
X67982901Y-88468577D01*
X68036155Y-88498707D01*
X68061528Y-88554383D01*
X68049329Y-88614340D01*
X68004219Y-88655676D01*
X67983747Y-88662427D01*
X67927659Y-88674349D01*
X67917847Y-88677537D01*
X67915131Y-88678746D01*
X67907384Y-88685721D01*
X67912836Y-88697151D01*
X68198912Y-88983226D01*
X68210798Y-88989282D01*
X68215829Y-88988486D01*
X68508103Y-88696212D01*
X68512837Y-88686921D01*
X68503651Y-88678204D01*
X68502153Y-88677537D01*
X68492341Y-88674348D01*
X68435738Y-88662317D01*
X68382750Y-88631724D01*
X68357863Y-88575828D01*
X68370585Y-88515980D01*
X68416054Y-88475039D01*
X68443742Y-88467282D01*
X68503362Y-88459645D01*
X68503368Y-88459644D01*
X68507394Y-88459128D01*
X68511287Y-88457960D01*
X68511292Y-88457959D01*
X68670542Y-88410181D01*
X68731914Y-88391768D01*
X68842707Y-88337491D01*
X68938771Y-88290430D01*
X68938774Y-88290428D01*
X68942418Y-88288643D01*
X69133253Y-88152522D01*
X69299293Y-87987061D01*
X69373616Y-87883630D01*
X69433708Y-87800003D01*
X69433709Y-87800001D01*
X69436079Y-87796703D01*
X69437877Y-87793065D01*
X69437880Y-87793060D01*
X69538138Y-87590202D01*
X69539938Y-87586560D01*
X69541116Y-87582684D01*
X69541118Y-87582678D01*
X69606901Y-87366160D01*
X69606901Y-87366159D01*
X69608081Y-87362276D01*
X69638677Y-87129874D01*
X69640385Y-87060000D01*
X69621178Y-86826381D01*
X69612536Y-86791973D01*
X69565064Y-86602982D01*
X69564073Y-86599036D01*
X69470603Y-86384070D01*
X69343279Y-86187258D01*
X69185520Y-86013883D01*
X69182334Y-86011367D01*
X69182331Y-86011364D01*
X69004751Y-85871119D01*
X69004745Y-85871115D01*
X69001563Y-85868602D01*
X68796348Y-85755317D01*
X68792517Y-85753960D01*
X68792514Y-85753959D01*
X68579222Y-85678428D01*
X68579218Y-85678427D01*
X68575386Y-85677070D01*
X68472192Y-85658688D01*
X68418220Y-85629870D01*
X68391494Y-85574830D01*
X68402223Y-85514593D01*
X68446310Y-85472167D01*
X68476974Y-85463026D01*
X68503351Y-85459647D01*
X68503364Y-85459644D01*
X68507394Y-85459128D01*
X68511287Y-85457960D01*
X68511292Y-85457959D01*
X68670542Y-85410181D01*
X68731914Y-85391768D01*
X68842707Y-85337491D01*
X68938771Y-85290430D01*
X68938774Y-85290428D01*
X68942418Y-85288643D01*
X69133253Y-85152522D01*
X69299293Y-84987061D01*
X69373616Y-84883630D01*
X69433708Y-84800003D01*
X69433709Y-84800001D01*
X69436079Y-84796703D01*
X69437877Y-84793065D01*
X69437880Y-84793060D01*
X69538138Y-84590202D01*
X69539938Y-84586560D01*
X69541116Y-84582684D01*
X69541118Y-84582678D01*
X69606901Y-84366160D01*
X69606901Y-84366159D01*
X69608081Y-84362276D01*
X69638677Y-84129874D01*
X69640385Y-84060000D01*
X69621178Y-83826381D01*
X69612536Y-83791973D01*
X69565064Y-83602982D01*
X69564073Y-83599036D01*
X69470603Y-83384070D01*
X69343279Y-83187258D01*
X69185520Y-83013883D01*
X69182334Y-83011367D01*
X69182331Y-83011364D01*
X69023774Y-82886143D01*
X68989825Y-82835239D01*
X68992281Y-82774103D01*
X69027642Y-82727854D01*
X69133253Y-82652522D01*
X69299293Y-82487061D01*
X69373616Y-82383630D01*
X69433708Y-82300003D01*
X69433709Y-82300001D01*
X69436079Y-82296703D01*
X69437877Y-82293065D01*
X69437880Y-82293060D01*
X69538138Y-82090202D01*
X69539938Y-82086560D01*
X69541116Y-82082684D01*
X69541118Y-82082678D01*
X69606901Y-81866160D01*
X69606901Y-81866159D01*
X69608081Y-81862276D01*
X69638677Y-81629874D01*
X69640385Y-81560000D01*
X69621178Y-81326381D01*
X69612536Y-81291973D01*
X69565064Y-81102982D01*
X69564073Y-81099036D01*
X69470603Y-80884070D01*
X69343279Y-80687258D01*
X69185520Y-80513883D01*
X69182334Y-80511367D01*
X69182331Y-80511364D01*
X69004751Y-80371119D01*
X69004745Y-80371115D01*
X69001563Y-80368602D01*
X68796348Y-80255317D01*
X68792517Y-80253960D01*
X68792514Y-80253959D01*
X68579222Y-80178428D01*
X68579218Y-80178427D01*
X68575386Y-80177070D01*
X68472192Y-80158688D01*
X68418220Y-80129870D01*
X68391494Y-80074830D01*
X68402223Y-80014593D01*
X68446310Y-79972167D01*
X68476974Y-79963026D01*
X68503351Y-79959647D01*
X68503364Y-79959644D01*
X68507394Y-79959128D01*
X68511287Y-79957960D01*
X68511292Y-79957959D01*
X68670542Y-79910181D01*
X68731914Y-79891768D01*
X68842707Y-79837491D01*
X68938771Y-79790430D01*
X68938774Y-79790428D01*
X68942418Y-79788643D01*
X69133253Y-79652522D01*
X69299293Y-79487061D01*
X69373616Y-79383630D01*
X69433708Y-79300003D01*
X69433709Y-79300001D01*
X69436079Y-79296703D01*
X69437877Y-79293065D01*
X69437880Y-79293060D01*
X69538138Y-79090202D01*
X69539938Y-79086560D01*
X69541116Y-79082684D01*
X69541118Y-79082678D01*
X69606901Y-78866160D01*
X69606901Y-78866159D01*
X69608081Y-78862276D01*
X69638677Y-78629874D01*
X69640385Y-78560000D01*
X69621178Y-78326381D01*
X69612536Y-78291973D01*
X69565064Y-78102982D01*
X69564073Y-78099036D01*
X69470603Y-77884070D01*
X69343279Y-77687258D01*
X69185520Y-77513883D01*
X69182334Y-77511367D01*
X69182331Y-77511364D01*
X69004751Y-77371119D01*
X69004745Y-77371115D01*
X69001563Y-77368602D01*
X68796348Y-77255317D01*
X68792517Y-77253960D01*
X68792514Y-77253959D01*
X68579222Y-77178428D01*
X68579218Y-77178427D01*
X68575386Y-77177070D01*
X68344611Y-77135963D01*
X68340565Y-77135914D01*
X68340559Y-77135913D01*
X68211260Y-77134334D01*
X68110221Y-77133099D01*
X67878511Y-77168556D01*
X67758379Y-77207821D01*
X67659561Y-77240120D01*
X67659557Y-77240121D01*
X67655704Y-77241381D01*
X67652104Y-77243255D01*
X67451387Y-77347741D01*
X67451384Y-77347743D01*
X67447782Y-77349618D01*
X67444540Y-77352053D01*
X67444534Y-77352056D01*
X67419145Y-77371119D01*
X67260330Y-77490361D01*
X67098382Y-77659830D01*
X67096090Y-77663190D01*
X67042312Y-77742025D01*
X66993900Y-77779442D01*
X66932742Y-77781257D01*
X66882197Y-77746777D01*
X66877418Y-77740028D01*
X66843279Y-77687258D01*
X66685520Y-77513883D01*
X66682334Y-77511367D01*
X66682331Y-77511364D01*
X66504751Y-77371119D01*
X66504745Y-77371115D01*
X66501563Y-77368602D01*
X66296348Y-77255317D01*
X66292517Y-77253960D01*
X66292514Y-77253959D01*
X66079222Y-77178428D01*
X66079218Y-77178427D01*
X66075386Y-77177070D01*
X65844611Y-77135963D01*
X65840565Y-77135914D01*
X65840559Y-77135913D01*
X65711260Y-77134334D01*
X65610221Y-77133099D01*
X65378511Y-77168556D01*
X65258379Y-77207821D01*
X65159561Y-77240120D01*
X65159557Y-77240121D01*
X65155704Y-77241381D01*
X65152104Y-77243255D01*
X64951387Y-77347741D01*
X64951384Y-77347743D01*
X64947782Y-77349618D01*
X64944540Y-77352053D01*
X64944534Y-77352056D01*
X64919145Y-77371119D01*
X64760330Y-77490361D01*
X64598382Y-77659830D01*
X64596090Y-77663190D01*
X64542312Y-77742025D01*
X64493900Y-77779442D01*
X64432742Y-77781257D01*
X64382197Y-77746777D01*
X64377418Y-77740028D01*
X64343279Y-77687258D01*
X64185520Y-77513883D01*
X64182334Y-77511367D01*
X64182331Y-77511364D01*
X64004751Y-77371119D01*
X64004745Y-77371115D01*
X64001563Y-77368602D01*
X63796348Y-77255317D01*
X63792517Y-77253960D01*
X63792514Y-77253959D01*
X63579222Y-77178428D01*
X63579218Y-77178427D01*
X63575386Y-77177070D01*
X63344611Y-77135963D01*
X63340565Y-77135914D01*
X63340559Y-77135913D01*
X63211260Y-77134334D01*
X63110221Y-77133099D01*
X62878511Y-77168556D01*
X62758379Y-77207821D01*
X62659561Y-77240120D01*
X62659557Y-77240121D01*
X62655704Y-77241381D01*
X62652104Y-77243255D01*
X62451387Y-77347741D01*
X62451384Y-77347743D01*
X62447782Y-77349618D01*
X62444540Y-77352053D01*
X62444534Y-77352056D01*
X62419145Y-77371119D01*
X62260330Y-77490361D01*
X62098382Y-77659830D01*
X62096090Y-77663190D01*
X62042312Y-77742025D01*
X61993900Y-77779442D01*
X61932742Y-77781257D01*
X61882197Y-77746777D01*
X61877418Y-77740028D01*
X61843279Y-77687258D01*
X61685520Y-77513883D01*
X61682334Y-77511367D01*
X61682331Y-77511364D01*
X61504751Y-77371119D01*
X61504745Y-77371115D01*
X61501563Y-77368602D01*
X61296348Y-77255317D01*
X61292517Y-77253960D01*
X61292514Y-77253959D01*
X61079222Y-77178428D01*
X61079218Y-77178427D01*
X61075386Y-77177070D01*
X60844611Y-77135963D01*
X60840565Y-77135914D01*
X60840559Y-77135913D01*
X60711260Y-77134334D01*
X60610221Y-77133099D01*
X60378511Y-77168556D01*
X60258379Y-77207821D01*
X60159561Y-77240120D01*
X60159557Y-77240121D01*
X60155704Y-77241381D01*
X60152104Y-77243255D01*
X59951387Y-77347741D01*
X59951384Y-77347743D01*
X59947782Y-77349618D01*
X59944540Y-77352053D01*
X59944534Y-77352056D01*
X59919145Y-77371119D01*
X59760330Y-77490361D01*
X59598382Y-77659830D01*
X59466287Y-77853473D01*
X59367594Y-78066091D01*
X59304951Y-78291973D01*
X59280042Y-78525053D01*
X59293535Y-78759071D01*
X59294427Y-78763028D01*
X59315886Y-78858247D01*
X59345069Y-78987743D01*
X59346598Y-78991507D01*
X59346599Y-78991512D01*
X59386673Y-79090202D01*
X59433259Y-79204928D01*
X59435383Y-79208394D01*
X59435385Y-79208398D01*
X59491521Y-79300003D01*
X59555736Y-79404793D01*
X59558395Y-79407863D01*
X59558396Y-79407864D01*
X59629481Y-79489927D01*
X59709212Y-79581971D01*
X59889565Y-79731703D01*
X60091951Y-79849968D01*
X60310935Y-79933590D01*
X60454457Y-79962790D01*
X60507709Y-79992918D01*
X60533083Y-80048594D01*
X60520884Y-80108552D01*
X60475774Y-80149888D01*
X60449694Y-80157663D01*
X60402923Y-80164820D01*
X60378511Y-80168556D01*
X60258379Y-80207821D01*
X60159561Y-80240120D01*
X60159557Y-80240121D01*
X60155704Y-80241381D01*
X60152104Y-80243255D01*
X59951387Y-80347741D01*
X59951384Y-80347743D01*
X59947782Y-80349618D01*
X59944540Y-80352053D01*
X59944534Y-80352056D01*
X59919145Y-80371119D01*
X59760330Y-80490361D01*
X59598382Y-80659830D01*
X59466287Y-80853473D01*
X59367594Y-81066091D01*
X59304951Y-81291973D01*
X59280042Y-81525053D01*
X59293535Y-81759071D01*
X59294427Y-81763028D01*
X59315886Y-81858247D01*
X59345069Y-81987743D01*
X59346598Y-81991507D01*
X59346599Y-81991512D01*
X59386673Y-82090202D01*
X59433259Y-82204928D01*
X59435383Y-82208394D01*
X59435385Y-82208398D01*
X59491521Y-82300003D01*
X59555736Y-82404793D01*
X59558395Y-82407863D01*
X59558396Y-82407864D01*
X59629481Y-82489927D01*
X59709212Y-82581971D01*
X59889565Y-82731703D01*
X59889976Y-82731943D01*
X59926228Y-82780046D01*
X59927299Y-82841222D01*
X59892065Y-82891451D01*
X59763576Y-82987923D01*
X59763570Y-82987928D01*
X59760330Y-82990361D01*
X59598382Y-83159830D01*
X59466287Y-83353473D01*
X59367594Y-83566091D01*
X59304951Y-83791973D01*
X59280042Y-84025053D01*
X59293535Y-84259071D01*
X59294427Y-84263028D01*
X59315886Y-84358247D01*
X59345069Y-84487743D01*
X59346598Y-84491507D01*
X59346599Y-84491512D01*
X59386673Y-84590202D01*
X59433259Y-84704928D01*
X59435383Y-84708394D01*
X59435385Y-84708398D01*
X59491521Y-84800003D01*
X59555736Y-84904793D01*
X59558395Y-84907863D01*
X59558396Y-84907864D01*
X59629481Y-84989927D01*
X59709212Y-85081971D01*
X59889565Y-85231703D01*
X60091951Y-85349968D01*
X60310935Y-85433590D01*
X60454457Y-85462790D01*
X60507709Y-85492918D01*
X60533083Y-85548594D01*
X60520884Y-85608552D01*
X60475774Y-85649888D01*
X60449694Y-85657663D01*
X60402923Y-85664820D01*
X60378511Y-85668556D01*
X60258379Y-85707821D01*
X60159561Y-85740120D01*
X60159557Y-85740121D01*
X60155704Y-85741381D01*
X60152104Y-85743255D01*
X59951387Y-85847741D01*
X59951384Y-85847743D01*
X59947782Y-85849618D01*
X59944540Y-85852053D01*
X59944534Y-85852056D01*
X59919145Y-85871119D01*
X59760330Y-85990361D01*
X59598382Y-86159830D01*
X59466287Y-86353473D01*
X59367594Y-86566091D01*
X59304951Y-86791973D01*
X59280042Y-87025053D01*
X56304059Y-87025053D01*
X56300037Y-76349036D01*
X56318922Y-76290839D01*
X56368409Y-76254857D01*
X56399037Y-76250000D01*
X72301260Y-76250000D01*
X72359451Y-76268907D01*
G37*
%TD.AperFunction*%
%TD*%
M02*
