%TF.GenerationSoftware,KiCad,Pcbnew,(6.0.1-0)*%
%TF.CreationDate,2023-01-20T10:28:08-08:00*%
%TF.ProjectId,ESC Mother,45534320-4d6f-4746-9865-722e6b696361,rev?*%
%TF.SameCoordinates,Original*%
%TF.FileFunction,Soldermask,Top*%
%TF.FilePolarity,Negative*%
%FSLAX46Y46*%
G04 Gerber Fmt 4.6, Leading zero omitted, Abs format (unit mm)*
G04 Created by KiCad (PCBNEW (6.0.1-0)) date 2023-01-20 10:28:08*
%MOMM*%
%LPD*%
G01*
G04 APERTURE LIST*
G04 Aperture macros list*
%AMRoundRect*
0 Rectangle with rounded corners*
0 $1 Rounding radius*
0 $2 $3 $4 $5 $6 $7 $8 $9 X,Y pos of 4 corners*
0 Add a 4 corners polygon primitive as box body*
4,1,4,$2,$3,$4,$5,$6,$7,$8,$9,$2,$3,0*
0 Add four circle primitives for the rounded corners*
1,1,$1+$1,$2,$3*
1,1,$1+$1,$4,$5*
1,1,$1+$1,$6,$7*
1,1,$1+$1,$8,$9*
0 Add four rect primitives between the rounded corners*
20,1,$1+$1,$2,$3,$4,$5,0*
20,1,$1+$1,$4,$5,$6,$7,0*
20,1,$1+$1,$6,$7,$8,$9,0*
20,1,$1+$1,$8,$9,$2,$3,0*%
G04 Aperture macros list end*
%ADD10R,2.500000X2.500000*%
%ADD11C,2.500000*%
%ADD12C,4.300000*%
%ADD13R,0.930000X0.930000*%
%ADD14C,0.930000*%
%ADD15C,1.250000*%
%ADD16RoundRect,0.150000X-0.700000X0.150000X-0.700000X-0.150000X0.700000X-0.150000X0.700000X0.150000X0*%
%ADD17RoundRect,0.250000X-1.100000X0.250000X-1.100000X-0.250000X1.100000X-0.250000X1.100000X0.250000X0*%
%ADD18RoundRect,0.150000X0.700000X-0.150000X0.700000X0.150000X-0.700000X0.150000X-0.700000X-0.150000X0*%
%ADD19RoundRect,0.250000X1.100000X-0.250000X1.100000X0.250000X-1.100000X0.250000X-1.100000X-0.250000X0*%
G04 APERTURE END LIST*
D10*
%TO.C,+*%
X184850000Y-48600000D03*
D11*
X184850000Y-53680000D03*
%TD*%
D12*
%TO.C,H4*%
X184430000Y-33020000D03*
%TD*%
%TO.C,H2*%
X34430000Y-33070000D03*
%TD*%
D10*
%TO.C,T3*%
X99675000Y-123590000D03*
D11*
X94595000Y-123590000D03*
X89515000Y-123590000D03*
%TD*%
D10*
%TO.C,T4*%
X69510000Y-123610000D03*
D11*
X64430000Y-123610000D03*
X59350000Y-123610000D03*
%TD*%
D10*
%TO.C,T1*%
X159810000Y-123540000D03*
D11*
X154730000Y-123540000D03*
X149650000Y-123540000D03*
%TD*%
D13*
%TO.C,J4*%
X68190000Y-71630000D03*
D14*
X68190000Y-73630000D03*
X66540000Y-71630000D03*
X66540000Y-73630000D03*
X64890000Y-71630000D03*
X64890000Y-73630000D03*
X63240000Y-71630000D03*
X63240000Y-73630000D03*
X61590000Y-71630000D03*
X61590000Y-73630000D03*
D15*
X68210000Y-57840000D03*
X65710000Y-57840000D03*
X63210000Y-57840000D03*
X60710000Y-57840000D03*
X68210000Y-60840000D03*
X65710000Y-60840000D03*
X63210000Y-60840000D03*
X60710000Y-60840000D03*
X68210000Y-63340000D03*
X65710000Y-63340000D03*
X63210000Y-63340000D03*
X60710000Y-63340000D03*
X68210000Y-66340000D03*
X65710000Y-66340000D03*
X63210000Y-66340000D03*
X60710000Y-66340000D03*
X68210000Y-78560000D03*
X65710000Y-78560000D03*
X63210000Y-78560000D03*
X60710000Y-78560000D03*
X68210000Y-81560000D03*
X65710000Y-81560000D03*
X63210000Y-81560000D03*
X60710000Y-81560000D03*
X68210000Y-84060000D03*
X65710000Y-84060000D03*
X63210000Y-84060000D03*
X60710000Y-84060000D03*
X68210000Y-87060000D03*
X65710000Y-87060000D03*
X63210000Y-87060000D03*
X60710000Y-87060000D03*
X68210000Y-89560000D03*
X65710000Y-89560000D03*
X63210000Y-89560000D03*
X60710000Y-89560000D03*
X68210000Y-92560000D03*
X65710000Y-92560000D03*
X63210000Y-92560000D03*
X60710000Y-92560000D03*
%TD*%
D12*
%TO.C,H3*%
X34460000Y-123080000D03*
%TD*%
D13*
%TO.C,J2*%
X128380000Y-71650000D03*
D14*
X128380000Y-73650000D03*
X126730000Y-71650000D03*
X126730000Y-73650000D03*
X125080000Y-71650000D03*
X125080000Y-73650000D03*
X123430000Y-71650000D03*
X123430000Y-73650000D03*
X121780000Y-71650000D03*
X121780000Y-73650000D03*
D15*
X128400000Y-57860000D03*
X125900000Y-57860000D03*
X123400000Y-57860000D03*
X120900000Y-57860000D03*
X128400000Y-60860000D03*
X125900000Y-60860000D03*
X123400000Y-60860000D03*
X120900000Y-60860000D03*
X128400000Y-63360000D03*
X125900000Y-63360000D03*
X123400000Y-63360000D03*
X120900000Y-63360000D03*
X128400000Y-66360000D03*
X125900000Y-66360000D03*
X123400000Y-66360000D03*
X120900000Y-66360000D03*
X128400000Y-78580000D03*
X125900000Y-78580000D03*
X123400000Y-78580000D03*
X120900000Y-78580000D03*
X128400000Y-81580000D03*
X125900000Y-81580000D03*
X123400000Y-81580000D03*
X120900000Y-81580000D03*
X128400000Y-84080000D03*
X125900000Y-84080000D03*
X123400000Y-84080000D03*
X120900000Y-84080000D03*
X128400000Y-87080000D03*
X125900000Y-87080000D03*
X123400000Y-87080000D03*
X120900000Y-87080000D03*
X128400000Y-89580000D03*
X125900000Y-89580000D03*
X123400000Y-89580000D03*
X120900000Y-89580000D03*
X128400000Y-92580000D03*
X125900000Y-92580000D03*
X123400000Y-92580000D03*
X120900000Y-92580000D03*
%TD*%
D13*
%TO.C,J3*%
X98300000Y-71650000D03*
D14*
X98300000Y-73650000D03*
X96650000Y-71650000D03*
X96650000Y-73650000D03*
X95000000Y-71650000D03*
X95000000Y-73650000D03*
X93350000Y-71650000D03*
X93350000Y-73650000D03*
X91700000Y-71650000D03*
X91700000Y-73650000D03*
D15*
X98320000Y-57860000D03*
X95820000Y-57860000D03*
X93320000Y-57860000D03*
X90820000Y-57860000D03*
X98320000Y-60860000D03*
X95820000Y-60860000D03*
X93320000Y-60860000D03*
X90820000Y-60860000D03*
X98320000Y-63360000D03*
X95820000Y-63360000D03*
X93320000Y-63360000D03*
X90820000Y-63360000D03*
X98320000Y-66360000D03*
X95820000Y-66360000D03*
X93320000Y-66360000D03*
X90820000Y-66360000D03*
X98320000Y-78580000D03*
X95820000Y-78580000D03*
X93320000Y-78580000D03*
X90820000Y-78580000D03*
X98320000Y-81580000D03*
X95820000Y-81580000D03*
X93320000Y-81580000D03*
X90820000Y-81580000D03*
X98320000Y-84080000D03*
X95820000Y-84080000D03*
X93320000Y-84080000D03*
X90820000Y-84080000D03*
X98320000Y-87080000D03*
X95820000Y-87080000D03*
X93320000Y-87080000D03*
X90820000Y-87080000D03*
X98320000Y-89580000D03*
X95820000Y-89580000D03*
X93320000Y-89580000D03*
X90820000Y-89580000D03*
X98320000Y-92580000D03*
X95820000Y-92580000D03*
X93320000Y-92580000D03*
X90820000Y-92580000D03*
%TD*%
D12*
%TO.C,H1*%
X184450000Y-123030000D03*
%TD*%
D10*
%TO.C,T2*%
X129725000Y-123570000D03*
D11*
X124645000Y-123570000D03*
X119565000Y-123570000D03*
%TD*%
D16*
%TO.C,CAN*%
X32960000Y-81055000D03*
X32960000Y-82305000D03*
X32960000Y-83555000D03*
X32960000Y-84805000D03*
D17*
X29760000Y-79205000D03*
X29760000Y-86655000D03*
%TD*%
D13*
%TO.C,J1*%
X158450000Y-71650000D03*
D14*
X158450000Y-73650000D03*
X156800000Y-71650000D03*
X156800000Y-73650000D03*
X155150000Y-71650000D03*
X155150000Y-73650000D03*
X153500000Y-71650000D03*
X153500000Y-73650000D03*
X151850000Y-71650000D03*
X151850000Y-73650000D03*
D15*
X158470000Y-57860000D03*
X155970000Y-57860000D03*
X153470000Y-57860000D03*
X150970000Y-57860000D03*
X158470000Y-60860000D03*
X155970000Y-60860000D03*
X153470000Y-60860000D03*
X150970000Y-60860000D03*
X158470000Y-63360000D03*
X155970000Y-63360000D03*
X153470000Y-63360000D03*
X150970000Y-63360000D03*
X158470000Y-66360000D03*
X155970000Y-66360000D03*
X153470000Y-66360000D03*
X150970000Y-66360000D03*
X158470000Y-78580000D03*
X155970000Y-78580000D03*
X153470000Y-78580000D03*
X150970000Y-78580000D03*
X158470000Y-81580000D03*
X155970000Y-81580000D03*
X153470000Y-81580000D03*
X150970000Y-81580000D03*
X158470000Y-84080000D03*
X155970000Y-84080000D03*
X153470000Y-84080000D03*
X150970000Y-84080000D03*
X158470000Y-87080000D03*
X155970000Y-87080000D03*
X153470000Y-87080000D03*
X150970000Y-87080000D03*
X158470000Y-89580000D03*
X155970000Y-89580000D03*
X153470000Y-89580000D03*
X150970000Y-89580000D03*
X158470000Y-92580000D03*
X155970000Y-92580000D03*
X153470000Y-92580000D03*
X150970000Y-92580000D03*
%TD*%
D10*
%TO.C,-*%
X34025000Y-53695000D03*
D11*
X34025000Y-48615000D03*
%TD*%
D18*
%TO.C,CAN*%
X185880000Y-84555000D03*
X185880000Y-83305000D03*
X185880000Y-82055000D03*
X185880000Y-80805000D03*
D19*
X189080000Y-86405000D03*
X189080000Y-78955000D03*
%TD*%
M02*
