M48
; DRILL file {KiCad (6.0.1-0)} date Friday, January 20, 2023 at 10:28:04 AM
; FORMAT={-:-/ absolute / metric / decimal}
; #@! TF.CreationDate,2023-01-20T10:28:04-08:00
; #@! TF.GenerationSoftware,Kicad,Pcbnew,(6.0.1-0)
; #@! TF.FileFunction,MixedPlating,1,6
FMAT,2
METRIC
; #@! TA.AperFunction,Plated,PTH,ViaDrill
T1C0.400
; #@! TA.AperFunction,Plated,PTH,ComponentDrill
T2C0.700
; #@! TA.AperFunction,Plated,PTH,ComponentDrill
T3C1.020
; #@! TA.AperFunction,Plated,PTH,ComponentDrill
T4C1.300
; #@! TA.AperFunction,NonPlated,NPTH,ComponentDrill
T5C4.300
%
G90
G05
T1
X34.85Y-82.3
X34.85Y-83.56
X35.24Y-80.34
X35.24Y-85.49
X183.95Y-80.3
X183.95Y-85.03
T2
X61.59Y-71.63
X61.59Y-73.63
X63.24Y-71.63
X63.24Y-73.63
X64.89Y-71.63
X64.89Y-73.63
X66.54Y-71.63
X66.54Y-73.63
X68.19Y-71.63
X68.19Y-73.63
X91.7Y-71.65
X91.7Y-73.65
X93.35Y-71.65
X93.35Y-73.65
X95.0Y-71.65
X95.0Y-73.65
X96.65Y-71.65
X96.65Y-73.65
X98.3Y-71.65
X98.3Y-73.65
X121.78Y-71.65
X121.78Y-73.65
X123.43Y-71.65
X123.43Y-73.65
X125.08Y-71.65
X125.08Y-73.65
X126.73Y-71.65
X126.73Y-73.65
X128.38Y-71.65
X128.38Y-73.65
X151.85Y-71.65
X151.85Y-73.65
X153.5Y-71.65
X153.5Y-73.65
X155.15Y-71.65
X155.15Y-73.65
X156.8Y-71.65
X156.8Y-73.65
X158.45Y-71.65
X158.45Y-73.65
T3
X60.71Y-57.84
X60.71Y-60.84
X60.71Y-63.34
X60.71Y-66.34
X60.71Y-78.56
X60.71Y-81.56
X60.71Y-84.06
X60.71Y-87.06
X60.71Y-89.56
X60.71Y-92.56
X63.21Y-57.84
X63.21Y-60.84
X63.21Y-63.34
X63.21Y-66.34
X63.21Y-78.56
X63.21Y-81.56
X63.21Y-84.06
X63.21Y-87.06
X63.21Y-89.56
X63.21Y-92.56
X65.71Y-57.84
X65.71Y-60.84
X65.71Y-63.34
X65.71Y-66.34
X65.71Y-78.56
X65.71Y-81.56
X65.71Y-84.06
X65.71Y-87.06
X65.71Y-89.56
X65.71Y-92.56
X68.21Y-57.84
X68.21Y-60.84
X68.21Y-63.34
X68.21Y-66.34
X68.21Y-78.56
X68.21Y-81.56
X68.21Y-84.06
X68.21Y-87.06
X68.21Y-89.56
X68.21Y-92.56
X90.82Y-57.86
X90.82Y-60.86
X90.82Y-63.36
X90.82Y-66.36
X90.82Y-78.58
X90.82Y-81.58
X90.82Y-84.08
X90.82Y-87.08
X90.82Y-89.58
X90.82Y-92.58
X93.32Y-57.86
X93.32Y-60.86
X93.32Y-63.36
X93.32Y-66.36
X93.32Y-78.58
X93.32Y-81.58
X93.32Y-84.08
X93.32Y-87.08
X93.32Y-89.58
X93.32Y-92.58
X95.82Y-57.86
X95.82Y-60.86
X95.82Y-63.36
X95.82Y-66.36
X95.82Y-78.58
X95.82Y-81.58
X95.82Y-84.08
X95.82Y-87.08
X95.82Y-89.58
X95.82Y-92.58
X98.32Y-57.86
X98.32Y-60.86
X98.32Y-63.36
X98.32Y-66.36
X98.32Y-78.58
X98.32Y-81.58
X98.32Y-84.08
X98.32Y-87.08
X98.32Y-89.58
X98.32Y-92.58
X120.9Y-57.86
X120.9Y-60.86
X120.9Y-63.36
X120.9Y-66.36
X120.9Y-78.58
X120.9Y-81.58
X120.9Y-84.08
X120.9Y-87.08
X120.9Y-89.58
X120.9Y-92.58
X123.4Y-57.86
X123.4Y-60.86
X123.4Y-63.36
X123.4Y-66.36
X123.4Y-78.58
X123.4Y-81.58
X123.4Y-84.08
X123.4Y-87.08
X123.4Y-89.58
X123.4Y-92.58
X125.9Y-57.86
X125.9Y-60.86
X125.9Y-63.36
X125.9Y-66.36
X125.9Y-78.58
X125.9Y-81.58
X125.9Y-84.08
X125.9Y-87.08
X125.9Y-89.58
X125.9Y-92.58
X128.4Y-57.86
X128.4Y-60.86
X128.4Y-63.36
X128.4Y-66.36
X128.4Y-78.58
X128.4Y-81.58
X128.4Y-84.08
X128.4Y-87.08
X128.4Y-89.58
X128.4Y-92.58
X150.97Y-57.86
X150.97Y-60.86
X150.97Y-63.36
X150.97Y-66.36
X150.97Y-78.58
X150.97Y-81.58
X150.97Y-84.08
X150.97Y-87.08
X150.97Y-89.58
X150.97Y-92.58
X153.47Y-57.86
X153.47Y-60.86
X153.47Y-63.36
X153.47Y-66.36
X153.47Y-78.58
X153.47Y-81.58
X153.47Y-84.08
X153.47Y-87.08
X153.47Y-89.58
X153.47Y-92.58
X155.97Y-57.86
X155.97Y-60.86
X155.97Y-63.36
X155.97Y-66.36
X155.97Y-78.58
X155.97Y-81.58
X155.97Y-84.08
X155.97Y-87.08
X155.97Y-89.58
X155.97Y-92.58
X158.47Y-57.86
X158.47Y-60.86
X158.47Y-63.36
X158.47Y-66.36
X158.47Y-78.58
X158.47Y-81.58
X158.47Y-84.08
X158.47Y-87.08
X158.47Y-89.58
X158.47Y-92.58
T4
X34.025Y-48.615
X34.025Y-53.695
X59.35Y-123.61
X64.43Y-123.61
X69.51Y-123.61
X89.515Y-123.59
X94.595Y-123.59
X99.675Y-123.59
X119.565Y-123.57
X124.645Y-123.57
X129.725Y-123.57
X149.65Y-123.54
X154.73Y-123.54
X159.81Y-123.54
X184.85Y-48.6
X184.85Y-53.68
T5
X34.43Y-33.07
X34.46Y-123.08
X184.43Y-33.02
X184.45Y-123.03
T0
M30
