M48
; DRILL file {KiCad (6.0.7)} date Fri Dec 23 20:25:55 2022
; FORMAT={-:-/ absolute / metric / decimal}
; #@! TF.CreationDate,2022-12-23T20:25:55-08:00
; #@! TF.GenerationSoftware,Kicad,Pcbnew,(6.0.7)
; #@! TF.FileFunction,MixedPlating,1,2
FMAT,2
METRIC
; #@! TA.AperFunction,Plated,PTH,ViaDrill
T1C0.400
; #@! TA.AperFunction,Plated,PTH,ComponentDrill
T2C1.000
; #@! TA.AperFunction,Plated,PTH,ComponentDrill
T3C1.100
; #@! TA.AperFunction,NonPlated,NPTH,ComponentDrill
T4C3.200
%
G90
G05
T1
X100.1Y-53.7
X106.045Y-99.822
X108.077Y-62.738
X108.077Y-67.818
X108.077Y-72.898
X108.077Y-77.978
X108.077Y-83.058
X108.077Y-88.138
X108.077Y-93.218
X135.6Y-55.3
X141.478Y-99.187
X144.7Y-56.1
X146.304Y-71.755
X146.304Y-79.375
X146.431Y-87.63
X153.289Y-58.674
X163.449Y-73.406
X166.497Y-93.218
T2
X117.8Y-55.35
X117.8Y-57.89
X117.8Y-60.43
X117.8Y-62.97
X117.8Y-65.51
X117.8Y-68.05
X117.8Y-70.59
X117.8Y-73.13
X117.8Y-75.67
X117.8Y-78.21
X117.8Y-80.75
X117.8Y-83.29
X117.8Y-85.83
X117.8Y-88.37
X117.8Y-90.91
X117.8Y-93.45
X117.8Y-95.99
X117.8Y-98.53
X117.8Y-101.07
X117.8Y-103.61
X133.04Y-55.35
X133.04Y-57.89
X133.04Y-60.43
X133.04Y-62.97
X133.04Y-65.51
X133.04Y-68.05
X133.04Y-70.59
X133.04Y-73.13
X133.04Y-75.67
X133.04Y-78.21
X133.04Y-80.75
X133.04Y-83.29
X133.04Y-85.83
X133.04Y-88.37
X133.04Y-90.91
X133.04Y-93.45
X133.04Y-95.99
X133.04Y-98.53
X133.04Y-101.07
X133.04Y-103.61
X142.025Y-53.0
X142.025Y-55.54
X142.025Y-58.08
X142.025Y-60.62
T3
X100.075Y-56.15
X100.075Y-61.23
X100.075Y-66.31
X100.075Y-71.39
X100.075Y-76.47
X100.075Y-81.55
X100.075Y-86.63
X100.075Y-91.71
X100.075Y-96.79
X100.075Y-101.87
X141.478Y-102.108
X146.558Y-102.108
X151.638Y-102.108
X166.449Y-63.241
X166.449Y-68.321
X166.449Y-73.401
X166.449Y-80.386
X166.449Y-85.466
X166.449Y-90.546
T4
X108.712Y-54.61
X108.712Y-104.61
X168.712Y-54.61
X168.712Y-104.61
T0
M30
