%TF.GenerationSoftware,KiCad,Pcbnew,(6.0.7)*%
%TF.CreationDate,2022-12-23T20:26:00-08:00*%
%TF.ProjectId,SensorStackBoardBluePill,53656e73-6f72-4537-9461-636b426f6172,rev?*%
%TF.SameCoordinates,Original*%
%TF.FileFunction,Soldermask,Bot*%
%TF.FilePolarity,Negative*%
%FSLAX46Y46*%
G04 Gerber Fmt 4.6, Leading zero omitted, Abs format (unit mm)*
G04 Created by KiCad (PCBNEW (6.0.7)) date 2022-12-23 20:26:00*
%MOMM*%
%LPD*%
G01*
G04 APERTURE LIST*
%ADD10C,3.200000*%
%ADD11R,1.700000X1.700000*%
%ADD12C,1.700000*%
%ADD13R,2.100000X2.100000*%
%ADD14C,2.100000*%
%ADD15O,1.700000X1.700000*%
G04 APERTURE END LIST*
D10*
%TO.C,H1*%
X108712000Y-54610000D03*
%TD*%
D11*
%TO.C,U1*%
X133040000Y-103610000D03*
D12*
X133040000Y-101070000D03*
X133040000Y-98530000D03*
X133040000Y-95990000D03*
X133040000Y-93450000D03*
X133040000Y-90910000D03*
X133040000Y-88370000D03*
X133040000Y-85830000D03*
X133040000Y-83290000D03*
X133040000Y-80750000D03*
X133040000Y-78210000D03*
X133040000Y-75670000D03*
X133040000Y-73130000D03*
X133040000Y-70590000D03*
X133040000Y-68050000D03*
X133040000Y-65510000D03*
X133040000Y-62970000D03*
X133040000Y-60430000D03*
X133040000Y-57890000D03*
X133040000Y-55350000D03*
X117800000Y-55350000D03*
X117800000Y-57890000D03*
X117800000Y-60430000D03*
X117800000Y-62970000D03*
X117800000Y-65510000D03*
X117800000Y-68050000D03*
X117800000Y-70590000D03*
X117800000Y-73130000D03*
X117800000Y-75670000D03*
X117800000Y-78210000D03*
X117800000Y-80750000D03*
X117800000Y-83290000D03*
X117800000Y-85830000D03*
X117800000Y-88370000D03*
X117800000Y-90910000D03*
X117800000Y-93450000D03*
X117800000Y-95990000D03*
X117800000Y-98530000D03*
X117800000Y-101070000D03*
X117800000Y-103610000D03*
%TD*%
D13*
%TO.C,J1*%
X100075000Y-101870000D03*
D14*
X100075000Y-96790000D03*
X100075000Y-91710000D03*
X100075000Y-86630000D03*
X100075000Y-81550000D03*
X100075000Y-76470000D03*
X100075000Y-71390000D03*
X100075000Y-66310000D03*
X100075000Y-61230000D03*
X100075000Y-56150000D03*
%TD*%
D10*
%TO.C,H3*%
X168712000Y-104610000D03*
%TD*%
%TO.C,H4*%
X108712000Y-104610000D03*
%TD*%
%TO.C,H2*%
X168712000Y-54610000D03*
%TD*%
D11*
%TO.C,J2*%
X142025000Y-53000000D03*
D15*
X142025000Y-55540000D03*
X142025000Y-58080000D03*
X142025000Y-60620000D03*
%TD*%
D13*
%TO.C,J3*%
X166449000Y-63241000D03*
D14*
X166449000Y-68321000D03*
X166449000Y-73401000D03*
%TD*%
D13*
%TO.C,J5*%
X151638000Y-102108000D03*
D14*
X146558000Y-102108000D03*
X141478000Y-102108000D03*
%TD*%
D13*
%TO.C,J4*%
X166449000Y-80386000D03*
D14*
X166449000Y-85466000D03*
X166449000Y-90546000D03*
%TD*%
M02*
