%TF.GenerationSoftware,KiCad,Pcbnew,(6.0.7)*%
%TF.CreationDate,2022-12-23T20:25:59-08:00*%
%TF.ProjectId,SensorStackBoardBluePill,53656e73-6f72-4537-9461-636b426f6172,rev?*%
%TF.SameCoordinates,Original*%
%TF.FileFunction,Copper,L2,Bot*%
%TF.FilePolarity,Positive*%
%FSLAX46Y46*%
G04 Gerber Fmt 4.6, Leading zero omitted, Abs format (unit mm)*
G04 Created by KiCad (PCBNEW (6.0.7)) date 2022-12-23 20:25:59*
%MOMM*%
%LPD*%
G01*
G04 APERTURE LIST*
%TA.AperFunction,ComponentPad*%
%ADD10R,1.700000X1.700000*%
%TD*%
%TA.AperFunction,ComponentPad*%
%ADD11C,1.700000*%
%TD*%
%TA.AperFunction,ComponentPad*%
%ADD12R,2.100000X2.100000*%
%TD*%
%TA.AperFunction,ComponentPad*%
%ADD13C,2.100000*%
%TD*%
%TA.AperFunction,ComponentPad*%
%ADD14O,1.700000X1.700000*%
%TD*%
%TA.AperFunction,ViaPad*%
%ADD15C,0.800000*%
%TD*%
G04 APERTURE END LIST*
D10*
%TO.P,U1,1,PB12*%
%TO.N,unconnected-(U1-Pad1)*%
X133040000Y-103610000D03*
D11*
%TO.P,U1,2,PB13*%
%TO.N,unconnected-(U1-Pad2)*%
X133040000Y-101070000D03*
%TO.P,U1,3,PB14*%
%TO.N,unconnected-(U1-Pad3)*%
X133040000Y-98530000D03*
%TO.P,U1,4,PB15*%
%TO.N,unconnected-(U1-Pad4)*%
X133040000Y-95990000D03*
%TO.P,U1,5,PA8*%
%TO.N,/PB3*%
X133040000Y-93450000D03*
%TO.P,U1,6,PA9*%
%TO.N,/PB4*%
X133040000Y-90910000D03*
%TO.P,U1,7,PA10*%
%TO.N,/PB5*%
X133040000Y-88370000D03*
%TO.P,U1,8,PA11*%
%TO.N,unconnected-(U1-Pad8)*%
X133040000Y-85830000D03*
%TO.P,U1,9,PA12*%
%TO.N,unconnected-(U1-Pad9)*%
X133040000Y-83290000D03*
%TO.P,U1,10,PA15*%
%TO.N,unconnected-(U1-Pad10)*%
X133040000Y-80750000D03*
%TO.P,U1,11,PB3*%
%TO.N,unconnected-(U1-Pad11)*%
X133040000Y-78210000D03*
%TO.P,U1,12,PB4*%
%TO.N,unconnected-(U1-Pad12)*%
X133040000Y-75670000D03*
%TO.P,U1,13,PB5*%
%TO.N,unconnected-(U1-Pad13)*%
X133040000Y-73130000D03*
%TO.P,U1,14,PB6*%
%TO.N,SIGNAL*%
X133040000Y-70590000D03*
%TO.P,U1,15,PB7*%
%TO.N,unconnected-(U1-Pad15)*%
X133040000Y-68050000D03*
%TO.P,U1,16,PB8*%
%TO.N,/SCL*%
X133040000Y-65510000D03*
%TO.P,U1,17,PB9*%
%TO.N,/SDA*%
X133040000Y-62970000D03*
%TO.P,U1,18,5V*%
%TO.N,+5V*%
X133040000Y-60430000D03*
%TO.P,U1,19,GND*%
%TO.N,GND*%
X133040000Y-57890000D03*
%TO.P,U1,20,3V3*%
%TO.N,unconnected-(U1-Pad20)*%
X133040000Y-55350000D03*
%TO.P,U1,21,VBat*%
%TO.N,unconnected-(U1-Pad21)*%
X117800000Y-55350000D03*
%TO.P,U1,22,PC13*%
%TO.N,unconnected-(U1-Pad22)*%
X117800000Y-57890000D03*
%TO.P,U1,23,PC14*%
%TO.N,unconnected-(U1-Pad23)*%
X117800000Y-60430000D03*
%TO.P,U1,24,PC15*%
%TO.N,unconnected-(U1-Pad24)*%
X117800000Y-62970000D03*
%TO.P,U1,25,PA0*%
%TO.N,Net-(R1-Pad2)*%
X117800000Y-65510000D03*
%TO.P,U1,26,PA1*%
%TO.N,Net-(R10-Pad2)*%
X117800000Y-68050000D03*
%TO.P,U1,27,PA2*%
%TO.N,Net-(R11-Pad2)*%
X117800000Y-70590000D03*
%TO.P,U1,28,PA3*%
%TO.N,Net-(R12-Pad2)*%
X117800000Y-73130000D03*
%TO.P,U1,29,PA4*%
%TO.N,Net-(R13-Pad2)*%
X117800000Y-75670000D03*
%TO.P,U1,30,PA5*%
%TO.N,Net-(R14-Pad2)*%
X117800000Y-78210000D03*
%TO.P,U1,31,PA6*%
%TO.N,Net-(R15-Pad2)*%
X117800000Y-80750000D03*
%TO.P,U1,32,PA7*%
%TO.N,Net-(R16-Pad2)*%
X117800000Y-83290000D03*
%TO.P,U1,33,PB0*%
%TO.N,unconnected-(U1-Pad33)*%
X117800000Y-85830000D03*
%TO.P,U1,34,PB1*%
%TO.N,unconnected-(U1-Pad34)*%
X117800000Y-88370000D03*
%TO.P,U1,35,PB10*%
%TO.N,unconnected-(U1-Pad35)*%
X117800000Y-90910000D03*
%TO.P,U1,36,PB11*%
%TO.N,unconnected-(U1-Pad36)*%
X117800000Y-93450000D03*
%TO.P,U1,37,RST*%
%TO.N,unconnected-(U1-Pad37)*%
X117800000Y-95990000D03*
%TO.P,U1,38,3V3*%
%TO.N,unconnected-(U1-Pad38)*%
X117800000Y-98530000D03*
%TO.P,U1,39,GND*%
%TO.N,unconnected-(U1-Pad39)*%
X117800000Y-101070000D03*
%TO.P,U1,40,GND*%
%TO.N,unconnected-(U1-Pad40)*%
X117800000Y-103610000D03*
%TD*%
D12*
%TO.P,J1,1,Pin_1*%
%TO.N,GND*%
X100075000Y-101870000D03*
D13*
%TO.P,J1,2,Pin_2*%
%TO.N,Net-(J1-Pad2)*%
X100075000Y-96790000D03*
%TO.P,J1,3,Pin_3*%
%TO.N,Net-(J1-Pad3)*%
X100075000Y-91710000D03*
%TO.P,J1,4,Pin_4*%
%TO.N,Net-(J1-Pad4)*%
X100075000Y-86630000D03*
%TO.P,J1,5,Pin_5*%
%TO.N,Net-(J1-Pad5)*%
X100075000Y-81550000D03*
%TO.P,J1,6,Pin_6*%
%TO.N,Net-(J1-Pad6)*%
X100075000Y-76470000D03*
%TO.P,J1,7,Pin_7*%
%TO.N,Net-(J1-Pad7)*%
X100075000Y-71390000D03*
%TO.P,J1,8,Pin_8*%
%TO.N,Net-(J1-Pad8)*%
X100075000Y-66310000D03*
%TO.P,J1,9,Pin_9*%
%TO.N,Net-(J1-Pad9)*%
X100075000Y-61230000D03*
%TO.P,J1,10,Pin_10*%
%TO.N,GND*%
X100075000Y-56150000D03*
%TD*%
D10*
%TO.P,J2,1,Pin_1*%
%TO.N,+5V*%
X142025000Y-53000000D03*
D14*
%TO.P,J2,2,Pin_2*%
%TO.N,/SDA*%
X142025000Y-55540000D03*
%TO.P,J2,3,Pin_3*%
%TO.N,GND*%
X142025000Y-58080000D03*
%TO.P,J2,4,Pin_4*%
%TO.N,/SCL*%
X142025000Y-60620000D03*
%TD*%
D12*
%TO.P,J3,1,Pin_1*%
%TO.N,+5V*%
X166449000Y-63241000D03*
D13*
%TO.P,J3,2,Pin_2*%
%TO.N,/PB5*%
X166449000Y-68321000D03*
%TO.P,J3,3,Pin_3*%
%TO.N,GND*%
X166449000Y-73401000D03*
%TD*%
D12*
%TO.P,J5,1,Pin_1*%
%TO.N,+5V*%
X151638000Y-102108000D03*
D13*
%TO.P,J5,2,Pin_2*%
%TO.N,/PB3*%
X146558000Y-102108000D03*
%TO.P,J5,3,Pin_3*%
%TO.N,GND*%
X141478000Y-102108000D03*
%TD*%
D12*
%TO.P,J4,1,Pin_1*%
%TO.N,+5V*%
X166449000Y-80386000D03*
D13*
%TO.P,J4,2,Pin_2*%
%TO.N,/PB4*%
X166449000Y-85466000D03*
%TO.P,J4,3,Pin_3*%
%TO.N,GND*%
X166449000Y-90546000D03*
%TD*%
D15*
%TO.N,GND*%
X108077000Y-83058000D03*
X108077000Y-62738000D03*
X144700000Y-56100000D03*
X108077000Y-67818000D03*
X135600000Y-55300000D03*
X100100000Y-53700000D03*
X106045000Y-99822000D03*
X153289000Y-58674000D03*
X108077000Y-77978000D03*
X146304000Y-79375000D03*
X141478000Y-99187000D03*
X166497000Y-93218000D03*
X163449000Y-73406000D03*
X146431000Y-87630000D03*
X108077000Y-88138000D03*
X108077000Y-93218000D03*
X146304000Y-71755000D03*
X108077000Y-72898000D03*
%TD*%
%TA.AperFunction,Conductor*%
%TO.N,GND*%
G36*
X168696391Y-50912384D02*
G01*
X168712000Y-50915136D01*
X168722684Y-50913252D01*
X168729609Y-50913252D01*
X168746466Y-50912193D01*
X169068534Y-50928015D01*
X169080639Y-50929208D01*
X169427721Y-50980693D01*
X169439636Y-50983063D01*
X169780008Y-51068321D01*
X169791644Y-51071851D01*
X170122000Y-51190055D01*
X170133235Y-51194708D01*
X170291835Y-51269720D01*
X170450430Y-51344730D01*
X170461162Y-51350467D01*
X170762102Y-51530844D01*
X170772220Y-51537604D01*
X171054050Y-51746623D01*
X171063456Y-51754343D01*
X171323428Y-51989967D01*
X171332033Y-51998572D01*
X171567657Y-52258544D01*
X171575377Y-52267950D01*
X171784396Y-52549780D01*
X171791156Y-52559898D01*
X171971533Y-52860838D01*
X171977270Y-52871570D01*
X172041344Y-53007044D01*
X172122435Y-53178495D01*
X172127290Y-53188761D01*
X172131945Y-53200000D01*
X172195030Y-53376310D01*
X172250148Y-53530354D01*
X172253679Y-53541992D01*
X172338937Y-53882364D01*
X172341307Y-53894279D01*
X172388552Y-54212776D01*
X172392792Y-54241358D01*
X172393985Y-54253466D01*
X172402763Y-54432152D01*
X172409807Y-54575533D01*
X172408748Y-54592391D01*
X172408748Y-54599316D01*
X172406864Y-54610000D01*
X172408748Y-54620683D01*
X172409616Y-54625606D01*
X172411500Y-54647139D01*
X172411500Y-104572861D01*
X172409616Y-104594391D01*
X172406864Y-104610000D01*
X172408748Y-104620684D01*
X172408748Y-104627609D01*
X172409807Y-104644466D01*
X172396417Y-104917034D01*
X172393985Y-104966531D01*
X172392792Y-104978639D01*
X172363058Y-105179095D01*
X172341309Y-105325713D01*
X172338937Y-105337636D01*
X172266999Y-105624831D01*
X172253681Y-105678001D01*
X172250149Y-105689644D01*
X172193894Y-105846866D01*
X172131946Y-106019997D01*
X172127292Y-106031235D01*
X172102184Y-106084321D01*
X171977270Y-106348430D01*
X171971533Y-106359162D01*
X171791156Y-106660102D01*
X171784396Y-106670220D01*
X171575377Y-106952050D01*
X171567657Y-106961456D01*
X171332033Y-107221428D01*
X171323428Y-107230033D01*
X171063456Y-107465657D01*
X171054050Y-107473377D01*
X170772220Y-107682396D01*
X170762102Y-107689156D01*
X170461162Y-107869533D01*
X170450430Y-107875270D01*
X170291834Y-107950280D01*
X170133235Y-108025292D01*
X170122000Y-108029945D01*
X169791646Y-108148148D01*
X169780008Y-108151679D01*
X169439636Y-108236937D01*
X169427721Y-108239307D01*
X169080639Y-108290792D01*
X169068534Y-108291985D01*
X168746466Y-108307807D01*
X168729609Y-108306748D01*
X168722684Y-108306748D01*
X168712000Y-108304864D01*
X168696391Y-108307616D01*
X168674861Y-108309500D01*
X98137139Y-108309500D01*
X98115609Y-108307616D01*
X98100000Y-108304864D01*
X98089316Y-108306748D01*
X98082391Y-108306748D01*
X98065534Y-108307807D01*
X97743466Y-108291985D01*
X97731361Y-108290792D01*
X97384279Y-108239307D01*
X97372364Y-108236937D01*
X97031992Y-108151679D01*
X97020354Y-108148148D01*
X96690000Y-108029945D01*
X96678765Y-108025292D01*
X96520166Y-107950280D01*
X96361570Y-107875270D01*
X96350838Y-107869533D01*
X96049898Y-107689156D01*
X96039780Y-107682396D01*
X95757950Y-107473377D01*
X95748544Y-107465657D01*
X95488572Y-107230033D01*
X95479967Y-107221428D01*
X95244343Y-106961456D01*
X95236623Y-106952050D01*
X95027604Y-106670220D01*
X95020844Y-106660102D01*
X94840467Y-106359162D01*
X94834730Y-106348430D01*
X94709816Y-106084321D01*
X94684708Y-106031235D01*
X94680054Y-106019997D01*
X94618107Y-105846866D01*
X94561851Y-105689644D01*
X94558319Y-105678001D01*
X94545001Y-105624831D01*
X94473063Y-105337636D01*
X94470691Y-105325713D01*
X94448943Y-105179095D01*
X94419208Y-104978639D01*
X94418015Y-104966531D01*
X94415584Y-104917034D01*
X94402193Y-104644466D01*
X94403252Y-104627609D01*
X94403252Y-104620684D01*
X94405136Y-104610000D01*
X94402384Y-104594391D01*
X94401090Y-104579600D01*
X106776808Y-104579600D01*
X106791830Y-104852574D01*
X106845166Y-105120708D01*
X106935749Y-105378652D01*
X107061774Y-105621260D01*
X107220725Y-105843690D01*
X107223749Y-105846860D01*
X107223754Y-105846866D01*
X107267766Y-105893002D01*
X107409431Y-106041505D01*
X107412875Y-106044220D01*
X107412876Y-106044221D01*
X107463743Y-106084321D01*
X107624126Y-106210757D01*
X107627906Y-106212953D01*
X107627911Y-106212956D01*
X107742327Y-106279413D01*
X107860528Y-106348070D01*
X107864588Y-106349714D01*
X107864589Y-106349715D01*
X108109852Y-106449057D01*
X108109856Y-106449058D01*
X108113919Y-106450704D01*
X108118173Y-106451761D01*
X108118177Y-106451762D01*
X108338960Y-106506605D01*
X108379243Y-106516611D01*
X108446289Y-106523480D01*
X108609255Y-106540178D01*
X108609262Y-106540178D01*
X108612401Y-106540500D01*
X108781642Y-106540500D01*
X108783810Y-106540346D01*
X108783824Y-106540346D01*
X108911196Y-106531327D01*
X108984705Y-106526122D01*
X109251968Y-106468582D01*
X109304893Y-106449057D01*
X109504344Y-106375476D01*
X109504347Y-106375475D01*
X109508458Y-106373958D01*
X109749056Y-106244138D01*
X109968962Y-106081713D01*
X109972092Y-106078632D01*
X110160661Y-105893002D01*
X110160666Y-105892996D01*
X110163788Y-105889923D01*
X110329647Y-105672596D01*
X110364036Y-105611191D01*
X110461089Y-105437890D01*
X110461092Y-105437884D01*
X110463230Y-105434066D01*
X110561871Y-105179095D01*
X110574448Y-105124837D01*
X110622614Y-104917034D01*
X110623603Y-104912768D01*
X110641698Y-104703837D01*
X110646814Y-104644766D01*
X110646814Y-104644764D01*
X110647192Y-104640400D01*
X110632170Y-104367426D01*
X110596423Y-104187714D01*
X110579689Y-104103588D01*
X110579687Y-104103582D01*
X110578834Y-104099292D01*
X110488251Y-103841348D01*
X110362226Y-103598740D01*
X110348658Y-103579754D01*
X116644967Y-103579754D01*
X116645338Y-103585416D01*
X116645338Y-103585420D01*
X116646949Y-103610000D01*
X116658796Y-103790749D01*
X116710845Y-103995690D01*
X116713219Y-104000841D01*
X116713221Y-104000845D01*
X116796991Y-104182556D01*
X116799369Y-104187714D01*
X116921405Y-104360391D01*
X116925476Y-104364357D01*
X116925477Y-104364358D01*
X116933123Y-104371806D01*
X117072865Y-104507937D01*
X117077588Y-104511093D01*
X117077592Y-104511096D01*
X117148663Y-104558584D01*
X117248677Y-104625411D01*
X117442953Y-104708878D01*
X117478277Y-104716871D01*
X117643638Y-104754289D01*
X117643642Y-104754290D01*
X117649186Y-104755544D01*
X117775315Y-104760500D01*
X117854789Y-104763623D01*
X117854791Y-104763623D01*
X117860470Y-104763846D01*
X117866090Y-104763031D01*
X117866092Y-104763031D01*
X118064103Y-104734320D01*
X118064104Y-104734320D01*
X118069730Y-104733504D01*
X118088588Y-104727103D01*
X118264565Y-104667367D01*
X118264568Y-104667366D01*
X118269955Y-104665537D01*
X118274916Y-104662759D01*
X118274922Y-104662756D01*
X118388199Y-104599317D01*
X118454442Y-104562219D01*
X118492165Y-104530846D01*
X118612645Y-104430644D01*
X118617012Y-104427012D01*
X118666569Y-104367426D01*
X118748584Y-104268813D01*
X118748585Y-104268811D01*
X118752219Y-104264442D01*
X118844708Y-104099292D01*
X118852756Y-104084922D01*
X118852759Y-104084916D01*
X118855537Y-104079955D01*
X118886009Y-103990189D01*
X118921675Y-103885118D01*
X118923504Y-103879730D01*
X118953846Y-103670470D01*
X118955429Y-103610000D01*
X118936081Y-103399440D01*
X118878686Y-103195931D01*
X118870088Y-103178495D01*
X118854307Y-103146495D01*
X118785165Y-103006290D01*
X118658651Y-102836867D01*
X118654481Y-102833012D01*
X118654478Y-102833009D01*
X118585553Y-102769296D01*
X118503381Y-102693337D01*
X118497574Y-102689673D01*
X118329363Y-102583539D01*
X118329361Y-102583538D01*
X118324554Y-102580505D01*
X118128160Y-102502152D01*
X118122579Y-102501042D01*
X118122576Y-102501041D01*
X117969698Y-102470632D01*
X117920775Y-102460901D01*
X117920744Y-102460901D01*
X117857828Y-102435019D01*
X117817841Y-102377723D01*
X117815178Y-102307904D01*
X117850684Y-102247729D01*
X117917606Y-102215562D01*
X118064103Y-102194320D01*
X118064104Y-102194320D01*
X118069730Y-102193504D01*
X118148890Y-102166633D01*
X118264565Y-102127367D01*
X118264568Y-102127366D01*
X118269955Y-102125537D01*
X118274916Y-102122759D01*
X118274922Y-102122756D01*
X118381530Y-102063052D01*
X118454442Y-102022219D01*
X118617012Y-101887012D01*
X118639442Y-101860043D01*
X118748584Y-101728813D01*
X118748585Y-101728811D01*
X118752219Y-101724442D01*
X118803833Y-101632279D01*
X118852756Y-101544922D01*
X118852759Y-101544916D01*
X118855537Y-101539955D01*
X118886009Y-101450189D01*
X118921675Y-101345118D01*
X118923504Y-101339730D01*
X118953846Y-101130470D01*
X118955429Y-101070000D01*
X118952650Y-101039754D01*
X131884967Y-101039754D01*
X131885338Y-101045416D01*
X131885338Y-101045420D01*
X131886713Y-101066399D01*
X131898796Y-101250749D01*
X131950845Y-101455690D01*
X131953219Y-101460841D01*
X131953221Y-101460845D01*
X132032253Y-101632279D01*
X132039369Y-101647714D01*
X132042647Y-101652352D01*
X132105891Y-101741840D01*
X132161405Y-101820391D01*
X132312865Y-101967937D01*
X132317588Y-101971093D01*
X132317592Y-101971096D01*
X132388663Y-102018584D01*
X132488677Y-102085411D01*
X132682953Y-102168878D01*
X132883640Y-102214289D01*
X132884829Y-102214558D01*
X132945871Y-102248552D01*
X132978844Y-102310152D01*
X132973279Y-102379800D01*
X132930943Y-102435383D01*
X132865277Y-102459253D01*
X132857462Y-102459500D01*
X132145354Y-102459500D01*
X132141700Y-102459935D01*
X132141698Y-102459935D01*
X132137312Y-102460457D01*
X132119154Y-102462618D01*
X132016847Y-102508061D01*
X131937759Y-102587287D01*
X131933130Y-102597758D01*
X131933129Y-102597759D01*
X131898876Y-102675238D01*
X131892494Y-102689673D01*
X131889500Y-102715354D01*
X131889500Y-104504646D01*
X131892618Y-104530846D01*
X131938061Y-104633153D01*
X132017287Y-104712241D01*
X132027758Y-104716870D01*
X132027759Y-104716871D01*
X132111147Y-104753737D01*
X132111149Y-104753738D01*
X132119673Y-104757506D01*
X132145354Y-104760500D01*
X133934646Y-104760500D01*
X133938300Y-104760065D01*
X133938302Y-104760065D01*
X133943266Y-104759474D01*
X133960846Y-104757382D01*
X134063153Y-104711939D01*
X134142241Y-104632713D01*
X134152140Y-104610323D01*
X134165723Y-104579600D01*
X166776808Y-104579600D01*
X166791830Y-104852574D01*
X166845166Y-105120708D01*
X166935749Y-105378652D01*
X167061774Y-105621260D01*
X167220725Y-105843690D01*
X167223749Y-105846860D01*
X167223754Y-105846866D01*
X167267766Y-105893002D01*
X167409431Y-106041505D01*
X167412875Y-106044220D01*
X167412876Y-106044221D01*
X167463743Y-106084321D01*
X167624126Y-106210757D01*
X167627906Y-106212953D01*
X167627911Y-106212956D01*
X167742327Y-106279413D01*
X167860528Y-106348070D01*
X167864588Y-106349714D01*
X167864589Y-106349715D01*
X168109852Y-106449057D01*
X168109856Y-106449058D01*
X168113919Y-106450704D01*
X168118173Y-106451761D01*
X168118177Y-106451762D01*
X168338960Y-106506605D01*
X168379243Y-106516611D01*
X168446289Y-106523480D01*
X168609255Y-106540178D01*
X168609262Y-106540178D01*
X168612401Y-106540500D01*
X168781642Y-106540500D01*
X168783810Y-106540346D01*
X168783824Y-106540346D01*
X168911196Y-106531327D01*
X168984705Y-106526122D01*
X169251968Y-106468582D01*
X169304893Y-106449057D01*
X169504344Y-106375476D01*
X169504347Y-106375475D01*
X169508458Y-106373958D01*
X169749056Y-106244138D01*
X169968962Y-106081713D01*
X169972092Y-106078632D01*
X170160661Y-105893002D01*
X170160666Y-105892996D01*
X170163788Y-105889923D01*
X170329647Y-105672596D01*
X170364036Y-105611191D01*
X170461089Y-105437890D01*
X170461092Y-105437884D01*
X170463230Y-105434066D01*
X170561871Y-105179095D01*
X170574448Y-105124837D01*
X170622614Y-104917034D01*
X170623603Y-104912768D01*
X170641698Y-104703837D01*
X170646814Y-104644766D01*
X170646814Y-104644764D01*
X170647192Y-104640400D01*
X170632170Y-104367426D01*
X170596423Y-104187714D01*
X170579689Y-104103588D01*
X170579687Y-104103582D01*
X170578834Y-104099292D01*
X170488251Y-103841348D01*
X170362226Y-103598740D01*
X170203275Y-103376310D01*
X170200251Y-103373140D01*
X170200246Y-103373134D01*
X170017596Y-103181668D01*
X170017595Y-103181667D01*
X170014569Y-103178495D01*
X170007943Y-103173271D01*
X169803314Y-103011955D01*
X169799874Y-103009243D01*
X169796094Y-103007047D01*
X169796089Y-103007044D01*
X169681673Y-102940586D01*
X169563472Y-102871930D01*
X169467381Y-102833009D01*
X169314148Y-102770943D01*
X169314144Y-102770942D01*
X169310081Y-102769296D01*
X169305827Y-102768239D01*
X169305823Y-102768238D01*
X169049012Y-102704446D01*
X169049013Y-102704446D01*
X169044757Y-102703389D01*
X168960957Y-102694803D01*
X168814745Y-102679822D01*
X168814738Y-102679822D01*
X168811599Y-102679500D01*
X168642358Y-102679500D01*
X168640190Y-102679654D01*
X168640176Y-102679654D01*
X168512804Y-102688673D01*
X168439295Y-102693878D01*
X168172032Y-102751418D01*
X168167911Y-102752938D01*
X168167912Y-102752938D01*
X167919656Y-102844524D01*
X167919653Y-102844525D01*
X167915542Y-102846042D01*
X167674944Y-102975862D01*
X167671418Y-102978467D01*
X167671417Y-102978467D01*
X167636376Y-103004349D01*
X167455038Y-103138287D01*
X167451910Y-103141367D01*
X167451908Y-103141368D01*
X167263339Y-103326998D01*
X167263334Y-103327004D01*
X167260212Y-103330077D01*
X167094353Y-103547404D01*
X167092215Y-103551222D01*
X166962911Y-103782110D01*
X166962908Y-103782116D01*
X166960770Y-103785934D01*
X166956778Y-103796253D01*
X166881750Y-103990189D01*
X166862129Y-104040905D01*
X166861138Y-104045182D01*
X166861137Y-104045184D01*
X166848595Y-104099292D01*
X166800397Y-104307232D01*
X166776808Y-104579600D01*
X134165723Y-104579600D01*
X134183737Y-104538853D01*
X134183738Y-104538851D01*
X134187506Y-104530327D01*
X134190500Y-104504646D01*
X134190500Y-103369069D01*
X140576014Y-103369069D01*
X140581651Y-103376599D01*
X140767980Y-103490782D01*
X140776643Y-103495197D01*
X140993043Y-103584832D01*
X141002279Y-103587833D01*
X141230043Y-103642515D01*
X141239629Y-103644033D01*
X141473146Y-103662411D01*
X141482854Y-103662411D01*
X141716371Y-103644033D01*
X141725957Y-103642515D01*
X141953721Y-103587833D01*
X141962957Y-103584832D01*
X142179357Y-103495197D01*
X142188020Y-103490782D01*
X142370739Y-103378812D01*
X142380051Y-103368518D01*
X142376329Y-103359882D01*
X141490607Y-102474160D01*
X141476887Y-102466668D01*
X141475081Y-102466797D01*
X141468574Y-102470979D01*
X140582665Y-103356888D01*
X140576014Y-103369069D01*
X134190500Y-103369069D01*
X134190500Y-102715354D01*
X134187382Y-102689154D01*
X134141939Y-102586847D01*
X134062713Y-102507759D01*
X134052242Y-102503130D01*
X134052241Y-102503129D01*
X133968853Y-102466263D01*
X133968851Y-102466262D01*
X133960327Y-102462494D01*
X133934646Y-102459500D01*
X133194562Y-102459500D01*
X133127523Y-102439815D01*
X133081768Y-102387011D01*
X133071824Y-102317853D01*
X133100849Y-102254297D01*
X133159627Y-102216523D01*
X133176769Y-102212783D01*
X133304102Y-102194320D01*
X133309730Y-102193504D01*
X133388890Y-102166633D01*
X133504565Y-102127367D01*
X133504568Y-102127366D01*
X133509955Y-102125537D01*
X133514916Y-102122759D01*
X133514922Y-102122756D01*
X133532603Y-102112854D01*
X139923589Y-102112854D01*
X139941967Y-102346371D01*
X139943485Y-102355957D01*
X139998167Y-102583721D01*
X140001168Y-102592957D01*
X140090803Y-102809357D01*
X140095218Y-102818020D01*
X140207188Y-103000739D01*
X140217482Y-103010051D01*
X140226118Y-103006329D01*
X141111840Y-102120607D01*
X141118116Y-102109113D01*
X141836668Y-102109113D01*
X141836797Y-102110919D01*
X141840979Y-102117426D01*
X142726888Y-103003335D01*
X142739069Y-103009986D01*
X142746599Y-103004349D01*
X142860782Y-102818020D01*
X142865197Y-102809357D01*
X142954832Y-102592957D01*
X142957833Y-102583721D01*
X143012515Y-102355957D01*
X143014033Y-102346371D01*
X143032411Y-102112854D01*
X143032411Y-102108000D01*
X145202341Y-102108000D01*
X145202813Y-102113395D01*
X145219831Y-102307904D01*
X145222937Y-102343408D01*
X145224336Y-102348631D01*
X145224337Y-102348634D01*
X145232688Y-102379800D01*
X145284097Y-102571663D01*
X145286384Y-102576567D01*
X145286386Y-102576573D01*
X145342635Y-102697197D01*
X145383965Y-102785829D01*
X145387072Y-102790266D01*
X145387073Y-102790268D01*
X145516399Y-102974966D01*
X145516403Y-102974970D01*
X145519505Y-102979401D01*
X145686599Y-103146495D01*
X145880170Y-103282035D01*
X146094337Y-103381903D01*
X146159787Y-103399440D01*
X146317366Y-103441663D01*
X146317369Y-103441664D01*
X146322592Y-103443063D01*
X146327979Y-103443534D01*
X146327983Y-103443535D01*
X146552605Y-103463187D01*
X146558000Y-103463659D01*
X146563395Y-103463187D01*
X146788017Y-103443535D01*
X146788021Y-103443534D01*
X146793408Y-103443063D01*
X146798631Y-103441664D01*
X146798634Y-103441663D01*
X146956213Y-103399440D01*
X147021663Y-103381903D01*
X147235830Y-103282035D01*
X147349209Y-103202646D01*
X150287500Y-103202646D01*
X150290618Y-103228846D01*
X150336061Y-103331153D01*
X150415287Y-103410241D01*
X150425758Y-103414870D01*
X150425759Y-103414871D01*
X150509147Y-103451737D01*
X150509149Y-103451738D01*
X150517673Y-103455506D01*
X150543354Y-103458500D01*
X152732646Y-103458500D01*
X152736300Y-103458065D01*
X152736302Y-103458065D01*
X152741266Y-103457474D01*
X152758846Y-103455382D01*
X152861153Y-103409939D01*
X152940241Y-103330713D01*
X152963133Y-103278933D01*
X152981737Y-103236853D01*
X152981738Y-103236851D01*
X152985506Y-103228327D01*
X152988500Y-103202646D01*
X152988500Y-101013354D01*
X152985382Y-100987154D01*
X152939939Y-100884847D01*
X152860713Y-100805759D01*
X152850242Y-100801130D01*
X152850241Y-100801129D01*
X152766853Y-100764263D01*
X152766851Y-100764262D01*
X152758327Y-100760494D01*
X152732646Y-100757500D01*
X150543354Y-100757500D01*
X150539700Y-100757935D01*
X150539698Y-100757935D01*
X150534734Y-100758526D01*
X150517154Y-100760618D01*
X150414847Y-100806061D01*
X150335759Y-100885287D01*
X150331130Y-100895758D01*
X150331129Y-100895759D01*
X150315251Y-100931675D01*
X150290494Y-100987673D01*
X150287500Y-101013354D01*
X150287500Y-103202646D01*
X147349209Y-103202646D01*
X147429401Y-103146495D01*
X147596495Y-102979401D01*
X147599597Y-102974970D01*
X147599601Y-102974966D01*
X147728927Y-102790268D01*
X147728928Y-102790266D01*
X147732035Y-102785829D01*
X147773365Y-102697197D01*
X147829614Y-102576573D01*
X147829616Y-102576567D01*
X147831903Y-102571663D01*
X147883312Y-102379800D01*
X147891663Y-102348634D01*
X147891664Y-102348631D01*
X147893063Y-102343408D01*
X147896170Y-102307904D01*
X147913187Y-102113395D01*
X147913659Y-102108000D01*
X147901058Y-101963968D01*
X147893535Y-101877983D01*
X147893534Y-101877979D01*
X147893063Y-101872592D01*
X147831903Y-101644337D01*
X147829616Y-101639433D01*
X147829614Y-101639427D01*
X147734325Y-101435082D01*
X147732035Y-101430171D01*
X147602436Y-101245083D01*
X147599601Y-101241034D01*
X147599597Y-101241030D01*
X147596495Y-101236599D01*
X147429401Y-101069505D01*
X147235830Y-100933965D01*
X147021663Y-100834097D01*
X146899687Y-100801414D01*
X146798634Y-100774337D01*
X146798631Y-100774336D01*
X146793408Y-100772937D01*
X146788021Y-100772466D01*
X146788017Y-100772465D01*
X146563395Y-100752813D01*
X146558000Y-100752341D01*
X146552605Y-100752813D01*
X146327983Y-100772465D01*
X146327979Y-100772466D01*
X146322592Y-100772937D01*
X146317369Y-100774336D01*
X146317366Y-100774337D01*
X146216313Y-100801414D01*
X146094337Y-100834097D01*
X146089433Y-100836384D01*
X146089427Y-100836386D01*
X145963068Y-100895309D01*
X145880171Y-100933965D01*
X145875734Y-100937072D01*
X145875732Y-100937073D01*
X145691034Y-101066399D01*
X145691033Y-101066400D01*
X145686599Y-101069505D01*
X145519505Y-101236599D01*
X145516403Y-101241030D01*
X145516399Y-101241034D01*
X145513564Y-101245083D01*
X145383965Y-101430171D01*
X145381675Y-101435082D01*
X145286386Y-101639427D01*
X145286384Y-101639433D01*
X145284097Y-101644337D01*
X145222937Y-101872592D01*
X145222466Y-101877979D01*
X145222465Y-101877983D01*
X145214942Y-101963968D01*
X145202341Y-102108000D01*
X143032411Y-102108000D01*
X143032411Y-102103146D01*
X143014033Y-101869629D01*
X143012515Y-101860043D01*
X142957833Y-101632279D01*
X142954832Y-101623043D01*
X142865197Y-101406643D01*
X142860782Y-101397980D01*
X142748812Y-101215261D01*
X142738518Y-101205949D01*
X142729882Y-101209671D01*
X141844160Y-102095393D01*
X141836668Y-102109113D01*
X141118116Y-102109113D01*
X141119332Y-102106887D01*
X141119203Y-102105081D01*
X141115021Y-102098574D01*
X140229112Y-101212665D01*
X140216931Y-101206014D01*
X140209401Y-101211651D01*
X140095218Y-101397980D01*
X140090803Y-101406643D01*
X140001168Y-101623043D01*
X139998167Y-101632279D01*
X139943485Y-101860043D01*
X139941967Y-101869629D01*
X139923589Y-102103146D01*
X139923589Y-102112854D01*
X133532603Y-102112854D01*
X133621530Y-102063052D01*
X133694442Y-102022219D01*
X133857012Y-101887012D01*
X133879442Y-101860043D01*
X133988584Y-101728813D01*
X133988585Y-101728811D01*
X133992219Y-101724442D01*
X134043833Y-101632279D01*
X134092756Y-101544922D01*
X134092759Y-101544916D01*
X134095537Y-101539955D01*
X134126009Y-101450189D01*
X134161675Y-101345118D01*
X134163504Y-101339730D01*
X134193846Y-101130470D01*
X134195429Y-101070000D01*
X134176081Y-100859440D01*
X134172709Y-100847482D01*
X140575949Y-100847482D01*
X140579671Y-100856118D01*
X141465393Y-101741840D01*
X141479113Y-101749332D01*
X141480919Y-101749203D01*
X141487426Y-101745021D01*
X142373335Y-100859112D01*
X142379986Y-100846931D01*
X142374349Y-100839401D01*
X142188020Y-100725218D01*
X142179357Y-100720803D01*
X141962957Y-100631168D01*
X141953721Y-100628167D01*
X141725957Y-100573485D01*
X141716371Y-100571967D01*
X141482854Y-100553589D01*
X141473146Y-100553589D01*
X141239629Y-100571967D01*
X141230043Y-100573485D01*
X141002279Y-100628167D01*
X140993043Y-100631168D01*
X140776643Y-100720803D01*
X140767980Y-100725218D01*
X140585261Y-100837188D01*
X140575949Y-100847482D01*
X134172709Y-100847482D01*
X134118686Y-100655931D01*
X134025165Y-100466290D01*
X133898651Y-100296867D01*
X133894481Y-100293012D01*
X133894478Y-100293009D01*
X133830319Y-100233702D01*
X133743381Y-100153337D01*
X133564554Y-100040505D01*
X133368160Y-99962152D01*
X133362579Y-99961042D01*
X133362576Y-99961041D01*
X133166355Y-99922011D01*
X133166356Y-99922011D01*
X133160775Y-99920901D01*
X133160744Y-99920901D01*
X133097828Y-99895019D01*
X133057841Y-99837723D01*
X133055178Y-99767904D01*
X133090684Y-99707729D01*
X133157606Y-99675562D01*
X133304103Y-99654320D01*
X133304104Y-99654320D01*
X133309730Y-99653504D01*
X133388890Y-99626633D01*
X133504565Y-99587367D01*
X133504568Y-99587366D01*
X133509955Y-99585537D01*
X133514916Y-99582759D01*
X133514922Y-99582756D01*
X133621530Y-99523052D01*
X133694442Y-99482219D01*
X133857012Y-99347012D01*
X133860644Y-99342645D01*
X133988584Y-99188813D01*
X133988585Y-99188811D01*
X133992219Y-99184442D01*
X134038078Y-99102556D01*
X134092756Y-99004922D01*
X134092759Y-99004916D01*
X134095537Y-98999955D01*
X134126009Y-98910189D01*
X134161675Y-98805118D01*
X134163504Y-98799730D01*
X134193846Y-98590470D01*
X134195429Y-98530000D01*
X134176081Y-98319440D01*
X134118686Y-98115931D01*
X134025165Y-97926290D01*
X133898651Y-97756867D01*
X133894481Y-97753012D01*
X133894478Y-97753009D01*
X133830319Y-97693702D01*
X133743381Y-97613337D01*
X133564554Y-97500505D01*
X133368160Y-97422152D01*
X133362579Y-97421042D01*
X133362576Y-97421041D01*
X133166355Y-97382011D01*
X133166356Y-97382011D01*
X133160775Y-97380901D01*
X133160744Y-97380901D01*
X133097828Y-97355019D01*
X133057841Y-97297723D01*
X133055178Y-97227904D01*
X133090684Y-97167729D01*
X133157606Y-97135562D01*
X133304103Y-97114320D01*
X133304104Y-97114320D01*
X133309730Y-97113504D01*
X133388890Y-97086633D01*
X133504565Y-97047367D01*
X133504568Y-97047366D01*
X133509955Y-97045537D01*
X133514916Y-97042759D01*
X133514922Y-97042756D01*
X133621530Y-96983052D01*
X133694442Y-96942219D01*
X133857012Y-96807012D01*
X133875648Y-96784605D01*
X133988584Y-96648813D01*
X133988585Y-96648811D01*
X133992219Y-96644442D01*
X134038078Y-96562556D01*
X134092756Y-96464922D01*
X134092759Y-96464916D01*
X134095537Y-96459955D01*
X134126009Y-96370189D01*
X134161675Y-96265118D01*
X134163504Y-96259730D01*
X134193846Y-96050470D01*
X134195429Y-95990000D01*
X134176081Y-95779440D01*
X134118686Y-95575931D01*
X134025165Y-95386290D01*
X133898651Y-95216867D01*
X133894481Y-95213012D01*
X133894478Y-95213009D01*
X133830319Y-95153702D01*
X133743381Y-95073337D01*
X133564554Y-94960505D01*
X133368160Y-94882152D01*
X133362579Y-94881042D01*
X133362576Y-94881041D01*
X133166355Y-94842011D01*
X133166356Y-94842011D01*
X133160775Y-94840901D01*
X133160744Y-94840901D01*
X133097828Y-94815019D01*
X133057841Y-94757723D01*
X133055178Y-94687904D01*
X133090684Y-94627729D01*
X133157606Y-94595562D01*
X133304103Y-94574320D01*
X133304104Y-94574320D01*
X133309730Y-94573504D01*
X133388890Y-94546633D01*
X133504565Y-94507367D01*
X133504568Y-94507366D01*
X133509955Y-94505537D01*
X133514916Y-94502759D01*
X133514922Y-94502756D01*
X133621530Y-94443052D01*
X133694442Y-94402219D01*
X133857012Y-94267012D01*
X133860644Y-94262645D01*
X133988584Y-94108813D01*
X133988585Y-94108811D01*
X133992219Y-94104442D01*
X134038078Y-94022556D01*
X134092756Y-93924922D01*
X134092759Y-93924916D01*
X134095537Y-93919955D01*
X134126009Y-93830189D01*
X134161675Y-93725118D01*
X134163504Y-93719730D01*
X134193846Y-93510470D01*
X134195429Y-93450000D01*
X134176081Y-93239440D01*
X134118686Y-93035931D01*
X134025165Y-92846290D01*
X133898651Y-92676867D01*
X133894481Y-92673012D01*
X133894478Y-92673009D01*
X133830319Y-92613702D01*
X133743381Y-92533337D01*
X133564554Y-92420505D01*
X133368160Y-92342152D01*
X133362579Y-92341042D01*
X133362576Y-92341041D01*
X133166355Y-92302011D01*
X133166356Y-92302011D01*
X133160775Y-92300901D01*
X133160744Y-92300901D01*
X133097828Y-92275019D01*
X133057841Y-92217723D01*
X133055178Y-92147904D01*
X133090684Y-92087729D01*
X133157606Y-92055562D01*
X133304103Y-92034320D01*
X133304104Y-92034320D01*
X133309730Y-92033504D01*
X133388890Y-92006633D01*
X133504565Y-91967367D01*
X133504568Y-91967366D01*
X133509955Y-91965537D01*
X133514916Y-91962759D01*
X133514922Y-91962756D01*
X133621530Y-91903052D01*
X133694442Y-91862219D01*
X133749039Y-91816812D01*
X133760754Y-91807069D01*
X165547014Y-91807069D01*
X165552651Y-91814599D01*
X165738980Y-91928782D01*
X165747643Y-91933197D01*
X165964043Y-92022832D01*
X165973279Y-92025833D01*
X166201043Y-92080515D01*
X166210629Y-92082033D01*
X166444146Y-92100411D01*
X166453854Y-92100411D01*
X166687371Y-92082033D01*
X166696957Y-92080515D01*
X166924721Y-92025833D01*
X166933957Y-92022832D01*
X167150357Y-91933197D01*
X167159020Y-91928782D01*
X167341739Y-91816812D01*
X167351051Y-91806518D01*
X167347329Y-91797882D01*
X166461607Y-90912160D01*
X166447887Y-90904668D01*
X166446081Y-90904797D01*
X166439574Y-90908979D01*
X165553665Y-91794888D01*
X165547014Y-91807069D01*
X133760754Y-91807069D01*
X133852645Y-91730644D01*
X133857012Y-91727012D01*
X133875648Y-91704605D01*
X133988584Y-91568813D01*
X133988585Y-91568811D01*
X133992219Y-91564442D01*
X134038078Y-91482556D01*
X134092756Y-91384922D01*
X134092759Y-91384916D01*
X134095537Y-91379955D01*
X134126009Y-91290189D01*
X134161675Y-91185118D01*
X134163504Y-91179730D01*
X134193846Y-90970470D01*
X134195429Y-90910000D01*
X134176081Y-90699440D01*
X134134176Y-90550854D01*
X164894589Y-90550854D01*
X164912967Y-90784371D01*
X164914485Y-90793957D01*
X164969167Y-91021721D01*
X164972168Y-91030957D01*
X165061803Y-91247357D01*
X165066218Y-91256020D01*
X165178188Y-91438739D01*
X165188482Y-91448051D01*
X165197118Y-91444329D01*
X166082840Y-90558607D01*
X166089116Y-90547113D01*
X166807668Y-90547113D01*
X166807797Y-90548919D01*
X166811979Y-90555426D01*
X167697888Y-91441335D01*
X167710069Y-91447986D01*
X167717599Y-91442349D01*
X167831782Y-91256020D01*
X167836197Y-91247357D01*
X167925832Y-91030957D01*
X167928833Y-91021721D01*
X167983515Y-90793957D01*
X167985033Y-90784371D01*
X168003411Y-90550854D01*
X168003411Y-90541146D01*
X167985033Y-90307629D01*
X167983515Y-90298043D01*
X167928833Y-90070279D01*
X167925832Y-90061043D01*
X167836197Y-89844643D01*
X167831782Y-89835980D01*
X167719812Y-89653261D01*
X167709518Y-89643949D01*
X167700882Y-89647671D01*
X166815160Y-90533393D01*
X166807668Y-90547113D01*
X166089116Y-90547113D01*
X166090332Y-90544887D01*
X166090203Y-90543081D01*
X166086021Y-90536574D01*
X165200112Y-89650665D01*
X165187931Y-89644014D01*
X165180401Y-89649651D01*
X165066218Y-89835980D01*
X165061803Y-89844643D01*
X164972168Y-90061043D01*
X164969167Y-90070279D01*
X164914485Y-90298043D01*
X164912967Y-90307629D01*
X164894589Y-90541146D01*
X164894589Y-90550854D01*
X134134176Y-90550854D01*
X134118686Y-90495931D01*
X134025165Y-90306290D01*
X133898651Y-90136867D01*
X133894481Y-90133012D01*
X133894478Y-90133009D01*
X133816625Y-90061043D01*
X133743381Y-89993337D01*
X133564554Y-89880505D01*
X133368160Y-89802152D01*
X133362579Y-89801042D01*
X133362576Y-89801041D01*
X133166355Y-89762011D01*
X133166356Y-89762011D01*
X133160775Y-89760901D01*
X133160744Y-89760901D01*
X133097828Y-89735019D01*
X133057841Y-89677723D01*
X133055178Y-89607904D01*
X133090684Y-89547729D01*
X133157606Y-89515562D01*
X133304103Y-89494320D01*
X133304104Y-89494320D01*
X133309730Y-89493504D01*
X133388890Y-89466633D01*
X133504565Y-89427367D01*
X133504568Y-89427366D01*
X133509955Y-89425537D01*
X133514916Y-89422759D01*
X133514922Y-89422756D01*
X133621530Y-89363052D01*
X133694442Y-89322219D01*
X133738614Y-89285482D01*
X165546949Y-89285482D01*
X165550671Y-89294118D01*
X166436393Y-90179840D01*
X166450113Y-90187332D01*
X166451919Y-90187203D01*
X166458426Y-90183021D01*
X167344335Y-89297112D01*
X167350986Y-89284931D01*
X167345349Y-89277401D01*
X167159020Y-89163218D01*
X167150357Y-89158803D01*
X166933957Y-89069168D01*
X166924721Y-89066167D01*
X166696957Y-89011485D01*
X166687371Y-89009967D01*
X166453854Y-88991589D01*
X166444146Y-88991589D01*
X166210629Y-89009967D01*
X166201043Y-89011485D01*
X165973279Y-89066167D01*
X165964043Y-89069168D01*
X165747643Y-89158803D01*
X165738980Y-89163218D01*
X165556261Y-89275188D01*
X165546949Y-89285482D01*
X133738614Y-89285482D01*
X133739277Y-89284931D01*
X133852645Y-89190644D01*
X133857012Y-89187012D01*
X133880473Y-89158803D01*
X133988584Y-89028813D01*
X133988585Y-89028811D01*
X133992219Y-89024442D01*
X134038078Y-88942556D01*
X134092756Y-88844922D01*
X134092759Y-88844916D01*
X134095537Y-88839955D01*
X134126009Y-88750189D01*
X134161675Y-88645118D01*
X134163504Y-88639730D01*
X134193846Y-88430470D01*
X134195429Y-88370000D01*
X134176081Y-88159440D01*
X134118686Y-87955931D01*
X134025165Y-87766290D01*
X133898651Y-87596867D01*
X133894481Y-87593012D01*
X133894478Y-87593009D01*
X133830319Y-87533702D01*
X133743381Y-87453337D01*
X133564554Y-87340505D01*
X133368160Y-87262152D01*
X133362579Y-87261042D01*
X133362576Y-87261041D01*
X133166355Y-87222011D01*
X133166356Y-87222011D01*
X133160775Y-87220901D01*
X133160744Y-87220901D01*
X133097828Y-87195019D01*
X133057841Y-87137723D01*
X133055178Y-87067904D01*
X133090684Y-87007729D01*
X133157606Y-86975562D01*
X133304103Y-86954320D01*
X133304104Y-86954320D01*
X133309730Y-86953504D01*
X133388890Y-86926633D01*
X133504565Y-86887367D01*
X133504568Y-86887366D01*
X133509955Y-86885537D01*
X133514916Y-86882759D01*
X133514922Y-86882756D01*
X133624860Y-86821187D01*
X133694442Y-86782219D01*
X133748076Y-86737613D01*
X133852645Y-86650644D01*
X133857012Y-86647012D01*
X133875648Y-86624605D01*
X133988584Y-86488813D01*
X133988585Y-86488811D01*
X133992219Y-86484442D01*
X134038078Y-86402556D01*
X134092756Y-86304922D01*
X134092759Y-86304916D01*
X134095537Y-86299955D01*
X134126009Y-86210189D01*
X134161675Y-86105118D01*
X134163504Y-86099730D01*
X134193846Y-85890470D01*
X134195429Y-85830000D01*
X134176081Y-85619440D01*
X134132807Y-85466000D01*
X165093341Y-85466000D01*
X165093813Y-85471395D01*
X165106766Y-85619440D01*
X165113937Y-85701408D01*
X165115336Y-85706631D01*
X165115337Y-85706634D01*
X165152643Y-85845863D01*
X165175097Y-85929663D01*
X165177384Y-85934567D01*
X165177386Y-85934573D01*
X165210266Y-86005083D01*
X165274965Y-86143829D01*
X165278072Y-86148266D01*
X165278073Y-86148268D01*
X165407399Y-86332966D01*
X165407403Y-86332970D01*
X165410505Y-86337401D01*
X165577599Y-86504495D01*
X165771170Y-86640035D01*
X165985337Y-86739903D01*
X166069137Y-86762357D01*
X166208366Y-86799663D01*
X166208369Y-86799664D01*
X166213592Y-86801063D01*
X166218979Y-86801534D01*
X166218983Y-86801535D01*
X166443605Y-86821187D01*
X166449000Y-86821659D01*
X166454395Y-86821187D01*
X166679017Y-86801535D01*
X166679021Y-86801534D01*
X166684408Y-86801063D01*
X166689631Y-86799664D01*
X166689634Y-86799663D01*
X166828863Y-86762357D01*
X166912663Y-86739903D01*
X167126830Y-86640035D01*
X167320401Y-86504495D01*
X167487495Y-86337401D01*
X167490597Y-86332970D01*
X167490601Y-86332966D01*
X167619927Y-86148268D01*
X167619928Y-86148266D01*
X167623035Y-86143829D01*
X167687734Y-86005083D01*
X167720614Y-85934573D01*
X167720616Y-85934567D01*
X167722903Y-85929663D01*
X167745357Y-85845863D01*
X167782663Y-85706634D01*
X167782664Y-85706631D01*
X167784063Y-85701408D01*
X167791235Y-85619440D01*
X167804187Y-85471395D01*
X167804659Y-85466000D01*
X167800757Y-85421400D01*
X167784535Y-85235983D01*
X167784534Y-85235979D01*
X167784063Y-85230592D01*
X167781690Y-85221733D01*
X167724305Y-85007570D01*
X167722903Y-85002337D01*
X167720616Y-84997433D01*
X167720614Y-84997427D01*
X167625325Y-84793082D01*
X167623035Y-84788171D01*
X167578286Y-84724262D01*
X167490601Y-84599034D01*
X167490597Y-84599030D01*
X167487495Y-84594599D01*
X167320401Y-84427505D01*
X167126830Y-84291965D01*
X166912663Y-84192097D01*
X166828863Y-84169643D01*
X166689634Y-84132337D01*
X166689631Y-84132336D01*
X166684408Y-84130937D01*
X166679021Y-84130466D01*
X166679017Y-84130465D01*
X166454395Y-84110813D01*
X166449000Y-84110341D01*
X166443605Y-84110813D01*
X166218983Y-84130465D01*
X166218979Y-84130466D01*
X166213592Y-84130937D01*
X166208369Y-84132336D01*
X166208366Y-84132337D01*
X166069137Y-84169643D01*
X165985337Y-84192097D01*
X165980433Y-84194384D01*
X165980427Y-84194386D01*
X165871891Y-84244998D01*
X165771171Y-84291965D01*
X165766734Y-84295072D01*
X165766732Y-84295073D01*
X165582034Y-84424399D01*
X165582033Y-84424400D01*
X165577599Y-84427505D01*
X165410505Y-84594599D01*
X165407403Y-84599030D01*
X165407399Y-84599034D01*
X165319714Y-84724262D01*
X165274965Y-84788171D01*
X165272675Y-84793082D01*
X165177386Y-84997427D01*
X165177384Y-84997433D01*
X165175097Y-85002337D01*
X165173695Y-85007570D01*
X165116311Y-85221733D01*
X165113937Y-85230592D01*
X165113466Y-85235979D01*
X165113465Y-85235983D01*
X165097243Y-85421400D01*
X165093341Y-85466000D01*
X134132807Y-85466000D01*
X134118686Y-85415931D01*
X134025165Y-85226290D01*
X133898651Y-85056867D01*
X133894481Y-85053012D01*
X133894478Y-85053009D01*
X133830319Y-84993702D01*
X133743381Y-84913337D01*
X133564554Y-84800505D01*
X133368160Y-84722152D01*
X133362579Y-84721042D01*
X133362576Y-84721041D01*
X133166355Y-84682011D01*
X133166356Y-84682011D01*
X133160775Y-84680901D01*
X133160744Y-84680901D01*
X133097828Y-84655019D01*
X133057841Y-84597723D01*
X133055178Y-84527904D01*
X133090684Y-84467729D01*
X133157606Y-84435562D01*
X133304103Y-84414320D01*
X133304104Y-84414320D01*
X133309730Y-84413504D01*
X133388890Y-84386633D01*
X133504565Y-84347367D01*
X133504568Y-84347366D01*
X133509955Y-84345537D01*
X133514916Y-84342759D01*
X133514922Y-84342756D01*
X133621530Y-84283052D01*
X133694442Y-84242219D01*
X133751956Y-84194386D01*
X133852645Y-84110644D01*
X133857012Y-84107012D01*
X133860644Y-84102645D01*
X133988584Y-83948813D01*
X133988585Y-83948811D01*
X133992219Y-83944442D01*
X134038078Y-83862556D01*
X134092756Y-83764922D01*
X134092759Y-83764916D01*
X134095537Y-83759955D01*
X134126009Y-83670189D01*
X134161675Y-83565118D01*
X134163504Y-83559730D01*
X134193846Y-83350470D01*
X134195429Y-83290000D01*
X134176081Y-83079440D01*
X134118686Y-82875931D01*
X134025165Y-82686290D01*
X133898651Y-82516867D01*
X133894481Y-82513012D01*
X133894478Y-82513009D01*
X133830319Y-82453702D01*
X133743381Y-82373337D01*
X133564554Y-82260505D01*
X133368160Y-82182152D01*
X133362579Y-82181042D01*
X133362576Y-82181041D01*
X133166355Y-82142011D01*
X133166356Y-82142011D01*
X133160775Y-82140901D01*
X133160744Y-82140901D01*
X133097828Y-82115019D01*
X133057841Y-82057723D01*
X133055178Y-81987904D01*
X133090684Y-81927729D01*
X133157606Y-81895562D01*
X133304103Y-81874320D01*
X133304104Y-81874320D01*
X133309730Y-81873504D01*
X133388890Y-81846633D01*
X133504565Y-81807367D01*
X133504568Y-81807366D01*
X133509955Y-81805537D01*
X133514916Y-81802759D01*
X133514922Y-81802756D01*
X133634006Y-81736065D01*
X133694442Y-81702219D01*
X133857012Y-81567012D01*
X133907483Y-81506327D01*
X133928842Y-81480646D01*
X165098500Y-81480646D01*
X165101618Y-81506846D01*
X165147061Y-81609153D01*
X165226287Y-81688241D01*
X165236758Y-81692870D01*
X165236759Y-81692871D01*
X165320147Y-81729737D01*
X165320149Y-81729738D01*
X165328673Y-81733506D01*
X165354354Y-81736500D01*
X167543646Y-81736500D01*
X167547300Y-81736065D01*
X167547302Y-81736065D01*
X167552266Y-81735474D01*
X167569846Y-81733382D01*
X167672153Y-81687939D01*
X167751241Y-81608713D01*
X167755871Y-81598241D01*
X167792737Y-81514853D01*
X167792738Y-81514851D01*
X167796506Y-81506327D01*
X167799500Y-81480646D01*
X167799500Y-79291354D01*
X167796382Y-79265154D01*
X167750939Y-79162847D01*
X167671713Y-79083759D01*
X167661242Y-79079130D01*
X167661241Y-79079129D01*
X167577853Y-79042263D01*
X167577851Y-79042262D01*
X167569327Y-79038494D01*
X167543646Y-79035500D01*
X165354354Y-79035500D01*
X165350700Y-79035935D01*
X165350698Y-79035935D01*
X165345734Y-79036526D01*
X165328154Y-79038618D01*
X165225847Y-79084061D01*
X165146759Y-79163287D01*
X165101494Y-79265673D01*
X165098500Y-79291354D01*
X165098500Y-81480646D01*
X133928842Y-81480646D01*
X133988584Y-81408813D01*
X133988585Y-81408811D01*
X133992219Y-81404442D01*
X134038078Y-81322556D01*
X134092756Y-81224922D01*
X134092759Y-81224916D01*
X134095537Y-81219955D01*
X134126009Y-81130189D01*
X134161675Y-81025118D01*
X134163504Y-81019730D01*
X134193846Y-80810470D01*
X134195429Y-80750000D01*
X134176081Y-80539440D01*
X134118686Y-80335931D01*
X134025165Y-80146290D01*
X133898651Y-79976867D01*
X133894481Y-79973012D01*
X133894478Y-79973009D01*
X133830319Y-79913702D01*
X133743381Y-79833337D01*
X133564554Y-79720505D01*
X133368160Y-79642152D01*
X133362579Y-79641042D01*
X133362576Y-79641041D01*
X133166355Y-79602011D01*
X133166356Y-79602011D01*
X133160775Y-79600901D01*
X133160744Y-79600901D01*
X133097828Y-79575019D01*
X133057841Y-79517723D01*
X133055178Y-79447904D01*
X133090684Y-79387729D01*
X133157606Y-79355562D01*
X133304103Y-79334320D01*
X133304104Y-79334320D01*
X133309730Y-79333504D01*
X133388890Y-79306633D01*
X133504565Y-79267367D01*
X133504568Y-79267366D01*
X133509955Y-79265537D01*
X133514916Y-79262759D01*
X133514922Y-79262756D01*
X133621530Y-79203052D01*
X133694442Y-79162219D01*
X133857012Y-79027012D01*
X133860644Y-79022645D01*
X133988584Y-78868813D01*
X133988585Y-78868811D01*
X133992219Y-78864442D01*
X134038078Y-78782556D01*
X134092756Y-78684922D01*
X134092759Y-78684916D01*
X134095537Y-78679955D01*
X134126009Y-78590189D01*
X134161675Y-78485118D01*
X134163504Y-78479730D01*
X134193846Y-78270470D01*
X134195429Y-78210000D01*
X134176081Y-77999440D01*
X134118686Y-77795931D01*
X134025165Y-77606290D01*
X133898651Y-77436867D01*
X133894481Y-77433012D01*
X133894478Y-77433009D01*
X133830319Y-77373702D01*
X133743381Y-77293337D01*
X133564554Y-77180505D01*
X133368160Y-77102152D01*
X133362579Y-77101042D01*
X133362576Y-77101041D01*
X133166355Y-77062011D01*
X133166356Y-77062011D01*
X133160775Y-77060901D01*
X133160744Y-77060901D01*
X133097828Y-77035019D01*
X133057841Y-76977723D01*
X133055178Y-76907904D01*
X133090684Y-76847729D01*
X133157606Y-76815562D01*
X133304103Y-76794320D01*
X133304104Y-76794320D01*
X133309730Y-76793504D01*
X133388890Y-76766633D01*
X133504565Y-76727367D01*
X133504568Y-76727366D01*
X133509955Y-76725537D01*
X133514916Y-76722759D01*
X133514922Y-76722756D01*
X133621530Y-76663052D01*
X133694442Y-76622219D01*
X133857012Y-76487012D01*
X133875648Y-76464605D01*
X133988584Y-76328813D01*
X133988585Y-76328811D01*
X133992219Y-76324442D01*
X134038078Y-76242556D01*
X134092756Y-76144922D01*
X134092759Y-76144916D01*
X134095537Y-76139955D01*
X134126009Y-76050189D01*
X134161675Y-75945118D01*
X134163504Y-75939730D01*
X134193846Y-75730470D01*
X134195429Y-75670000D01*
X134176081Y-75459440D01*
X134118686Y-75255931D01*
X134025165Y-75066290D01*
X133898651Y-74896867D01*
X133894481Y-74893012D01*
X133894478Y-74893009D01*
X133776316Y-74783782D01*
X133743381Y-74753337D01*
X133710090Y-74732332D01*
X133598731Y-74662069D01*
X165547014Y-74662069D01*
X165552651Y-74669599D01*
X165738980Y-74783782D01*
X165747643Y-74788197D01*
X165964043Y-74877832D01*
X165973279Y-74880833D01*
X166201043Y-74935515D01*
X166210629Y-74937033D01*
X166444146Y-74955411D01*
X166453854Y-74955411D01*
X166687371Y-74937033D01*
X166696957Y-74935515D01*
X166924721Y-74880833D01*
X166933957Y-74877832D01*
X167150357Y-74788197D01*
X167159020Y-74783782D01*
X167341739Y-74671812D01*
X167351051Y-74661518D01*
X167347329Y-74652882D01*
X166461607Y-73767160D01*
X166447887Y-73759668D01*
X166446081Y-73759797D01*
X166439574Y-73763979D01*
X165553665Y-74649888D01*
X165547014Y-74662069D01*
X133598731Y-74662069D01*
X133569363Y-74643539D01*
X133569361Y-74643538D01*
X133564554Y-74640505D01*
X133368160Y-74562152D01*
X133362579Y-74561042D01*
X133362576Y-74561041D01*
X133166355Y-74522011D01*
X133166356Y-74522011D01*
X133160775Y-74520901D01*
X133160744Y-74520901D01*
X133097828Y-74495019D01*
X133057841Y-74437723D01*
X133055178Y-74367904D01*
X133090684Y-74307729D01*
X133157606Y-74275562D01*
X133304103Y-74254320D01*
X133304104Y-74254320D01*
X133309730Y-74253504D01*
X133388890Y-74226633D01*
X133504565Y-74187367D01*
X133504568Y-74187366D01*
X133509955Y-74185537D01*
X133514916Y-74182759D01*
X133514922Y-74182756D01*
X133658483Y-74102357D01*
X133694442Y-74082219D01*
X133857012Y-73947012D01*
X133907791Y-73885957D01*
X133988584Y-73788813D01*
X133988585Y-73788811D01*
X133992219Y-73784442D01*
X134038078Y-73702556D01*
X134092756Y-73604922D01*
X134092759Y-73604916D01*
X134095537Y-73599955D01*
X134126009Y-73510189D01*
X134161425Y-73405854D01*
X164894589Y-73405854D01*
X164912967Y-73639371D01*
X164914485Y-73648957D01*
X164969167Y-73876721D01*
X164972168Y-73885957D01*
X165061803Y-74102357D01*
X165066218Y-74111020D01*
X165178188Y-74293739D01*
X165188482Y-74303051D01*
X165197118Y-74299329D01*
X166082840Y-73413607D01*
X166089116Y-73402113D01*
X166807668Y-73402113D01*
X166807797Y-73403919D01*
X166811979Y-73410426D01*
X167697888Y-74296335D01*
X167710069Y-74302986D01*
X167717599Y-74297349D01*
X167831782Y-74111020D01*
X167836197Y-74102357D01*
X167925832Y-73885957D01*
X167928833Y-73876721D01*
X167983515Y-73648957D01*
X167985033Y-73639371D01*
X168003411Y-73405854D01*
X168003411Y-73396146D01*
X167985033Y-73162629D01*
X167983515Y-73153043D01*
X167928833Y-72925279D01*
X167925832Y-72916043D01*
X167836197Y-72699643D01*
X167831782Y-72690980D01*
X167719812Y-72508261D01*
X167709518Y-72498949D01*
X167700882Y-72502671D01*
X166815160Y-73388393D01*
X166807668Y-73402113D01*
X166089116Y-73402113D01*
X166090332Y-73399887D01*
X166090203Y-73398081D01*
X166086021Y-73391574D01*
X165200112Y-72505665D01*
X165187931Y-72499014D01*
X165180401Y-72504651D01*
X165066218Y-72690980D01*
X165061803Y-72699643D01*
X164972168Y-72916043D01*
X164969167Y-72925279D01*
X164914485Y-73153043D01*
X164912967Y-73162629D01*
X164894589Y-73396146D01*
X164894589Y-73405854D01*
X134161425Y-73405854D01*
X134161675Y-73405118D01*
X134163504Y-73399730D01*
X134193846Y-73190470D01*
X134195429Y-73130000D01*
X134176081Y-72919440D01*
X134118686Y-72715931D01*
X134025165Y-72526290D01*
X133898651Y-72356867D01*
X133894481Y-72353012D01*
X133894478Y-72353009D01*
X133830319Y-72293702D01*
X133743381Y-72213337D01*
X133641601Y-72149118D01*
X133627914Y-72140482D01*
X165546949Y-72140482D01*
X165550671Y-72149118D01*
X166436393Y-73034840D01*
X166450113Y-73042332D01*
X166451919Y-73042203D01*
X166458426Y-73038021D01*
X167344335Y-72152112D01*
X167350986Y-72139931D01*
X167345349Y-72132401D01*
X167159020Y-72018218D01*
X167150357Y-72013803D01*
X166933957Y-71924168D01*
X166924721Y-71921167D01*
X166696957Y-71866485D01*
X166687371Y-71864967D01*
X166453854Y-71846589D01*
X166444146Y-71846589D01*
X166210629Y-71864967D01*
X166201043Y-71866485D01*
X165973279Y-71921167D01*
X165964043Y-71924168D01*
X165747643Y-72013803D01*
X165738980Y-72018218D01*
X165556261Y-72130188D01*
X165546949Y-72140482D01*
X133627914Y-72140482D01*
X133569363Y-72103539D01*
X133569361Y-72103538D01*
X133564554Y-72100505D01*
X133368160Y-72022152D01*
X133362579Y-72021042D01*
X133362576Y-72021041D01*
X133166355Y-71982011D01*
X133166356Y-71982011D01*
X133160775Y-71980901D01*
X133160744Y-71980901D01*
X133097828Y-71955019D01*
X133057841Y-71897723D01*
X133055178Y-71827904D01*
X133090684Y-71767729D01*
X133157606Y-71735562D01*
X133304103Y-71714320D01*
X133304104Y-71714320D01*
X133309730Y-71713504D01*
X133388890Y-71686633D01*
X133504565Y-71647367D01*
X133504568Y-71647366D01*
X133509955Y-71645537D01*
X133514916Y-71642759D01*
X133514922Y-71642756D01*
X133621530Y-71583052D01*
X133694442Y-71542219D01*
X133857012Y-71407012D01*
X133875648Y-71384605D01*
X133988584Y-71248813D01*
X133988585Y-71248811D01*
X133992219Y-71244442D01*
X134038078Y-71162556D01*
X134092756Y-71064922D01*
X134092759Y-71064916D01*
X134095537Y-71059955D01*
X134126009Y-70970189D01*
X134161675Y-70865118D01*
X134163504Y-70859730D01*
X134193846Y-70650470D01*
X134195429Y-70590000D01*
X134176081Y-70379440D01*
X134118686Y-70175931D01*
X134025165Y-69986290D01*
X133898651Y-69816867D01*
X133894481Y-69813012D01*
X133894478Y-69813009D01*
X133830319Y-69753702D01*
X133743381Y-69673337D01*
X133710090Y-69652332D01*
X133569363Y-69563539D01*
X133569361Y-69563538D01*
X133564554Y-69560505D01*
X133368160Y-69482152D01*
X133362579Y-69481042D01*
X133362576Y-69481041D01*
X133166355Y-69442011D01*
X133166356Y-69442011D01*
X133160775Y-69440901D01*
X133160744Y-69440901D01*
X133097828Y-69415019D01*
X133057841Y-69357723D01*
X133055178Y-69287904D01*
X133090684Y-69227729D01*
X133157606Y-69195562D01*
X133304103Y-69174320D01*
X133304104Y-69174320D01*
X133309730Y-69173504D01*
X133388890Y-69146633D01*
X133504565Y-69107367D01*
X133504568Y-69107366D01*
X133509955Y-69105537D01*
X133514916Y-69102759D01*
X133514922Y-69102756D01*
X133621530Y-69043052D01*
X133694442Y-69002219D01*
X133857012Y-68867012D01*
X133860644Y-68862645D01*
X133988584Y-68708813D01*
X133988585Y-68708811D01*
X133992219Y-68704442D01*
X134072196Y-68561634D01*
X134092756Y-68524922D01*
X134092759Y-68524916D01*
X134095537Y-68519955D01*
X134126009Y-68430189D01*
X134161675Y-68325118D01*
X134163073Y-68321000D01*
X165093341Y-68321000D01*
X165093813Y-68326395D01*
X165110748Y-68519955D01*
X165113937Y-68556408D01*
X165175097Y-68784663D01*
X165177384Y-68789567D01*
X165177386Y-68789573D01*
X165264631Y-68976669D01*
X165274965Y-68998829D01*
X165278072Y-69003266D01*
X165278073Y-69003268D01*
X165407399Y-69187966D01*
X165407403Y-69187970D01*
X165410505Y-69192401D01*
X165577599Y-69359495D01*
X165771170Y-69495035D01*
X165985337Y-69594903D01*
X166069137Y-69617357D01*
X166208366Y-69654663D01*
X166208369Y-69654664D01*
X166213592Y-69656063D01*
X166218979Y-69656534D01*
X166218983Y-69656535D01*
X166443605Y-69676187D01*
X166449000Y-69676659D01*
X166454395Y-69676187D01*
X166679017Y-69656535D01*
X166679021Y-69656534D01*
X166684408Y-69656063D01*
X166689631Y-69654664D01*
X166689634Y-69654663D01*
X166828863Y-69617357D01*
X166912663Y-69594903D01*
X167126830Y-69495035D01*
X167320401Y-69359495D01*
X167487495Y-69192401D01*
X167490597Y-69187970D01*
X167490601Y-69187966D01*
X167619927Y-69003268D01*
X167619928Y-69003266D01*
X167623035Y-68998829D01*
X167633369Y-68976669D01*
X167720614Y-68789573D01*
X167720616Y-68789567D01*
X167722903Y-68784663D01*
X167784063Y-68556408D01*
X167787253Y-68519955D01*
X167804187Y-68326395D01*
X167804659Y-68321000D01*
X167804056Y-68314103D01*
X167784535Y-68090983D01*
X167784534Y-68090979D01*
X167784063Y-68085592D01*
X167722903Y-67857337D01*
X167720616Y-67852433D01*
X167720614Y-67852427D01*
X167625325Y-67648082D01*
X167623035Y-67643171D01*
X167602099Y-67613271D01*
X167490601Y-67454034D01*
X167490597Y-67454030D01*
X167487495Y-67449599D01*
X167320401Y-67282505D01*
X167126830Y-67146965D01*
X166912663Y-67047097D01*
X166805556Y-67018398D01*
X166689634Y-66987337D01*
X166689631Y-66987336D01*
X166684408Y-66985937D01*
X166679021Y-66985466D01*
X166679017Y-66985465D01*
X166454395Y-66965813D01*
X166449000Y-66965341D01*
X166443605Y-66965813D01*
X166218983Y-66985465D01*
X166218979Y-66985466D01*
X166213592Y-66985937D01*
X166208369Y-66987336D01*
X166208366Y-66987337D01*
X166092444Y-67018398D01*
X165985337Y-67047097D01*
X165980433Y-67049384D01*
X165980427Y-67049386D01*
X165806905Y-67130302D01*
X165771171Y-67146965D01*
X165766734Y-67150072D01*
X165766732Y-67150073D01*
X165582034Y-67279399D01*
X165582033Y-67279400D01*
X165577599Y-67282505D01*
X165410505Y-67449599D01*
X165407403Y-67454030D01*
X165407399Y-67454034D01*
X165295901Y-67613271D01*
X165274965Y-67643171D01*
X165272675Y-67648082D01*
X165177386Y-67852427D01*
X165177384Y-67852433D01*
X165175097Y-67857337D01*
X165113937Y-68085592D01*
X165113466Y-68090979D01*
X165113465Y-68090983D01*
X165093944Y-68314103D01*
X165093341Y-68321000D01*
X134163073Y-68321000D01*
X134163504Y-68319730D01*
X134193846Y-68110470D01*
X134195429Y-68050000D01*
X134176081Y-67839440D01*
X134118686Y-67635931D01*
X134025165Y-67446290D01*
X133898651Y-67276867D01*
X133894481Y-67273012D01*
X133894478Y-67273009D01*
X133830319Y-67213702D01*
X133743381Y-67133337D01*
X133610329Y-67049387D01*
X133569363Y-67023539D01*
X133569361Y-67023538D01*
X133564554Y-67020505D01*
X133368160Y-66942152D01*
X133362579Y-66941042D01*
X133362576Y-66941041D01*
X133166355Y-66902011D01*
X133166356Y-66902011D01*
X133160775Y-66900901D01*
X133160744Y-66900901D01*
X133097828Y-66875019D01*
X133057841Y-66817723D01*
X133055178Y-66747904D01*
X133090684Y-66687729D01*
X133157606Y-66655562D01*
X133304103Y-66634320D01*
X133304104Y-66634320D01*
X133309730Y-66633504D01*
X133388890Y-66606633D01*
X133504565Y-66567367D01*
X133504568Y-66567366D01*
X133509955Y-66565537D01*
X133514916Y-66562759D01*
X133514922Y-66562756D01*
X133621530Y-66503052D01*
X133694442Y-66462219D01*
X133857012Y-66327012D01*
X133875648Y-66304605D01*
X133988584Y-66168813D01*
X133988585Y-66168811D01*
X133992219Y-66164442D01*
X134038078Y-66082556D01*
X134092756Y-65984922D01*
X134092759Y-65984916D01*
X134095537Y-65979955D01*
X134126009Y-65890189D01*
X134161675Y-65785118D01*
X134163504Y-65779730D01*
X134193846Y-65570470D01*
X134195429Y-65510000D01*
X134176081Y-65299440D01*
X134118686Y-65095931D01*
X134025165Y-64906290D01*
X133898651Y-64736867D01*
X133894481Y-64733012D01*
X133894478Y-64733009D01*
X133830319Y-64673702D01*
X133743381Y-64593337D01*
X133738571Y-64590302D01*
X133569363Y-64483539D01*
X133569361Y-64483538D01*
X133564554Y-64480505D01*
X133368160Y-64402152D01*
X133362579Y-64401042D01*
X133362576Y-64401041D01*
X133166355Y-64362011D01*
X133166356Y-64362011D01*
X133160775Y-64360901D01*
X133160744Y-64360901D01*
X133099352Y-64335646D01*
X165098500Y-64335646D01*
X165101618Y-64361846D01*
X165147061Y-64464153D01*
X165226287Y-64543241D01*
X165236758Y-64547870D01*
X165236759Y-64547871D01*
X165320147Y-64584737D01*
X165320149Y-64584738D01*
X165328673Y-64588506D01*
X165354354Y-64591500D01*
X167543646Y-64591500D01*
X167547300Y-64591065D01*
X167547302Y-64591065D01*
X167552266Y-64590474D01*
X167569846Y-64588382D01*
X167672153Y-64542939D01*
X167751241Y-64463713D01*
X167755871Y-64453241D01*
X167792737Y-64369853D01*
X167792738Y-64369851D01*
X167796506Y-64361327D01*
X167799500Y-64335646D01*
X167799500Y-62146354D01*
X167796382Y-62120154D01*
X167750939Y-62017847D01*
X167671713Y-61938759D01*
X167661242Y-61934130D01*
X167661241Y-61934129D01*
X167577853Y-61897263D01*
X167577851Y-61897262D01*
X167569327Y-61893494D01*
X167543646Y-61890500D01*
X165354354Y-61890500D01*
X165350700Y-61890935D01*
X165350698Y-61890935D01*
X165345734Y-61891526D01*
X165328154Y-61893618D01*
X165225847Y-61939061D01*
X165146759Y-62018287D01*
X165142130Y-62028758D01*
X165142129Y-62028759D01*
X165140550Y-62032332D01*
X165101494Y-62120673D01*
X165098500Y-62146354D01*
X165098500Y-64335646D01*
X133099352Y-64335646D01*
X133097828Y-64335019D01*
X133057841Y-64277723D01*
X133055178Y-64207904D01*
X133090684Y-64147729D01*
X133157606Y-64115562D01*
X133304103Y-64094320D01*
X133304104Y-64094320D01*
X133309730Y-64093504D01*
X133388890Y-64066633D01*
X133504565Y-64027367D01*
X133504568Y-64027366D01*
X133509955Y-64025537D01*
X133514916Y-64022759D01*
X133514922Y-64022756D01*
X133621530Y-63963052D01*
X133694442Y-63922219D01*
X133857012Y-63787012D01*
X133860644Y-63782645D01*
X133988584Y-63628813D01*
X133988585Y-63628811D01*
X133992219Y-63624442D01*
X134038078Y-63542556D01*
X134092756Y-63444922D01*
X134092759Y-63444916D01*
X134095537Y-63439955D01*
X134126009Y-63350189D01*
X134161675Y-63245118D01*
X134163504Y-63239730D01*
X134193846Y-63030470D01*
X134195429Y-62970000D01*
X134176081Y-62759440D01*
X134118686Y-62555931D01*
X134025165Y-62366290D01*
X133898651Y-62196867D01*
X133894481Y-62193012D01*
X133894478Y-62193009D01*
X133806468Y-62111654D01*
X133743381Y-62053337D01*
X133710090Y-62032332D01*
X133569363Y-61943539D01*
X133569361Y-61943538D01*
X133564554Y-61940505D01*
X133368160Y-61862152D01*
X133362579Y-61861042D01*
X133362576Y-61861041D01*
X133166355Y-61822011D01*
X133166356Y-61822011D01*
X133160775Y-61820901D01*
X133160744Y-61820901D01*
X133097828Y-61795019D01*
X133057841Y-61737723D01*
X133055178Y-61667904D01*
X133090684Y-61607729D01*
X133157606Y-61575562D01*
X133304103Y-61554320D01*
X133304104Y-61554320D01*
X133309730Y-61553504D01*
X133388890Y-61526633D01*
X133504565Y-61487367D01*
X133504568Y-61487366D01*
X133509955Y-61485537D01*
X133514916Y-61482759D01*
X133514922Y-61482756D01*
X133621530Y-61423052D01*
X133694442Y-61382219D01*
X133857012Y-61247012D01*
X133894155Y-61202352D01*
X133988584Y-61088813D01*
X133988585Y-61088811D01*
X133992219Y-61084442D01*
X134039403Y-61000189D01*
X134092756Y-60904922D01*
X134092759Y-60904916D01*
X134095537Y-60899955D01*
X134126009Y-60810189D01*
X134161675Y-60705118D01*
X134163504Y-60699730D01*
X134193846Y-60490470D01*
X134195429Y-60430000D01*
X134176081Y-60219440D01*
X134118686Y-60015931D01*
X134025165Y-59826290D01*
X133898651Y-59656867D01*
X133894481Y-59653012D01*
X133894478Y-59653009D01*
X133810263Y-59575162D01*
X133743381Y-59513337D01*
X133710090Y-59492332D01*
X133569363Y-59403539D01*
X133569361Y-59403538D01*
X133564554Y-59400505D01*
X133524122Y-59384374D01*
X133469151Y-59341251D01*
X133446220Y-59275251D01*
X133462611Y-59207332D01*
X133517667Y-59156821D01*
X133712671Y-59065889D01*
X133722017Y-59060493D01*
X133786768Y-59015152D01*
X133795011Y-59004841D01*
X133788055Y-58991608D01*
X133052607Y-58256160D01*
X133038887Y-58248668D01*
X133037081Y-58248797D01*
X133030574Y-58252979D01*
X132291234Y-58992319D01*
X132284907Y-59003905D01*
X132294055Y-59015729D01*
X132357983Y-59060493D01*
X132367329Y-59065889D01*
X132559698Y-59155592D01*
X132612137Y-59201764D01*
X132631289Y-59268958D01*
X132611073Y-59335839D01*
X132557908Y-59381174D01*
X132550212Y-59384309D01*
X132542575Y-59387127D01*
X132537697Y-59390029D01*
X132537695Y-59390030D01*
X132365740Y-59492332D01*
X132365737Y-59492334D01*
X132360856Y-59495238D01*
X132201881Y-59634655D01*
X132198362Y-59639119D01*
X132198359Y-59639122D01*
X132162005Y-59685238D01*
X132070976Y-59800708D01*
X131972523Y-59987836D01*
X131970837Y-59993267D01*
X131970835Y-59993271D01*
X131962103Y-60021393D01*
X131909820Y-60189773D01*
X131909152Y-60195418D01*
X131909151Y-60195422D01*
X131890291Y-60354770D01*
X131884967Y-60399754D01*
X131885338Y-60405416D01*
X131885338Y-60405420D01*
X131886949Y-60430000D01*
X131898796Y-60610749D01*
X131950845Y-60815690D01*
X131953219Y-60820841D01*
X131953221Y-60820845D01*
X131991981Y-60904922D01*
X132039369Y-61007714D01*
X132042647Y-61012352D01*
X132101002Y-61094922D01*
X132161405Y-61180391D01*
X132165476Y-61184357D01*
X132165477Y-61184358D01*
X132206792Y-61224605D01*
X132312865Y-61327937D01*
X132317588Y-61331093D01*
X132317592Y-61331096D01*
X132369459Y-61365752D01*
X132488677Y-61445411D01*
X132682953Y-61528878D01*
X132746283Y-61543208D01*
X132883638Y-61574289D01*
X132883642Y-61574290D01*
X132889186Y-61575544D01*
X132908328Y-61576296D01*
X132974543Y-61598596D01*
X133018190Y-61653156D01*
X133025412Y-61722651D01*
X132993914Y-61785018D01*
X132933699Y-61820457D01*
X132924460Y-61822409D01*
X132746550Y-61852979D01*
X132746547Y-61852980D01*
X132740953Y-61853941D01*
X132542575Y-61927127D01*
X132537697Y-61930029D01*
X132537695Y-61930030D01*
X132365740Y-62032332D01*
X132365737Y-62032334D01*
X132360856Y-62035238D01*
X132201881Y-62174655D01*
X132198362Y-62179119D01*
X132198359Y-62179122D01*
X132180782Y-62201419D01*
X132070976Y-62340708D01*
X131972523Y-62527836D01*
X131970837Y-62533267D01*
X131970835Y-62533271D01*
X131913203Y-62718879D01*
X131909820Y-62729773D01*
X131909152Y-62735418D01*
X131909151Y-62735422D01*
X131885635Y-62934110D01*
X131884967Y-62939754D01*
X131885338Y-62945416D01*
X131885338Y-62945420D01*
X131886949Y-62970000D01*
X131898796Y-63150749D01*
X131950845Y-63355690D01*
X131953219Y-63360841D01*
X131953221Y-63360845D01*
X131991981Y-63444922D01*
X132039369Y-63547714D01*
X132161405Y-63720391D01*
X132312865Y-63867937D01*
X132317588Y-63871093D01*
X132317592Y-63871096D01*
X132388663Y-63918584D01*
X132488677Y-63985411D01*
X132682953Y-64068878D01*
X132746283Y-64083208D01*
X132883638Y-64114289D01*
X132883642Y-64114290D01*
X132889186Y-64115544D01*
X132908328Y-64116296D01*
X132974543Y-64138596D01*
X133018190Y-64193156D01*
X133025412Y-64262651D01*
X132993914Y-64325018D01*
X132933699Y-64360457D01*
X132924460Y-64362409D01*
X132746550Y-64392979D01*
X132746547Y-64392980D01*
X132740953Y-64393941D01*
X132542575Y-64467127D01*
X132537697Y-64470029D01*
X132537695Y-64470030D01*
X132365740Y-64572332D01*
X132365737Y-64572334D01*
X132360856Y-64575238D01*
X132201881Y-64714655D01*
X132198362Y-64719119D01*
X132198359Y-64719122D01*
X132180782Y-64741419D01*
X132070976Y-64880708D01*
X131972523Y-65067836D01*
X131909820Y-65269773D01*
X131909152Y-65275418D01*
X131909151Y-65275422D01*
X131890291Y-65434770D01*
X131884967Y-65479754D01*
X131885338Y-65485416D01*
X131885338Y-65485420D01*
X131886949Y-65510000D01*
X131898796Y-65690749D01*
X131950845Y-65895690D01*
X131953219Y-65900841D01*
X131953221Y-65900845D01*
X131991981Y-65984922D01*
X132039369Y-66087714D01*
X132161405Y-66260391D01*
X132312865Y-66407937D01*
X132317588Y-66411093D01*
X132317592Y-66411096D01*
X132388663Y-66458584D01*
X132488677Y-66525411D01*
X132682953Y-66608878D01*
X132746283Y-66623208D01*
X132883638Y-66654289D01*
X132883642Y-66654290D01*
X132889186Y-66655544D01*
X132908328Y-66656296D01*
X132974543Y-66678596D01*
X133018190Y-66733156D01*
X133025412Y-66802651D01*
X132993914Y-66865018D01*
X132933699Y-66900457D01*
X132924460Y-66902409D01*
X132746550Y-66932979D01*
X132746547Y-66932980D01*
X132740953Y-66933941D01*
X132542575Y-67007127D01*
X132537697Y-67010029D01*
X132537695Y-67010030D01*
X132365740Y-67112332D01*
X132365737Y-67112334D01*
X132360856Y-67115238D01*
X132201881Y-67254655D01*
X132198362Y-67259119D01*
X132198359Y-67259122D01*
X132180782Y-67281419D01*
X132070976Y-67420708D01*
X131972523Y-67607836D01*
X131970837Y-67613267D01*
X131970835Y-67613271D01*
X131913203Y-67798879D01*
X131909820Y-67809773D01*
X131909152Y-67815418D01*
X131909151Y-67815422D01*
X131904190Y-67857337D01*
X131884967Y-68019754D01*
X131885338Y-68025416D01*
X131885338Y-68025420D01*
X131889282Y-68085592D01*
X131898796Y-68230749D01*
X131950845Y-68435690D01*
X131953219Y-68440841D01*
X131953221Y-68440845D01*
X132008906Y-68561634D01*
X132039369Y-68627714D01*
X132042647Y-68632352D01*
X132153760Y-68789573D01*
X132161405Y-68800391D01*
X132312865Y-68947937D01*
X132317588Y-68951093D01*
X132317592Y-68951096D01*
X132381680Y-68993918D01*
X132488677Y-69065411D01*
X132682953Y-69148878D01*
X132746283Y-69163208D01*
X132883638Y-69194289D01*
X132883642Y-69194290D01*
X132889186Y-69195544D01*
X132908328Y-69196296D01*
X132974543Y-69218596D01*
X133018190Y-69273156D01*
X133025412Y-69342651D01*
X132993914Y-69405018D01*
X132933699Y-69440457D01*
X132924460Y-69442409D01*
X132746550Y-69472979D01*
X132746547Y-69472980D01*
X132740953Y-69473941D01*
X132542575Y-69547127D01*
X132537697Y-69550029D01*
X132537695Y-69550030D01*
X132365740Y-69652332D01*
X132365737Y-69652334D01*
X132360856Y-69655238D01*
X132201881Y-69794655D01*
X132198362Y-69799119D01*
X132198359Y-69799122D01*
X132180782Y-69821419D01*
X132070976Y-69960708D01*
X131972523Y-70147836D01*
X131909820Y-70349773D01*
X131909152Y-70355418D01*
X131909151Y-70355422D01*
X131890291Y-70514770D01*
X131884967Y-70559754D01*
X131885338Y-70565416D01*
X131885338Y-70565420D01*
X131886949Y-70590000D01*
X131898796Y-70770749D01*
X131950845Y-70975690D01*
X131953219Y-70980841D01*
X131953221Y-70980845D01*
X131991981Y-71064922D01*
X132039369Y-71167714D01*
X132161405Y-71340391D01*
X132312865Y-71487937D01*
X132317588Y-71491093D01*
X132317592Y-71491096D01*
X132388663Y-71538584D01*
X132488677Y-71605411D01*
X132682953Y-71688878D01*
X132746283Y-71703208D01*
X132883638Y-71734289D01*
X132883642Y-71734290D01*
X132889186Y-71735544D01*
X132908328Y-71736296D01*
X132974543Y-71758596D01*
X133018190Y-71813156D01*
X133025412Y-71882651D01*
X132993914Y-71945018D01*
X132933699Y-71980457D01*
X132924460Y-71982409D01*
X132746550Y-72012979D01*
X132746547Y-72012980D01*
X132740953Y-72013941D01*
X132542575Y-72087127D01*
X132537697Y-72090029D01*
X132537695Y-72090030D01*
X132365740Y-72192332D01*
X132365737Y-72192334D01*
X132360856Y-72195238D01*
X132201881Y-72334655D01*
X132198362Y-72339119D01*
X132198359Y-72339122D01*
X132180782Y-72361419D01*
X132070976Y-72500708D01*
X131972523Y-72687836D01*
X131970837Y-72693267D01*
X131970835Y-72693271D01*
X131913203Y-72878879D01*
X131909820Y-72889773D01*
X131909152Y-72895418D01*
X131909151Y-72895422D01*
X131891779Y-73042203D01*
X131884967Y-73099754D01*
X131885338Y-73105416D01*
X131885338Y-73105420D01*
X131889088Y-73162629D01*
X131898796Y-73310749D01*
X131950845Y-73515690D01*
X131953219Y-73520841D01*
X131953221Y-73520845D01*
X132036991Y-73702556D01*
X132039369Y-73707714D01*
X132161405Y-73880391D01*
X132165476Y-73884357D01*
X132165477Y-73884358D01*
X132225310Y-73942645D01*
X132312865Y-74027937D01*
X132317588Y-74031093D01*
X132317592Y-74031096D01*
X132388663Y-74078584D01*
X132488677Y-74145411D01*
X132682953Y-74228878D01*
X132746283Y-74243208D01*
X132883638Y-74274289D01*
X132883642Y-74274290D01*
X132889186Y-74275544D01*
X132908328Y-74276296D01*
X132974543Y-74298596D01*
X133018190Y-74353156D01*
X133025412Y-74422651D01*
X132993914Y-74485018D01*
X132933699Y-74520457D01*
X132924460Y-74522409D01*
X132746550Y-74552979D01*
X132746547Y-74552980D01*
X132740953Y-74553941D01*
X132542575Y-74627127D01*
X132537697Y-74630029D01*
X132537695Y-74630030D01*
X132365740Y-74732332D01*
X132365737Y-74732334D01*
X132360856Y-74735238D01*
X132201881Y-74874655D01*
X132198362Y-74879119D01*
X132198359Y-74879122D01*
X132180782Y-74901419D01*
X132070976Y-75040708D01*
X131972523Y-75227836D01*
X131909820Y-75429773D01*
X131909152Y-75435418D01*
X131909151Y-75435422D01*
X131890291Y-75594770D01*
X131884967Y-75639754D01*
X131885338Y-75645416D01*
X131885338Y-75645420D01*
X131886949Y-75670000D01*
X131898796Y-75850749D01*
X131950845Y-76055690D01*
X131953219Y-76060841D01*
X131953221Y-76060845D01*
X131991981Y-76144922D01*
X132039369Y-76247714D01*
X132161405Y-76420391D01*
X132312865Y-76567937D01*
X132317588Y-76571093D01*
X132317592Y-76571096D01*
X132388663Y-76618584D01*
X132488677Y-76685411D01*
X132682953Y-76768878D01*
X132746283Y-76783208D01*
X132883638Y-76814289D01*
X132883642Y-76814290D01*
X132889186Y-76815544D01*
X132908328Y-76816296D01*
X132974543Y-76838596D01*
X133018190Y-76893156D01*
X133025412Y-76962651D01*
X132993914Y-77025018D01*
X132933699Y-77060457D01*
X132924460Y-77062409D01*
X132746550Y-77092979D01*
X132746547Y-77092980D01*
X132740953Y-77093941D01*
X132542575Y-77167127D01*
X132537697Y-77170029D01*
X132537695Y-77170030D01*
X132365740Y-77272332D01*
X132365737Y-77272334D01*
X132360856Y-77275238D01*
X132201881Y-77414655D01*
X132198362Y-77419119D01*
X132198359Y-77419122D01*
X132180782Y-77441419D01*
X132070976Y-77580708D01*
X131972523Y-77767836D01*
X131970837Y-77773267D01*
X131970835Y-77773271D01*
X131913203Y-77958879D01*
X131909820Y-77969773D01*
X131909152Y-77975418D01*
X131909151Y-77975422D01*
X131885635Y-78174110D01*
X131884967Y-78179754D01*
X131885338Y-78185416D01*
X131885338Y-78185420D01*
X131886949Y-78210000D01*
X131898796Y-78390749D01*
X131950845Y-78595690D01*
X131953219Y-78600841D01*
X131953221Y-78600845D01*
X131991981Y-78684922D01*
X132039369Y-78787714D01*
X132161405Y-78960391D01*
X132312865Y-79107937D01*
X132317588Y-79111093D01*
X132317592Y-79111096D01*
X132388663Y-79158584D01*
X132488677Y-79225411D01*
X132682953Y-79308878D01*
X132746283Y-79323208D01*
X132883638Y-79354289D01*
X132883642Y-79354290D01*
X132889186Y-79355544D01*
X132908328Y-79356296D01*
X132974543Y-79378596D01*
X133018190Y-79433156D01*
X133025412Y-79502651D01*
X132993914Y-79565018D01*
X132933699Y-79600457D01*
X132924460Y-79602409D01*
X132746550Y-79632979D01*
X132746547Y-79632980D01*
X132740953Y-79633941D01*
X132542575Y-79707127D01*
X132537697Y-79710029D01*
X132537695Y-79710030D01*
X132365740Y-79812332D01*
X132365737Y-79812334D01*
X132360856Y-79815238D01*
X132201881Y-79954655D01*
X132198362Y-79959119D01*
X132198359Y-79959122D01*
X132180782Y-79981419D01*
X132070976Y-80120708D01*
X131972523Y-80307836D01*
X131909820Y-80509773D01*
X131909152Y-80515418D01*
X131909151Y-80515422D01*
X131890291Y-80674770D01*
X131884967Y-80719754D01*
X131885338Y-80725416D01*
X131885338Y-80725420D01*
X131886949Y-80750000D01*
X131898796Y-80930749D01*
X131950845Y-81135690D01*
X131953219Y-81140841D01*
X131953221Y-81140845D01*
X131991981Y-81224922D01*
X132039369Y-81327714D01*
X132042647Y-81332352D01*
X132149971Y-81484212D01*
X132161405Y-81500391D01*
X132165476Y-81504357D01*
X132165477Y-81504358D01*
X132176757Y-81515346D01*
X132312865Y-81647937D01*
X132317588Y-81651093D01*
X132317592Y-81651096D01*
X132372732Y-81687939D01*
X132488677Y-81765411D01*
X132682953Y-81848878D01*
X132746283Y-81863208D01*
X132883638Y-81894289D01*
X132883642Y-81894290D01*
X132889186Y-81895544D01*
X132908328Y-81896296D01*
X132974543Y-81918596D01*
X133018190Y-81973156D01*
X133025412Y-82042651D01*
X132993914Y-82105018D01*
X132933699Y-82140457D01*
X132924460Y-82142409D01*
X132746550Y-82172979D01*
X132746547Y-82172980D01*
X132740953Y-82173941D01*
X132542575Y-82247127D01*
X132537697Y-82250029D01*
X132537695Y-82250030D01*
X132365740Y-82352332D01*
X132365737Y-82352334D01*
X132360856Y-82355238D01*
X132201881Y-82494655D01*
X132198362Y-82499119D01*
X132198359Y-82499122D01*
X132180782Y-82521419D01*
X132070976Y-82660708D01*
X131972523Y-82847836D01*
X131970837Y-82853267D01*
X131970835Y-82853271D01*
X131913203Y-83038879D01*
X131909820Y-83049773D01*
X131909152Y-83055418D01*
X131909151Y-83055422D01*
X131885635Y-83254110D01*
X131884967Y-83259754D01*
X131885338Y-83265416D01*
X131885338Y-83265420D01*
X131886949Y-83290000D01*
X131898796Y-83470749D01*
X131950845Y-83675690D01*
X131953219Y-83680841D01*
X131953221Y-83680845D01*
X131991981Y-83764922D01*
X132039369Y-83867714D01*
X132161405Y-84040391D01*
X132312865Y-84187937D01*
X132317588Y-84191093D01*
X132317592Y-84191096D01*
X132388663Y-84238584D01*
X132488677Y-84305411D01*
X132682953Y-84388878D01*
X132746283Y-84403208D01*
X132883638Y-84434289D01*
X132883642Y-84434290D01*
X132889186Y-84435544D01*
X132908328Y-84436296D01*
X132974543Y-84458596D01*
X133018190Y-84513156D01*
X133025412Y-84582651D01*
X132993914Y-84645018D01*
X132933699Y-84680457D01*
X132924460Y-84682409D01*
X132746550Y-84712979D01*
X132746547Y-84712980D01*
X132740953Y-84713941D01*
X132542575Y-84787127D01*
X132537697Y-84790029D01*
X132537695Y-84790030D01*
X132365740Y-84892332D01*
X132365737Y-84892334D01*
X132360856Y-84895238D01*
X132201881Y-85034655D01*
X132198362Y-85039119D01*
X132198359Y-85039122D01*
X132180782Y-85061419D01*
X132070976Y-85200708D01*
X131972523Y-85387836D01*
X131970837Y-85393267D01*
X131970835Y-85393271D01*
X131948252Y-85466000D01*
X131909820Y-85589773D01*
X131909152Y-85595418D01*
X131909151Y-85595422D01*
X131890291Y-85754770D01*
X131884967Y-85799754D01*
X131885338Y-85805416D01*
X131885338Y-85805420D01*
X131886949Y-85830000D01*
X131898796Y-86010749D01*
X131950845Y-86215690D01*
X131953219Y-86220841D01*
X131953221Y-86220845D01*
X132030910Y-86389366D01*
X132039369Y-86407714D01*
X132042647Y-86412352D01*
X132105060Y-86500664D01*
X132161405Y-86580391D01*
X132312865Y-86727937D01*
X132317588Y-86731093D01*
X132317592Y-86731096D01*
X132388663Y-86778584D01*
X132488677Y-86845411D01*
X132682953Y-86928878D01*
X132746283Y-86943208D01*
X132883638Y-86974289D01*
X132883642Y-86974290D01*
X132889186Y-86975544D01*
X132908328Y-86976296D01*
X132974543Y-86998596D01*
X133018190Y-87053156D01*
X133025412Y-87122651D01*
X132993914Y-87185018D01*
X132933699Y-87220457D01*
X132924460Y-87222409D01*
X132746550Y-87252979D01*
X132746547Y-87252980D01*
X132740953Y-87253941D01*
X132542575Y-87327127D01*
X132537697Y-87330029D01*
X132537695Y-87330030D01*
X132365740Y-87432332D01*
X132365737Y-87432334D01*
X132360856Y-87435238D01*
X132201881Y-87574655D01*
X132198362Y-87579119D01*
X132198359Y-87579122D01*
X132180782Y-87601419D01*
X132070976Y-87740708D01*
X131972523Y-87927836D01*
X131970837Y-87933267D01*
X131970835Y-87933271D01*
X131913203Y-88118879D01*
X131909820Y-88129773D01*
X131909152Y-88135418D01*
X131909151Y-88135422D01*
X131885635Y-88334110D01*
X131884967Y-88339754D01*
X131885338Y-88345416D01*
X131885338Y-88345420D01*
X131886949Y-88370000D01*
X131898796Y-88550749D01*
X131950845Y-88755690D01*
X131953219Y-88760841D01*
X131953221Y-88760845D01*
X131991981Y-88844922D01*
X132039369Y-88947714D01*
X132161405Y-89120391D01*
X132312865Y-89267937D01*
X132317588Y-89271093D01*
X132317592Y-89271096D01*
X132356528Y-89297112D01*
X132488677Y-89385411D01*
X132682953Y-89468878D01*
X132746283Y-89483208D01*
X132883638Y-89514289D01*
X132883642Y-89514290D01*
X132889186Y-89515544D01*
X132908328Y-89516296D01*
X132974543Y-89538596D01*
X133018190Y-89593156D01*
X133025412Y-89662651D01*
X132993914Y-89725018D01*
X132933699Y-89760457D01*
X132924460Y-89762409D01*
X132746550Y-89792979D01*
X132746547Y-89792980D01*
X132740953Y-89793941D01*
X132542575Y-89867127D01*
X132537697Y-89870029D01*
X132537695Y-89870030D01*
X132365740Y-89972332D01*
X132365737Y-89972334D01*
X132360856Y-89975238D01*
X132201881Y-90114655D01*
X132198362Y-90119119D01*
X132198359Y-90119122D01*
X132147986Y-90183021D01*
X132070976Y-90280708D01*
X131972523Y-90467836D01*
X131970837Y-90473267D01*
X131970835Y-90473271D01*
X131944338Y-90558607D01*
X131909820Y-90669773D01*
X131909152Y-90675418D01*
X131909151Y-90675422D01*
X131896256Y-90784371D01*
X131884967Y-90879754D01*
X131885338Y-90885416D01*
X131885338Y-90885420D01*
X131886882Y-90908979D01*
X131898796Y-91090749D01*
X131950845Y-91295690D01*
X131953219Y-91300841D01*
X131953221Y-91300845D01*
X132019368Y-91444329D01*
X132039369Y-91487714D01*
X132161405Y-91660391D01*
X132312865Y-91807937D01*
X132317588Y-91811093D01*
X132317592Y-91811096D01*
X132322835Y-91814599D01*
X132488677Y-91925411D01*
X132682953Y-92008878D01*
X132746283Y-92023208D01*
X132883638Y-92054289D01*
X132883642Y-92054290D01*
X132889186Y-92055544D01*
X132908328Y-92056296D01*
X132974543Y-92078596D01*
X133018190Y-92133156D01*
X133025412Y-92202651D01*
X132993914Y-92265018D01*
X132933699Y-92300457D01*
X132924460Y-92302409D01*
X132746550Y-92332979D01*
X132746547Y-92332980D01*
X132740953Y-92333941D01*
X132542575Y-92407127D01*
X132537697Y-92410029D01*
X132537695Y-92410030D01*
X132365740Y-92512332D01*
X132365737Y-92512334D01*
X132360856Y-92515238D01*
X132201881Y-92654655D01*
X132198362Y-92659119D01*
X132198359Y-92659122D01*
X132180782Y-92681419D01*
X132070976Y-92820708D01*
X131972523Y-93007836D01*
X131970837Y-93013267D01*
X131970835Y-93013271D01*
X131913203Y-93198879D01*
X131909820Y-93209773D01*
X131909152Y-93215418D01*
X131909151Y-93215422D01*
X131885635Y-93414110D01*
X131884967Y-93419754D01*
X131885338Y-93425416D01*
X131885338Y-93425420D01*
X131886949Y-93450000D01*
X131898796Y-93630749D01*
X131950845Y-93835690D01*
X131953219Y-93840841D01*
X131953221Y-93840845D01*
X131991981Y-93924922D01*
X132039369Y-94027714D01*
X132161405Y-94200391D01*
X132312865Y-94347937D01*
X132317588Y-94351093D01*
X132317592Y-94351096D01*
X132388663Y-94398584D01*
X132488677Y-94465411D01*
X132682953Y-94548878D01*
X132746283Y-94563208D01*
X132883638Y-94594289D01*
X132883642Y-94594290D01*
X132889186Y-94595544D01*
X132908328Y-94596296D01*
X132974543Y-94618596D01*
X133018190Y-94673156D01*
X133025412Y-94742651D01*
X132993914Y-94805018D01*
X132933699Y-94840457D01*
X132924460Y-94842409D01*
X132746550Y-94872979D01*
X132746547Y-94872980D01*
X132740953Y-94873941D01*
X132542575Y-94947127D01*
X132537697Y-94950029D01*
X132537695Y-94950030D01*
X132365740Y-95052332D01*
X132365737Y-95052334D01*
X132360856Y-95055238D01*
X132201881Y-95194655D01*
X132198362Y-95199119D01*
X132198359Y-95199122D01*
X132180782Y-95221419D01*
X132070976Y-95360708D01*
X131972523Y-95547836D01*
X131909820Y-95749773D01*
X131909152Y-95755418D01*
X131909151Y-95755422D01*
X131890291Y-95914770D01*
X131884967Y-95959754D01*
X131885338Y-95965416D01*
X131885338Y-95965420D01*
X131886949Y-95990000D01*
X131898796Y-96170749D01*
X131950845Y-96375690D01*
X131953219Y-96380841D01*
X131953221Y-96380845D01*
X131991981Y-96464922D01*
X132039369Y-96567714D01*
X132161405Y-96740391D01*
X132312865Y-96887937D01*
X132317588Y-96891093D01*
X132317592Y-96891096D01*
X132388663Y-96938584D01*
X132488677Y-97005411D01*
X132682953Y-97088878D01*
X132746283Y-97103208D01*
X132883638Y-97134289D01*
X132883642Y-97134290D01*
X132889186Y-97135544D01*
X132908328Y-97136296D01*
X132974543Y-97158596D01*
X133018190Y-97213156D01*
X133025412Y-97282651D01*
X132993914Y-97345018D01*
X132933699Y-97380457D01*
X132924460Y-97382409D01*
X132746550Y-97412979D01*
X132746547Y-97412980D01*
X132740953Y-97413941D01*
X132542575Y-97487127D01*
X132537697Y-97490029D01*
X132537695Y-97490030D01*
X132365740Y-97592332D01*
X132365737Y-97592334D01*
X132360856Y-97595238D01*
X132201881Y-97734655D01*
X132198362Y-97739119D01*
X132198359Y-97739122D01*
X132180782Y-97761419D01*
X132070976Y-97900708D01*
X131972523Y-98087836D01*
X131970837Y-98093267D01*
X131970835Y-98093271D01*
X131913203Y-98278879D01*
X131909820Y-98289773D01*
X131909152Y-98295418D01*
X131909151Y-98295422D01*
X131885635Y-98494110D01*
X131884967Y-98499754D01*
X131885338Y-98505416D01*
X131885338Y-98505420D01*
X131886949Y-98530000D01*
X131898796Y-98710749D01*
X131950845Y-98915690D01*
X131953219Y-98920841D01*
X131953221Y-98920845D01*
X131991981Y-99004922D01*
X132039369Y-99107714D01*
X132161405Y-99280391D01*
X132312865Y-99427937D01*
X132317588Y-99431093D01*
X132317592Y-99431096D01*
X132388663Y-99478584D01*
X132488677Y-99545411D01*
X132682953Y-99628878D01*
X132746283Y-99643208D01*
X132883638Y-99674289D01*
X132883642Y-99674290D01*
X132889186Y-99675544D01*
X132908328Y-99676296D01*
X132974543Y-99698596D01*
X133018190Y-99753156D01*
X133025412Y-99822651D01*
X132993914Y-99885018D01*
X132933699Y-99920457D01*
X132924460Y-99922409D01*
X132746550Y-99952979D01*
X132746547Y-99952980D01*
X132740953Y-99953941D01*
X132542575Y-100027127D01*
X132537697Y-100030029D01*
X132537695Y-100030030D01*
X132365740Y-100132332D01*
X132365737Y-100132334D01*
X132360856Y-100135238D01*
X132201881Y-100274655D01*
X132198362Y-100279119D01*
X132198359Y-100279122D01*
X132155624Y-100333332D01*
X132070976Y-100440708D01*
X131972523Y-100627836D01*
X131970837Y-100633267D01*
X131970835Y-100633271D01*
X131927468Y-100772937D01*
X131909820Y-100829773D01*
X131909152Y-100835418D01*
X131909151Y-100835422D01*
X131887656Y-101017035D01*
X131884967Y-101039754D01*
X118952650Y-101039754D01*
X118936081Y-100859440D01*
X118878686Y-100655931D01*
X118785165Y-100466290D01*
X118658651Y-100296867D01*
X118654481Y-100293012D01*
X118654478Y-100293009D01*
X118590319Y-100233702D01*
X118503381Y-100153337D01*
X118324554Y-100040505D01*
X118128160Y-99962152D01*
X118122579Y-99961042D01*
X118122576Y-99961041D01*
X117926355Y-99922011D01*
X117926356Y-99922011D01*
X117920775Y-99920901D01*
X117920744Y-99920901D01*
X117857828Y-99895019D01*
X117817841Y-99837723D01*
X117815178Y-99767904D01*
X117850684Y-99707729D01*
X117917606Y-99675562D01*
X118064103Y-99654320D01*
X118064104Y-99654320D01*
X118069730Y-99653504D01*
X118148890Y-99626633D01*
X118264565Y-99587367D01*
X118264568Y-99587366D01*
X118269955Y-99585537D01*
X118274916Y-99582759D01*
X118274922Y-99582756D01*
X118381530Y-99523052D01*
X118454442Y-99482219D01*
X118617012Y-99347012D01*
X118620644Y-99342645D01*
X118748584Y-99188813D01*
X118748585Y-99188811D01*
X118752219Y-99184442D01*
X118798078Y-99102556D01*
X118852756Y-99004922D01*
X118852759Y-99004916D01*
X118855537Y-98999955D01*
X118886009Y-98910189D01*
X118921675Y-98805118D01*
X118923504Y-98799730D01*
X118953846Y-98590470D01*
X118955429Y-98530000D01*
X118936081Y-98319440D01*
X118878686Y-98115931D01*
X118785165Y-97926290D01*
X118658651Y-97756867D01*
X118654481Y-97753012D01*
X118654478Y-97753009D01*
X118590319Y-97693702D01*
X118503381Y-97613337D01*
X118324554Y-97500505D01*
X118128160Y-97422152D01*
X118122579Y-97421042D01*
X118122576Y-97421041D01*
X117926355Y-97382011D01*
X117926356Y-97382011D01*
X117920775Y-97380901D01*
X117920744Y-97380901D01*
X117857828Y-97355019D01*
X117817841Y-97297723D01*
X117815178Y-97227904D01*
X117850684Y-97167729D01*
X117917606Y-97135562D01*
X118064103Y-97114320D01*
X118064104Y-97114320D01*
X118069730Y-97113504D01*
X118148890Y-97086633D01*
X118264565Y-97047367D01*
X118264568Y-97047366D01*
X118269955Y-97045537D01*
X118274916Y-97042759D01*
X118274922Y-97042756D01*
X118381530Y-96983052D01*
X118454442Y-96942219D01*
X118617012Y-96807012D01*
X118635648Y-96784605D01*
X118748584Y-96648813D01*
X118748585Y-96648811D01*
X118752219Y-96644442D01*
X118798078Y-96562556D01*
X118852756Y-96464922D01*
X118852759Y-96464916D01*
X118855537Y-96459955D01*
X118886009Y-96370189D01*
X118921675Y-96265118D01*
X118923504Y-96259730D01*
X118953846Y-96050470D01*
X118955429Y-95990000D01*
X118936081Y-95779440D01*
X118878686Y-95575931D01*
X118785165Y-95386290D01*
X118658651Y-95216867D01*
X118654481Y-95213012D01*
X118654478Y-95213009D01*
X118590319Y-95153702D01*
X118503381Y-95073337D01*
X118324554Y-94960505D01*
X118128160Y-94882152D01*
X118122579Y-94881042D01*
X118122576Y-94881041D01*
X117926355Y-94842011D01*
X117926356Y-94842011D01*
X117920775Y-94840901D01*
X117920744Y-94840901D01*
X117857828Y-94815019D01*
X117817841Y-94757723D01*
X117815178Y-94687904D01*
X117850684Y-94627729D01*
X117917606Y-94595562D01*
X118064103Y-94574320D01*
X118064104Y-94574320D01*
X118069730Y-94573504D01*
X118148890Y-94546633D01*
X118264565Y-94507367D01*
X118264568Y-94507366D01*
X118269955Y-94505537D01*
X118274916Y-94502759D01*
X118274922Y-94502756D01*
X118381530Y-94443052D01*
X118454442Y-94402219D01*
X118617012Y-94267012D01*
X118620644Y-94262645D01*
X118748584Y-94108813D01*
X118748585Y-94108811D01*
X118752219Y-94104442D01*
X118798078Y-94022556D01*
X118852756Y-93924922D01*
X118852759Y-93924916D01*
X118855537Y-93919955D01*
X118886009Y-93830189D01*
X118921675Y-93725118D01*
X118923504Y-93719730D01*
X118953846Y-93510470D01*
X118955429Y-93450000D01*
X118936081Y-93239440D01*
X118878686Y-93035931D01*
X118785165Y-92846290D01*
X118658651Y-92676867D01*
X118654481Y-92673012D01*
X118654478Y-92673009D01*
X118590319Y-92613702D01*
X118503381Y-92533337D01*
X118324554Y-92420505D01*
X118128160Y-92342152D01*
X118122579Y-92341042D01*
X118122576Y-92341041D01*
X117926355Y-92302011D01*
X117926356Y-92302011D01*
X117920775Y-92300901D01*
X117920744Y-92300901D01*
X117857828Y-92275019D01*
X117817841Y-92217723D01*
X117815178Y-92147904D01*
X117850684Y-92087729D01*
X117917606Y-92055562D01*
X118064103Y-92034320D01*
X118064104Y-92034320D01*
X118069730Y-92033504D01*
X118148890Y-92006633D01*
X118264565Y-91967367D01*
X118264568Y-91967366D01*
X118269955Y-91965537D01*
X118274916Y-91962759D01*
X118274922Y-91962756D01*
X118381530Y-91903052D01*
X118454442Y-91862219D01*
X118509039Y-91816812D01*
X118612645Y-91730644D01*
X118617012Y-91727012D01*
X118635648Y-91704605D01*
X118748584Y-91568813D01*
X118748585Y-91568811D01*
X118752219Y-91564442D01*
X118798078Y-91482556D01*
X118852756Y-91384922D01*
X118852759Y-91384916D01*
X118855537Y-91379955D01*
X118886009Y-91290189D01*
X118921675Y-91185118D01*
X118923504Y-91179730D01*
X118953846Y-90970470D01*
X118955429Y-90910000D01*
X118936081Y-90699440D01*
X118878686Y-90495931D01*
X118785165Y-90306290D01*
X118658651Y-90136867D01*
X118654481Y-90133012D01*
X118654478Y-90133009D01*
X118576625Y-90061043D01*
X118503381Y-89993337D01*
X118324554Y-89880505D01*
X118128160Y-89802152D01*
X118122579Y-89801042D01*
X118122576Y-89801041D01*
X117926355Y-89762011D01*
X117926356Y-89762011D01*
X117920775Y-89760901D01*
X117920744Y-89760901D01*
X117857828Y-89735019D01*
X117817841Y-89677723D01*
X117815178Y-89607904D01*
X117850684Y-89547729D01*
X117917606Y-89515562D01*
X118064103Y-89494320D01*
X118064104Y-89494320D01*
X118069730Y-89493504D01*
X118148890Y-89466633D01*
X118264565Y-89427367D01*
X118264568Y-89427366D01*
X118269955Y-89425537D01*
X118274916Y-89422759D01*
X118274922Y-89422756D01*
X118381530Y-89363052D01*
X118454442Y-89322219D01*
X118499277Y-89284931D01*
X118612645Y-89190644D01*
X118617012Y-89187012D01*
X118640473Y-89158803D01*
X118748584Y-89028813D01*
X118748585Y-89028811D01*
X118752219Y-89024442D01*
X118798078Y-88942556D01*
X118852756Y-88844922D01*
X118852759Y-88844916D01*
X118855537Y-88839955D01*
X118886009Y-88750189D01*
X118921675Y-88645118D01*
X118923504Y-88639730D01*
X118953846Y-88430470D01*
X118955429Y-88370000D01*
X118936081Y-88159440D01*
X118878686Y-87955931D01*
X118785165Y-87766290D01*
X118658651Y-87596867D01*
X118654481Y-87593012D01*
X118654478Y-87593009D01*
X118590319Y-87533702D01*
X118503381Y-87453337D01*
X118324554Y-87340505D01*
X118128160Y-87262152D01*
X118122579Y-87261042D01*
X118122576Y-87261041D01*
X117926355Y-87222011D01*
X117926356Y-87222011D01*
X117920775Y-87220901D01*
X117920744Y-87220901D01*
X117857828Y-87195019D01*
X117817841Y-87137723D01*
X117815178Y-87067904D01*
X117850684Y-87007729D01*
X117917606Y-86975562D01*
X118064103Y-86954320D01*
X118064104Y-86954320D01*
X118069730Y-86953504D01*
X118148890Y-86926633D01*
X118264565Y-86887367D01*
X118264568Y-86887366D01*
X118269955Y-86885537D01*
X118274916Y-86882759D01*
X118274922Y-86882756D01*
X118384860Y-86821187D01*
X118454442Y-86782219D01*
X118508076Y-86737613D01*
X118612645Y-86650644D01*
X118617012Y-86647012D01*
X118635648Y-86624605D01*
X118748584Y-86488813D01*
X118748585Y-86488811D01*
X118752219Y-86484442D01*
X118798078Y-86402556D01*
X118852756Y-86304922D01*
X118852759Y-86304916D01*
X118855537Y-86299955D01*
X118886009Y-86210189D01*
X118921675Y-86105118D01*
X118923504Y-86099730D01*
X118953846Y-85890470D01*
X118955429Y-85830000D01*
X118936081Y-85619440D01*
X118878686Y-85415931D01*
X118785165Y-85226290D01*
X118658651Y-85056867D01*
X118654481Y-85053012D01*
X118654478Y-85053009D01*
X118590319Y-84993702D01*
X118503381Y-84913337D01*
X118324554Y-84800505D01*
X118128160Y-84722152D01*
X118122579Y-84721042D01*
X118122576Y-84721041D01*
X117926355Y-84682011D01*
X117926356Y-84682011D01*
X117920775Y-84680901D01*
X117920744Y-84680901D01*
X117857828Y-84655019D01*
X117817841Y-84597723D01*
X117815178Y-84527904D01*
X117850684Y-84467729D01*
X117917606Y-84435562D01*
X118064103Y-84414320D01*
X118064104Y-84414320D01*
X118069730Y-84413504D01*
X118148890Y-84386633D01*
X118264565Y-84347367D01*
X118264568Y-84347366D01*
X118269955Y-84345537D01*
X118274916Y-84342759D01*
X118274922Y-84342756D01*
X118381530Y-84283052D01*
X118454442Y-84242219D01*
X118511956Y-84194386D01*
X118612645Y-84110644D01*
X118617012Y-84107012D01*
X118620644Y-84102645D01*
X118748584Y-83948813D01*
X118748585Y-83948811D01*
X118752219Y-83944442D01*
X118798078Y-83862556D01*
X118852756Y-83764922D01*
X118852759Y-83764916D01*
X118855537Y-83759955D01*
X118886009Y-83670189D01*
X118921675Y-83565118D01*
X118923504Y-83559730D01*
X118953846Y-83350470D01*
X118955429Y-83290000D01*
X118936081Y-83079440D01*
X118878686Y-82875931D01*
X118785165Y-82686290D01*
X118658651Y-82516867D01*
X118654481Y-82513012D01*
X118654478Y-82513009D01*
X118590319Y-82453702D01*
X118503381Y-82373337D01*
X118324554Y-82260505D01*
X118128160Y-82182152D01*
X118122579Y-82181042D01*
X118122576Y-82181041D01*
X117926355Y-82142011D01*
X117926356Y-82142011D01*
X117920775Y-82140901D01*
X117920744Y-82140901D01*
X117857828Y-82115019D01*
X117817841Y-82057723D01*
X117815178Y-81987904D01*
X117850684Y-81927729D01*
X117917606Y-81895562D01*
X118064103Y-81874320D01*
X118064104Y-81874320D01*
X118069730Y-81873504D01*
X118148890Y-81846633D01*
X118264565Y-81807367D01*
X118264568Y-81807366D01*
X118269955Y-81805537D01*
X118274916Y-81802759D01*
X118274922Y-81802756D01*
X118394006Y-81736065D01*
X118454442Y-81702219D01*
X118617012Y-81567012D01*
X118667483Y-81506327D01*
X118748584Y-81408813D01*
X118748585Y-81408811D01*
X118752219Y-81404442D01*
X118798078Y-81322556D01*
X118852756Y-81224922D01*
X118852759Y-81224916D01*
X118855537Y-81219955D01*
X118886009Y-81130189D01*
X118921675Y-81025118D01*
X118923504Y-81019730D01*
X118953846Y-80810470D01*
X118955429Y-80750000D01*
X118936081Y-80539440D01*
X118878686Y-80335931D01*
X118785165Y-80146290D01*
X118658651Y-79976867D01*
X118654481Y-79973012D01*
X118654478Y-79973009D01*
X118590319Y-79913702D01*
X118503381Y-79833337D01*
X118324554Y-79720505D01*
X118128160Y-79642152D01*
X118122579Y-79641042D01*
X118122576Y-79641041D01*
X117926355Y-79602011D01*
X117926356Y-79602011D01*
X117920775Y-79600901D01*
X117920744Y-79600901D01*
X117857828Y-79575019D01*
X117817841Y-79517723D01*
X117815178Y-79447904D01*
X117850684Y-79387729D01*
X117917606Y-79355562D01*
X118064103Y-79334320D01*
X118064104Y-79334320D01*
X118069730Y-79333504D01*
X118148890Y-79306633D01*
X118264565Y-79267367D01*
X118264568Y-79267366D01*
X118269955Y-79265537D01*
X118274916Y-79262759D01*
X118274922Y-79262756D01*
X118381530Y-79203052D01*
X118454442Y-79162219D01*
X118617012Y-79027012D01*
X118620644Y-79022645D01*
X118748584Y-78868813D01*
X118748585Y-78868811D01*
X118752219Y-78864442D01*
X118798078Y-78782556D01*
X118852756Y-78684922D01*
X118852759Y-78684916D01*
X118855537Y-78679955D01*
X118886009Y-78590189D01*
X118921675Y-78485118D01*
X118923504Y-78479730D01*
X118953846Y-78270470D01*
X118955429Y-78210000D01*
X118936081Y-77999440D01*
X118878686Y-77795931D01*
X118785165Y-77606290D01*
X118658651Y-77436867D01*
X118654481Y-77433012D01*
X118654478Y-77433009D01*
X118590319Y-77373702D01*
X118503381Y-77293337D01*
X118324554Y-77180505D01*
X118128160Y-77102152D01*
X118122579Y-77101042D01*
X118122576Y-77101041D01*
X117926355Y-77062011D01*
X117926356Y-77062011D01*
X117920775Y-77060901D01*
X117920744Y-77060901D01*
X117857828Y-77035019D01*
X117817841Y-76977723D01*
X117815178Y-76907904D01*
X117850684Y-76847729D01*
X117917606Y-76815562D01*
X118064103Y-76794320D01*
X118064104Y-76794320D01*
X118069730Y-76793504D01*
X118148890Y-76766633D01*
X118264565Y-76727367D01*
X118264568Y-76727366D01*
X118269955Y-76725537D01*
X118274916Y-76722759D01*
X118274922Y-76722756D01*
X118381530Y-76663052D01*
X118454442Y-76622219D01*
X118617012Y-76487012D01*
X118635648Y-76464605D01*
X118748584Y-76328813D01*
X118748585Y-76328811D01*
X118752219Y-76324442D01*
X118798078Y-76242556D01*
X118852756Y-76144922D01*
X118852759Y-76144916D01*
X118855537Y-76139955D01*
X118886009Y-76050189D01*
X118921675Y-75945118D01*
X118923504Y-75939730D01*
X118953846Y-75730470D01*
X118955429Y-75670000D01*
X118936081Y-75459440D01*
X118878686Y-75255931D01*
X118785165Y-75066290D01*
X118658651Y-74896867D01*
X118654481Y-74893012D01*
X118654478Y-74893009D01*
X118536316Y-74783782D01*
X118503381Y-74753337D01*
X118470090Y-74732332D01*
X118329363Y-74643539D01*
X118329361Y-74643538D01*
X118324554Y-74640505D01*
X118128160Y-74562152D01*
X118122579Y-74561042D01*
X118122576Y-74561041D01*
X117926355Y-74522011D01*
X117926356Y-74522011D01*
X117920775Y-74520901D01*
X117920744Y-74520901D01*
X117857828Y-74495019D01*
X117817841Y-74437723D01*
X117815178Y-74367904D01*
X117850684Y-74307729D01*
X117917606Y-74275562D01*
X118064103Y-74254320D01*
X118064104Y-74254320D01*
X118069730Y-74253504D01*
X118148890Y-74226633D01*
X118264565Y-74187367D01*
X118264568Y-74187366D01*
X118269955Y-74185537D01*
X118274916Y-74182759D01*
X118274922Y-74182756D01*
X118418483Y-74102357D01*
X118454442Y-74082219D01*
X118617012Y-73947012D01*
X118667791Y-73885957D01*
X118748584Y-73788813D01*
X118748585Y-73788811D01*
X118752219Y-73784442D01*
X118798078Y-73702556D01*
X118852756Y-73604922D01*
X118852759Y-73604916D01*
X118855537Y-73599955D01*
X118886009Y-73510189D01*
X118921675Y-73405118D01*
X118923504Y-73399730D01*
X118953846Y-73190470D01*
X118955429Y-73130000D01*
X118936081Y-72919440D01*
X118878686Y-72715931D01*
X118785165Y-72526290D01*
X118658651Y-72356867D01*
X118654481Y-72353012D01*
X118654478Y-72353009D01*
X118590319Y-72293702D01*
X118503381Y-72213337D01*
X118401601Y-72149118D01*
X118329363Y-72103539D01*
X118329361Y-72103538D01*
X118324554Y-72100505D01*
X118128160Y-72022152D01*
X118122579Y-72021042D01*
X118122576Y-72021041D01*
X117926355Y-71982011D01*
X117926356Y-71982011D01*
X117920775Y-71980901D01*
X117920744Y-71980901D01*
X117857828Y-71955019D01*
X117817841Y-71897723D01*
X117815178Y-71827904D01*
X117850684Y-71767729D01*
X117917606Y-71735562D01*
X118064103Y-71714320D01*
X118064104Y-71714320D01*
X118069730Y-71713504D01*
X118148890Y-71686633D01*
X118264565Y-71647367D01*
X118264568Y-71647366D01*
X118269955Y-71645537D01*
X118274916Y-71642759D01*
X118274922Y-71642756D01*
X118381530Y-71583052D01*
X118454442Y-71542219D01*
X118617012Y-71407012D01*
X118635648Y-71384605D01*
X118748584Y-71248813D01*
X118748585Y-71248811D01*
X118752219Y-71244442D01*
X118798078Y-71162556D01*
X118852756Y-71064922D01*
X118852759Y-71064916D01*
X118855537Y-71059955D01*
X118886009Y-70970189D01*
X118921675Y-70865118D01*
X118923504Y-70859730D01*
X118953846Y-70650470D01*
X118955429Y-70590000D01*
X118936081Y-70379440D01*
X118878686Y-70175931D01*
X118785165Y-69986290D01*
X118658651Y-69816867D01*
X118654481Y-69813012D01*
X118654478Y-69813009D01*
X118590319Y-69753702D01*
X118503381Y-69673337D01*
X118470090Y-69652332D01*
X118329363Y-69563539D01*
X118329361Y-69563538D01*
X118324554Y-69560505D01*
X118128160Y-69482152D01*
X118122579Y-69481042D01*
X118122576Y-69481041D01*
X117926355Y-69442011D01*
X117926356Y-69442011D01*
X117920775Y-69440901D01*
X117920744Y-69440901D01*
X117857828Y-69415019D01*
X117817841Y-69357723D01*
X117815178Y-69287904D01*
X117850684Y-69227729D01*
X117917606Y-69195562D01*
X118064103Y-69174320D01*
X118064104Y-69174320D01*
X118069730Y-69173504D01*
X118148890Y-69146633D01*
X118264565Y-69107367D01*
X118264568Y-69107366D01*
X118269955Y-69105537D01*
X118274916Y-69102759D01*
X118274922Y-69102756D01*
X118381530Y-69043052D01*
X118454442Y-69002219D01*
X118617012Y-68867012D01*
X118620644Y-68862645D01*
X118748584Y-68708813D01*
X118748585Y-68708811D01*
X118752219Y-68704442D01*
X118832196Y-68561634D01*
X118852756Y-68524922D01*
X118852759Y-68524916D01*
X118855537Y-68519955D01*
X118886009Y-68430189D01*
X118921675Y-68325118D01*
X118923504Y-68319730D01*
X118953846Y-68110470D01*
X118955429Y-68050000D01*
X118936081Y-67839440D01*
X118878686Y-67635931D01*
X118785165Y-67446290D01*
X118658651Y-67276867D01*
X118654481Y-67273012D01*
X118654478Y-67273009D01*
X118590319Y-67213702D01*
X118503381Y-67133337D01*
X118370329Y-67049387D01*
X118329363Y-67023539D01*
X118329361Y-67023538D01*
X118324554Y-67020505D01*
X118128160Y-66942152D01*
X118122579Y-66941042D01*
X118122576Y-66941041D01*
X117926355Y-66902011D01*
X117926356Y-66902011D01*
X117920775Y-66900901D01*
X117920744Y-66900901D01*
X117857828Y-66875019D01*
X117817841Y-66817723D01*
X117815178Y-66747904D01*
X117850684Y-66687729D01*
X117917606Y-66655562D01*
X118064103Y-66634320D01*
X118064104Y-66634320D01*
X118069730Y-66633504D01*
X118148890Y-66606633D01*
X118264565Y-66567367D01*
X118264568Y-66567366D01*
X118269955Y-66565537D01*
X118274916Y-66562759D01*
X118274922Y-66562756D01*
X118381530Y-66503052D01*
X118454442Y-66462219D01*
X118617012Y-66327012D01*
X118635648Y-66304605D01*
X118748584Y-66168813D01*
X118748585Y-66168811D01*
X118752219Y-66164442D01*
X118798078Y-66082556D01*
X118852756Y-65984922D01*
X118852759Y-65984916D01*
X118855537Y-65979955D01*
X118886009Y-65890189D01*
X118921675Y-65785118D01*
X118923504Y-65779730D01*
X118953846Y-65570470D01*
X118955429Y-65510000D01*
X118936081Y-65299440D01*
X118878686Y-65095931D01*
X118785165Y-64906290D01*
X118658651Y-64736867D01*
X118654481Y-64733012D01*
X118654478Y-64733009D01*
X118590319Y-64673702D01*
X118503381Y-64593337D01*
X118498571Y-64590302D01*
X118329363Y-64483539D01*
X118329361Y-64483538D01*
X118324554Y-64480505D01*
X118128160Y-64402152D01*
X118122579Y-64401042D01*
X118122576Y-64401041D01*
X117926355Y-64362011D01*
X117926356Y-64362011D01*
X117920775Y-64360901D01*
X117920744Y-64360901D01*
X117857828Y-64335019D01*
X117817841Y-64277723D01*
X117815178Y-64207904D01*
X117850684Y-64147729D01*
X117917606Y-64115562D01*
X118064103Y-64094320D01*
X118064104Y-64094320D01*
X118069730Y-64093504D01*
X118148890Y-64066633D01*
X118264565Y-64027367D01*
X118264568Y-64027366D01*
X118269955Y-64025537D01*
X118274916Y-64022759D01*
X118274922Y-64022756D01*
X118381530Y-63963052D01*
X118454442Y-63922219D01*
X118617012Y-63787012D01*
X118620644Y-63782645D01*
X118748584Y-63628813D01*
X118748585Y-63628811D01*
X118752219Y-63624442D01*
X118798078Y-63542556D01*
X118852756Y-63444922D01*
X118852759Y-63444916D01*
X118855537Y-63439955D01*
X118886009Y-63350189D01*
X118921675Y-63245118D01*
X118923504Y-63239730D01*
X118953846Y-63030470D01*
X118955429Y-62970000D01*
X118936081Y-62759440D01*
X118878686Y-62555931D01*
X118785165Y-62366290D01*
X118658651Y-62196867D01*
X118654481Y-62193012D01*
X118654478Y-62193009D01*
X118566468Y-62111654D01*
X118503381Y-62053337D01*
X118470090Y-62032332D01*
X118329363Y-61943539D01*
X118329361Y-61943538D01*
X118324554Y-61940505D01*
X118128160Y-61862152D01*
X118122579Y-61861042D01*
X118122576Y-61861041D01*
X117926355Y-61822011D01*
X117926356Y-61822011D01*
X117920775Y-61820901D01*
X117920744Y-61820901D01*
X117857828Y-61795019D01*
X117817841Y-61737723D01*
X117815178Y-61667904D01*
X117850684Y-61607729D01*
X117917606Y-61575562D01*
X118064103Y-61554320D01*
X118064104Y-61554320D01*
X118069730Y-61553504D01*
X118148890Y-61526633D01*
X118264565Y-61487367D01*
X118264568Y-61487366D01*
X118269955Y-61485537D01*
X118274916Y-61482759D01*
X118274922Y-61482756D01*
X118381530Y-61423052D01*
X118454442Y-61382219D01*
X118617012Y-61247012D01*
X118654155Y-61202352D01*
X118748584Y-61088813D01*
X118748585Y-61088811D01*
X118752219Y-61084442D01*
X118799403Y-61000189D01*
X118852756Y-60904922D01*
X118852759Y-60904916D01*
X118855537Y-60899955D01*
X118886009Y-60810189D01*
X118921675Y-60705118D01*
X118923504Y-60699730D01*
X118953846Y-60490470D01*
X118955429Y-60430000D01*
X118936081Y-60219440D01*
X118878686Y-60015931D01*
X118785165Y-59826290D01*
X118658651Y-59656867D01*
X118654481Y-59653012D01*
X118654478Y-59653009D01*
X118570263Y-59575162D01*
X118503381Y-59513337D01*
X118470090Y-59492332D01*
X118329363Y-59403539D01*
X118329361Y-59403538D01*
X118324554Y-59400505D01*
X118128160Y-59322152D01*
X118122579Y-59321042D01*
X118122576Y-59321041D01*
X117926355Y-59282011D01*
X117926356Y-59282011D01*
X117920775Y-59280901D01*
X117920744Y-59280901D01*
X117857828Y-59255019D01*
X117817841Y-59197723D01*
X117815178Y-59127904D01*
X117850684Y-59067729D01*
X117917606Y-59035562D01*
X118064103Y-59014320D01*
X118064104Y-59014320D01*
X118069730Y-59013504D01*
X118148890Y-58986633D01*
X118264565Y-58947367D01*
X118264568Y-58947366D01*
X118269955Y-58945537D01*
X118274916Y-58942759D01*
X118274922Y-58942756D01*
X118381530Y-58883052D01*
X118454442Y-58842219D01*
X118562118Y-58752667D01*
X118612645Y-58710644D01*
X118617012Y-58707012D01*
X118668577Y-58645011D01*
X118748584Y-58548813D01*
X118748585Y-58548811D01*
X118752219Y-58544442D01*
X118798078Y-58462556D01*
X118852756Y-58364922D01*
X118852759Y-58364916D01*
X118855537Y-58359955D01*
X118861522Y-58342326D01*
X118921675Y-58165118D01*
X118923504Y-58159730D01*
X118953846Y-57950470D01*
X118955288Y-57895395D01*
X131685315Y-57895395D01*
X131704959Y-58119922D01*
X131706833Y-58130553D01*
X131765168Y-58348264D01*
X131768857Y-58358397D01*
X131864114Y-58562675D01*
X131869502Y-58572008D01*
X131914850Y-58636771D01*
X131925158Y-58645011D01*
X131938392Y-58638055D01*
X132673840Y-57902607D01*
X132680116Y-57891113D01*
X133398668Y-57891113D01*
X133398797Y-57892919D01*
X133402979Y-57899426D01*
X134142319Y-58638766D01*
X134153905Y-58645093D01*
X134165728Y-58635946D01*
X134210498Y-58572008D01*
X134215886Y-58562675D01*
X134311143Y-58358397D01*
X134314832Y-58348264D01*
X134316423Y-58342326D01*
X140697667Y-58342326D01*
X140750168Y-58538264D01*
X140753857Y-58548397D01*
X140849110Y-58752667D01*
X140854508Y-58762017D01*
X140983784Y-58946643D01*
X140990719Y-58954907D01*
X141150091Y-59114279D01*
X141158357Y-59121215D01*
X141342992Y-59250498D01*
X141352324Y-59255886D01*
X141544698Y-59345592D01*
X141597137Y-59391764D01*
X141616289Y-59458958D01*
X141596073Y-59525839D01*
X141542908Y-59571174D01*
X141535212Y-59574309D01*
X141527575Y-59577127D01*
X141522697Y-59580029D01*
X141522695Y-59580030D01*
X141350740Y-59682332D01*
X141350737Y-59682334D01*
X141345856Y-59685238D01*
X141186881Y-59824655D01*
X141183362Y-59829119D01*
X141183359Y-59829122D01*
X141165782Y-59851419D01*
X141055976Y-59990708D01*
X140957523Y-60177836D01*
X140955837Y-60183267D01*
X140955835Y-60183271D01*
X140942847Y-60225101D01*
X140894820Y-60379773D01*
X140894152Y-60385418D01*
X140894151Y-60385422D01*
X140874941Y-60547732D01*
X140869967Y-60589754D01*
X140870338Y-60595416D01*
X140870338Y-60595420D01*
X140871949Y-60620000D01*
X140883796Y-60800749D01*
X140935845Y-61005690D01*
X140938219Y-61010841D01*
X140938221Y-61010845D01*
X140976981Y-61094922D01*
X141024369Y-61197714D01*
X141146405Y-61370391D01*
X141297865Y-61517937D01*
X141302588Y-61521093D01*
X141302592Y-61521096D01*
X141352316Y-61554320D01*
X141473677Y-61635411D01*
X141667953Y-61718878D01*
X141731283Y-61733208D01*
X141868638Y-61764289D01*
X141868642Y-61764290D01*
X141874186Y-61765544D01*
X142000651Y-61770513D01*
X142079789Y-61773623D01*
X142079791Y-61773623D01*
X142085470Y-61773846D01*
X142091090Y-61773031D01*
X142091092Y-61773031D01*
X142289103Y-61744320D01*
X142289104Y-61744320D01*
X142294730Y-61743504D01*
X142373890Y-61716633D01*
X142489565Y-61677367D01*
X142489568Y-61677366D01*
X142494955Y-61675537D01*
X142499916Y-61672759D01*
X142499922Y-61672756D01*
X142606530Y-61613052D01*
X142679442Y-61572219D01*
X142700964Y-61554320D01*
X142837645Y-61440644D01*
X142842012Y-61437012D01*
X142890606Y-61378584D01*
X142973584Y-61278813D01*
X142973585Y-61278811D01*
X142977219Y-61274442D01*
X143032488Y-61175752D01*
X143077756Y-61094922D01*
X143077759Y-61094916D01*
X143080537Y-61089955D01*
X143082409Y-61084442D01*
X143146675Y-60895118D01*
X143148504Y-60889730D01*
X143178846Y-60680470D01*
X143180429Y-60620000D01*
X143161081Y-60409440D01*
X143103686Y-60205931D01*
X143010165Y-60016290D01*
X142883651Y-59846867D01*
X142879481Y-59843012D01*
X142879478Y-59843009D01*
X142815319Y-59783702D01*
X142728381Y-59703337D01*
X142695090Y-59682332D01*
X142554363Y-59593539D01*
X142554361Y-59593538D01*
X142549554Y-59590505D01*
X142509122Y-59574374D01*
X142454151Y-59531251D01*
X142431220Y-59465251D01*
X142447611Y-59397332D01*
X142502667Y-59346821D01*
X142697676Y-59255886D01*
X142707008Y-59250498D01*
X142891643Y-59121215D01*
X142899909Y-59114279D01*
X143059281Y-58954907D01*
X143066216Y-58946643D01*
X143195492Y-58762017D01*
X143200890Y-58752667D01*
X143296143Y-58548397D01*
X143299832Y-58538264D01*
X143351022Y-58347221D01*
X143350691Y-58333347D01*
X143342875Y-58330000D01*
X140712194Y-58330000D01*
X140698877Y-58333910D01*
X140697667Y-58342326D01*
X134316423Y-58342326D01*
X134373167Y-58130553D01*
X134375041Y-58119922D01*
X134394685Y-57895395D01*
X134394685Y-57884605D01*
X134388401Y-57812779D01*
X140698978Y-57812779D01*
X140699309Y-57826653D01*
X140707125Y-57830000D01*
X143337806Y-57830000D01*
X143351123Y-57826090D01*
X143352333Y-57817674D01*
X143299832Y-57621736D01*
X143296143Y-57611603D01*
X143200890Y-57407333D01*
X143195492Y-57397983D01*
X143066216Y-57213357D01*
X143059281Y-57205093D01*
X142899909Y-57045721D01*
X142891643Y-57038785D01*
X142707008Y-56909502D01*
X142697676Y-56904114D01*
X142505778Y-56814630D01*
X142453339Y-56768458D01*
X142434187Y-56701264D01*
X142454403Y-56634383D01*
X142497594Y-56594059D01*
X142679442Y-56492219D01*
X142700964Y-56474320D01*
X142837645Y-56360644D01*
X142842012Y-56357012D01*
X142890606Y-56298584D01*
X142973584Y-56198813D01*
X142973585Y-56198811D01*
X142977219Y-56194442D01*
X143038890Y-56084321D01*
X143077756Y-56014922D01*
X143077759Y-56014916D01*
X143080537Y-56009955D01*
X143082409Y-56004442D01*
X143146675Y-55815118D01*
X143148504Y-55809730D01*
X143178846Y-55600470D01*
X143180429Y-55540000D01*
X143161081Y-55329440D01*
X143103686Y-55125931D01*
X143010165Y-54936290D01*
X142883651Y-54766867D01*
X142879481Y-54763012D01*
X142879478Y-54763009D01*
X142779041Y-54670167D01*
X142728381Y-54623337D01*
X142723571Y-54620302D01*
X142659063Y-54579600D01*
X166776808Y-54579600D01*
X166791830Y-54852574D01*
X166809499Y-54941400D01*
X166844115Y-55115422D01*
X166845166Y-55120708D01*
X166935749Y-55378652D01*
X167061774Y-55621260D01*
X167220725Y-55843690D01*
X167223749Y-55846860D01*
X167223754Y-55846866D01*
X167374192Y-56004565D01*
X167409431Y-56041505D01*
X167412875Y-56044220D01*
X167412876Y-56044221D01*
X167463743Y-56084321D01*
X167624126Y-56210757D01*
X167627906Y-56212953D01*
X167627911Y-56212956D01*
X167742327Y-56279413D01*
X167860528Y-56348070D01*
X167864588Y-56349714D01*
X167864589Y-56349715D01*
X168109852Y-56449057D01*
X168109856Y-56449058D01*
X168113919Y-56450704D01*
X168118173Y-56451761D01*
X168118177Y-56451762D01*
X168338960Y-56506605D01*
X168379243Y-56516611D01*
X168446289Y-56523480D01*
X168609255Y-56540178D01*
X168609262Y-56540178D01*
X168612401Y-56540500D01*
X168781642Y-56540500D01*
X168783810Y-56540346D01*
X168783824Y-56540346D01*
X168911196Y-56531327D01*
X168984705Y-56526122D01*
X169251968Y-56468582D01*
X169305378Y-56448878D01*
X169504344Y-56375476D01*
X169504347Y-56375475D01*
X169508458Y-56373958D01*
X169524299Y-56365411D01*
X169671932Y-56285752D01*
X169749056Y-56244138D01*
X169968962Y-56081713D01*
X169972092Y-56078632D01*
X170160661Y-55893002D01*
X170160666Y-55892996D01*
X170163788Y-55889923D01*
X170329647Y-55672596D01*
X170372077Y-55596831D01*
X170461089Y-55437890D01*
X170461092Y-55437884D01*
X170463230Y-55434066D01*
X170533027Y-55253651D01*
X170560287Y-55183190D01*
X170560288Y-55183187D01*
X170561871Y-55179095D01*
X170569751Y-55145101D01*
X170622614Y-54917034D01*
X170623603Y-54912768D01*
X170647192Y-54640400D01*
X170632170Y-54367426D01*
X170605480Y-54233247D01*
X170579689Y-54103588D01*
X170579687Y-54103582D01*
X170578834Y-54099292D01*
X170488251Y-53841348D01*
X170362226Y-53598740D01*
X170203275Y-53376310D01*
X170200251Y-53373140D01*
X170200246Y-53373134D01*
X170017596Y-53181668D01*
X170017595Y-53181667D01*
X170014569Y-53178495D01*
X169963566Y-53138287D01*
X169803314Y-53011955D01*
X169799874Y-53009243D01*
X169796094Y-53007047D01*
X169796089Y-53007044D01*
X169681673Y-52940587D01*
X169563472Y-52871930D01*
X169559411Y-52870285D01*
X169314148Y-52770943D01*
X169314144Y-52770942D01*
X169310081Y-52769296D01*
X169305827Y-52768239D01*
X169305823Y-52768238D01*
X169049012Y-52704446D01*
X169049013Y-52704446D01*
X169044757Y-52703389D01*
X168960957Y-52694803D01*
X168814745Y-52679822D01*
X168814738Y-52679822D01*
X168811599Y-52679500D01*
X168642358Y-52679500D01*
X168640190Y-52679654D01*
X168640176Y-52679654D01*
X168512804Y-52688673D01*
X168439295Y-52693878D01*
X168172032Y-52751418D01*
X168167911Y-52752938D01*
X168167912Y-52752938D01*
X167919656Y-52844524D01*
X167919653Y-52844525D01*
X167915542Y-52846042D01*
X167674944Y-52975862D01*
X167455038Y-53138287D01*
X167451910Y-53141367D01*
X167451908Y-53141368D01*
X167263339Y-53326998D01*
X167263334Y-53327004D01*
X167260212Y-53330077D01*
X167094353Y-53547404D01*
X167092215Y-53551222D01*
X166962911Y-53782110D01*
X166962908Y-53782116D01*
X166960770Y-53785934D01*
X166917333Y-53898212D01*
X166866033Y-54030815D01*
X166862129Y-54040905D01*
X166861138Y-54045182D01*
X166861137Y-54045184D01*
X166848595Y-54099292D01*
X166800397Y-54307232D01*
X166789395Y-54434262D01*
X166778582Y-54559122D01*
X166776808Y-54579600D01*
X142659063Y-54579600D01*
X142554363Y-54513539D01*
X142554361Y-54513538D01*
X142549554Y-54510505D01*
X142353160Y-54432152D01*
X142347579Y-54431042D01*
X142347576Y-54431041D01*
X142171998Y-54396117D01*
X142110087Y-54363732D01*
X142075513Y-54303017D01*
X142079252Y-54233247D01*
X142120118Y-54176575D01*
X142185136Y-54150994D01*
X142196189Y-54150500D01*
X142919646Y-54150500D01*
X142923300Y-54150065D01*
X142923302Y-54150065D01*
X142928266Y-54149474D01*
X142945846Y-54147382D01*
X143048153Y-54101939D01*
X143127241Y-54022713D01*
X143172506Y-53920327D01*
X143175500Y-53894646D01*
X143175500Y-52105354D01*
X143172382Y-52079154D01*
X143126939Y-51976847D01*
X143047713Y-51897759D01*
X143037242Y-51893130D01*
X143037241Y-51893129D01*
X142953853Y-51856263D01*
X142953851Y-51856262D01*
X142945327Y-51852494D01*
X142919646Y-51849500D01*
X141130354Y-51849500D01*
X141126700Y-51849935D01*
X141126698Y-51849935D01*
X141121734Y-51850526D01*
X141104154Y-51852618D01*
X141001847Y-51898061D01*
X140922759Y-51977287D01*
X140918130Y-51987758D01*
X140918129Y-51987759D01*
X140915345Y-51994058D01*
X140877494Y-52079673D01*
X140874500Y-52105354D01*
X140874500Y-53894646D01*
X140877618Y-53920846D01*
X140923061Y-54023153D01*
X141002287Y-54102241D01*
X141012758Y-54106870D01*
X141012759Y-54106871D01*
X141096147Y-54143737D01*
X141096149Y-54143738D01*
X141104673Y-54147506D01*
X141130354Y-54150500D01*
X141863437Y-54150500D01*
X141930476Y-54170185D01*
X141976231Y-54222989D01*
X141986175Y-54292147D01*
X141957150Y-54355703D01*
X141898372Y-54393477D01*
X141884436Y-54396709D01*
X141731550Y-54422979D01*
X141731547Y-54422980D01*
X141725953Y-54423941D01*
X141527575Y-54497127D01*
X141522697Y-54500029D01*
X141522695Y-54500030D01*
X141350740Y-54602332D01*
X141350737Y-54602334D01*
X141345856Y-54605238D01*
X141186881Y-54744655D01*
X141183362Y-54749119D01*
X141183359Y-54749122D01*
X141165782Y-54771419D01*
X141055976Y-54910708D01*
X140957523Y-55097836D01*
X140955837Y-55103267D01*
X140955835Y-55103271D01*
X140909756Y-55251671D01*
X140894820Y-55299773D01*
X140894152Y-55305418D01*
X140894151Y-55305422D01*
X140879409Y-55429976D01*
X140869967Y-55509754D01*
X140870338Y-55515416D01*
X140870338Y-55515420D01*
X140871949Y-55540000D01*
X140883796Y-55720749D01*
X140935845Y-55925690D01*
X140938219Y-55930841D01*
X140938221Y-55930845D01*
X141014244Y-56095752D01*
X141024369Y-56117714D01*
X141027647Y-56122352D01*
X141115189Y-56246221D01*
X141146405Y-56290391D01*
X141297865Y-56437937D01*
X141302588Y-56441093D01*
X141302592Y-56441096D01*
X141352316Y-56474320D01*
X141473677Y-56555411D01*
X141478903Y-56557656D01*
X141478908Y-56557659D01*
X141545322Y-56586192D01*
X141599148Y-56630741D01*
X141620343Y-56697318D01*
X141602180Y-56764785D01*
X141548780Y-56812504D01*
X141352333Y-56904110D01*
X141342983Y-56909508D01*
X141158357Y-57038784D01*
X141150093Y-57045719D01*
X140990719Y-57205093D01*
X140983784Y-57213357D01*
X140854508Y-57397983D01*
X140849110Y-57407333D01*
X140753857Y-57611603D01*
X140750168Y-57621736D01*
X140698978Y-57812779D01*
X134388401Y-57812779D01*
X134375041Y-57660078D01*
X134373167Y-57649447D01*
X134314832Y-57431736D01*
X134311143Y-57421603D01*
X134215886Y-57217325D01*
X134210498Y-57207992D01*
X134165150Y-57143229D01*
X134154842Y-57134989D01*
X134141608Y-57141945D01*
X133406160Y-57877393D01*
X133398668Y-57891113D01*
X132680116Y-57891113D01*
X132681332Y-57888887D01*
X132681203Y-57887081D01*
X132677021Y-57880574D01*
X131937681Y-57141234D01*
X131926095Y-57134907D01*
X131914272Y-57144054D01*
X131869502Y-57207992D01*
X131864114Y-57217325D01*
X131768857Y-57421603D01*
X131765168Y-57431736D01*
X131706833Y-57649447D01*
X131704959Y-57660078D01*
X131685315Y-57884605D01*
X131685315Y-57895395D01*
X118955288Y-57895395D01*
X118955429Y-57890000D01*
X118936081Y-57679440D01*
X118878686Y-57475931D01*
X118785165Y-57286290D01*
X118658651Y-57116867D01*
X118654481Y-57113012D01*
X118654478Y-57113009D01*
X118574181Y-57038784D01*
X118503381Y-56973337D01*
X118393670Y-56904114D01*
X118329363Y-56863539D01*
X118329361Y-56863538D01*
X118324554Y-56860505D01*
X118128160Y-56782152D01*
X118122579Y-56781042D01*
X118122576Y-56781041D01*
X117926355Y-56742011D01*
X117926356Y-56742011D01*
X117920775Y-56740901D01*
X117920744Y-56740901D01*
X117857828Y-56715019D01*
X117817841Y-56657723D01*
X117815178Y-56587904D01*
X117850684Y-56527729D01*
X117917606Y-56495562D01*
X118064103Y-56474320D01*
X118064104Y-56474320D01*
X118069730Y-56473504D01*
X118155518Y-56444383D01*
X118264565Y-56407367D01*
X118264568Y-56407366D01*
X118269955Y-56405537D01*
X118274916Y-56402759D01*
X118274922Y-56402756D01*
X118381530Y-56343052D01*
X118454442Y-56302219D01*
X118524278Y-56244138D01*
X118612645Y-56170644D01*
X118617012Y-56167012D01*
X118654155Y-56122352D01*
X118748584Y-56008813D01*
X118748585Y-56008811D01*
X118752219Y-56004442D01*
X118804197Y-55911629D01*
X118852756Y-55824922D01*
X118852759Y-55824916D01*
X118855537Y-55819955D01*
X118867797Y-55783840D01*
X118921675Y-55625118D01*
X118923504Y-55619730D01*
X118953846Y-55410470D01*
X118955429Y-55350000D01*
X118952650Y-55319754D01*
X131884967Y-55319754D01*
X131885338Y-55325416D01*
X131885338Y-55325420D01*
X131890674Y-55406831D01*
X131898796Y-55530749D01*
X131950845Y-55735690D01*
X131953219Y-55740841D01*
X131953221Y-55740845D01*
X132031954Y-55911629D01*
X132039369Y-55927714D01*
X132042647Y-55932352D01*
X132150048Y-56084321D01*
X132161405Y-56100391D01*
X132165476Y-56104357D01*
X132165477Y-56104358D01*
X132215326Y-56152919D01*
X132312865Y-56247937D01*
X132317588Y-56251093D01*
X132317592Y-56251096D01*
X132369459Y-56285752D01*
X132488677Y-56365411D01*
X132493903Y-56367656D01*
X132493908Y-56367659D01*
X132560322Y-56396192D01*
X132614148Y-56440741D01*
X132635343Y-56507318D01*
X132617180Y-56574785D01*
X132563780Y-56622504D01*
X132367325Y-56714114D01*
X132357992Y-56719502D01*
X132293229Y-56764850D01*
X132284989Y-56775158D01*
X132291945Y-56788392D01*
X133027393Y-57523840D01*
X133041113Y-57531332D01*
X133042919Y-57531203D01*
X133049426Y-57527021D01*
X133788766Y-56787681D01*
X133795093Y-56776095D01*
X133785945Y-56764271D01*
X133722017Y-56719507D01*
X133712671Y-56714111D01*
X133520778Y-56624630D01*
X133468339Y-56578458D01*
X133449187Y-56511264D01*
X133469403Y-56444383D01*
X133512594Y-56404059D01*
X133523490Y-56397957D01*
X133694442Y-56302219D01*
X133764278Y-56244138D01*
X133852645Y-56170644D01*
X133857012Y-56167012D01*
X133894155Y-56122352D01*
X133988584Y-56008813D01*
X133988585Y-56008811D01*
X133992219Y-56004442D01*
X134044197Y-55911629D01*
X134092756Y-55824922D01*
X134092759Y-55824916D01*
X134095537Y-55819955D01*
X134107797Y-55783840D01*
X134161675Y-55625118D01*
X134163504Y-55619730D01*
X134193846Y-55410470D01*
X134195429Y-55350000D01*
X134176081Y-55139440D01*
X134118686Y-54935931D01*
X134025165Y-54746290D01*
X133898651Y-54576867D01*
X133894481Y-54573012D01*
X133894478Y-54573009D01*
X133810263Y-54495162D01*
X133743381Y-54433337D01*
X133710090Y-54412332D01*
X133569363Y-54323539D01*
X133569361Y-54323538D01*
X133564554Y-54320505D01*
X133368160Y-54242152D01*
X133362579Y-54241042D01*
X133362576Y-54241041D01*
X133220475Y-54212776D01*
X133160775Y-54200901D01*
X133155088Y-54200827D01*
X133155083Y-54200826D01*
X132955034Y-54198207D01*
X132955029Y-54198207D01*
X132949346Y-54198133D01*
X132943742Y-54199096D01*
X132943741Y-54199096D01*
X132746550Y-54232979D01*
X132746547Y-54232980D01*
X132740953Y-54233941D01*
X132542575Y-54307127D01*
X132537697Y-54310029D01*
X132537695Y-54310030D01*
X132365740Y-54412332D01*
X132365737Y-54412334D01*
X132360856Y-54415238D01*
X132201881Y-54554655D01*
X132198362Y-54559119D01*
X132198359Y-54559122D01*
X132162005Y-54605238D01*
X132070976Y-54720708D01*
X131972523Y-54907836D01*
X131970837Y-54913267D01*
X131970835Y-54913271D01*
X131962103Y-54941393D01*
X131909820Y-55109773D01*
X131909152Y-55115418D01*
X131909151Y-55115422D01*
X131887975Y-55294340D01*
X131884967Y-55319754D01*
X118952650Y-55319754D01*
X118936081Y-55139440D01*
X118878686Y-54935931D01*
X118785165Y-54746290D01*
X118658651Y-54576867D01*
X118654481Y-54573012D01*
X118654478Y-54573009D01*
X118570263Y-54495162D01*
X118503381Y-54433337D01*
X118470090Y-54412332D01*
X118329363Y-54323539D01*
X118329361Y-54323538D01*
X118324554Y-54320505D01*
X118128160Y-54242152D01*
X118122579Y-54241042D01*
X118122576Y-54241041D01*
X117980475Y-54212776D01*
X117920775Y-54200901D01*
X117915088Y-54200827D01*
X117915083Y-54200826D01*
X117715034Y-54198207D01*
X117715029Y-54198207D01*
X117709346Y-54198133D01*
X117703742Y-54199096D01*
X117703741Y-54199096D01*
X117506550Y-54232979D01*
X117506547Y-54232980D01*
X117500953Y-54233941D01*
X117302575Y-54307127D01*
X117297697Y-54310029D01*
X117297695Y-54310030D01*
X117125740Y-54412332D01*
X117125737Y-54412334D01*
X117120856Y-54415238D01*
X116961881Y-54554655D01*
X116958362Y-54559119D01*
X116958359Y-54559122D01*
X116922005Y-54605238D01*
X116830976Y-54720708D01*
X116732523Y-54907836D01*
X116730837Y-54913267D01*
X116730835Y-54913271D01*
X116722103Y-54941393D01*
X116669820Y-55109773D01*
X116669152Y-55115418D01*
X116669151Y-55115422D01*
X116647975Y-55294340D01*
X116644967Y-55319754D01*
X116645338Y-55325416D01*
X116645338Y-55325420D01*
X116650674Y-55406831D01*
X116658796Y-55530749D01*
X116710845Y-55735690D01*
X116713219Y-55740841D01*
X116713221Y-55740845D01*
X116791954Y-55911629D01*
X116799369Y-55927714D01*
X116802647Y-55932352D01*
X116910048Y-56084321D01*
X116921405Y-56100391D01*
X116925476Y-56104357D01*
X116925477Y-56104358D01*
X116975326Y-56152919D01*
X117072865Y-56247937D01*
X117077588Y-56251093D01*
X117077592Y-56251096D01*
X117129459Y-56285752D01*
X117248677Y-56365411D01*
X117442953Y-56448878D01*
X117506283Y-56463208D01*
X117643638Y-56494289D01*
X117643642Y-56494290D01*
X117649186Y-56495544D01*
X117668328Y-56496296D01*
X117734543Y-56518596D01*
X117778190Y-56573156D01*
X117785412Y-56642651D01*
X117753914Y-56705018D01*
X117693699Y-56740457D01*
X117684460Y-56742409D01*
X117506550Y-56772979D01*
X117506547Y-56772980D01*
X117500953Y-56773941D01*
X117302575Y-56847127D01*
X117297697Y-56850029D01*
X117297695Y-56850030D01*
X117125740Y-56952332D01*
X117125737Y-56952334D01*
X117120856Y-56955238D01*
X116961881Y-57094655D01*
X116958362Y-57099119D01*
X116958359Y-57099122D01*
X116922938Y-57144054D01*
X116830976Y-57260708D01*
X116732523Y-57447836D01*
X116730837Y-57453267D01*
X116730835Y-57453271D01*
X116704776Y-57537197D01*
X116669820Y-57649773D01*
X116669152Y-57655418D01*
X116669151Y-57655422D01*
X116648951Y-57826090D01*
X116644967Y-57859754D01*
X116645338Y-57865416D01*
X116645338Y-57865420D01*
X116650674Y-57946831D01*
X116658796Y-58070749D01*
X116710845Y-58275690D01*
X116713219Y-58280841D01*
X116713221Y-58280845D01*
X116751981Y-58364922D01*
X116799369Y-58467714D01*
X116802647Y-58472352D01*
X116873077Y-58572008D01*
X116921405Y-58640391D01*
X116925476Y-58644357D01*
X116925477Y-58644358D01*
X116926232Y-58645093D01*
X117072865Y-58787937D01*
X117077588Y-58791093D01*
X117077592Y-58791096D01*
X117148663Y-58838584D01*
X117248677Y-58905411D01*
X117442953Y-58988878D01*
X117506283Y-59003208D01*
X117643638Y-59034289D01*
X117643642Y-59034290D01*
X117649186Y-59035544D01*
X117668328Y-59036296D01*
X117734543Y-59058596D01*
X117778190Y-59113156D01*
X117785412Y-59182651D01*
X117753914Y-59245018D01*
X117693699Y-59280457D01*
X117684460Y-59282409D01*
X117506550Y-59312979D01*
X117506547Y-59312980D01*
X117500953Y-59313941D01*
X117302575Y-59387127D01*
X117297697Y-59390029D01*
X117297695Y-59390030D01*
X117125740Y-59492332D01*
X117125737Y-59492334D01*
X117120856Y-59495238D01*
X116961881Y-59634655D01*
X116958362Y-59639119D01*
X116958359Y-59639122D01*
X116922005Y-59685238D01*
X116830976Y-59800708D01*
X116732523Y-59987836D01*
X116730837Y-59993267D01*
X116730835Y-59993271D01*
X116722103Y-60021393D01*
X116669820Y-60189773D01*
X116669152Y-60195418D01*
X116669151Y-60195422D01*
X116650291Y-60354770D01*
X116644967Y-60399754D01*
X116645338Y-60405416D01*
X116645338Y-60405420D01*
X116646949Y-60430000D01*
X116658796Y-60610749D01*
X116710845Y-60815690D01*
X116713219Y-60820841D01*
X116713221Y-60820845D01*
X116751981Y-60904922D01*
X116799369Y-61007714D01*
X116802647Y-61012352D01*
X116861002Y-61094922D01*
X116921405Y-61180391D01*
X116925476Y-61184357D01*
X116925477Y-61184358D01*
X116966792Y-61224605D01*
X117072865Y-61327937D01*
X117077588Y-61331093D01*
X117077592Y-61331096D01*
X117129459Y-61365752D01*
X117248677Y-61445411D01*
X117442953Y-61528878D01*
X117506283Y-61543208D01*
X117643638Y-61574289D01*
X117643642Y-61574290D01*
X117649186Y-61575544D01*
X117668328Y-61576296D01*
X117734543Y-61598596D01*
X117778190Y-61653156D01*
X117785412Y-61722651D01*
X117753914Y-61785018D01*
X117693699Y-61820457D01*
X117684460Y-61822409D01*
X117506550Y-61852979D01*
X117506547Y-61852980D01*
X117500953Y-61853941D01*
X117302575Y-61927127D01*
X117297697Y-61930029D01*
X117297695Y-61930030D01*
X117125740Y-62032332D01*
X117125737Y-62032334D01*
X117120856Y-62035238D01*
X116961881Y-62174655D01*
X116958362Y-62179119D01*
X116958359Y-62179122D01*
X116940782Y-62201419D01*
X116830976Y-62340708D01*
X116732523Y-62527836D01*
X116730837Y-62533267D01*
X116730835Y-62533271D01*
X116673203Y-62718879D01*
X116669820Y-62729773D01*
X116669152Y-62735418D01*
X116669151Y-62735422D01*
X116645635Y-62934110D01*
X116644967Y-62939754D01*
X116645338Y-62945416D01*
X116645338Y-62945420D01*
X116646949Y-62970000D01*
X116658796Y-63150749D01*
X116710845Y-63355690D01*
X116713219Y-63360841D01*
X116713221Y-63360845D01*
X116751981Y-63444922D01*
X116799369Y-63547714D01*
X116921405Y-63720391D01*
X117072865Y-63867937D01*
X117077588Y-63871093D01*
X117077592Y-63871096D01*
X117148663Y-63918584D01*
X117248677Y-63985411D01*
X117442953Y-64068878D01*
X117506283Y-64083208D01*
X117643638Y-64114289D01*
X117643642Y-64114290D01*
X117649186Y-64115544D01*
X117668328Y-64116296D01*
X117734543Y-64138596D01*
X117778190Y-64193156D01*
X117785412Y-64262651D01*
X117753914Y-64325018D01*
X117693699Y-64360457D01*
X117684460Y-64362409D01*
X117506550Y-64392979D01*
X117506547Y-64392980D01*
X117500953Y-64393941D01*
X117302575Y-64467127D01*
X117297697Y-64470029D01*
X117297695Y-64470030D01*
X117125740Y-64572332D01*
X117125737Y-64572334D01*
X117120856Y-64575238D01*
X116961881Y-64714655D01*
X116958362Y-64719119D01*
X116958359Y-64719122D01*
X116940782Y-64741419D01*
X116830976Y-64880708D01*
X116732523Y-65067836D01*
X116669820Y-65269773D01*
X116669152Y-65275418D01*
X116669151Y-65275422D01*
X116650291Y-65434770D01*
X116644967Y-65479754D01*
X116645338Y-65485416D01*
X116645338Y-65485420D01*
X116646949Y-65510000D01*
X116658796Y-65690749D01*
X116710845Y-65895690D01*
X116713219Y-65900841D01*
X116713221Y-65900845D01*
X116751981Y-65984922D01*
X116799369Y-66087714D01*
X116921405Y-66260391D01*
X117072865Y-66407937D01*
X117077588Y-66411093D01*
X117077592Y-66411096D01*
X117148663Y-66458584D01*
X117248677Y-66525411D01*
X117442953Y-66608878D01*
X117506283Y-66623208D01*
X117643638Y-66654289D01*
X117643642Y-66654290D01*
X117649186Y-66655544D01*
X117668328Y-66656296D01*
X117734543Y-66678596D01*
X117778190Y-66733156D01*
X117785412Y-66802651D01*
X117753914Y-66865018D01*
X117693699Y-66900457D01*
X117684460Y-66902409D01*
X117506550Y-66932979D01*
X117506547Y-66932980D01*
X117500953Y-66933941D01*
X117302575Y-67007127D01*
X117297697Y-67010029D01*
X117297695Y-67010030D01*
X117125740Y-67112332D01*
X117125737Y-67112334D01*
X117120856Y-67115238D01*
X116961881Y-67254655D01*
X116958362Y-67259119D01*
X116958359Y-67259122D01*
X116940782Y-67281419D01*
X116830976Y-67420708D01*
X116732523Y-67607836D01*
X116730837Y-67613267D01*
X116730835Y-67613271D01*
X116673203Y-67798879D01*
X116669820Y-67809773D01*
X116669152Y-67815418D01*
X116669151Y-67815422D01*
X116664190Y-67857337D01*
X116644967Y-68019754D01*
X116645338Y-68025416D01*
X116645338Y-68025420D01*
X116649282Y-68085592D01*
X116658796Y-68230749D01*
X116710845Y-68435690D01*
X116713219Y-68440841D01*
X116713221Y-68440845D01*
X116768906Y-68561634D01*
X116799369Y-68627714D01*
X116802647Y-68632352D01*
X116913760Y-68789573D01*
X116921405Y-68800391D01*
X117072865Y-68947937D01*
X117077588Y-68951093D01*
X117077592Y-68951096D01*
X117141680Y-68993918D01*
X117248677Y-69065411D01*
X117442953Y-69148878D01*
X117506283Y-69163208D01*
X117643638Y-69194289D01*
X117643642Y-69194290D01*
X117649186Y-69195544D01*
X117668328Y-69196296D01*
X117734543Y-69218596D01*
X117778190Y-69273156D01*
X117785412Y-69342651D01*
X117753914Y-69405018D01*
X117693699Y-69440457D01*
X117684460Y-69442409D01*
X117506550Y-69472979D01*
X117506547Y-69472980D01*
X117500953Y-69473941D01*
X117302575Y-69547127D01*
X117297697Y-69550029D01*
X117297695Y-69550030D01*
X117125740Y-69652332D01*
X117125737Y-69652334D01*
X117120856Y-69655238D01*
X116961881Y-69794655D01*
X116958362Y-69799119D01*
X116958359Y-69799122D01*
X116940782Y-69821419D01*
X116830976Y-69960708D01*
X116732523Y-70147836D01*
X116669820Y-70349773D01*
X116669152Y-70355418D01*
X116669151Y-70355422D01*
X116650291Y-70514770D01*
X116644967Y-70559754D01*
X116645338Y-70565416D01*
X116645338Y-70565420D01*
X116646949Y-70590000D01*
X116658796Y-70770749D01*
X116710845Y-70975690D01*
X116713219Y-70980841D01*
X116713221Y-70980845D01*
X116751981Y-71064922D01*
X116799369Y-71167714D01*
X116921405Y-71340391D01*
X117072865Y-71487937D01*
X117077588Y-71491093D01*
X117077592Y-71491096D01*
X117148663Y-71538584D01*
X117248677Y-71605411D01*
X117442953Y-71688878D01*
X117506283Y-71703208D01*
X117643638Y-71734289D01*
X117643642Y-71734290D01*
X117649186Y-71735544D01*
X117668328Y-71736296D01*
X117734543Y-71758596D01*
X117778190Y-71813156D01*
X117785412Y-71882651D01*
X117753914Y-71945018D01*
X117693699Y-71980457D01*
X117684460Y-71982409D01*
X117506550Y-72012979D01*
X117506547Y-72012980D01*
X117500953Y-72013941D01*
X117302575Y-72087127D01*
X117297697Y-72090029D01*
X117297695Y-72090030D01*
X117125740Y-72192332D01*
X117125737Y-72192334D01*
X117120856Y-72195238D01*
X116961881Y-72334655D01*
X116958362Y-72339119D01*
X116958359Y-72339122D01*
X116940782Y-72361419D01*
X116830976Y-72500708D01*
X116732523Y-72687836D01*
X116730837Y-72693267D01*
X116730835Y-72693271D01*
X116673203Y-72878879D01*
X116669820Y-72889773D01*
X116669152Y-72895418D01*
X116669151Y-72895422D01*
X116651779Y-73042203D01*
X116644967Y-73099754D01*
X116645338Y-73105416D01*
X116645338Y-73105420D01*
X116649088Y-73162629D01*
X116658796Y-73310749D01*
X116710845Y-73515690D01*
X116713219Y-73520841D01*
X116713221Y-73520845D01*
X116796991Y-73702556D01*
X116799369Y-73707714D01*
X116921405Y-73880391D01*
X116925476Y-73884357D01*
X116925477Y-73884358D01*
X116985310Y-73942645D01*
X117072865Y-74027937D01*
X117077588Y-74031093D01*
X117077592Y-74031096D01*
X117148663Y-74078584D01*
X117248677Y-74145411D01*
X117442953Y-74228878D01*
X117506283Y-74243208D01*
X117643638Y-74274289D01*
X117643642Y-74274290D01*
X117649186Y-74275544D01*
X117668328Y-74276296D01*
X117734543Y-74298596D01*
X117778190Y-74353156D01*
X117785412Y-74422651D01*
X117753914Y-74485018D01*
X117693699Y-74520457D01*
X117684460Y-74522409D01*
X117506550Y-74552979D01*
X117506547Y-74552980D01*
X117500953Y-74553941D01*
X117302575Y-74627127D01*
X117297697Y-74630029D01*
X117297695Y-74630030D01*
X117125740Y-74732332D01*
X117125737Y-74732334D01*
X117120856Y-74735238D01*
X116961881Y-74874655D01*
X116958362Y-74879119D01*
X116958359Y-74879122D01*
X116940782Y-74901419D01*
X116830976Y-75040708D01*
X116732523Y-75227836D01*
X116669820Y-75429773D01*
X116669152Y-75435418D01*
X116669151Y-75435422D01*
X116650291Y-75594770D01*
X116644967Y-75639754D01*
X116645338Y-75645416D01*
X116645338Y-75645420D01*
X116646949Y-75670000D01*
X116658796Y-75850749D01*
X116710845Y-76055690D01*
X116713219Y-76060841D01*
X116713221Y-76060845D01*
X116751981Y-76144922D01*
X116799369Y-76247714D01*
X116921405Y-76420391D01*
X117072865Y-76567937D01*
X117077588Y-76571093D01*
X117077592Y-76571096D01*
X117148663Y-76618584D01*
X117248677Y-76685411D01*
X117442953Y-76768878D01*
X117506283Y-76783208D01*
X117643638Y-76814289D01*
X117643642Y-76814290D01*
X117649186Y-76815544D01*
X117668328Y-76816296D01*
X117734543Y-76838596D01*
X117778190Y-76893156D01*
X117785412Y-76962651D01*
X117753914Y-77025018D01*
X117693699Y-77060457D01*
X117684460Y-77062409D01*
X117506550Y-77092979D01*
X117506547Y-77092980D01*
X117500953Y-77093941D01*
X117302575Y-77167127D01*
X117297697Y-77170029D01*
X117297695Y-77170030D01*
X117125740Y-77272332D01*
X117125737Y-77272334D01*
X117120856Y-77275238D01*
X116961881Y-77414655D01*
X116958362Y-77419119D01*
X116958359Y-77419122D01*
X116940782Y-77441419D01*
X116830976Y-77580708D01*
X116732523Y-77767836D01*
X116730837Y-77773267D01*
X116730835Y-77773271D01*
X116673203Y-77958879D01*
X116669820Y-77969773D01*
X116669152Y-77975418D01*
X116669151Y-77975422D01*
X116645635Y-78174110D01*
X116644967Y-78179754D01*
X116645338Y-78185416D01*
X116645338Y-78185420D01*
X116646949Y-78210000D01*
X116658796Y-78390749D01*
X116710845Y-78595690D01*
X116713219Y-78600841D01*
X116713221Y-78600845D01*
X116751981Y-78684922D01*
X116799369Y-78787714D01*
X116921405Y-78960391D01*
X117072865Y-79107937D01*
X117077588Y-79111093D01*
X117077592Y-79111096D01*
X117148663Y-79158584D01*
X117248677Y-79225411D01*
X117442953Y-79308878D01*
X117506283Y-79323208D01*
X117643638Y-79354289D01*
X117643642Y-79354290D01*
X117649186Y-79355544D01*
X117668328Y-79356296D01*
X117734543Y-79378596D01*
X117778190Y-79433156D01*
X117785412Y-79502651D01*
X117753914Y-79565018D01*
X117693699Y-79600457D01*
X117684460Y-79602409D01*
X117506550Y-79632979D01*
X117506547Y-79632980D01*
X117500953Y-79633941D01*
X117302575Y-79707127D01*
X117297697Y-79710029D01*
X117297695Y-79710030D01*
X117125740Y-79812332D01*
X117125737Y-79812334D01*
X117120856Y-79815238D01*
X116961881Y-79954655D01*
X116958362Y-79959119D01*
X116958359Y-79959122D01*
X116940782Y-79981419D01*
X116830976Y-80120708D01*
X116732523Y-80307836D01*
X116669820Y-80509773D01*
X116669152Y-80515418D01*
X116669151Y-80515422D01*
X116650291Y-80674770D01*
X116644967Y-80719754D01*
X116645338Y-80725416D01*
X116645338Y-80725420D01*
X116646949Y-80750000D01*
X116658796Y-80930749D01*
X116710845Y-81135690D01*
X116713219Y-81140841D01*
X116713221Y-81140845D01*
X116751981Y-81224922D01*
X116799369Y-81327714D01*
X116802647Y-81332352D01*
X116909971Y-81484212D01*
X116921405Y-81500391D01*
X116925476Y-81504357D01*
X116925477Y-81504358D01*
X116936757Y-81515346D01*
X117072865Y-81647937D01*
X117077588Y-81651093D01*
X117077592Y-81651096D01*
X117132732Y-81687939D01*
X117248677Y-81765411D01*
X117442953Y-81848878D01*
X117506283Y-81863208D01*
X117643638Y-81894289D01*
X117643642Y-81894290D01*
X117649186Y-81895544D01*
X117668328Y-81896296D01*
X117734543Y-81918596D01*
X117778190Y-81973156D01*
X117785412Y-82042651D01*
X117753914Y-82105018D01*
X117693699Y-82140457D01*
X117684460Y-82142409D01*
X117506550Y-82172979D01*
X117506547Y-82172980D01*
X117500953Y-82173941D01*
X117302575Y-82247127D01*
X117297697Y-82250029D01*
X117297695Y-82250030D01*
X117125740Y-82352332D01*
X117125737Y-82352334D01*
X117120856Y-82355238D01*
X116961881Y-82494655D01*
X116958362Y-82499119D01*
X116958359Y-82499122D01*
X116940782Y-82521419D01*
X116830976Y-82660708D01*
X116732523Y-82847836D01*
X116730837Y-82853267D01*
X116730835Y-82853271D01*
X116673203Y-83038879D01*
X116669820Y-83049773D01*
X116669152Y-83055418D01*
X116669151Y-83055422D01*
X116645635Y-83254110D01*
X116644967Y-83259754D01*
X116645338Y-83265416D01*
X116645338Y-83265420D01*
X116646949Y-83290000D01*
X116658796Y-83470749D01*
X116710845Y-83675690D01*
X116713219Y-83680841D01*
X116713221Y-83680845D01*
X116751981Y-83764922D01*
X116799369Y-83867714D01*
X116921405Y-84040391D01*
X117072865Y-84187937D01*
X117077588Y-84191093D01*
X117077592Y-84191096D01*
X117148663Y-84238584D01*
X117248677Y-84305411D01*
X117442953Y-84388878D01*
X117506283Y-84403208D01*
X117643638Y-84434289D01*
X117643642Y-84434290D01*
X117649186Y-84435544D01*
X117668328Y-84436296D01*
X117734543Y-84458596D01*
X117778190Y-84513156D01*
X117785412Y-84582651D01*
X117753914Y-84645018D01*
X117693699Y-84680457D01*
X117684460Y-84682409D01*
X117506550Y-84712979D01*
X117506547Y-84712980D01*
X117500953Y-84713941D01*
X117302575Y-84787127D01*
X117297697Y-84790029D01*
X117297695Y-84790030D01*
X117125740Y-84892332D01*
X117125737Y-84892334D01*
X117120856Y-84895238D01*
X116961881Y-85034655D01*
X116958362Y-85039119D01*
X116958359Y-85039122D01*
X116940782Y-85061419D01*
X116830976Y-85200708D01*
X116732523Y-85387836D01*
X116730837Y-85393267D01*
X116730835Y-85393271D01*
X116708252Y-85466000D01*
X116669820Y-85589773D01*
X116669152Y-85595418D01*
X116669151Y-85595422D01*
X116650291Y-85754770D01*
X116644967Y-85799754D01*
X116645338Y-85805416D01*
X116645338Y-85805420D01*
X116646949Y-85830000D01*
X116658796Y-86010749D01*
X116710845Y-86215690D01*
X116713219Y-86220841D01*
X116713221Y-86220845D01*
X116790910Y-86389366D01*
X116799369Y-86407714D01*
X116802647Y-86412352D01*
X116865060Y-86500664D01*
X116921405Y-86580391D01*
X117072865Y-86727937D01*
X117077588Y-86731093D01*
X117077592Y-86731096D01*
X117148663Y-86778584D01*
X117248677Y-86845411D01*
X117442953Y-86928878D01*
X117506283Y-86943208D01*
X117643638Y-86974289D01*
X117643642Y-86974290D01*
X117649186Y-86975544D01*
X117668328Y-86976296D01*
X117734543Y-86998596D01*
X117778190Y-87053156D01*
X117785412Y-87122651D01*
X117753914Y-87185018D01*
X117693699Y-87220457D01*
X117684460Y-87222409D01*
X117506550Y-87252979D01*
X117506547Y-87252980D01*
X117500953Y-87253941D01*
X117302575Y-87327127D01*
X117297697Y-87330029D01*
X117297695Y-87330030D01*
X117125740Y-87432332D01*
X117125737Y-87432334D01*
X117120856Y-87435238D01*
X116961881Y-87574655D01*
X116958362Y-87579119D01*
X116958359Y-87579122D01*
X116940782Y-87601419D01*
X116830976Y-87740708D01*
X116732523Y-87927836D01*
X116730837Y-87933267D01*
X116730835Y-87933271D01*
X116673203Y-88118879D01*
X116669820Y-88129773D01*
X116669152Y-88135418D01*
X116669151Y-88135422D01*
X116645635Y-88334110D01*
X116644967Y-88339754D01*
X116645338Y-88345416D01*
X116645338Y-88345420D01*
X116646949Y-88370000D01*
X116658796Y-88550749D01*
X116710845Y-88755690D01*
X116713219Y-88760841D01*
X116713221Y-88760845D01*
X116751981Y-88844922D01*
X116799369Y-88947714D01*
X116921405Y-89120391D01*
X117072865Y-89267937D01*
X117077588Y-89271093D01*
X117077592Y-89271096D01*
X117116528Y-89297112D01*
X117248677Y-89385411D01*
X117442953Y-89468878D01*
X117506283Y-89483208D01*
X117643638Y-89514289D01*
X117643642Y-89514290D01*
X117649186Y-89515544D01*
X117668328Y-89516296D01*
X117734543Y-89538596D01*
X117778190Y-89593156D01*
X117785412Y-89662651D01*
X117753914Y-89725018D01*
X117693699Y-89760457D01*
X117684460Y-89762409D01*
X117506550Y-89792979D01*
X117506547Y-89792980D01*
X117500953Y-89793941D01*
X117302575Y-89867127D01*
X117297697Y-89870029D01*
X117297695Y-89870030D01*
X117125740Y-89972332D01*
X117125737Y-89972334D01*
X117120856Y-89975238D01*
X116961881Y-90114655D01*
X116958362Y-90119119D01*
X116958359Y-90119122D01*
X116907986Y-90183021D01*
X116830976Y-90280708D01*
X116732523Y-90467836D01*
X116730837Y-90473267D01*
X116730835Y-90473271D01*
X116704338Y-90558607D01*
X116669820Y-90669773D01*
X116669152Y-90675418D01*
X116669151Y-90675422D01*
X116656256Y-90784371D01*
X116644967Y-90879754D01*
X116645338Y-90885416D01*
X116645338Y-90885420D01*
X116646882Y-90908979D01*
X116658796Y-91090749D01*
X116710845Y-91295690D01*
X116713219Y-91300841D01*
X116713221Y-91300845D01*
X116779368Y-91444329D01*
X116799369Y-91487714D01*
X116921405Y-91660391D01*
X117072865Y-91807937D01*
X117077588Y-91811093D01*
X117077592Y-91811096D01*
X117082835Y-91814599D01*
X117248677Y-91925411D01*
X117442953Y-92008878D01*
X117506283Y-92023208D01*
X117643638Y-92054289D01*
X117643642Y-92054290D01*
X117649186Y-92055544D01*
X117668328Y-92056296D01*
X117734543Y-92078596D01*
X117778190Y-92133156D01*
X117785412Y-92202651D01*
X117753914Y-92265018D01*
X117693699Y-92300457D01*
X117684460Y-92302409D01*
X117506550Y-92332979D01*
X117506547Y-92332980D01*
X117500953Y-92333941D01*
X117302575Y-92407127D01*
X117297697Y-92410029D01*
X117297695Y-92410030D01*
X117125740Y-92512332D01*
X117125737Y-92512334D01*
X117120856Y-92515238D01*
X116961881Y-92654655D01*
X116958362Y-92659119D01*
X116958359Y-92659122D01*
X116940782Y-92681419D01*
X116830976Y-92820708D01*
X116732523Y-93007836D01*
X116730837Y-93013267D01*
X116730835Y-93013271D01*
X116673203Y-93198879D01*
X116669820Y-93209773D01*
X116669152Y-93215418D01*
X116669151Y-93215422D01*
X116645635Y-93414110D01*
X116644967Y-93419754D01*
X116645338Y-93425416D01*
X116645338Y-93425420D01*
X116646949Y-93450000D01*
X116658796Y-93630749D01*
X116710845Y-93835690D01*
X116713219Y-93840841D01*
X116713221Y-93840845D01*
X116751981Y-93924922D01*
X116799369Y-94027714D01*
X116921405Y-94200391D01*
X117072865Y-94347937D01*
X117077588Y-94351093D01*
X117077592Y-94351096D01*
X117148663Y-94398584D01*
X117248677Y-94465411D01*
X117442953Y-94548878D01*
X117506283Y-94563208D01*
X117643638Y-94594289D01*
X117643642Y-94594290D01*
X117649186Y-94595544D01*
X117668328Y-94596296D01*
X117734543Y-94618596D01*
X117778190Y-94673156D01*
X117785412Y-94742651D01*
X117753914Y-94805018D01*
X117693699Y-94840457D01*
X117684460Y-94842409D01*
X117506550Y-94872979D01*
X117506547Y-94872980D01*
X117500953Y-94873941D01*
X117302575Y-94947127D01*
X117297697Y-94950029D01*
X117297695Y-94950030D01*
X117125740Y-95052332D01*
X117125737Y-95052334D01*
X117120856Y-95055238D01*
X116961881Y-95194655D01*
X116958362Y-95199119D01*
X116958359Y-95199122D01*
X116940782Y-95221419D01*
X116830976Y-95360708D01*
X116732523Y-95547836D01*
X116669820Y-95749773D01*
X116669152Y-95755418D01*
X116669151Y-95755422D01*
X116650291Y-95914770D01*
X116644967Y-95959754D01*
X116645338Y-95965416D01*
X116645338Y-95965420D01*
X116646949Y-95990000D01*
X116658796Y-96170749D01*
X116710845Y-96375690D01*
X116713219Y-96380841D01*
X116713221Y-96380845D01*
X116751981Y-96464922D01*
X116799369Y-96567714D01*
X116921405Y-96740391D01*
X117072865Y-96887937D01*
X117077588Y-96891093D01*
X117077592Y-96891096D01*
X117148663Y-96938584D01*
X117248677Y-97005411D01*
X117442953Y-97088878D01*
X117506283Y-97103208D01*
X117643638Y-97134289D01*
X117643642Y-97134290D01*
X117649186Y-97135544D01*
X117668328Y-97136296D01*
X117734543Y-97158596D01*
X117778190Y-97213156D01*
X117785412Y-97282651D01*
X117753914Y-97345018D01*
X117693699Y-97380457D01*
X117684460Y-97382409D01*
X117506550Y-97412979D01*
X117506547Y-97412980D01*
X117500953Y-97413941D01*
X117302575Y-97487127D01*
X117297697Y-97490029D01*
X117297695Y-97490030D01*
X117125740Y-97592332D01*
X117125737Y-97592334D01*
X117120856Y-97595238D01*
X116961881Y-97734655D01*
X116958362Y-97739119D01*
X116958359Y-97739122D01*
X116940782Y-97761419D01*
X116830976Y-97900708D01*
X116732523Y-98087836D01*
X116730837Y-98093267D01*
X116730835Y-98093271D01*
X116673203Y-98278879D01*
X116669820Y-98289773D01*
X116669152Y-98295418D01*
X116669151Y-98295422D01*
X116645635Y-98494110D01*
X116644967Y-98499754D01*
X116645338Y-98505416D01*
X116645338Y-98505420D01*
X116646949Y-98530000D01*
X116658796Y-98710749D01*
X116710845Y-98915690D01*
X116713219Y-98920841D01*
X116713221Y-98920845D01*
X116751981Y-99004922D01*
X116799369Y-99107714D01*
X116921405Y-99280391D01*
X117072865Y-99427937D01*
X117077588Y-99431093D01*
X117077592Y-99431096D01*
X117148663Y-99478584D01*
X117248677Y-99545411D01*
X117442953Y-99628878D01*
X117506283Y-99643208D01*
X117643638Y-99674289D01*
X117643642Y-99674290D01*
X117649186Y-99675544D01*
X117668328Y-99676296D01*
X117734543Y-99698596D01*
X117778190Y-99753156D01*
X117785412Y-99822651D01*
X117753914Y-99885018D01*
X117693699Y-99920457D01*
X117684460Y-99922409D01*
X117506550Y-99952979D01*
X117506547Y-99952980D01*
X117500953Y-99953941D01*
X117302575Y-100027127D01*
X117297697Y-100030029D01*
X117297695Y-100030030D01*
X117125740Y-100132332D01*
X117125737Y-100132334D01*
X117120856Y-100135238D01*
X116961881Y-100274655D01*
X116958362Y-100279119D01*
X116958359Y-100279122D01*
X116915624Y-100333332D01*
X116830976Y-100440708D01*
X116732523Y-100627836D01*
X116730837Y-100633267D01*
X116730835Y-100633271D01*
X116687468Y-100772937D01*
X116669820Y-100829773D01*
X116669152Y-100835418D01*
X116669151Y-100835422D01*
X116647656Y-101017035D01*
X116644967Y-101039754D01*
X116645338Y-101045416D01*
X116645338Y-101045420D01*
X116646713Y-101066399D01*
X116658796Y-101250749D01*
X116710845Y-101455690D01*
X116713219Y-101460841D01*
X116713221Y-101460845D01*
X116792253Y-101632279D01*
X116799369Y-101647714D01*
X116802647Y-101652352D01*
X116865891Y-101741840D01*
X116921405Y-101820391D01*
X117072865Y-101967937D01*
X117077588Y-101971093D01*
X117077592Y-101971096D01*
X117148663Y-102018584D01*
X117248677Y-102085411D01*
X117442953Y-102168878D01*
X117506283Y-102183208D01*
X117643638Y-102214289D01*
X117643642Y-102214290D01*
X117649186Y-102215544D01*
X117668328Y-102216296D01*
X117734543Y-102238596D01*
X117778190Y-102293156D01*
X117785412Y-102362651D01*
X117753914Y-102425018D01*
X117693699Y-102460457D01*
X117684460Y-102462409D01*
X117506550Y-102492979D01*
X117506547Y-102492980D01*
X117500953Y-102493941D01*
X117302575Y-102567127D01*
X117297697Y-102570029D01*
X117297695Y-102570030D01*
X117125740Y-102672332D01*
X117125737Y-102672334D01*
X117120856Y-102675238D01*
X116961881Y-102814655D01*
X116958362Y-102819119D01*
X116958359Y-102819122D01*
X116935496Y-102848124D01*
X116830976Y-102980708D01*
X116732523Y-103167836D01*
X116730837Y-103173267D01*
X116730835Y-103173271D01*
X116685200Y-103320241D01*
X116669820Y-103369773D01*
X116669152Y-103375418D01*
X116669151Y-103375422D01*
X116654975Y-103495197D01*
X116644967Y-103579754D01*
X110348658Y-103579754D01*
X110203275Y-103376310D01*
X110200251Y-103373140D01*
X110200246Y-103373134D01*
X110017596Y-103181668D01*
X110017595Y-103181667D01*
X110014569Y-103178495D01*
X110007943Y-103173271D01*
X109803314Y-103011955D01*
X109799874Y-103009243D01*
X109796094Y-103007047D01*
X109796089Y-103007044D01*
X109681673Y-102940586D01*
X109563472Y-102871930D01*
X109467381Y-102833009D01*
X109314148Y-102770943D01*
X109314144Y-102770942D01*
X109310081Y-102769296D01*
X109305827Y-102768239D01*
X109305823Y-102768238D01*
X109049012Y-102704446D01*
X109049013Y-102704446D01*
X109044757Y-102703389D01*
X108960957Y-102694803D01*
X108814745Y-102679822D01*
X108814738Y-102679822D01*
X108811599Y-102679500D01*
X108642358Y-102679500D01*
X108640190Y-102679654D01*
X108640176Y-102679654D01*
X108512804Y-102688673D01*
X108439295Y-102693878D01*
X108172032Y-102751418D01*
X108167911Y-102752938D01*
X108167912Y-102752938D01*
X107919656Y-102844524D01*
X107919653Y-102844525D01*
X107915542Y-102846042D01*
X107674944Y-102975862D01*
X107671418Y-102978467D01*
X107671417Y-102978467D01*
X107636376Y-103004349D01*
X107455038Y-103138287D01*
X107451910Y-103141367D01*
X107451908Y-103141368D01*
X107263339Y-103326998D01*
X107263334Y-103327004D01*
X107260212Y-103330077D01*
X107094353Y-103547404D01*
X107092215Y-103551222D01*
X106962911Y-103782110D01*
X106962908Y-103782116D01*
X106960770Y-103785934D01*
X106956778Y-103796253D01*
X106881750Y-103990189D01*
X106862129Y-104040905D01*
X106861138Y-104045182D01*
X106861137Y-104045184D01*
X106848595Y-104099292D01*
X106800397Y-104307232D01*
X106776808Y-104579600D01*
X94401090Y-104579600D01*
X94400500Y-104572861D01*
X94400500Y-102963972D01*
X98525000Y-102963972D01*
X98525363Y-102970669D01*
X98530803Y-103020744D01*
X98534371Y-103035753D01*
X98578817Y-103154311D01*
X98587212Y-103169646D01*
X98662516Y-103270124D01*
X98674876Y-103282484D01*
X98775354Y-103357788D01*
X98790689Y-103366183D01*
X98909247Y-103410629D01*
X98924256Y-103414197D01*
X98974331Y-103419637D01*
X98981028Y-103420000D01*
X99807170Y-103420000D01*
X99822169Y-103415596D01*
X99823356Y-103414226D01*
X99825000Y-103406668D01*
X99825000Y-103402170D01*
X100325000Y-103402170D01*
X100329404Y-103417169D01*
X100330774Y-103418356D01*
X100338332Y-103420000D01*
X101168972Y-103420000D01*
X101175669Y-103419637D01*
X101225744Y-103414197D01*
X101240753Y-103410629D01*
X101359311Y-103366183D01*
X101374646Y-103357788D01*
X101475124Y-103282484D01*
X101487484Y-103270124D01*
X101562788Y-103169646D01*
X101571183Y-103154311D01*
X101615629Y-103035753D01*
X101619197Y-103020744D01*
X101624637Y-102970669D01*
X101625000Y-102963972D01*
X101625000Y-102137830D01*
X101620596Y-102122831D01*
X101619226Y-102121644D01*
X101611668Y-102120000D01*
X100342830Y-102120000D01*
X100327831Y-102124404D01*
X100326644Y-102125774D01*
X100325000Y-102133332D01*
X100325000Y-103402170D01*
X99825000Y-103402170D01*
X99825000Y-102137830D01*
X99820596Y-102122831D01*
X99819226Y-102121644D01*
X99811668Y-102120000D01*
X98542830Y-102120000D01*
X98527831Y-102124404D01*
X98526644Y-102125774D01*
X98525000Y-102133332D01*
X98525000Y-102963972D01*
X94400500Y-102963972D01*
X94400500Y-101602170D01*
X98525000Y-101602170D01*
X98529404Y-101617169D01*
X98530774Y-101618356D01*
X98538332Y-101620000D01*
X99807170Y-101620000D01*
X99822169Y-101615596D01*
X99823356Y-101614226D01*
X99825000Y-101606668D01*
X99825000Y-101602170D01*
X100325000Y-101602170D01*
X100329404Y-101617169D01*
X100330774Y-101618356D01*
X100338332Y-101620000D01*
X101607170Y-101620000D01*
X101622169Y-101615596D01*
X101623356Y-101614226D01*
X101625000Y-101606668D01*
X101625000Y-100776028D01*
X101624637Y-100769331D01*
X101619197Y-100719256D01*
X101615629Y-100704247D01*
X101571183Y-100585689D01*
X101562788Y-100570354D01*
X101487484Y-100469876D01*
X101475124Y-100457516D01*
X101374646Y-100382212D01*
X101359311Y-100373817D01*
X101240753Y-100329371D01*
X101225744Y-100325803D01*
X101175669Y-100320363D01*
X101168972Y-100320000D01*
X100342830Y-100320000D01*
X100327831Y-100324404D01*
X100326644Y-100325774D01*
X100325000Y-100333332D01*
X100325000Y-101602170D01*
X99825000Y-101602170D01*
X99825000Y-100337830D01*
X99820596Y-100322831D01*
X99819226Y-100321644D01*
X99811668Y-100320000D01*
X98981028Y-100320000D01*
X98974331Y-100320363D01*
X98924256Y-100325803D01*
X98909247Y-100329371D01*
X98790689Y-100373817D01*
X98775354Y-100382212D01*
X98674876Y-100457516D01*
X98662516Y-100469876D01*
X98587212Y-100570354D01*
X98578817Y-100585689D01*
X98534371Y-100704247D01*
X98530803Y-100719256D01*
X98525363Y-100769331D01*
X98525000Y-100776028D01*
X98525000Y-101602170D01*
X94400500Y-101602170D01*
X94400500Y-96790000D01*
X98719341Y-96790000D01*
X98719813Y-96795395D01*
X98732341Y-96938584D01*
X98739937Y-97025408D01*
X98741336Y-97030631D01*
X98741337Y-97030634D01*
X98769111Y-97134289D01*
X98801097Y-97253663D01*
X98803384Y-97258567D01*
X98803386Y-97258573D01*
X98860755Y-97381600D01*
X98900965Y-97467829D01*
X98904072Y-97472266D01*
X98904073Y-97472268D01*
X99033399Y-97656966D01*
X99033403Y-97656970D01*
X99036505Y-97661401D01*
X99203599Y-97828495D01*
X99397170Y-97964035D01*
X99611337Y-98063903D01*
X99695137Y-98086357D01*
X99834366Y-98123663D01*
X99834369Y-98123664D01*
X99839592Y-98125063D01*
X99844979Y-98125534D01*
X99844983Y-98125535D01*
X100069605Y-98145187D01*
X100075000Y-98145659D01*
X100080395Y-98145187D01*
X100305017Y-98125535D01*
X100305021Y-98125534D01*
X100310408Y-98125063D01*
X100315631Y-98123664D01*
X100315634Y-98123663D01*
X100454863Y-98086357D01*
X100538663Y-98063903D01*
X100752830Y-97964035D01*
X100946401Y-97828495D01*
X101113495Y-97661401D01*
X101116597Y-97656970D01*
X101116601Y-97656966D01*
X101245927Y-97472268D01*
X101245928Y-97472266D01*
X101249035Y-97467829D01*
X101289245Y-97381600D01*
X101346614Y-97258573D01*
X101346616Y-97258567D01*
X101348903Y-97253663D01*
X101380889Y-97134289D01*
X101408663Y-97030634D01*
X101408664Y-97030631D01*
X101410063Y-97025408D01*
X101417660Y-96938584D01*
X101430187Y-96795395D01*
X101430659Y-96790000D01*
X101425913Y-96735752D01*
X101410535Y-96559983D01*
X101410534Y-96559979D01*
X101410063Y-96554592D01*
X101384706Y-96459955D01*
X101350305Y-96331570D01*
X101348903Y-96326337D01*
X101346616Y-96321433D01*
X101346614Y-96321427D01*
X101251325Y-96117082D01*
X101249035Y-96112171D01*
X101245927Y-96107732D01*
X101116601Y-95923034D01*
X101116597Y-95923030D01*
X101113495Y-95918599D01*
X100946401Y-95751505D01*
X100752830Y-95615965D01*
X100538663Y-95516097D01*
X100454863Y-95493643D01*
X100315634Y-95456337D01*
X100315631Y-95456336D01*
X100310408Y-95454937D01*
X100305021Y-95454466D01*
X100305017Y-95454465D01*
X100080395Y-95434813D01*
X100075000Y-95434341D01*
X100069605Y-95434813D01*
X99844983Y-95454465D01*
X99844979Y-95454466D01*
X99839592Y-95454937D01*
X99834369Y-95456336D01*
X99834366Y-95456337D01*
X99695137Y-95493643D01*
X99611337Y-95516097D01*
X99606433Y-95518384D01*
X99606427Y-95518386D01*
X99471295Y-95581400D01*
X99397171Y-95615965D01*
X99392734Y-95619072D01*
X99392732Y-95619073D01*
X99208034Y-95748399D01*
X99208033Y-95748400D01*
X99203599Y-95751505D01*
X99036505Y-95918599D01*
X99033403Y-95923030D01*
X99033399Y-95923034D01*
X98904073Y-96107732D01*
X98900965Y-96112171D01*
X98898675Y-96117082D01*
X98803386Y-96321427D01*
X98803384Y-96321433D01*
X98801097Y-96326337D01*
X98799695Y-96331570D01*
X98765295Y-96459955D01*
X98739937Y-96554592D01*
X98739466Y-96559979D01*
X98739465Y-96559983D01*
X98724087Y-96735752D01*
X98719341Y-96790000D01*
X94400500Y-96790000D01*
X94400500Y-91710000D01*
X98719341Y-91710000D01*
X98719813Y-91715395D01*
X98738869Y-91933197D01*
X98739937Y-91945408D01*
X98741336Y-91950631D01*
X98741337Y-91950634D01*
X98769111Y-92054289D01*
X98801097Y-92173663D01*
X98803384Y-92178567D01*
X98803386Y-92178573D01*
X98860755Y-92301600D01*
X98900965Y-92387829D01*
X98904072Y-92392266D01*
X98904073Y-92392268D01*
X99033399Y-92576966D01*
X99033403Y-92576970D01*
X99036505Y-92581401D01*
X99203599Y-92748495D01*
X99397170Y-92884035D01*
X99611337Y-92983903D01*
X99695137Y-93006357D01*
X99834366Y-93043663D01*
X99834369Y-93043664D01*
X99839592Y-93045063D01*
X99844979Y-93045534D01*
X99844983Y-93045535D01*
X100069605Y-93065187D01*
X100075000Y-93065659D01*
X100080395Y-93065187D01*
X100305017Y-93045535D01*
X100305021Y-93045534D01*
X100310408Y-93045063D01*
X100315631Y-93043664D01*
X100315634Y-93043663D01*
X100454863Y-93006357D01*
X100538663Y-92983903D01*
X100752830Y-92884035D01*
X100946401Y-92748495D01*
X101113495Y-92581401D01*
X101116597Y-92576970D01*
X101116601Y-92576966D01*
X101245927Y-92392268D01*
X101245928Y-92392266D01*
X101249035Y-92387829D01*
X101289245Y-92301600D01*
X101346614Y-92178573D01*
X101346616Y-92178567D01*
X101348903Y-92173663D01*
X101380889Y-92054289D01*
X101408663Y-91950634D01*
X101408664Y-91950631D01*
X101410063Y-91945408D01*
X101411132Y-91933197D01*
X101430187Y-91715395D01*
X101430659Y-91710000D01*
X101425913Y-91655752D01*
X101410535Y-91479983D01*
X101410534Y-91479979D01*
X101410063Y-91474592D01*
X101402952Y-91448051D01*
X101360653Y-91290189D01*
X101348903Y-91246337D01*
X101346616Y-91241433D01*
X101346614Y-91241427D01*
X101251325Y-91037082D01*
X101249035Y-91032171D01*
X101241718Y-91021721D01*
X101116601Y-90843034D01*
X101116597Y-90843030D01*
X101113495Y-90838599D01*
X100946401Y-90671505D01*
X100752830Y-90535965D01*
X100538663Y-90436097D01*
X100454863Y-90413643D01*
X100315634Y-90376337D01*
X100315631Y-90376336D01*
X100310408Y-90374937D01*
X100305021Y-90374466D01*
X100305017Y-90374465D01*
X100080395Y-90354813D01*
X100075000Y-90354341D01*
X100069605Y-90354813D01*
X99844983Y-90374465D01*
X99844979Y-90374466D01*
X99839592Y-90374937D01*
X99834369Y-90376336D01*
X99834366Y-90376337D01*
X99695137Y-90413643D01*
X99611337Y-90436097D01*
X99606433Y-90438384D01*
X99606427Y-90438386D01*
X99471295Y-90501400D01*
X99397171Y-90535965D01*
X99392734Y-90539072D01*
X99392732Y-90539073D01*
X99208034Y-90668399D01*
X99208033Y-90668400D01*
X99203599Y-90671505D01*
X99036505Y-90838599D01*
X99033403Y-90843030D01*
X99033399Y-90843034D01*
X98908282Y-91021721D01*
X98900965Y-91032171D01*
X98898675Y-91037082D01*
X98803386Y-91241427D01*
X98803384Y-91241433D01*
X98801097Y-91246337D01*
X98789347Y-91290189D01*
X98747049Y-91448051D01*
X98739937Y-91474592D01*
X98739466Y-91479979D01*
X98739465Y-91479983D01*
X98724087Y-91655752D01*
X98719341Y-91710000D01*
X94400500Y-91710000D01*
X94400500Y-86630000D01*
X98719341Y-86630000D01*
X98719813Y-86635395D01*
X98734349Y-86801535D01*
X98739937Y-86865408D01*
X98741336Y-86870631D01*
X98741337Y-86870634D01*
X98769111Y-86974289D01*
X98801097Y-87093663D01*
X98803384Y-87098567D01*
X98803386Y-87098573D01*
X98860755Y-87221600D01*
X98900965Y-87307829D01*
X98904072Y-87312266D01*
X98904073Y-87312268D01*
X99033399Y-87496966D01*
X99033403Y-87496970D01*
X99036505Y-87501401D01*
X99203599Y-87668495D01*
X99397170Y-87804035D01*
X99611337Y-87903903D01*
X99695137Y-87926357D01*
X99834366Y-87963663D01*
X99834369Y-87963664D01*
X99839592Y-87965063D01*
X99844979Y-87965534D01*
X99844983Y-87965535D01*
X100069605Y-87985187D01*
X100075000Y-87985659D01*
X100080395Y-87985187D01*
X100305017Y-87965535D01*
X100305021Y-87965534D01*
X100310408Y-87965063D01*
X100315631Y-87963664D01*
X100315634Y-87963663D01*
X100454863Y-87926357D01*
X100538663Y-87903903D01*
X100752830Y-87804035D01*
X100946401Y-87668495D01*
X101113495Y-87501401D01*
X101116597Y-87496970D01*
X101116601Y-87496966D01*
X101245927Y-87312268D01*
X101245928Y-87312266D01*
X101249035Y-87307829D01*
X101289245Y-87221600D01*
X101346614Y-87098573D01*
X101346616Y-87098567D01*
X101348903Y-87093663D01*
X101380889Y-86974289D01*
X101408663Y-86870634D01*
X101408664Y-86870631D01*
X101410063Y-86865408D01*
X101415652Y-86801535D01*
X101430187Y-86635395D01*
X101430659Y-86630000D01*
X101419950Y-86507600D01*
X101410535Y-86399983D01*
X101410534Y-86399979D01*
X101410063Y-86394592D01*
X101384706Y-86299955D01*
X101350305Y-86171570D01*
X101348903Y-86166337D01*
X101346616Y-86161433D01*
X101346614Y-86161427D01*
X101251325Y-85957082D01*
X101249035Y-85952171D01*
X101229611Y-85924430D01*
X101116601Y-85763034D01*
X101116597Y-85763030D01*
X101113495Y-85758599D01*
X100946401Y-85591505D01*
X100752830Y-85455965D01*
X100538663Y-85356097D01*
X100454863Y-85333643D01*
X100315634Y-85296337D01*
X100315631Y-85296336D01*
X100310408Y-85294937D01*
X100305021Y-85294466D01*
X100305017Y-85294465D01*
X100080395Y-85274813D01*
X100075000Y-85274341D01*
X100069605Y-85274813D01*
X99844983Y-85294465D01*
X99844979Y-85294466D01*
X99839592Y-85294937D01*
X99834369Y-85296336D01*
X99834366Y-85296337D01*
X99695137Y-85333643D01*
X99611337Y-85356097D01*
X99606433Y-85358384D01*
X99606427Y-85358386D01*
X99471295Y-85421400D01*
X99397171Y-85455965D01*
X99392734Y-85459072D01*
X99392732Y-85459073D01*
X99208034Y-85588399D01*
X99208033Y-85588400D01*
X99203599Y-85591505D01*
X99036505Y-85758599D01*
X99033403Y-85763030D01*
X99033399Y-85763034D01*
X98920389Y-85924430D01*
X98900965Y-85952171D01*
X98898675Y-85957082D01*
X98803386Y-86161427D01*
X98803384Y-86161433D01*
X98801097Y-86166337D01*
X98799695Y-86171570D01*
X98765295Y-86299955D01*
X98739937Y-86394592D01*
X98739466Y-86399979D01*
X98739465Y-86399983D01*
X98730050Y-86507600D01*
X98719341Y-86630000D01*
X94400500Y-86630000D01*
X94400500Y-81550000D01*
X98719341Y-81550000D01*
X98719813Y-81555395D01*
X98735622Y-81736084D01*
X98739937Y-81785408D01*
X98741336Y-81790631D01*
X98741337Y-81790634D01*
X98769111Y-81894289D01*
X98801097Y-82013663D01*
X98803384Y-82018567D01*
X98803386Y-82018573D01*
X98860755Y-82141600D01*
X98900965Y-82227829D01*
X98904072Y-82232266D01*
X98904073Y-82232268D01*
X99033399Y-82416966D01*
X99033403Y-82416970D01*
X99036505Y-82421401D01*
X99203599Y-82588495D01*
X99397170Y-82724035D01*
X99611337Y-82823903D01*
X99695137Y-82846357D01*
X99834366Y-82883663D01*
X99834369Y-82883664D01*
X99839592Y-82885063D01*
X99844979Y-82885534D01*
X99844983Y-82885535D01*
X100069605Y-82905187D01*
X100075000Y-82905659D01*
X100080395Y-82905187D01*
X100305017Y-82885535D01*
X100305021Y-82885534D01*
X100310408Y-82885063D01*
X100315631Y-82883664D01*
X100315634Y-82883663D01*
X100454863Y-82846357D01*
X100538663Y-82823903D01*
X100752830Y-82724035D01*
X100946401Y-82588495D01*
X101113495Y-82421401D01*
X101116597Y-82416970D01*
X101116601Y-82416966D01*
X101245927Y-82232268D01*
X101245928Y-82232266D01*
X101249035Y-82227829D01*
X101289245Y-82141600D01*
X101346614Y-82018573D01*
X101346616Y-82018567D01*
X101348903Y-82013663D01*
X101380889Y-81894289D01*
X101408663Y-81790634D01*
X101408664Y-81790631D01*
X101410063Y-81785408D01*
X101414379Y-81736084D01*
X101430187Y-81555395D01*
X101430659Y-81550000D01*
X101424269Y-81476965D01*
X101410535Y-81319983D01*
X101410534Y-81319979D01*
X101410063Y-81314592D01*
X101384706Y-81219955D01*
X101350305Y-81091570D01*
X101348903Y-81086337D01*
X101346616Y-81081433D01*
X101346614Y-81081427D01*
X101251325Y-80877082D01*
X101249035Y-80872171D01*
X101245927Y-80867732D01*
X101116601Y-80683034D01*
X101116597Y-80683030D01*
X101113495Y-80678599D01*
X100946401Y-80511505D01*
X100752830Y-80375965D01*
X100538663Y-80276097D01*
X100454863Y-80253643D01*
X100315634Y-80216337D01*
X100315631Y-80216336D01*
X100310408Y-80214937D01*
X100305021Y-80214466D01*
X100305017Y-80214465D01*
X100080395Y-80194813D01*
X100075000Y-80194341D01*
X100069605Y-80194813D01*
X99844983Y-80214465D01*
X99844979Y-80214466D01*
X99839592Y-80214937D01*
X99834369Y-80216336D01*
X99834366Y-80216337D01*
X99695137Y-80253643D01*
X99611337Y-80276097D01*
X99606433Y-80278384D01*
X99606427Y-80278386D01*
X99471295Y-80341400D01*
X99397171Y-80375965D01*
X99392734Y-80379072D01*
X99392732Y-80379073D01*
X99208034Y-80508399D01*
X99208033Y-80508400D01*
X99203599Y-80511505D01*
X99036505Y-80678599D01*
X99033403Y-80683030D01*
X99033399Y-80683034D01*
X98904073Y-80867732D01*
X98900965Y-80872171D01*
X98898675Y-80877082D01*
X98803386Y-81081427D01*
X98803384Y-81081433D01*
X98801097Y-81086337D01*
X98799695Y-81091570D01*
X98765295Y-81219955D01*
X98739937Y-81314592D01*
X98739466Y-81319979D01*
X98739465Y-81319983D01*
X98725731Y-81476965D01*
X98719341Y-81550000D01*
X94400500Y-81550000D01*
X94400500Y-76470000D01*
X98719341Y-76470000D01*
X98719813Y-76475395D01*
X98732341Y-76618584D01*
X98739937Y-76705408D01*
X98741336Y-76710631D01*
X98741337Y-76710634D01*
X98769111Y-76814289D01*
X98801097Y-76933663D01*
X98803384Y-76938567D01*
X98803386Y-76938573D01*
X98860755Y-77061600D01*
X98900965Y-77147829D01*
X98904072Y-77152266D01*
X98904073Y-77152268D01*
X99033399Y-77336966D01*
X99033403Y-77336970D01*
X99036505Y-77341401D01*
X99203599Y-77508495D01*
X99397170Y-77644035D01*
X99611337Y-77743903D01*
X99695137Y-77766357D01*
X99834366Y-77803663D01*
X99834369Y-77803664D01*
X99839592Y-77805063D01*
X99844979Y-77805534D01*
X99844983Y-77805535D01*
X100069605Y-77825187D01*
X100075000Y-77825659D01*
X100080395Y-77825187D01*
X100305017Y-77805535D01*
X100305021Y-77805534D01*
X100310408Y-77805063D01*
X100315631Y-77803664D01*
X100315634Y-77803663D01*
X100454863Y-77766357D01*
X100538663Y-77743903D01*
X100752830Y-77644035D01*
X100946401Y-77508495D01*
X101113495Y-77341401D01*
X101116597Y-77336970D01*
X101116601Y-77336966D01*
X101245927Y-77152268D01*
X101245928Y-77152266D01*
X101249035Y-77147829D01*
X101289245Y-77061600D01*
X101346614Y-76938573D01*
X101346616Y-76938567D01*
X101348903Y-76933663D01*
X101380889Y-76814289D01*
X101408663Y-76710634D01*
X101408664Y-76710631D01*
X101410063Y-76705408D01*
X101417660Y-76618584D01*
X101430187Y-76475395D01*
X101430659Y-76470000D01*
X101425913Y-76415752D01*
X101410535Y-76239983D01*
X101410534Y-76239979D01*
X101410063Y-76234592D01*
X101384706Y-76139955D01*
X101350305Y-76011570D01*
X101348903Y-76006337D01*
X101346616Y-76001433D01*
X101346614Y-76001427D01*
X101251325Y-75797082D01*
X101249035Y-75792171D01*
X101245927Y-75787732D01*
X101116601Y-75603034D01*
X101116597Y-75603030D01*
X101113495Y-75598599D01*
X100946401Y-75431505D01*
X100752830Y-75295965D01*
X100538663Y-75196097D01*
X100454863Y-75173643D01*
X100315634Y-75136337D01*
X100315631Y-75136336D01*
X100310408Y-75134937D01*
X100305021Y-75134466D01*
X100305017Y-75134465D01*
X100080395Y-75114813D01*
X100075000Y-75114341D01*
X100069605Y-75114813D01*
X99844983Y-75134465D01*
X99844979Y-75134466D01*
X99839592Y-75134937D01*
X99834369Y-75136336D01*
X99834366Y-75136337D01*
X99695137Y-75173643D01*
X99611337Y-75196097D01*
X99606433Y-75198384D01*
X99606427Y-75198386D01*
X99471295Y-75261400D01*
X99397171Y-75295965D01*
X99392734Y-75299072D01*
X99392732Y-75299073D01*
X99208034Y-75428399D01*
X99208033Y-75428400D01*
X99203599Y-75431505D01*
X99036505Y-75598599D01*
X99033403Y-75603030D01*
X99033399Y-75603034D01*
X98904073Y-75787732D01*
X98900965Y-75792171D01*
X98898675Y-75797082D01*
X98803386Y-76001427D01*
X98803384Y-76001433D01*
X98801097Y-76006337D01*
X98799695Y-76011570D01*
X98765295Y-76139955D01*
X98739937Y-76234592D01*
X98739466Y-76239979D01*
X98739465Y-76239983D01*
X98724087Y-76415752D01*
X98719341Y-76470000D01*
X94400500Y-76470000D01*
X94400500Y-71390000D01*
X98719341Y-71390000D01*
X98719813Y-71395395D01*
X98732341Y-71538584D01*
X98739937Y-71625408D01*
X98741336Y-71630631D01*
X98741337Y-71630634D01*
X98769111Y-71734289D01*
X98801097Y-71853663D01*
X98803384Y-71858567D01*
X98803386Y-71858573D01*
X98860755Y-71981600D01*
X98900965Y-72067829D01*
X98904072Y-72072266D01*
X98904073Y-72072268D01*
X99033399Y-72256966D01*
X99033403Y-72256970D01*
X99036505Y-72261401D01*
X99203599Y-72428495D01*
X99397170Y-72564035D01*
X99611337Y-72663903D01*
X99695137Y-72686357D01*
X99834366Y-72723663D01*
X99834369Y-72723664D01*
X99839592Y-72725063D01*
X99844979Y-72725534D01*
X99844983Y-72725535D01*
X100069605Y-72745187D01*
X100075000Y-72745659D01*
X100080395Y-72745187D01*
X100305017Y-72725535D01*
X100305021Y-72725534D01*
X100310408Y-72725063D01*
X100315631Y-72723664D01*
X100315634Y-72723663D01*
X100454863Y-72686357D01*
X100538663Y-72663903D01*
X100752830Y-72564035D01*
X100946401Y-72428495D01*
X101113495Y-72261401D01*
X101116597Y-72256970D01*
X101116601Y-72256966D01*
X101245927Y-72072268D01*
X101245928Y-72072266D01*
X101249035Y-72067829D01*
X101289245Y-71981600D01*
X101346614Y-71858573D01*
X101346616Y-71858567D01*
X101348903Y-71853663D01*
X101380889Y-71734289D01*
X101408663Y-71630634D01*
X101408664Y-71630631D01*
X101410063Y-71625408D01*
X101417660Y-71538584D01*
X101430187Y-71395395D01*
X101430659Y-71390000D01*
X101425913Y-71335752D01*
X101410535Y-71159983D01*
X101410534Y-71159979D01*
X101410063Y-71154592D01*
X101384706Y-71059955D01*
X101350305Y-70931570D01*
X101348903Y-70926337D01*
X101346616Y-70921433D01*
X101346614Y-70921427D01*
X101251325Y-70717082D01*
X101249035Y-70712171D01*
X101245927Y-70707732D01*
X101116601Y-70523034D01*
X101116597Y-70523030D01*
X101113495Y-70518599D01*
X100946401Y-70351505D01*
X100752830Y-70215965D01*
X100538663Y-70116097D01*
X100454863Y-70093643D01*
X100315634Y-70056337D01*
X100315631Y-70056336D01*
X100310408Y-70054937D01*
X100305021Y-70054466D01*
X100305017Y-70054465D01*
X100080395Y-70034813D01*
X100075000Y-70034341D01*
X100069605Y-70034813D01*
X99844983Y-70054465D01*
X99844979Y-70054466D01*
X99839592Y-70054937D01*
X99834369Y-70056336D01*
X99834366Y-70056337D01*
X99695137Y-70093643D01*
X99611337Y-70116097D01*
X99606433Y-70118384D01*
X99606427Y-70118386D01*
X99471295Y-70181400D01*
X99397171Y-70215965D01*
X99392734Y-70219072D01*
X99392732Y-70219073D01*
X99208034Y-70348399D01*
X99208033Y-70348400D01*
X99203599Y-70351505D01*
X99036505Y-70518599D01*
X99033403Y-70523030D01*
X99033399Y-70523034D01*
X98904073Y-70707732D01*
X98900965Y-70712171D01*
X98898675Y-70717082D01*
X98803386Y-70921427D01*
X98803384Y-70921433D01*
X98801097Y-70926337D01*
X98799695Y-70931570D01*
X98765295Y-71059955D01*
X98739937Y-71154592D01*
X98739466Y-71159979D01*
X98739465Y-71159983D01*
X98724087Y-71335752D01*
X98719341Y-71390000D01*
X94400500Y-71390000D01*
X94400500Y-66310000D01*
X98719341Y-66310000D01*
X98719813Y-66315395D01*
X98732341Y-66458584D01*
X98739937Y-66545408D01*
X98741336Y-66550631D01*
X98741337Y-66550634D01*
X98769111Y-66654289D01*
X98801097Y-66773663D01*
X98803384Y-66778567D01*
X98803386Y-66778573D01*
X98860755Y-66901600D01*
X98900965Y-66987829D01*
X98904072Y-66992266D01*
X98904073Y-66992268D01*
X99033399Y-67176966D01*
X99033403Y-67176970D01*
X99036505Y-67181401D01*
X99203599Y-67348495D01*
X99397170Y-67484035D01*
X99611337Y-67583903D01*
X99695137Y-67606357D01*
X99834366Y-67643663D01*
X99834369Y-67643664D01*
X99839592Y-67645063D01*
X99844979Y-67645534D01*
X99844983Y-67645535D01*
X100069605Y-67665187D01*
X100075000Y-67665659D01*
X100080395Y-67665187D01*
X100305017Y-67645535D01*
X100305021Y-67645534D01*
X100310408Y-67645063D01*
X100315631Y-67643664D01*
X100315634Y-67643663D01*
X100454863Y-67606357D01*
X100538663Y-67583903D01*
X100752830Y-67484035D01*
X100946401Y-67348495D01*
X101113495Y-67181401D01*
X101116597Y-67176970D01*
X101116601Y-67176966D01*
X101245927Y-66992268D01*
X101245928Y-66992266D01*
X101249035Y-66987829D01*
X101289245Y-66901600D01*
X101346614Y-66778573D01*
X101346616Y-66778567D01*
X101348903Y-66773663D01*
X101380889Y-66654289D01*
X101408663Y-66550634D01*
X101408664Y-66550631D01*
X101410063Y-66545408D01*
X101417660Y-66458584D01*
X101430187Y-66315395D01*
X101430659Y-66310000D01*
X101425913Y-66255752D01*
X101410535Y-66079983D01*
X101410534Y-66079979D01*
X101410063Y-66074592D01*
X101384706Y-65979955D01*
X101350305Y-65851570D01*
X101348903Y-65846337D01*
X101346616Y-65841433D01*
X101346614Y-65841427D01*
X101251325Y-65637082D01*
X101249035Y-65632171D01*
X101245927Y-65627732D01*
X101116601Y-65443034D01*
X101116597Y-65443030D01*
X101113495Y-65438599D01*
X100946401Y-65271505D01*
X100752830Y-65135965D01*
X100538663Y-65036097D01*
X100454863Y-65013643D01*
X100315634Y-64976337D01*
X100315631Y-64976336D01*
X100310408Y-64974937D01*
X100305021Y-64974466D01*
X100305017Y-64974465D01*
X100080395Y-64954813D01*
X100075000Y-64954341D01*
X100069605Y-64954813D01*
X99844983Y-64974465D01*
X99844979Y-64974466D01*
X99839592Y-64974937D01*
X99834369Y-64976336D01*
X99834366Y-64976337D01*
X99695137Y-65013643D01*
X99611337Y-65036097D01*
X99606433Y-65038384D01*
X99606427Y-65038386D01*
X99471295Y-65101400D01*
X99397171Y-65135965D01*
X99392734Y-65139072D01*
X99392732Y-65139073D01*
X99208034Y-65268399D01*
X99208033Y-65268400D01*
X99203599Y-65271505D01*
X99036505Y-65438599D01*
X99033403Y-65443030D01*
X99033399Y-65443034D01*
X98904073Y-65627732D01*
X98900965Y-65632171D01*
X98898675Y-65637082D01*
X98803386Y-65841427D01*
X98803384Y-65841433D01*
X98801097Y-65846337D01*
X98799695Y-65851570D01*
X98765295Y-65979955D01*
X98739937Y-66074592D01*
X98739466Y-66079979D01*
X98739465Y-66079983D01*
X98724087Y-66255752D01*
X98719341Y-66310000D01*
X94400500Y-66310000D01*
X94400500Y-61230000D01*
X98719341Y-61230000D01*
X98719813Y-61235395D01*
X98737453Y-61437012D01*
X98739937Y-61465408D01*
X98741336Y-61470631D01*
X98741337Y-61470634D01*
X98769111Y-61574289D01*
X98801097Y-61693663D01*
X98803384Y-61698567D01*
X98803386Y-61698573D01*
X98860755Y-61821600D01*
X98900965Y-61907829D01*
X98904072Y-61912266D01*
X98904073Y-61912268D01*
X99033399Y-62096966D01*
X99033403Y-62096970D01*
X99036505Y-62101401D01*
X99203599Y-62268495D01*
X99397170Y-62404035D01*
X99611337Y-62503903D01*
X99695137Y-62526357D01*
X99834366Y-62563663D01*
X99834369Y-62563664D01*
X99839592Y-62565063D01*
X99844979Y-62565534D01*
X99844983Y-62565535D01*
X100069605Y-62585187D01*
X100075000Y-62585659D01*
X100080395Y-62585187D01*
X100305017Y-62565535D01*
X100305021Y-62565534D01*
X100310408Y-62565063D01*
X100315631Y-62563664D01*
X100315634Y-62563663D01*
X100454863Y-62526357D01*
X100538663Y-62503903D01*
X100752830Y-62404035D01*
X100946401Y-62268495D01*
X101113495Y-62101401D01*
X101116597Y-62096970D01*
X101116601Y-62096966D01*
X101245927Y-61912268D01*
X101245928Y-61912266D01*
X101249035Y-61907829D01*
X101289245Y-61821600D01*
X101346614Y-61698573D01*
X101346616Y-61698567D01*
X101348903Y-61693663D01*
X101380889Y-61574289D01*
X101408663Y-61470634D01*
X101408664Y-61470631D01*
X101410063Y-61465408D01*
X101412548Y-61437012D01*
X101430187Y-61235395D01*
X101430659Y-61230000D01*
X101418841Y-61094922D01*
X101410535Y-60999983D01*
X101410534Y-60999979D01*
X101410063Y-60994592D01*
X101384706Y-60899955D01*
X101359598Y-60806253D01*
X101348903Y-60766337D01*
X101346616Y-60761433D01*
X101346614Y-60761427D01*
X101251325Y-60557082D01*
X101249035Y-60552171D01*
X101245927Y-60547732D01*
X101116601Y-60363034D01*
X101116597Y-60363030D01*
X101113495Y-60358599D01*
X100946401Y-60191505D01*
X100752830Y-60055965D01*
X100538663Y-59956097D01*
X100454863Y-59933643D01*
X100315634Y-59896337D01*
X100315631Y-59896336D01*
X100310408Y-59894937D01*
X100305021Y-59894466D01*
X100305017Y-59894465D01*
X100080395Y-59874813D01*
X100075000Y-59874341D01*
X100069605Y-59874813D01*
X99844983Y-59894465D01*
X99844979Y-59894466D01*
X99839592Y-59894937D01*
X99834369Y-59896336D01*
X99834366Y-59896337D01*
X99695137Y-59933643D01*
X99611337Y-59956097D01*
X99606433Y-59958384D01*
X99606427Y-59958386D01*
X99471310Y-60021393D01*
X99397171Y-60055965D01*
X99392734Y-60059072D01*
X99392732Y-60059073D01*
X99208034Y-60188399D01*
X99208033Y-60188400D01*
X99203599Y-60191505D01*
X99036505Y-60358599D01*
X99033403Y-60363030D01*
X99033399Y-60363034D01*
X98904073Y-60547732D01*
X98900965Y-60552171D01*
X98898675Y-60557082D01*
X98803386Y-60761427D01*
X98803384Y-60761433D01*
X98801097Y-60766337D01*
X98790402Y-60806253D01*
X98765295Y-60899955D01*
X98739937Y-60994592D01*
X98739466Y-60999979D01*
X98739465Y-60999983D01*
X98731159Y-61094922D01*
X98719341Y-61230000D01*
X94400500Y-61230000D01*
X94400500Y-57411069D01*
X99173014Y-57411069D01*
X99178651Y-57418599D01*
X99364980Y-57532782D01*
X99373643Y-57537197D01*
X99590043Y-57626832D01*
X99599279Y-57629833D01*
X99827043Y-57684515D01*
X99836629Y-57686033D01*
X100070146Y-57704411D01*
X100079854Y-57704411D01*
X100313371Y-57686033D01*
X100322957Y-57684515D01*
X100550721Y-57629833D01*
X100559957Y-57626832D01*
X100776357Y-57537197D01*
X100785020Y-57532782D01*
X100967739Y-57420812D01*
X100977051Y-57410518D01*
X100973329Y-57401882D01*
X100087607Y-56516160D01*
X100073887Y-56508668D01*
X100072081Y-56508797D01*
X100065574Y-56512979D01*
X99179665Y-57398888D01*
X99173014Y-57411069D01*
X94400500Y-57411069D01*
X94400500Y-56154854D01*
X98520589Y-56154854D01*
X98538967Y-56388371D01*
X98540485Y-56397957D01*
X98595167Y-56625721D01*
X98598168Y-56634957D01*
X98687803Y-56851357D01*
X98692218Y-56860020D01*
X98804188Y-57042739D01*
X98814482Y-57052051D01*
X98823118Y-57048329D01*
X99708840Y-56162607D01*
X99715116Y-56151113D01*
X100433668Y-56151113D01*
X100433797Y-56152919D01*
X100437979Y-56159426D01*
X101323888Y-57045335D01*
X101336069Y-57051986D01*
X101343599Y-57046349D01*
X101457782Y-56860020D01*
X101462197Y-56851357D01*
X101551832Y-56634957D01*
X101554833Y-56625721D01*
X101609515Y-56397957D01*
X101611033Y-56388371D01*
X101629411Y-56154854D01*
X101629411Y-56145146D01*
X101611033Y-55911629D01*
X101609515Y-55902043D01*
X101554833Y-55674279D01*
X101551832Y-55665043D01*
X101462197Y-55448643D01*
X101457782Y-55439980D01*
X101345812Y-55257261D01*
X101335518Y-55247949D01*
X101326882Y-55251671D01*
X100441160Y-56137393D01*
X100433668Y-56151113D01*
X99715116Y-56151113D01*
X99716332Y-56148887D01*
X99716203Y-56147081D01*
X99712021Y-56140574D01*
X98826112Y-55254665D01*
X98813931Y-55248014D01*
X98806401Y-55253651D01*
X98692218Y-55439980D01*
X98687803Y-55448643D01*
X98598168Y-55665043D01*
X98595167Y-55674279D01*
X98540485Y-55902043D01*
X98538967Y-55911629D01*
X98520589Y-56145146D01*
X98520589Y-56154854D01*
X94400500Y-56154854D01*
X94400500Y-54889482D01*
X99172949Y-54889482D01*
X99176671Y-54898118D01*
X100062393Y-55783840D01*
X100076113Y-55791332D01*
X100077919Y-55791203D01*
X100084426Y-55787021D01*
X100970335Y-54901112D01*
X100976986Y-54888931D01*
X100971349Y-54881401D01*
X100785020Y-54767218D01*
X100776357Y-54762803D01*
X100559957Y-54673168D01*
X100550721Y-54670167D01*
X100322957Y-54615485D01*
X100313371Y-54613967D01*
X100079854Y-54595589D01*
X100070146Y-54595589D01*
X99836629Y-54613967D01*
X99827043Y-54615485D01*
X99599279Y-54670167D01*
X99590043Y-54673168D01*
X99373643Y-54762803D01*
X99364980Y-54767218D01*
X99182261Y-54879188D01*
X99172949Y-54889482D01*
X94400500Y-54889482D01*
X94400500Y-54647139D01*
X94402384Y-54625606D01*
X94403252Y-54620683D01*
X94405136Y-54610000D01*
X94403252Y-54599316D01*
X94403252Y-54592391D01*
X94402448Y-54579600D01*
X106776808Y-54579600D01*
X106791830Y-54852574D01*
X106809499Y-54941400D01*
X106844115Y-55115422D01*
X106845166Y-55120708D01*
X106935749Y-55378652D01*
X107061774Y-55621260D01*
X107220725Y-55843690D01*
X107223749Y-55846860D01*
X107223754Y-55846866D01*
X107374192Y-56004565D01*
X107409431Y-56041505D01*
X107412875Y-56044220D01*
X107412876Y-56044221D01*
X107463743Y-56084321D01*
X107624126Y-56210757D01*
X107627906Y-56212953D01*
X107627911Y-56212956D01*
X107742327Y-56279413D01*
X107860528Y-56348070D01*
X107864588Y-56349714D01*
X107864589Y-56349715D01*
X108109852Y-56449057D01*
X108109856Y-56449058D01*
X108113919Y-56450704D01*
X108118173Y-56451761D01*
X108118177Y-56451762D01*
X108338960Y-56506605D01*
X108379243Y-56516611D01*
X108446289Y-56523480D01*
X108609255Y-56540178D01*
X108609262Y-56540178D01*
X108612401Y-56540500D01*
X108781642Y-56540500D01*
X108783810Y-56540346D01*
X108783824Y-56540346D01*
X108911196Y-56531327D01*
X108984705Y-56526122D01*
X109251968Y-56468582D01*
X109305378Y-56448878D01*
X109504344Y-56375476D01*
X109504347Y-56375475D01*
X109508458Y-56373958D01*
X109524299Y-56365411D01*
X109671932Y-56285752D01*
X109749056Y-56244138D01*
X109968962Y-56081713D01*
X109972092Y-56078632D01*
X110160661Y-55893002D01*
X110160666Y-55892996D01*
X110163788Y-55889923D01*
X110329647Y-55672596D01*
X110372077Y-55596831D01*
X110461089Y-55437890D01*
X110461092Y-55437884D01*
X110463230Y-55434066D01*
X110533027Y-55253651D01*
X110560287Y-55183190D01*
X110560288Y-55183187D01*
X110561871Y-55179095D01*
X110569751Y-55145101D01*
X110622614Y-54917034D01*
X110623603Y-54912768D01*
X110647192Y-54640400D01*
X110632170Y-54367426D01*
X110605480Y-54233247D01*
X110579689Y-54103588D01*
X110579687Y-54103582D01*
X110578834Y-54099292D01*
X110488251Y-53841348D01*
X110362226Y-53598740D01*
X110203275Y-53376310D01*
X110200251Y-53373140D01*
X110200246Y-53373134D01*
X110017596Y-53181668D01*
X110017595Y-53181667D01*
X110014569Y-53178495D01*
X109963566Y-53138287D01*
X109803314Y-53011955D01*
X109799874Y-53009243D01*
X109796094Y-53007047D01*
X109796089Y-53007044D01*
X109681673Y-52940587D01*
X109563472Y-52871930D01*
X109559411Y-52870285D01*
X109314148Y-52770943D01*
X109314144Y-52770942D01*
X109310081Y-52769296D01*
X109305827Y-52768239D01*
X109305823Y-52768238D01*
X109049012Y-52704446D01*
X109049013Y-52704446D01*
X109044757Y-52703389D01*
X108960957Y-52694803D01*
X108814745Y-52679822D01*
X108814738Y-52679822D01*
X108811599Y-52679500D01*
X108642358Y-52679500D01*
X108640190Y-52679654D01*
X108640176Y-52679654D01*
X108512804Y-52688673D01*
X108439295Y-52693878D01*
X108172032Y-52751418D01*
X108167911Y-52752938D01*
X108167912Y-52752938D01*
X107919656Y-52844524D01*
X107919653Y-52844525D01*
X107915542Y-52846042D01*
X107674944Y-52975862D01*
X107455038Y-53138287D01*
X107451910Y-53141367D01*
X107451908Y-53141368D01*
X107263339Y-53326998D01*
X107263334Y-53327004D01*
X107260212Y-53330077D01*
X107094353Y-53547404D01*
X107092215Y-53551222D01*
X106962911Y-53782110D01*
X106962908Y-53782116D01*
X106960770Y-53785934D01*
X106917333Y-53898212D01*
X106866033Y-54030815D01*
X106862129Y-54040905D01*
X106861138Y-54045182D01*
X106861137Y-54045184D01*
X106848595Y-54099292D01*
X106800397Y-54307232D01*
X106789395Y-54434262D01*
X106778582Y-54559122D01*
X106776808Y-54579600D01*
X94402448Y-54579600D01*
X94402193Y-54575533D01*
X94409237Y-54432152D01*
X94418015Y-54253466D01*
X94419208Y-54241358D01*
X94423448Y-54212776D01*
X94470693Y-53894279D01*
X94473063Y-53882364D01*
X94558321Y-53541992D01*
X94561852Y-53530354D01*
X94616970Y-53376310D01*
X94680055Y-53200000D01*
X94684710Y-53188761D01*
X94689566Y-53178495D01*
X94770656Y-53007044D01*
X94834730Y-52871570D01*
X94840467Y-52860838D01*
X95020844Y-52559898D01*
X95027604Y-52549780D01*
X95236623Y-52267950D01*
X95244343Y-52258544D01*
X95479967Y-51998572D01*
X95488572Y-51989967D01*
X95748544Y-51754343D01*
X95757950Y-51746623D01*
X96039780Y-51537604D01*
X96049898Y-51530844D01*
X96350838Y-51350467D01*
X96361570Y-51344730D01*
X96520166Y-51269720D01*
X96678765Y-51194708D01*
X96690000Y-51190055D01*
X97020356Y-51071851D01*
X97031992Y-51068321D01*
X97372364Y-50983063D01*
X97384279Y-50980693D01*
X97731361Y-50929208D01*
X97743466Y-50928015D01*
X98065534Y-50912193D01*
X98082391Y-50913252D01*
X98089316Y-50913252D01*
X98100000Y-50915136D01*
X98115609Y-50912384D01*
X98137139Y-50910500D01*
X168674861Y-50910500D01*
X168696391Y-50912384D01*
G37*
%TD.AperFunction*%
%TD*%
M02*
