%TF.GenerationSoftware,KiCad,Pcbnew,(6.0.1-0)*%
%TF.CreationDate,2023-01-01T10:50:50-08:00*%
%TF.ProjectId,nucleo_144_hat,6e75636c-656f-45f3-9134-345f6861742e,rev?*%
%TF.SameCoordinates,Original*%
%TF.FileFunction,Legend,Top*%
%TF.FilePolarity,Positive*%
%FSLAX46Y46*%
G04 Gerber Fmt 4.6, Leading zero omitted, Abs format (unit mm)*
G04 Created by KiCad (PCBNEW (6.0.1-0)) date 2023-01-01 10:50:50*
%MOMM*%
%LPD*%
G01*
G04 APERTURE LIST*
%ADD10C,0.040000*%
%ADD11C,0.300000*%
%ADD12C,0.150000*%
%ADD13C,0.120000*%
G04 APERTURE END LIST*
D10*
X160017921Y-81527887D02*
X160023034Y-81538523D01*
X160023034Y-81538523D02*
X160020852Y-81557956D01*
X160020852Y-81557956D02*
X160010504Y-81587582D01*
X160010504Y-81587582D02*
X159961823Y-81683001D01*
X159961823Y-81683001D02*
X159870022Y-81835949D01*
X159870022Y-81835949D02*
X159728128Y-82057598D01*
X159728128Y-82057598D02*
X159529172Y-82359119D01*
X159529172Y-82359119D02*
X158932187Y-83246454D01*
X158932187Y-83246454D02*
X158754835Y-83511568D01*
X158754835Y-83511568D02*
X158679729Y-83626793D01*
X158679729Y-83626793D02*
X158612808Y-83732220D01*
X158612808Y-83732220D02*
X158553424Y-83829168D01*
X158553424Y-83829168D02*
X158500933Y-83918954D01*
X158500933Y-83918954D02*
X158454687Y-84002898D01*
X158454687Y-84002898D02*
X158414041Y-84082317D01*
X158414041Y-84082317D02*
X158378348Y-84158529D01*
X158378348Y-84158529D02*
X158346961Y-84232853D01*
X158346961Y-84232853D02*
X158319235Y-84306607D01*
X158319235Y-84306607D02*
X158294523Y-84381108D01*
X158294523Y-84381108D02*
X158272179Y-84457675D01*
X158272179Y-84457675D02*
X158251556Y-84537627D01*
X158251556Y-84537627D02*
X158232009Y-84622281D01*
X158232009Y-84622281D02*
X158212890Y-84712955D01*
X158212890Y-84712955D02*
X158185527Y-84862980D01*
X158185527Y-84862980D02*
X158166521Y-85004087D01*
X158166521Y-85004087D02*
X158160264Y-85071561D01*
X158160264Y-85071561D02*
X158156232Y-85137123D01*
X158156232Y-85137123D02*
X158154469Y-85200880D01*
X158154469Y-85200880D02*
X158155020Y-85262937D01*
X158155020Y-85262937D02*
X158157931Y-85323400D01*
X158157931Y-85323400D02*
X158163247Y-85382377D01*
X158163247Y-85382377D02*
X158171012Y-85439971D01*
X158171012Y-85439971D02*
X158181272Y-85496290D01*
X158181272Y-85496290D02*
X158194071Y-85551440D01*
X158194071Y-85551440D02*
X158209456Y-85605526D01*
X158209456Y-85605526D02*
X158227471Y-85658655D01*
X158227471Y-85658655D02*
X158248160Y-85710933D01*
X158248160Y-85710933D02*
X158271570Y-85762465D01*
X158271570Y-85762465D02*
X158297744Y-85813358D01*
X158297744Y-85813358D02*
X158326729Y-85863717D01*
X158326729Y-85863717D02*
X158358569Y-85913649D01*
X158358569Y-85913649D02*
X158393309Y-85963260D01*
X158393309Y-85963260D02*
X158430995Y-86012656D01*
X158430995Y-86012656D02*
X158471671Y-86061943D01*
X158471671Y-86061943D02*
X158515383Y-86111226D01*
X158515383Y-86111226D02*
X158562175Y-86160612D01*
X158562175Y-86160612D02*
X158612093Y-86210208D01*
X158612093Y-86210208D02*
X158721485Y-86310449D01*
X158721485Y-86310449D02*
X158843921Y-86412797D01*
X158843921Y-86412797D02*
X158979760Y-86518102D01*
X158979760Y-86518102D02*
X159135302Y-86632540D01*
X159135302Y-86632540D02*
X159277600Y-86731559D01*
X159277600Y-86731559D02*
X159413601Y-86819005D01*
X159413601Y-86819005D02*
X159481412Y-86859591D01*
X159481412Y-86859591D02*
X159550254Y-86898726D01*
X159550254Y-86898726D02*
X159620995Y-86936891D01*
X159620995Y-86936891D02*
X159694504Y-86974568D01*
X159694504Y-86974568D02*
X159853300Y-87050377D01*
X159853300Y-87050377D02*
X160033588Y-87130001D01*
X160033588Y-87130001D02*
X160242315Y-87217287D01*
X160242315Y-87217287D02*
X160329664Y-87253530D01*
X160329664Y-87253530D02*
X160406225Y-87286178D01*
X160406225Y-87286178D02*
X160472007Y-87315243D01*
X160472007Y-87315243D02*
X160527018Y-87340738D01*
X160527018Y-87340738D02*
X160571267Y-87362674D01*
X160571267Y-87362674D02*
X160604762Y-87381065D01*
X160604762Y-87381065D02*
X160627512Y-87395923D01*
X160627512Y-87395923D02*
X160634860Y-87402031D01*
X160634860Y-87402031D02*
X160639526Y-87407260D01*
X160639526Y-87407260D02*
X160641509Y-87411612D01*
X160641509Y-87411612D02*
X160640811Y-87415089D01*
X160640811Y-87415089D02*
X160637434Y-87417691D01*
X160637434Y-87417691D02*
X160631378Y-87419421D01*
X160631378Y-87419421D02*
X160622644Y-87420281D01*
X160622644Y-87420281D02*
X160611234Y-87420270D01*
X160611234Y-87420270D02*
X160580387Y-87417648D01*
X160580387Y-87417648D02*
X160538848Y-87411567D01*
X160538848Y-87411567D02*
X160486623Y-87402039D01*
X160486623Y-87402039D02*
X160423721Y-87389078D01*
X160423721Y-87389078D02*
X160350152Y-87372694D01*
X160350152Y-87372694D02*
X160103498Y-87311715D01*
X160103498Y-87311715D02*
X159860862Y-87243001D01*
X159860862Y-87243001D02*
X159623395Y-87167184D01*
X159623395Y-87167184D02*
X159392249Y-87084898D01*
X159392249Y-87084898D02*
X159168575Y-86996775D01*
X159168575Y-86996775D02*
X158953524Y-86903448D01*
X158953524Y-86903448D02*
X158748249Y-86805550D01*
X158748249Y-86805550D02*
X158553900Y-86703715D01*
X158553900Y-86703715D02*
X158371629Y-86598574D01*
X158371629Y-86598574D02*
X158202587Y-86490762D01*
X158202587Y-86490762D02*
X158047926Y-86380911D01*
X158047926Y-86380911D02*
X157908796Y-86269653D01*
X157908796Y-86269653D02*
X157845416Y-86213695D01*
X157845416Y-86213695D02*
X157786350Y-86157623D01*
X157786350Y-86157623D02*
X157731743Y-86101515D01*
X157731743Y-86101515D02*
X157681739Y-86045452D01*
X157681739Y-86045452D02*
X157636481Y-85989511D01*
X157636481Y-85989511D02*
X157596113Y-85933773D01*
X157596113Y-85933773D02*
X157560780Y-85878317D01*
X157560780Y-85878317D02*
X157530626Y-85823221D01*
X157530626Y-85823221D02*
X157518683Y-85797877D01*
X157518683Y-85797877D02*
X157505875Y-85767948D01*
X157505875Y-85767948D02*
X157478666Y-85697600D01*
X157478666Y-85697600D02*
X157451013Y-85618707D01*
X157451013Y-85618707D02*
X157424932Y-85537797D01*
X157424932Y-85537797D02*
X157402438Y-85461399D01*
X157402438Y-85461399D02*
X157385546Y-85396041D01*
X157385546Y-85396041D02*
X157379831Y-85369544D01*
X157379831Y-85369544D02*
X157376271Y-85348254D01*
X157376271Y-85348254D02*
X157375119Y-85332990D01*
X157375119Y-85332990D02*
X157375525Y-85327872D01*
X157375525Y-85327872D02*
X157376628Y-85324566D01*
X157376628Y-85324566D02*
X157377197Y-85323443D01*
X157377197Y-85323443D02*
X157377653Y-85322089D01*
X157377653Y-85322089D02*
X157377998Y-85320523D01*
X157377998Y-85320523D02*
X157378234Y-85318764D01*
X157378234Y-85318764D02*
X157378362Y-85316830D01*
X157378362Y-85316830D02*
X157378385Y-85314739D01*
X157378385Y-85314739D02*
X157378304Y-85312509D01*
X157378304Y-85312509D02*
X157378121Y-85310159D01*
X157378121Y-85310159D02*
X157377838Y-85307707D01*
X157377838Y-85307707D02*
X157377457Y-85305172D01*
X157377457Y-85305172D02*
X157376980Y-85302572D01*
X157376980Y-85302572D02*
X157376408Y-85299925D01*
X157376408Y-85299925D02*
X157375744Y-85297250D01*
X157375744Y-85297250D02*
X157374989Y-85294565D01*
X157374989Y-85294565D02*
X157374145Y-85291889D01*
X157374145Y-85291889D02*
X157373214Y-85289239D01*
X157373214Y-85289239D02*
X157371493Y-85286348D01*
X157371493Y-85286348D02*
X157368810Y-85284365D01*
X157368810Y-85284365D02*
X157365174Y-85283284D01*
X157365174Y-85283284D02*
X157360591Y-85283102D01*
X157360591Y-85283102D02*
X157348616Y-85285410D01*
X157348616Y-85285410D02*
X157332944Y-85291250D01*
X157332944Y-85291250D02*
X157313633Y-85300582D01*
X157313633Y-85300582D02*
X157290742Y-85313366D01*
X157290742Y-85313366D02*
X157264331Y-85329562D01*
X157264331Y-85329562D02*
X157234458Y-85349131D01*
X157234458Y-85349131D02*
X157164561Y-85398228D01*
X157164561Y-85398228D02*
X157081521Y-85460336D01*
X157081521Y-85460336D02*
X156985810Y-85535140D01*
X156985810Y-85535140D02*
X156877897Y-85622319D01*
X156877897Y-85622319D02*
X155825808Y-86470826D01*
X155825808Y-86470826D02*
X154621818Y-87433997D01*
X154621818Y-87433997D02*
X153826949Y-88058203D01*
X153826949Y-88058203D02*
X153020885Y-88676329D01*
X153020885Y-88676329D02*
X152118763Y-89352677D01*
X152118763Y-89352677D02*
X151035719Y-90151550D01*
X151035719Y-90151550D02*
X150028574Y-90887646D01*
X150028574Y-90887646D02*
X149238393Y-91457355D01*
X149238393Y-91457355D02*
X148537923Y-91951504D01*
X148537923Y-91951504D02*
X147799917Y-92460918D01*
X147799917Y-92460918D02*
X147419622Y-92722031D01*
X147419622Y-92722031D02*
X147131133Y-92921611D01*
X147131133Y-92921611D02*
X146913571Y-93074212D01*
X146913571Y-93074212D02*
X146746055Y-93194390D01*
X146746055Y-93194390D02*
X146672197Y-93247431D01*
X146672197Y-93247431D02*
X146596085Y-93300779D01*
X146596085Y-93300779D02*
X146526679Y-93348226D01*
X146526679Y-93348226D02*
X146497292Y-93367797D01*
X146497292Y-93367797D02*
X146472941Y-93383566D01*
X146472941Y-93383566D02*
X146369041Y-93449544D01*
X146369041Y-93449544D02*
X146452162Y-93442345D01*
X146452162Y-93442345D02*
X146975341Y-93399321D01*
X146975341Y-93399321D02*
X147427587Y-93368723D01*
X147427587Y-93368723D02*
X147907176Y-93344805D01*
X147907176Y-93344805D02*
X148512388Y-93321819D01*
X148512388Y-93321819D02*
X149397390Y-93294767D01*
X149397390Y-93294767D02*
X150519178Y-93268384D01*
X150519178Y-93268384D02*
X151488770Y-93244824D01*
X151488770Y-93244824D02*
X152246129Y-93218000D01*
X152246129Y-93218000D02*
X152925214Y-93182063D01*
X152925214Y-93182063D02*
X153659982Y-93131159D01*
X153659982Y-93131159D02*
X154626302Y-93058021D01*
X154626302Y-93058021D02*
X155258839Y-93007321D01*
X155258839Y-93007321D02*
X155485325Y-92987387D01*
X155485325Y-92987387D02*
X155670830Y-92969465D01*
X155670830Y-92969465D02*
X155829507Y-92952355D01*
X155829507Y-92952355D02*
X155975511Y-92934859D01*
X155975511Y-92934859D02*
X156911410Y-92807736D01*
X156911410Y-92807736D02*
X157911342Y-92654342D01*
X157911342Y-92654342D02*
X158917549Y-92483998D01*
X158917549Y-92483998D02*
X159872278Y-92306029D01*
X159872278Y-92306029D02*
X159960668Y-92288305D01*
X159960668Y-92288305D02*
X160039278Y-92271622D01*
X160039278Y-92271622D02*
X160111467Y-92255107D01*
X160111467Y-92255107D02*
X160180597Y-92237890D01*
X160180597Y-92237890D02*
X160250029Y-92219096D01*
X160250029Y-92219096D02*
X160323126Y-92197854D01*
X160323126Y-92197854D02*
X160403249Y-92173291D01*
X160403249Y-92173291D02*
X160493759Y-92144536D01*
X160493759Y-92144536D02*
X160719299Y-92072268D01*
X160719299Y-92072268D02*
X160790490Y-92049668D01*
X160790490Y-92049668D02*
X160819714Y-92040635D01*
X160819714Y-92040635D02*
X160822374Y-92039343D01*
X160822374Y-92039343D02*
X160823153Y-92037233D01*
X160823153Y-92037233D02*
X160822123Y-92034342D01*
X160822123Y-92034342D02*
X160819355Y-92030708D01*
X160819355Y-92030708D02*
X160808897Y-92021365D01*
X160808897Y-92021365D02*
X160792354Y-92009507D01*
X160792354Y-92009507D02*
X160743320Y-91979465D01*
X160743320Y-91979465D02*
X160676867Y-91943013D01*
X160676867Y-91943013D02*
X160597604Y-91902585D01*
X160597604Y-91902585D02*
X160510143Y-91860614D01*
X160510143Y-91860614D02*
X160419096Y-91819531D01*
X160419096Y-91819531D02*
X160329074Y-91781770D01*
X160329074Y-91781770D02*
X160185920Y-91726161D01*
X160185920Y-91726161D02*
X160048823Y-91676915D01*
X160048823Y-91676915D02*
X159913655Y-91632906D01*
X159913655Y-91632906D02*
X159776288Y-91593003D01*
X159776288Y-91593003D02*
X159632592Y-91556078D01*
X159632592Y-91556078D02*
X159478440Y-91521002D01*
X159478440Y-91521002D02*
X159309703Y-91486646D01*
X159309703Y-91486646D02*
X159122253Y-91451882D01*
X159122253Y-91451882D02*
X158875301Y-91407315D01*
X158875301Y-91407315D02*
X158665085Y-91368538D01*
X158665085Y-91368538D02*
X158489505Y-91338297D01*
X158489505Y-91338297D02*
X158288285Y-91308601D01*
X158288285Y-91308601D02*
X158065613Y-91279894D01*
X158065613Y-91279894D02*
X157825677Y-91252622D01*
X157825677Y-91252622D02*
X157572664Y-91227233D01*
X157572664Y-91227233D02*
X157310761Y-91204172D01*
X157310761Y-91204172D02*
X157044157Y-91183886D01*
X157044157Y-91183886D02*
X156777038Y-91166820D01*
X156777038Y-91166820D02*
X156599371Y-91156013D01*
X156599371Y-91156013D02*
X156427241Y-91144546D01*
X156427241Y-91144546D02*
X156280299Y-91133788D01*
X156280299Y-91133788D02*
X156178192Y-91125111D01*
X156178192Y-91125111D02*
X156110159Y-91118247D01*
X156110159Y-91118247D02*
X156083240Y-91115635D01*
X156083240Y-91115635D02*
X156060638Y-91113756D01*
X156060638Y-91113756D02*
X156042041Y-91112745D01*
X156042041Y-91112745D02*
X156034147Y-91112610D01*
X156034147Y-91112610D02*
X156027137Y-91112743D01*
X156027137Y-91112743D02*
X156020973Y-91113163D01*
X156020973Y-91113163D02*
X156015615Y-91113887D01*
X156015615Y-91113887D02*
X156011025Y-91114932D01*
X156011025Y-91114932D02*
X156007163Y-91116316D01*
X156007163Y-91116316D02*
X156003992Y-91118055D01*
X156003992Y-91118055D02*
X156001471Y-91120167D01*
X156001471Y-91120167D02*
X155999561Y-91122670D01*
X155999561Y-91122670D02*
X155998225Y-91125580D01*
X155998225Y-91125580D02*
X155997422Y-91128915D01*
X155997422Y-91128915D02*
X155997115Y-91132692D01*
X155997115Y-91132692D02*
X155997263Y-91136929D01*
X155997263Y-91136929D02*
X155997829Y-91141642D01*
X155997829Y-91141642D02*
X155998772Y-91146849D01*
X155998772Y-91146849D02*
X156000055Y-91152568D01*
X156000055Y-91152568D02*
X156003482Y-91165608D01*
X156003482Y-91165608D02*
X156012693Y-91198584D01*
X156012693Y-91198584D02*
X156019216Y-91226461D01*
X156019216Y-91226461D02*
X156024737Y-91257320D01*
X156024737Y-91257320D02*
X156029265Y-91290650D01*
X156029265Y-91290650D02*
X156032810Y-91325943D01*
X156032810Y-91325943D02*
X156035384Y-91362688D01*
X156035384Y-91362688D02*
X156036994Y-91400375D01*
X156036994Y-91400375D02*
X156037653Y-91438496D01*
X156037653Y-91438496D02*
X156037369Y-91476540D01*
X156037369Y-91476540D02*
X156036153Y-91513998D01*
X156036153Y-91513998D02*
X156034015Y-91550360D01*
X156034015Y-91550360D02*
X156030964Y-91585117D01*
X156030964Y-91585117D02*
X156027012Y-91617759D01*
X156027012Y-91617759D02*
X156022166Y-91647775D01*
X156022166Y-91647775D02*
X156016439Y-91674658D01*
X156016439Y-91674658D02*
X156009839Y-91697896D01*
X156009839Y-91697896D02*
X156002377Y-91716980D01*
X156002377Y-91716980D02*
X155976816Y-91764867D01*
X155976816Y-91764867D02*
X155946690Y-91809469D01*
X155946690Y-91809469D02*
X155912240Y-91850793D01*
X155912240Y-91850793D02*
X155873708Y-91888847D01*
X155873708Y-91888847D02*
X155831336Y-91923639D01*
X155831336Y-91923639D02*
X155785367Y-91955177D01*
X155785367Y-91955177D02*
X155736042Y-91983467D01*
X155736042Y-91983467D02*
X155683603Y-92008519D01*
X155683603Y-92008519D02*
X155628292Y-92030338D01*
X155628292Y-92030338D02*
X155570352Y-92048933D01*
X155570352Y-92048933D02*
X155510025Y-92064312D01*
X155510025Y-92064312D02*
X155447551Y-92076482D01*
X155447551Y-92076482D02*
X155383174Y-92085451D01*
X155383174Y-92085451D02*
X155317136Y-92091226D01*
X155317136Y-92091226D02*
X155181041Y-92093225D01*
X155181041Y-92093225D02*
X155041205Y-92082542D01*
X155041205Y-92082542D02*
X154899562Y-92059236D01*
X154899562Y-92059236D02*
X154758049Y-92023370D01*
X154758049Y-92023370D02*
X154618602Y-91975003D01*
X154618602Y-91975003D02*
X154550258Y-91946151D01*
X154550258Y-91946151D02*
X154483157Y-91914197D01*
X154483157Y-91914197D02*
X154417540Y-91879149D01*
X154417540Y-91879149D02*
X154353650Y-91841013D01*
X154353650Y-91841013D02*
X154291728Y-91799799D01*
X154291728Y-91799799D02*
X154232017Y-91755512D01*
X154232017Y-91755512D02*
X154174759Y-91708162D01*
X154174759Y-91708162D02*
X154120195Y-91657755D01*
X154120195Y-91657755D02*
X154090432Y-91625857D01*
X154090432Y-91625857D02*
X154062692Y-91590515D01*
X154062692Y-91590515D02*
X154037074Y-91552132D01*
X154037074Y-91552132D02*
X154013681Y-91511109D01*
X154013681Y-91511109D02*
X153992613Y-91467846D01*
X153992613Y-91467846D02*
X153973973Y-91422746D01*
X153973973Y-91422746D02*
X153957860Y-91376209D01*
X153957860Y-91376209D02*
X153944378Y-91328637D01*
X153944378Y-91328637D02*
X153933626Y-91280431D01*
X153933626Y-91280431D02*
X153925706Y-91231992D01*
X153925706Y-91231992D02*
X153920720Y-91183722D01*
X153920720Y-91183722D02*
X153919371Y-91150749D01*
X153919371Y-91150749D02*
X154444799Y-91150749D01*
X154444799Y-91150749D02*
X154445594Y-91180161D01*
X154445594Y-91180161D02*
X154448961Y-91208843D01*
X154448961Y-91208843D02*
X154451646Y-91222765D01*
X154451646Y-91222765D02*
X154455019Y-91236330D01*
X154455019Y-91236330D02*
X154459095Y-91249480D01*
X154459095Y-91249480D02*
X154463888Y-91262158D01*
X154463888Y-91262158D02*
X154469413Y-91274304D01*
X154469413Y-91274304D02*
X154475686Y-91285862D01*
X154475686Y-91285862D02*
X154498713Y-91321268D01*
X154498713Y-91321268D02*
X154524714Y-91354937D01*
X154524714Y-91354937D02*
X154553448Y-91386841D01*
X154553448Y-91386841D02*
X154584671Y-91416950D01*
X154584671Y-91416950D02*
X154618141Y-91445233D01*
X154618141Y-91445233D02*
X154653613Y-91471660D01*
X154653613Y-91471660D02*
X154690845Y-91496202D01*
X154690845Y-91496202D02*
X154729594Y-91518829D01*
X154729594Y-91518829D02*
X154769618Y-91539511D01*
X154769618Y-91539511D02*
X154810672Y-91558218D01*
X154810672Y-91558218D02*
X154852514Y-91574919D01*
X154852514Y-91574919D02*
X154894900Y-91589587D01*
X154894900Y-91589587D02*
X154937588Y-91602189D01*
X154937588Y-91602189D02*
X154980335Y-91612697D01*
X154980335Y-91612697D02*
X155022898Y-91621080D01*
X155022898Y-91621080D02*
X155065033Y-91627309D01*
X155065033Y-91627309D02*
X155106497Y-91631354D01*
X155106497Y-91631354D02*
X155147048Y-91633184D01*
X155147048Y-91633184D02*
X155186442Y-91632770D01*
X155186442Y-91632770D02*
X155224436Y-91630083D01*
X155224436Y-91630083D02*
X155260788Y-91625091D01*
X155260788Y-91625091D02*
X155295254Y-91617766D01*
X155295254Y-91617766D02*
X155327591Y-91608077D01*
X155327591Y-91608077D02*
X155357555Y-91595995D01*
X155357555Y-91595995D02*
X155384905Y-91581489D01*
X155384905Y-91581489D02*
X155409397Y-91564529D01*
X155409397Y-91564529D02*
X155430788Y-91545087D01*
X155430788Y-91545087D02*
X155448834Y-91523131D01*
X155448834Y-91523131D02*
X155463294Y-91498632D01*
X155463294Y-91498632D02*
X155473923Y-91471561D01*
X155473923Y-91471561D02*
X155480478Y-91441886D01*
X155480478Y-91441886D02*
X155482718Y-91409579D01*
X155482718Y-91409579D02*
X155481765Y-91396005D01*
X155481765Y-91396005D02*
X155478958Y-91381668D01*
X155478958Y-91381668D02*
X155474370Y-91366632D01*
X155474370Y-91366632D02*
X155468077Y-91350961D01*
X155468077Y-91350961D02*
X155450669Y-91317966D01*
X155450669Y-91317966D02*
X155427332Y-91283194D01*
X155427332Y-91283194D02*
X155398661Y-91247153D01*
X155398661Y-91247153D02*
X155365252Y-91210355D01*
X155365252Y-91210355D02*
X155327701Y-91173307D01*
X155327701Y-91173307D02*
X155286603Y-91136521D01*
X155286603Y-91136521D02*
X155242556Y-91100505D01*
X155242556Y-91100505D02*
X155196155Y-91065769D01*
X155196155Y-91065769D02*
X155147996Y-91032823D01*
X155147996Y-91032823D02*
X155098674Y-91002177D01*
X155098674Y-91002177D02*
X155048786Y-90974339D01*
X155048786Y-90974339D02*
X154998928Y-90949821D01*
X154998928Y-90949821D02*
X154949696Y-90929131D01*
X154949696Y-90929131D02*
X154901686Y-90912779D01*
X154901686Y-90912779D02*
X154886549Y-90908808D01*
X154886549Y-90908808D02*
X154869791Y-90905356D01*
X154869791Y-90905356D02*
X154851604Y-90902424D01*
X154851604Y-90902424D02*
X154832177Y-90900012D01*
X154832177Y-90900012D02*
X154811701Y-90898121D01*
X154811701Y-90898121D02*
X154790365Y-90896751D01*
X154790365Y-90896751D02*
X154768361Y-90895904D01*
X154768361Y-90895904D02*
X154745879Y-90895580D01*
X154745879Y-90895580D02*
X154723109Y-90895779D01*
X154723109Y-90895779D02*
X154700241Y-90896503D01*
X154700241Y-90896503D02*
X154677467Y-90897751D01*
X154677467Y-90897751D02*
X154654975Y-90899525D01*
X154654975Y-90899525D02*
X154632957Y-90901826D01*
X154632957Y-90901826D02*
X154611603Y-90904653D01*
X154611603Y-90904653D02*
X154591103Y-90908007D01*
X154591103Y-90908007D02*
X154571647Y-90911890D01*
X154571647Y-90911890D02*
X154561690Y-90914705D01*
X154561690Y-90914705D02*
X154552032Y-90918673D01*
X154552032Y-90918673D02*
X154542689Y-90923737D01*
X154542689Y-90923737D02*
X154533675Y-90929837D01*
X154533675Y-90929837D02*
X154525006Y-90936916D01*
X154525006Y-90936916D02*
X154516696Y-90944916D01*
X154516696Y-90944916D02*
X154508761Y-90953778D01*
X154508761Y-90953778D02*
X154501215Y-90963445D01*
X154501215Y-90963445D02*
X154494073Y-90973859D01*
X154494073Y-90973859D02*
X154487350Y-90984961D01*
X154487350Y-90984961D02*
X154475221Y-91008998D01*
X154475221Y-91008998D02*
X154464948Y-91035092D01*
X154464948Y-91035092D02*
X154456650Y-91062779D01*
X154456650Y-91062779D02*
X154450446Y-91091594D01*
X154450446Y-91091594D02*
X154446456Y-91121072D01*
X154446456Y-91121072D02*
X154444799Y-91150749D01*
X154444799Y-91150749D02*
X153919371Y-91150749D01*
X153919371Y-91150749D02*
X153918769Y-91136021D01*
X153918769Y-91136021D02*
X153919954Y-91089292D01*
X153919954Y-91089292D02*
X153924376Y-91043935D01*
X153924376Y-91043935D02*
X153932138Y-91000351D01*
X153932138Y-91000351D02*
X153943339Y-90958942D01*
X153943339Y-90958942D02*
X153947191Y-90946834D01*
X153947191Y-90946834D02*
X153950790Y-90935186D01*
X153950790Y-90935186D02*
X153954056Y-90924280D01*
X153954056Y-90924280D02*
X153956911Y-90914394D01*
X153956911Y-90914394D02*
X153959275Y-90905810D01*
X153959275Y-90905810D02*
X153961070Y-90898806D01*
X153961070Y-90898806D02*
X153962216Y-90893664D01*
X153962216Y-90893664D02*
X153962521Y-90891878D01*
X153962521Y-90891878D02*
X153962634Y-90890663D01*
X153962634Y-90890663D02*
X153961185Y-90889756D01*
X153961185Y-90889756D02*
X153956906Y-90888874D01*
X153956906Y-90888874D02*
X153940436Y-90887204D01*
X153940436Y-90887204D02*
X153914379Y-90885689D01*
X153914379Y-90885689D02*
X153879893Y-90884364D01*
X153879893Y-90884364D02*
X153790253Y-90882429D01*
X153790253Y-90882429D02*
X153680763Y-90881684D01*
X153680763Y-90881684D02*
X153442737Y-90879804D01*
X153442737Y-90879804D02*
X153216722Y-90874477D01*
X153216722Y-90874477D02*
X153008172Y-90866090D01*
X153008172Y-90866090D02*
X152822543Y-90855031D01*
X152822543Y-90855031D02*
X152665291Y-90841686D01*
X152665291Y-90841686D02*
X152599012Y-90834277D01*
X152599012Y-90834277D02*
X152541873Y-90826442D01*
X152541873Y-90826442D02*
X152494555Y-90818229D01*
X152494555Y-90818229D02*
X152457742Y-90809687D01*
X152457742Y-90809687D02*
X152432115Y-90800864D01*
X152432115Y-90800864D02*
X152423709Y-90796362D01*
X152423709Y-90796362D02*
X152418356Y-90791808D01*
X152418356Y-90791808D02*
X152413909Y-90783893D01*
X152413909Y-90783893D02*
X152413167Y-90775471D01*
X152413167Y-90775471D02*
X152415995Y-90766581D01*
X152415995Y-90766581D02*
X152422257Y-90757263D01*
X152422257Y-90757263D02*
X152444540Y-90737508D01*
X152444540Y-90737508D02*
X152478930Y-90716530D01*
X152478930Y-90716530D02*
X152524338Y-90694653D01*
X152524338Y-90694653D02*
X152579679Y-90672200D01*
X152579679Y-90672200D02*
X152643865Y-90649495D01*
X152643865Y-90649495D02*
X152715811Y-90626864D01*
X152715811Y-90626864D02*
X152878634Y-90583114D01*
X152878634Y-90583114D02*
X153059453Y-90543543D01*
X153059453Y-90543543D02*
X153153894Y-90526134D01*
X153153894Y-90526134D02*
X153249574Y-90510741D01*
X153249574Y-90510741D02*
X153345406Y-90497689D01*
X153345406Y-90497689D02*
X153440304Y-90487301D01*
X153440304Y-90487301D02*
X153674669Y-90476173D01*
X153674669Y-90476173D02*
X154053170Y-90471194D01*
X154053170Y-90471194D02*
X155107495Y-90477783D01*
X155107495Y-90477783D02*
X156333104Y-90503269D01*
X156333104Y-90503269D02*
X157459823Y-90543854D01*
X157459823Y-90543854D02*
X157963095Y-90572855D01*
X157963095Y-90572855D02*
X158443786Y-90610824D01*
X158443786Y-90610824D02*
X158900609Y-90657390D01*
X158900609Y-90657390D02*
X159332277Y-90712182D01*
X159332277Y-90712182D02*
X159737503Y-90774828D01*
X159737503Y-90774828D02*
X160115000Y-90844957D01*
X160115000Y-90844957D02*
X160463481Y-90922198D01*
X160463481Y-90922198D02*
X160781659Y-91006180D01*
X160781659Y-91006180D02*
X160928983Y-91050583D01*
X160928983Y-91050583D02*
X161068248Y-91096532D01*
X161068248Y-91096532D02*
X161199294Y-91143981D01*
X161199294Y-91143981D02*
X161321960Y-91192883D01*
X161321960Y-91192883D02*
X161436085Y-91243191D01*
X161436085Y-91243191D02*
X161541508Y-91294861D01*
X161541508Y-91294861D02*
X161638069Y-91347844D01*
X161638069Y-91347844D02*
X161725606Y-91402095D01*
X161725606Y-91402095D02*
X161803959Y-91457567D01*
X161803959Y-91457567D02*
X161872966Y-91514214D01*
X161872966Y-91514214D02*
X161932467Y-91571990D01*
X161932467Y-91571990D02*
X161982301Y-91630848D01*
X161982301Y-91630848D02*
X162022308Y-91690742D01*
X162022308Y-91690742D02*
X162052325Y-91751624D01*
X162052325Y-91751624D02*
X162072193Y-91813450D01*
X162072193Y-91813450D02*
X162081750Y-91876173D01*
X162081750Y-91876173D02*
X162083264Y-91911578D01*
X162083264Y-91911578D02*
X162082904Y-91946742D01*
X162082904Y-91946742D02*
X162080670Y-91981667D01*
X162080670Y-91981667D02*
X162076560Y-92016356D01*
X162076560Y-92016356D02*
X162070571Y-92050810D01*
X162070571Y-92050810D02*
X162062702Y-92085032D01*
X162062702Y-92085032D02*
X162052951Y-92119024D01*
X162052951Y-92119024D02*
X162041316Y-92152788D01*
X162041316Y-92152788D02*
X162012386Y-92219642D01*
X162012386Y-92219642D02*
X161975897Y-92285610D01*
X161975897Y-92285610D02*
X161931833Y-92350710D01*
X161931833Y-92350710D02*
X161880180Y-92414959D01*
X161880180Y-92414959D02*
X161820922Y-92478376D01*
X161820922Y-92478376D02*
X161754044Y-92540976D01*
X161754044Y-92540976D02*
X161679530Y-92602778D01*
X161679530Y-92602778D02*
X161597367Y-92663800D01*
X161597367Y-92663800D02*
X161507538Y-92724057D01*
X161507538Y-92724057D02*
X161410027Y-92783568D01*
X161410027Y-92783568D02*
X161304821Y-92842351D01*
X161304821Y-92842351D02*
X161191903Y-92900422D01*
X161191903Y-92900422D02*
X160992881Y-92995077D01*
X160992881Y-92995077D02*
X160792555Y-93082546D01*
X160792555Y-93082546D02*
X160588859Y-93163233D01*
X160588859Y-93163233D02*
X160379728Y-93237541D01*
X160379728Y-93237541D02*
X160163094Y-93305873D01*
X160163094Y-93305873D02*
X159936891Y-93368634D01*
X159936891Y-93368634D02*
X159699052Y-93426226D01*
X159699052Y-93426226D02*
X159447511Y-93479054D01*
X159447511Y-93479054D02*
X158895057Y-93572027D01*
X158895057Y-93572027D02*
X158262994Y-93650780D01*
X158262994Y-93650780D02*
X157534792Y-93718543D01*
X157534792Y-93718543D02*
X156693918Y-93778542D01*
X156693918Y-93778542D02*
X155511140Y-93848845D01*
X155511140Y-93848845D02*
X154454026Y-93901294D01*
X154454026Y-93901294D02*
X153462996Y-93938493D01*
X153462996Y-93938493D02*
X152478471Y-93963042D01*
X152478471Y-93963042D02*
X151013312Y-93992746D01*
X151013312Y-93992746D02*
X150498177Y-94006077D01*
X150498177Y-94006077D02*
X150072020Y-94020614D01*
X150072020Y-94020614D02*
X149692852Y-94038025D01*
X149692852Y-94038025D02*
X149318684Y-94059976D01*
X149318684Y-94059976D02*
X148417392Y-94124163D01*
X148417392Y-94124163D02*
X147798718Y-94171704D01*
X147798718Y-94171704D02*
X147275878Y-94215522D01*
X147275878Y-94215522D02*
X146831126Y-94257780D01*
X146831126Y-94257780D02*
X146446717Y-94300640D01*
X146446717Y-94300640D02*
X146104906Y-94346265D01*
X146104906Y-94346265D02*
X145787950Y-94396820D01*
X145787950Y-94396820D02*
X145478102Y-94454466D01*
X145478102Y-94454466D02*
X145157619Y-94521366D01*
X145157619Y-94521366D02*
X144686578Y-94631124D01*
X144686578Y-94631124D02*
X144209586Y-94758359D01*
X144209586Y-94758359D02*
X143705206Y-94910524D01*
X143705206Y-94910524D02*
X143151998Y-95095071D01*
X143151998Y-95095071D02*
X142528524Y-95319450D01*
X142528524Y-95319450D02*
X141813345Y-95591114D01*
X141813345Y-95591114D02*
X140985024Y-95917514D01*
X140985024Y-95917514D02*
X140022121Y-96306103D01*
X140022121Y-96306103D02*
X138888106Y-96765795D01*
X138888106Y-96765795D02*
X138120656Y-97079466D01*
X138120656Y-97079466D02*
X137280929Y-97431537D01*
X137280929Y-97431537D02*
X135022956Y-98404253D01*
X135022956Y-98404253D02*
X134234081Y-98746517D01*
X134234081Y-98746517D02*
X133746448Y-98956640D01*
X133746448Y-98956640D02*
X133280633Y-99154252D01*
X133280633Y-99154252D02*
X133118630Y-99222560D01*
X133118630Y-99222560D02*
X132997000Y-99273401D01*
X132997000Y-99273401D02*
X132910568Y-99308926D01*
X132910568Y-99308926D02*
X132854163Y-99331282D01*
X132854163Y-99331282D02*
X132835603Y-99338193D01*
X132835603Y-99338193D02*
X132822610Y-99342618D01*
X132822610Y-99342618D02*
X132814537Y-99344826D01*
X132814537Y-99344826D02*
X132812143Y-99345182D01*
X132812143Y-99345182D02*
X132810737Y-99345084D01*
X132810737Y-99345084D02*
X132960912Y-99264376D01*
X132960912Y-99264376D02*
X133451125Y-99023480D01*
X133451125Y-99023480D02*
X135539497Y-98018406D01*
X135539497Y-98018406D02*
X137474604Y-97089105D01*
X137474604Y-97089105D02*
X138727800Y-96480584D01*
X138727800Y-96480584D02*
X139631123Y-96038966D01*
X139631123Y-96038966D02*
X140217892Y-95756443D01*
X140217892Y-95756443D02*
X140732008Y-95517476D01*
X140732008Y-95517476D02*
X141417374Y-95206524D01*
X141417374Y-95206524D02*
X141904782Y-94984429D01*
X141904782Y-94984429D02*
X142335925Y-94784193D01*
X142335925Y-94784193D02*
X142721150Y-94600632D01*
X142721150Y-94600632D02*
X143070806Y-94428559D01*
X143070806Y-94428559D02*
X143395239Y-94262790D01*
X143395239Y-94262790D02*
X143704799Y-94098140D01*
X143704799Y-94098140D02*
X144009833Y-93929423D01*
X144009833Y-93929423D02*
X144320689Y-93751453D01*
X144320689Y-93751453D02*
X145001309Y-93341654D01*
X145001309Y-93341654D02*
X145746688Y-92862866D01*
X145746688Y-92862866D02*
X146587626Y-92292983D01*
X146587626Y-92292983D02*
X147554923Y-91609896D01*
X147554923Y-91609896D02*
X148679377Y-90791500D01*
X148679377Y-90791500D02*
X149991787Y-89815686D01*
X149991787Y-89815686D02*
X153303674Y-87303377D01*
X153303674Y-87303377D02*
X154616638Y-86292036D01*
X154616638Y-86292036D02*
X155138365Y-85881906D01*
X155138365Y-85881906D02*
X155609470Y-85503593D01*
X155609470Y-85503593D02*
X156059364Y-85133191D01*
X156059364Y-85133191D02*
X156517459Y-84746793D01*
X156517459Y-84746793D02*
X157575895Y-83830383D01*
X157575895Y-83830383D02*
X158028276Y-83431449D01*
X158028276Y-83431449D02*
X158214055Y-83263581D01*
X158214055Y-83263581D02*
X158391098Y-83099712D01*
X158391098Y-83099712D02*
X158573060Y-82927041D01*
X158573060Y-82927041D02*
X158773595Y-82732769D01*
X158773595Y-82732769D02*
X159285006Y-82228216D01*
X159285006Y-82228216D02*
X159561304Y-81955035D01*
X159561304Y-81955035D02*
X159789412Y-81731324D01*
X159789412Y-81731324D02*
X159945662Y-81580168D01*
X159945662Y-81580168D02*
X159989444Y-81539012D01*
X159989444Y-81539012D02*
X160001454Y-81528302D01*
X160001454Y-81528302D02*
X160006384Y-81524652D01*
X160006384Y-81524652D02*
X160017921Y-81527887D01*
G36*
X153919954Y-91089292D02*
G01*
X153924376Y-91043935D01*
X153932138Y-91000351D01*
X153943339Y-90958942D01*
X153947191Y-90946834D01*
X153950790Y-90935186D01*
X153954056Y-90924280D01*
X153956911Y-90914394D01*
X153959275Y-90905810D01*
X153961070Y-90898806D01*
X153962216Y-90893664D01*
X153962521Y-90891878D01*
X153962634Y-90890663D01*
X153961185Y-90889756D01*
X153956906Y-90888874D01*
X153940436Y-90887204D01*
X153914379Y-90885689D01*
X153879893Y-90884364D01*
X153790253Y-90882429D01*
X153680763Y-90881684D01*
X153442737Y-90879804D01*
X153216722Y-90874477D01*
X153008172Y-90866090D01*
X152822543Y-90855031D01*
X152665291Y-90841686D01*
X152599012Y-90834277D01*
X152541873Y-90826442D01*
X152494555Y-90818229D01*
X152457742Y-90809687D01*
X152432115Y-90800864D01*
X152423709Y-90796362D01*
X152418356Y-90791808D01*
X152413909Y-90783893D01*
X152413167Y-90775471D01*
X152415995Y-90766581D01*
X152422257Y-90757263D01*
X152444540Y-90737508D01*
X152478930Y-90716530D01*
X152524338Y-90694653D01*
X152579679Y-90672200D01*
X152643865Y-90649495D01*
X152715811Y-90626864D01*
X152878634Y-90583114D01*
X153059453Y-90543543D01*
X153153894Y-90526134D01*
X153249574Y-90510741D01*
X153345406Y-90497689D01*
X153440304Y-90487301D01*
X153674669Y-90476173D01*
X154053170Y-90471194D01*
X155107495Y-90477783D01*
X156333104Y-90503269D01*
X157459823Y-90543854D01*
X157963095Y-90572855D01*
X158443786Y-90610824D01*
X158900609Y-90657390D01*
X159332277Y-90712182D01*
X159737503Y-90774828D01*
X160115000Y-90844957D01*
X160463481Y-90922198D01*
X160781659Y-91006180D01*
X160928983Y-91050583D01*
X161068248Y-91096532D01*
X161199294Y-91143981D01*
X161321960Y-91192883D01*
X161436085Y-91243191D01*
X161541508Y-91294861D01*
X161638069Y-91347844D01*
X161725606Y-91402095D01*
X161803959Y-91457567D01*
X161872966Y-91514214D01*
X161932467Y-91571990D01*
X161982301Y-91630848D01*
X162022308Y-91690742D01*
X162052325Y-91751624D01*
X162072193Y-91813450D01*
X162081750Y-91876173D01*
X162083264Y-91911578D01*
X162082904Y-91946742D01*
X162080670Y-91981667D01*
X162076560Y-92016356D01*
X162070571Y-92050810D01*
X162062702Y-92085032D01*
X162052951Y-92119024D01*
X162041316Y-92152788D01*
X162012386Y-92219642D01*
X161975897Y-92285610D01*
X161931833Y-92350710D01*
X161880180Y-92414959D01*
X161820922Y-92478376D01*
X161754044Y-92540976D01*
X161679530Y-92602778D01*
X161597367Y-92663800D01*
X161507538Y-92724057D01*
X161410027Y-92783568D01*
X161304821Y-92842351D01*
X161191903Y-92900422D01*
X160992881Y-92995077D01*
X160792555Y-93082546D01*
X160588859Y-93163233D01*
X160379728Y-93237541D01*
X160163094Y-93305873D01*
X159936891Y-93368634D01*
X159699052Y-93426226D01*
X159447511Y-93479054D01*
X158895057Y-93572027D01*
X158262994Y-93650780D01*
X157534792Y-93718543D01*
X156693918Y-93778542D01*
X155511140Y-93848845D01*
X154454026Y-93901294D01*
X153462996Y-93938493D01*
X152478471Y-93963042D01*
X151013312Y-93992746D01*
X150498177Y-94006077D01*
X150072020Y-94020614D01*
X149692852Y-94038025D01*
X149318684Y-94059976D01*
X148417392Y-94124163D01*
X147798718Y-94171704D01*
X147275878Y-94215522D01*
X146831126Y-94257780D01*
X146446717Y-94300640D01*
X146104906Y-94346265D01*
X145787950Y-94396820D01*
X145478102Y-94454466D01*
X145157619Y-94521366D01*
X144686578Y-94631124D01*
X144209586Y-94758359D01*
X143705206Y-94910524D01*
X143151998Y-95095071D01*
X142528524Y-95319450D01*
X141813345Y-95591114D01*
X140985024Y-95917514D01*
X140022121Y-96306103D01*
X138888106Y-96765795D01*
X138120656Y-97079466D01*
X137280929Y-97431537D01*
X135022956Y-98404253D01*
X134234081Y-98746517D01*
X133746448Y-98956640D01*
X133280633Y-99154252D01*
X133118630Y-99222560D01*
X132997000Y-99273401D01*
X132910568Y-99308926D01*
X132854163Y-99331282D01*
X132835603Y-99338193D01*
X132822610Y-99342618D01*
X132814537Y-99344826D01*
X132812143Y-99345182D01*
X132810737Y-99345084D01*
X132960912Y-99264376D01*
X133451125Y-99023480D01*
X135539497Y-98018406D01*
X137474604Y-97089105D01*
X138727800Y-96480584D01*
X139631123Y-96038966D01*
X140217892Y-95756443D01*
X140732008Y-95517476D01*
X141417374Y-95206524D01*
X141904782Y-94984429D01*
X142335925Y-94784193D01*
X142721150Y-94600632D01*
X143070806Y-94428559D01*
X143395239Y-94262790D01*
X143704799Y-94098140D01*
X144009833Y-93929423D01*
X144320689Y-93751453D01*
X145001309Y-93341654D01*
X145746688Y-92862866D01*
X146587626Y-92292983D01*
X147554923Y-91609896D01*
X148679377Y-90791500D01*
X149991787Y-89815686D01*
X153303674Y-87303377D01*
X154616638Y-86292036D01*
X155138365Y-85881906D01*
X155609470Y-85503593D01*
X156059364Y-85133191D01*
X156517459Y-84746793D01*
X157575895Y-83830383D01*
X158028276Y-83431449D01*
X158214055Y-83263581D01*
X158391098Y-83099712D01*
X158573060Y-82927041D01*
X158773595Y-82732769D01*
X159285006Y-82228216D01*
X159561304Y-81955035D01*
X159789412Y-81731324D01*
X159945662Y-81580168D01*
X159989444Y-81539012D01*
X160001454Y-81528302D01*
X160006384Y-81524652D01*
X160017921Y-81527887D01*
X160023034Y-81538523D01*
X160020852Y-81557956D01*
X160010504Y-81587582D01*
X159961823Y-81683001D01*
X159870022Y-81835949D01*
X159728128Y-82057598D01*
X159529172Y-82359119D01*
X158932187Y-83246454D01*
X158754835Y-83511568D01*
X158679729Y-83626793D01*
X158612808Y-83732220D01*
X158553424Y-83829168D01*
X158500933Y-83918954D01*
X158454687Y-84002898D01*
X158414041Y-84082317D01*
X158378348Y-84158529D01*
X158346961Y-84232853D01*
X158319235Y-84306607D01*
X158294523Y-84381108D01*
X158272179Y-84457675D01*
X158251556Y-84537627D01*
X158232009Y-84622281D01*
X158212890Y-84712955D01*
X158185527Y-84862980D01*
X158166521Y-85004087D01*
X158160264Y-85071561D01*
X158156232Y-85137123D01*
X158154469Y-85200880D01*
X158155020Y-85262937D01*
X158157931Y-85323400D01*
X158163247Y-85382377D01*
X158171012Y-85439971D01*
X158181272Y-85496290D01*
X158194071Y-85551440D01*
X158209456Y-85605526D01*
X158227471Y-85658655D01*
X158248160Y-85710933D01*
X158271570Y-85762465D01*
X158297744Y-85813358D01*
X158326729Y-85863717D01*
X158358569Y-85913649D01*
X158393309Y-85963260D01*
X158430995Y-86012656D01*
X158471671Y-86061943D01*
X158515383Y-86111226D01*
X158562175Y-86160612D01*
X158612093Y-86210208D01*
X158721485Y-86310449D01*
X158843921Y-86412797D01*
X158979760Y-86518102D01*
X159135302Y-86632540D01*
X159277600Y-86731559D01*
X159413601Y-86819005D01*
X159481412Y-86859591D01*
X159550254Y-86898726D01*
X159620995Y-86936891D01*
X159694504Y-86974568D01*
X159853300Y-87050377D01*
X160033588Y-87130001D01*
X160242315Y-87217287D01*
X160329664Y-87253530D01*
X160406225Y-87286178D01*
X160472007Y-87315243D01*
X160527018Y-87340738D01*
X160571267Y-87362674D01*
X160604762Y-87381065D01*
X160627512Y-87395923D01*
X160634860Y-87402031D01*
X160639526Y-87407260D01*
X160641509Y-87411612D01*
X160640811Y-87415089D01*
X160637434Y-87417691D01*
X160631378Y-87419421D01*
X160622644Y-87420281D01*
X160611234Y-87420270D01*
X160580387Y-87417648D01*
X160538848Y-87411567D01*
X160486623Y-87402039D01*
X160423721Y-87389078D01*
X160350152Y-87372694D01*
X160103498Y-87311715D01*
X159860862Y-87243001D01*
X159623395Y-87167184D01*
X159392249Y-87084898D01*
X159168575Y-86996775D01*
X158953524Y-86903448D01*
X158748249Y-86805550D01*
X158553900Y-86703715D01*
X158371629Y-86598574D01*
X158202587Y-86490762D01*
X158047926Y-86380911D01*
X157908796Y-86269653D01*
X157845416Y-86213695D01*
X157786350Y-86157623D01*
X157731743Y-86101515D01*
X157681739Y-86045452D01*
X157636481Y-85989511D01*
X157596113Y-85933773D01*
X157560780Y-85878317D01*
X157530626Y-85823221D01*
X157518683Y-85797877D01*
X157505875Y-85767948D01*
X157478666Y-85697600D01*
X157451013Y-85618707D01*
X157424932Y-85537797D01*
X157402438Y-85461399D01*
X157385546Y-85396041D01*
X157379831Y-85369544D01*
X157376271Y-85348254D01*
X157375119Y-85332990D01*
X157375525Y-85327872D01*
X157376628Y-85324566D01*
X157377197Y-85323443D01*
X157377653Y-85322089D01*
X157377998Y-85320523D01*
X157378234Y-85318764D01*
X157378362Y-85316830D01*
X157378385Y-85314739D01*
X157378304Y-85312509D01*
X157378121Y-85310159D01*
X157377838Y-85307707D01*
X157377457Y-85305172D01*
X157376980Y-85302572D01*
X157376408Y-85299925D01*
X157375744Y-85297250D01*
X157374989Y-85294565D01*
X157374145Y-85291889D01*
X157373214Y-85289239D01*
X157371493Y-85286348D01*
X157368810Y-85284365D01*
X157365174Y-85283284D01*
X157360591Y-85283102D01*
X157348616Y-85285410D01*
X157332944Y-85291250D01*
X157313633Y-85300582D01*
X157290742Y-85313366D01*
X157264331Y-85329562D01*
X157234458Y-85349131D01*
X157164561Y-85398228D01*
X157081521Y-85460336D01*
X156985810Y-85535140D01*
X156877897Y-85622319D01*
X155825808Y-86470826D01*
X154621818Y-87433997D01*
X153826949Y-88058203D01*
X153020885Y-88676329D01*
X152118763Y-89352677D01*
X151035719Y-90151550D01*
X150028574Y-90887646D01*
X149238393Y-91457355D01*
X148537923Y-91951504D01*
X147799917Y-92460918D01*
X147419622Y-92722031D01*
X147131133Y-92921611D01*
X146913571Y-93074212D01*
X146746055Y-93194390D01*
X146672197Y-93247431D01*
X146596085Y-93300779D01*
X146526679Y-93348226D01*
X146497292Y-93367797D01*
X146472941Y-93383566D01*
X146369041Y-93449544D01*
X146452162Y-93442345D01*
X146975341Y-93399321D01*
X147427587Y-93368723D01*
X147907176Y-93344805D01*
X148512388Y-93321819D01*
X149397390Y-93294767D01*
X150519178Y-93268384D01*
X151488770Y-93244824D01*
X152246129Y-93218000D01*
X152925214Y-93182063D01*
X153659982Y-93131159D01*
X154626302Y-93058021D01*
X155258839Y-93007321D01*
X155485325Y-92987387D01*
X155670830Y-92969465D01*
X155829507Y-92952355D01*
X155975511Y-92934859D01*
X156911410Y-92807736D01*
X157911342Y-92654342D01*
X158917549Y-92483998D01*
X159872278Y-92306029D01*
X159960668Y-92288305D01*
X160039278Y-92271622D01*
X160111467Y-92255107D01*
X160180597Y-92237890D01*
X160250029Y-92219096D01*
X160323126Y-92197854D01*
X160403249Y-92173291D01*
X160493759Y-92144536D01*
X160719299Y-92072268D01*
X160790490Y-92049668D01*
X160819714Y-92040635D01*
X160822374Y-92039343D01*
X160823153Y-92037233D01*
X160822123Y-92034342D01*
X160819355Y-92030708D01*
X160808897Y-92021365D01*
X160792354Y-92009507D01*
X160743320Y-91979465D01*
X160676867Y-91943013D01*
X160597604Y-91902585D01*
X160510143Y-91860614D01*
X160419096Y-91819531D01*
X160329074Y-91781770D01*
X160185920Y-91726161D01*
X160048823Y-91676915D01*
X159913655Y-91632906D01*
X159776288Y-91593003D01*
X159632592Y-91556078D01*
X159478440Y-91521002D01*
X159309703Y-91486646D01*
X159122253Y-91451882D01*
X158875301Y-91407315D01*
X158665085Y-91368538D01*
X158489505Y-91338297D01*
X158288285Y-91308601D01*
X158065613Y-91279894D01*
X157825677Y-91252622D01*
X157572664Y-91227233D01*
X157310761Y-91204172D01*
X157044157Y-91183886D01*
X156777038Y-91166820D01*
X156599371Y-91156013D01*
X156427241Y-91144546D01*
X156280299Y-91133788D01*
X156178192Y-91125111D01*
X156110159Y-91118247D01*
X156083240Y-91115635D01*
X156060638Y-91113756D01*
X156042041Y-91112745D01*
X156034147Y-91112610D01*
X156027137Y-91112743D01*
X156020973Y-91113163D01*
X156015615Y-91113887D01*
X156011025Y-91114932D01*
X156007163Y-91116316D01*
X156003992Y-91118055D01*
X156001471Y-91120167D01*
X155999561Y-91122670D01*
X155998225Y-91125580D01*
X155997422Y-91128915D01*
X155997115Y-91132692D01*
X155997263Y-91136929D01*
X155997829Y-91141642D01*
X155998772Y-91146849D01*
X156000055Y-91152568D01*
X156003482Y-91165608D01*
X156012693Y-91198584D01*
X156019216Y-91226461D01*
X156024737Y-91257320D01*
X156029265Y-91290650D01*
X156032810Y-91325943D01*
X156035384Y-91362688D01*
X156036994Y-91400375D01*
X156037653Y-91438496D01*
X156037369Y-91476540D01*
X156036153Y-91513998D01*
X156034015Y-91550360D01*
X156030964Y-91585117D01*
X156027012Y-91617759D01*
X156022166Y-91647775D01*
X156016439Y-91674658D01*
X156009839Y-91697896D01*
X156002377Y-91716980D01*
X155976816Y-91764867D01*
X155946690Y-91809469D01*
X155912240Y-91850793D01*
X155873708Y-91888847D01*
X155831336Y-91923639D01*
X155785367Y-91955177D01*
X155736042Y-91983467D01*
X155683603Y-92008519D01*
X155628292Y-92030338D01*
X155570352Y-92048933D01*
X155510025Y-92064312D01*
X155447551Y-92076482D01*
X155383174Y-92085451D01*
X155317136Y-92091226D01*
X155181041Y-92093225D01*
X155041205Y-92082542D01*
X154899562Y-92059236D01*
X154758049Y-92023370D01*
X154618602Y-91975003D01*
X154550258Y-91946151D01*
X154483157Y-91914197D01*
X154417540Y-91879149D01*
X154353650Y-91841013D01*
X154291728Y-91799799D01*
X154232017Y-91755512D01*
X154174759Y-91708162D01*
X154120195Y-91657755D01*
X154090432Y-91625857D01*
X154062692Y-91590515D01*
X154037074Y-91552132D01*
X154013681Y-91511109D01*
X153992613Y-91467846D01*
X153973973Y-91422746D01*
X153957860Y-91376209D01*
X153944378Y-91328637D01*
X153933626Y-91280431D01*
X153925706Y-91231992D01*
X153920720Y-91183722D01*
X153919371Y-91150749D01*
X154444799Y-91150749D01*
X154445594Y-91180161D01*
X154448961Y-91208843D01*
X154451646Y-91222765D01*
X154455019Y-91236330D01*
X154459095Y-91249480D01*
X154463888Y-91262158D01*
X154469413Y-91274304D01*
X154475686Y-91285862D01*
X154498713Y-91321268D01*
X154524714Y-91354937D01*
X154553448Y-91386841D01*
X154584671Y-91416950D01*
X154618141Y-91445233D01*
X154653613Y-91471660D01*
X154690845Y-91496202D01*
X154729594Y-91518829D01*
X154769618Y-91539511D01*
X154810672Y-91558218D01*
X154852514Y-91574919D01*
X154894900Y-91589587D01*
X154937588Y-91602189D01*
X154980335Y-91612697D01*
X155022898Y-91621080D01*
X155065033Y-91627309D01*
X155106497Y-91631354D01*
X155147048Y-91633184D01*
X155186442Y-91632770D01*
X155224436Y-91630083D01*
X155260788Y-91625091D01*
X155295254Y-91617766D01*
X155327591Y-91608077D01*
X155357555Y-91595995D01*
X155384905Y-91581489D01*
X155409397Y-91564529D01*
X155430788Y-91545087D01*
X155448834Y-91523131D01*
X155463294Y-91498632D01*
X155473923Y-91471561D01*
X155480478Y-91441886D01*
X155482718Y-91409579D01*
X155481765Y-91396005D01*
X155478958Y-91381668D01*
X155474370Y-91366632D01*
X155468077Y-91350961D01*
X155450669Y-91317966D01*
X155427332Y-91283194D01*
X155398661Y-91247153D01*
X155365252Y-91210355D01*
X155327701Y-91173307D01*
X155286603Y-91136521D01*
X155242556Y-91100505D01*
X155196155Y-91065769D01*
X155147996Y-91032823D01*
X155098674Y-91002177D01*
X155048786Y-90974339D01*
X154998928Y-90949821D01*
X154949696Y-90929131D01*
X154901686Y-90912779D01*
X154886549Y-90908808D01*
X154869791Y-90905356D01*
X154851604Y-90902424D01*
X154832177Y-90900012D01*
X154811701Y-90898121D01*
X154790365Y-90896751D01*
X154768361Y-90895904D01*
X154745879Y-90895580D01*
X154723109Y-90895779D01*
X154700241Y-90896503D01*
X154677467Y-90897751D01*
X154654975Y-90899525D01*
X154632957Y-90901826D01*
X154611603Y-90904653D01*
X154591103Y-90908007D01*
X154571647Y-90911890D01*
X154561690Y-90914705D01*
X154552032Y-90918673D01*
X154542689Y-90923737D01*
X154533675Y-90929837D01*
X154525006Y-90936916D01*
X154516696Y-90944916D01*
X154508761Y-90953778D01*
X154501215Y-90963445D01*
X154494073Y-90973859D01*
X154487350Y-90984961D01*
X154475221Y-91008998D01*
X154464948Y-91035092D01*
X154456650Y-91062779D01*
X154450446Y-91091594D01*
X154446456Y-91121072D01*
X154444799Y-91150749D01*
X153919371Y-91150749D01*
X153918769Y-91136021D01*
X153919954Y-91089292D01*
G37*
X153919954Y-91089292D02*
X153924376Y-91043935D01*
X153932138Y-91000351D01*
X153943339Y-90958942D01*
X153947191Y-90946834D01*
X153950790Y-90935186D01*
X153954056Y-90924280D01*
X153956911Y-90914394D01*
X153959275Y-90905810D01*
X153961070Y-90898806D01*
X153962216Y-90893664D01*
X153962521Y-90891878D01*
X153962634Y-90890663D01*
X153961185Y-90889756D01*
X153956906Y-90888874D01*
X153940436Y-90887204D01*
X153914379Y-90885689D01*
X153879893Y-90884364D01*
X153790253Y-90882429D01*
X153680763Y-90881684D01*
X153442737Y-90879804D01*
X153216722Y-90874477D01*
X153008172Y-90866090D01*
X152822543Y-90855031D01*
X152665291Y-90841686D01*
X152599012Y-90834277D01*
X152541873Y-90826442D01*
X152494555Y-90818229D01*
X152457742Y-90809687D01*
X152432115Y-90800864D01*
X152423709Y-90796362D01*
X152418356Y-90791808D01*
X152413909Y-90783893D01*
X152413167Y-90775471D01*
X152415995Y-90766581D01*
X152422257Y-90757263D01*
X152444540Y-90737508D01*
X152478930Y-90716530D01*
X152524338Y-90694653D01*
X152579679Y-90672200D01*
X152643865Y-90649495D01*
X152715811Y-90626864D01*
X152878634Y-90583114D01*
X153059453Y-90543543D01*
X153153894Y-90526134D01*
X153249574Y-90510741D01*
X153345406Y-90497689D01*
X153440304Y-90487301D01*
X153674669Y-90476173D01*
X154053170Y-90471194D01*
X155107495Y-90477783D01*
X156333104Y-90503269D01*
X157459823Y-90543854D01*
X157963095Y-90572855D01*
X158443786Y-90610824D01*
X158900609Y-90657390D01*
X159332277Y-90712182D01*
X159737503Y-90774828D01*
X160115000Y-90844957D01*
X160463481Y-90922198D01*
X160781659Y-91006180D01*
X160928983Y-91050583D01*
X161068248Y-91096532D01*
X161199294Y-91143981D01*
X161321960Y-91192883D01*
X161436085Y-91243191D01*
X161541508Y-91294861D01*
X161638069Y-91347844D01*
X161725606Y-91402095D01*
X161803959Y-91457567D01*
X161872966Y-91514214D01*
X161932467Y-91571990D01*
X161982301Y-91630848D01*
X162022308Y-91690742D01*
X162052325Y-91751624D01*
X162072193Y-91813450D01*
X162081750Y-91876173D01*
X162083264Y-91911578D01*
X162082904Y-91946742D01*
X162080670Y-91981667D01*
X162076560Y-92016356D01*
X162070571Y-92050810D01*
X162062702Y-92085032D01*
X162052951Y-92119024D01*
X162041316Y-92152788D01*
X162012386Y-92219642D01*
X161975897Y-92285610D01*
X161931833Y-92350710D01*
X161880180Y-92414959D01*
X161820922Y-92478376D01*
X161754044Y-92540976D01*
X161679530Y-92602778D01*
X161597367Y-92663800D01*
X161507538Y-92724057D01*
X161410027Y-92783568D01*
X161304821Y-92842351D01*
X161191903Y-92900422D01*
X160992881Y-92995077D01*
X160792555Y-93082546D01*
X160588859Y-93163233D01*
X160379728Y-93237541D01*
X160163094Y-93305873D01*
X159936891Y-93368634D01*
X159699052Y-93426226D01*
X159447511Y-93479054D01*
X158895057Y-93572027D01*
X158262994Y-93650780D01*
X157534792Y-93718543D01*
X156693918Y-93778542D01*
X155511140Y-93848845D01*
X154454026Y-93901294D01*
X153462996Y-93938493D01*
X152478471Y-93963042D01*
X151013312Y-93992746D01*
X150498177Y-94006077D01*
X150072020Y-94020614D01*
X149692852Y-94038025D01*
X149318684Y-94059976D01*
X148417392Y-94124163D01*
X147798718Y-94171704D01*
X147275878Y-94215522D01*
X146831126Y-94257780D01*
X146446717Y-94300640D01*
X146104906Y-94346265D01*
X145787950Y-94396820D01*
X145478102Y-94454466D01*
X145157619Y-94521366D01*
X144686578Y-94631124D01*
X144209586Y-94758359D01*
X143705206Y-94910524D01*
X143151998Y-95095071D01*
X142528524Y-95319450D01*
X141813345Y-95591114D01*
X140985024Y-95917514D01*
X140022121Y-96306103D01*
X138888106Y-96765795D01*
X138120656Y-97079466D01*
X137280929Y-97431537D01*
X135022956Y-98404253D01*
X134234081Y-98746517D01*
X133746448Y-98956640D01*
X133280633Y-99154252D01*
X133118630Y-99222560D01*
X132997000Y-99273401D01*
X132910568Y-99308926D01*
X132854163Y-99331282D01*
X132835603Y-99338193D01*
X132822610Y-99342618D01*
X132814537Y-99344826D01*
X132812143Y-99345182D01*
X132810737Y-99345084D01*
X132960912Y-99264376D01*
X133451125Y-99023480D01*
X135539497Y-98018406D01*
X137474604Y-97089105D01*
X138727800Y-96480584D01*
X139631123Y-96038966D01*
X140217892Y-95756443D01*
X140732008Y-95517476D01*
X141417374Y-95206524D01*
X141904782Y-94984429D01*
X142335925Y-94784193D01*
X142721150Y-94600632D01*
X143070806Y-94428559D01*
X143395239Y-94262790D01*
X143704799Y-94098140D01*
X144009833Y-93929423D01*
X144320689Y-93751453D01*
X145001309Y-93341654D01*
X145746688Y-92862866D01*
X146587626Y-92292983D01*
X147554923Y-91609896D01*
X148679377Y-90791500D01*
X149991787Y-89815686D01*
X153303674Y-87303377D01*
X154616638Y-86292036D01*
X155138365Y-85881906D01*
X155609470Y-85503593D01*
X156059364Y-85133191D01*
X156517459Y-84746793D01*
X157575895Y-83830383D01*
X158028276Y-83431449D01*
X158214055Y-83263581D01*
X158391098Y-83099712D01*
X158573060Y-82927041D01*
X158773595Y-82732769D01*
X159285006Y-82228216D01*
X159561304Y-81955035D01*
X159789412Y-81731324D01*
X159945662Y-81580168D01*
X159989444Y-81539012D01*
X160001454Y-81528302D01*
X160006384Y-81524652D01*
X160017921Y-81527887D01*
X160023034Y-81538523D01*
X160020852Y-81557956D01*
X160010504Y-81587582D01*
X159961823Y-81683001D01*
X159870022Y-81835949D01*
X159728128Y-82057598D01*
X159529172Y-82359119D01*
X158932187Y-83246454D01*
X158754835Y-83511568D01*
X158679729Y-83626793D01*
X158612808Y-83732220D01*
X158553424Y-83829168D01*
X158500933Y-83918954D01*
X158454687Y-84002898D01*
X158414041Y-84082317D01*
X158378348Y-84158529D01*
X158346961Y-84232853D01*
X158319235Y-84306607D01*
X158294523Y-84381108D01*
X158272179Y-84457675D01*
X158251556Y-84537627D01*
X158232009Y-84622281D01*
X158212890Y-84712955D01*
X158185527Y-84862980D01*
X158166521Y-85004087D01*
X158160264Y-85071561D01*
X158156232Y-85137123D01*
X158154469Y-85200880D01*
X158155020Y-85262937D01*
X158157931Y-85323400D01*
X158163247Y-85382377D01*
X158171012Y-85439971D01*
X158181272Y-85496290D01*
X158194071Y-85551440D01*
X158209456Y-85605526D01*
X158227471Y-85658655D01*
X158248160Y-85710933D01*
X158271570Y-85762465D01*
X158297744Y-85813358D01*
X158326729Y-85863717D01*
X158358569Y-85913649D01*
X158393309Y-85963260D01*
X158430995Y-86012656D01*
X158471671Y-86061943D01*
X158515383Y-86111226D01*
X158562175Y-86160612D01*
X158612093Y-86210208D01*
X158721485Y-86310449D01*
X158843921Y-86412797D01*
X158979760Y-86518102D01*
X159135302Y-86632540D01*
X159277600Y-86731559D01*
X159413601Y-86819005D01*
X159481412Y-86859591D01*
X159550254Y-86898726D01*
X159620995Y-86936891D01*
X159694504Y-86974568D01*
X159853300Y-87050377D01*
X160033588Y-87130001D01*
X160242315Y-87217287D01*
X160329664Y-87253530D01*
X160406225Y-87286178D01*
X160472007Y-87315243D01*
X160527018Y-87340738D01*
X160571267Y-87362674D01*
X160604762Y-87381065D01*
X160627512Y-87395923D01*
X160634860Y-87402031D01*
X160639526Y-87407260D01*
X160641509Y-87411612D01*
X160640811Y-87415089D01*
X160637434Y-87417691D01*
X160631378Y-87419421D01*
X160622644Y-87420281D01*
X160611234Y-87420270D01*
X160580387Y-87417648D01*
X160538848Y-87411567D01*
X160486623Y-87402039D01*
X160423721Y-87389078D01*
X160350152Y-87372694D01*
X160103498Y-87311715D01*
X159860862Y-87243001D01*
X159623395Y-87167184D01*
X159392249Y-87084898D01*
X159168575Y-86996775D01*
X158953524Y-86903448D01*
X158748249Y-86805550D01*
X158553900Y-86703715D01*
X158371629Y-86598574D01*
X158202587Y-86490762D01*
X158047926Y-86380911D01*
X157908796Y-86269653D01*
X157845416Y-86213695D01*
X157786350Y-86157623D01*
X157731743Y-86101515D01*
X157681739Y-86045452D01*
X157636481Y-85989511D01*
X157596113Y-85933773D01*
X157560780Y-85878317D01*
X157530626Y-85823221D01*
X157518683Y-85797877D01*
X157505875Y-85767948D01*
X157478666Y-85697600D01*
X157451013Y-85618707D01*
X157424932Y-85537797D01*
X157402438Y-85461399D01*
X157385546Y-85396041D01*
X157379831Y-85369544D01*
X157376271Y-85348254D01*
X157375119Y-85332990D01*
X157375525Y-85327872D01*
X157376628Y-85324566D01*
X157377197Y-85323443D01*
X157377653Y-85322089D01*
X157377998Y-85320523D01*
X157378234Y-85318764D01*
X157378362Y-85316830D01*
X157378385Y-85314739D01*
X157378304Y-85312509D01*
X157378121Y-85310159D01*
X157377838Y-85307707D01*
X157377457Y-85305172D01*
X157376980Y-85302572D01*
X157376408Y-85299925D01*
X157375744Y-85297250D01*
X157374989Y-85294565D01*
X157374145Y-85291889D01*
X157373214Y-85289239D01*
X157371493Y-85286348D01*
X157368810Y-85284365D01*
X157365174Y-85283284D01*
X157360591Y-85283102D01*
X157348616Y-85285410D01*
X157332944Y-85291250D01*
X157313633Y-85300582D01*
X157290742Y-85313366D01*
X157264331Y-85329562D01*
X157234458Y-85349131D01*
X157164561Y-85398228D01*
X157081521Y-85460336D01*
X156985810Y-85535140D01*
X156877897Y-85622319D01*
X155825808Y-86470826D01*
X154621818Y-87433997D01*
X153826949Y-88058203D01*
X153020885Y-88676329D01*
X152118763Y-89352677D01*
X151035719Y-90151550D01*
X150028574Y-90887646D01*
X149238393Y-91457355D01*
X148537923Y-91951504D01*
X147799917Y-92460918D01*
X147419622Y-92722031D01*
X147131133Y-92921611D01*
X146913571Y-93074212D01*
X146746055Y-93194390D01*
X146672197Y-93247431D01*
X146596085Y-93300779D01*
X146526679Y-93348226D01*
X146497292Y-93367797D01*
X146472941Y-93383566D01*
X146369041Y-93449544D01*
X146452162Y-93442345D01*
X146975341Y-93399321D01*
X147427587Y-93368723D01*
X147907176Y-93344805D01*
X148512388Y-93321819D01*
X149397390Y-93294767D01*
X150519178Y-93268384D01*
X151488770Y-93244824D01*
X152246129Y-93218000D01*
X152925214Y-93182063D01*
X153659982Y-93131159D01*
X154626302Y-93058021D01*
X155258839Y-93007321D01*
X155485325Y-92987387D01*
X155670830Y-92969465D01*
X155829507Y-92952355D01*
X155975511Y-92934859D01*
X156911410Y-92807736D01*
X157911342Y-92654342D01*
X158917549Y-92483998D01*
X159872278Y-92306029D01*
X159960668Y-92288305D01*
X160039278Y-92271622D01*
X160111467Y-92255107D01*
X160180597Y-92237890D01*
X160250029Y-92219096D01*
X160323126Y-92197854D01*
X160403249Y-92173291D01*
X160493759Y-92144536D01*
X160719299Y-92072268D01*
X160790490Y-92049668D01*
X160819714Y-92040635D01*
X160822374Y-92039343D01*
X160823153Y-92037233D01*
X160822123Y-92034342D01*
X160819355Y-92030708D01*
X160808897Y-92021365D01*
X160792354Y-92009507D01*
X160743320Y-91979465D01*
X160676867Y-91943013D01*
X160597604Y-91902585D01*
X160510143Y-91860614D01*
X160419096Y-91819531D01*
X160329074Y-91781770D01*
X160185920Y-91726161D01*
X160048823Y-91676915D01*
X159913655Y-91632906D01*
X159776288Y-91593003D01*
X159632592Y-91556078D01*
X159478440Y-91521002D01*
X159309703Y-91486646D01*
X159122253Y-91451882D01*
X158875301Y-91407315D01*
X158665085Y-91368538D01*
X158489505Y-91338297D01*
X158288285Y-91308601D01*
X158065613Y-91279894D01*
X157825677Y-91252622D01*
X157572664Y-91227233D01*
X157310761Y-91204172D01*
X157044157Y-91183886D01*
X156777038Y-91166820D01*
X156599371Y-91156013D01*
X156427241Y-91144546D01*
X156280299Y-91133788D01*
X156178192Y-91125111D01*
X156110159Y-91118247D01*
X156083240Y-91115635D01*
X156060638Y-91113756D01*
X156042041Y-91112745D01*
X156034147Y-91112610D01*
X156027137Y-91112743D01*
X156020973Y-91113163D01*
X156015615Y-91113887D01*
X156011025Y-91114932D01*
X156007163Y-91116316D01*
X156003992Y-91118055D01*
X156001471Y-91120167D01*
X155999561Y-91122670D01*
X155998225Y-91125580D01*
X155997422Y-91128915D01*
X155997115Y-91132692D01*
X155997263Y-91136929D01*
X155997829Y-91141642D01*
X155998772Y-91146849D01*
X156000055Y-91152568D01*
X156003482Y-91165608D01*
X156012693Y-91198584D01*
X156019216Y-91226461D01*
X156024737Y-91257320D01*
X156029265Y-91290650D01*
X156032810Y-91325943D01*
X156035384Y-91362688D01*
X156036994Y-91400375D01*
X156037653Y-91438496D01*
X156037369Y-91476540D01*
X156036153Y-91513998D01*
X156034015Y-91550360D01*
X156030964Y-91585117D01*
X156027012Y-91617759D01*
X156022166Y-91647775D01*
X156016439Y-91674658D01*
X156009839Y-91697896D01*
X156002377Y-91716980D01*
X155976816Y-91764867D01*
X155946690Y-91809469D01*
X155912240Y-91850793D01*
X155873708Y-91888847D01*
X155831336Y-91923639D01*
X155785367Y-91955177D01*
X155736042Y-91983467D01*
X155683603Y-92008519D01*
X155628292Y-92030338D01*
X155570352Y-92048933D01*
X155510025Y-92064312D01*
X155447551Y-92076482D01*
X155383174Y-92085451D01*
X155317136Y-92091226D01*
X155181041Y-92093225D01*
X155041205Y-92082542D01*
X154899562Y-92059236D01*
X154758049Y-92023370D01*
X154618602Y-91975003D01*
X154550258Y-91946151D01*
X154483157Y-91914197D01*
X154417540Y-91879149D01*
X154353650Y-91841013D01*
X154291728Y-91799799D01*
X154232017Y-91755512D01*
X154174759Y-91708162D01*
X154120195Y-91657755D01*
X154090432Y-91625857D01*
X154062692Y-91590515D01*
X154037074Y-91552132D01*
X154013681Y-91511109D01*
X153992613Y-91467846D01*
X153973973Y-91422746D01*
X153957860Y-91376209D01*
X153944378Y-91328637D01*
X153933626Y-91280431D01*
X153925706Y-91231992D01*
X153920720Y-91183722D01*
X153919371Y-91150749D01*
X154444799Y-91150749D01*
X154445594Y-91180161D01*
X154448961Y-91208843D01*
X154451646Y-91222765D01*
X154455019Y-91236330D01*
X154459095Y-91249480D01*
X154463888Y-91262158D01*
X154469413Y-91274304D01*
X154475686Y-91285862D01*
X154498713Y-91321268D01*
X154524714Y-91354937D01*
X154553448Y-91386841D01*
X154584671Y-91416950D01*
X154618141Y-91445233D01*
X154653613Y-91471660D01*
X154690845Y-91496202D01*
X154729594Y-91518829D01*
X154769618Y-91539511D01*
X154810672Y-91558218D01*
X154852514Y-91574919D01*
X154894900Y-91589587D01*
X154937588Y-91602189D01*
X154980335Y-91612697D01*
X155022898Y-91621080D01*
X155065033Y-91627309D01*
X155106497Y-91631354D01*
X155147048Y-91633184D01*
X155186442Y-91632770D01*
X155224436Y-91630083D01*
X155260788Y-91625091D01*
X155295254Y-91617766D01*
X155327591Y-91608077D01*
X155357555Y-91595995D01*
X155384905Y-91581489D01*
X155409397Y-91564529D01*
X155430788Y-91545087D01*
X155448834Y-91523131D01*
X155463294Y-91498632D01*
X155473923Y-91471561D01*
X155480478Y-91441886D01*
X155482718Y-91409579D01*
X155481765Y-91396005D01*
X155478958Y-91381668D01*
X155474370Y-91366632D01*
X155468077Y-91350961D01*
X155450669Y-91317966D01*
X155427332Y-91283194D01*
X155398661Y-91247153D01*
X155365252Y-91210355D01*
X155327701Y-91173307D01*
X155286603Y-91136521D01*
X155242556Y-91100505D01*
X155196155Y-91065769D01*
X155147996Y-91032823D01*
X155098674Y-91002177D01*
X155048786Y-90974339D01*
X154998928Y-90949821D01*
X154949696Y-90929131D01*
X154901686Y-90912779D01*
X154886549Y-90908808D01*
X154869791Y-90905356D01*
X154851604Y-90902424D01*
X154832177Y-90900012D01*
X154811701Y-90898121D01*
X154790365Y-90896751D01*
X154768361Y-90895904D01*
X154745879Y-90895580D01*
X154723109Y-90895779D01*
X154700241Y-90896503D01*
X154677467Y-90897751D01*
X154654975Y-90899525D01*
X154632957Y-90901826D01*
X154611603Y-90904653D01*
X154591103Y-90908007D01*
X154571647Y-90911890D01*
X154561690Y-90914705D01*
X154552032Y-90918673D01*
X154542689Y-90923737D01*
X154533675Y-90929837D01*
X154525006Y-90936916D01*
X154516696Y-90944916D01*
X154508761Y-90953778D01*
X154501215Y-90963445D01*
X154494073Y-90973859D01*
X154487350Y-90984961D01*
X154475221Y-91008998D01*
X154464948Y-91035092D01*
X154456650Y-91062779D01*
X154450446Y-91091594D01*
X154446456Y-91121072D01*
X154444799Y-91150749D01*
X153919371Y-91150749D01*
X153918769Y-91136021D01*
X153919954Y-91089292D01*
D11*
X134189071Y-101228242D02*
X134403357Y-101299671D01*
X134760500Y-101299671D01*
X134903357Y-101228242D01*
X134974785Y-101156814D01*
X135046214Y-101013957D01*
X135046214Y-100871100D01*
X134974785Y-100728242D01*
X134903357Y-100656814D01*
X134760500Y-100585385D01*
X134474785Y-100513957D01*
X134331928Y-100442528D01*
X134260500Y-100371100D01*
X134189071Y-100228242D01*
X134189071Y-100085385D01*
X134260500Y-99942528D01*
X134331928Y-99871100D01*
X134474785Y-99799671D01*
X134831928Y-99799671D01*
X135046214Y-99871100D01*
X135474785Y-99799671D02*
X136331928Y-99799671D01*
X135903357Y-101299671D02*
X135903357Y-99799671D01*
X136831928Y-101299671D02*
X136831928Y-99799671D01*
X137331928Y-100871100D01*
X137831928Y-99799671D01*
X137831928Y-101299671D01*
X138403357Y-99799671D02*
X139331928Y-99799671D01*
X138831928Y-100371100D01*
X139046214Y-100371100D01*
X139189071Y-100442528D01*
X139260500Y-100513957D01*
X139331928Y-100656814D01*
X139331928Y-101013957D01*
X139260500Y-101156814D01*
X139189071Y-101228242D01*
X139046214Y-101299671D01*
X138617642Y-101299671D01*
X138474785Y-101228242D01*
X138403357Y-101156814D01*
X139903357Y-99942528D02*
X139974785Y-99871100D01*
X140117642Y-99799671D01*
X140474785Y-99799671D01*
X140617642Y-99871100D01*
X140689071Y-99942528D01*
X140760500Y-100085385D01*
X140760500Y-100228242D01*
X140689071Y-100442528D01*
X139831928Y-101299671D01*
X140760500Y-101299671D01*
X142546214Y-101299671D02*
X142546214Y-99799671D01*
X143403357Y-101299671D01*
X143403357Y-99799671D01*
X144760500Y-100299671D02*
X144760500Y-101299671D01*
X144117642Y-100299671D02*
X144117642Y-101085385D01*
X144189071Y-101228242D01*
X144331928Y-101299671D01*
X144546214Y-101299671D01*
X144689071Y-101228242D01*
X144760500Y-101156814D01*
X146117642Y-101228242D02*
X145974785Y-101299671D01*
X145689071Y-101299671D01*
X145546214Y-101228242D01*
X145474785Y-101156814D01*
X145403357Y-101013957D01*
X145403357Y-100585385D01*
X145474785Y-100442528D01*
X145546214Y-100371100D01*
X145689071Y-100299671D01*
X145974785Y-100299671D01*
X146117642Y-100371100D01*
X146974785Y-101299671D02*
X146831928Y-101228242D01*
X146760500Y-101085385D01*
X146760500Y-99799671D01*
X148117642Y-101228242D02*
X147974785Y-101299671D01*
X147689071Y-101299671D01*
X147546214Y-101228242D01*
X147474785Y-101085385D01*
X147474785Y-100513957D01*
X147546214Y-100371100D01*
X147689071Y-100299671D01*
X147974785Y-100299671D01*
X148117642Y-100371100D01*
X148189071Y-100513957D01*
X148189071Y-100656814D01*
X147474785Y-100799671D01*
X149046214Y-101299671D02*
X148903357Y-101228242D01*
X148831928Y-101156814D01*
X148760500Y-101013957D01*
X148760500Y-100585385D01*
X148831928Y-100442528D01*
X148903357Y-100371100D01*
X149046214Y-100299671D01*
X149260500Y-100299671D01*
X149403357Y-100371100D01*
X149474785Y-100442528D01*
X149546214Y-100585385D01*
X149546214Y-101013957D01*
X149474785Y-101156814D01*
X149403357Y-101228242D01*
X149260500Y-101299671D01*
X149046214Y-101299671D01*
X150189071Y-100728242D02*
X151331928Y-100728242D01*
X152831928Y-101299671D02*
X151974785Y-101299671D01*
X152403357Y-101299671D02*
X152403357Y-99799671D01*
X152260500Y-100013957D01*
X152117642Y-100156814D01*
X151974785Y-100228242D01*
X154117642Y-100299671D02*
X154117642Y-101299671D01*
X153760500Y-99728242D02*
X153403357Y-100799671D01*
X154331928Y-100799671D01*
X155546214Y-100299671D02*
X155546214Y-101299671D01*
X155189071Y-99728242D02*
X154831928Y-100799671D01*
X155760500Y-100799671D01*
X157474785Y-101299671D02*
X157474785Y-99799671D01*
X157474785Y-100513957D02*
X158331928Y-100513957D01*
X158331928Y-101299671D02*
X158331928Y-99799671D01*
X158974785Y-100871100D02*
X159689071Y-100871100D01*
X158831928Y-101299671D02*
X159331928Y-99799671D01*
X159831928Y-101299671D01*
X160117642Y-99799671D02*
X160974785Y-99799671D01*
X160546214Y-101299671D02*
X160546214Y-99799671D01*
X144046214Y-103286100D02*
X144760500Y-103286100D01*
X143903357Y-103714671D02*
X144403357Y-102214671D01*
X144903357Y-103714671D01*
X145189071Y-102214671D02*
X145689071Y-103714671D01*
X146189071Y-102214671D01*
X147189071Y-102928957D02*
X147403357Y-103000385D01*
X147474785Y-103071814D01*
X147546214Y-103214671D01*
X147546214Y-103428957D01*
X147474785Y-103571814D01*
X147403357Y-103643242D01*
X147260500Y-103714671D01*
X146689071Y-103714671D01*
X146689071Y-102214671D01*
X147189071Y-102214671D01*
X147331928Y-102286100D01*
X147403357Y-102357528D01*
X147474785Y-102500385D01*
X147474785Y-102643242D01*
X147403357Y-102786100D01*
X147331928Y-102857528D01*
X147189071Y-102928957D01*
X146689071Y-102928957D01*
X148403357Y-103714671D02*
X148260500Y-103643242D01*
X148189071Y-103571814D01*
X148117642Y-103428957D01*
X148117642Y-103000385D01*
X148189071Y-102857528D01*
X148260500Y-102786100D01*
X148403357Y-102714671D01*
X148617642Y-102714671D01*
X148760500Y-102786100D01*
X148831928Y-102857528D01*
X148903357Y-103000385D01*
X148903357Y-103428957D01*
X148831928Y-103571814D01*
X148760500Y-103643242D01*
X148617642Y-103714671D01*
X148403357Y-103714671D01*
X149331928Y-102714671D02*
X149903357Y-102714671D01*
X149546214Y-102214671D02*
X149546214Y-103500385D01*
X149617642Y-103643242D01*
X149760500Y-103714671D01*
X149903357Y-103714671D01*
X150260500Y-102714671D02*
X151046214Y-102714671D01*
X150260500Y-103714671D01*
X151046214Y-103714671D01*
X137997771Y-52625666D02*
X137045390Y-52625666D01*
X138188247Y-52054238D02*
X137521580Y-54054238D01*
X136854914Y-52054238D01*
X136188247Y-52054238D02*
X136188247Y-54054238D01*
X135712057Y-54054238D01*
X135426342Y-53959000D01*
X135235866Y-53768523D01*
X135140628Y-53578047D01*
X135045390Y-53197095D01*
X135045390Y-52911380D01*
X135140628Y-52530428D01*
X135235866Y-52339952D01*
X135426342Y-52149476D01*
X135712057Y-52054238D01*
X136188247Y-52054238D01*
X133045390Y-52244714D02*
X133140628Y-52149476D01*
X133426342Y-52054238D01*
X133616819Y-52054238D01*
X133902533Y-52149476D01*
X134093009Y-52339952D01*
X134188247Y-52530428D01*
X134283485Y-52911380D01*
X134283485Y-53197095D01*
X134188247Y-53578047D01*
X134093009Y-53768523D01*
X133902533Y-53959000D01*
X133616819Y-54054238D01*
X133426342Y-54054238D01*
X133140628Y-53959000D01*
X133045390Y-53863761D01*
X131140628Y-52054238D02*
X132283485Y-52054238D01*
X131712057Y-52054238D02*
X131712057Y-54054238D01*
X131902533Y-53768523D01*
X132093009Y-53578047D01*
X132283485Y-53482809D01*
X137223904Y-151336285D02*
X137128666Y-151431523D01*
X136842952Y-151526761D01*
X136652476Y-151526761D01*
X136366761Y-151431523D01*
X136176285Y-151241047D01*
X136081047Y-151050571D01*
X135985809Y-150669619D01*
X135985809Y-150383904D01*
X136081047Y-150002952D01*
X136176285Y-149812476D01*
X136366761Y-149622000D01*
X136652476Y-149526761D01*
X136842952Y-149526761D01*
X137128666Y-149622000D01*
X137223904Y-149717238D01*
X137985809Y-150955333D02*
X138938190Y-150955333D01*
X137795333Y-151526761D02*
X138462000Y-149526761D01*
X139128666Y-151526761D01*
X139795333Y-151526761D02*
X139795333Y-149526761D01*
X140938190Y-151526761D01*
X140938190Y-149526761D01*
X142938190Y-151526761D02*
X141795333Y-151526761D01*
X142366761Y-151526761D02*
X142366761Y-149526761D01*
X142176285Y-149812476D01*
X141985809Y-150002952D01*
X141795333Y-150098190D01*
X144462000Y-150479142D02*
X144747714Y-150574380D01*
X144842952Y-150669619D01*
X144938190Y-150860095D01*
X144938190Y-151145809D01*
X144842952Y-151336285D01*
X144747714Y-151431523D01*
X144557238Y-151526761D01*
X143795333Y-151526761D01*
X143795333Y-149526761D01*
X144462000Y-149526761D01*
X144652476Y-149622000D01*
X144747714Y-149717238D01*
X144842952Y-149907714D01*
X144842952Y-150098190D01*
X144747714Y-150288666D01*
X144652476Y-150383904D01*
X144462000Y-150479142D01*
X143795333Y-150479142D01*
X123301238Y-115554476D02*
X125301238Y-115554476D01*
X125301238Y-116316380D01*
X125206000Y-116506857D01*
X125110761Y-116602095D01*
X124920285Y-116697333D01*
X124634571Y-116697333D01*
X124444095Y-116602095D01*
X124348857Y-116506857D01*
X124253619Y-116316380D01*
X124253619Y-115554476D01*
X125301238Y-117364000D02*
X123301238Y-117840190D01*
X124729809Y-118221142D01*
X123301238Y-118602095D01*
X125301238Y-119078285D01*
X123301238Y-119840190D02*
X125301238Y-119840190D01*
X123872666Y-120506857D01*
X125301238Y-121173523D01*
X123301238Y-121173523D01*
X164782904Y-151336285D02*
X164687666Y-151431523D01*
X164401952Y-151526761D01*
X164211476Y-151526761D01*
X163925761Y-151431523D01*
X163735285Y-151241047D01*
X163640047Y-151050571D01*
X163544809Y-150669619D01*
X163544809Y-150383904D01*
X163640047Y-150002952D01*
X163735285Y-149812476D01*
X163925761Y-149622000D01*
X164211476Y-149526761D01*
X164401952Y-149526761D01*
X164687666Y-149622000D01*
X164782904Y-149717238D01*
X165544809Y-150955333D02*
X166497190Y-150955333D01*
X165354333Y-151526761D02*
X166021000Y-149526761D01*
X166687666Y-151526761D01*
X167354333Y-151526761D02*
X167354333Y-149526761D01*
X168497190Y-151526761D01*
X168497190Y-149526761D01*
X169354333Y-149717238D02*
X169449571Y-149622000D01*
X169640047Y-149526761D01*
X170116238Y-149526761D01*
X170306714Y-149622000D01*
X170401952Y-149717238D01*
X170497190Y-149907714D01*
X170497190Y-150098190D01*
X170401952Y-150383904D01*
X169259095Y-151526761D01*
X170497190Y-151526761D01*
X172021000Y-150479142D02*
X172306714Y-150574380D01*
X172401952Y-150669619D01*
X172497190Y-150860095D01*
X172497190Y-151145809D01*
X172401952Y-151336285D01*
X172306714Y-151431523D01*
X172116238Y-151526761D01*
X171354333Y-151526761D01*
X171354333Y-149526761D01*
X172021000Y-149526761D01*
X172211476Y-149622000D01*
X172306714Y-149717238D01*
X172401952Y-149907714D01*
X172401952Y-150098190D01*
X172306714Y-150288666D01*
X172211476Y-150383904D01*
X172021000Y-150479142D01*
X171354333Y-150479142D01*
X123650761Y-151336285D02*
X123555523Y-151431523D01*
X123269809Y-151526761D01*
X123079333Y-151526761D01*
X122793619Y-151431523D01*
X122603142Y-151241047D01*
X122507904Y-151050571D01*
X122412666Y-150669619D01*
X122412666Y-150383904D01*
X122507904Y-150002952D01*
X122603142Y-149812476D01*
X122793619Y-149622000D01*
X123079333Y-149526761D01*
X123269809Y-149526761D01*
X123555523Y-149622000D01*
X123650761Y-149717238D01*
X124412666Y-150955333D02*
X125365047Y-150955333D01*
X124222190Y-151526761D02*
X124888857Y-149526761D01*
X125555523Y-151526761D01*
X126222190Y-151526761D02*
X126222190Y-149526761D01*
X127365047Y-151526761D01*
X127365047Y-149526761D01*
X129365047Y-151526761D02*
X128222190Y-151526761D01*
X128793619Y-151526761D02*
X128793619Y-149526761D01*
X128603142Y-149812476D01*
X128412666Y-150002952D01*
X128222190Y-150098190D01*
X130126952Y-150955333D02*
X131079333Y-150955333D01*
X129936476Y-151526761D02*
X130603142Y-149526761D01*
X131269809Y-151526761D01*
X162556666Y-51903238D02*
X162556666Y-53903238D01*
X161794761Y-53903238D01*
X161604285Y-53808000D01*
X161509047Y-53712761D01*
X161413809Y-53522285D01*
X161413809Y-53236571D01*
X161509047Y-53046095D01*
X161604285Y-52950857D01*
X161794761Y-52855619D01*
X162556666Y-52855619D01*
X160747142Y-53903238D02*
X160270952Y-51903238D01*
X159890000Y-53331809D01*
X159509047Y-51903238D01*
X159032857Y-53903238D01*
X157128095Y-51903238D02*
X157794761Y-52855619D01*
X158270952Y-51903238D02*
X158270952Y-53903238D01*
X157509047Y-53903238D01*
X157318571Y-53808000D01*
X157223333Y-53712761D01*
X157128095Y-53522285D01*
X157128095Y-53236571D01*
X157223333Y-53046095D01*
X157318571Y-52950857D01*
X157509047Y-52855619D01*
X158270952Y-52855619D01*
X123290476Y-92504000D02*
X123195238Y-92789714D01*
X123195238Y-93265904D01*
X123290476Y-93456380D01*
X123385714Y-93551619D01*
X123576190Y-93646857D01*
X123766666Y-93646857D01*
X123957142Y-93551619D01*
X124052380Y-93456380D01*
X124147619Y-93265904D01*
X124242857Y-92884952D01*
X124338095Y-92694476D01*
X124433333Y-92599238D01*
X124623809Y-92504000D01*
X124814285Y-92504000D01*
X125004761Y-92599238D01*
X125100000Y-92694476D01*
X125195238Y-92884952D01*
X125195238Y-93361142D01*
X125100000Y-93646857D01*
X123195238Y-94504000D02*
X125195238Y-94504000D01*
X125195238Y-95265904D01*
X125100000Y-95456380D01*
X125004761Y-95551619D01*
X124814285Y-95646857D01*
X124528571Y-95646857D01*
X124338095Y-95551619D01*
X124242857Y-95456380D01*
X124147619Y-95265904D01*
X124147619Y-94504000D01*
X123195238Y-96504000D02*
X125195238Y-96504000D01*
X123195238Y-98504000D02*
X123195238Y-97361142D01*
X123195238Y-97932571D02*
X125195238Y-97932571D01*
X124909523Y-97742095D01*
X124719047Y-97551619D01*
X124623809Y-97361142D01*
X169454761Y-77294858D02*
X171073809Y-77294858D01*
X171264285Y-77199620D01*
X171359523Y-77104381D01*
X171454761Y-76913905D01*
X171454761Y-76532953D01*
X171359523Y-76342477D01*
X171264285Y-76247239D01*
X171073809Y-76152001D01*
X169454761Y-76152001D01*
X170883333Y-75294858D02*
X170883333Y-74342477D01*
X171454761Y-75485334D02*
X169454761Y-74818667D01*
X171454761Y-74152001D01*
X171454761Y-72342477D02*
X170502380Y-73009143D01*
X171454761Y-73485334D02*
X169454761Y-73485334D01*
X169454761Y-72723429D01*
X169550000Y-72532953D01*
X169645238Y-72437715D01*
X169835714Y-72342477D01*
X170121428Y-72342477D01*
X170311904Y-72437715D01*
X170407142Y-72532953D01*
X170502380Y-72723429D01*
X170502380Y-73485334D01*
X169454761Y-71771048D02*
X169454761Y-70628191D01*
X171454761Y-71199620D02*
X169454761Y-71199620D01*
X171454761Y-68913905D02*
X171454761Y-70056762D01*
X171454761Y-69485334D02*
X169454761Y-69485334D01*
X169740476Y-69675810D01*
X169930952Y-69866286D01*
X170026190Y-70056762D01*
X164908571Y-61717857D02*
X163765714Y-61717857D01*
X164337142Y-61146428D02*
X164337142Y-62289285D01*
X162337142Y-62646428D02*
X163051428Y-62646428D01*
X163122857Y-61932142D01*
X163051428Y-62003571D01*
X162908571Y-62075000D01*
X162551428Y-62075000D01*
X162408571Y-62003571D01*
X162337142Y-61932142D01*
X162265714Y-61789285D01*
X162265714Y-61432142D01*
X162337142Y-61289285D01*
X162408571Y-61217857D01*
X162551428Y-61146428D01*
X162908571Y-61146428D01*
X163051428Y-61217857D01*
X163122857Y-61289285D01*
X161837142Y-62646428D02*
X161337142Y-61146428D01*
X160837142Y-62646428D01*
X125225238Y-69009142D02*
X123606190Y-69009142D01*
X123415714Y-69104380D01*
X123320476Y-69199619D01*
X123225238Y-69390095D01*
X123225238Y-69771047D01*
X123320476Y-69961523D01*
X123415714Y-70056761D01*
X123606190Y-70152000D01*
X125225238Y-70152000D01*
X123796666Y-71009142D02*
X123796666Y-71961523D01*
X123225238Y-70818666D02*
X125225238Y-71485333D01*
X123225238Y-72152000D01*
X123225238Y-73961523D02*
X124177619Y-73294857D01*
X123225238Y-72818666D02*
X125225238Y-72818666D01*
X125225238Y-73580571D01*
X125130000Y-73771047D01*
X125034761Y-73866285D01*
X124844285Y-73961523D01*
X124558571Y-73961523D01*
X124368095Y-73866285D01*
X124272857Y-73771047D01*
X124177619Y-73580571D01*
X124177619Y-72818666D01*
X125225238Y-74532952D02*
X125225238Y-75675809D01*
X123225238Y-75104380D02*
X125225238Y-75104380D01*
X124558571Y-77199619D02*
X123225238Y-77199619D01*
X125320476Y-76723428D02*
X123891904Y-76247238D01*
X123891904Y-77485333D01*
X169484761Y-99646858D02*
X171103809Y-99646858D01*
X171294285Y-99551620D01*
X171389523Y-99456381D01*
X171484761Y-99265905D01*
X171484761Y-98884953D01*
X171389523Y-98694477D01*
X171294285Y-98599239D01*
X171103809Y-98504001D01*
X169484761Y-98504001D01*
X170913333Y-97646858D02*
X170913333Y-96694477D01*
X171484761Y-97837334D02*
X169484761Y-97170667D01*
X171484761Y-96504001D01*
X171484761Y-94694477D02*
X170532380Y-95361143D01*
X171484761Y-95837334D02*
X169484761Y-95837334D01*
X169484761Y-95075429D01*
X169580000Y-94884953D01*
X169675238Y-94789715D01*
X169865714Y-94694477D01*
X170151428Y-94694477D01*
X170341904Y-94789715D01*
X170437142Y-94884953D01*
X170532380Y-95075429D01*
X170532380Y-95837334D01*
X169484761Y-94123048D02*
X169484761Y-92980191D01*
X171484761Y-93551620D02*
X169484761Y-93551620D01*
X169675238Y-92408762D02*
X169580000Y-92313524D01*
X169484761Y-92123048D01*
X169484761Y-91646858D01*
X169580000Y-91456381D01*
X169675238Y-91361143D01*
X169865714Y-91265905D01*
X170056190Y-91265905D01*
X170341904Y-91361143D01*
X171484761Y-92504001D01*
X171484761Y-91265905D01*
X156490666Y-116709809D02*
X156490666Y-117662190D01*
X155919238Y-116519333D02*
X157919238Y-117186000D01*
X155919238Y-117852666D01*
X155919238Y-118519333D02*
X157919238Y-118519333D01*
X156966857Y-118519333D02*
X156966857Y-119662190D01*
X155919238Y-119662190D02*
X157919238Y-119662190D01*
X155919238Y-121757428D02*
X156871619Y-121090761D01*
X155919238Y-120614571D02*
X157919238Y-120614571D01*
X157919238Y-121376476D01*
X157824000Y-121566952D01*
X157728761Y-121662190D01*
X157538285Y-121757428D01*
X157252571Y-121757428D01*
X157062095Y-121662190D01*
X156966857Y-121566952D01*
X156871619Y-121376476D01*
X156871619Y-120614571D01*
X156014476Y-122519333D02*
X155919238Y-122805047D01*
X155919238Y-123281238D01*
X156014476Y-123471714D01*
X156109714Y-123566952D01*
X156300190Y-123662190D01*
X156490666Y-123662190D01*
X156681142Y-123566952D01*
X156776380Y-123471714D01*
X156871619Y-123281238D01*
X156966857Y-122900285D01*
X157062095Y-122709809D01*
X157157333Y-122614571D01*
X157347809Y-122519333D01*
X157538285Y-122519333D01*
X157728761Y-122614571D01*
X157824000Y-122709809D01*
X157919238Y-122900285D01*
X157919238Y-123376476D01*
X157824000Y-123662190D01*
X151082761Y-151336285D02*
X150987523Y-151431523D01*
X150701809Y-151526761D01*
X150511333Y-151526761D01*
X150225619Y-151431523D01*
X150035142Y-151241047D01*
X149939904Y-151050571D01*
X149844666Y-150669619D01*
X149844666Y-150383904D01*
X149939904Y-150002952D01*
X150035142Y-149812476D01*
X150225619Y-149622000D01*
X150511333Y-149526761D01*
X150701809Y-149526761D01*
X150987523Y-149622000D01*
X151082761Y-149717238D01*
X151844666Y-150955333D02*
X152797047Y-150955333D01*
X151654190Y-151526761D02*
X152320857Y-149526761D01*
X152987523Y-151526761D01*
X153654190Y-151526761D02*
X153654190Y-149526761D01*
X154797047Y-151526761D01*
X154797047Y-149526761D01*
X155654190Y-149717238D02*
X155749428Y-149622000D01*
X155939904Y-149526761D01*
X156416095Y-149526761D01*
X156606571Y-149622000D01*
X156701809Y-149717238D01*
X156797047Y-149907714D01*
X156797047Y-150098190D01*
X156701809Y-150383904D01*
X155558952Y-151526761D01*
X156797047Y-151526761D01*
X157558952Y-150955333D02*
X158511333Y-150955333D01*
X157368476Y-151526761D02*
X158035142Y-149526761D01*
X158701809Y-151526761D01*
X169544761Y-122506858D02*
X171163809Y-122506858D01*
X171354285Y-122411620D01*
X171449523Y-122316381D01*
X171544761Y-122125905D01*
X171544761Y-121744953D01*
X171449523Y-121554477D01*
X171354285Y-121459239D01*
X171163809Y-121364001D01*
X169544761Y-121364001D01*
X170973333Y-120506858D02*
X170973333Y-119554477D01*
X171544761Y-120697334D02*
X169544761Y-120030667D01*
X171544761Y-119364001D01*
X171544761Y-117554477D02*
X170592380Y-118221143D01*
X171544761Y-118697334D02*
X169544761Y-118697334D01*
X169544761Y-117935429D01*
X169640000Y-117744953D01*
X169735238Y-117649715D01*
X169925714Y-117554477D01*
X170211428Y-117554477D01*
X170401904Y-117649715D01*
X170497142Y-117744953D01*
X170592380Y-117935429D01*
X170592380Y-118697334D01*
X169544761Y-116983048D02*
X169544761Y-115840191D01*
X171544761Y-116411620D02*
X169544761Y-116411620D01*
X169544761Y-115364001D02*
X169544761Y-114125905D01*
X170306666Y-114792572D01*
X170306666Y-114506858D01*
X170401904Y-114316381D01*
X170497142Y-114221143D01*
X170687619Y-114125905D01*
X171163809Y-114125905D01*
X171354285Y-114221143D01*
X171449523Y-114316381D01*
X171544761Y-114506858D01*
X171544761Y-115078286D01*
X171449523Y-115268762D01*
X171354285Y-115364001D01*
X158042857Y-62520000D02*
X158185714Y-62591428D01*
X158400000Y-62591428D01*
X158614285Y-62520000D01*
X158757142Y-62377142D01*
X158828571Y-62234285D01*
X158900000Y-61948571D01*
X158900000Y-61734285D01*
X158828571Y-61448571D01*
X158757142Y-61305714D01*
X158614285Y-61162857D01*
X158400000Y-61091428D01*
X158257142Y-61091428D01*
X158042857Y-61162857D01*
X157971428Y-61234285D01*
X157971428Y-61734285D01*
X158257142Y-61734285D01*
X157328571Y-61091428D02*
X157328571Y-62591428D01*
X156471428Y-61091428D01*
X156471428Y-62591428D01*
X155757142Y-61091428D02*
X155757142Y-62591428D01*
X155400000Y-62591428D01*
X155185714Y-62520000D01*
X155042857Y-62377142D01*
X154971428Y-62234285D01*
X154900000Y-61948571D01*
X154900000Y-61734285D01*
X154971428Y-61448571D01*
X155042857Y-61305714D01*
X155185714Y-61162857D01*
X155400000Y-61091428D01*
X155757142Y-61091428D01*
D12*
X142939071Y-105912380D02*
X142939071Y-104912380D01*
X143177166Y-104912380D01*
X143320023Y-104960000D01*
X143415261Y-105055238D01*
X143462880Y-105150476D01*
X143510500Y-105340952D01*
X143510500Y-105483809D01*
X143462880Y-105674285D01*
X143415261Y-105769523D01*
X143320023Y-105864761D01*
X143177166Y-105912380D01*
X142939071Y-105912380D01*
X144320023Y-105864761D02*
X144224785Y-105912380D01*
X144034309Y-105912380D01*
X143939071Y-105864761D01*
X143891452Y-105769523D01*
X143891452Y-105388571D01*
X143939071Y-105293333D01*
X144034309Y-105245714D01*
X144224785Y-105245714D01*
X144320023Y-105293333D01*
X144367642Y-105388571D01*
X144367642Y-105483809D01*
X143891452Y-105579047D01*
X144748595Y-105864761D02*
X144843833Y-105912380D01*
X145034309Y-105912380D01*
X145129547Y-105864761D01*
X145177166Y-105769523D01*
X145177166Y-105721904D01*
X145129547Y-105626666D01*
X145034309Y-105579047D01*
X144891452Y-105579047D01*
X144796214Y-105531428D01*
X144748595Y-105436190D01*
X144748595Y-105388571D01*
X144796214Y-105293333D01*
X144891452Y-105245714D01*
X145034309Y-105245714D01*
X145129547Y-105293333D01*
X145605738Y-105912380D02*
X145605738Y-105245714D01*
X145605738Y-104912380D02*
X145558119Y-104960000D01*
X145605738Y-105007619D01*
X145653357Y-104960000D01*
X145605738Y-104912380D01*
X145605738Y-105007619D01*
X146510500Y-105245714D02*
X146510500Y-106055238D01*
X146462880Y-106150476D01*
X146415261Y-106198095D01*
X146320023Y-106245714D01*
X146177166Y-106245714D01*
X146081928Y-106198095D01*
X146510500Y-105864761D02*
X146415261Y-105912380D01*
X146224785Y-105912380D01*
X146129547Y-105864761D01*
X146081928Y-105817142D01*
X146034309Y-105721904D01*
X146034309Y-105436190D01*
X146081928Y-105340952D01*
X146129547Y-105293333D01*
X146224785Y-105245714D01*
X146415261Y-105245714D01*
X146510500Y-105293333D01*
X146986690Y-105245714D02*
X146986690Y-105912380D01*
X146986690Y-105340952D02*
X147034309Y-105293333D01*
X147129547Y-105245714D01*
X147272404Y-105245714D01*
X147367642Y-105293333D01*
X147415261Y-105388571D01*
X147415261Y-105912380D01*
X148272404Y-105864761D02*
X148177166Y-105912380D01*
X147986690Y-105912380D01*
X147891452Y-105864761D01*
X147843833Y-105769523D01*
X147843833Y-105388571D01*
X147891452Y-105293333D01*
X147986690Y-105245714D01*
X148177166Y-105245714D01*
X148272404Y-105293333D01*
X148320023Y-105388571D01*
X148320023Y-105483809D01*
X147843833Y-105579047D01*
X149177166Y-105912380D02*
X149177166Y-104912380D01*
X149177166Y-105864761D02*
X149081928Y-105912380D01*
X148891452Y-105912380D01*
X148796214Y-105864761D01*
X148748595Y-105817142D01*
X148700976Y-105721904D01*
X148700976Y-105436190D01*
X148748595Y-105340952D01*
X148796214Y-105293333D01*
X148891452Y-105245714D01*
X149081928Y-105245714D01*
X149177166Y-105293333D01*
X150415261Y-105912380D02*
X150415261Y-104912380D01*
X150415261Y-105293333D02*
X150510500Y-105245714D01*
X150700976Y-105245714D01*
X150796214Y-105293333D01*
X150843833Y-105340952D01*
X150891452Y-105436190D01*
X150891452Y-105721904D01*
X150843833Y-105817142D01*
X150796214Y-105864761D01*
X150700976Y-105912380D01*
X150510500Y-105912380D01*
X150415261Y-105864761D01*
X151224785Y-105245714D02*
X151462880Y-105912380D01*
X151700976Y-105245714D02*
X151462880Y-105912380D01*
X151367642Y-106150476D01*
X151320023Y-106198095D01*
X151224785Y-106245714D01*
X152081928Y-105817142D02*
X152129547Y-105864761D01*
X152081928Y-105912380D01*
X152034309Y-105864761D01*
X152081928Y-105817142D01*
X152081928Y-105912380D01*
X152081928Y-105293333D02*
X152129547Y-105340952D01*
X152081928Y-105388571D01*
X152034309Y-105340952D01*
X152081928Y-105293333D01*
X152081928Y-105388571D01*
X143343833Y-107522380D02*
X143343833Y-106522380D01*
X143915261Y-107522380D02*
X143486690Y-106950952D01*
X143915261Y-106522380D02*
X143343833Y-107093809D01*
X144772404Y-106855714D02*
X144772404Y-107522380D01*
X144343833Y-106855714D02*
X144343833Y-107379523D01*
X144391452Y-107474761D01*
X144486690Y-107522380D01*
X144629547Y-107522380D01*
X144724785Y-107474761D01*
X144772404Y-107427142D01*
X145200976Y-107474761D02*
X145296214Y-107522380D01*
X145486690Y-107522380D01*
X145581928Y-107474761D01*
X145629547Y-107379523D01*
X145629547Y-107331904D01*
X145581928Y-107236666D01*
X145486690Y-107189047D01*
X145343833Y-107189047D01*
X145248595Y-107141428D01*
X145200976Y-107046190D01*
X145200976Y-106998571D01*
X145248595Y-106903333D01*
X145343833Y-106855714D01*
X145486690Y-106855714D01*
X145581928Y-106903333D01*
X146058119Y-107522380D02*
X146058119Y-106522380D01*
X146486690Y-107522380D02*
X146486690Y-106998571D01*
X146439071Y-106903333D01*
X146343833Y-106855714D01*
X146200976Y-106855714D01*
X146105738Y-106903333D01*
X146058119Y-106950952D01*
X147724785Y-107522380D02*
X147724785Y-106522380D01*
X148296214Y-107522380D01*
X148296214Y-106522380D01*
X149200976Y-107522380D02*
X149200976Y-106998571D01*
X149153357Y-106903333D01*
X149058119Y-106855714D01*
X148867642Y-106855714D01*
X148772404Y-106903333D01*
X149200976Y-107474761D02*
X149105738Y-107522380D01*
X148867642Y-107522380D01*
X148772404Y-107474761D01*
X148724785Y-107379523D01*
X148724785Y-107284285D01*
X148772404Y-107189047D01*
X148867642Y-107141428D01*
X149105738Y-107141428D01*
X149200976Y-107093809D01*
X149581928Y-106855714D02*
X149820023Y-107522380D01*
X150058119Y-106855714D02*
X149820023Y-107522380D01*
X149724785Y-107760476D01*
X149677166Y-107808095D01*
X149581928Y-107855714D01*
X150867642Y-107522380D02*
X150867642Y-106998571D01*
X150820023Y-106903333D01*
X150724785Y-106855714D01*
X150534309Y-106855714D01*
X150439071Y-106903333D01*
X150867642Y-107474761D02*
X150772404Y-107522380D01*
X150534309Y-107522380D01*
X150439071Y-107474761D01*
X150391452Y-107379523D01*
X150391452Y-107284285D01*
X150439071Y-107189047D01*
X150534309Y-107141428D01*
X150772404Y-107141428D01*
X150867642Y-107093809D01*
X151343833Y-107522380D02*
X151343833Y-106522380D01*
X151439071Y-107141428D02*
X151724785Y-107522380D01*
X151724785Y-106855714D02*
X151343833Y-107236666D01*
X129915261Y-108846666D02*
X130391452Y-108846666D01*
X129820023Y-109132380D02*
X130153357Y-108132380D01*
X130486690Y-109132380D01*
X130962880Y-109132380D02*
X130867642Y-109084761D01*
X130820023Y-108989523D01*
X130820023Y-108132380D01*
X131486690Y-109132380D02*
X131391452Y-109084761D01*
X131343833Y-108989523D01*
X131343833Y-108132380D01*
X132248595Y-109084761D02*
X132153357Y-109132380D01*
X131962880Y-109132380D01*
X131867642Y-109084761D01*
X131820023Y-108989523D01*
X131820023Y-108608571D01*
X131867642Y-108513333D01*
X131962880Y-108465714D01*
X132153357Y-108465714D01*
X132248595Y-108513333D01*
X132296214Y-108608571D01*
X132296214Y-108703809D01*
X131820023Y-108799047D01*
X132724785Y-108465714D02*
X132724785Y-109132380D01*
X132724785Y-108560952D02*
X132772404Y-108513333D01*
X132867642Y-108465714D01*
X133010500Y-108465714D01*
X133105738Y-108513333D01*
X133153357Y-108608571D01*
X133153357Y-109132380D01*
X134391452Y-109132380D02*
X134391452Y-108132380D01*
X134629547Y-108132380D01*
X134772404Y-108180000D01*
X134867642Y-108275238D01*
X134915261Y-108370476D01*
X134962880Y-108560952D01*
X134962880Y-108703809D01*
X134915261Y-108894285D01*
X134867642Y-108989523D01*
X134772404Y-109084761D01*
X134629547Y-109132380D01*
X134391452Y-109132380D01*
X135391452Y-109132380D02*
X135391452Y-108465714D01*
X135391452Y-108132380D02*
X135343833Y-108180000D01*
X135391452Y-108227619D01*
X135439071Y-108180000D01*
X135391452Y-108132380D01*
X135391452Y-108227619D01*
X135867642Y-108465714D02*
X135867642Y-109132380D01*
X135867642Y-108560952D02*
X135915261Y-108513333D01*
X136010500Y-108465714D01*
X136153357Y-108465714D01*
X136248595Y-108513333D01*
X136296214Y-108608571D01*
X136296214Y-109132380D01*
X137200976Y-108465714D02*
X137200976Y-109275238D01*
X137153357Y-109370476D01*
X137105738Y-109418095D01*
X137010500Y-109465714D01*
X136867642Y-109465714D01*
X136772404Y-109418095D01*
X137200976Y-109084761D02*
X137105738Y-109132380D01*
X136915261Y-109132380D01*
X136820023Y-109084761D01*
X136772404Y-109037142D01*
X136724785Y-108941904D01*
X136724785Y-108656190D01*
X136772404Y-108560952D01*
X136820023Y-108513333D01*
X136915261Y-108465714D01*
X137105738Y-108465714D01*
X137200976Y-108513333D01*
X137724785Y-109084761D02*
X137724785Y-109132380D01*
X137677166Y-109227619D01*
X137629547Y-109275238D01*
X139439071Y-108180000D02*
X139343833Y-108132380D01*
X139200976Y-108132380D01*
X139058119Y-108180000D01*
X138962880Y-108275238D01*
X138915261Y-108370476D01*
X138867642Y-108560952D01*
X138867642Y-108703809D01*
X138915261Y-108894285D01*
X138962880Y-108989523D01*
X139058119Y-109084761D01*
X139200976Y-109132380D01*
X139296214Y-109132380D01*
X139439071Y-109084761D01*
X139486690Y-109037142D01*
X139486690Y-108703809D01*
X139296214Y-108703809D01*
X140343833Y-109132380D02*
X140343833Y-108608571D01*
X140296214Y-108513333D01*
X140200976Y-108465714D01*
X140010500Y-108465714D01*
X139915261Y-108513333D01*
X140343833Y-109084761D02*
X140248595Y-109132380D01*
X140010500Y-109132380D01*
X139915261Y-109084761D01*
X139867642Y-108989523D01*
X139867642Y-108894285D01*
X139915261Y-108799047D01*
X140010500Y-108751428D01*
X140248595Y-108751428D01*
X140343833Y-108703809D01*
X141248595Y-108465714D02*
X141248595Y-109132380D01*
X140820023Y-108465714D02*
X140820023Y-108989523D01*
X140867642Y-109084761D01*
X140962880Y-109132380D01*
X141105738Y-109132380D01*
X141200976Y-109084761D01*
X141248595Y-109037142D01*
X141724785Y-109132380D02*
X141724785Y-108465714D01*
X141724785Y-108656190D02*
X141772404Y-108560952D01*
X141820023Y-108513333D01*
X141915261Y-108465714D01*
X142010500Y-108465714D01*
X142772404Y-109132380D02*
X142772404Y-108608571D01*
X142724785Y-108513333D01*
X142629547Y-108465714D01*
X142439071Y-108465714D01*
X142343833Y-108513333D01*
X142772404Y-109084761D02*
X142677166Y-109132380D01*
X142439071Y-109132380D01*
X142343833Y-109084761D01*
X142296214Y-108989523D01*
X142296214Y-108894285D01*
X142343833Y-108799047D01*
X142439071Y-108751428D01*
X142677166Y-108751428D01*
X142772404Y-108703809D01*
X143153357Y-108465714D02*
X143391452Y-109132380D01*
X143629547Y-108465714D01*
X145296214Y-108180000D02*
X145200976Y-108132380D01*
X145058119Y-108132380D01*
X144915261Y-108180000D01*
X144820023Y-108275238D01*
X144772404Y-108370476D01*
X144724785Y-108560952D01*
X144724785Y-108703809D01*
X144772404Y-108894285D01*
X144820023Y-108989523D01*
X144915261Y-109084761D01*
X145058119Y-109132380D01*
X145153357Y-109132380D01*
X145296214Y-109084761D01*
X145343833Y-109037142D01*
X145343833Y-108703809D01*
X145153357Y-108703809D01*
X146200976Y-108465714D02*
X146200976Y-109132380D01*
X145772404Y-108465714D02*
X145772404Y-108989523D01*
X145820023Y-109084761D01*
X145915261Y-109132380D01*
X146058119Y-109132380D01*
X146153357Y-109084761D01*
X146200976Y-109037142D01*
X146677166Y-108465714D02*
X146677166Y-109465714D01*
X146677166Y-108513333D02*
X146772404Y-108465714D01*
X146962880Y-108465714D01*
X147058119Y-108513333D01*
X147105738Y-108560952D01*
X147153357Y-108656190D01*
X147153357Y-108941904D01*
X147105738Y-109037142D01*
X147058119Y-109084761D01*
X146962880Y-109132380D01*
X146772404Y-109132380D01*
X146677166Y-109084761D01*
X147439071Y-108465714D02*
X147820023Y-108465714D01*
X147581928Y-108132380D02*
X147581928Y-108989523D01*
X147629547Y-109084761D01*
X147724785Y-109132380D01*
X147820023Y-109132380D01*
X148581928Y-109132380D02*
X148581928Y-108608571D01*
X148534309Y-108513333D01*
X148439071Y-108465714D01*
X148248595Y-108465714D01*
X148153357Y-108513333D01*
X148581928Y-109084761D02*
X148486690Y-109132380D01*
X148248595Y-109132380D01*
X148153357Y-109084761D01*
X148105738Y-108989523D01*
X148105738Y-108894285D01*
X148153357Y-108799047D01*
X148248595Y-108751428D01*
X148486690Y-108751428D01*
X148581928Y-108703809D01*
X149105738Y-109084761D02*
X149105738Y-109132380D01*
X149058119Y-109227619D01*
X149010500Y-109275238D01*
X150867642Y-109132380D02*
X150534309Y-108656190D01*
X150296214Y-109132380D02*
X150296214Y-108132380D01*
X150677166Y-108132380D01*
X150772404Y-108180000D01*
X150820023Y-108227619D01*
X150867642Y-108322857D01*
X150867642Y-108465714D01*
X150820023Y-108560952D01*
X150772404Y-108608571D01*
X150677166Y-108656190D01*
X150296214Y-108656190D01*
X151724785Y-109132380D02*
X151724785Y-108608571D01*
X151677166Y-108513333D01*
X151581928Y-108465714D01*
X151391452Y-108465714D01*
X151296214Y-108513333D01*
X151724785Y-109084761D02*
X151629547Y-109132380D01*
X151391452Y-109132380D01*
X151296214Y-109084761D01*
X151248595Y-108989523D01*
X151248595Y-108894285D01*
X151296214Y-108799047D01*
X151391452Y-108751428D01*
X151629547Y-108751428D01*
X151724785Y-108703809D01*
X152629547Y-108465714D02*
X152629547Y-109275238D01*
X152581928Y-109370476D01*
X152534309Y-109418095D01*
X152439071Y-109465714D01*
X152296214Y-109465714D01*
X152200976Y-109418095D01*
X152629547Y-109084761D02*
X152534309Y-109132380D01*
X152343833Y-109132380D01*
X152248595Y-109084761D01*
X152200976Y-109037142D01*
X152153357Y-108941904D01*
X152153357Y-108656190D01*
X152200976Y-108560952D01*
X152248595Y-108513333D01*
X152343833Y-108465714D01*
X152534309Y-108465714D01*
X152629547Y-108513333D01*
X153105738Y-109132380D02*
X153105738Y-108132380D01*
X153534309Y-109132380D02*
X153534309Y-108608571D01*
X153486690Y-108513333D01*
X153391452Y-108465714D01*
X153248595Y-108465714D01*
X153153357Y-108513333D01*
X153105738Y-108560952D01*
X154439071Y-109132380D02*
X154439071Y-108608571D01*
X154391452Y-108513333D01*
X154296214Y-108465714D01*
X154105738Y-108465714D01*
X154010500Y-108513333D01*
X154439071Y-109084761D02*
X154343833Y-109132380D01*
X154105738Y-109132380D01*
X154010500Y-109084761D01*
X153962880Y-108989523D01*
X153962880Y-108894285D01*
X154010500Y-108799047D01*
X154105738Y-108751428D01*
X154343833Y-108751428D01*
X154439071Y-108703809D01*
X154820023Y-108465714D02*
X155058119Y-109132380D01*
X155296214Y-108465714D01*
X156439071Y-109132380D02*
X156439071Y-108132380D01*
X156820023Y-108132380D01*
X156915261Y-108180000D01*
X156962880Y-108227619D01*
X157010500Y-108322857D01*
X157010500Y-108465714D01*
X156962880Y-108560952D01*
X156915261Y-108608571D01*
X156820023Y-108656190D01*
X156439071Y-108656190D01*
X157581928Y-109132380D02*
X157486690Y-109084761D01*
X157439071Y-109037142D01*
X157391452Y-108941904D01*
X157391452Y-108656190D01*
X157439071Y-108560952D01*
X157486690Y-108513333D01*
X157581928Y-108465714D01*
X157724785Y-108465714D01*
X157820023Y-108513333D01*
X157867642Y-108560952D01*
X157915261Y-108656190D01*
X157915261Y-108941904D01*
X157867642Y-109037142D01*
X157820023Y-109084761D01*
X157724785Y-109132380D01*
X157581928Y-109132380D01*
X158200976Y-108465714D02*
X158581928Y-108465714D01*
X158343833Y-108132380D02*
X158343833Y-108989523D01*
X158391452Y-109084761D01*
X158486690Y-109132380D01*
X158581928Y-109132380D01*
X158772404Y-108465714D02*
X159153357Y-108465714D01*
X158915261Y-108132380D02*
X158915261Y-108989523D01*
X158962880Y-109084761D01*
X159058119Y-109132380D01*
X159153357Y-109132380D01*
X159915261Y-109132380D02*
X159915261Y-108608571D01*
X159867642Y-108513333D01*
X159772404Y-108465714D01*
X159581928Y-108465714D01*
X159486690Y-108513333D01*
X159915261Y-109084761D02*
X159820023Y-109132380D01*
X159581928Y-109132380D01*
X159486690Y-109084761D01*
X159439071Y-108989523D01*
X159439071Y-108894285D01*
X159486690Y-108799047D01*
X159581928Y-108751428D01*
X159820023Y-108751428D01*
X159915261Y-108703809D01*
X160391452Y-109132380D02*
X160391452Y-108132380D01*
X160391452Y-108513333D02*
X160486690Y-108465714D01*
X160677166Y-108465714D01*
X160772404Y-108513333D01*
X160820023Y-108560952D01*
X160867642Y-108656190D01*
X160867642Y-108941904D01*
X160820023Y-109037142D01*
X160772404Y-109084761D01*
X160677166Y-109132380D01*
X160486690Y-109132380D01*
X160391452Y-109084761D01*
X161724785Y-109132380D02*
X161724785Y-108608571D01*
X161677166Y-108513333D01*
X161581928Y-108465714D01*
X161391452Y-108465714D01*
X161296214Y-108513333D01*
X161724785Y-109084761D02*
X161629547Y-109132380D01*
X161391452Y-109132380D01*
X161296214Y-109084761D01*
X161248595Y-108989523D01*
X161248595Y-108894285D01*
X161296214Y-108799047D01*
X161391452Y-108751428D01*
X161629547Y-108751428D01*
X161724785Y-108703809D01*
X162058119Y-108465714D02*
X162439071Y-108465714D01*
X162200976Y-108132380D02*
X162200976Y-108989523D01*
X162248595Y-109084761D01*
X162343833Y-109132380D01*
X162439071Y-109132380D01*
X162772404Y-109132380D02*
X162772404Y-108132380D01*
X163200976Y-109132380D02*
X163200976Y-108608571D01*
X163153357Y-108513333D01*
X163058119Y-108465714D01*
X162915261Y-108465714D01*
X162820023Y-108513333D01*
X162772404Y-108560952D01*
X163677166Y-109132380D02*
X163677166Y-108465714D01*
X163677166Y-108132380D02*
X163629547Y-108180000D01*
X163677166Y-108227619D01*
X163724785Y-108180000D01*
X163677166Y-108132380D01*
X163677166Y-108227619D01*
X164153357Y-108465714D02*
X164153357Y-109132380D01*
X164153357Y-108560952D02*
X164200976Y-108513333D01*
X164296214Y-108465714D01*
X164439071Y-108465714D01*
X164534309Y-108513333D01*
X164581928Y-108608571D01*
X164581928Y-109132380D01*
X165058119Y-109132380D02*
X165058119Y-108465714D01*
X165058119Y-108132380D02*
X165010500Y-108180000D01*
X165058119Y-108227619D01*
X165105738Y-108180000D01*
X165058119Y-108132380D01*
X165058119Y-108227619D01*
%TO.C,J13*%
X146810476Y-52852380D02*
X146810476Y-53566666D01*
X146762857Y-53709523D01*
X146667619Y-53804761D01*
X146524761Y-53852380D01*
X146429523Y-53852380D01*
X147810476Y-53852380D02*
X147239047Y-53852380D01*
X147524761Y-53852380D02*
X147524761Y-52852380D01*
X147429523Y-52995238D01*
X147334285Y-53090476D01*
X147239047Y-53138095D01*
X148143809Y-52852380D02*
X148762857Y-52852380D01*
X148429523Y-53233333D01*
X148572380Y-53233333D01*
X148667619Y-53280952D01*
X148715238Y-53328571D01*
X148762857Y-53423809D01*
X148762857Y-53661904D01*
X148715238Y-53757142D01*
X148667619Y-53804761D01*
X148572380Y-53852380D01*
X148286666Y-53852380D01*
X148191428Y-53804761D01*
X148143809Y-53757142D01*
%TO.C,C1*%
X142327333Y-132873142D02*
X142279714Y-132920761D01*
X142136857Y-132968380D01*
X142041619Y-132968380D01*
X141898761Y-132920761D01*
X141803523Y-132825523D01*
X141755904Y-132730285D01*
X141708285Y-132539809D01*
X141708285Y-132396952D01*
X141755904Y-132206476D01*
X141803523Y-132111238D01*
X141898761Y-132016000D01*
X142041619Y-131968380D01*
X142136857Y-131968380D01*
X142279714Y-132016000D01*
X142327333Y-132063619D01*
X143279714Y-132968380D02*
X142708285Y-132968380D01*
X142994000Y-132968380D02*
X142994000Y-131968380D01*
X142898761Y-132111238D01*
X142803523Y-132206476D01*
X142708285Y-132254095D01*
%TO.C,R5*%
X144048380Y-62050666D02*
X143572190Y-62384000D01*
X144048380Y-62622095D02*
X143048380Y-62622095D01*
X143048380Y-62241142D01*
X143096000Y-62145904D01*
X143143619Y-62098285D01*
X143238857Y-62050666D01*
X143381714Y-62050666D01*
X143476952Y-62098285D01*
X143524571Y-62145904D01*
X143572190Y-62241142D01*
X143572190Y-62622095D01*
X143048380Y-61145904D02*
X143048380Y-61622095D01*
X143524571Y-61669714D01*
X143476952Y-61622095D01*
X143429333Y-61526857D01*
X143429333Y-61288761D01*
X143476952Y-61193523D01*
X143524571Y-61145904D01*
X143619809Y-61098285D01*
X143857904Y-61098285D01*
X143953142Y-61145904D01*
X144000761Y-61193523D01*
X144048380Y-61288761D01*
X144048380Y-61526857D01*
X144000761Y-61622095D01*
X143953142Y-61669714D01*
%TO.C,R2*%
X158618380Y-140430666D02*
X158142190Y-140764000D01*
X158618380Y-141002095D02*
X157618380Y-141002095D01*
X157618380Y-140621142D01*
X157666000Y-140525904D01*
X157713619Y-140478285D01*
X157808857Y-140430666D01*
X157951714Y-140430666D01*
X158046952Y-140478285D01*
X158094571Y-140525904D01*
X158142190Y-140621142D01*
X158142190Y-141002095D01*
X157713619Y-140049714D02*
X157666000Y-140002095D01*
X157618380Y-139906857D01*
X157618380Y-139668761D01*
X157666000Y-139573523D01*
X157713619Y-139525904D01*
X157808857Y-139478285D01*
X157904095Y-139478285D01*
X158046952Y-139525904D01*
X158618380Y-140097333D01*
X158618380Y-139478285D01*
%TO.C,C4*%
X149680142Y-137580666D02*
X149727761Y-137628285D01*
X149775380Y-137771142D01*
X149775380Y-137866380D01*
X149727761Y-138009238D01*
X149632523Y-138104476D01*
X149537285Y-138152095D01*
X149346809Y-138199714D01*
X149203952Y-138199714D01*
X149013476Y-138152095D01*
X148918238Y-138104476D01*
X148823000Y-138009238D01*
X148775380Y-137866380D01*
X148775380Y-137771142D01*
X148823000Y-137628285D01*
X148870619Y-137580666D01*
X149108714Y-136723523D02*
X149775380Y-136723523D01*
X148727761Y-136961619D02*
X149442047Y-137199714D01*
X149442047Y-136580666D01*
%TO.C,C3*%
X135843142Y-137668166D02*
X135890761Y-137715785D01*
X135938380Y-137858642D01*
X135938380Y-137953880D01*
X135890761Y-138096738D01*
X135795523Y-138191976D01*
X135700285Y-138239595D01*
X135509809Y-138287214D01*
X135366952Y-138287214D01*
X135176476Y-138239595D01*
X135081238Y-138191976D01*
X134986000Y-138096738D01*
X134938380Y-137953880D01*
X134938380Y-137858642D01*
X134986000Y-137715785D01*
X135033619Y-137668166D01*
X134938380Y-137334833D02*
X134938380Y-136715785D01*
X135319333Y-137049119D01*
X135319333Y-136906261D01*
X135366952Y-136811023D01*
X135414571Y-136763404D01*
X135509809Y-136715785D01*
X135747904Y-136715785D01*
X135843142Y-136763404D01*
X135890761Y-136811023D01*
X135938380Y-136906261D01*
X135938380Y-137191976D01*
X135890761Y-137287214D01*
X135843142Y-137334833D01*
%TO.C,R3*%
X147618380Y-140430666D02*
X147142190Y-140764000D01*
X147618380Y-141002095D02*
X146618380Y-141002095D01*
X146618380Y-140621142D01*
X146666000Y-140525904D01*
X146713619Y-140478285D01*
X146808857Y-140430666D01*
X146951714Y-140430666D01*
X147046952Y-140478285D01*
X147094571Y-140525904D01*
X147142190Y-140621142D01*
X147142190Y-141002095D01*
X146618380Y-140097333D02*
X146618380Y-139478285D01*
X146999333Y-139811619D01*
X146999333Y-139668761D01*
X147046952Y-139573523D01*
X147094571Y-139525904D01*
X147189809Y-139478285D01*
X147427904Y-139478285D01*
X147523142Y-139525904D01*
X147570761Y-139573523D01*
X147618380Y-139668761D01*
X147618380Y-139954476D01*
X147570761Y-140049714D01*
X147523142Y-140097333D01*
%TO.C,R6*%
X148623333Y-78302380D02*
X148290000Y-77826190D01*
X148051904Y-78302380D02*
X148051904Y-77302380D01*
X148432857Y-77302380D01*
X148528095Y-77350000D01*
X148575714Y-77397619D01*
X148623333Y-77492857D01*
X148623333Y-77635714D01*
X148575714Y-77730952D01*
X148528095Y-77778571D01*
X148432857Y-77826190D01*
X148051904Y-77826190D01*
X149480476Y-77302380D02*
X149290000Y-77302380D01*
X149194761Y-77350000D01*
X149147142Y-77397619D01*
X149051904Y-77540476D01*
X149004285Y-77730952D01*
X149004285Y-78111904D01*
X149051904Y-78207142D01*
X149099523Y-78254761D01*
X149194761Y-78302380D01*
X149385238Y-78302380D01*
X149480476Y-78254761D01*
X149528095Y-78207142D01*
X149575714Y-78111904D01*
X149575714Y-77873809D01*
X149528095Y-77778571D01*
X149480476Y-77730952D01*
X149385238Y-77683333D01*
X149194761Y-77683333D01*
X149099523Y-77730952D01*
X149051904Y-77778571D01*
X149004285Y-77873809D01*
%TO.C,R4*%
X162918380Y-137580666D02*
X162442190Y-137914000D01*
X162918380Y-138152095D02*
X161918380Y-138152095D01*
X161918380Y-137771142D01*
X161966000Y-137675904D01*
X162013619Y-137628285D01*
X162108857Y-137580666D01*
X162251714Y-137580666D01*
X162346952Y-137628285D01*
X162394571Y-137675904D01*
X162442190Y-137771142D01*
X162442190Y-138152095D01*
X162251714Y-136723523D02*
X162918380Y-136723523D01*
X161870761Y-136961619D02*
X162585047Y-137199714D01*
X162585047Y-136580666D01*
%TO.C,U4*%
X153102380Y-69351904D02*
X153911904Y-69351904D01*
X154007142Y-69304285D01*
X154054761Y-69256666D01*
X154102380Y-69161428D01*
X154102380Y-68970952D01*
X154054761Y-68875714D01*
X154007142Y-68828095D01*
X153911904Y-68780476D01*
X153102380Y-68780476D01*
X153435714Y-67875714D02*
X154102380Y-67875714D01*
X153054761Y-68113809D02*
X153769047Y-68351904D01*
X153769047Y-67732857D01*
%TO.C,C2*%
X149693333Y-134977142D02*
X149645714Y-135024761D01*
X149502857Y-135072380D01*
X149407619Y-135072380D01*
X149264761Y-135024761D01*
X149169523Y-134929523D01*
X149121904Y-134834285D01*
X149074285Y-134643809D01*
X149074285Y-134500952D01*
X149121904Y-134310476D01*
X149169523Y-134215238D01*
X149264761Y-134120000D01*
X149407619Y-134072380D01*
X149502857Y-134072380D01*
X149645714Y-134120000D01*
X149693333Y-134167619D01*
X150074285Y-134167619D02*
X150121904Y-134120000D01*
X150217142Y-134072380D01*
X150455238Y-134072380D01*
X150550476Y-134120000D01*
X150598095Y-134167619D01*
X150645714Y-134262857D01*
X150645714Y-134358095D01*
X150598095Y-134500952D01*
X150026666Y-135072380D01*
X150645714Y-135072380D01*
%TO.C,R1*%
X144818380Y-140430666D02*
X144342190Y-140764000D01*
X144818380Y-141002095D02*
X143818380Y-141002095D01*
X143818380Y-140621142D01*
X143866000Y-140525904D01*
X143913619Y-140478285D01*
X144008857Y-140430666D01*
X144151714Y-140430666D01*
X144246952Y-140478285D01*
X144294571Y-140525904D01*
X144342190Y-140621142D01*
X144342190Y-141002095D01*
X144818380Y-139478285D02*
X144818380Y-140049714D01*
X144818380Y-139764000D02*
X143818380Y-139764000D01*
X143961238Y-139859238D01*
X144056476Y-139954476D01*
X144104095Y-140049714D01*
D13*
%TO.C,J13*%
X144635000Y-57660000D02*
X144635000Y-59260000D01*
X150605000Y-59260000D02*
X148805000Y-59260000D01*
X145905000Y-54790000D02*
X149335000Y-54790000D01*
X144635000Y-59260000D02*
X146435000Y-59260000D01*
X150605000Y-57660000D02*
X150605000Y-59260000D01*
X146435000Y-59260000D02*
X146435000Y-60200000D01*
%TO.C,C1*%
X139580252Y-134339000D02*
X139057748Y-134339000D01*
X139580252Y-132869000D02*
X139057748Y-132869000D01*
%TO.C,R5*%
X145928936Y-61219000D02*
X146383064Y-61219000D01*
X145928936Y-62689000D02*
X146383064Y-62689000D01*
%TO.C,U3*%
X152618000Y-135600000D02*
X152768000Y-135600000D01*
X155738000Y-137160000D02*
X155738000Y-138720000D01*
X152618000Y-135600000D02*
X152618000Y-138720000D01*
X152618000Y-138720000D02*
X152768000Y-138720000D01*
X155738000Y-138720000D02*
X155588000Y-138720000D01*
%TO.C,J9*%
X158413000Y-145764600D02*
X158413000Y-144314600D01*
X149943000Y-144314600D02*
X151743000Y-144314600D01*
X151213000Y-148584600D02*
X157143000Y-148584600D01*
X158413000Y-144314600D02*
X156613000Y-144314600D01*
X151743000Y-144314600D02*
X151743000Y-143324600D01*
X149943000Y-145764600D02*
X149943000Y-144314600D01*
%TO.C,J4*%
X166122000Y-78637000D02*
X167722000Y-78637000D01*
X167722000Y-76837000D02*
X168662000Y-76837000D01*
X166122000Y-67667000D02*
X167722000Y-67667000D01*
X163252000Y-77367000D02*
X163252000Y-68937000D01*
X167722000Y-78637000D02*
X167722000Y-76837000D01*
X167722000Y-67667000D02*
X167722000Y-69467000D01*
%TO.C,J6*%
X167722000Y-123849000D02*
X167722000Y-122049000D01*
X166122000Y-112879000D02*
X167722000Y-112879000D01*
X167722000Y-122049000D02*
X168662000Y-122049000D01*
X167722000Y-112879000D02*
X167722000Y-114679000D01*
X166122000Y-123849000D02*
X167722000Y-123849000D01*
X163252000Y-122579000D02*
X163252000Y-114149000D01*
%TO.C,R2*%
X161517000Y-137641064D02*
X161517000Y-137186936D01*
X160047000Y-137641064D02*
X160047000Y-137186936D01*
%TO.C,J7*%
X126918000Y-69467000D02*
X125978000Y-69467000D01*
X131388000Y-68937000D02*
X131388000Y-77367000D01*
X126918000Y-67667000D02*
X126918000Y-69467000D01*
X128518000Y-67667000D02*
X126918000Y-67667000D01*
X128518000Y-78637000D02*
X126918000Y-78637000D01*
X126918000Y-78637000D02*
X126918000Y-76837000D01*
%TO.C,C4*%
X151738000Y-137675252D02*
X151738000Y-137152748D01*
X150268000Y-137675252D02*
X150268000Y-137152748D01*
%TO.C,C3*%
X137901000Y-137762752D02*
X137901000Y-137240248D01*
X136431000Y-137762752D02*
X136431000Y-137240248D01*
%TO.C,J3*%
X137534200Y-54971000D02*
X131604200Y-54971000D01*
X138804200Y-57791000D02*
X138804200Y-59241000D01*
X138804200Y-59241000D02*
X137004200Y-59241000D01*
X137004200Y-59241000D02*
X137004200Y-60231000D01*
X130334200Y-59241000D02*
X132134200Y-59241000D01*
X130334200Y-57791000D02*
X130334200Y-59241000D01*
%TO.C,J12*%
X162925000Y-55470000D02*
X161075000Y-55470000D01*
X158705000Y-55470000D02*
X158705000Y-54680000D01*
X156855000Y-57120000D02*
X156855000Y-55470000D01*
X156855000Y-55470000D02*
X158705000Y-55470000D01*
X162925000Y-57120000D02*
X162925000Y-55470000D01*
X158175000Y-60090000D02*
X161605000Y-60090000D01*
%TO.C,J11*%
X138027000Y-144314600D02*
X138027000Y-143324600D01*
X144697000Y-145764600D02*
X144697000Y-144314600D01*
X137497000Y-148584600D02*
X143427000Y-148584600D01*
X136227000Y-145764600D02*
X136227000Y-144314600D01*
X136227000Y-144314600D02*
X138027000Y-144314600D01*
X144697000Y-144314600D02*
X142897000Y-144314600D01*
%TO.C,R3*%
X143537000Y-137186936D02*
X143537000Y-137641064D01*
X145007000Y-137186936D02*
X145007000Y-137641064D01*
%TO.C,R6*%
X149017064Y-75465000D02*
X148562936Y-75465000D01*
X149017064Y-76935000D02*
X148562936Y-76935000D01*
%TO.C,R4*%
X157253000Y-137186936D02*
X157253000Y-137641064D01*
X158723000Y-137186936D02*
X158723000Y-137641064D01*
%TO.C,J10*%
X163786000Y-145764600D02*
X163786000Y-144314600D01*
X172256000Y-145764600D02*
X172256000Y-144314600D01*
X165586000Y-144314600D02*
X165586000Y-143324600D01*
X163786000Y-144314600D02*
X165586000Y-144314600D01*
X165056000Y-148584600D02*
X170986000Y-148584600D01*
X172256000Y-144314600D02*
X170456000Y-144314600D01*
%TO.C,J2*%
X128716000Y-112879000D02*
X127116000Y-112879000D01*
X128716000Y-123849000D02*
X127116000Y-123849000D01*
X127116000Y-123849000D02*
X127116000Y-122049000D01*
X127116000Y-112879000D02*
X127116000Y-114679000D01*
X127116000Y-114679000D02*
X126176000Y-114679000D01*
X131586000Y-114149000D02*
X131586000Y-122579000D01*
%TO.C,U2*%
X142022000Y-137160000D02*
X142022000Y-138720000D01*
X138902000Y-135600000D02*
X139052000Y-135600000D01*
X138902000Y-135600000D02*
X138902000Y-138720000D01*
X138902000Y-138720000D02*
X139052000Y-138720000D01*
X142022000Y-138720000D02*
X141872000Y-138720000D01*
%TO.C,J5*%
X166122000Y-90019000D02*
X167722000Y-90019000D01*
X163252000Y-99719000D02*
X163252000Y-91289000D01*
X167722000Y-99189000D02*
X168662000Y-99189000D01*
X167722000Y-90019000D02*
X167722000Y-91819000D01*
X167722000Y-100989000D02*
X167722000Y-99189000D01*
X166122000Y-100989000D02*
X167722000Y-100989000D01*
%TO.C,J15*%
X142310000Y-114960000D02*
X155070000Y-114960000D01*
X139710000Y-112300000D02*
X141040000Y-112300000D01*
X142310000Y-112300000D02*
X155070000Y-112300000D01*
X142310000Y-114960000D02*
X142310000Y-112300000D01*
X155070000Y-114960000D02*
X155070000Y-112300000D01*
X139710000Y-113630000D02*
X139710000Y-112300000D01*
%TO.C,U4*%
X152650000Y-67590000D02*
G75*
G03*
X152650000Y-69590000I0J-1000000D01*
G01*
X152650000Y-71240000D02*
X152650000Y-69590000D01*
X152650000Y-67590000D02*
X152650000Y-65940000D01*
X142370000Y-65940000D02*
X142370000Y-71240000D01*
X142370000Y-71240000D02*
X152650000Y-71240000D01*
X152650000Y-65940000D02*
X142370000Y-65940000D01*
%TO.C,C2*%
X153296252Y-134339000D02*
X152773748Y-134339000D01*
X153296252Y-132869000D02*
X152773748Y-132869000D01*
%TO.C,R1*%
X147801000Y-137641064D02*
X147801000Y-137186936D01*
X146331000Y-137641064D02*
X146331000Y-137186936D01*
%TO.C,J14*%
X142310000Y-127660000D02*
X155070000Y-127660000D01*
X139710000Y-126330000D02*
X139710000Y-125000000D01*
X155070000Y-127660000D02*
X155070000Y-125000000D01*
X142310000Y-127660000D02*
X142310000Y-125000000D01*
X139710000Y-125000000D02*
X141040000Y-125000000D01*
X142310000Y-125000000D02*
X155070000Y-125000000D01*
%TO.C,J8*%
X124311000Y-144314600D02*
X124311000Y-143324600D01*
X122511000Y-144314600D02*
X124311000Y-144314600D01*
X123781000Y-148584600D02*
X129711000Y-148584600D01*
X130981000Y-145764600D02*
X130981000Y-144314600D01*
X122511000Y-145764600D02*
X122511000Y-144314600D01*
X130981000Y-144314600D02*
X129181000Y-144314600D01*
%TO.C,J1*%
X126918000Y-91194000D02*
X125978000Y-91194000D01*
X131388000Y-90664000D02*
X131388000Y-100344000D01*
X128518000Y-89394000D02*
X126918000Y-89394000D01*
X128518000Y-101614000D02*
X126918000Y-101614000D01*
X126918000Y-89394000D02*
X126918000Y-91194000D01*
X126918000Y-101614000D02*
X126918000Y-99814000D01*
%TD*%
M02*
