%TF.GenerationSoftware,KiCad,Pcbnew,(6.0.1-0)*%
%TF.CreationDate,2023-01-01T10:50:50-08:00*%
%TF.ProjectId,nucleo_144_hat,6e75636c-656f-45f3-9134-345f6861742e,rev?*%
%TF.SameCoordinates,Original*%
%TF.FileFunction,Paste,Top*%
%TF.FilePolarity,Positive*%
%FSLAX46Y46*%
G04 Gerber Fmt 4.6, Leading zero omitted, Abs format (unit mm)*
G04 Created by KiCad (PCBNEW (6.0.1-0)) date 2023-01-01 10:50:50*
%MOMM*%
%LPD*%
G01*
G04 APERTURE LIST*
G04 Aperture macros list*
%AMRoundRect*
0 Rectangle with rounded corners*
0 $1 Rounding radius*
0 $2 $3 $4 $5 $6 $7 $8 $9 X,Y pos of 4 corners*
0 Add a 4 corners polygon primitive as box body*
4,1,4,$2,$3,$4,$5,$6,$7,$8,$9,$2,$3,0*
0 Add four circle primitives for the rounded corners*
1,1,$1+$1,$2,$3*
1,1,$1+$1,$4,$5*
1,1,$1+$1,$6,$7*
1,1,$1+$1,$8,$9*
0 Add four rect primitives between the rounded corners*
20,1,$1+$1,$2,$3,$4,$5,0*
20,1,$1+$1,$4,$5,$6,$7,0*
20,1,$1+$1,$6,$7,$8,$9,0*
20,1,$1+$1,$8,$9,$2,$3,0*%
G04 Aperture macros list end*
%ADD10RoundRect,0.150000X-0.150000X-0.700000X0.150000X-0.700000X0.150000X0.700000X-0.150000X0.700000X0*%
%ADD11RoundRect,0.250000X-0.250000X-1.150000X0.250000X-1.150000X0.250000X1.150000X-0.250000X1.150000X0*%
%ADD12RoundRect,0.250000X0.337500X0.475000X-0.337500X0.475000X-0.337500X-0.475000X0.337500X-0.475000X0*%
%ADD13RoundRect,0.250000X-0.350000X-0.450000X0.350000X-0.450000X0.350000X0.450000X-0.350000X0.450000X0*%
%ADD14R,1.000000X0.600000*%
%ADD15R,0.350000X0.650000*%
%ADD16RoundRect,0.250000X-0.250000X-1.100000X0.250000X-1.100000X0.250000X1.100000X-0.250000X1.100000X0*%
%ADD17RoundRect,0.150000X0.700000X-0.150000X0.700000X0.150000X-0.700000X0.150000X-0.700000X-0.150000X0*%
%ADD18RoundRect,0.250000X1.150000X-0.250000X1.150000X0.250000X-1.150000X0.250000X-1.150000X-0.250000X0*%
%ADD19RoundRect,0.250000X0.450000X-0.350000X0.450000X0.350000X-0.450000X0.350000X-0.450000X-0.350000X0*%
%ADD20RoundRect,0.150000X-0.700000X0.150000X-0.700000X-0.150000X0.700000X-0.150000X0.700000X0.150000X0*%
%ADD21RoundRect,0.250000X-1.150000X0.250000X-1.150000X-0.250000X1.150000X-0.250000X1.150000X0.250000X0*%
%ADD22RoundRect,0.250000X0.475000X-0.337500X0.475000X0.337500X-0.475000X0.337500X-0.475000X-0.337500X0*%
%ADD23RoundRect,0.150000X0.150000X0.700000X-0.150000X0.700000X-0.150000X-0.700000X0.150000X-0.700000X0*%
%ADD24RoundRect,0.250000X0.250000X1.100000X-0.250000X1.100000X-0.250000X-1.100000X0.250000X-1.100000X0*%
%ADD25RoundRect,0.250000X-0.450000X0.350000X-0.450000X-0.350000X0.450000X-0.350000X0.450000X0.350000X0*%
%ADD26RoundRect,0.250000X0.350000X0.450000X-0.350000X0.450000X-0.350000X-0.450000X0.350000X-0.450000X0*%
G04 APERTURE END LIST*
D10*
%TO.C,J13*%
X146995000Y-59350000D03*
X148245000Y-59350000D03*
D11*
X145145000Y-56000000D03*
X150095000Y-56000000D03*
%TD*%
D12*
%TO.C,C1*%
X140356500Y-133604000D03*
X138281500Y-133604000D03*
%TD*%
D13*
%TO.C,R5*%
X147156000Y-61954000D03*
X145156000Y-61954000D03*
%TD*%
D14*
%TO.C,U3*%
X154778000Y-136772500D03*
X153578000Y-136772500D03*
X154778000Y-137547500D03*
X153578000Y-137547500D03*
D15*
X155153000Y-135610000D03*
X154503000Y-135610000D03*
X153853000Y-135610000D03*
X153203000Y-135610000D03*
X153203000Y-138710000D03*
X153853000Y-138710000D03*
X154503000Y-138710000D03*
X155153000Y-138710000D03*
%TD*%
D10*
%TO.C,J9*%
X152303000Y-144174600D03*
X153553000Y-144174600D03*
X154803000Y-144174600D03*
X156053000Y-144174600D03*
D16*
X150453000Y-147374600D03*
X157903000Y-147374600D03*
%TD*%
D17*
%TO.C,J4*%
X167812000Y-76277000D03*
X167812000Y-75027000D03*
X167812000Y-73777000D03*
X167812000Y-72527000D03*
X167812000Y-71277000D03*
X167812000Y-70027000D03*
D18*
X164462000Y-78127000D03*
X164462000Y-68177000D03*
%TD*%
D17*
%TO.C,J6*%
X167812000Y-121489000D03*
X167812000Y-120239000D03*
X167812000Y-118989000D03*
X167812000Y-117739000D03*
X167812000Y-116489000D03*
X167812000Y-115239000D03*
D18*
X164462000Y-123339000D03*
X164462000Y-113389000D03*
%TD*%
D19*
%TO.C,R2*%
X160782000Y-138414000D03*
X160782000Y-136414000D03*
%TD*%
D20*
%TO.C,J7*%
X126828000Y-70027000D03*
X126828000Y-71277000D03*
X126828000Y-72527000D03*
X126828000Y-73777000D03*
X126828000Y-75027000D03*
X126828000Y-76277000D03*
D21*
X130178000Y-78127000D03*
X130178000Y-68177000D03*
%TD*%
D22*
%TO.C,C4*%
X151003000Y-138451500D03*
X151003000Y-136376500D03*
%TD*%
%TO.C,C3*%
X137166000Y-138539000D03*
X137166000Y-136464000D03*
%TD*%
D23*
%TO.C,J3*%
X136444200Y-59381000D03*
X135194200Y-59381000D03*
X133944200Y-59381000D03*
X132694200Y-59381000D03*
D24*
X130844200Y-56181000D03*
X138294200Y-56181000D03*
%TD*%
D10*
%TO.C,J12*%
X159265000Y-55530000D03*
X160515000Y-55530000D03*
D16*
X162365000Y-58730000D03*
X157415000Y-58730000D03*
%TD*%
D10*
%TO.C,J11*%
X138587000Y-144174600D03*
X139837000Y-144174600D03*
X141087000Y-144174600D03*
X142337000Y-144174600D03*
D16*
X136737000Y-147374600D03*
X144187000Y-147374600D03*
%TD*%
D25*
%TO.C,R3*%
X144272000Y-136414000D03*
X144272000Y-138414000D03*
%TD*%
D26*
%TO.C,R6*%
X149790000Y-76200000D03*
X147790000Y-76200000D03*
%TD*%
D25*
%TO.C,R4*%
X157988000Y-136414000D03*
X157988000Y-138414000D03*
%TD*%
D10*
%TO.C,J10*%
X166146000Y-144174600D03*
X167396000Y-144174600D03*
X168646000Y-144174600D03*
X169896000Y-144174600D03*
D16*
X171746000Y-147374600D03*
X164296000Y-147374600D03*
%TD*%
D20*
%TO.C,J2*%
X127026000Y-115239000D03*
X127026000Y-116489000D03*
X127026000Y-117739000D03*
X127026000Y-118989000D03*
X127026000Y-120239000D03*
X127026000Y-121489000D03*
D21*
X130376000Y-113389000D03*
X130376000Y-123339000D03*
%TD*%
D14*
%TO.C,U2*%
X139862000Y-137547500D03*
X141062000Y-137547500D03*
X141062000Y-136772500D03*
X139862000Y-136772500D03*
D15*
X141437000Y-135610000D03*
X140787000Y-135610000D03*
X140137000Y-135610000D03*
X139487000Y-135610000D03*
X139487000Y-138710000D03*
X140137000Y-138710000D03*
X140787000Y-138710000D03*
X141437000Y-138710000D03*
%TD*%
D17*
%TO.C,J5*%
X167812000Y-98629000D03*
X167812000Y-97379000D03*
X167812000Y-96129000D03*
X167812000Y-94879000D03*
X167812000Y-93629000D03*
X167812000Y-92379000D03*
D18*
X164462000Y-90529000D03*
X164462000Y-100479000D03*
%TD*%
D12*
%TO.C,C2*%
X154072500Y-133604000D03*
X151997500Y-133604000D03*
%TD*%
D19*
%TO.C,R1*%
X147066000Y-138414000D03*
X147066000Y-136414000D03*
%TD*%
D10*
%TO.C,J8*%
X124871000Y-144174600D03*
X126121000Y-144174600D03*
X127371000Y-144174600D03*
X128621000Y-144174600D03*
D16*
X123021000Y-147374600D03*
X130471000Y-147374600D03*
%TD*%
D20*
%TO.C,J1*%
X126828000Y-91754000D03*
X126828000Y-93004000D03*
X126828000Y-94254000D03*
X126828000Y-95504000D03*
X126828000Y-96754000D03*
X126828000Y-98004000D03*
X126828000Y-99254000D03*
D21*
X130178000Y-89904000D03*
X130178000Y-101104000D03*
%TD*%
M02*
