%TF.GenerationSoftware,KiCad,Pcbnew,(6.0.1-0)*%
%TF.CreationDate,2023-01-01T10:50:50-08:00*%
%TF.ProjectId,nucleo_144_hat,6e75636c-656f-45f3-9134-345f6861742e,rev?*%
%TF.SameCoordinates,Original*%
%TF.FileFunction,Soldermask,Bot*%
%TF.FilePolarity,Negative*%
%FSLAX46Y46*%
G04 Gerber Fmt 4.6, Leading zero omitted, Abs format (unit mm)*
G04 Created by KiCad (PCBNEW (6.0.1-0)) date 2023-01-01 10:50:50*
%MOMM*%
%LPD*%
G01*
G04 APERTURE LIST*
%ADD10C,2.500000*%
%ADD11C,1.700000*%
%ADD12R,1.700000X1.700000*%
%ADD13O,1.700000X1.700000*%
%ADD14O,1.600000X1.600000*%
%ADD15R,1.600000X1.600000*%
G04 APERTURE END LIST*
D10*
%TO.C,U1*%
X123130500Y-130218600D03*
X123130500Y-54018600D03*
X171390500Y-130218600D03*
X156150500Y-106068600D03*
X171390500Y-55268600D03*
D11*
X115510500Y-57828600D03*
X118050500Y-57828600D03*
X115510500Y-60368600D03*
X118050500Y-60368600D03*
X115510500Y-62908600D03*
X118050500Y-62908600D03*
X115510500Y-65448600D03*
X118050500Y-65448600D03*
X115510500Y-67988600D03*
X118050500Y-67988600D03*
X115510500Y-70528600D03*
X118050500Y-70528600D03*
X115510500Y-73068600D03*
X118050500Y-73068600D03*
X115510500Y-75608600D03*
X118050500Y-75608600D03*
X115510500Y-78148600D03*
X118050500Y-78148600D03*
X115510500Y-80688600D03*
X118050500Y-80688600D03*
X115510500Y-83228600D03*
X118050500Y-83228600D03*
X115510500Y-85768600D03*
X118050500Y-85768600D03*
X115510500Y-88308600D03*
X118050500Y-88308600D03*
X115510500Y-90848600D03*
X118050500Y-90848600D03*
X115510500Y-93388600D03*
X118050500Y-93388600D03*
X115510500Y-95928600D03*
X118050500Y-95928600D03*
X115510500Y-98468600D03*
X118050500Y-98468600D03*
X115510500Y-101008600D03*
X118050500Y-101008600D03*
X115510500Y-103548600D03*
X118050500Y-103548600D03*
X115510500Y-106088600D03*
X118050500Y-106088600D03*
X115510500Y-108628600D03*
X118050500Y-108628600D03*
X115510500Y-111168600D03*
X118050500Y-111168600D03*
X115510500Y-113708600D03*
X118050500Y-113708600D03*
X115510500Y-116248600D03*
X118050500Y-116248600D03*
X115510500Y-118788600D03*
X118050500Y-118788600D03*
X115510500Y-121328600D03*
X118050500Y-121328600D03*
X115510500Y-123868600D03*
X118050500Y-123868600D03*
X115510500Y-126408600D03*
X118050500Y-126408600D03*
X115510500Y-128948600D03*
X118050500Y-128948600D03*
X115510500Y-131488600D03*
X118050500Y-131488600D03*
X115510500Y-134028600D03*
X118050500Y-134028600D03*
X115510500Y-136568600D03*
X118050500Y-136568600D03*
X115510500Y-139108600D03*
X118050500Y-139108600D03*
X115510500Y-141648600D03*
X118050500Y-141648600D03*
X115510500Y-144188600D03*
X118050500Y-144188600D03*
X115510500Y-146728600D03*
X118050500Y-146728600D03*
X176470500Y-57828600D03*
X179010500Y-57828600D03*
X176470500Y-60368600D03*
X179010500Y-60368600D03*
X176470500Y-62908600D03*
X179010500Y-62908600D03*
X176470500Y-65448600D03*
X179010500Y-65448600D03*
X176470500Y-67988600D03*
X179010500Y-67988600D03*
X176470500Y-70528600D03*
X179010500Y-70528600D03*
X176470500Y-73068600D03*
X179010500Y-73068600D03*
X176470500Y-75608600D03*
X179010500Y-75608600D03*
X176470500Y-78148600D03*
X179010500Y-78148600D03*
X176470500Y-80688600D03*
X179010500Y-80688600D03*
X176470500Y-83228600D03*
X179010500Y-83228600D03*
X176470500Y-85768600D03*
X179010500Y-85768600D03*
X176470500Y-88308600D03*
X179010500Y-88308600D03*
X176470500Y-90848600D03*
X179010500Y-90848600D03*
X176470500Y-93388600D03*
X179010500Y-93388600D03*
X176470500Y-95928600D03*
X179010500Y-95928600D03*
X176470500Y-98468600D03*
X179010500Y-98468600D03*
X176470500Y-101008600D03*
X179010500Y-101008600D03*
X176470500Y-103548600D03*
X179010500Y-103548600D03*
X176470500Y-106088600D03*
X179010500Y-106088600D03*
X176470500Y-108628600D03*
X179010500Y-108628600D03*
X176470500Y-111168600D03*
X179010500Y-111168600D03*
X176470500Y-113708600D03*
X179010500Y-113708600D03*
X176470500Y-116248600D03*
X179010500Y-116248600D03*
X176470500Y-118788600D03*
X179010500Y-118788600D03*
X176470500Y-121328600D03*
X179010500Y-121328600D03*
X176470500Y-123868600D03*
X179010500Y-123868600D03*
X176470500Y-126408600D03*
X179010500Y-126408600D03*
X176470500Y-128948600D03*
X179010500Y-128948600D03*
X176470500Y-131488600D03*
X179010500Y-131488600D03*
X176470500Y-134028600D03*
X179010500Y-134028600D03*
X176470500Y-136568600D03*
X179010500Y-136568600D03*
X176470500Y-139108600D03*
X179010500Y-139108600D03*
X176470500Y-141648600D03*
X179010500Y-141648600D03*
X176470500Y-144188600D03*
X179010500Y-144188600D03*
X176470500Y-146728600D03*
X179010500Y-146728600D03*
%TD*%
D12*
%TO.C,J15*%
X141040000Y-113630000D03*
D13*
X143580000Y-113630000D03*
X146120000Y-113630000D03*
X148660000Y-113630000D03*
X151200000Y-113630000D03*
X153740000Y-113630000D03*
%TD*%
D14*
%TO.C,U4*%
X151320000Y-72400000D03*
X148780000Y-72400000D03*
X146240000Y-72400000D03*
X143700000Y-72400000D03*
X143700000Y-64780000D03*
X146240000Y-64780000D03*
X148780000Y-64780000D03*
D15*
X151320000Y-64780000D03*
%TD*%
D12*
%TO.C,J14*%
X141040000Y-126330000D03*
D13*
X143580000Y-126330000D03*
X146120000Y-126330000D03*
X148660000Y-126330000D03*
X151200000Y-126330000D03*
X153740000Y-126330000D03*
%TD*%
M02*
