%TF.GenerationSoftware,KiCad,Pcbnew,(6.0.1-0)*%
%TF.CreationDate,2023-01-01T10:50:50-08:00*%
%TF.ProjectId,nucleo_144_hat,6e75636c-656f-45f3-9134-345f6861742e,rev?*%
%TF.SameCoordinates,Original*%
%TF.FileFunction,Copper,L1,Top*%
%TF.FilePolarity,Positive*%
%FSLAX46Y46*%
G04 Gerber Fmt 4.6, Leading zero omitted, Abs format (unit mm)*
G04 Created by KiCad (PCBNEW (6.0.1-0)) date 2023-01-01 10:50:50*
%MOMM*%
%LPD*%
G01*
G04 APERTURE LIST*
G04 Aperture macros list*
%AMRoundRect*
0 Rectangle with rounded corners*
0 $1 Rounding radius*
0 $2 $3 $4 $5 $6 $7 $8 $9 X,Y pos of 4 corners*
0 Add a 4 corners polygon primitive as box body*
4,1,4,$2,$3,$4,$5,$6,$7,$8,$9,$2,$3,0*
0 Add four circle primitives for the rounded corners*
1,1,$1+$1,$2,$3*
1,1,$1+$1,$4,$5*
1,1,$1+$1,$6,$7*
1,1,$1+$1,$8,$9*
0 Add four rect primitives between the rounded corners*
20,1,$1+$1,$2,$3,$4,$5,0*
20,1,$1+$1,$4,$5,$6,$7,0*
20,1,$1+$1,$6,$7,$8,$9,0*
20,1,$1+$1,$8,$9,$2,$3,0*%
G04 Aperture macros list end*
%TA.AperFunction,SMDPad,CuDef*%
%ADD10RoundRect,0.150000X-0.150000X-0.700000X0.150000X-0.700000X0.150000X0.700000X-0.150000X0.700000X0*%
%TD*%
%TA.AperFunction,SMDPad,CuDef*%
%ADD11RoundRect,0.250000X-0.250000X-1.150000X0.250000X-1.150000X0.250000X1.150000X-0.250000X1.150000X0*%
%TD*%
%TA.AperFunction,SMDPad,CuDef*%
%ADD12RoundRect,0.250000X0.337500X0.475000X-0.337500X0.475000X-0.337500X-0.475000X0.337500X-0.475000X0*%
%TD*%
%TA.AperFunction,SMDPad,CuDef*%
%ADD13RoundRect,0.250000X-0.350000X-0.450000X0.350000X-0.450000X0.350000X0.450000X-0.350000X0.450000X0*%
%TD*%
%TA.AperFunction,SMDPad,CuDef*%
%ADD14R,0.350000X0.650000*%
%TD*%
%TA.AperFunction,SMDPad,CuDef*%
%ADD15R,2.400000X1.550000*%
%TD*%
%TA.AperFunction,ComponentPad*%
%ADD16C,1.700000*%
%TD*%
%TA.AperFunction,SMDPad,CuDef*%
%ADD17RoundRect,0.250000X-0.250000X-1.100000X0.250000X-1.100000X0.250000X1.100000X-0.250000X1.100000X0*%
%TD*%
%TA.AperFunction,SMDPad,CuDef*%
%ADD18RoundRect,0.150000X0.700000X-0.150000X0.700000X0.150000X-0.700000X0.150000X-0.700000X-0.150000X0*%
%TD*%
%TA.AperFunction,SMDPad,CuDef*%
%ADD19RoundRect,0.250000X1.150000X-0.250000X1.150000X0.250000X-1.150000X0.250000X-1.150000X-0.250000X0*%
%TD*%
%TA.AperFunction,SMDPad,CuDef*%
%ADD20RoundRect,0.250000X0.450000X-0.350000X0.450000X0.350000X-0.450000X0.350000X-0.450000X-0.350000X0*%
%TD*%
%TA.AperFunction,SMDPad,CuDef*%
%ADD21RoundRect,0.150000X-0.700000X0.150000X-0.700000X-0.150000X0.700000X-0.150000X0.700000X0.150000X0*%
%TD*%
%TA.AperFunction,SMDPad,CuDef*%
%ADD22RoundRect,0.250000X-1.150000X0.250000X-1.150000X-0.250000X1.150000X-0.250000X1.150000X0.250000X0*%
%TD*%
%TA.AperFunction,SMDPad,CuDef*%
%ADD23RoundRect,0.250000X0.475000X-0.337500X0.475000X0.337500X-0.475000X0.337500X-0.475000X-0.337500X0*%
%TD*%
%TA.AperFunction,SMDPad,CuDef*%
%ADD24RoundRect,0.150000X0.150000X0.700000X-0.150000X0.700000X-0.150000X-0.700000X0.150000X-0.700000X0*%
%TD*%
%TA.AperFunction,SMDPad,CuDef*%
%ADD25RoundRect,0.250000X0.250000X1.100000X-0.250000X1.100000X-0.250000X-1.100000X0.250000X-1.100000X0*%
%TD*%
%TA.AperFunction,SMDPad,CuDef*%
%ADD26RoundRect,0.250000X-0.450000X0.350000X-0.450000X-0.350000X0.450000X-0.350000X0.450000X0.350000X0*%
%TD*%
%TA.AperFunction,SMDPad,CuDef*%
%ADD27RoundRect,0.250000X0.350000X0.450000X-0.350000X0.450000X-0.350000X-0.450000X0.350000X-0.450000X0*%
%TD*%
%TA.AperFunction,ComponentPad*%
%ADD28R,1.700000X1.700000*%
%TD*%
%TA.AperFunction,ComponentPad*%
%ADD29O,1.700000X1.700000*%
%TD*%
%TA.AperFunction,ComponentPad*%
%ADD30O,1.600000X1.600000*%
%TD*%
%TA.AperFunction,ComponentPad*%
%ADD31R,1.600000X1.600000*%
%TD*%
%TA.AperFunction,ViaPad*%
%ADD32C,0.800000*%
%TD*%
%TA.AperFunction,Conductor*%
%ADD33C,0.200000*%
%TD*%
%TA.AperFunction,Conductor*%
%ADD34C,0.250000*%
%TD*%
%TA.AperFunction,Conductor*%
%ADD35C,0.500000*%
%TD*%
%TA.AperFunction,Conductor*%
%ADD36C,0.400000*%
%TD*%
G04 APERTURE END LIST*
D10*
%TO.P,J13,1,Pin_1*%
%TO.N,Net-(J13-Pad1)*%
X146995000Y-59350000D03*
%TO.P,J13,2,Pin_2*%
%TO.N,Net-(J13-Pad2)*%
X148245000Y-59350000D03*
D11*
%TO.P,J13,MP*%
%TO.N,N/C*%
X145145000Y-56000000D03*
X150095000Y-56000000D03*
%TD*%
D12*
%TO.P,C1,1*%
%TO.N,+5V*%
X140356500Y-133604000D03*
%TO.P,C1,2*%
%TO.N,GND*%
X138281500Y-133604000D03*
%TD*%
D13*
%TO.P,R5,2*%
%TO.N,Net-(R5-Pad2)*%
X147156000Y-61954000D03*
%TO.P,R5,1*%
%TO.N,Net-(J13-Pad1)*%
X145156000Y-61954000D03*
%TD*%
D14*
%TO.P,U3,1,TXD*%
%TO.N,/CAN2_TX*%
X155153000Y-135610000D03*
%TO.P,U3,2,GND*%
%TO.N,GND*%
X154503000Y-135610000D03*
%TO.P,U3,3,VCC*%
%TO.N,+5V*%
X153853000Y-135610000D03*
%TO.P,U3,4,RXD*%
%TO.N,/CAN2_RX*%
X153203000Y-135610000D03*
%TO.P,U3,5,VIO*%
%TO.N,+3V3*%
X153203000Y-138710000D03*
%TO.P,U3,6,CANL*%
%TO.N,/CAN2_N*%
X153853000Y-138710000D03*
%TO.P,U3,7,CANH*%
%TO.N,/CAN2_P*%
X154503000Y-138710000D03*
%TO.P,U3,8,S*%
%TO.N,/CAN_SILENT2*%
X155153000Y-138710000D03*
D15*
%TO.P,U3,9,GND*%
%TO.N,GND*%
X154178000Y-137160000D03*
%TD*%
D16*
%TO.P,U1,1,PC10*%
%TO.N,/UART4_TX*%
X115510500Y-57828600D03*
%TO.P,U1,2,PC11*%
%TO.N,/UART4_RX*%
X118050500Y-57828600D03*
%TO.P,U1,3,PC12*%
%TO.N,unconnected-(U1-Pad3)*%
X115510500Y-60368600D03*
%TO.P,U1,4,PD2*%
%TO.N,unconnected-(U1-Pad4)*%
X118050500Y-60368600D03*
%TO.P,U1,5,VDD*%
%TO.N,unconnected-(U1-Pad5)*%
X115510500Y-62908600D03*
%TO.P,U1,6,E5V*%
%TO.N,+5V*%
X118050500Y-62908600D03*
%TO.P,U1,7,~{BOOT0}*%
%TO.N,unconnected-(U1-Pad7)*%
X115510500Y-65448600D03*
%TO.P,U1,8,GND*%
%TO.N,GND*%
X118050500Y-65448600D03*
%TO.P,U1,9,PF6*%
%TO.N,unconnected-(U1-Pad9)*%
X115510500Y-67988600D03*
%TO.P,U1,10,NC*%
%TO.N,unconnected-(U1-Pad10)*%
X118050500Y-67988600D03*
%TO.P,U1,11,PF7*%
%TO.N,unconnected-(U1-Pad11)*%
X115510500Y-70528600D03*
%TO.P,U1,12,IOREF*%
%TO.N,unconnected-(U1-Pad12)*%
X118050500Y-70528600D03*
%TO.P,U1,13,TMS/PA13*%
%TO.N,unconnected-(U1-Pad13)*%
X115510500Y-73068600D03*
%TO.P,U1,14,~{RST}*%
%TO.N,unconnected-(U1-Pad14)*%
X118050500Y-73068600D03*
%TO.P,U1,15,TCK/PA14*%
%TO.N,unconnected-(U1-Pad15)*%
X115510500Y-75608600D03*
%TO.P,U1,16,+3V3*%
%TO.N,+3V3*%
X118050500Y-75608600D03*
%TO.P,U1,17,PA15*%
%TO.N,/UART4_RTS*%
X115510500Y-78148600D03*
%TO.P,U1,18,+5V*%
%TO.N,unconnected-(U1-Pad18)*%
X118050500Y-78148600D03*
%TO.P,U1,19,GND*%
%TO.N,GND*%
X115510500Y-80688600D03*
%TO.P,U1,20,GND*%
X118050500Y-80688600D03*
%TO.P,U1,21,LD2/PB7*%
%TO.N,unconnected-(U1-Pad21)*%
X115510500Y-83228600D03*
%TO.P,U1,22,GND*%
%TO.N,GND*%
X118050500Y-83228600D03*
%TO.P,U1,23,BT/PC13*%
%TO.N,unconnected-(U1-Pad23)*%
X115510500Y-85768600D03*
%TO.P,U1,24,VIN*%
%TO.N,unconnected-(U1-Pad24)*%
X118050500Y-85768600D03*
%TO.P,U1,25,RTC_CRYSTAL/PC14*%
%TO.N,unconnected-(U1-Pad25)*%
X115510500Y-88308600D03*
%TO.P,U1,26,NC*%
%TO.N,unconnected-(U1-Pad26)*%
X118050500Y-88308600D03*
%TO.P,U1,27,RTC_CRYSTAL/PC15*%
%TO.N,unconnected-(U1-Pad27)*%
X115510500Y-90848600D03*
%TO.P,U1,28,ETH_REF_CLK/PA0*%
%TO.N,/PWM2{slash}1*%
X118050500Y-90848600D03*
%TO.P,U1,29,PH0*%
%TO.N,unconnected-(U1-Pad29)*%
X115510500Y-93388600D03*
%TO.P,U1,30,ETH_MDIO/PA1*%
%TO.N,/PWM2{slash}2*%
X118050500Y-93388600D03*
%TO.P,U1,31,PH1*%
%TO.N,/PH1*%
X115510500Y-95928600D03*
%TO.P,U1,32,PA4*%
%TO.N,unconnected-(U1-Pad32)*%
X118050500Y-95928600D03*
%TO.P,U1,33,VBAT*%
%TO.N,unconnected-(U1-Pad33)*%
X115510500Y-98468600D03*
%TO.P,U1,34,PB0*%
%TO.N,/ADC1{slash}8*%
X118050500Y-98468600D03*
%TO.P,U1,35,PC2*%
%TO.N,unconnected-(U1-Pad35)*%
X115510500Y-101008600D03*
%TO.P,U1,36,ETH_MDC/PC1*%
%TO.N,unconnected-(U1-Pad36)*%
X118050500Y-101008600D03*
%TO.P,U1,37,PC3*%
%TO.N,unconnected-(U1-Pad37)*%
X115510500Y-103548600D03*
%TO.P,U1,38,PC0*%
%TO.N,unconnected-(U1-Pad38)*%
X118050500Y-103548600D03*
%TO.P,U1,39,PD4*%
%TO.N,/UART2_RTS*%
X115510500Y-106088600D03*
%TO.P,U1,40,PD3*%
%TO.N,/UART2_CTS*%
X118050500Y-106088600D03*
%TO.P,U1,41,PD5*%
%TO.N,/UART2_TX*%
X115510500Y-108628600D03*
%TO.P,U1,42,PG2*%
%TO.N,unconnected-(U1-Pad42)*%
X118050500Y-108628600D03*
%TO.P,U1,43,PD6*%
%TO.N,/UART2_RX*%
X115510500Y-111168600D03*
%TO.P,U1,44,PG3*%
%TO.N,unconnected-(U1-Pad44)*%
X118050500Y-111168600D03*
%TO.P,U1,45,PD7*%
%TO.N,/SPI1_MOSI*%
X115510500Y-113708600D03*
%TO.P,U1,46,PE2*%
%TO.N,unconnected-(U1-Pad46)*%
X118050500Y-113708600D03*
%TO.P,U1,47,PE3*%
%TO.N,unconnected-(U1-Pad47)*%
X115510500Y-116248600D03*
%TO.P,U1,48,PE4*%
%TO.N,unconnected-(U1-Pad48)*%
X118050500Y-116248600D03*
%TO.P,U1,49,GND*%
%TO.N,GND*%
X115510500Y-118788600D03*
%TO.P,U1,50,PE5*%
%TO.N,unconnected-(U1-Pad50)*%
X118050500Y-118788600D03*
%TO.P,U1,51,PF1*%
%TO.N,unconnected-(U1-Pad51)*%
X115510500Y-121328600D03*
%TO.P,U1,52,PF2*%
%TO.N,unconnected-(U1-Pad52)*%
X118050500Y-121328600D03*
%TO.P,U1,53,PF0*%
%TO.N,unconnected-(U1-Pad53)*%
X115510500Y-123868600D03*
%TO.P,U1,54,PF8*%
%TO.N,unconnected-(U1-Pad54)*%
X118050500Y-123868600D03*
%TO.P,U1,55,PD1*%
%TO.N,/CAN1_TX*%
X115510500Y-126408600D03*
%TO.P,U1,56,PF9*%
%TO.N,unconnected-(U1-Pad56)*%
X118050500Y-126408600D03*
%TO.P,U1,57,PD0*%
%TO.N,/CAN1_RX*%
X115510500Y-128948600D03*
%TO.P,U1,58,PG1*%
%TO.N,unconnected-(U1-Pad58)*%
X118050500Y-128948600D03*
%TO.P,U1,59,PG0*%
%TO.N,unconnected-(U1-Pad59)*%
X115510500Y-131488600D03*
%TO.P,U1,60,GND*%
%TO.N,GND*%
X118050500Y-131488600D03*
%TO.P,U1,61,PE1*%
%TO.N,/TX*%
X115510500Y-134028600D03*
%TO.P,U1,62,PE6*%
%TO.N,unconnected-(U1-Pad62)*%
X118050500Y-134028600D03*
%TO.P,U1,63,PG9*%
%TO.N,/RX*%
X115510500Y-136568600D03*
%TO.P,U1,64,PG15*%
%TO.N,unconnected-(U1-Pad64)*%
X118050500Y-136568600D03*
%TO.P,U1,65,PG12*%
%TO.N,unconnected-(U1-Pad65)*%
X115510500Y-139108600D03*
%TO.P,U1,66,PG10*%
%TO.N,/~{SPI1_CS1}*%
X118050500Y-139108600D03*
%TO.P,U1,67,NC*%
%TO.N,unconnected-(U1-Pad67)*%
X115510500Y-141648600D03*
%TO.P,U1,68,PG13/ETH_TXD0*%
%TO.N,unconnected-(U1-Pad68)*%
X118050500Y-141648600D03*
%TO.P,U1,69,STLINK_RX/PD9*%
%TO.N,/UART3_TX*%
X115510500Y-144188600D03*
%TO.P,U1,70,PG11/ETH_TX_EN*%
%TO.N,unconnected-(U1-Pad70)*%
X118050500Y-144188600D03*
%TO.P,U1,71,GND*%
%TO.N,GND*%
X115510500Y-146728600D03*
%TO.P,U1,72,GND*%
X118050500Y-146728600D03*
%TO.P,U1,73,PC9*%
%TO.N,unconnected-(U1-Pad73)*%
X176470500Y-57828600D03*
%TO.P,U1,74,PC8*%
%TO.N,unconnected-(U1-Pad74)*%
X179010500Y-57828600D03*
%TO.P,U1,75,PB8*%
%TO.N,unconnected-(U1-Pad75)*%
X176470500Y-60368600D03*
%TO.P,U1,76,PC6*%
%TO.N,unconnected-(U1-Pad76)*%
X179010500Y-60368600D03*
%TO.P,U1,77,PB9*%
%TO.N,unconnected-(U1-Pad77)*%
X176470500Y-62908600D03*
%TO.P,U1,78,ETH_RXD1/PC5*%
%TO.N,unconnected-(U1-Pad78)*%
X179010500Y-62908600D03*
%TO.P,U1,79,AVDD*%
%TO.N,unconnected-(U1-Pad79)*%
X176470500Y-65448600D03*
%TO.P,U1,80,U5V*%
%TO.N,unconnected-(U1-Pad80)*%
X179010500Y-65448600D03*
%TO.P,U1,81,GND*%
%TO.N,GND*%
X176470500Y-67988600D03*
%TO.P,U1,82,STLINK_TX/PD8*%
%TO.N,/UART3_RX*%
X179010500Y-67988600D03*
%TO.P,U1,83,PA5*%
%TO.N,unconnected-(U1-Pad83)*%
X176470500Y-70528600D03*
%TO.P,U1,84,USB_DP/PA12*%
%TO.N,/UART1_RTS*%
X179010500Y-70528600D03*
%TO.P,U1,85,PA6*%
%TO.N,unconnected-(U1-Pad85)*%
X176470500Y-73068600D03*
%TO.P,U1,86,USB_DM/PA11*%
%TO.N,/UART1_CTS*%
X179010500Y-73068600D03*
%TO.P,U1,87,ETH_CRS_DV/PA7*%
%TO.N,unconnected-(U1-Pad87)*%
X176470500Y-75608600D03*
%TO.P,U1,88,PB12*%
%TO.N,/~{SPI2_CS2}*%
X179010500Y-75608600D03*
%TO.P,U1,89,PB6*%
%TO.N,/CAN2_TX*%
X176470500Y-78148600D03*
%TO.P,U1,90,PB11*%
%TO.N,unconnected-(U1-Pad90)*%
X179010500Y-78148600D03*
%TO.P,U1,91,PC7*%
%TO.N,unconnected-(U1-Pad91)*%
X176470500Y-80688600D03*
%TO.P,U1,92,GND*%
%TO.N,GND*%
X179010500Y-80688600D03*
%TO.P,U1,93,USB_VBUS/PA9*%
%TO.N,/UART1_TX*%
X176470500Y-83228600D03*
%TO.P,U1,94,PB2*%
%TO.N,unconnected-(U1-Pad94)*%
X179010500Y-83228600D03*
%TO.P,U1,95,USB_SOF/PA8*%
%TO.N,unconnected-(U1-Pad95)*%
X176470500Y-85768600D03*
%TO.P,U1,96,PB1*%
%TO.N,/ADC1{slash}9*%
X179010500Y-85768600D03*
%TO.P,U1,97,PB10*%
%TO.N,unconnected-(U1-Pad97)*%
X176470500Y-88308600D03*
%TO.P,U1,98,PB15*%
%TO.N,/UART4_CTS*%
X179010500Y-88308600D03*
%TO.P,U1,99,PB4*%
%TO.N,/SPI1_MISO*%
X176470500Y-90848600D03*
%TO.P,U1,100,LD3/PB14*%
%TO.N,/UART3_RTS*%
X179010500Y-90848600D03*
%TO.P,U1,101,PB5*%
%TO.N,/CAN2_RX*%
X176470500Y-93388600D03*
%TO.P,U1,102,ETH_TXD1/PB13*%
%TO.N,/UART3_CTS*%
X179010500Y-93388600D03*
%TO.P,U1,103,SWO/PB3*%
%TO.N,/SPI1_SCK*%
X176470500Y-95928600D03*
%TO.P,U1,104,AGND*%
%TO.N,GND*%
X179010500Y-95928600D03*
%TO.P,U1,105,USB_ID/PA10*%
%TO.N,/UART1_RX*%
X176470500Y-98468600D03*
%TO.P,U1,106,ETH_RXD0/PC4*%
%TO.N,unconnected-(U1-Pad106)*%
X179010500Y-98468600D03*
%TO.P,U1,107,PA2*%
%TO.N,/PWM2{slash}3*%
X176470500Y-101008600D03*
%TO.P,U1,108,PF5*%
%TO.N,unconnected-(U1-Pad108)*%
X179010500Y-101008600D03*
%TO.P,U1,109,PA3*%
%TO.N,/PWM2{slash}4*%
X176470500Y-103548600D03*
%TO.P,U1,110,PF4*%
%TO.N,unconnected-(U1-Pad110)*%
X179010500Y-103548600D03*
%TO.P,U1,111,GND*%
%TO.N,GND*%
X176470500Y-106088600D03*
%TO.P,U1,112,PE8*%
%TO.N,unconnected-(U1-Pad112)*%
X179010500Y-106088600D03*
%TO.P,U1,113,PD13*%
%TO.N,unconnected-(U1-Pad113)*%
X176470500Y-108628600D03*
%TO.P,U1,114,PF10*%
%TO.N,unconnected-(U1-Pad114)*%
X179010500Y-108628600D03*
%TO.P,U1,115,PD12*%
%TO.N,unconnected-(U1-Pad115)*%
X176470500Y-111168600D03*
%TO.P,U1,116,PE7*%
%TO.N,unconnected-(U1-Pad116)*%
X179010500Y-111168600D03*
%TO.P,U1,117,PD11*%
%TO.N,unconnected-(U1-Pad117)*%
X176470500Y-113708600D03*
%TO.P,U1,118,PD14*%
%TO.N,unconnected-(U1-Pad118)*%
X179010500Y-113708600D03*
%TO.P,U1,119,PE10*%
%TO.N,unconnected-(U1-Pad119)*%
X176470500Y-116248600D03*
%TO.P,U1,120,PD15*%
%TO.N,unconnected-(U1-Pad120)*%
X179010500Y-116248600D03*
%TO.P,U1,121,PE12*%
%TO.N,unconnected-(U1-Pad121)*%
X176470500Y-118788600D03*
%TO.P,U1,122,PF14*%
%TO.N,unconnected-(U1-Pad122)*%
X179010500Y-118788600D03*
%TO.P,U1,123,PE14*%
%TO.N,unconnected-(U1-Pad123)*%
X176470500Y-121328600D03*
%TO.P,U1,124,PE9*%
%TO.N,unconnected-(U1-Pad124)*%
X179010500Y-121328600D03*
%TO.P,U1,125,PE15*%
%TO.N,unconnected-(U1-Pad125)*%
X176470500Y-123868600D03*
%TO.P,U1,126,GND*%
%TO.N,GND*%
X179010500Y-123868600D03*
%TO.P,U1,127,PE13*%
%TO.N,unconnected-(U1-Pad127)*%
X176470500Y-126408600D03*
%TO.P,U1,128,PE11*%
%TO.N,unconnected-(U1-Pad128)*%
X179010500Y-126408600D03*
%TO.P,U1,129,PF13*%
%TO.N,unconnected-(U1-Pad129)*%
X176470500Y-128948600D03*
%TO.P,U1,130,PF3*%
%TO.N,unconnected-(U1-Pad130)*%
X179010500Y-128948600D03*
%TO.P,U1,131,PF12*%
%TO.N,unconnected-(U1-Pad131)*%
X176470500Y-131488600D03*
%TO.P,U1,132,PF15*%
%TO.N,unconnected-(U1-Pad132)*%
X179010500Y-131488600D03*
%TO.P,U1,133,PG14*%
%TO.N,unconnected-(U1-Pad133)*%
X176470500Y-134028600D03*
%TO.P,U1,134,PF11*%
%TO.N,unconnected-(U1-Pad134)*%
X179010500Y-134028600D03*
%TO.P,U1,135,GND*%
%TO.N,GND*%
X176470500Y-136568600D03*
%TO.P,U1,136,PE0*%
%TO.N,unconnected-(U1-Pad136)*%
X179010500Y-136568600D03*
%TO.P,U1,137,PD10*%
%TO.N,unconnected-(U1-Pad137)*%
X176470500Y-139108600D03*
%TO.P,U1,138,PG8*%
%TO.N,unconnected-(U1-Pad138)*%
X179010500Y-139108600D03*
%TO.P,U1,139,PG7/USB_GPIO_IN*%
%TO.N,unconnected-(U1-Pad139)*%
X176470500Y-141648600D03*
%TO.P,U1,140,PG5*%
%TO.N,unconnected-(U1-Pad140)*%
X179010500Y-141648600D03*
%TO.P,U1,141,PG4*%
%TO.N,unconnected-(U1-Pad141)*%
X176470500Y-144188600D03*
%TO.P,U1,142,PG6/USB_GPIO_OUT*%
%TO.N,unconnected-(U1-Pad142)*%
X179010500Y-144188600D03*
%TO.P,U1,143,GND*%
%TO.N,GND*%
X176470500Y-146728600D03*
%TO.P,U1,144,GND*%
X179010500Y-146728600D03*
%TD*%
D10*
%TO.P,J9,1,Pin_1*%
%TO.N,+5V*%
X152303000Y-144174600D03*
%TO.P,J9,2,Pin_2*%
%TO.N,/CAN2_P*%
X153553000Y-144174600D03*
%TO.P,J9,3,Pin_3*%
%TO.N,/CAN2_N*%
X154803000Y-144174600D03*
%TO.P,J9,4,Pin_4*%
%TO.N,GND*%
X156053000Y-144174600D03*
D17*
%TO.P,J9,MP*%
%TO.N,N/C*%
X150453000Y-147374600D03*
X157903000Y-147374600D03*
%TD*%
D18*
%TO.P,J4,1,Pin_1*%
%TO.N,+5V*%
X167812000Y-76277000D03*
%TO.P,J4,2,Pin_2*%
%TO.N,/UART1_TX*%
X167812000Y-75027000D03*
%TO.P,J4,3,Pin_3*%
%TO.N,/UART1_RX*%
X167812000Y-73777000D03*
%TO.P,J4,4,Pin_4*%
%TO.N,/UART1_CTS*%
X167812000Y-72527000D03*
%TO.P,J4,5,Pin_5*%
%TO.N,/UART1_RTS*%
X167812000Y-71277000D03*
%TO.P,J4,6,Pin_6*%
%TO.N,GND*%
X167812000Y-70027000D03*
D19*
%TO.P,J4,MP*%
%TO.N,N/C*%
X164462000Y-78127000D03*
X164462000Y-68177000D03*
%TD*%
D18*
%TO.P,J6,1,Pin_1*%
%TO.N,+5V*%
X167812000Y-121489000D03*
%TO.P,J6,2,Pin_2*%
%TO.N,/UART3_TX*%
X167812000Y-120239000D03*
%TO.P,J6,3,Pin_3*%
%TO.N,/UART3_RX*%
X167812000Y-118989000D03*
%TO.P,J6,4,Pin_4*%
%TO.N,/UART3_CTS*%
X167812000Y-117739000D03*
%TO.P,J6,5,Pin_5*%
%TO.N,/UART3_RTS*%
X167812000Y-116489000D03*
%TO.P,J6,6,Pin_6*%
%TO.N,GND*%
X167812000Y-115239000D03*
D19*
%TO.P,J6,MP*%
%TO.N,N/C*%
X164462000Y-123339000D03*
X164462000Y-113389000D03*
%TD*%
D20*
%TO.P,R2,1*%
%TO.N,/CAN_SILENT2*%
X160782000Y-138414000D03*
%TO.P,R2,2*%
%TO.N,GND*%
X160782000Y-136414000D03*
%TD*%
D21*
%TO.P,J7,1,Pin_1*%
%TO.N,+5V*%
X126828000Y-70027000D03*
%TO.P,J7,2,Pin_2*%
%TO.N,/UART4_TX*%
X126828000Y-71277000D03*
%TO.P,J7,3,Pin_3*%
%TO.N,/UART4_RX*%
X126828000Y-72527000D03*
%TO.P,J7,4,Pin_4*%
%TO.N,/UART4_CTS*%
X126828000Y-73777000D03*
%TO.P,J7,5,Pin_5*%
%TO.N,/UART4_RTS*%
X126828000Y-75027000D03*
%TO.P,J7,6,Pin_6*%
%TO.N,GND*%
X126828000Y-76277000D03*
D22*
%TO.P,J7,MP*%
%TO.N,N/C*%
X130178000Y-78127000D03*
X130178000Y-68177000D03*
%TD*%
D23*
%TO.P,C4,1*%
%TO.N,+3V3*%
X151003000Y-138451500D03*
%TO.P,C4,2*%
%TO.N,GND*%
X151003000Y-136376500D03*
%TD*%
%TO.P,C3,1*%
%TO.N,+3V3*%
X137166000Y-138539000D03*
%TO.P,C3,2*%
%TO.N,GND*%
X137166000Y-136464000D03*
%TD*%
D24*
%TO.P,J3,1,Pin_1*%
%TO.N,+5V*%
X136444200Y-59381000D03*
%TO.P,J3,2,Pin_2*%
%TO.N,/ADC1{slash}8*%
X135194200Y-59381000D03*
%TO.P,J3,3,Pin_3*%
%TO.N,/ADC1{slash}9*%
X133944200Y-59381000D03*
%TO.P,J3,4,Pin_4*%
%TO.N,GND*%
X132694200Y-59381000D03*
D25*
%TO.P,J3,MP*%
%TO.N,N/C*%
X130844200Y-56181000D03*
X138294200Y-56181000D03*
%TD*%
D10*
%TO.P,J12,1,Pin_1*%
%TO.N,GND*%
X159265000Y-55530000D03*
%TO.P,J12,2,Pin_2*%
%TO.N,+5V*%
X160515000Y-55530000D03*
D17*
%TO.P,J12,MP*%
%TO.N,N/C*%
X162365000Y-58730000D03*
X157415000Y-58730000D03*
%TD*%
D10*
%TO.P,J11,1,Pin_1*%
%TO.N,+5V*%
X138587000Y-144174600D03*
%TO.P,J11,2,Pin_2*%
%TO.N,/CAN1_P*%
X139837000Y-144174600D03*
%TO.P,J11,3,Pin_3*%
%TO.N,/CAN1_N*%
X141087000Y-144174600D03*
%TO.P,J11,4,Pin_4*%
%TO.N,GND*%
X142337000Y-144174600D03*
D17*
%TO.P,J11,MP*%
%TO.N,N/C*%
X136737000Y-147374600D03*
X144187000Y-147374600D03*
%TD*%
D26*
%TO.P,R3,1*%
%TO.N,+3V3*%
X144272000Y-136414000D03*
%TO.P,R3,2*%
%TO.N,/CAN_SILENT1*%
X144272000Y-138414000D03*
%TD*%
D27*
%TO.P,R6,1*%
%TO.N,+5V*%
X149790000Y-76200000D03*
%TO.P,R6,2*%
%TO.N,/PH1*%
X147790000Y-76200000D03*
%TD*%
D26*
%TO.P,R4,1*%
%TO.N,+3V3*%
X157988000Y-136414000D03*
%TO.P,R4,2*%
%TO.N,/CAN_SILENT2*%
X157988000Y-138414000D03*
%TD*%
D10*
%TO.P,J10,1,Pin_1*%
%TO.N,+5V*%
X166146000Y-144174600D03*
%TO.P,J10,2,Pin_2*%
%TO.N,/CAN2_P*%
X167396000Y-144174600D03*
%TO.P,J10,3,Pin_3*%
%TO.N,/CAN2_N*%
X168646000Y-144174600D03*
%TO.P,J10,4,Pin_4*%
%TO.N,GND*%
X169896000Y-144174600D03*
D17*
%TO.P,J10,MP*%
%TO.N,N/C*%
X171746000Y-147374600D03*
X164296000Y-147374600D03*
%TD*%
D21*
%TO.P,J2,1,Pin_1*%
%TO.N,+5V*%
X127026000Y-115239000D03*
%TO.P,J2,2,Pin_2*%
%TO.N,/PWM2{slash}1*%
X127026000Y-116489000D03*
%TO.P,J2,3,Pin_3*%
%TO.N,/PWM2{slash}2*%
X127026000Y-117739000D03*
%TO.P,J2,4,Pin_4*%
%TO.N,/PWM2{slash}3*%
X127026000Y-118989000D03*
%TO.P,J2,5,Pin_5*%
%TO.N,/PWM2{slash}4*%
X127026000Y-120239000D03*
%TO.P,J2,6,Pin_6*%
%TO.N,GND*%
X127026000Y-121489000D03*
D22*
%TO.P,J2,MP*%
%TO.N,N/C*%
X130376000Y-113389000D03*
X130376000Y-123339000D03*
%TD*%
D14*
%TO.P,U2,1,TXD*%
%TO.N,/CAN1_TX*%
X141437000Y-135610000D03*
%TO.P,U2,2,GND*%
%TO.N,GND*%
X140787000Y-135610000D03*
%TO.P,U2,3,VCC*%
%TO.N,+5V*%
X140137000Y-135610000D03*
%TO.P,U2,4,RXD*%
%TO.N,/CAN1_RX*%
X139487000Y-135610000D03*
%TO.P,U2,5,VIO*%
%TO.N,+3V3*%
X139487000Y-138710000D03*
%TO.P,U2,6,CANL*%
%TO.N,/CAN1_N*%
X140137000Y-138710000D03*
%TO.P,U2,7,CANH*%
%TO.N,/CAN1_P*%
X140787000Y-138710000D03*
%TO.P,U2,8,S*%
%TO.N,/CAN_SILENT1*%
X141437000Y-138710000D03*
D15*
%TO.P,U2,9,GND*%
%TO.N,GND*%
X140462000Y-137160000D03*
%TD*%
D18*
%TO.P,J5,1,Pin_1*%
%TO.N,+5V*%
X167812000Y-98629000D03*
%TO.P,J5,2,Pin_2*%
%TO.N,/UART2_TX*%
X167812000Y-97379000D03*
%TO.P,J5,3,Pin_3*%
%TO.N,/UART2_RX*%
X167812000Y-96129000D03*
%TO.P,J5,4,Pin_4*%
%TO.N,/UART2_CTS*%
X167812000Y-94879000D03*
%TO.P,J5,5,Pin_5*%
%TO.N,/UART2_RTS*%
X167812000Y-93629000D03*
%TO.P,J5,6,Pin_6*%
%TO.N,GND*%
X167812000Y-92379000D03*
D19*
%TO.P,J5,MP*%
%TO.N,N/C*%
X164462000Y-90529000D03*
X164462000Y-100479000D03*
%TD*%
D28*
%TO.P,J15,1,Pin_1*%
%TO.N,unconnected-(J15-Pad1)*%
X141040000Y-113630000D03*
D29*
%TO.P,J15,2,Pin_2*%
%TO.N,unconnected-(J15-Pad2)*%
X143580000Y-113630000D03*
%TO.P,J15,3,Pin_3*%
%TO.N,unconnected-(J15-Pad3)*%
X146120000Y-113630000D03*
%TO.P,J15,4,Pin_4*%
%TO.N,unconnected-(J15-Pad4)*%
X148660000Y-113630000D03*
%TO.P,J15,5,Pin_5*%
%TO.N,unconnected-(J15-Pad5)*%
X151200000Y-113630000D03*
%TO.P,J15,6,Pin_6*%
%TO.N,unconnected-(J15-Pad6)*%
X153740000Y-113630000D03*
%TD*%
D30*
%TO.P,U4,8,VCC*%
%TO.N,+5V*%
X151320000Y-72400000D03*
%TO.P,U4,7,EN*%
%TO.N,unconnected-(U4-Pad7)*%
X148780000Y-72400000D03*
%TO.P,U4,6,VO*%
%TO.N,/PH1*%
X146240000Y-72400000D03*
%TO.P,U4,5,GND*%
%TO.N,GND*%
X143700000Y-72400000D03*
%TO.P,U4,4*%
%TO.N,N/C*%
X143700000Y-64780000D03*
%TO.P,U4,3,C*%
%TO.N,Net-(R5-Pad2)*%
X146240000Y-64780000D03*
%TO.P,U4,2,A*%
%TO.N,Net-(J13-Pad2)*%
X148780000Y-64780000D03*
D31*
%TO.P,U4,1,NC*%
%TO.N,unconnected-(U4-Pad1)*%
X151320000Y-64780000D03*
%TD*%
D12*
%TO.P,C2,1*%
%TO.N,+5V*%
X154072500Y-133604000D03*
%TO.P,C2,2*%
%TO.N,GND*%
X151997500Y-133604000D03*
%TD*%
D20*
%TO.P,R1,1*%
%TO.N,/CAN_SILENT1*%
X147066000Y-138414000D03*
%TO.P,R1,2*%
%TO.N,GND*%
X147066000Y-136414000D03*
%TD*%
D28*
%TO.P,J14,1,Pin_1*%
%TO.N,unconnected-(J14-Pad1)*%
X141040000Y-126330000D03*
D29*
%TO.P,J14,2,Pin_2*%
%TO.N,+5V*%
X143580000Y-126330000D03*
%TO.P,J14,3,Pin_3*%
%TO.N,/RX*%
X146120000Y-126330000D03*
%TO.P,J14,4,Pin_4*%
%TO.N,/TX*%
X148660000Y-126330000D03*
%TO.P,J14,5,Pin_5*%
%TO.N,GND*%
X151200000Y-126330000D03*
%TO.P,J14,6,Pin_6*%
%TO.N,unconnected-(J14-Pad6)*%
X153740000Y-126330000D03*
%TD*%
D10*
%TO.P,J8,1,Pin_1*%
%TO.N,+5V*%
X124871000Y-144174600D03*
%TO.P,J8,2,Pin_2*%
%TO.N,/CAN1_P*%
X126121000Y-144174600D03*
%TO.P,J8,3,Pin_3*%
%TO.N,/CAN1_N*%
X127371000Y-144174600D03*
%TO.P,J8,4,Pin_4*%
%TO.N,GND*%
X128621000Y-144174600D03*
D17*
%TO.P,J8,MP*%
%TO.N,N/C*%
X123021000Y-147374600D03*
X130471000Y-147374600D03*
%TD*%
D21*
%TO.P,J1,1,Pin_1*%
%TO.N,+5V*%
X126828000Y-91754000D03*
%TO.P,J1,2,Pin_2*%
%TO.N,/SPI1_SCK*%
X126828000Y-93004000D03*
%TO.P,J1,3,Pin_3*%
%TO.N,/SPI1_MISO*%
X126828000Y-94254000D03*
%TO.P,J1,4,Pin_4*%
%TO.N,/SPI1_MOSI*%
X126828000Y-95504000D03*
%TO.P,J1,5,Pin_5*%
%TO.N,/~{SPI1_CS1}*%
X126828000Y-96754000D03*
%TO.P,J1,6,Pin_6*%
%TO.N,/~{SPI2_CS2}*%
X126828000Y-98004000D03*
%TO.P,J1,7,Pin_7*%
%TO.N,GND*%
X126828000Y-99254000D03*
D22*
%TO.P,J1,MP*%
%TO.N,N/C*%
X130178000Y-89904000D03*
X130178000Y-101104000D03*
%TD*%
D32*
%TO.N,+5V*%
X153797000Y-132842000D03*
X165100000Y-76327000D03*
X138557000Y-145288000D03*
X152273000Y-143129000D03*
X166116000Y-145288000D03*
X165100000Y-98679000D03*
X160525000Y-56491000D03*
X142300000Y-122580000D03*
X129540000Y-91948000D03*
X129540000Y-70231000D03*
X124841000Y-145288000D03*
X140081000Y-132842000D03*
X136456000Y-58264000D03*
X165100000Y-121539000D03*
X124986000Y-114254000D03*
%TO.N,/CAN1_P*%
X139827000Y-143129000D03*
X126111000Y-143129000D03*
%TO.N,/CAN1_N*%
X127381000Y-142367000D03*
X141097000Y-142367000D03*
%TO.N,GND*%
X132842000Y-58293000D03*
X124996000Y-122354000D03*
X156083000Y-145288000D03*
X129540000Y-99187000D03*
X129540000Y-76200000D03*
X169926000Y-145288000D03*
X152273000Y-132842000D03*
X165100000Y-115062000D03*
X165100000Y-69850000D03*
X165100000Y-92583000D03*
X155166000Y-137160000D03*
X160782000Y-135890000D03*
X153166000Y-137160000D03*
X141400000Y-137160000D03*
X152180000Y-129260000D03*
X139446000Y-137160000D03*
X150241000Y-136652000D03*
X142367000Y-143129000D03*
X159255000Y-56491000D03*
X147066000Y-135890000D03*
X128651000Y-145288000D03*
X140462000Y-137160000D03*
X138557000Y-132842000D03*
X154178000Y-137160000D03*
X136398000Y-136652000D03*
%TO.N,+3V3*%
X157988000Y-135890000D03*
X121666000Y-102544000D03*
X120396000Y-94924000D03*
X144272000Y-135890000D03*
X150241000Y-138176000D03*
X136398000Y-138176000D03*
%TO.N,/PWM2{slash}1*%
X121896000Y-118344000D03*
X121896000Y-116877500D03*
%TO.N,/PH1*%
X132080000Y-81280000D03*
X134963500Y-81280000D03*
%TO.N,/ADC1{slash}8*%
X135255000Y-60452000D03*
%TO.N,/SPI1_MOSI*%
X122642701Y-99312701D03*
%TO.N,/RX*%
X125540000Y-132926500D03*
%TO.N,/TX*%
X123925902Y-133655891D03*
%TO.N,/~{SPI1_CS1}*%
X123880000Y-99100000D03*
%TO.N,/UART3_RX*%
X165100000Y-118999000D03*
%TO.N,/~{SPI2_CS2}*%
X130470000Y-97730000D03*
%TO.N,/CAN2_TX*%
X173646500Y-107620000D03*
%TO.N,/UART3_RTS*%
X165100000Y-116586000D03*
%TO.N,/CAN2_RX*%
X174752000Y-125984000D03*
X174360000Y-106080000D03*
X152781000Y-135509000D03*
%TO.N,/SPI1_SCK*%
X133439500Y-92964000D03*
X131699000Y-92964000D03*
%TO.N,/CAN2_N*%
X154813000Y-142429500D03*
X168656000Y-142494000D03*
%TO.N,/CAN2_P*%
X153543000Y-143129000D03*
X167386000Y-143129000D03*
%TD*%
D33*
%TO.N,/CAN2_N*%
X153853000Y-139197501D02*
X153853000Y-138710000D01*
X152306800Y-140237000D02*
X153647429Y-140237000D01*
X153953000Y-139297501D02*
X153853000Y-139197501D01*
X154803000Y-144174600D02*
X154403001Y-144574599D01*
X153647429Y-140237000D02*
X153953000Y-139931429D01*
X153953000Y-139931429D02*
X153953000Y-139297501D01*
X153849074Y-146275000D02*
X151925800Y-146275000D01*
X150778000Y-141765800D02*
X152306800Y-140237000D01*
X154403000Y-145721074D02*
X153849074Y-146275000D01*
X150778000Y-145127200D02*
X150778000Y-141765800D01*
X154403001Y-144574599D02*
X154403000Y-145721074D01*
X151925800Y-146275000D02*
X150778000Y-145127200D01*
%TO.N,/CAN2_P*%
X153833829Y-140687000D02*
X154403000Y-140117829D01*
X152493200Y-140687000D02*
X153833829Y-140687000D01*
X151228000Y-141952200D02*
X152493200Y-140687000D01*
X151228000Y-144940800D02*
X151228000Y-141952200D01*
X154503000Y-139197501D02*
X154503000Y-138710000D01*
X154403000Y-139297501D02*
X154503000Y-139197501D01*
X154403000Y-140117829D02*
X154403000Y-139297501D01*
X153662674Y-145825000D02*
X152112200Y-145825000D01*
X153952999Y-144574599D02*
X153953000Y-145534674D01*
X152112200Y-145825000D02*
X151228000Y-144940800D01*
X153953000Y-145534674D02*
X153662674Y-145825000D01*
X153553000Y-144174600D02*
X153952999Y-144574599D01*
D34*
%TO.N,/CAN2_TX*%
X173646500Y-107620000D02*
X173650000Y-107623500D01*
X173650000Y-107623500D02*
X173650000Y-133550000D01*
X173650000Y-133550000D02*
X172580000Y-134620000D01*
X172580000Y-134620000D02*
X156143000Y-134620000D01*
X156143000Y-134620000D02*
X155153000Y-135610000D01*
%TO.N,/UART3_TX*%
X121425499Y-134310499D02*
X121666000Y-134551000D01*
X113919000Y-125857000D02*
X114570228Y-125205772D01*
X134814604Y-134551000D02*
X138115604Y-131250000D01*
X138115604Y-131250000D02*
X153680000Y-131250000D01*
X114570228Y-125205772D02*
X118509373Y-125205772D01*
X118509373Y-125205772D02*
X121425499Y-128121898D01*
X121425499Y-128121898D02*
X121425499Y-134310499D01*
X113919000Y-143498050D02*
X113919000Y-125857000D01*
X121666000Y-134551000D02*
X134814604Y-134551000D01*
X114609550Y-144188600D02*
X113919000Y-143498050D01*
X115510500Y-144188600D02*
X114609550Y-144188600D01*
X153680000Y-131250000D02*
X164691000Y-120239000D01*
X164691000Y-120239000D02*
X167812000Y-120239000D01*
%TO.N,Net-(J13-Pad1)*%
X145156000Y-61954000D02*
X145156000Y-60464000D01*
X145156000Y-60464000D02*
X146270000Y-59350000D01*
X146270000Y-59350000D02*
X146995000Y-59350000D01*
%TO.N,Net-(J13-Pad2)*%
X148780000Y-64780000D02*
X148780000Y-59885000D01*
X148780000Y-59885000D02*
X148245000Y-59350000D01*
D35*
%TO.N,+5V*%
X140137000Y-135610000D02*
X140137000Y-133647000D01*
D36*
X153810000Y-132855000D02*
X153797000Y-132842000D01*
D35*
X127026000Y-115239000D02*
X125971000Y-115239000D01*
D36*
X153853000Y-135610000D02*
X153853000Y-133647000D01*
D35*
X129346000Y-91754000D02*
X129540000Y-91948000D01*
X138587000Y-144174600D02*
X138587000Y-145258000D01*
X136456000Y-58264000D02*
X136444200Y-58275800D01*
X165150000Y-76277000D02*
X165100000Y-76327000D01*
D36*
X153810000Y-133604000D02*
X153810000Y-132855000D01*
D35*
X160515000Y-56481000D02*
X160525000Y-56491000D01*
X140137000Y-133647000D02*
X140094000Y-133604000D01*
X167812000Y-76277000D02*
X165150000Y-76277000D01*
X140094000Y-132855000D02*
X140081000Y-132842000D01*
X165100000Y-121539000D02*
X167762000Y-121539000D01*
X152303000Y-144174600D02*
X152303000Y-143159000D01*
X143580000Y-126330000D02*
X143580000Y-123860000D01*
X166146000Y-144174600D02*
X166146000Y-145258000D01*
X165150000Y-98629000D02*
X165100000Y-98679000D01*
X125971000Y-115239000D02*
X124986000Y-114254000D01*
X151320000Y-72400000D02*
X149790000Y-73930000D01*
X167812000Y-98629000D02*
X165150000Y-98629000D01*
X140094000Y-133604000D02*
X140094000Y-132855000D01*
X152303000Y-143159000D02*
X152273000Y-143129000D01*
X166146000Y-145258000D02*
X166116000Y-145288000D01*
X138587000Y-145258000D02*
X138557000Y-145288000D01*
X165050000Y-76277000D02*
X165100000Y-76327000D01*
X126828000Y-91754000D02*
X129346000Y-91754000D01*
X165050000Y-98629000D02*
X165100000Y-98679000D01*
X167762000Y-121539000D02*
X167812000Y-121489000D01*
X143580000Y-123860000D02*
X142300000Y-122580000D01*
X165050000Y-121489000D02*
X165100000Y-121539000D01*
X160515000Y-55530000D02*
X160515000Y-56481000D01*
X126828000Y-70027000D02*
X129336000Y-70027000D01*
X136444200Y-58275800D02*
X136444200Y-59381000D01*
X124871000Y-144174600D02*
X124871000Y-145258000D01*
X149790000Y-73930000D02*
X149790000Y-76200000D01*
D36*
X153853000Y-133647000D02*
X153810000Y-133604000D01*
D35*
X129336000Y-70027000D02*
X129540000Y-70231000D01*
X124871000Y-145258000D02*
X124841000Y-145288000D01*
D33*
%TO.N,/CAN1_P*%
X142711867Y-146277333D02*
X143989000Y-145000200D01*
X140687000Y-139297501D02*
X140787000Y-139197501D01*
X142460200Y-140237000D02*
X141190200Y-140237000D01*
X140237000Y-145588673D02*
X140925660Y-146277333D01*
X141190200Y-140237000D02*
X140687000Y-139733800D01*
X140687000Y-139733800D02*
X140687000Y-139297501D01*
X126121000Y-143139000D02*
X126111000Y-143129000D01*
X140236999Y-144574599D02*
X140237000Y-145588673D01*
X140787000Y-139197501D02*
X140787000Y-138710000D01*
X143989000Y-145000200D02*
X143989000Y-141765800D01*
X126121000Y-144174600D02*
X126121000Y-143139000D01*
X143989000Y-141765800D02*
X142460200Y-140237000D01*
X139827000Y-143129000D02*
X139827000Y-144164600D01*
X140925660Y-146277333D02*
X142711867Y-146277333D01*
X139837000Y-144174600D02*
X140236999Y-144574599D01*
%TO.N,/CAN1_N*%
X127371000Y-142377000D02*
X127371000Y-144174600D01*
X141003800Y-140687000D02*
X140237000Y-139920200D01*
X142525467Y-145827333D02*
X143539000Y-144813800D01*
X141097000Y-142367000D02*
X141097000Y-144164600D01*
X140687000Y-145402273D02*
X141112060Y-145827333D01*
X142273800Y-140687000D02*
X141003800Y-140687000D01*
X140137000Y-139197501D02*
X140137000Y-138710000D01*
X140237000Y-139920200D02*
X140237000Y-139297501D01*
X143539000Y-144813800D02*
X143539000Y-141952200D01*
X141112060Y-145827333D02*
X142525467Y-145827333D01*
X143539000Y-141952200D02*
X142273800Y-140687000D01*
X140687001Y-144574599D02*
X140687000Y-145402273D01*
X140237000Y-139297501D02*
X140137000Y-139197501D01*
X141087000Y-144174600D02*
X140687001Y-144574599D01*
X127381000Y-142367000D02*
X127371000Y-142377000D01*
D35*
%TO.N,GND*%
X165304000Y-92379000D02*
X165100000Y-92583000D01*
X150254000Y-136639000D02*
X150241000Y-136652000D01*
X137160000Y-136639000D02*
X136411000Y-136639000D01*
D36*
X152260000Y-133604000D02*
X152260000Y-132855000D01*
D35*
X151003000Y-136639000D02*
X150254000Y-136639000D01*
X165277000Y-70027000D02*
X165100000Y-69850000D01*
X129617000Y-76277000D02*
X129540000Y-76200000D01*
X147066000Y-136589000D02*
X147066000Y-135890000D01*
X132694200Y-59381000D02*
X132694200Y-58440800D01*
D36*
X140589000Y-137160000D02*
X140787000Y-136962000D01*
D35*
X159265000Y-56481000D02*
X159255000Y-56491000D01*
X165100000Y-115062000D02*
X167635000Y-115062000D01*
X132694200Y-58440800D02*
X132842000Y-58293000D01*
D34*
X129463000Y-76277000D02*
X129540000Y-76200000D01*
D35*
X167812000Y-92379000D02*
X165304000Y-92379000D01*
X142337000Y-143159000D02*
X142367000Y-143129000D01*
X126828000Y-76277000D02*
X129463000Y-76277000D01*
D36*
X154178000Y-137160000D02*
X154503000Y-136835000D01*
D35*
X129607000Y-99254000D02*
X129540000Y-99187000D01*
X156053000Y-144174600D02*
X156053000Y-145258000D01*
X169896000Y-144174600D02*
X169896000Y-145258000D01*
X126828000Y-99254000D02*
X129473000Y-99254000D01*
X156053000Y-145258000D02*
X156083000Y-145288000D01*
X125861000Y-121489000D02*
X124996000Y-122354000D01*
X167812000Y-70027000D02*
X165277000Y-70027000D01*
X136411000Y-136639000D02*
X136398000Y-136652000D01*
X127026000Y-121489000D02*
X125861000Y-121489000D01*
X159265000Y-55530000D02*
X159265000Y-56481000D01*
D36*
X154503000Y-136835000D02*
X154503000Y-135610000D01*
X140787000Y-136962000D02*
X140787000Y-135610000D01*
D35*
X128621000Y-145258000D02*
X128651000Y-145288000D01*
X160782000Y-136589000D02*
X160782000Y-135890000D01*
X142337000Y-144174600D02*
X142337000Y-143159000D01*
X138544000Y-133604000D02*
X138544000Y-132855000D01*
X138544000Y-132855000D02*
X138557000Y-132842000D01*
X129473000Y-99254000D02*
X129540000Y-99187000D01*
X128621000Y-144174600D02*
X128621000Y-145258000D01*
X169896000Y-145258000D02*
X169926000Y-145288000D01*
D36*
X152260000Y-132855000D02*
X152273000Y-132842000D01*
D35*
X167635000Y-115062000D02*
X167812000Y-115239000D01*
D34*
%TO.N,/CAN_SILENT1*%
X143801000Y-138710000D02*
X144272000Y-138239000D01*
X144272000Y-138414000D02*
X147066000Y-138414000D01*
X141437000Y-138710000D02*
X143801000Y-138710000D01*
D35*
%TO.N,+3V3*%
X151003000Y-138557000D02*
X151156000Y-138710000D01*
X137567000Y-138710000D02*
X139487000Y-138710000D01*
X151156000Y-138710000D02*
X153203000Y-138710000D01*
X157988000Y-136589000D02*
X157988000Y-135890000D01*
X137160000Y-138189000D02*
X137160000Y-138303000D01*
X121666000Y-102544000D02*
X121666000Y-96194000D01*
X137160000Y-138303000D02*
X137567000Y-138710000D01*
X144272000Y-136589000D02*
X144272000Y-135890000D01*
X151003000Y-138189000D02*
X150254000Y-138189000D01*
X151003000Y-138189000D02*
X151003000Y-138557000D01*
X121666000Y-96194000D02*
X120396000Y-94924000D01*
X137160000Y-138189000D02*
X136411000Y-138189000D01*
X136411000Y-138189000D02*
X136398000Y-138176000D01*
X150254000Y-138189000D02*
X150241000Y-138176000D01*
D34*
%TO.N,/UART4_TX*%
X126828000Y-71277000D02*
X121315000Y-71277000D01*
X120142000Y-70104000D02*
X120142000Y-58259090D01*
X121315000Y-71277000D02*
X120142000Y-70104000D01*
X120142000Y-58259090D02*
X118222910Y-56340000D01*
X118222910Y-56340000D02*
X116999100Y-56340000D01*
X116999100Y-56340000D02*
X115510500Y-57828600D01*
%TO.N,/UART4_RX*%
X119634000Y-70358000D02*
X121803000Y-72527000D01*
X121803000Y-72527000D02*
X126828000Y-72527000D01*
X118534600Y-57828600D02*
X119634000Y-58928000D01*
X118050500Y-57828600D02*
X118534600Y-57828600D01*
X119634000Y-58928000D02*
X119634000Y-70358000D01*
%TO.N,/UART4_RTS*%
X116784778Y-76874322D02*
X123225678Y-76874322D01*
X123225678Y-76874322D02*
X125066000Y-75034000D01*
X125066000Y-75034000D02*
X126821000Y-75034000D01*
X115510500Y-78148600D02*
X116784778Y-76874322D01*
X126821000Y-75034000D02*
X126828000Y-75027000D01*
%TO.N,/PWM2{slash}1*%
X122284500Y-116489000D02*
X121896000Y-116877500D01*
X114312089Y-120154089D02*
X113538000Y-119380000D01*
X113538000Y-92710000D02*
X114173000Y-92075000D01*
X114173000Y-92075000D02*
X116824100Y-92075000D01*
X116824100Y-92075000D02*
X118050500Y-90848600D01*
X113538000Y-119380000D02*
X113538000Y-92710000D01*
X120085911Y-120154089D02*
X114312089Y-120154089D01*
X127026000Y-116489000D02*
X122284500Y-116489000D01*
X121896000Y-118344000D02*
X120085911Y-120154089D01*
%TO.N,/PWM2{slash}2*%
X114046000Y-95377000D02*
X114046000Y-117094000D01*
X118050500Y-93388600D02*
X116824100Y-94615000D01*
X114808000Y-94615000D02*
X114046000Y-95377000D01*
X126889000Y-117602000D02*
X127026000Y-117739000D01*
X114554000Y-117602000D02*
X126889000Y-117602000D01*
X114046000Y-117094000D02*
X114554000Y-117602000D01*
X116824100Y-94615000D02*
X114808000Y-94615000D01*
%TO.N,/PH1*%
X137160000Y-76200000D02*
X147790000Y-76200000D01*
X116388799Y-95928600D02*
X115510500Y-95928600D01*
X134963500Y-81280000D02*
X135144504Y-81098996D01*
X135144504Y-81098996D02*
X135144504Y-78215496D01*
X146240000Y-72400000D02*
X147790000Y-73950000D01*
X118606400Y-94753600D02*
X117563799Y-94753600D01*
X147790000Y-73950000D02*
X147790000Y-76200000D01*
X117563799Y-94753600D02*
X116388799Y-95928600D01*
X132080000Y-81280000D02*
X118606400Y-94753600D01*
X135144504Y-78215496D02*
X137160000Y-76200000D01*
%TO.N,/ADC1{slash}8*%
X135255000Y-59441800D02*
X135194200Y-59381000D01*
X135255000Y-60452000D02*
X135255000Y-59441800D01*
%TO.N,/UART2_RTS*%
X116824100Y-104775000D02*
X118745000Y-104775000D01*
X161417000Y-107315000D02*
X161417000Y-94996000D01*
X120904000Y-108839000D02*
X131063302Y-108839000D01*
X115510500Y-106088600D02*
X116824100Y-104775000D01*
X131063302Y-108839000D02*
X132079302Y-107823000D01*
X161417000Y-94996000D02*
X162784000Y-93629000D01*
X160909000Y-107823000D02*
X161417000Y-107315000D01*
X162784000Y-93629000D02*
X167812000Y-93629000D01*
X119380000Y-105410000D02*
X119380000Y-107315000D01*
X119380000Y-107315000D02*
X120904000Y-108839000D01*
X118745000Y-104775000D02*
X119380000Y-105410000D01*
X132079302Y-107823000D02*
X160909000Y-107823000D01*
%TO.N,/UART2_CTS*%
X162296000Y-94879000D02*
X167812000Y-94879000D01*
X131318000Y-109347000D02*
X132334000Y-108331000D01*
X161163000Y-108331000D02*
X161925000Y-107569000D01*
X161925000Y-107569000D02*
X161925000Y-95250000D01*
X132334000Y-108331000D02*
X161163000Y-108331000D01*
X118050500Y-106088600D02*
X118050500Y-106747500D01*
X118050500Y-106747500D02*
X120650000Y-109347000D01*
X161925000Y-95250000D02*
X162296000Y-94879000D01*
X120650000Y-109347000D02*
X131318000Y-109347000D01*
%TO.N,/UART2_TX*%
X171069000Y-97917000D02*
X171069000Y-104775000D01*
X171069000Y-104775000D02*
X167005000Y-108839000D01*
X170531000Y-97379000D02*
X171069000Y-97917000D01*
X132588000Y-108839000D02*
X131572000Y-109855000D01*
X167005000Y-108839000D02*
X132588000Y-108839000D01*
X116736900Y-109855000D02*
X115510500Y-108628600D01*
X167812000Y-97379000D02*
X170531000Y-97379000D01*
X131572000Y-109855000D02*
X116736900Y-109855000D01*
%TO.N,/UART2_RX*%
X171577000Y-105029000D02*
X167259000Y-109347000D01*
X118951122Y-112442878D02*
X116784778Y-112442878D01*
X131826000Y-110363000D02*
X119888000Y-110363000D01*
X171577000Y-97662302D02*
X171577000Y-105029000D01*
X167812000Y-96129000D02*
X170043698Y-96129000D01*
X170043698Y-96129000D02*
X171577000Y-97662302D01*
X119380000Y-112014000D02*
X118951122Y-112442878D01*
X167259000Y-109347000D02*
X132842000Y-109347000D01*
X119380000Y-110871000D02*
X119380000Y-112014000D01*
X116784778Y-112442878D02*
X115510500Y-111168600D01*
X132842000Y-109347000D02*
X131826000Y-110363000D01*
X119888000Y-110363000D02*
X119380000Y-110871000D01*
%TO.N,/SPI1_MOSI*%
X122642701Y-99312701D02*
X122642701Y-99155347D01*
X126294048Y-95504000D02*
X126828000Y-95504000D01*
X122642701Y-99155347D02*
X126294048Y-95504000D01*
%TO.N,/CAN1_TX*%
X137885000Y-132117000D02*
X140880000Y-132117000D01*
X116784778Y-127682878D02*
X118919878Y-127682878D01*
X136652000Y-135001000D02*
X137160000Y-134493000D01*
X137160000Y-134493000D02*
X137160000Y-132842000D01*
X120396000Y-134366000D02*
X121031000Y-135001000D01*
X141437000Y-132674000D02*
X141437000Y-135610000D01*
X119380000Y-128143000D02*
X119380000Y-129921000D01*
X140880000Y-132117000D02*
X141437000Y-132674000D01*
X118919878Y-127682878D02*
X119380000Y-128143000D01*
X137160000Y-132842000D02*
X137885000Y-132117000D01*
X120396000Y-130937000D02*
X120396000Y-134366000D01*
X121031000Y-135001000D02*
X136652000Y-135001000D01*
X115510500Y-126408600D02*
X116784778Y-127682878D01*
X119380000Y-129921000D02*
X120396000Y-130937000D01*
%TO.N,/CAN1_RX*%
X116784778Y-130222878D02*
X115510500Y-128948600D01*
X139487000Y-135610000D02*
X139386000Y-135509000D01*
X118919878Y-130222878D02*
X116784778Y-130222878D01*
X139386000Y-135509000D02*
X120777000Y-135509000D01*
X120777000Y-135509000D02*
X119888000Y-134620000D01*
X119888000Y-134620000D02*
X119888000Y-131191000D01*
X119888000Y-131191000D02*
X118919878Y-130222878D01*
%TO.N,/RX*%
X136878000Y-130317000D02*
X142133000Y-130317000D01*
X134268500Y-132926500D02*
X136878000Y-130317000D01*
X142133000Y-130317000D02*
X146120000Y-126330000D01*
X125540000Y-132926500D02*
X134268500Y-132926500D01*
%TO.N,/TX*%
X134179718Y-133651000D02*
X137064198Y-130766520D01*
X123930793Y-133651000D02*
X134179718Y-133651000D01*
X144223480Y-130766520D02*
X148660000Y-126330000D01*
X123925902Y-133655891D02*
X123930793Y-133651000D01*
X137064198Y-130766520D02*
X144223480Y-130766520D01*
%TO.N,/~{SPI1_CS1}*%
X123880000Y-99100000D02*
X123880000Y-99098151D01*
X123880000Y-99098151D02*
X126224151Y-96754000D01*
X126224151Y-96754000D02*
X126828000Y-96754000D01*
%TO.N,/UART3_RX*%
X167802000Y-118999000D02*
X167812000Y-118989000D01*
X165100000Y-118999000D02*
X167802000Y-118999000D01*
%TO.N,/UART1_RTS*%
X177696900Y-69215000D02*
X179010500Y-70528600D01*
X173452000Y-71277000D02*
X175514000Y-69215000D01*
X175514000Y-69215000D02*
X177696900Y-69215000D01*
X167812000Y-71277000D02*
X173452000Y-71277000D01*
%TO.N,/UART1_CTS*%
X177696900Y-71755000D02*
X175514000Y-71755000D01*
X179010500Y-73068600D02*
X177696900Y-71755000D01*
X174498000Y-72771000D02*
X168056000Y-72771000D01*
X168056000Y-72771000D02*
X167812000Y-72527000D01*
X175514000Y-71755000D02*
X174498000Y-72771000D01*
%TO.N,/~{SPI2_CS2}*%
X130470000Y-97730000D02*
X127102000Y-97730000D01*
X127102000Y-97730000D02*
X126828000Y-98004000D01*
%TO.N,/UART1_TX*%
X176470500Y-83228600D02*
X175006000Y-81764100D01*
X175006000Y-76346000D02*
X173690000Y-75030000D01*
X172877000Y-75027000D02*
X167812000Y-75027000D01*
X175006000Y-81764100D02*
X175006000Y-76346000D01*
X173690000Y-75030000D02*
X172890000Y-75030000D01*
%TO.N,/ADC1{slash}9*%
X134239000Y-83439000D02*
X134239000Y-59675800D01*
X135255000Y-84455000D02*
X134239000Y-83439000D01*
X177696900Y-84455000D02*
X135255000Y-84455000D01*
X179010500Y-85768600D02*
X177696900Y-84455000D01*
X134239000Y-59675800D02*
X133944200Y-59381000D01*
%TO.N,/UART4_CTS*%
X173736000Y-84963000D02*
X175827828Y-87054828D01*
X133731000Y-74930000D02*
X132578000Y-73777000D01*
X175827828Y-87054828D02*
X177756728Y-87054828D01*
X132578000Y-73777000D02*
X126828000Y-73777000D01*
X133731000Y-83693000D02*
X135001000Y-84963000D01*
X135001000Y-84963000D02*
X173736000Y-84963000D01*
X177756728Y-87054828D02*
X179010500Y-88308600D01*
X133731000Y-74930000D02*
X133731000Y-83693000D01*
%TO.N,/SPI1_MISO*%
X175006000Y-88773000D02*
X175006000Y-86996396D01*
X132715000Y-87630000D02*
X132715000Y-93980000D01*
X176470500Y-90237500D02*
X176470500Y-90848600D01*
X175006000Y-86996396D02*
X173480604Y-85471000D01*
X134874000Y-85471000D02*
X132715000Y-87630000D01*
X132715000Y-93980000D02*
X132441000Y-94254000D01*
X175006000Y-88773000D02*
X176470500Y-90237500D01*
X126828000Y-94254000D02*
X132441000Y-94254000D01*
X173480604Y-85471000D02*
X134874000Y-85471000D01*
%TO.N,/UART3_RTS*%
X165100000Y-116586000D02*
X167715000Y-116586000D01*
X167715000Y-116586000D02*
X167812000Y-116489000D01*
%TO.N,/CAN2_RX*%
X153203000Y-135610000D02*
X152882000Y-135610000D01*
X174371000Y-106091000D02*
X174371000Y-125603000D01*
X174371000Y-125603000D02*
X174752000Y-125984000D01*
X152882000Y-135610000D02*
X152781000Y-135509000D01*
X174360000Y-106080000D02*
X174371000Y-106091000D01*
%TO.N,/SPI1_SCK*%
X126828000Y-93004000D02*
X131659000Y-93004000D01*
X135128000Y-85979000D02*
X173228000Y-85979000D01*
X174498000Y-87249000D02*
X174498000Y-93956100D01*
X133223000Y-87884000D02*
X135128000Y-85979000D01*
X173228000Y-85979000D02*
X174498000Y-87249000D01*
X174498000Y-93956100D02*
X176470500Y-95928600D01*
X133439500Y-92964000D02*
X133223000Y-92747500D01*
X131659000Y-93004000D02*
X131699000Y-92964000D01*
X133223000Y-92747500D02*
X133223000Y-87884000D01*
%TO.N,/UART1_RX*%
X180340000Y-97155000D02*
X181102000Y-96393000D01*
X175514000Y-74422000D02*
X174502000Y-73410000D01*
X177784100Y-97155000D02*
X180340000Y-97155000D01*
X181102000Y-96393000D02*
X181102000Y-74930000D01*
X174502000Y-73410000D02*
X168179000Y-73410000D01*
X181102000Y-74930000D02*
X180594000Y-74422000D01*
X176470500Y-98468600D02*
X177784100Y-97155000D01*
X180594000Y-74422000D02*
X175514000Y-74422000D01*
X168179000Y-73410000D02*
X167812000Y-73777000D01*
%TO.N,/PWM2{slash}3*%
X176359400Y-101008600D02*
X167513000Y-109855000D01*
X132536480Y-110414520D02*
X132536480Y-116917520D01*
X133096000Y-109855000D02*
X132536480Y-110414520D01*
X176470500Y-101008600D02*
X176359400Y-101008600D01*
X167513000Y-109855000D02*
X133096000Y-109855000D01*
X132536480Y-116917520D02*
X130465000Y-118989000D01*
X130465000Y-118989000D02*
X127026000Y-118989000D01*
%TO.N,/PWM2{slash}4*%
X174581400Y-103548600D02*
X176470500Y-103548600D01*
X127026000Y-120239000D02*
X129851000Y-120239000D01*
X167767000Y-110363000D02*
X174581400Y-103548600D01*
X132986000Y-117104000D02*
X132986000Y-110727698D01*
X133350698Y-110363000D02*
X167767000Y-110363000D01*
X132986000Y-110727698D02*
X133350698Y-110363000D01*
X129851000Y-120239000D02*
X132986000Y-117104000D01*
D33*
%TO.N,/CAN2_N*%
X168656000Y-142494000D02*
X168656000Y-144164600D01*
X154803000Y-142439500D02*
X154813000Y-142429500D01*
X154803000Y-144174600D02*
X154803000Y-142439500D01*
X168656000Y-144164600D02*
X168646000Y-144174600D01*
%TO.N,/CAN2_P*%
X167386000Y-143129000D02*
X167386000Y-144164600D01*
X153553000Y-144174600D02*
X153553000Y-143139000D01*
X153553000Y-143139000D02*
X153543000Y-143129000D01*
D34*
%TO.N,/CAN_SILENT2*%
X157988000Y-138239000D02*
X160782000Y-138239000D01*
X157517000Y-138710000D02*
X157988000Y-138239000D01*
X155153000Y-138710000D02*
X157517000Y-138710000D01*
%TO.N,Net-(J13-Pad2)*%
X148746000Y-64746000D02*
X148780000Y-64780000D01*
%TO.N,Net-(R5-Pad2)*%
X147156000Y-61954000D02*
X147156000Y-63614000D01*
X147156000Y-63614000D02*
X146240000Y-64530000D01*
X146240000Y-64530000D02*
X146240000Y-64780000D01*
%TD*%
M02*
