M48
; DRILL file {KiCad (6.0.1-0)} date Sunday, January 01, 2023 at 10:50:46 AM
; FORMAT={-:-/ absolute / metric / decimal}
; #@! TF.CreationDate,2023-01-01T10:50:46-08:00
; #@! TF.GenerationSoftware,Kicad,Pcbnew,(6.0.1-0)
; #@! TF.FileFunction,MixedPlating,1,4
FMAT,2
METRIC
; #@! TA.AperFunction,Plated,PTH,ViaDrill
T1C0.400
; #@! TA.AperFunction,Plated,PTH,ComponentDrill
T2C0.800
; #@! TA.AperFunction,Plated,PTH,ComponentDrill
T3C1.000
; #@! TA.AperFunction,NonPlated,NPTH,ComponentDrill
T4C2.500
%
G90
G05
T1
X120.396Y-94.924
X121.666Y-102.544
X121.896Y-116.877
X121.896Y-118.344
X122.643Y-99.313
X123.88Y-99.1
X123.926Y-133.656
X124.841Y-145.288
X124.986Y-114.254
X124.996Y-122.354
X125.54Y-132.927
X126.111Y-143.129
X127.381Y-142.367
X128.651Y-145.288
X129.54Y-70.231
X129.54Y-76.2
X129.54Y-91.948
X129.54Y-99.187
X130.47Y-97.73
X131.699Y-92.964
X132.08Y-81.28
X132.842Y-58.293
X133.439Y-92.964
X134.963Y-81.28
X135.255Y-60.452
X136.398Y-136.652
X136.398Y-138.176
X136.456Y-58.264
X138.557Y-132.842
X138.557Y-145.288
X139.446Y-137.16
X139.827Y-143.129
X140.081Y-132.842
X140.462Y-137.16
X141.097Y-142.367
X141.4Y-137.16
X142.3Y-122.58
X142.367Y-143.129
X144.272Y-135.89
X147.066Y-135.89
X150.241Y-136.652
X150.241Y-138.176
X152.18Y-129.26
X152.273Y-132.842
X152.273Y-143.129
X152.781Y-135.509
X153.166Y-137.16
X153.543Y-143.129
X153.797Y-132.842
X154.178Y-137.16
X154.813Y-142.429
X155.166Y-137.16
X156.083Y-145.288
X157.988Y-135.89
X159.255Y-56.491
X160.525Y-56.491
X160.782Y-135.89
X165.1Y-69.85
X165.1Y-76.327
X165.1Y-92.583
X165.1Y-98.679
X165.1Y-115.062
X165.1Y-116.586
X165.1Y-118.999
X165.1Y-121.539
X166.116Y-145.288
X167.386Y-143.129
X168.656Y-142.494
X169.926Y-145.288
X173.647Y-107.62
X174.36Y-106.08
X174.752Y-125.984
T2
X143.7Y-64.78
X143.7Y-72.4
X146.24Y-64.78
X146.24Y-72.4
X148.78Y-64.78
X148.78Y-72.4
X151.32Y-64.78
X151.32Y-72.4
T3
X115.51Y-57.829
X115.51Y-60.369
X115.51Y-62.909
X115.51Y-65.449
X115.51Y-67.989
X115.51Y-70.529
X115.51Y-73.069
X115.51Y-75.609
X115.51Y-78.149
X115.51Y-80.689
X115.51Y-83.229
X115.51Y-85.769
X115.51Y-88.309
X115.51Y-90.849
X115.51Y-93.389
X115.51Y-95.929
X115.51Y-98.469
X115.51Y-101.009
X115.51Y-103.549
X115.51Y-106.089
X115.51Y-108.629
X115.51Y-111.169
X115.51Y-113.709
X115.51Y-116.249
X115.51Y-118.789
X115.51Y-121.329
X115.51Y-123.869
X115.51Y-126.409
X115.51Y-128.949
X115.51Y-131.489
X115.51Y-134.029
X115.51Y-136.569
X115.51Y-139.109
X115.51Y-141.649
X115.51Y-144.189
X115.51Y-146.729
X118.05Y-57.829
X118.05Y-60.369
X118.05Y-62.909
X118.05Y-65.449
X118.05Y-67.989
X118.05Y-70.529
X118.05Y-73.069
X118.05Y-75.609
X118.05Y-78.149
X118.05Y-80.689
X118.05Y-83.229
X118.05Y-85.769
X118.05Y-88.309
X118.05Y-90.849
X118.05Y-93.389
X118.05Y-95.929
X118.05Y-98.469
X118.05Y-101.009
X118.05Y-103.549
X118.05Y-106.089
X118.05Y-108.629
X118.05Y-111.169
X118.05Y-113.709
X118.05Y-116.249
X118.05Y-118.789
X118.05Y-121.329
X118.05Y-123.869
X118.05Y-126.409
X118.05Y-128.949
X118.05Y-131.489
X118.05Y-134.029
X118.05Y-136.569
X118.05Y-139.109
X118.05Y-141.649
X118.05Y-144.189
X118.05Y-146.729
X141.04Y-113.63
X141.04Y-126.33
X143.58Y-113.63
X143.58Y-126.33
X146.12Y-113.63
X146.12Y-126.33
X148.66Y-113.63
X148.66Y-126.33
X151.2Y-113.63
X151.2Y-126.33
X153.74Y-113.63
X153.74Y-126.33
X176.47Y-57.829
X176.47Y-60.369
X176.47Y-62.909
X176.47Y-65.449
X176.47Y-67.989
X176.47Y-70.529
X176.47Y-73.069
X176.47Y-75.609
X176.47Y-78.149
X176.47Y-80.689
X176.47Y-83.229
X176.47Y-85.769
X176.47Y-88.309
X176.47Y-90.849
X176.47Y-93.389
X176.47Y-95.929
X176.47Y-98.469
X176.47Y-101.009
X176.47Y-103.549
X176.47Y-106.089
X176.47Y-108.629
X176.47Y-111.169
X176.47Y-113.709
X176.47Y-116.249
X176.47Y-118.789
X176.47Y-121.329
X176.47Y-123.869
X176.47Y-126.409
X176.47Y-128.949
X176.47Y-131.489
X176.47Y-134.029
X176.47Y-136.569
X176.47Y-139.109
X176.47Y-141.649
X176.47Y-144.189
X176.47Y-146.729
X179.01Y-57.829
X179.01Y-60.369
X179.01Y-62.909
X179.01Y-65.449
X179.01Y-67.989
X179.01Y-70.529
X179.01Y-73.069
X179.01Y-75.609
X179.01Y-78.149
X179.01Y-80.689
X179.01Y-83.229
X179.01Y-85.769
X179.01Y-88.309
X179.01Y-90.849
X179.01Y-93.389
X179.01Y-95.929
X179.01Y-98.469
X179.01Y-101.009
X179.01Y-103.549
X179.01Y-106.089
X179.01Y-108.629
X179.01Y-111.169
X179.01Y-113.709
X179.01Y-116.249
X179.01Y-118.789
X179.01Y-121.329
X179.01Y-123.869
X179.01Y-126.409
X179.01Y-128.949
X179.01Y-131.489
X179.01Y-134.029
X179.01Y-136.569
X179.01Y-139.109
X179.01Y-141.649
X179.01Y-144.189
X179.01Y-146.729
T4
X123.13Y-54.019
X123.13Y-130.219
X156.15Y-106.069
X171.391Y-55.269
X171.391Y-130.219
T0
M30
