M48
; DRILL file {KiCad (6.0.1-0)} date Friday, January 20, 2023 at 10:08:10 AM
; FORMAT={-:-/ absolute / metric / decimal}
; #@! TF.CreationDate,2023-01-20T10:08:10-08:00
; #@! TF.GenerationSoftware,Kicad,Pcbnew,(6.0.1-0)
; #@! TF.FileFunction,MixedPlating,1,6
FMAT,2
METRIC
; #@! TA.AperFunction,Plated,PTH,ViaDrill
T1C0.400
; #@! TA.AperFunction,Plated,PTH,ComponentDrill
T2C0.700
; #@! TA.AperFunction,Plated,PTH,ComponentDrill
T3C1.020
; #@! TA.AperFunction,Plated,PTH,ComponentDrill
T4C1.300
; #@! TA.AperFunction,NonPlated,NPTH,ComponentDrill
T5C3.200
; #@! TA.AperFunction,NonPlated,NPTH,ComponentDrill
T6C4.300
%
G90
G05
T1
X135.78Y-116.19
X141.15Y-116.19
T2
X142.07Y-61.902
X142.07Y-63.902
X142.07Y-65.903
X142.07Y-67.903
X142.07Y-69.903
X144.07Y-61.902
X144.07Y-63.902
X144.07Y-65.903
X144.07Y-67.903
X144.07Y-69.903
T3
X129.0Y-61.892
X129.0Y-64.392
X129.0Y-66.892
X129.0Y-69.392
X129.0Y-71.892
X132.0Y-61.892
X132.0Y-64.392
X132.0Y-66.892
X132.0Y-69.392
X132.0Y-71.892
X134.5Y-61.892
X134.5Y-64.392
X134.5Y-66.892
X134.5Y-69.392
X134.5Y-71.892
X137.5Y-61.892
X137.5Y-64.392
X137.5Y-66.892
X137.5Y-69.392
X137.5Y-71.892
X149.71Y-61.892
X149.71Y-64.392
X149.71Y-66.892
X149.71Y-69.392
X149.71Y-71.892
X152.71Y-61.892
X152.71Y-64.392
X152.71Y-66.892
X152.71Y-69.392
X152.71Y-71.892
X155.21Y-61.892
X155.21Y-64.392
X155.21Y-66.892
X155.21Y-69.392
X155.21Y-71.892
X158.21Y-61.892
X158.21Y-64.392
X158.21Y-66.892
X158.21Y-69.392
X158.21Y-71.892
X160.71Y-61.892
X160.71Y-64.392
X160.71Y-66.892
X160.71Y-69.392
X160.71Y-71.892
X163.71Y-61.892
X163.71Y-64.392
X163.71Y-66.892
X163.71Y-69.392
X163.71Y-71.892
T4
X116.085Y-119.82
X121.165Y-119.82
X157.24Y-119.8
X162.32Y-119.8
X167.4Y-119.8
T5
X123.5Y-66.892
X169.21Y-66.892
T6
X141.56Y-94.6
X157.96Y-78.0
X157.96Y-111.0
T0
M30
