%TF.GenerationSoftware,KiCad,Pcbnew,(6.0.1-0)*%
%TF.CreationDate,2023-01-20T10:08:17-08:00*%
%TF.ProjectId,ESC Daughterboard,45534320-4461-4756-9768-746572626f61,rev?*%
%TF.SameCoordinates,Original*%
%TF.FileFunction,Soldermask,Top*%
%TF.FilePolarity,Negative*%
%FSLAX46Y46*%
G04 Gerber Fmt 4.6, Leading zero omitted, Abs format (unit mm)*
G04 Created by KiCad (PCBNEW (6.0.1-0)) date 2023-01-20 10:08:17*
%MOMM*%
%LPD*%
G01*
G04 APERTURE LIST*
G04 Aperture macros list*
%AMRoundRect*
0 Rectangle with rounded corners*
0 $1 Rounding radius*
0 $2 $3 $4 $5 $6 $7 $8 $9 X,Y pos of 4 corners*
0 Add a 4 corners polygon primitive as box body*
4,1,4,$2,$3,$4,$5,$6,$7,$8,$9,$2,$3,0*
0 Add four circle primitives for the rounded corners*
1,1,$1+$1,$2,$3*
1,1,$1+$1,$4,$5*
1,1,$1+$1,$6,$7*
1,1,$1+$1,$8,$9*
0 Add four rect primitives between the rounded corners*
20,1,$1+$1,$2,$3,$4,$5,0*
20,1,$1+$1,$4,$5,$6,$7,0*
20,1,$1+$1,$6,$7,$8,$9,0*
20,1,$1+$1,$8,$9,$2,$3,0*%
G04 Aperture macros list end*
%ADD10R,2.500000X2.500000*%
%ADD11C,2.500000*%
%ADD12C,4.300000*%
%ADD13RoundRect,0.150000X0.150000X0.700000X-0.150000X0.700000X-0.150000X-0.700000X0.150000X-0.700000X0*%
%ADD14RoundRect,0.250000X0.250000X1.150000X-0.250000X1.150000X-0.250000X-1.150000X0.250000X-1.150000X0*%
%ADD15C,3.200000*%
%ADD16R,1.208000X1.208000*%
%ADD17C,1.208000*%
%ADD18C,1.530000*%
G04 APERTURE END LIST*
D10*
%TO.C,Phase 1*%
X167400000Y-119800000D03*
D11*
X162320000Y-119800000D03*
X157240000Y-119800000D03*
%TD*%
D12*
%TO.C,H1*%
X157960000Y-111000000D03*
%TD*%
D13*
%TO.C,CAN*%
X140375000Y-118460000D03*
X139125000Y-118460000D03*
X137875000Y-118460000D03*
X136625000Y-118460000D03*
D14*
X134775000Y-121810000D03*
X142225000Y-121810000D03*
%TD*%
D15*
%TO.C,J5*%
X123500000Y-66892500D03*
X169210000Y-66892500D03*
D16*
X144070000Y-61902500D03*
D17*
X142070000Y-61902500D03*
X144070000Y-63902500D03*
X142070000Y-63902500D03*
X144070000Y-65902500D03*
X142070000Y-65902500D03*
X144070000Y-67902500D03*
X142070000Y-67902500D03*
X144070000Y-69902500D03*
X142070000Y-69902500D03*
D18*
X163710000Y-71892500D03*
X163710000Y-69392500D03*
X163710000Y-66892500D03*
X163710000Y-64392500D03*
X163710000Y-61892500D03*
X160710000Y-61892500D03*
X160710000Y-64392500D03*
X160710000Y-66892500D03*
X160710000Y-69392500D03*
X160710000Y-71892500D03*
X158210000Y-71892500D03*
X158210000Y-69392500D03*
X158210000Y-66892500D03*
X158210000Y-64392500D03*
X158210000Y-61892500D03*
X155210000Y-61892500D03*
X155210000Y-64392500D03*
X155210000Y-66892500D03*
X155210000Y-69392500D03*
X155210000Y-71892500D03*
X152710000Y-71892500D03*
X152710000Y-69392500D03*
X152710000Y-66892500D03*
X152710000Y-64392500D03*
X152710000Y-61892500D03*
X149710000Y-61892500D03*
X149710000Y-64392500D03*
X149710000Y-66892500D03*
X149710000Y-69392500D03*
X149710000Y-71892500D03*
X137500000Y-71892500D03*
X137500000Y-69392500D03*
X137500000Y-66892500D03*
X137500000Y-64392500D03*
X137500000Y-61892500D03*
X134500000Y-61892500D03*
X134500000Y-64392500D03*
X134500000Y-66892500D03*
X134500000Y-69392500D03*
X134500000Y-71892500D03*
X132000000Y-71892500D03*
X132000000Y-69392500D03*
X132000000Y-66892500D03*
X132000000Y-64392500D03*
X132000000Y-61892500D03*
X129000000Y-61892500D03*
X129000000Y-64392500D03*
X129000000Y-66892500D03*
X129000000Y-69392500D03*
X129000000Y-71892500D03*
%TD*%
D12*
%TO.C,H3*%
X141560000Y-94600000D03*
%TD*%
%TO.C,H2*%
X157960000Y-78000000D03*
%TD*%
D10*
%TO.C,J2*%
X121165000Y-119820000D03*
D11*
X116085000Y-119820000D03*
%TD*%
M02*
