%TF.GenerationSoftware,KiCad,Pcbnew,(6.0.1-0)*%
%TF.CreationDate,2023-01-20T10:08:16-08:00*%
%TF.ProjectId,ESC Daughterboard,45534320-4461-4756-9768-746572626f61,rev?*%
%TF.SameCoordinates,Original*%
%TF.FileFunction,Legend,Top*%
%TF.FilePolarity,Positive*%
%FSLAX46Y46*%
G04 Gerber Fmt 4.6, Leading zero omitted, Abs format (unit mm)*
G04 Created by KiCad (PCBNEW (6.0.1-0)) date 2023-01-20 10:08:16*
%MOMM*%
%LPD*%
G01*
G04 APERTURE LIST*
%ADD10C,0.150000*%
%ADD11C,0.100000*%
%ADD12C,0.120000*%
%ADD13C,0.200000*%
G04 APERTURE END LIST*
D10*
X172500000Y-75000000D02*
X132000000Y-75000000D01*
X105500000Y-75000000D02*
X105500000Y-114000000D01*
X172500000Y-75000000D02*
X127000000Y-75000000D01*
X105500000Y-114000000D02*
X172500000Y-114000000D01*
X127000000Y-75000000D02*
X127000000Y-114000000D01*
X172500000Y-75000000D02*
X105500000Y-75000000D01*
X172500000Y-114000000D02*
X172500000Y-75000000D01*
D11*
X138893809Y-116416190D02*
X138893809Y-115916190D01*
X139108095Y-116416190D02*
X139108095Y-116154285D01*
X139084285Y-116106666D01*
X139036666Y-116082857D01*
X138965238Y-116082857D01*
X138917619Y-116106666D01*
X138893809Y-116130476D01*
X139346190Y-116416190D02*
X139346190Y-116082857D01*
X139346190Y-115916190D02*
X139322380Y-115940000D01*
X139346190Y-115963809D01*
X139370000Y-115940000D01*
X139346190Y-115916190D01*
X139346190Y-115963809D01*
D10*
X124859047Y-119901428D02*
X125620952Y-119901428D01*
X125240000Y-120282380D02*
X125240000Y-119520476D01*
X152677619Y-116982857D02*
X153677619Y-116982857D01*
X153677619Y-117363809D01*
X153630000Y-117459047D01*
X153582380Y-117506666D01*
X153487142Y-117554285D01*
X153344285Y-117554285D01*
X153249047Y-117506666D01*
X153201428Y-117459047D01*
X153153809Y-117363809D01*
X153153809Y-116982857D01*
X152677619Y-117982857D02*
X153677619Y-117982857D01*
X152677619Y-118411428D02*
X153201428Y-118411428D01*
X153296666Y-118363809D01*
X153344285Y-118268571D01*
X153344285Y-118125714D01*
X153296666Y-118030476D01*
X153249047Y-117982857D01*
X152677619Y-119316190D02*
X153201428Y-119316190D01*
X153296666Y-119268571D01*
X153344285Y-119173333D01*
X153344285Y-118982857D01*
X153296666Y-118887619D01*
X152725238Y-119316190D02*
X152677619Y-119220952D01*
X152677619Y-118982857D01*
X152725238Y-118887619D01*
X152820476Y-118840000D01*
X152915714Y-118840000D01*
X153010952Y-118887619D01*
X153058571Y-118982857D01*
X153058571Y-119220952D01*
X153106190Y-119316190D01*
X152725238Y-119744761D02*
X152677619Y-119840000D01*
X152677619Y-120030476D01*
X152725238Y-120125714D01*
X152820476Y-120173333D01*
X152868095Y-120173333D01*
X152963333Y-120125714D01*
X153010952Y-120030476D01*
X153010952Y-119887619D01*
X153058571Y-119792380D01*
X153153809Y-119744761D01*
X153201428Y-119744761D01*
X153296666Y-119792380D01*
X153344285Y-119887619D01*
X153344285Y-120030476D01*
X153296666Y-120125714D01*
X152725238Y-120982857D02*
X152677619Y-120887619D01*
X152677619Y-120697142D01*
X152725238Y-120601904D01*
X152820476Y-120554285D01*
X153201428Y-120554285D01*
X153296666Y-120601904D01*
X153344285Y-120697142D01*
X153344285Y-120887619D01*
X153296666Y-120982857D01*
X153201428Y-121030476D01*
X153106190Y-121030476D01*
X153010952Y-120554285D01*
X153677619Y-122125714D02*
X153677619Y-122744761D01*
X153296666Y-122411428D01*
X153296666Y-122554285D01*
X153249047Y-122649523D01*
X153201428Y-122697142D01*
X153106190Y-122744761D01*
X152868095Y-122744761D01*
X152772857Y-122697142D01*
X152725238Y-122649523D01*
X152677619Y-122554285D01*
X152677619Y-122268571D01*
X152725238Y-122173333D01*
X152772857Y-122125714D01*
X111379047Y-119901428D02*
X112140952Y-119901428D01*
D11*
X137733333Y-116406190D02*
X137685714Y-116382380D01*
X137661904Y-116334761D01*
X137661904Y-115906190D01*
X137995238Y-116406190D02*
X137947619Y-116382380D01*
X137923809Y-116358571D01*
X137900000Y-116310952D01*
X137900000Y-116168095D01*
X137923809Y-116120476D01*
X137947619Y-116096666D01*
X137995238Y-116072857D01*
X138066666Y-116072857D01*
X138114285Y-116096666D01*
X138138095Y-116120476D01*
X138161904Y-116168095D01*
X138161904Y-116310952D01*
X138138095Y-116358571D01*
X138114285Y-116382380D01*
X138066666Y-116406190D01*
X137995238Y-116406190D01*
D10*
%TO.C,Phase 1*%
X171912380Y-122657142D02*
X170912380Y-122657142D01*
X170912380Y-122276190D01*
X170960000Y-122180952D01*
X171007619Y-122133333D01*
X171102857Y-122085714D01*
X171245714Y-122085714D01*
X171340952Y-122133333D01*
X171388571Y-122180952D01*
X171436190Y-122276190D01*
X171436190Y-122657142D01*
X171912380Y-121657142D02*
X170912380Y-121657142D01*
X171912380Y-121228571D02*
X171388571Y-121228571D01*
X171293333Y-121276190D01*
X171245714Y-121371428D01*
X171245714Y-121514285D01*
X171293333Y-121609523D01*
X171340952Y-121657142D01*
X171912380Y-120323809D02*
X171388571Y-120323809D01*
X171293333Y-120371428D01*
X171245714Y-120466666D01*
X171245714Y-120657142D01*
X171293333Y-120752380D01*
X171864761Y-120323809D02*
X171912380Y-120419047D01*
X171912380Y-120657142D01*
X171864761Y-120752380D01*
X171769523Y-120800000D01*
X171674285Y-120800000D01*
X171579047Y-120752380D01*
X171531428Y-120657142D01*
X171531428Y-120419047D01*
X171483809Y-120323809D01*
X171864761Y-119895238D02*
X171912380Y-119800000D01*
X171912380Y-119609523D01*
X171864761Y-119514285D01*
X171769523Y-119466666D01*
X171721904Y-119466666D01*
X171626666Y-119514285D01*
X171579047Y-119609523D01*
X171579047Y-119752380D01*
X171531428Y-119847619D01*
X171436190Y-119895238D01*
X171388571Y-119895238D01*
X171293333Y-119847619D01*
X171245714Y-119752380D01*
X171245714Y-119609523D01*
X171293333Y-119514285D01*
X171864761Y-118657142D02*
X171912380Y-118752380D01*
X171912380Y-118942857D01*
X171864761Y-119038095D01*
X171769523Y-119085714D01*
X171388571Y-119085714D01*
X171293333Y-119038095D01*
X171245714Y-118942857D01*
X171245714Y-118752380D01*
X171293333Y-118657142D01*
X171388571Y-118609523D01*
X171483809Y-118609523D01*
X171579047Y-119085714D01*
X171912380Y-116895238D02*
X171912380Y-117466666D01*
X171912380Y-117180952D02*
X170912380Y-117180952D01*
X171055238Y-117276190D01*
X171150476Y-117371428D01*
X171198095Y-117466666D01*
%TO.C,CAN*%
X137857142Y-125107142D02*
X137809523Y-125154761D01*
X137666666Y-125202380D01*
X137571428Y-125202380D01*
X137428571Y-125154761D01*
X137333333Y-125059523D01*
X137285714Y-124964285D01*
X137238095Y-124773809D01*
X137238095Y-124630952D01*
X137285714Y-124440476D01*
X137333333Y-124345238D01*
X137428571Y-124250000D01*
X137571428Y-124202380D01*
X137666666Y-124202380D01*
X137809523Y-124250000D01*
X137857142Y-124297619D01*
X138238095Y-124916666D02*
X138714285Y-124916666D01*
X138142857Y-125202380D02*
X138476190Y-124202380D01*
X138809523Y-125202380D01*
X139142857Y-125202380D02*
X139142857Y-124202380D01*
X139714285Y-125202380D01*
X139714285Y-124202380D01*
D12*
%TO.C,Phase 1*%
X163570000Y-124850000D02*
X161070000Y-124850000D01*
X168650000Y-124850000D02*
X168650000Y-124350000D01*
X161070000Y-124850000D02*
X161070000Y-124350000D01*
X156170000Y-121075000D02*
X156229000Y-121016000D01*
X155990000Y-124850000D02*
X155990000Y-124350000D01*
X170000000Y-115100000D02*
X154640000Y-115100000D01*
X168650000Y-124350000D02*
X166150000Y-124350000D01*
X168650000Y-124850000D02*
X166150000Y-124850000D01*
X170240000Y-114200000D02*
X169640000Y-114200000D01*
X163570000Y-124850000D02*
X163570000Y-124350000D01*
X158490000Y-124850000D02*
X158490000Y-124350000D01*
X170000000Y-125160000D02*
X154640000Y-125160000D01*
X163570000Y-124350000D02*
X161070000Y-124350000D01*
X163330000Y-118584000D02*
X163389000Y-118526000D01*
X158490000Y-124350000D02*
X155990000Y-124350000D01*
X170000000Y-125160000D02*
X170000000Y-114440000D01*
X163500000Y-118824000D02*
X163594000Y-118731000D01*
X170240000Y-115040000D02*
X170240000Y-114200000D01*
X170000000Y-123100000D02*
X154640000Y-123100000D01*
X154640000Y-125160000D02*
X154640000Y-114440000D01*
X161045000Y-120869000D02*
X161139000Y-120776000D01*
X166150000Y-124850000D02*
X166150000Y-124350000D01*
X158490000Y-124850000D02*
X155990000Y-124850000D01*
X161250000Y-121075000D02*
X161309000Y-121016000D01*
X158420000Y-118824000D02*
X158514000Y-118731000D01*
X170000000Y-117300000D02*
X154640000Y-117300000D01*
X170000000Y-114440000D02*
X154640000Y-114440000D01*
X155965000Y-120869000D02*
X156059000Y-120776000D01*
X158250000Y-118584000D02*
X158309000Y-118526000D01*
X168189000Y-118316000D02*
G75*
G03*
X167370617Y-118119550I-788998J-1483995D01*
G01*
X167400000Y-118120000D02*
G75*
G03*
X166611288Y-118316648I-2J-1679991D01*
G01*
X166611000Y-121284000D02*
G75*
G03*
X168189089Y-121283953I789000J1483995D01*
G01*
X168884000Y-120589000D02*
G75*
G03*
X168883953Y-119010911I-1483995J789000D01*
G01*
X165916000Y-119011000D02*
G75*
G03*
X165916047Y-120589089I1483995J-789000D01*
G01*
X164000000Y-119800000D02*
G75*
G03*
X164000000Y-119800000I-1680000J0D01*
G01*
X158920000Y-119800000D02*
G75*
G03*
X158920000Y-119800000I-1680000J0D01*
G01*
%TO.C,CAN*%
X140935000Y-118550000D02*
X140935000Y-117610000D01*
X134265000Y-120150000D02*
X134265000Y-118550000D01*
X142735000Y-120150000D02*
X142735000Y-118550000D01*
X134265000Y-118550000D02*
X136065000Y-118550000D01*
X142735000Y-118550000D02*
X140935000Y-118550000D01*
X141465000Y-123020000D02*
X135535000Y-123020000D01*
D13*
%TO.C,J5*%
X119820000Y-58992500D02*
X172530000Y-58992500D01*
X172530000Y-58992500D02*
X172530000Y-72492500D01*
X127885000Y-72492500D02*
X119820000Y-72492500D01*
X172530000Y-72492500D02*
X164825000Y-72492500D01*
X148595000Y-72492500D02*
X138615000Y-72492500D01*
X119820000Y-58992500D02*
X119820000Y-72492500D01*
X173380000Y-61902500D02*
G75*
G03*
X173380000Y-61902500I-100000J0D01*
G01*
D12*
%TO.C,J2*%
X119915000Y-124870000D02*
X119915000Y-124370000D01*
X117335000Y-124870000D02*
X114835000Y-124870000D01*
X123765000Y-114460000D02*
X113485000Y-114460000D01*
X122415000Y-124870000D02*
X122415000Y-124370000D01*
X117095000Y-118604000D02*
X117154000Y-118546000D01*
X117335000Y-124370000D02*
X114835000Y-124370000D01*
X122415000Y-124870000D02*
X119915000Y-124870000D01*
X114835000Y-124870000D02*
X114835000Y-124370000D01*
X115015000Y-121095000D02*
X115074000Y-121036000D01*
X124005000Y-115060000D02*
X124005000Y-114220000D01*
X123765000Y-125180000D02*
X123765000Y-114460000D01*
X114810000Y-120889000D02*
X114904000Y-120796000D01*
X117265000Y-118844000D02*
X117359000Y-118751000D01*
X123765000Y-117320000D02*
X113485000Y-117320000D01*
X123765000Y-125180000D02*
X113485000Y-125180000D01*
X124005000Y-114220000D02*
X123405000Y-114220000D01*
X113485000Y-125180000D02*
X113485000Y-114460000D01*
X117335000Y-124870000D02*
X117335000Y-124370000D01*
X123765000Y-115120000D02*
X113485000Y-115120000D01*
X123765000Y-123120000D02*
X113485000Y-123120000D01*
X122415000Y-124370000D02*
X119915000Y-124370000D01*
X121954000Y-118336000D02*
G75*
G03*
X121135617Y-118139550I-788998J-1483995D01*
G01*
X122649000Y-120609000D02*
G75*
G03*
X122648953Y-119030911I-1483995J789000D01*
G01*
X121165000Y-118140000D02*
G75*
G03*
X120376288Y-118336648I-2J-1679991D01*
G01*
X120376000Y-121304000D02*
G75*
G03*
X121954089Y-121303953I789000J1483995D01*
G01*
X119681000Y-119031000D02*
G75*
G03*
X119681047Y-120609089I1483995J-789000D01*
G01*
X117765000Y-119820000D02*
G75*
G03*
X117765000Y-119820000I-1680000J0D01*
G01*
%TD*%
M02*
