%TF.GenerationSoftware,KiCad,Pcbnew,(6.0.1-0)*%
%TF.CreationDate,2023-01-20T10:08:16-08:00*%
%TF.ProjectId,ESC Daughterboard,45534320-4461-4756-9768-746572626f61,rev?*%
%TF.SameCoordinates,Original*%
%TF.FileFunction,Copper,L6,Bot*%
%TF.FilePolarity,Positive*%
%FSLAX46Y46*%
G04 Gerber Fmt 4.6, Leading zero omitted, Abs format (unit mm)*
G04 Created by KiCad (PCBNEW (6.0.1-0)) date 2023-01-20 10:08:16*
%MOMM*%
%LPD*%
G01*
G04 APERTURE LIST*
%TA.AperFunction,ComponentPad*%
%ADD10R,2.500000X2.500000*%
%TD*%
%TA.AperFunction,ComponentPad*%
%ADD11C,2.500000*%
%TD*%
%TA.AperFunction,ComponentPad*%
%ADD12R,1.208000X1.208000*%
%TD*%
%TA.AperFunction,ComponentPad*%
%ADD13C,1.208000*%
%TD*%
%TA.AperFunction,ComponentPad*%
%ADD14C,1.530000*%
%TD*%
%TA.AperFunction,ViaPad*%
%ADD15C,0.800000*%
%TD*%
G04 APERTURE END LIST*
D10*
%TO.P,Phase 1,1,Pin_1*%
%TO.N,/Phase_1*%
X167400000Y-119800000D03*
D11*
%TO.P,Phase 1,2,Pin_2*%
%TO.N,/Phase_2*%
X162320000Y-119800000D03*
%TO.P,Phase 1,3,Pin_3*%
%TO.N,/Phase_3*%
X157240000Y-119800000D03*
%TD*%
D12*
%TO.P,J5,01,01*%
%TO.N,GND*%
X144070000Y-61902500D03*
D13*
%TO.P,J5,02,02*%
%TO.N,+5V*%
X142070000Y-61902500D03*
%TO.P,J5,03,03*%
%TO.N,/CAH*%
X144070000Y-63902500D03*
%TO.P,J5,04,04*%
%TO.N,/CAL*%
X142070000Y-63902500D03*
%TO.P,J5,05,05*%
%TO.N,unconnected-(J5-Pad05)*%
X144070000Y-65902500D03*
%TO.P,J5,06,06*%
%TO.N,unconnected-(J5-Pad06)*%
X142070000Y-65902500D03*
%TO.P,J5,07,07*%
%TO.N,unconnected-(J5-Pad07)*%
X144070000Y-67902500D03*
%TO.P,J5,08,08*%
%TO.N,unconnected-(J5-Pad08)*%
X142070000Y-67902500D03*
%TO.P,J5,09,09*%
%TO.N,unconnected-(J5-Pad09)*%
X144070000Y-69902500D03*
%TO.P,J5,10,10*%
%TO.N,unconnected-(J5-Pad10)*%
X142070000Y-69902500D03*
D14*
%TO.P,J5,P01_1,P01*%
%TO.N,/Phase_1*%
X163710000Y-71892500D03*
%TO.P,J5,P01_2,P01*%
X163710000Y-69392500D03*
%TO.P,J5,P01_3,P01*%
X163710000Y-66892500D03*
%TO.P,J5,P01_4,P01*%
X163710000Y-64392500D03*
%TO.P,J5,P01_5,P01*%
X163710000Y-61892500D03*
%TO.P,J5,P01_6,P01*%
X160710000Y-61892500D03*
%TO.P,J5,P01_7,P01*%
X160710000Y-64392500D03*
%TO.P,J5,P01_8,P01*%
X160710000Y-66892500D03*
%TO.P,J5,P01_9,P01*%
X160710000Y-69392500D03*
%TO.P,J5,P01_10,P01*%
X160710000Y-71892500D03*
%TO.P,J5,P02_1,P02*%
%TO.N,/Phase_2*%
X158210000Y-71892500D03*
%TO.P,J5,P02_2,P02*%
X158210000Y-69392500D03*
%TO.P,J5,P02_3,P02*%
X158210000Y-66892500D03*
%TO.P,J5,P02_4,P02*%
X158210000Y-64392500D03*
%TO.P,J5,P02_5,P02*%
X158210000Y-61892500D03*
%TO.P,J5,P02_6,P02*%
X155210000Y-61892500D03*
%TO.P,J5,P02_7,P02*%
X155210000Y-64392500D03*
%TO.P,J5,P02_8,P02*%
X155210000Y-66892500D03*
%TO.P,J5,P02_9,P02*%
X155210000Y-69392500D03*
%TO.P,J5,P02_10,P02*%
X155210000Y-71892500D03*
%TO.P,J5,P03_1,P03*%
%TO.N,/Phase_3*%
X152710000Y-71892500D03*
%TO.P,J5,P03_2,P03*%
X152710000Y-69392500D03*
%TO.P,J5,P03_3,P03*%
X152710000Y-66892500D03*
%TO.P,J5,P03_4,P03*%
X152710000Y-64392500D03*
%TO.P,J5,P03_5,P03*%
X152710000Y-61892500D03*
%TO.P,J5,P03_6,P03*%
X149710000Y-61892500D03*
%TO.P,J5,P03_7,P03*%
X149710000Y-64392500D03*
%TO.P,J5,P03_8,P03*%
X149710000Y-66892500D03*
%TO.P,J5,P03_9,P03*%
X149710000Y-69392500D03*
%TO.P,J5,P03_10,P03*%
X149710000Y-71892500D03*
%TO.P,J5,P04_1,P04*%
%TO.N,GND*%
X137500000Y-71892500D03*
%TO.P,J5,P04_2,P04*%
X137500000Y-69392500D03*
%TO.P,J5,P04_3,P04*%
X137500000Y-66892500D03*
%TO.P,J5,P04_4,P04*%
X137500000Y-64392500D03*
%TO.P,J5,P04_5,P04*%
X137500000Y-61892500D03*
%TO.P,J5,P04_6,P04*%
X134500000Y-61892500D03*
%TO.P,J5,P04_7,P04*%
X134500000Y-64392500D03*
%TO.P,J5,P04_8,P04*%
X134500000Y-66892500D03*
%TO.P,J5,P04_9,P04*%
X134500000Y-69392500D03*
%TO.P,J5,P04_10,P04*%
X134500000Y-71892500D03*
%TO.P,J5,P05_1,P05*%
%TO.N,/16V*%
X132000000Y-71892500D03*
%TO.P,J5,P05_2,P05*%
X132000000Y-69392500D03*
%TO.P,J5,P05_3,P05*%
X132000000Y-66892500D03*
%TO.P,J5,P05_4,P05*%
X132000000Y-64392500D03*
%TO.P,J5,P05_5,P05*%
X132000000Y-61892500D03*
%TO.P,J5,P05_6,P05*%
X129000000Y-61892500D03*
%TO.P,J5,P05_7,P05*%
X129000000Y-64392500D03*
%TO.P,J5,P05_8,P05*%
X129000000Y-66892500D03*
%TO.P,J5,P05_9,P05*%
X129000000Y-69392500D03*
%TO.P,J5,P05_10,P05*%
X129000000Y-71892500D03*
%TD*%
D10*
%TO.P,J2,1,Pin_1*%
%TO.N,/16V*%
X121165000Y-119820000D03*
D11*
%TO.P,J2,2,Pin_2*%
%TO.N,GND*%
X116085000Y-119820000D03*
%TD*%
D15*
%TO.N,GND*%
X135780000Y-116190000D03*
%TO.N,+5V*%
X141150000Y-116190000D03*
%TD*%
%TA.AperFunction,Conductor*%
%TO.N,GND*%
G36*
X141248057Y-59990272D02*
G01*
X172101011Y-59990541D01*
X172159201Y-60009449D01*
X172195165Y-60058949D01*
X172200010Y-60089539D01*
X172200479Y-80853900D01*
X172201406Y-121870500D01*
X172201473Y-124850998D01*
X172182567Y-124909189D01*
X172133068Y-124945154D01*
X172102473Y-124950000D01*
X110397988Y-124950000D01*
X110339797Y-124931093D01*
X110303833Y-124881593D01*
X110298988Y-124850998D01*
X110299045Y-121162360D01*
X115313892Y-121162360D01*
X115320263Y-121169251D01*
X115375824Y-121203300D01*
X115382730Y-121206819D01*
X115600952Y-121297209D01*
X115608320Y-121299603D01*
X115838004Y-121354745D01*
X115845647Y-121355956D01*
X116081125Y-121374488D01*
X116088875Y-121374488D01*
X116324353Y-121355956D01*
X116331996Y-121354745D01*
X116561680Y-121299603D01*
X116569048Y-121297209D01*
X116787270Y-121206819D01*
X116794176Y-121203300D01*
X116848043Y-121170289D01*
X116856316Y-121160603D01*
X116851732Y-121152417D01*
X116096086Y-120396771D01*
X116084203Y-120390717D01*
X116079172Y-120391513D01*
X115319674Y-121151011D01*
X115313892Y-121162360D01*
X110299045Y-121162360D01*
X110299066Y-119823875D01*
X114530512Y-119823875D01*
X114549044Y-120059353D01*
X114550255Y-120066996D01*
X114605397Y-120296680D01*
X114607791Y-120304048D01*
X114698181Y-120522270D01*
X114701700Y-120529176D01*
X114734711Y-120583043D01*
X114744397Y-120591316D01*
X114752583Y-120586732D01*
X115508229Y-119831086D01*
X115513471Y-119820797D01*
X116655717Y-119820797D01*
X116656513Y-119825828D01*
X117416011Y-120585326D01*
X117427360Y-120591108D01*
X117434251Y-120584737D01*
X117468300Y-120529176D01*
X117471819Y-120522270D01*
X117562209Y-120304048D01*
X117564603Y-120296680D01*
X117619745Y-120066996D01*
X117620956Y-120059353D01*
X117639488Y-119823875D01*
X117639488Y-119816125D01*
X117620956Y-119580647D01*
X117619745Y-119573004D01*
X117564603Y-119343320D01*
X117562209Y-119335952D01*
X117471819Y-119117730D01*
X117468300Y-119110824D01*
X117435289Y-119056957D01*
X117425603Y-119048684D01*
X117417417Y-119053268D01*
X116661771Y-119808914D01*
X116655717Y-119820797D01*
X115513471Y-119820797D01*
X115514283Y-119819203D01*
X115513487Y-119814172D01*
X114753989Y-119054674D01*
X114742640Y-119048892D01*
X114735749Y-119055263D01*
X114701700Y-119110824D01*
X114698181Y-119117730D01*
X114607791Y-119335952D01*
X114605397Y-119343320D01*
X114550255Y-119573004D01*
X114549044Y-119580647D01*
X114530512Y-119816125D01*
X114530512Y-119823875D01*
X110299066Y-119823875D01*
X110299087Y-118479397D01*
X115313684Y-118479397D01*
X115318268Y-118487583D01*
X116073914Y-119243229D01*
X116085797Y-119249283D01*
X116090828Y-119248487D01*
X116850326Y-118488989D01*
X116853804Y-118482163D01*
X119114500Y-118482163D01*
X119114501Y-121157836D01*
X119114774Y-121162589D01*
X119115716Y-121166668D01*
X119115717Y-121166676D01*
X119153298Y-121329457D01*
X119155173Y-121337577D01*
X119233336Y-121499266D01*
X119345380Y-121639620D01*
X119349713Y-121643079D01*
X119460681Y-121731664D01*
X119485734Y-121751664D01*
X119647423Y-121829827D01*
X119652807Y-121831070D01*
X119652810Y-121831071D01*
X119731701Y-121849284D01*
X119822411Y-121870226D01*
X119827163Y-121870500D01*
X119828586Y-121870500D01*
X121169717Y-121870499D01*
X122502836Y-121870499D01*
X122507589Y-121870226D01*
X122511670Y-121869284D01*
X122511676Y-121869283D01*
X122677190Y-121831071D01*
X122677193Y-121831070D01*
X122682577Y-121829827D01*
X122844266Y-121751664D01*
X122869320Y-121731664D01*
X122980287Y-121643079D01*
X122984620Y-121639620D01*
X123096664Y-121499266D01*
X123174827Y-121337577D01*
X123177182Y-121327379D01*
X123214284Y-121166668D01*
X123215226Y-121162589D01*
X123215500Y-121157837D01*
X123215499Y-119778477D01*
X155184822Y-119778477D01*
X155185016Y-119781842D01*
X155185016Y-119781846D01*
X155188545Y-119843043D01*
X155200916Y-120057596D01*
X155254741Y-120331948D01*
X155255834Y-120335140D01*
X155343543Y-120591316D01*
X155345303Y-120596457D01*
X155470925Y-120846228D01*
X155629282Y-121076639D01*
X155631552Y-121079133D01*
X155631553Y-121079135D01*
X155714497Y-121170289D01*
X155817444Y-121283427D01*
X156031930Y-121462765D01*
X156268771Y-121611335D01*
X156271839Y-121612720D01*
X156271846Y-121612724D01*
X156437358Y-121687455D01*
X156523583Y-121726387D01*
X156526805Y-121727341D01*
X156526812Y-121727344D01*
X156741263Y-121790867D01*
X156791652Y-121805793D01*
X156794977Y-121806302D01*
X156794978Y-121806302D01*
X157064684Y-121847573D01*
X157064687Y-121847573D01*
X157068018Y-121848083D01*
X157071389Y-121848136D01*
X157071390Y-121848136D01*
X157119571Y-121848893D01*
X157347566Y-121852474D01*
X157350903Y-121852070D01*
X157350907Y-121852070D01*
X157621779Y-121819291D01*
X157621784Y-121819290D01*
X157625123Y-121818886D01*
X157895554Y-121747940D01*
X158061590Y-121679165D01*
X158150746Y-121642236D01*
X158150749Y-121642235D01*
X158153855Y-121640948D01*
X158156760Y-121639251D01*
X158156763Y-121639249D01*
X158392329Y-121501595D01*
X158395245Y-121499891D01*
X158615258Y-121327379D01*
X158809823Y-121126603D01*
X158846526Y-121076639D01*
X158876843Y-121035366D01*
X158975340Y-120901280D01*
X159006864Y-120843221D01*
X159107136Y-120658541D01*
X159108745Y-120655578D01*
X159207570Y-120394044D01*
X159233761Y-120279689D01*
X159269234Y-120124808D01*
X159269235Y-120124801D01*
X159269987Y-120121518D01*
X159294840Y-119843043D01*
X159295291Y-119800000D01*
X159293824Y-119778477D01*
X160264822Y-119778477D01*
X160265016Y-119781842D01*
X160265016Y-119781846D01*
X160268545Y-119843043D01*
X160280916Y-120057596D01*
X160334741Y-120331948D01*
X160335834Y-120335140D01*
X160423543Y-120591316D01*
X160425303Y-120596457D01*
X160550925Y-120846228D01*
X160709282Y-121076639D01*
X160711552Y-121079133D01*
X160711553Y-121079135D01*
X160794497Y-121170289D01*
X160897444Y-121283427D01*
X161111930Y-121462765D01*
X161348771Y-121611335D01*
X161351839Y-121612720D01*
X161351846Y-121612724D01*
X161517358Y-121687455D01*
X161603583Y-121726387D01*
X161606805Y-121727341D01*
X161606812Y-121727344D01*
X161821263Y-121790867D01*
X161871652Y-121805793D01*
X161874977Y-121806302D01*
X161874978Y-121806302D01*
X162144684Y-121847573D01*
X162144687Y-121847573D01*
X162148018Y-121848083D01*
X162151389Y-121848136D01*
X162151390Y-121848136D01*
X162199571Y-121848893D01*
X162427566Y-121852474D01*
X162430903Y-121852070D01*
X162430907Y-121852070D01*
X162701779Y-121819291D01*
X162701784Y-121819290D01*
X162705123Y-121818886D01*
X162975554Y-121747940D01*
X163141590Y-121679165D01*
X163230746Y-121642236D01*
X163230749Y-121642235D01*
X163233855Y-121640948D01*
X163236760Y-121639251D01*
X163236763Y-121639249D01*
X163472329Y-121501595D01*
X163475245Y-121499891D01*
X163695258Y-121327379D01*
X163889823Y-121126603D01*
X163926526Y-121076639D01*
X163956843Y-121035366D01*
X164055340Y-120901280D01*
X164086864Y-120843221D01*
X164187136Y-120658541D01*
X164188745Y-120655578D01*
X164287570Y-120394044D01*
X164313761Y-120279689D01*
X164349234Y-120124808D01*
X164349235Y-120124801D01*
X164349987Y-120121518D01*
X164374840Y-119843043D01*
X164375291Y-119800000D01*
X164356275Y-119521065D01*
X164299579Y-119247292D01*
X164206253Y-118983746D01*
X164194542Y-118961056D01*
X164079573Y-118738308D01*
X164079570Y-118738302D01*
X164078022Y-118735304D01*
X163917261Y-118506563D01*
X163899512Y-118487462D01*
X163877325Y-118463586D01*
X165349500Y-118463586D01*
X165349501Y-119801937D01*
X165349501Y-121137836D01*
X165349774Y-121142589D01*
X165350716Y-121146668D01*
X165350717Y-121146676D01*
X165386023Y-121299603D01*
X165390173Y-121317577D01*
X165468336Y-121479266D01*
X165471789Y-121483592D01*
X165471790Y-121483593D01*
X165483140Y-121497811D01*
X165580380Y-121619620D01*
X165584713Y-121623079D01*
X165714124Y-121726387D01*
X165720734Y-121731664D01*
X165882423Y-121809827D01*
X165887807Y-121811070D01*
X165887810Y-121811071D01*
X165958631Y-121827421D01*
X166057411Y-121850226D01*
X166062163Y-121850500D01*
X166063586Y-121850500D01*
X167404717Y-121850499D01*
X168737836Y-121850499D01*
X168742589Y-121850226D01*
X168746670Y-121849284D01*
X168746676Y-121849283D01*
X168912190Y-121811071D01*
X168912193Y-121811070D01*
X168917577Y-121809827D01*
X169079266Y-121731664D01*
X169085877Y-121726387D01*
X169215287Y-121623079D01*
X169219620Y-121619620D01*
X169316860Y-121497811D01*
X169328210Y-121483593D01*
X169328211Y-121483592D01*
X169331664Y-121479266D01*
X169409827Y-121317577D01*
X169414530Y-121297209D01*
X169443831Y-121170289D01*
X169450226Y-121142589D01*
X169450500Y-121137837D01*
X169450500Y-119800000D01*
X169450499Y-118463577D01*
X169450499Y-118462164D01*
X169450226Y-118457411D01*
X169449284Y-118453330D01*
X169449283Y-118453324D01*
X169411071Y-118287810D01*
X169411070Y-118287807D01*
X169409827Y-118282423D01*
X169331664Y-118120734D01*
X169324931Y-118112299D01*
X169223079Y-117984713D01*
X169219620Y-117980380D01*
X169108646Y-117891790D01*
X169083593Y-117871790D01*
X169083592Y-117871789D01*
X169079266Y-117868336D01*
X169062759Y-117860356D01*
X168922554Y-117792579D01*
X168917577Y-117790173D01*
X168912193Y-117788930D01*
X168912190Y-117788929D01*
X168825955Y-117769021D01*
X168742589Y-117749774D01*
X168737837Y-117749500D01*
X168736414Y-117749500D01*
X167395283Y-117749501D01*
X166062164Y-117749501D01*
X166057411Y-117749774D01*
X166053330Y-117750716D01*
X166053324Y-117750717D01*
X165887810Y-117788929D01*
X165887807Y-117788930D01*
X165882423Y-117790173D01*
X165877446Y-117792579D01*
X165737242Y-117860356D01*
X165720734Y-117868336D01*
X165716408Y-117871789D01*
X165716407Y-117871790D01*
X165691354Y-117891790D01*
X165580380Y-117980380D01*
X165576921Y-117984713D01*
X165475070Y-118112299D01*
X165468336Y-118120734D01*
X165390173Y-118282423D01*
X165388930Y-118287807D01*
X165388929Y-118287810D01*
X165385139Y-118304226D01*
X165349774Y-118457411D01*
X165349500Y-118462163D01*
X165349500Y-118463586D01*
X163877325Y-118463586D01*
X163762850Y-118340397D01*
X163726944Y-118301757D01*
X163706783Y-118285255D01*
X163530211Y-118140734D01*
X163510591Y-118124675D01*
X163272208Y-117978594D01*
X163268397Y-117976921D01*
X163019288Y-117867569D01*
X163019284Y-117867567D01*
X163016205Y-117866216D01*
X162966917Y-117852176D01*
X162750571Y-117790548D01*
X162750566Y-117790547D01*
X162747319Y-117789622D01*
X162470526Y-117750229D01*
X162467159Y-117750211D01*
X162467154Y-117750211D01*
X162342187Y-117749557D01*
X162190947Y-117748765D01*
X161913757Y-117785257D01*
X161910506Y-117786146D01*
X161910503Y-117786147D01*
X161886992Y-117792579D01*
X161644083Y-117859032D01*
X161386917Y-117968722D01*
X161384018Y-117970457D01*
X161372683Y-117977241D01*
X161147018Y-118112299D01*
X160928823Y-118287106D01*
X160926499Y-118289555D01*
X160746346Y-118479397D01*
X160736371Y-118489908D01*
X160734406Y-118492643D01*
X160734404Y-118492645D01*
X160722421Y-118509322D01*
X160573223Y-118716952D01*
X160442398Y-118964038D01*
X160346317Y-119226592D01*
X160286757Y-119499757D01*
X160264822Y-119778477D01*
X159293824Y-119778477D01*
X159276275Y-119521065D01*
X159219579Y-119247292D01*
X159126253Y-118983746D01*
X159114542Y-118961056D01*
X158999573Y-118738308D01*
X158999570Y-118738302D01*
X158998022Y-118735304D01*
X158837261Y-118506563D01*
X158819512Y-118487462D01*
X158682850Y-118340397D01*
X158646944Y-118301757D01*
X158626783Y-118285255D01*
X158450211Y-118140734D01*
X158430591Y-118124675D01*
X158192208Y-117978594D01*
X158188397Y-117976921D01*
X157939288Y-117867569D01*
X157939284Y-117867567D01*
X157936205Y-117866216D01*
X157886917Y-117852176D01*
X157670571Y-117790548D01*
X157670566Y-117790547D01*
X157667319Y-117789622D01*
X157390526Y-117750229D01*
X157387159Y-117750211D01*
X157387154Y-117750211D01*
X157262187Y-117749557D01*
X157110947Y-117748765D01*
X156833757Y-117785257D01*
X156830506Y-117786146D01*
X156830503Y-117786147D01*
X156806992Y-117792579D01*
X156564083Y-117859032D01*
X156306917Y-117968722D01*
X156304018Y-117970457D01*
X156292683Y-117977241D01*
X156067018Y-118112299D01*
X155848823Y-118287106D01*
X155846499Y-118289555D01*
X155666346Y-118479397D01*
X155656371Y-118489908D01*
X155654406Y-118492643D01*
X155654404Y-118492645D01*
X155642421Y-118509322D01*
X155493223Y-118716952D01*
X155362398Y-118964038D01*
X155266317Y-119226592D01*
X155206757Y-119499757D01*
X155184822Y-119778477D01*
X123215499Y-119778477D01*
X123215499Y-118482164D01*
X123215226Y-118477411D01*
X123214284Y-118473330D01*
X123214283Y-118473324D01*
X123176071Y-118307810D01*
X123176070Y-118307807D01*
X123174827Y-118302423D01*
X123096664Y-118140734D01*
X123084675Y-118125715D01*
X122988079Y-118004713D01*
X122984620Y-118000380D01*
X122844266Y-117888336D01*
X122682577Y-117810173D01*
X122677193Y-117808930D01*
X122677190Y-117808929D01*
X122590559Y-117788929D01*
X122507589Y-117769774D01*
X122502837Y-117769500D01*
X122501414Y-117769500D01*
X121160283Y-117769501D01*
X119827164Y-117769501D01*
X119822411Y-117769774D01*
X119818330Y-117770716D01*
X119818324Y-117770717D01*
X119652810Y-117808929D01*
X119652807Y-117808930D01*
X119647423Y-117810173D01*
X119485734Y-117888336D01*
X119345380Y-118000380D01*
X119341921Y-118004713D01*
X119245326Y-118125715D01*
X119233336Y-118140734D01*
X119155173Y-118302423D01*
X119114774Y-118477411D01*
X119114500Y-118482163D01*
X116853804Y-118482163D01*
X116856108Y-118477640D01*
X116849737Y-118470749D01*
X116794176Y-118436700D01*
X116787270Y-118433181D01*
X116569048Y-118342791D01*
X116561680Y-118340397D01*
X116331996Y-118285255D01*
X116324353Y-118284044D01*
X116088875Y-118265512D01*
X116081125Y-118265512D01*
X115845647Y-118284044D01*
X115838004Y-118285255D01*
X115608320Y-118340397D01*
X115600952Y-118342791D01*
X115382730Y-118433181D01*
X115375824Y-118436700D01*
X115321957Y-118469711D01*
X115313684Y-118479397D01*
X110299087Y-118479397D01*
X110299123Y-116158440D01*
X139944770Y-116158440D01*
X139959200Y-116378604D01*
X139960316Y-116382997D01*
X139960316Y-116382999D01*
X139983873Y-116475754D01*
X140013511Y-116592452D01*
X140105883Y-116792821D01*
X140233222Y-116973002D01*
X140391264Y-117126961D01*
X140574717Y-117249540D01*
X140777436Y-117336635D01*
X140855165Y-117354223D01*
X140988206Y-117384328D01*
X140988211Y-117384329D01*
X140992632Y-117385329D01*
X141102865Y-117389660D01*
X141208565Y-117393813D01*
X141208566Y-117393813D01*
X141213098Y-117393991D01*
X141431452Y-117362331D01*
X141435751Y-117360872D01*
X141435754Y-117360871D01*
X141636078Y-117292870D01*
X141640379Y-117291410D01*
X141711944Y-117251332D01*
X141828925Y-117185819D01*
X141832884Y-117183602D01*
X142002518Y-117042518D01*
X142143602Y-116872884D01*
X142251410Y-116680379D01*
X142322331Y-116471452D01*
X142335156Y-116382999D01*
X142353571Y-116255997D01*
X142353571Y-116255991D01*
X142353991Y-116253098D01*
X142355643Y-116190000D01*
X142335454Y-115970289D01*
X142275565Y-115757936D01*
X142273557Y-115753864D01*
X142273555Y-115753859D01*
X142179988Y-115564125D01*
X142177980Y-115560053D01*
X142045967Y-115383267D01*
X141883949Y-115233499D01*
X141697350Y-115115764D01*
X141492421Y-115034006D01*
X141276024Y-114990962D01*
X141167347Y-114989539D01*
X141059946Y-114988133D01*
X141059941Y-114988133D01*
X141055406Y-114988074D01*
X141050933Y-114988843D01*
X141050928Y-114988843D01*
X140842435Y-115024668D01*
X140842429Y-115024670D01*
X140837957Y-115025438D01*
X140810176Y-115035687D01*
X140635220Y-115100231D01*
X140635217Y-115100232D01*
X140630957Y-115101804D01*
X140627054Y-115104126D01*
X140627052Y-115104127D01*
X140607492Y-115115764D01*
X140441341Y-115214614D01*
X140437926Y-115217609D01*
X140437923Y-115217611D01*
X140330036Y-115312225D01*
X140275457Y-115360090D01*
X140138863Y-115533360D01*
X140036131Y-115728620D01*
X139970703Y-115939333D01*
X139970169Y-115943843D01*
X139970169Y-115943844D01*
X139967039Y-115970289D01*
X139944770Y-116158440D01*
X110299123Y-116158440D01*
X110299201Y-111123763D01*
X155007092Y-111123763D01*
X155007376Y-111126608D01*
X155016060Y-111213605D01*
X155040887Y-111462342D01*
X155113373Y-111794793D01*
X155223589Y-112116708D01*
X155370076Y-112423823D01*
X155371590Y-112426236D01*
X155371593Y-112426242D01*
X155497656Y-112627204D01*
X155550890Y-112712066D01*
X155763635Y-112977616D01*
X155765665Y-112979624D01*
X155765666Y-112979626D01*
X156003461Y-113214943D01*
X156003469Y-113214950D01*
X156005493Y-113216953D01*
X156079925Y-113275315D01*
X156271017Y-113425151D01*
X156271024Y-113425156D01*
X156273256Y-113426906D01*
X156275685Y-113428394D01*
X156275690Y-113428398D01*
X156357761Y-113478691D01*
X156563376Y-113604692D01*
X156565963Y-113605893D01*
X156565967Y-113605895D01*
X156869411Y-113746749D01*
X156869418Y-113746752D01*
X156872008Y-113747954D01*
X157195060Y-113854794D01*
X157528252Y-113923794D01*
X157531090Y-113924047D01*
X157531095Y-113924048D01*
X157816894Y-113949555D01*
X157827480Y-113950500D01*
X158046715Y-113950500D01*
X158299697Y-113935913D01*
X158302505Y-113935423D01*
X158632092Y-113877901D01*
X158632100Y-113877899D01*
X158634891Y-113877412D01*
X158961140Y-113780773D01*
X159274119Y-113647276D01*
X159276584Y-113645870D01*
X159276590Y-113645867D01*
X159567209Y-113480101D01*
X159569681Y-113478691D01*
X159571970Y-113477009D01*
X159571977Y-113477005D01*
X159841609Y-113278940D01*
X159841608Y-113278940D01*
X159843907Y-113277252D01*
X160093162Y-113045629D01*
X160314144Y-112786893D01*
X160503923Y-112504472D01*
X160659984Y-112202110D01*
X160780257Y-111883815D01*
X160863150Y-111553805D01*
X160907563Y-111216455D01*
X160912908Y-110876237D01*
X160906508Y-110812118D01*
X160879396Y-110540492D01*
X160879396Y-110540490D01*
X160879113Y-110537658D01*
X160806627Y-110205207D01*
X160696411Y-109883292D01*
X160549924Y-109576177D01*
X160497849Y-109493161D01*
X160370626Y-109290351D01*
X160369110Y-109287934D01*
X160156365Y-109022384D01*
X160154334Y-109020374D01*
X159916539Y-108785057D01*
X159916531Y-108785050D01*
X159914507Y-108783047D01*
X159789960Y-108685390D01*
X159648983Y-108574849D01*
X159648976Y-108574844D01*
X159646744Y-108573094D01*
X159644315Y-108571606D01*
X159644310Y-108571602D01*
X159359059Y-108396800D01*
X159359057Y-108396799D01*
X159356624Y-108395308D01*
X159354037Y-108394107D01*
X159354033Y-108394105D01*
X159050589Y-108253251D01*
X159050582Y-108253248D01*
X159047992Y-108252046D01*
X158724940Y-108145206D01*
X158391748Y-108076206D01*
X158388910Y-108075953D01*
X158388905Y-108075952D01*
X158094716Y-108049696D01*
X158092520Y-108049500D01*
X157873285Y-108049500D01*
X157620303Y-108064087D01*
X157617496Y-108064577D01*
X157617495Y-108064577D01*
X157287908Y-108122099D01*
X157287900Y-108122101D01*
X157285109Y-108122588D01*
X156958860Y-108219227D01*
X156645881Y-108352724D01*
X156643416Y-108354130D01*
X156643410Y-108354133D01*
X156568607Y-108396800D01*
X156350319Y-108521309D01*
X156348030Y-108522991D01*
X156348023Y-108522995D01*
X156281853Y-108571602D01*
X156076093Y-108722748D01*
X155826838Y-108954371D01*
X155605856Y-109213107D01*
X155416077Y-109495528D01*
X155260016Y-109797890D01*
X155139743Y-110116185D01*
X155056850Y-110446195D01*
X155012437Y-110783545D01*
X155007092Y-111123763D01*
X110299201Y-111123763D01*
X110299456Y-94723763D01*
X138607092Y-94723763D01*
X138607376Y-94726608D01*
X138616060Y-94813605D01*
X138640887Y-95062342D01*
X138713373Y-95394793D01*
X138823589Y-95716708D01*
X138970076Y-96023823D01*
X138971590Y-96026236D01*
X138971593Y-96026242D01*
X139097656Y-96227204D01*
X139150890Y-96312066D01*
X139363635Y-96577616D01*
X139365665Y-96579624D01*
X139365666Y-96579626D01*
X139603461Y-96814943D01*
X139603469Y-96814950D01*
X139605493Y-96816953D01*
X139679925Y-96875315D01*
X139871017Y-97025151D01*
X139871024Y-97025156D01*
X139873256Y-97026906D01*
X139875685Y-97028394D01*
X139875690Y-97028398D01*
X139957761Y-97078691D01*
X140163376Y-97204692D01*
X140165963Y-97205893D01*
X140165967Y-97205895D01*
X140469411Y-97346749D01*
X140469418Y-97346752D01*
X140472008Y-97347954D01*
X140795060Y-97454794D01*
X141128252Y-97523794D01*
X141131090Y-97524047D01*
X141131095Y-97524048D01*
X141416894Y-97549555D01*
X141427480Y-97550500D01*
X141646715Y-97550500D01*
X141899697Y-97535913D01*
X141902505Y-97535423D01*
X142232092Y-97477901D01*
X142232100Y-97477899D01*
X142234891Y-97477412D01*
X142561140Y-97380773D01*
X142874119Y-97247276D01*
X142876584Y-97245870D01*
X142876590Y-97245867D01*
X143167209Y-97080101D01*
X143169681Y-97078691D01*
X143171970Y-97077009D01*
X143171977Y-97077005D01*
X143441609Y-96878940D01*
X143441608Y-96878940D01*
X143443907Y-96877252D01*
X143693162Y-96645629D01*
X143914144Y-96386893D01*
X144103923Y-96104472D01*
X144259984Y-95802110D01*
X144380257Y-95483815D01*
X144463150Y-95153805D01*
X144507563Y-94816455D01*
X144512908Y-94476237D01*
X144506508Y-94412118D01*
X144479396Y-94140492D01*
X144479396Y-94140490D01*
X144479113Y-94137658D01*
X144406627Y-93805207D01*
X144296411Y-93483292D01*
X144149924Y-93176177D01*
X144097849Y-93093161D01*
X143970626Y-92890351D01*
X143969110Y-92887934D01*
X143756365Y-92622384D01*
X143754334Y-92620374D01*
X143516539Y-92385057D01*
X143516531Y-92385050D01*
X143514507Y-92383047D01*
X143389960Y-92285390D01*
X143248983Y-92174849D01*
X143248976Y-92174844D01*
X143246744Y-92173094D01*
X143244315Y-92171606D01*
X143244310Y-92171602D01*
X142959059Y-91996800D01*
X142959057Y-91996799D01*
X142956624Y-91995308D01*
X142954037Y-91994107D01*
X142954033Y-91994105D01*
X142650589Y-91853251D01*
X142650582Y-91853248D01*
X142647992Y-91852046D01*
X142324940Y-91745206D01*
X141991748Y-91676206D01*
X141988910Y-91675953D01*
X141988905Y-91675952D01*
X141694716Y-91649696D01*
X141692520Y-91649500D01*
X141473285Y-91649500D01*
X141220303Y-91664087D01*
X141217496Y-91664577D01*
X141217495Y-91664577D01*
X140887908Y-91722099D01*
X140887900Y-91722101D01*
X140885109Y-91722588D01*
X140558860Y-91819227D01*
X140245881Y-91952724D01*
X140243416Y-91954130D01*
X140243410Y-91954133D01*
X140168607Y-91996800D01*
X139950319Y-92121309D01*
X139948030Y-92122991D01*
X139948023Y-92122995D01*
X139881853Y-92171602D01*
X139676093Y-92322748D01*
X139426838Y-92554371D01*
X139205856Y-92813107D01*
X139016077Y-93095528D01*
X138860016Y-93397890D01*
X138739743Y-93716185D01*
X138656850Y-94046195D01*
X138612437Y-94383545D01*
X138607092Y-94723763D01*
X110299456Y-94723763D01*
X110299670Y-80935423D01*
X110299714Y-78123763D01*
X155007092Y-78123763D01*
X155007376Y-78126608D01*
X155016060Y-78213605D01*
X155040887Y-78462342D01*
X155113373Y-78794793D01*
X155223589Y-79116708D01*
X155370076Y-79423823D01*
X155371590Y-79426236D01*
X155371593Y-79426242D01*
X155497656Y-79627204D01*
X155550890Y-79712066D01*
X155763635Y-79977616D01*
X155765665Y-79979624D01*
X155765666Y-79979626D01*
X156003461Y-80214943D01*
X156003469Y-80214950D01*
X156005493Y-80216953D01*
X156079925Y-80275315D01*
X156271017Y-80425151D01*
X156271024Y-80425156D01*
X156273256Y-80426906D01*
X156275685Y-80428394D01*
X156275690Y-80428398D01*
X156357761Y-80478691D01*
X156563376Y-80604692D01*
X156565963Y-80605893D01*
X156565967Y-80605895D01*
X156869411Y-80746749D01*
X156869418Y-80746752D01*
X156872008Y-80747954D01*
X157195060Y-80854794D01*
X157528252Y-80923794D01*
X157531090Y-80924047D01*
X157531095Y-80924048D01*
X157816894Y-80949555D01*
X157827480Y-80950500D01*
X158046715Y-80950500D01*
X158299697Y-80935913D01*
X158302505Y-80935423D01*
X158632092Y-80877901D01*
X158632100Y-80877899D01*
X158634891Y-80877412D01*
X158961140Y-80780773D01*
X159274119Y-80647276D01*
X159276584Y-80645870D01*
X159276590Y-80645867D01*
X159567209Y-80480101D01*
X159569681Y-80478691D01*
X159571970Y-80477009D01*
X159571977Y-80477005D01*
X159841609Y-80278940D01*
X159841608Y-80278940D01*
X159843907Y-80277252D01*
X160093162Y-80045629D01*
X160314144Y-79786893D01*
X160503923Y-79504472D01*
X160659984Y-79202110D01*
X160780257Y-78883815D01*
X160863150Y-78553805D01*
X160907563Y-78216455D01*
X160912908Y-77876237D01*
X160906508Y-77812118D01*
X160879396Y-77540492D01*
X160879396Y-77540490D01*
X160879113Y-77537658D01*
X160806627Y-77205207D01*
X160696411Y-76883292D01*
X160549924Y-76576177D01*
X160497849Y-76493161D01*
X160370626Y-76290351D01*
X160369110Y-76287934D01*
X160156365Y-76022384D01*
X160154334Y-76020374D01*
X159916539Y-75785057D01*
X159916531Y-75785050D01*
X159914507Y-75783047D01*
X159789960Y-75685390D01*
X159648983Y-75574849D01*
X159648976Y-75574844D01*
X159646744Y-75573094D01*
X159644315Y-75571606D01*
X159644310Y-75571602D01*
X159359059Y-75396800D01*
X159359057Y-75396799D01*
X159356624Y-75395308D01*
X159354037Y-75394107D01*
X159354033Y-75394105D01*
X159050589Y-75253251D01*
X159050582Y-75253248D01*
X159047992Y-75252046D01*
X158724940Y-75145206D01*
X158391748Y-75076206D01*
X158388910Y-75075953D01*
X158388905Y-75075952D01*
X158094716Y-75049696D01*
X158092520Y-75049500D01*
X157873285Y-75049500D01*
X157620303Y-75064087D01*
X157617496Y-75064577D01*
X157617495Y-75064577D01*
X157287908Y-75122099D01*
X157287900Y-75122101D01*
X157285109Y-75122588D01*
X156958860Y-75219227D01*
X156645881Y-75352724D01*
X156643416Y-75354130D01*
X156643410Y-75354133D01*
X156568607Y-75396800D01*
X156350319Y-75521309D01*
X156348030Y-75522991D01*
X156348023Y-75522995D01*
X156281853Y-75571602D01*
X156076093Y-75722748D01*
X155826838Y-75954371D01*
X155605856Y-76213107D01*
X155416077Y-76495528D01*
X155260016Y-76797890D01*
X155139743Y-77116185D01*
X155056850Y-77446195D01*
X155012437Y-77783545D01*
X155007092Y-78123763D01*
X110299714Y-78123763D01*
X110299811Y-71892500D01*
X127429659Y-71892500D01*
X127448993Y-72138155D01*
X127506517Y-72377762D01*
X127600816Y-72605420D01*
X127729567Y-72815523D01*
X127889601Y-73002899D01*
X128076977Y-73162933D01*
X128287080Y-73291684D01*
X128514738Y-73385983D01*
X128518512Y-73386889D01*
X128518515Y-73386890D01*
X128750571Y-73442601D01*
X128754345Y-73443507D01*
X128758210Y-73443811D01*
X128758215Y-73443812D01*
X128996125Y-73462536D01*
X129000000Y-73462841D01*
X129003875Y-73462536D01*
X129241785Y-73443812D01*
X129241790Y-73443811D01*
X129245655Y-73443507D01*
X129249429Y-73442601D01*
X129481485Y-73386890D01*
X129481488Y-73386889D01*
X129485262Y-73385983D01*
X129712920Y-73291684D01*
X129923023Y-73162933D01*
X130110399Y-73002899D01*
X130270433Y-72815523D01*
X130399184Y-72605420D01*
X130408536Y-72582843D01*
X130448272Y-72536317D01*
X130507767Y-72522033D01*
X130564295Y-72545448D01*
X130591464Y-72582843D01*
X130600816Y-72605420D01*
X130729567Y-72815523D01*
X130889601Y-73002899D01*
X131076977Y-73162933D01*
X131287080Y-73291684D01*
X131514738Y-73385983D01*
X131518512Y-73386889D01*
X131518515Y-73386890D01*
X131750571Y-73442601D01*
X131754345Y-73443507D01*
X131758210Y-73443811D01*
X131758215Y-73443812D01*
X131996125Y-73462536D01*
X132000000Y-73462841D01*
X132003875Y-73462536D01*
X132241785Y-73443812D01*
X132241790Y-73443811D01*
X132245655Y-73443507D01*
X132249429Y-73442601D01*
X132481485Y-73386890D01*
X132481488Y-73386889D01*
X132485262Y-73385983D01*
X132712920Y-73291684D01*
X132923023Y-73162933D01*
X133110399Y-73002899D01*
X133219196Y-72875514D01*
X134087649Y-72875514D01*
X134091885Y-72879750D01*
X134265589Y-72936191D01*
X134275010Y-72938262D01*
X134472786Y-72961845D01*
X134482413Y-72962047D01*
X134681002Y-72946766D01*
X134690493Y-72945093D01*
X134882332Y-72891531D01*
X134891312Y-72888048D01*
X134902928Y-72882180D01*
X134909641Y-72875514D01*
X137087649Y-72875514D01*
X137091885Y-72879750D01*
X137265589Y-72936191D01*
X137275010Y-72938262D01*
X137472786Y-72961845D01*
X137482413Y-72962047D01*
X137681002Y-72946766D01*
X137690493Y-72945093D01*
X137882332Y-72891531D01*
X137891312Y-72888048D01*
X137902928Y-72882180D01*
X137910968Y-72874196D01*
X137905775Y-72863961D01*
X137511086Y-72469272D01*
X137499203Y-72463218D01*
X137494172Y-72464014D01*
X137092820Y-72865366D01*
X137087649Y-72875514D01*
X134909641Y-72875514D01*
X134910968Y-72874196D01*
X134905775Y-72863961D01*
X134511086Y-72469272D01*
X134499203Y-72463218D01*
X134494172Y-72464014D01*
X134092820Y-72865366D01*
X134087649Y-72875514D01*
X133219196Y-72875514D01*
X133270433Y-72815523D01*
X133399184Y-72605420D01*
X133493483Y-72377762D01*
X133494390Y-72373985D01*
X133494393Y-72373976D01*
X133501003Y-72346443D01*
X133527263Y-72299551D01*
X133923228Y-71903586D01*
X133928470Y-71893297D01*
X135070718Y-71893297D01*
X135071514Y-71898328D01*
X135472369Y-72299183D01*
X135482517Y-72304354D01*
X135486871Y-72300000D01*
X135542032Y-72134182D01*
X135544166Y-72124788D01*
X135569388Y-71925132D01*
X135569775Y-71919606D01*
X135570114Y-71895259D01*
X135569884Y-71889761D01*
X135569160Y-71882378D01*
X136430356Y-71882378D01*
X136447023Y-72080864D01*
X136448761Y-72090332D01*
X136503661Y-72281792D01*
X136507212Y-72290760D01*
X136509836Y-72295866D01*
X136517963Y-72303937D01*
X136528027Y-72298787D01*
X136923228Y-71903586D01*
X136928470Y-71893297D01*
X138070718Y-71893297D01*
X138071514Y-71898328D01*
X138472369Y-72299183D01*
X138482517Y-72304354D01*
X138486871Y-72300000D01*
X138542032Y-72134182D01*
X138544166Y-72124788D01*
X138569388Y-71925132D01*
X138569775Y-71919606D01*
X138570114Y-71895259D01*
X138569999Y-71892500D01*
X148139659Y-71892500D01*
X148158993Y-72138155D01*
X148216517Y-72377762D01*
X148310816Y-72605420D01*
X148439567Y-72815523D01*
X148599601Y-73002899D01*
X148786977Y-73162933D01*
X148997080Y-73291684D01*
X149224738Y-73385983D01*
X149228512Y-73386889D01*
X149228515Y-73386890D01*
X149460571Y-73442601D01*
X149464345Y-73443507D01*
X149468210Y-73443811D01*
X149468215Y-73443812D01*
X149706125Y-73462536D01*
X149710000Y-73462841D01*
X149713875Y-73462536D01*
X149951785Y-73443812D01*
X149951790Y-73443811D01*
X149955655Y-73443507D01*
X149959429Y-73442601D01*
X150191485Y-73386890D01*
X150191488Y-73386889D01*
X150195262Y-73385983D01*
X150422920Y-73291684D01*
X150633023Y-73162933D01*
X150820399Y-73002899D01*
X150980433Y-72815523D01*
X151109184Y-72605420D01*
X151118536Y-72582843D01*
X151158272Y-72536317D01*
X151217767Y-72522033D01*
X151274295Y-72545448D01*
X151301464Y-72582843D01*
X151310816Y-72605420D01*
X151439567Y-72815523D01*
X151599601Y-73002899D01*
X151786977Y-73162933D01*
X151997080Y-73291684D01*
X152224738Y-73385983D01*
X152228512Y-73386889D01*
X152228515Y-73386890D01*
X152460571Y-73442601D01*
X152464345Y-73443507D01*
X152468210Y-73443811D01*
X152468215Y-73443812D01*
X152706125Y-73462536D01*
X152710000Y-73462841D01*
X152713875Y-73462536D01*
X152951785Y-73443812D01*
X152951790Y-73443811D01*
X152955655Y-73443507D01*
X152959429Y-73442601D01*
X153191485Y-73386890D01*
X153191488Y-73386889D01*
X153195262Y-73385983D01*
X153422920Y-73291684D01*
X153633023Y-73162933D01*
X153820399Y-73002899D01*
X153884719Y-72927589D01*
X153936889Y-72895619D01*
X153997886Y-72900420D01*
X154035280Y-72927589D01*
X154099601Y-73002899D01*
X154286977Y-73162933D01*
X154497080Y-73291684D01*
X154724738Y-73385983D01*
X154728512Y-73386889D01*
X154728515Y-73386890D01*
X154960571Y-73442601D01*
X154964345Y-73443507D01*
X154968210Y-73443811D01*
X154968215Y-73443812D01*
X155206125Y-73462536D01*
X155210000Y-73462841D01*
X155213875Y-73462536D01*
X155451785Y-73443812D01*
X155451790Y-73443811D01*
X155455655Y-73443507D01*
X155459429Y-73442601D01*
X155691485Y-73386890D01*
X155691488Y-73386889D01*
X155695262Y-73385983D01*
X155922920Y-73291684D01*
X156133023Y-73162933D01*
X156320399Y-73002899D01*
X156480433Y-72815523D01*
X156609184Y-72605420D01*
X156618536Y-72582843D01*
X156658272Y-72536317D01*
X156717767Y-72522033D01*
X156774295Y-72545448D01*
X156801464Y-72582843D01*
X156810816Y-72605420D01*
X156939567Y-72815523D01*
X157099601Y-73002899D01*
X157286977Y-73162933D01*
X157497080Y-73291684D01*
X157724738Y-73385983D01*
X157728512Y-73386889D01*
X157728515Y-73386890D01*
X157960571Y-73442601D01*
X157964345Y-73443507D01*
X157968210Y-73443811D01*
X157968215Y-73443812D01*
X158206125Y-73462536D01*
X158210000Y-73462841D01*
X158213875Y-73462536D01*
X158451785Y-73443812D01*
X158451790Y-73443811D01*
X158455655Y-73443507D01*
X158459429Y-73442601D01*
X158691485Y-73386890D01*
X158691488Y-73386889D01*
X158695262Y-73385983D01*
X158922920Y-73291684D01*
X159133023Y-73162933D01*
X159320399Y-73002899D01*
X159384719Y-72927589D01*
X159436889Y-72895619D01*
X159497886Y-72900420D01*
X159535280Y-72927589D01*
X159599601Y-73002899D01*
X159786977Y-73162933D01*
X159997080Y-73291684D01*
X160224738Y-73385983D01*
X160228512Y-73386889D01*
X160228515Y-73386890D01*
X160460571Y-73442601D01*
X160464345Y-73443507D01*
X160468210Y-73443811D01*
X160468215Y-73443812D01*
X160706125Y-73462536D01*
X160710000Y-73462841D01*
X160713875Y-73462536D01*
X160951785Y-73443812D01*
X160951790Y-73443811D01*
X160955655Y-73443507D01*
X160959429Y-73442601D01*
X161191485Y-73386890D01*
X161191488Y-73386889D01*
X161195262Y-73385983D01*
X161422920Y-73291684D01*
X161633023Y-73162933D01*
X161820399Y-73002899D01*
X161980433Y-72815523D01*
X162109184Y-72605420D01*
X162118536Y-72582843D01*
X162158272Y-72536317D01*
X162217767Y-72522033D01*
X162274295Y-72545448D01*
X162301464Y-72582843D01*
X162310816Y-72605420D01*
X162439567Y-72815523D01*
X162599601Y-73002899D01*
X162786977Y-73162933D01*
X162997080Y-73291684D01*
X163224738Y-73385983D01*
X163228512Y-73386889D01*
X163228515Y-73386890D01*
X163460571Y-73442601D01*
X163464345Y-73443507D01*
X163468210Y-73443811D01*
X163468215Y-73443812D01*
X163706125Y-73462536D01*
X163710000Y-73462841D01*
X163713875Y-73462536D01*
X163951785Y-73443812D01*
X163951790Y-73443811D01*
X163955655Y-73443507D01*
X163959429Y-73442601D01*
X164191485Y-73386890D01*
X164191488Y-73386889D01*
X164195262Y-73385983D01*
X164422920Y-73291684D01*
X164633023Y-73162933D01*
X164820399Y-73002899D01*
X164980433Y-72815523D01*
X165109184Y-72605420D01*
X165203483Y-72377762D01*
X165261007Y-72138155D01*
X165280341Y-71892500D01*
X165278787Y-71872750D01*
X165261312Y-71650715D01*
X165261311Y-71650710D01*
X165261007Y-71646845D01*
X165221847Y-71483729D01*
X165204390Y-71411015D01*
X165204389Y-71411011D01*
X165203483Y-71407238D01*
X165109184Y-71179580D01*
X164980433Y-70969477D01*
X164924534Y-70904027D01*
X164822933Y-70785068D01*
X164820399Y-70782101D01*
X164805552Y-70769420D01*
X164745089Y-70717780D01*
X164713119Y-70665611D01*
X164717920Y-70604614D01*
X164745089Y-70567220D01*
X164817432Y-70505433D01*
X164820399Y-70502899D01*
X164960000Y-70339447D01*
X164977905Y-70318483D01*
X164977905Y-70318482D01*
X164980433Y-70315523D01*
X165109184Y-70105420D01*
X165203483Y-69877762D01*
X165261007Y-69638155D01*
X165280341Y-69392500D01*
X165271380Y-69278646D01*
X165261312Y-69150715D01*
X165261311Y-69150710D01*
X165261007Y-69146845D01*
X165235263Y-69039612D01*
X165204390Y-68911015D01*
X165204389Y-68911011D01*
X165203483Y-68907238D01*
X165109184Y-68679580D01*
X164980433Y-68469477D01*
X164924534Y-68404027D01*
X164822933Y-68285068D01*
X164820399Y-68282101D01*
X164775293Y-68243577D01*
X164745089Y-68217780D01*
X164713119Y-68165611D01*
X164717920Y-68104614D01*
X164745089Y-68067220D01*
X164817432Y-68005433D01*
X164820399Y-68002899D01*
X164980433Y-67815523D01*
X165109184Y-67605420D01*
X165203483Y-67377762D01*
X165236495Y-67240258D01*
X165260101Y-67141929D01*
X165260101Y-67141928D01*
X165261007Y-67138155D01*
X165263925Y-67101088D01*
X165280036Y-66896375D01*
X165280341Y-66892500D01*
X165272413Y-66791771D01*
X166806668Y-66791771D01*
X166813349Y-67097965D01*
X166858883Y-67400830D01*
X166859746Y-67403868D01*
X166859746Y-67403870D01*
X166927489Y-67642471D01*
X166942531Y-67695453D01*
X166943774Y-67698360D01*
X167059363Y-67968700D01*
X167062937Y-67977060D01*
X167218149Y-68241085D01*
X167279234Y-68319977D01*
X167403720Y-68480754D01*
X167403726Y-68480761D01*
X167405651Y-68483247D01*
X167622404Y-68699622D01*
X167624892Y-68701541D01*
X167624896Y-68701545D01*
X167800573Y-68837079D01*
X167864894Y-68886702D01*
X167867605Y-68888290D01*
X167867606Y-68888290D01*
X167913606Y-68915224D01*
X168129189Y-69041453D01*
X168411006Y-69161367D01*
X168414035Y-69162221D01*
X168414037Y-69162222D01*
X168702739Y-69243645D01*
X168702743Y-69243646D01*
X168705775Y-69244501D01*
X169008718Y-69289506D01*
X169055613Y-69291471D01*
X169091053Y-69292957D01*
X169091063Y-69292957D01*
X169092084Y-69293000D01*
X169287474Y-69293000D01*
X169289053Y-69292899D01*
X169289062Y-69292899D01*
X169512500Y-69278646D01*
X169512504Y-69278645D01*
X169515647Y-69278445D01*
X169518739Y-69277847D01*
X169518745Y-69277846D01*
X169813242Y-69220867D01*
X169816338Y-69220268D01*
X169819328Y-69219282D01*
X169819332Y-69219281D01*
X170104199Y-69125346D01*
X170104205Y-69125344D01*
X170107200Y-69124356D01*
X170340874Y-69012649D01*
X170380678Y-68993621D01*
X170380682Y-68993619D01*
X170383518Y-68992263D01*
X170640812Y-68826131D01*
X170643227Y-68824094D01*
X170872496Y-68630689D01*
X170872501Y-68630684D01*
X170874910Y-68628652D01*
X171082019Y-68403029D01*
X171095058Y-68384580D01*
X171212940Y-68217780D01*
X171258780Y-68152918D01*
X171402328Y-67882374D01*
X171404914Y-67875514D01*
X171509220Y-67598745D01*
X171509221Y-67598741D01*
X171510336Y-67595783D01*
X171541607Y-67464014D01*
X171580327Y-67300851D01*
X171580327Y-67300848D01*
X171581053Y-67297791D01*
X171604044Y-67080864D01*
X171613001Y-66996356D01*
X171613001Y-66996350D01*
X171613332Y-66993229D01*
X171606651Y-66687035D01*
X171561117Y-66384170D01*
X171560254Y-66381130D01*
X171478332Y-66092586D01*
X171478331Y-66092583D01*
X171477469Y-66089547D01*
X171458394Y-66044933D01*
X171358305Y-65810844D01*
X171358303Y-65810840D01*
X171357063Y-65807940D01*
X171201851Y-65543915D01*
X171111782Y-65427589D01*
X171016280Y-65304246D01*
X171016274Y-65304239D01*
X171014349Y-65301753D01*
X170797596Y-65085378D01*
X170795108Y-65083459D01*
X170795104Y-65083455D01*
X170557596Y-64900219D01*
X170555106Y-64898298D01*
X170513583Y-64873985D01*
X170419284Y-64818771D01*
X170290811Y-64743547D01*
X170008994Y-64623633D01*
X170005965Y-64622779D01*
X170005963Y-64622778D01*
X169717261Y-64541355D01*
X169717257Y-64541354D01*
X169714225Y-64540499D01*
X169411282Y-64495494D01*
X169364387Y-64493529D01*
X169328947Y-64492043D01*
X169328937Y-64492043D01*
X169327916Y-64492000D01*
X169132526Y-64492000D01*
X169130947Y-64492101D01*
X169130938Y-64492101D01*
X168907500Y-64506354D01*
X168907496Y-64506355D01*
X168904353Y-64506555D01*
X168901261Y-64507153D01*
X168901255Y-64507154D01*
X168611848Y-64563148D01*
X168603662Y-64564732D01*
X168600672Y-64565718D01*
X168600668Y-64565719D01*
X168315801Y-64659654D01*
X168315795Y-64659656D01*
X168312800Y-64660644D01*
X168164825Y-64731383D01*
X168039322Y-64791379D01*
X168039318Y-64791381D01*
X168036482Y-64792737D01*
X167779188Y-64958869D01*
X167776775Y-64960904D01*
X167776773Y-64960906D01*
X167547504Y-65154311D01*
X167547499Y-65154316D01*
X167545090Y-65156348D01*
X167337981Y-65381971D01*
X167336159Y-65384549D01*
X167316632Y-65412179D01*
X167161220Y-65632082D01*
X167017672Y-65902626D01*
X167016559Y-65905580D01*
X167016556Y-65905586D01*
X166913296Y-66179580D01*
X166909664Y-66189217D01*
X166908935Y-66192288D01*
X166908934Y-66192292D01*
X166854587Y-66421303D01*
X166838947Y-66487209D01*
X166838616Y-66490335D01*
X166812376Y-66737918D01*
X166806668Y-66791771D01*
X165272413Y-66791771D01*
X165268175Y-66737918D01*
X165261312Y-66650715D01*
X165261311Y-66650710D01*
X165261007Y-66646845D01*
X165221847Y-66483729D01*
X165204390Y-66411015D01*
X165204389Y-66411011D01*
X165203483Y-66407238D01*
X165109184Y-66179580D01*
X164980433Y-65969477D01*
X164924534Y-65904027D01*
X164822933Y-65785068D01*
X164820399Y-65782101D01*
X164745089Y-65717780D01*
X164713119Y-65665611D01*
X164717920Y-65604614D01*
X164745089Y-65567220D01*
X164817432Y-65505433D01*
X164820399Y-65502899D01*
X164980433Y-65315523D01*
X165109184Y-65105420D01*
X165203483Y-64877762D01*
X165213921Y-64834287D01*
X165260101Y-64641929D01*
X165260101Y-64641928D01*
X165261007Y-64638155D01*
X165262066Y-64624707D01*
X165280036Y-64396375D01*
X165280341Y-64392500D01*
X165264899Y-64196294D01*
X165261312Y-64150715D01*
X165261311Y-64150710D01*
X165261007Y-64146845D01*
X165221847Y-63983729D01*
X165204390Y-63911015D01*
X165204389Y-63911011D01*
X165203483Y-63907238D01*
X165200432Y-63899871D01*
X165134025Y-63739552D01*
X165109184Y-63679580D01*
X164980433Y-63469477D01*
X164924534Y-63404027D01*
X164822933Y-63285068D01*
X164820399Y-63282101D01*
X164745089Y-63217780D01*
X164713119Y-63165611D01*
X164717920Y-63104614D01*
X164745089Y-63067220D01*
X164817432Y-63005433D01*
X164820399Y-63002899D01*
X164960000Y-62839447D01*
X164977905Y-62818483D01*
X164977905Y-62818482D01*
X164980433Y-62815523D01*
X165109184Y-62605420D01*
X165203483Y-62377762D01*
X165261007Y-62138155D01*
X165280341Y-61892500D01*
X165278100Y-61864028D01*
X165261312Y-61650715D01*
X165261311Y-61650710D01*
X165261007Y-61646845D01*
X165221847Y-61483729D01*
X165204390Y-61411015D01*
X165204389Y-61411011D01*
X165203483Y-61407238D01*
X165109184Y-61179580D01*
X164980433Y-60969477D01*
X164924534Y-60904027D01*
X164822933Y-60785068D01*
X164820399Y-60782101D01*
X164633023Y-60622067D01*
X164422920Y-60493316D01*
X164195262Y-60399017D01*
X164191488Y-60398111D01*
X164191485Y-60398110D01*
X163959429Y-60342399D01*
X163959428Y-60342399D01*
X163955655Y-60341493D01*
X163951790Y-60341189D01*
X163951785Y-60341188D01*
X163713875Y-60322464D01*
X163710000Y-60322159D01*
X163706125Y-60322464D01*
X163468215Y-60341188D01*
X163468210Y-60341189D01*
X163464345Y-60341493D01*
X163460572Y-60342399D01*
X163460571Y-60342399D01*
X163228515Y-60398110D01*
X163228512Y-60398111D01*
X163224738Y-60399017D01*
X162997080Y-60493316D01*
X162786977Y-60622067D01*
X162599601Y-60782101D01*
X162597067Y-60785068D01*
X162495467Y-60904027D01*
X162439567Y-60969477D01*
X162310816Y-61179580D01*
X162309328Y-61183173D01*
X162309326Y-61183177D01*
X162301464Y-61202157D01*
X162261728Y-61248683D01*
X162202233Y-61262967D01*
X162145705Y-61239552D01*
X162118536Y-61202157D01*
X162110674Y-61183177D01*
X162110672Y-61183173D01*
X162109184Y-61179580D01*
X161980433Y-60969477D01*
X161924534Y-60904027D01*
X161822933Y-60785068D01*
X161820399Y-60782101D01*
X161633023Y-60622067D01*
X161422920Y-60493316D01*
X161195262Y-60399017D01*
X161191488Y-60398111D01*
X161191485Y-60398110D01*
X160959429Y-60342399D01*
X160959428Y-60342399D01*
X160955655Y-60341493D01*
X160951790Y-60341189D01*
X160951785Y-60341188D01*
X160713875Y-60322464D01*
X160710000Y-60322159D01*
X160706125Y-60322464D01*
X160468215Y-60341188D01*
X160468210Y-60341189D01*
X160464345Y-60341493D01*
X160460572Y-60342399D01*
X160460571Y-60342399D01*
X160228515Y-60398110D01*
X160228512Y-60398111D01*
X160224738Y-60399017D01*
X159997080Y-60493316D01*
X159786977Y-60622067D01*
X159599601Y-60782101D01*
X159597067Y-60785068D01*
X159535280Y-60857411D01*
X159483111Y-60889381D01*
X159422114Y-60884580D01*
X159384720Y-60857411D01*
X159322933Y-60785068D01*
X159320399Y-60782101D01*
X159133023Y-60622067D01*
X158922920Y-60493316D01*
X158695262Y-60399017D01*
X158691488Y-60398111D01*
X158691485Y-60398110D01*
X158459429Y-60342399D01*
X158459428Y-60342399D01*
X158455655Y-60341493D01*
X158451790Y-60341189D01*
X158451785Y-60341188D01*
X158213875Y-60322464D01*
X158210000Y-60322159D01*
X158206125Y-60322464D01*
X157968215Y-60341188D01*
X157968210Y-60341189D01*
X157964345Y-60341493D01*
X157960572Y-60342399D01*
X157960571Y-60342399D01*
X157728515Y-60398110D01*
X157728512Y-60398111D01*
X157724738Y-60399017D01*
X157497080Y-60493316D01*
X157286977Y-60622067D01*
X157099601Y-60782101D01*
X157097067Y-60785068D01*
X156995467Y-60904027D01*
X156939567Y-60969477D01*
X156810816Y-61179580D01*
X156809328Y-61183173D01*
X156809326Y-61183177D01*
X156801464Y-61202157D01*
X156761728Y-61248683D01*
X156702233Y-61262967D01*
X156645705Y-61239552D01*
X156618536Y-61202157D01*
X156610674Y-61183177D01*
X156610672Y-61183173D01*
X156609184Y-61179580D01*
X156480433Y-60969477D01*
X156424534Y-60904027D01*
X156322933Y-60785068D01*
X156320399Y-60782101D01*
X156133023Y-60622067D01*
X155922920Y-60493316D01*
X155695262Y-60399017D01*
X155691488Y-60398111D01*
X155691485Y-60398110D01*
X155459429Y-60342399D01*
X155459428Y-60342399D01*
X155455655Y-60341493D01*
X155451790Y-60341189D01*
X155451785Y-60341188D01*
X155213875Y-60322464D01*
X155210000Y-60322159D01*
X155206125Y-60322464D01*
X154968215Y-60341188D01*
X154968210Y-60341189D01*
X154964345Y-60341493D01*
X154960572Y-60342399D01*
X154960571Y-60342399D01*
X154728515Y-60398110D01*
X154728512Y-60398111D01*
X154724738Y-60399017D01*
X154497080Y-60493316D01*
X154286977Y-60622067D01*
X154099601Y-60782101D01*
X154097067Y-60785068D01*
X154035280Y-60857411D01*
X153983111Y-60889381D01*
X153922114Y-60884580D01*
X153884720Y-60857411D01*
X153822933Y-60785068D01*
X153820399Y-60782101D01*
X153633023Y-60622067D01*
X153422920Y-60493316D01*
X153195262Y-60399017D01*
X153191488Y-60398111D01*
X153191485Y-60398110D01*
X152959429Y-60342399D01*
X152959428Y-60342399D01*
X152955655Y-60341493D01*
X152951790Y-60341189D01*
X152951785Y-60341188D01*
X152713875Y-60322464D01*
X152710000Y-60322159D01*
X152706125Y-60322464D01*
X152468215Y-60341188D01*
X152468210Y-60341189D01*
X152464345Y-60341493D01*
X152460572Y-60342399D01*
X152460571Y-60342399D01*
X152228515Y-60398110D01*
X152228512Y-60398111D01*
X152224738Y-60399017D01*
X151997080Y-60493316D01*
X151786977Y-60622067D01*
X151599601Y-60782101D01*
X151597067Y-60785068D01*
X151495467Y-60904027D01*
X151439567Y-60969477D01*
X151310816Y-61179580D01*
X151309328Y-61183173D01*
X151309326Y-61183177D01*
X151301464Y-61202157D01*
X151261728Y-61248683D01*
X151202233Y-61262967D01*
X151145705Y-61239552D01*
X151118536Y-61202157D01*
X151110674Y-61183177D01*
X151110672Y-61183173D01*
X151109184Y-61179580D01*
X150980433Y-60969477D01*
X150924534Y-60904027D01*
X150822933Y-60785068D01*
X150820399Y-60782101D01*
X150633023Y-60622067D01*
X150422920Y-60493316D01*
X150195262Y-60399017D01*
X150191488Y-60398111D01*
X150191485Y-60398110D01*
X149959429Y-60342399D01*
X149959428Y-60342399D01*
X149955655Y-60341493D01*
X149951790Y-60341189D01*
X149951785Y-60341188D01*
X149713875Y-60322464D01*
X149710000Y-60322159D01*
X149706125Y-60322464D01*
X149468215Y-60341188D01*
X149468210Y-60341189D01*
X149464345Y-60341493D01*
X149460572Y-60342399D01*
X149460571Y-60342399D01*
X149228515Y-60398110D01*
X149228512Y-60398111D01*
X149224738Y-60399017D01*
X148997080Y-60493316D01*
X148786977Y-60622067D01*
X148599601Y-60782101D01*
X148597067Y-60785068D01*
X148495467Y-60904027D01*
X148439567Y-60969477D01*
X148310816Y-61179580D01*
X148216517Y-61407238D01*
X148215611Y-61411011D01*
X148215610Y-61411015D01*
X148198153Y-61483729D01*
X148158993Y-61646845D01*
X148158689Y-61650710D01*
X148158688Y-61650715D01*
X148141900Y-61864028D01*
X148139659Y-61892500D01*
X148158993Y-62138155D01*
X148216517Y-62377762D01*
X148310816Y-62605420D01*
X148439567Y-62815523D01*
X148442095Y-62818482D01*
X148442095Y-62818483D01*
X148460000Y-62839447D01*
X148599601Y-63002899D01*
X148602568Y-63005433D01*
X148674911Y-63067220D01*
X148706881Y-63119389D01*
X148702080Y-63180386D01*
X148674911Y-63217780D01*
X148599601Y-63282101D01*
X148597067Y-63285068D01*
X148495467Y-63404027D01*
X148439567Y-63469477D01*
X148310816Y-63679580D01*
X148285975Y-63739552D01*
X148219569Y-63899871D01*
X148216517Y-63907238D01*
X148215611Y-63911011D01*
X148215610Y-63911015D01*
X148198153Y-63983729D01*
X148158993Y-64146845D01*
X148158689Y-64150710D01*
X148158688Y-64150715D01*
X148155101Y-64196294D01*
X148139659Y-64392500D01*
X148139964Y-64396375D01*
X148157935Y-64624707D01*
X148158993Y-64638155D01*
X148159899Y-64641928D01*
X148159899Y-64641929D01*
X148206080Y-64834287D01*
X148216517Y-64877762D01*
X148310816Y-65105420D01*
X148439567Y-65315523D01*
X148599601Y-65502899D01*
X148602568Y-65505433D01*
X148674911Y-65567220D01*
X148706881Y-65619389D01*
X148702080Y-65680386D01*
X148674911Y-65717780D01*
X148599601Y-65782101D01*
X148597067Y-65785068D01*
X148495467Y-65904027D01*
X148439567Y-65969477D01*
X148310816Y-66179580D01*
X148216517Y-66407238D01*
X148215611Y-66411011D01*
X148215610Y-66411015D01*
X148198153Y-66483729D01*
X148158993Y-66646845D01*
X148158689Y-66650710D01*
X148158688Y-66650715D01*
X148151825Y-66737918D01*
X148139659Y-66892500D01*
X148139964Y-66896375D01*
X148156076Y-67101088D01*
X148158993Y-67138155D01*
X148159899Y-67141928D01*
X148159899Y-67141929D01*
X148183506Y-67240258D01*
X148216517Y-67377762D01*
X148310816Y-67605420D01*
X148439567Y-67815523D01*
X148599601Y-68002899D01*
X148602568Y-68005433D01*
X148674911Y-68067220D01*
X148706881Y-68119389D01*
X148702080Y-68180386D01*
X148674911Y-68217780D01*
X148644707Y-68243577D01*
X148599601Y-68282101D01*
X148597067Y-68285068D01*
X148495467Y-68404027D01*
X148439567Y-68469477D01*
X148310816Y-68679580D01*
X148216517Y-68907238D01*
X148215611Y-68911011D01*
X148215610Y-68911015D01*
X148184737Y-69039612D01*
X148158993Y-69146845D01*
X148158689Y-69150710D01*
X148158688Y-69150715D01*
X148148620Y-69278646D01*
X148139659Y-69392500D01*
X148158993Y-69638155D01*
X148216517Y-69877762D01*
X148310816Y-70105420D01*
X148439567Y-70315523D01*
X148442095Y-70318482D01*
X148442095Y-70318483D01*
X148460000Y-70339447D01*
X148599601Y-70502899D01*
X148602568Y-70505433D01*
X148674911Y-70567220D01*
X148706881Y-70619389D01*
X148702080Y-70680386D01*
X148674911Y-70717780D01*
X148614448Y-70769420D01*
X148599601Y-70782101D01*
X148597067Y-70785068D01*
X148495467Y-70904027D01*
X148439567Y-70969477D01*
X148310816Y-71179580D01*
X148216517Y-71407238D01*
X148215611Y-71411011D01*
X148215610Y-71411015D01*
X148198153Y-71483729D01*
X148158993Y-71646845D01*
X148158689Y-71650710D01*
X148158688Y-71650715D01*
X148141213Y-71872750D01*
X148139659Y-71892500D01*
X138569999Y-71892500D01*
X138569884Y-71889761D01*
X138550244Y-71689450D01*
X138548375Y-71680012D01*
X138490804Y-71489328D01*
X138489708Y-71486668D01*
X138482825Y-71480021D01*
X138473107Y-71485079D01*
X138076772Y-71881414D01*
X138070718Y-71893297D01*
X136928470Y-71893297D01*
X136929282Y-71891703D01*
X136928486Y-71886672D01*
X136526592Y-71484778D01*
X136516444Y-71479607D01*
X136512322Y-71483729D01*
X136454696Y-71665388D01*
X136452692Y-71674816D01*
X136430490Y-71872750D01*
X136430356Y-71882378D01*
X135569160Y-71882378D01*
X135550244Y-71689450D01*
X135548375Y-71680012D01*
X135490804Y-71489328D01*
X135489708Y-71486668D01*
X135482825Y-71480021D01*
X135473107Y-71485079D01*
X135076772Y-71881414D01*
X135070718Y-71893297D01*
X133928470Y-71893297D01*
X133929282Y-71891703D01*
X133928486Y-71886672D01*
X133527263Y-71485449D01*
X133501002Y-71438556D01*
X133494389Y-71411011D01*
X133494388Y-71411009D01*
X133493483Y-71407238D01*
X133399184Y-71179580D01*
X133270433Y-70969477D01*
X133219710Y-70910087D01*
X134088059Y-70910087D01*
X134093165Y-70919979D01*
X134488914Y-71315728D01*
X134500797Y-71321782D01*
X134505828Y-71320986D01*
X134907605Y-70919209D01*
X134912253Y-70910087D01*
X137088059Y-70910087D01*
X137093165Y-70919979D01*
X137488914Y-71315728D01*
X137500797Y-71321782D01*
X137505828Y-71320986D01*
X137907605Y-70919209D01*
X137912973Y-70908673D01*
X137908439Y-70904027D01*
X137719806Y-70845636D01*
X137710372Y-70843699D01*
X137512287Y-70822879D01*
X137502649Y-70822812D01*
X137304292Y-70840863D01*
X137294829Y-70842669D01*
X137103757Y-70898904D01*
X137095903Y-70902078D01*
X137088059Y-70910087D01*
X134912253Y-70910087D01*
X134912973Y-70908673D01*
X134908439Y-70904027D01*
X134719806Y-70845636D01*
X134710372Y-70843699D01*
X134512287Y-70822879D01*
X134502649Y-70822812D01*
X134304292Y-70840863D01*
X134294829Y-70842669D01*
X134103757Y-70898904D01*
X134095903Y-70902078D01*
X134088059Y-70910087D01*
X133219710Y-70910087D01*
X133214534Y-70904027D01*
X133112933Y-70785068D01*
X133110399Y-70782101D01*
X133095552Y-70769420D01*
X133035089Y-70717780D01*
X133003119Y-70665611D01*
X133007920Y-70604614D01*
X133035089Y-70567220D01*
X133107432Y-70505433D01*
X133110399Y-70502899D01*
X133219196Y-70375514D01*
X134087649Y-70375514D01*
X134091885Y-70379750D01*
X134265589Y-70436191D01*
X134275010Y-70438262D01*
X134472786Y-70461845D01*
X134482413Y-70462047D01*
X134681002Y-70446766D01*
X134690493Y-70445093D01*
X134882332Y-70391531D01*
X134891312Y-70388048D01*
X134902928Y-70382180D01*
X134909641Y-70375514D01*
X137087649Y-70375514D01*
X137091885Y-70379750D01*
X137265589Y-70436191D01*
X137275010Y-70438262D01*
X137472786Y-70461845D01*
X137482413Y-70462047D01*
X137681002Y-70446766D01*
X137690493Y-70445093D01*
X137882332Y-70391531D01*
X137891312Y-70388048D01*
X137902928Y-70382180D01*
X137910968Y-70374196D01*
X137905775Y-70363961D01*
X137511086Y-69969272D01*
X137499203Y-69963218D01*
X137494172Y-69964014D01*
X137092820Y-70365366D01*
X137087649Y-70375514D01*
X134909641Y-70375514D01*
X134910968Y-70374196D01*
X134905775Y-70363961D01*
X134511086Y-69969272D01*
X134499203Y-69963218D01*
X134494172Y-69964014D01*
X134092820Y-70365366D01*
X134087649Y-70375514D01*
X133219196Y-70375514D01*
X133250000Y-70339447D01*
X133267905Y-70318483D01*
X133267905Y-70318482D01*
X133270433Y-70315523D01*
X133399184Y-70105420D01*
X133493483Y-69877762D01*
X133494390Y-69873985D01*
X133494393Y-69873976D01*
X133495812Y-69868067D01*
X140661107Y-69868067D01*
X140674401Y-70098639D01*
X140675293Y-70102596D01*
X140723946Y-70318483D01*
X140725176Y-70323942D01*
X140726705Y-70327706D01*
X140726706Y-70327711D01*
X140797842Y-70502899D01*
X140812066Y-70537928D01*
X140932740Y-70734849D01*
X140935401Y-70737921D01*
X140935404Y-70737925D01*
X141081289Y-70906339D01*
X141081293Y-70906343D01*
X141083955Y-70909416D01*
X141087082Y-70912012D01*
X141087083Y-70912013D01*
X141156299Y-70969477D01*
X141261651Y-71056942D01*
X141461056Y-71173465D01*
X141676814Y-71255855D01*
X141680789Y-71256664D01*
X141680790Y-71256664D01*
X141899150Y-71301090D01*
X141899152Y-71301090D01*
X141903132Y-71301900D01*
X141907192Y-71302049D01*
X141907193Y-71302049D01*
X141949579Y-71303603D01*
X142133931Y-71310363D01*
X142137949Y-71309848D01*
X142137955Y-71309848D01*
X142358981Y-71281534D01*
X142358987Y-71281533D01*
X142363013Y-71281017D01*
X142366906Y-71279849D01*
X142366911Y-71279848D01*
X142526168Y-71232068D01*
X142584226Y-71214650D01*
X142693427Y-71161153D01*
X142787982Y-71114831D01*
X142787985Y-71114829D01*
X142791629Y-71113044D01*
X142979653Y-70978928D01*
X142983810Y-70974785D01*
X143001301Y-70957356D01*
X143055866Y-70929675D01*
X143116281Y-70939353D01*
X143134419Y-70951312D01*
X143261651Y-71056942D01*
X143461056Y-71173465D01*
X143676814Y-71255855D01*
X143680789Y-71256664D01*
X143680790Y-71256664D01*
X143899150Y-71301090D01*
X143899152Y-71301090D01*
X143903132Y-71301900D01*
X143907192Y-71302049D01*
X143907193Y-71302049D01*
X143949579Y-71303603D01*
X144133931Y-71310363D01*
X144137949Y-71309848D01*
X144137955Y-71309848D01*
X144358981Y-71281534D01*
X144358987Y-71281533D01*
X144363013Y-71281017D01*
X144366906Y-71279849D01*
X144366911Y-71279848D01*
X144526168Y-71232068D01*
X144584226Y-71214650D01*
X144693427Y-71161153D01*
X144787982Y-71114831D01*
X144787985Y-71114829D01*
X144791629Y-71113044D01*
X144979653Y-70978928D01*
X145143247Y-70815904D01*
X145213756Y-70717780D01*
X145275647Y-70631650D01*
X145275648Y-70631648D01*
X145278018Y-70628350D01*
X145279816Y-70624712D01*
X145279819Y-70624707D01*
X145378547Y-70424945D01*
X145380347Y-70421303D01*
X145381525Y-70417427D01*
X145381527Y-70417421D01*
X145446306Y-70204207D01*
X145446306Y-70204206D01*
X145447486Y-70200323D01*
X145477631Y-69971345D01*
X145479314Y-69902500D01*
X145476151Y-69864028D01*
X145460723Y-69676369D01*
X145460722Y-69676366D01*
X145460390Y-69672322D01*
X145448451Y-69624788D01*
X145405117Y-69452272D01*
X145404126Y-69448326D01*
X145312033Y-69236528D01*
X145186585Y-69042614D01*
X145121458Y-68971040D01*
X145096280Y-68915275D01*
X145108688Y-68855361D01*
X145124800Y-68834287D01*
X145140370Y-68818771D01*
X145143247Y-68815904D01*
X145203981Y-68731383D01*
X145275647Y-68631650D01*
X145275648Y-68631648D01*
X145278018Y-68628350D01*
X145279816Y-68624712D01*
X145279819Y-68624707D01*
X145378547Y-68424945D01*
X145380347Y-68421303D01*
X145381525Y-68417427D01*
X145381527Y-68417421D01*
X145446306Y-68204207D01*
X145446306Y-68204206D01*
X145447486Y-68200323D01*
X145477631Y-67971345D01*
X145477859Y-67962047D01*
X145478490Y-67936191D01*
X145479314Y-67902500D01*
X145477889Y-67885168D01*
X145460723Y-67676369D01*
X145460722Y-67676366D01*
X145460390Y-67672322D01*
X145443586Y-67605420D01*
X145409387Y-67469272D01*
X145404126Y-67448326D01*
X145312033Y-67236528D01*
X145186585Y-67042614D01*
X145121458Y-66971040D01*
X145096280Y-66915275D01*
X145108688Y-66855361D01*
X145124800Y-66834287D01*
X145140370Y-66818771D01*
X145143247Y-66815904D01*
X145278018Y-66628350D01*
X145279816Y-66624712D01*
X145279819Y-66624707D01*
X145378547Y-66424945D01*
X145380347Y-66421303D01*
X145381525Y-66417427D01*
X145381527Y-66417421D01*
X145446306Y-66204207D01*
X145446306Y-66204206D01*
X145447486Y-66200323D01*
X145477631Y-65971345D01*
X145479314Y-65902500D01*
X145479018Y-65898904D01*
X145460723Y-65676369D01*
X145460722Y-65676366D01*
X145460390Y-65672322D01*
X145458705Y-65665611D01*
X145405117Y-65452272D01*
X145404126Y-65448326D01*
X145312033Y-65236528D01*
X145186585Y-65042614D01*
X145121458Y-64971040D01*
X145096280Y-64915275D01*
X145108688Y-64855361D01*
X145124800Y-64834287D01*
X145140370Y-64818771D01*
X145143247Y-64815904D01*
X145203981Y-64731383D01*
X145275647Y-64631650D01*
X145275648Y-64631648D01*
X145278018Y-64628350D01*
X145279816Y-64624712D01*
X145279819Y-64624707D01*
X145378547Y-64424945D01*
X145380347Y-64421303D01*
X145381525Y-64417427D01*
X145381527Y-64417421D01*
X145446306Y-64204207D01*
X145446306Y-64204206D01*
X145447486Y-64200323D01*
X145477631Y-63971345D01*
X145479314Y-63902500D01*
X145472678Y-63821782D01*
X145460723Y-63676369D01*
X145460722Y-63676366D01*
X145460390Y-63672322D01*
X145404126Y-63448326D01*
X145312033Y-63236528D01*
X145186585Y-63042614D01*
X145031150Y-62871793D01*
X144948337Y-62806391D01*
X144914390Y-62755490D01*
X144916845Y-62694354D01*
X144928010Y-62672767D01*
X144929519Y-62670563D01*
X144968000Y-62583520D01*
X144971873Y-62569315D01*
X144973668Y-62553920D01*
X144974000Y-62548208D01*
X144974000Y-62318180D01*
X144969878Y-62305495D01*
X144965757Y-62302500D01*
X143769000Y-62302500D01*
X143710809Y-62283593D01*
X143674845Y-62234093D01*
X143670000Y-62203500D01*
X143670000Y-61486820D01*
X144470000Y-61486820D01*
X144474122Y-61499505D01*
X144478243Y-61502500D01*
X144958320Y-61502500D01*
X144971005Y-61498378D01*
X144974000Y-61494257D01*
X144974000Y-61256861D01*
X144973654Y-61251015D01*
X144971766Y-61235147D01*
X144967872Y-61220981D01*
X144929230Y-61133986D01*
X144919054Y-61119179D01*
X144852892Y-61053133D01*
X144838069Y-61042983D01*
X144751020Y-61004500D01*
X144736815Y-61000627D01*
X144721420Y-60998832D01*
X144715708Y-60998500D01*
X144485680Y-60998500D01*
X144472995Y-61002622D01*
X144470000Y-61006743D01*
X144470000Y-61486820D01*
X143670000Y-61486820D01*
X143670000Y-61014180D01*
X143665878Y-61001495D01*
X143661757Y-60998500D01*
X143424361Y-60998500D01*
X143418515Y-60998846D01*
X143402647Y-61000734D01*
X143388481Y-61004628D01*
X143293135Y-61046979D01*
X143292519Y-61045593D01*
X143243676Y-61060064D01*
X143185999Y-61039643D01*
X143173038Y-61027726D01*
X143123056Y-60972797D01*
X143031150Y-60871793D01*
X143027964Y-60869277D01*
X143027961Y-60869274D01*
X142853090Y-60731169D01*
X142853084Y-60731165D01*
X142849902Y-60728652D01*
X142647710Y-60617036D01*
X142643887Y-60615682D01*
X142643882Y-60615680D01*
X142433827Y-60541296D01*
X142433825Y-60541296D01*
X142430003Y-60539942D01*
X142426010Y-60539231D01*
X142426007Y-60539230D01*
X142279012Y-60513047D01*
X142202628Y-60499441D01*
X142198582Y-60499392D01*
X142198576Y-60499391D01*
X142071123Y-60497834D01*
X141971691Y-60496619D01*
X141743394Y-60531553D01*
X141625147Y-60570202D01*
X141527726Y-60602044D01*
X141527722Y-60602046D01*
X141523869Y-60603305D01*
X141520269Y-60605179D01*
X141322615Y-60708071D01*
X141322612Y-60708073D01*
X141319010Y-60709948D01*
X141315768Y-60712383D01*
X141315762Y-60712386D01*
X141173184Y-60819438D01*
X141134319Y-60848618D01*
X141131514Y-60851553D01*
X141131512Y-60851555D01*
X141112172Y-60871793D01*
X140974757Y-61015590D01*
X140972465Y-61018950D01*
X140846899Y-61203023D01*
X140846896Y-61203029D01*
X140844609Y-61206381D01*
X140747369Y-61415866D01*
X140685649Y-61638421D01*
X140685216Y-61642469D01*
X140685216Y-61642471D01*
X140681204Y-61680012D01*
X140661107Y-61868067D01*
X140674401Y-62098639D01*
X140684157Y-62141929D01*
X140721019Y-62305495D01*
X140725176Y-62323942D01*
X140726705Y-62327706D01*
X140726706Y-62327711D01*
X140764710Y-62421303D01*
X140812066Y-62537928D01*
X140932740Y-62734849D01*
X141021297Y-62837082D01*
X141045105Y-62893442D01*
X141031238Y-62953035D01*
X141018041Y-62970296D01*
X140974757Y-63015590D01*
X140972465Y-63018950D01*
X140846899Y-63203023D01*
X140846896Y-63203029D01*
X140844609Y-63206381D01*
X140747369Y-63415866D01*
X140685649Y-63638421D01*
X140685216Y-63642469D01*
X140685216Y-63642471D01*
X140681250Y-63679580D01*
X140661107Y-63868067D01*
X140674401Y-64098639D01*
X140725176Y-64323942D01*
X140726705Y-64327706D01*
X140726706Y-64327711D01*
X140793417Y-64492000D01*
X140812066Y-64537928D01*
X140932740Y-64734849D01*
X141021297Y-64837082D01*
X141045105Y-64893442D01*
X141031238Y-64953035D01*
X141018041Y-64970296D01*
X140974757Y-65015590D01*
X140972465Y-65018950D01*
X140846899Y-65203023D01*
X140846896Y-65203029D01*
X140844609Y-65206381D01*
X140747369Y-65415866D01*
X140723233Y-65502899D01*
X140695025Y-65604614D01*
X140685649Y-65638421D01*
X140685216Y-65642469D01*
X140685216Y-65642471D01*
X140681164Y-65680386D01*
X140661107Y-65868067D01*
X140674401Y-66098639D01*
X140675293Y-66102596D01*
X140723325Y-66315728D01*
X140725176Y-66323942D01*
X140726705Y-66327706D01*
X140726706Y-66327711D01*
X140790058Y-66483729D01*
X140812066Y-66537928D01*
X140932740Y-66734849D01*
X141021297Y-66837082D01*
X141045105Y-66893442D01*
X141031238Y-66953035D01*
X141018041Y-66970296D01*
X140974757Y-67015590D01*
X140972465Y-67018950D01*
X140846899Y-67203023D01*
X140846896Y-67203029D01*
X140844609Y-67206381D01*
X140747369Y-67415866D01*
X140717926Y-67522033D01*
X140693881Y-67608739D01*
X140685649Y-67638421D01*
X140685216Y-67642469D01*
X140685216Y-67642471D01*
X140679879Y-67692414D01*
X140661107Y-67868067D01*
X140674401Y-68098639D01*
X140689494Y-68165611D01*
X140715747Y-68282101D01*
X140725176Y-68323942D01*
X140726705Y-68327706D01*
X140726706Y-68327711D01*
X140790768Y-68485476D01*
X140812066Y-68537928D01*
X140932740Y-68734849D01*
X141021297Y-68837082D01*
X141045105Y-68893442D01*
X141031238Y-68953035D01*
X141018041Y-68970296D01*
X140974757Y-69015590D01*
X140972465Y-69018950D01*
X140846899Y-69203023D01*
X140846896Y-69203029D01*
X140844609Y-69206381D01*
X140747369Y-69415866D01*
X140738367Y-69448326D01*
X140686825Y-69634182D01*
X140685649Y-69638421D01*
X140685216Y-69642469D01*
X140685216Y-69642471D01*
X140677240Y-69717102D01*
X140661107Y-69868067D01*
X133495812Y-69868067D01*
X133501003Y-69846443D01*
X133527263Y-69799551D01*
X133923228Y-69403586D01*
X133928470Y-69393297D01*
X135070718Y-69393297D01*
X135071514Y-69398328D01*
X135472369Y-69799183D01*
X135482517Y-69804354D01*
X135486871Y-69800000D01*
X135542032Y-69634182D01*
X135544166Y-69624788D01*
X135569388Y-69425132D01*
X135569775Y-69419606D01*
X135570114Y-69395259D01*
X135569884Y-69389761D01*
X135569160Y-69382378D01*
X136430356Y-69382378D01*
X136447023Y-69580864D01*
X136448761Y-69590332D01*
X136503661Y-69781792D01*
X136507212Y-69790760D01*
X136509836Y-69795866D01*
X136517963Y-69803937D01*
X136528027Y-69798787D01*
X136923228Y-69403586D01*
X136928470Y-69393297D01*
X138070718Y-69393297D01*
X138071514Y-69398328D01*
X138472369Y-69799183D01*
X138482517Y-69804354D01*
X138486871Y-69800000D01*
X138542032Y-69634182D01*
X138544166Y-69624788D01*
X138569388Y-69425132D01*
X138569775Y-69419606D01*
X138570114Y-69395259D01*
X138569884Y-69389761D01*
X138550244Y-69189450D01*
X138548375Y-69180012D01*
X138490804Y-68989328D01*
X138489708Y-68986668D01*
X138482825Y-68980021D01*
X138473107Y-68985079D01*
X138076772Y-69381414D01*
X138070718Y-69393297D01*
X136928470Y-69393297D01*
X136929282Y-69391703D01*
X136928486Y-69386672D01*
X136526592Y-68984778D01*
X136516444Y-68979607D01*
X136512322Y-68983729D01*
X136454696Y-69165388D01*
X136452692Y-69174816D01*
X136430490Y-69372750D01*
X136430356Y-69382378D01*
X135569160Y-69382378D01*
X135550244Y-69189450D01*
X135548375Y-69180012D01*
X135490804Y-68989328D01*
X135489708Y-68986668D01*
X135482825Y-68980021D01*
X135473107Y-68985079D01*
X135076772Y-69381414D01*
X135070718Y-69393297D01*
X133928470Y-69393297D01*
X133929282Y-69391703D01*
X133928486Y-69386672D01*
X133527263Y-68985449D01*
X133501002Y-68938556D01*
X133494389Y-68911011D01*
X133494388Y-68911009D01*
X133493483Y-68907238D01*
X133490927Y-68901066D01*
X133420641Y-68731383D01*
X133399184Y-68679580D01*
X133270433Y-68469477D01*
X133219710Y-68410087D01*
X134088059Y-68410087D01*
X134093165Y-68419979D01*
X134488914Y-68815728D01*
X134500797Y-68821782D01*
X134505828Y-68820986D01*
X134907605Y-68419209D01*
X134912253Y-68410087D01*
X137088059Y-68410087D01*
X137093165Y-68419979D01*
X137488914Y-68815728D01*
X137500797Y-68821782D01*
X137505828Y-68820986D01*
X137907605Y-68419209D01*
X137912973Y-68408673D01*
X137908439Y-68404027D01*
X137719806Y-68345636D01*
X137710372Y-68343699D01*
X137512287Y-68322879D01*
X137502649Y-68322812D01*
X137304292Y-68340863D01*
X137294829Y-68342669D01*
X137103757Y-68398904D01*
X137095903Y-68402078D01*
X137088059Y-68410087D01*
X134912253Y-68410087D01*
X134912973Y-68408673D01*
X134908439Y-68404027D01*
X134719806Y-68345636D01*
X134710372Y-68343699D01*
X134512287Y-68322879D01*
X134502649Y-68322812D01*
X134304292Y-68340863D01*
X134294829Y-68342669D01*
X134103757Y-68398904D01*
X134095903Y-68402078D01*
X134088059Y-68410087D01*
X133219710Y-68410087D01*
X133214534Y-68404027D01*
X133112933Y-68285068D01*
X133110399Y-68282101D01*
X133065293Y-68243577D01*
X133035089Y-68217780D01*
X133003119Y-68165611D01*
X133007920Y-68104614D01*
X133035089Y-68067220D01*
X133107432Y-68005433D01*
X133110399Y-68002899D01*
X133219196Y-67875514D01*
X134087649Y-67875514D01*
X134091885Y-67879750D01*
X134265589Y-67936191D01*
X134275010Y-67938262D01*
X134472786Y-67961845D01*
X134482413Y-67962047D01*
X134681002Y-67946766D01*
X134690493Y-67945093D01*
X134882332Y-67891531D01*
X134891312Y-67888048D01*
X134902928Y-67882180D01*
X134909641Y-67875514D01*
X137087649Y-67875514D01*
X137091885Y-67879750D01*
X137265589Y-67936191D01*
X137275010Y-67938262D01*
X137472786Y-67961845D01*
X137482413Y-67962047D01*
X137681002Y-67946766D01*
X137690493Y-67945093D01*
X137882332Y-67891531D01*
X137891312Y-67888048D01*
X137902928Y-67882180D01*
X137910968Y-67874196D01*
X137905775Y-67863961D01*
X137511086Y-67469272D01*
X137499203Y-67463218D01*
X137494172Y-67464014D01*
X137092820Y-67865366D01*
X137087649Y-67875514D01*
X134909641Y-67875514D01*
X134910968Y-67874196D01*
X134905775Y-67863961D01*
X134511086Y-67469272D01*
X134499203Y-67463218D01*
X134494172Y-67464014D01*
X134092820Y-67865366D01*
X134087649Y-67875514D01*
X133219196Y-67875514D01*
X133270433Y-67815523D01*
X133399184Y-67605420D01*
X133493483Y-67377762D01*
X133494390Y-67373985D01*
X133494393Y-67373976D01*
X133501003Y-67346443D01*
X133527263Y-67299551D01*
X133923228Y-66903586D01*
X133928470Y-66893297D01*
X135070718Y-66893297D01*
X135071514Y-66898328D01*
X135472369Y-67299183D01*
X135482517Y-67304354D01*
X135486871Y-67300000D01*
X135542032Y-67134182D01*
X135544166Y-67124788D01*
X135569388Y-66925132D01*
X135569775Y-66919606D01*
X135570114Y-66895259D01*
X135569884Y-66889761D01*
X135569160Y-66882378D01*
X136430356Y-66882378D01*
X136447023Y-67080864D01*
X136448761Y-67090332D01*
X136503661Y-67281792D01*
X136507212Y-67290760D01*
X136509836Y-67295866D01*
X136517963Y-67303937D01*
X136528027Y-67298787D01*
X136923228Y-66903586D01*
X136928470Y-66893297D01*
X138070718Y-66893297D01*
X138071514Y-66898328D01*
X138472369Y-67299183D01*
X138482517Y-67304354D01*
X138486871Y-67300000D01*
X138542032Y-67134182D01*
X138544166Y-67124788D01*
X138569388Y-66925132D01*
X138569775Y-66919606D01*
X138570114Y-66895259D01*
X138569884Y-66889761D01*
X138550244Y-66689450D01*
X138548375Y-66680012D01*
X138490804Y-66489328D01*
X138489708Y-66486668D01*
X138482825Y-66480021D01*
X138473107Y-66485079D01*
X138076772Y-66881414D01*
X138070718Y-66893297D01*
X136928470Y-66893297D01*
X136929282Y-66891703D01*
X136928486Y-66886672D01*
X136526592Y-66484778D01*
X136516444Y-66479607D01*
X136512322Y-66483729D01*
X136454696Y-66665388D01*
X136452692Y-66674816D01*
X136430490Y-66872750D01*
X136430356Y-66882378D01*
X135569160Y-66882378D01*
X135550244Y-66689450D01*
X135548375Y-66680012D01*
X135490804Y-66489328D01*
X135489708Y-66486668D01*
X135482825Y-66480021D01*
X135473107Y-66485079D01*
X135076772Y-66881414D01*
X135070718Y-66893297D01*
X133928470Y-66893297D01*
X133929282Y-66891703D01*
X133928486Y-66886672D01*
X133527263Y-66485449D01*
X133501002Y-66438556D01*
X133494389Y-66411011D01*
X133494388Y-66411009D01*
X133493483Y-66407238D01*
X133399184Y-66179580D01*
X133270433Y-65969477D01*
X133219710Y-65910087D01*
X134088059Y-65910087D01*
X134093165Y-65919979D01*
X134488914Y-66315728D01*
X134500797Y-66321782D01*
X134505828Y-66320986D01*
X134907605Y-65919209D01*
X134912253Y-65910087D01*
X137088059Y-65910087D01*
X137093165Y-65919979D01*
X137488914Y-66315728D01*
X137500797Y-66321782D01*
X137505828Y-66320986D01*
X137907605Y-65919209D01*
X137912973Y-65908673D01*
X137908439Y-65904027D01*
X137719806Y-65845636D01*
X137710372Y-65843699D01*
X137512287Y-65822879D01*
X137502649Y-65822812D01*
X137304292Y-65840863D01*
X137294829Y-65842669D01*
X137103757Y-65898904D01*
X137095903Y-65902078D01*
X137088059Y-65910087D01*
X134912253Y-65910087D01*
X134912973Y-65908673D01*
X134908439Y-65904027D01*
X134719806Y-65845636D01*
X134710372Y-65843699D01*
X134512287Y-65822879D01*
X134502649Y-65822812D01*
X134304292Y-65840863D01*
X134294829Y-65842669D01*
X134103757Y-65898904D01*
X134095903Y-65902078D01*
X134088059Y-65910087D01*
X133219710Y-65910087D01*
X133214534Y-65904027D01*
X133112933Y-65785068D01*
X133110399Y-65782101D01*
X133035089Y-65717780D01*
X133003119Y-65665611D01*
X133007920Y-65604614D01*
X133035089Y-65567220D01*
X133107432Y-65505433D01*
X133110399Y-65502899D01*
X133219196Y-65375514D01*
X134087649Y-65375514D01*
X134091885Y-65379750D01*
X134265589Y-65436191D01*
X134275010Y-65438262D01*
X134472786Y-65461845D01*
X134482413Y-65462047D01*
X134681002Y-65446766D01*
X134690493Y-65445093D01*
X134882332Y-65391531D01*
X134891312Y-65388048D01*
X134902928Y-65382180D01*
X134909641Y-65375514D01*
X137087649Y-65375514D01*
X137091885Y-65379750D01*
X137265589Y-65436191D01*
X137275010Y-65438262D01*
X137472786Y-65461845D01*
X137482413Y-65462047D01*
X137681002Y-65446766D01*
X137690493Y-65445093D01*
X137882332Y-65391531D01*
X137891312Y-65388048D01*
X137902928Y-65382180D01*
X137910968Y-65374196D01*
X137905775Y-65363961D01*
X137511086Y-64969272D01*
X137499203Y-64963218D01*
X137494172Y-64964014D01*
X137092820Y-65365366D01*
X137087649Y-65375514D01*
X134909641Y-65375514D01*
X134910968Y-65374196D01*
X134905775Y-65363961D01*
X134511086Y-64969272D01*
X134499203Y-64963218D01*
X134494172Y-64964014D01*
X134092820Y-65365366D01*
X134087649Y-65375514D01*
X133219196Y-65375514D01*
X133270433Y-65315523D01*
X133399184Y-65105420D01*
X133493483Y-64877762D01*
X133494390Y-64873985D01*
X133494393Y-64873976D01*
X133501003Y-64846443D01*
X133527263Y-64799551D01*
X133923228Y-64403586D01*
X133928470Y-64393297D01*
X135070718Y-64393297D01*
X135071514Y-64398328D01*
X135472369Y-64799183D01*
X135482517Y-64804354D01*
X135486871Y-64800000D01*
X135542032Y-64634182D01*
X135544166Y-64624788D01*
X135569388Y-64425132D01*
X135569775Y-64419606D01*
X135570114Y-64395259D01*
X135569884Y-64389761D01*
X135569160Y-64382378D01*
X136430356Y-64382378D01*
X136447023Y-64580864D01*
X136448761Y-64590332D01*
X136503661Y-64781792D01*
X136507212Y-64790760D01*
X136509836Y-64795866D01*
X136517963Y-64803937D01*
X136528027Y-64798787D01*
X136923228Y-64403586D01*
X136928470Y-64393297D01*
X138070718Y-64393297D01*
X138071514Y-64398328D01*
X138472369Y-64799183D01*
X138482517Y-64804354D01*
X138486871Y-64800000D01*
X138542032Y-64634182D01*
X138544166Y-64624788D01*
X138569388Y-64425132D01*
X138569775Y-64419606D01*
X138570114Y-64395259D01*
X138569884Y-64389761D01*
X138550244Y-64189450D01*
X138548375Y-64180012D01*
X138490804Y-63989328D01*
X138489708Y-63986668D01*
X138482825Y-63980021D01*
X138473107Y-63985079D01*
X138076772Y-64381414D01*
X138070718Y-64393297D01*
X136928470Y-64393297D01*
X136929282Y-64391703D01*
X136928486Y-64386672D01*
X136526592Y-63984778D01*
X136516444Y-63979607D01*
X136512322Y-63983729D01*
X136454696Y-64165388D01*
X136452692Y-64174816D01*
X136430490Y-64372750D01*
X136430356Y-64382378D01*
X135569160Y-64382378D01*
X135550244Y-64189450D01*
X135548375Y-64180012D01*
X135490804Y-63989328D01*
X135489708Y-63986668D01*
X135482825Y-63980021D01*
X135473107Y-63985079D01*
X135076772Y-64381414D01*
X135070718Y-64393297D01*
X133928470Y-64393297D01*
X133929282Y-64391703D01*
X133928486Y-64386672D01*
X133527263Y-63985449D01*
X133501002Y-63938556D01*
X133494389Y-63911011D01*
X133494388Y-63911009D01*
X133493483Y-63907238D01*
X133491521Y-63902500D01*
X133424025Y-63739552D01*
X133399184Y-63679580D01*
X133270433Y-63469477D01*
X133219710Y-63410087D01*
X134088059Y-63410087D01*
X134093165Y-63419979D01*
X134488914Y-63815728D01*
X134500797Y-63821782D01*
X134505828Y-63820986D01*
X134907605Y-63419209D01*
X134912253Y-63410087D01*
X137088059Y-63410087D01*
X137093165Y-63419979D01*
X137488914Y-63815728D01*
X137500797Y-63821782D01*
X137505828Y-63820986D01*
X137907605Y-63419209D01*
X137912973Y-63408673D01*
X137908439Y-63404027D01*
X137719806Y-63345636D01*
X137710372Y-63343699D01*
X137512287Y-63322879D01*
X137502649Y-63322812D01*
X137304292Y-63340863D01*
X137294829Y-63342669D01*
X137103757Y-63398904D01*
X137095903Y-63402078D01*
X137088059Y-63410087D01*
X134912253Y-63410087D01*
X134912973Y-63408673D01*
X134908439Y-63404027D01*
X134719806Y-63345636D01*
X134710372Y-63343699D01*
X134512287Y-63322879D01*
X134502649Y-63322812D01*
X134304292Y-63340863D01*
X134294829Y-63342669D01*
X134103757Y-63398904D01*
X134095903Y-63402078D01*
X134088059Y-63410087D01*
X133219710Y-63410087D01*
X133214534Y-63404027D01*
X133112933Y-63285068D01*
X133110399Y-63282101D01*
X133035089Y-63217780D01*
X133003119Y-63165611D01*
X133007920Y-63104614D01*
X133035089Y-63067220D01*
X133107432Y-63005433D01*
X133110399Y-63002899D01*
X133219196Y-62875514D01*
X134087649Y-62875514D01*
X134091885Y-62879750D01*
X134265589Y-62936191D01*
X134275010Y-62938262D01*
X134472786Y-62961845D01*
X134482413Y-62962047D01*
X134681002Y-62946766D01*
X134690493Y-62945093D01*
X134882332Y-62891531D01*
X134891312Y-62888048D01*
X134902928Y-62882180D01*
X134909641Y-62875514D01*
X137087649Y-62875514D01*
X137091885Y-62879750D01*
X137265589Y-62936191D01*
X137275010Y-62938262D01*
X137472786Y-62961845D01*
X137482413Y-62962047D01*
X137681002Y-62946766D01*
X137690493Y-62945093D01*
X137882332Y-62891531D01*
X137891312Y-62888048D01*
X137902928Y-62882180D01*
X137910968Y-62874196D01*
X137905775Y-62863961D01*
X137511086Y-62469272D01*
X137499203Y-62463218D01*
X137494172Y-62464014D01*
X137092820Y-62865366D01*
X137087649Y-62875514D01*
X134909641Y-62875514D01*
X134910968Y-62874196D01*
X134905775Y-62863961D01*
X134511086Y-62469272D01*
X134499203Y-62463218D01*
X134494172Y-62464014D01*
X134092820Y-62865366D01*
X134087649Y-62875514D01*
X133219196Y-62875514D01*
X133250000Y-62839447D01*
X133267905Y-62818483D01*
X133267905Y-62818482D01*
X133270433Y-62815523D01*
X133399184Y-62605420D01*
X133493483Y-62377762D01*
X133494390Y-62373985D01*
X133494393Y-62373976D01*
X133501003Y-62346443D01*
X133527263Y-62299551D01*
X133923228Y-61903586D01*
X133928470Y-61893297D01*
X135070718Y-61893297D01*
X135071514Y-61898328D01*
X135472369Y-62299183D01*
X135482517Y-62304354D01*
X135486871Y-62300000D01*
X135542032Y-62134182D01*
X135544166Y-62124788D01*
X135569388Y-61925132D01*
X135569775Y-61919606D01*
X135570114Y-61895259D01*
X135569884Y-61889761D01*
X135569160Y-61882378D01*
X136430356Y-61882378D01*
X136447023Y-62080864D01*
X136448761Y-62090332D01*
X136503661Y-62281792D01*
X136507212Y-62290760D01*
X136509836Y-62295866D01*
X136517963Y-62303937D01*
X136528027Y-62298787D01*
X136923228Y-61903586D01*
X136928470Y-61893297D01*
X138070718Y-61893297D01*
X138071514Y-61898328D01*
X138472369Y-62299183D01*
X138482517Y-62304354D01*
X138486871Y-62300000D01*
X138542032Y-62134182D01*
X138544166Y-62124788D01*
X138569388Y-61925132D01*
X138569775Y-61919606D01*
X138570114Y-61895259D01*
X138569884Y-61889761D01*
X138550244Y-61689450D01*
X138548375Y-61680012D01*
X138490804Y-61489328D01*
X138489708Y-61486668D01*
X138482825Y-61480021D01*
X138473107Y-61485079D01*
X138076772Y-61881414D01*
X138070718Y-61893297D01*
X136928470Y-61893297D01*
X136929282Y-61891703D01*
X136928486Y-61886672D01*
X136526592Y-61484778D01*
X136516444Y-61479607D01*
X136512322Y-61483729D01*
X136454696Y-61665388D01*
X136452692Y-61674816D01*
X136430490Y-61872750D01*
X136430356Y-61882378D01*
X135569160Y-61882378D01*
X135550244Y-61689450D01*
X135548375Y-61680012D01*
X135490804Y-61489328D01*
X135489708Y-61486668D01*
X135482825Y-61480021D01*
X135473107Y-61485079D01*
X135076772Y-61881414D01*
X135070718Y-61893297D01*
X133928470Y-61893297D01*
X133929282Y-61891703D01*
X133928486Y-61886672D01*
X133527263Y-61485449D01*
X133501002Y-61438556D01*
X133494389Y-61411011D01*
X133494388Y-61411009D01*
X133493483Y-61407238D01*
X133399184Y-61179580D01*
X133270433Y-60969477D01*
X133219710Y-60910087D01*
X134088059Y-60910087D01*
X134093165Y-60919979D01*
X134488914Y-61315728D01*
X134500797Y-61321782D01*
X134505828Y-61320986D01*
X134907605Y-60919209D01*
X134912253Y-60910087D01*
X137088059Y-60910087D01*
X137093165Y-60919979D01*
X137488914Y-61315728D01*
X137500797Y-61321782D01*
X137505828Y-61320986D01*
X137907605Y-60919209D01*
X137912973Y-60908673D01*
X137908439Y-60904027D01*
X137719806Y-60845636D01*
X137710372Y-60843699D01*
X137512287Y-60822879D01*
X137502649Y-60822812D01*
X137304292Y-60840863D01*
X137294829Y-60842669D01*
X137103757Y-60898904D01*
X137095903Y-60902078D01*
X137088059Y-60910087D01*
X134912253Y-60910087D01*
X134912973Y-60908673D01*
X134908439Y-60904027D01*
X134719806Y-60845636D01*
X134710372Y-60843699D01*
X134512287Y-60822879D01*
X134502649Y-60822812D01*
X134304292Y-60840863D01*
X134294829Y-60842669D01*
X134103757Y-60898904D01*
X134095903Y-60902078D01*
X134088059Y-60910087D01*
X133219710Y-60910087D01*
X133214534Y-60904027D01*
X133112933Y-60785068D01*
X133110399Y-60782101D01*
X132923023Y-60622067D01*
X132712920Y-60493316D01*
X132485262Y-60399017D01*
X132481488Y-60398111D01*
X132481485Y-60398110D01*
X132249429Y-60342399D01*
X132249428Y-60342399D01*
X132245655Y-60341493D01*
X132241790Y-60341189D01*
X132241785Y-60341188D01*
X132003875Y-60322464D01*
X132000000Y-60322159D01*
X131996125Y-60322464D01*
X131758215Y-60341188D01*
X131758210Y-60341189D01*
X131754345Y-60341493D01*
X131750572Y-60342399D01*
X131750571Y-60342399D01*
X131518515Y-60398110D01*
X131518512Y-60398111D01*
X131514738Y-60399017D01*
X131287080Y-60493316D01*
X131076977Y-60622067D01*
X130889601Y-60782101D01*
X130887067Y-60785068D01*
X130785467Y-60904027D01*
X130729567Y-60969477D01*
X130600816Y-61179580D01*
X130599328Y-61183173D01*
X130599326Y-61183177D01*
X130591464Y-61202157D01*
X130551728Y-61248683D01*
X130492233Y-61262967D01*
X130435705Y-61239552D01*
X130408536Y-61202157D01*
X130400674Y-61183177D01*
X130400672Y-61183173D01*
X130399184Y-61179580D01*
X130270433Y-60969477D01*
X130214534Y-60904027D01*
X130112933Y-60785068D01*
X130110399Y-60782101D01*
X129923023Y-60622067D01*
X129712920Y-60493316D01*
X129485262Y-60399017D01*
X129481488Y-60398111D01*
X129481485Y-60398110D01*
X129249429Y-60342399D01*
X129249428Y-60342399D01*
X129245655Y-60341493D01*
X129241790Y-60341189D01*
X129241785Y-60341188D01*
X129003875Y-60322464D01*
X129000000Y-60322159D01*
X128996125Y-60322464D01*
X128758215Y-60341188D01*
X128758210Y-60341189D01*
X128754345Y-60341493D01*
X128750572Y-60342399D01*
X128750571Y-60342399D01*
X128518515Y-60398110D01*
X128518512Y-60398111D01*
X128514738Y-60399017D01*
X128287080Y-60493316D01*
X128076977Y-60622067D01*
X127889601Y-60782101D01*
X127887067Y-60785068D01*
X127785467Y-60904027D01*
X127729567Y-60969477D01*
X127600816Y-61179580D01*
X127506517Y-61407238D01*
X127505611Y-61411011D01*
X127505610Y-61411015D01*
X127488153Y-61483729D01*
X127448993Y-61646845D01*
X127448689Y-61650710D01*
X127448688Y-61650715D01*
X127431900Y-61864028D01*
X127429659Y-61892500D01*
X127448993Y-62138155D01*
X127506517Y-62377762D01*
X127600816Y-62605420D01*
X127729567Y-62815523D01*
X127732095Y-62818482D01*
X127732095Y-62818483D01*
X127750000Y-62839447D01*
X127889601Y-63002899D01*
X127892568Y-63005433D01*
X127964911Y-63067220D01*
X127996881Y-63119389D01*
X127992080Y-63180386D01*
X127964911Y-63217780D01*
X127889601Y-63282101D01*
X127887067Y-63285068D01*
X127785467Y-63404027D01*
X127729567Y-63469477D01*
X127600816Y-63679580D01*
X127575975Y-63739552D01*
X127509569Y-63899871D01*
X127506517Y-63907238D01*
X127505611Y-63911011D01*
X127505610Y-63911015D01*
X127488153Y-63983729D01*
X127448993Y-64146845D01*
X127448689Y-64150710D01*
X127448688Y-64150715D01*
X127445101Y-64196294D01*
X127429659Y-64392500D01*
X127429964Y-64396375D01*
X127447935Y-64624707D01*
X127448993Y-64638155D01*
X127449899Y-64641928D01*
X127449899Y-64641929D01*
X127496080Y-64834287D01*
X127506517Y-64877762D01*
X127600816Y-65105420D01*
X127729567Y-65315523D01*
X127889601Y-65502899D01*
X127892568Y-65505433D01*
X127964911Y-65567220D01*
X127996881Y-65619389D01*
X127992080Y-65680386D01*
X127964911Y-65717780D01*
X127889601Y-65782101D01*
X127887067Y-65785068D01*
X127785467Y-65904027D01*
X127729567Y-65969477D01*
X127600816Y-66179580D01*
X127506517Y-66407238D01*
X127505611Y-66411011D01*
X127505610Y-66411015D01*
X127488153Y-66483729D01*
X127448993Y-66646845D01*
X127448689Y-66650710D01*
X127448688Y-66650715D01*
X127441825Y-66737918D01*
X127429659Y-66892500D01*
X127429964Y-66896375D01*
X127446076Y-67101088D01*
X127448993Y-67138155D01*
X127449899Y-67141928D01*
X127449899Y-67141929D01*
X127473506Y-67240258D01*
X127506517Y-67377762D01*
X127600816Y-67605420D01*
X127729567Y-67815523D01*
X127889601Y-68002899D01*
X127892568Y-68005433D01*
X127964911Y-68067220D01*
X127996881Y-68119389D01*
X127992080Y-68180386D01*
X127964911Y-68217780D01*
X127934707Y-68243577D01*
X127889601Y-68282101D01*
X127887067Y-68285068D01*
X127785467Y-68404027D01*
X127729567Y-68469477D01*
X127600816Y-68679580D01*
X127506517Y-68907238D01*
X127505611Y-68911011D01*
X127505610Y-68911015D01*
X127474737Y-69039612D01*
X127448993Y-69146845D01*
X127448689Y-69150710D01*
X127448688Y-69150715D01*
X127438620Y-69278646D01*
X127429659Y-69392500D01*
X127448993Y-69638155D01*
X127506517Y-69877762D01*
X127600816Y-70105420D01*
X127729567Y-70315523D01*
X127732095Y-70318482D01*
X127732095Y-70318483D01*
X127750000Y-70339447D01*
X127889601Y-70502899D01*
X127892568Y-70505433D01*
X127964911Y-70567220D01*
X127996881Y-70619389D01*
X127992080Y-70680386D01*
X127964911Y-70717780D01*
X127904448Y-70769420D01*
X127889601Y-70782101D01*
X127887067Y-70785068D01*
X127785467Y-70904027D01*
X127729567Y-70969477D01*
X127600816Y-71179580D01*
X127506517Y-71407238D01*
X127505611Y-71411011D01*
X127505610Y-71411015D01*
X127488153Y-71483729D01*
X127448993Y-71646845D01*
X127448689Y-71650710D01*
X127448688Y-71650715D01*
X127431213Y-71872750D01*
X127429659Y-71892500D01*
X110299811Y-71892500D01*
X110299890Y-66791771D01*
X121096668Y-66791771D01*
X121103349Y-67097965D01*
X121148883Y-67400830D01*
X121149746Y-67403868D01*
X121149746Y-67403870D01*
X121217489Y-67642471D01*
X121232531Y-67695453D01*
X121233774Y-67698360D01*
X121349363Y-67968700D01*
X121352937Y-67977060D01*
X121508149Y-68241085D01*
X121569234Y-68319977D01*
X121693720Y-68480754D01*
X121693726Y-68480761D01*
X121695651Y-68483247D01*
X121912404Y-68699622D01*
X121914892Y-68701541D01*
X121914896Y-68701545D01*
X122090573Y-68837079D01*
X122154894Y-68886702D01*
X122157605Y-68888290D01*
X122157606Y-68888290D01*
X122203606Y-68915224D01*
X122419189Y-69041453D01*
X122701006Y-69161367D01*
X122704035Y-69162221D01*
X122704037Y-69162222D01*
X122992739Y-69243645D01*
X122992743Y-69243646D01*
X122995775Y-69244501D01*
X123298718Y-69289506D01*
X123345613Y-69291471D01*
X123381053Y-69292957D01*
X123381063Y-69292957D01*
X123382084Y-69293000D01*
X123577474Y-69293000D01*
X123579053Y-69292899D01*
X123579062Y-69292899D01*
X123802500Y-69278646D01*
X123802504Y-69278645D01*
X123805647Y-69278445D01*
X123808739Y-69277847D01*
X123808745Y-69277846D01*
X124103242Y-69220867D01*
X124106338Y-69220268D01*
X124109328Y-69219282D01*
X124109332Y-69219281D01*
X124394199Y-69125346D01*
X124394205Y-69125344D01*
X124397200Y-69124356D01*
X124630874Y-69012649D01*
X124670678Y-68993621D01*
X124670682Y-68993619D01*
X124673518Y-68992263D01*
X124930812Y-68826131D01*
X124933227Y-68824094D01*
X125162496Y-68630689D01*
X125162501Y-68630684D01*
X125164910Y-68628652D01*
X125372019Y-68403029D01*
X125385058Y-68384580D01*
X125502940Y-68217780D01*
X125548780Y-68152918D01*
X125692328Y-67882374D01*
X125694914Y-67875514D01*
X125799220Y-67598745D01*
X125799221Y-67598741D01*
X125800336Y-67595783D01*
X125831607Y-67464014D01*
X125870327Y-67300851D01*
X125870327Y-67300848D01*
X125871053Y-67297791D01*
X125894044Y-67080864D01*
X125903001Y-66996356D01*
X125903001Y-66996350D01*
X125903332Y-66993229D01*
X125896651Y-66687035D01*
X125851117Y-66384170D01*
X125850254Y-66381130D01*
X125768332Y-66092586D01*
X125768331Y-66092583D01*
X125767469Y-66089547D01*
X125748394Y-66044933D01*
X125648305Y-65810844D01*
X125648303Y-65810840D01*
X125647063Y-65807940D01*
X125491851Y-65543915D01*
X125401782Y-65427589D01*
X125306280Y-65304246D01*
X125306274Y-65304239D01*
X125304349Y-65301753D01*
X125087596Y-65085378D01*
X125085108Y-65083459D01*
X125085104Y-65083455D01*
X124847596Y-64900219D01*
X124845106Y-64898298D01*
X124803583Y-64873985D01*
X124709284Y-64818771D01*
X124580811Y-64743547D01*
X124298994Y-64623633D01*
X124295965Y-64622779D01*
X124295963Y-64622778D01*
X124007261Y-64541355D01*
X124007257Y-64541354D01*
X124004225Y-64540499D01*
X123701282Y-64495494D01*
X123654387Y-64493529D01*
X123618947Y-64492043D01*
X123618937Y-64492043D01*
X123617916Y-64492000D01*
X123422526Y-64492000D01*
X123420947Y-64492101D01*
X123420938Y-64492101D01*
X123197500Y-64506354D01*
X123197496Y-64506355D01*
X123194353Y-64506555D01*
X123191261Y-64507153D01*
X123191255Y-64507154D01*
X122901848Y-64563148D01*
X122893662Y-64564732D01*
X122890672Y-64565718D01*
X122890668Y-64565719D01*
X122605801Y-64659654D01*
X122605795Y-64659656D01*
X122602800Y-64660644D01*
X122454825Y-64731383D01*
X122329322Y-64791379D01*
X122329318Y-64791381D01*
X122326482Y-64792737D01*
X122069188Y-64958869D01*
X122066775Y-64960904D01*
X122066773Y-64960906D01*
X121837504Y-65154311D01*
X121837499Y-65154316D01*
X121835090Y-65156348D01*
X121627981Y-65381971D01*
X121626159Y-65384549D01*
X121606632Y-65412179D01*
X121451220Y-65632082D01*
X121307672Y-65902626D01*
X121306559Y-65905580D01*
X121306556Y-65905586D01*
X121203296Y-66179580D01*
X121199664Y-66189217D01*
X121198935Y-66192288D01*
X121198934Y-66192292D01*
X121144587Y-66421303D01*
X121128947Y-66487209D01*
X121128616Y-66490335D01*
X121102376Y-66737918D01*
X121096668Y-66791771D01*
X110299890Y-66791771D01*
X110299994Y-60089001D01*
X110318902Y-60030812D01*
X110368403Y-59994849D01*
X110398995Y-59990004D01*
X141248057Y-59990272D01*
G37*
%TD.AperFunction*%
%TD*%
M02*
