%TF.GenerationSoftware,KiCad,Pcbnew,(6.0.1-0)*%
%TF.CreationDate,2023-01-20T10:08:16-08:00*%
%TF.ProjectId,ESC Daughterboard,45534320-4461-4756-9768-746572626f61,rev?*%
%TF.SameCoordinates,Original*%
%TF.FileFunction,Copper,L2,Inr*%
%TF.FilePolarity,Positive*%
%FSLAX46Y46*%
G04 Gerber Fmt 4.6, Leading zero omitted, Abs format (unit mm)*
G04 Created by KiCad (PCBNEW (6.0.1-0)) date 2023-01-20 10:08:16*
%MOMM*%
%LPD*%
G01*
G04 APERTURE LIST*
%TA.AperFunction,ComponentPad*%
%ADD10R,2.500000X2.500000*%
%TD*%
%TA.AperFunction,ComponentPad*%
%ADD11C,2.500000*%
%TD*%
%TA.AperFunction,ComponentPad*%
%ADD12R,1.208000X1.208000*%
%TD*%
%TA.AperFunction,ComponentPad*%
%ADD13C,1.208000*%
%TD*%
%TA.AperFunction,ComponentPad*%
%ADD14C,1.530000*%
%TD*%
%TA.AperFunction,ViaPad*%
%ADD15C,0.800000*%
%TD*%
G04 APERTURE END LIST*
D10*
%TO.N,/Phase_1*%
%TO.C,Phase 1*%
X167400000Y-119800000D03*
D11*
%TO.N,/Phase_2*%
X162320000Y-119800000D03*
%TO.N,/Phase_3*%
X157240000Y-119800000D03*
%TD*%
D12*
%TO.N,GND*%
%TO.C,J5*%
X144070000Y-61902500D03*
D13*
%TO.N,+5V*%
X142070000Y-61902500D03*
%TO.N,/CAH*%
X144070000Y-63902500D03*
%TO.N,/CAL*%
X142070000Y-63902500D03*
%TO.N,unconnected-(J5-Pad05)*%
X144070000Y-65902500D03*
%TO.N,unconnected-(J5-Pad06)*%
X142070000Y-65902500D03*
%TO.N,unconnected-(J5-Pad07)*%
X144070000Y-67902500D03*
%TO.N,unconnected-(J5-Pad08)*%
X142070000Y-67902500D03*
%TO.N,unconnected-(J5-Pad09)*%
X144070000Y-69902500D03*
%TO.N,unconnected-(J5-Pad10)*%
X142070000Y-69902500D03*
D14*
%TO.N,/Phase_1*%
X163710000Y-71892500D03*
X163710000Y-69392500D03*
X163710000Y-66892500D03*
X163710000Y-64392500D03*
X163710000Y-61892500D03*
X160710000Y-61892500D03*
X160710000Y-64392500D03*
X160710000Y-66892500D03*
X160710000Y-69392500D03*
X160710000Y-71892500D03*
%TO.N,/Phase_2*%
X158210000Y-71892500D03*
X158210000Y-69392500D03*
X158210000Y-66892500D03*
X158210000Y-64392500D03*
X158210000Y-61892500D03*
X155210000Y-61892500D03*
X155210000Y-64392500D03*
X155210000Y-66892500D03*
X155210000Y-69392500D03*
X155210000Y-71892500D03*
%TO.N,/Phase_3*%
X152710000Y-71892500D03*
X152710000Y-69392500D03*
X152710000Y-66892500D03*
X152710000Y-64392500D03*
X152710000Y-61892500D03*
X149710000Y-61892500D03*
X149710000Y-64392500D03*
X149710000Y-66892500D03*
X149710000Y-69392500D03*
X149710000Y-71892500D03*
%TO.N,GND*%
X137500000Y-71892500D03*
X137500000Y-69392500D03*
X137500000Y-66892500D03*
X137500000Y-64392500D03*
X137500000Y-61892500D03*
X134500000Y-61892500D03*
X134500000Y-64392500D03*
X134500000Y-66892500D03*
X134500000Y-69392500D03*
X134500000Y-71892500D03*
%TO.N,/16V*%
X132000000Y-71892500D03*
X132000000Y-69392500D03*
X132000000Y-66892500D03*
X132000000Y-64392500D03*
X132000000Y-61892500D03*
X129000000Y-61892500D03*
X129000000Y-64392500D03*
X129000000Y-66892500D03*
X129000000Y-69392500D03*
X129000000Y-71892500D03*
%TD*%
D10*
%TO.N,/16V*%
%TO.C,J2*%
X121165000Y-119820000D03*
D11*
%TO.N,GND*%
X116085000Y-119820000D03*
%TD*%
D15*
%TO.N,GND*%
X135780000Y-116190000D03*
%TO.N,+5V*%
X141150000Y-116190000D03*
%TD*%
%TA.AperFunction,Conductor*%
%TO.N,/Phase_1*%
G36*
X170819191Y-60388907D02*
G01*
X170855155Y-60438407D01*
X170860000Y-60469000D01*
X170860000Y-64932106D01*
X170841093Y-64990297D01*
X170791593Y-65026261D01*
X170730407Y-65026261D01*
X170700527Y-65010490D01*
X170674354Y-64990297D01*
X170555106Y-64898298D01*
X170290811Y-64743547D01*
X170008994Y-64623633D01*
X170005965Y-64622779D01*
X170005963Y-64622778D01*
X169717261Y-64541355D01*
X169717257Y-64541354D01*
X169714225Y-64540499D01*
X169411282Y-64495494D01*
X169364387Y-64493529D01*
X169328947Y-64492043D01*
X169328937Y-64492043D01*
X169327916Y-64492000D01*
X169132526Y-64492000D01*
X169130947Y-64492101D01*
X169130938Y-64492101D01*
X168907500Y-64506354D01*
X168907496Y-64506355D01*
X168904353Y-64506555D01*
X168901261Y-64507153D01*
X168901255Y-64507154D01*
X168724487Y-64541355D01*
X168603662Y-64564732D01*
X168600672Y-64565718D01*
X168600668Y-64565719D01*
X168315801Y-64659654D01*
X168315795Y-64659656D01*
X168312800Y-64660644D01*
X168153023Y-64737025D01*
X168039322Y-64791379D01*
X168039318Y-64791381D01*
X168036482Y-64792737D01*
X167779188Y-64958869D01*
X167776775Y-64960904D01*
X167776773Y-64960906D01*
X167547504Y-65154311D01*
X167547499Y-65154316D01*
X167545090Y-65156348D01*
X167337981Y-65381971D01*
X167336159Y-65384549D01*
X167305741Y-65427589D01*
X167161220Y-65632082D01*
X167017672Y-65902626D01*
X167016559Y-65905580D01*
X167016556Y-65905586D01*
X166913296Y-66179580D01*
X166909664Y-66189217D01*
X166908935Y-66192288D01*
X166908934Y-66192292D01*
X166851483Y-66434384D01*
X166838947Y-66487209D01*
X166806668Y-66791771D01*
X166813349Y-67097965D01*
X166858883Y-67400830D01*
X166859746Y-67403868D01*
X166859746Y-67403870D01*
X166917912Y-67608739D01*
X166942531Y-67695453D01*
X166943774Y-67698360D01*
X167056432Y-67961845D01*
X167062937Y-67977060D01*
X167218149Y-68241085D01*
X167281429Y-68322812D01*
X167403720Y-68480754D01*
X167403726Y-68480761D01*
X167405651Y-68483247D01*
X167622404Y-68699622D01*
X167624892Y-68701541D01*
X167624896Y-68701545D01*
X167822847Y-68854263D01*
X167864894Y-68886702D01*
X168129189Y-69041453D01*
X168411006Y-69161367D01*
X168414035Y-69162221D01*
X168414037Y-69162222D01*
X168702739Y-69243645D01*
X168702743Y-69243646D01*
X168705775Y-69244501D01*
X169008718Y-69289506D01*
X169055613Y-69291471D01*
X169091053Y-69292957D01*
X169091063Y-69292957D01*
X169092084Y-69293000D01*
X169287474Y-69293000D01*
X169289053Y-69292899D01*
X169289062Y-69292899D01*
X169512500Y-69278646D01*
X169512504Y-69278645D01*
X169515647Y-69278445D01*
X169518739Y-69277847D01*
X169518745Y-69277846D01*
X169813242Y-69220867D01*
X169816338Y-69220268D01*
X169819328Y-69219282D01*
X169819332Y-69219281D01*
X170104199Y-69125346D01*
X170104205Y-69125344D01*
X170107200Y-69124356D01*
X170283948Y-69039862D01*
X170380678Y-68993621D01*
X170380682Y-68993619D01*
X170383518Y-68992263D01*
X170640812Y-68826131D01*
X170697167Y-68778591D01*
X170753835Y-68755523D01*
X170813242Y-68770169D01*
X170852694Y-68816936D01*
X170860000Y-68854263D01*
X170860000Y-122301000D01*
X170841093Y-122359191D01*
X170791593Y-122395155D01*
X170761000Y-122400000D01*
X148379000Y-122400000D01*
X148320809Y-122381093D01*
X148284845Y-122331593D01*
X148280000Y-122301000D01*
X148280000Y-119778477D01*
X155184822Y-119778477D01*
X155185016Y-119781842D01*
X155185016Y-119781846D01*
X155188545Y-119843043D01*
X155200916Y-120057596D01*
X155254741Y-120331948D01*
X155345303Y-120596457D01*
X155470925Y-120846228D01*
X155629282Y-121076639D01*
X155631552Y-121079133D01*
X155631553Y-121079135D01*
X155676948Y-121129023D01*
X155817444Y-121283427D01*
X156031930Y-121462765D01*
X156268771Y-121611335D01*
X156271839Y-121612720D01*
X156271846Y-121612724D01*
X156437358Y-121687455D01*
X156523583Y-121726387D01*
X156526805Y-121727341D01*
X156526812Y-121727344D01*
X156741263Y-121790867D01*
X156791652Y-121805793D01*
X156794977Y-121806302D01*
X156794978Y-121806302D01*
X157064684Y-121847573D01*
X157064687Y-121847573D01*
X157068018Y-121848083D01*
X157071389Y-121848136D01*
X157071390Y-121848136D01*
X157119571Y-121848893D01*
X157347566Y-121852474D01*
X157350903Y-121852070D01*
X157350907Y-121852070D01*
X157621779Y-121819291D01*
X157621784Y-121819290D01*
X157625123Y-121818886D01*
X157895554Y-121747940D01*
X158061590Y-121679165D01*
X158150746Y-121642236D01*
X158150749Y-121642235D01*
X158153855Y-121640948D01*
X158156760Y-121639251D01*
X158156763Y-121639249D01*
X158392329Y-121501595D01*
X158395245Y-121499891D01*
X158615258Y-121327379D01*
X158809823Y-121126603D01*
X158819557Y-121113353D01*
X158876843Y-121035366D01*
X158975340Y-120901280D01*
X159006864Y-120843221D01*
X159107136Y-120658541D01*
X159108745Y-120655578D01*
X159207570Y-120394044D01*
X159252012Y-120200000D01*
X159269234Y-120124808D01*
X159269235Y-120124801D01*
X159269987Y-120121518D01*
X159294840Y-119843043D01*
X159295291Y-119800000D01*
X159293824Y-119778477D01*
X160264822Y-119778477D01*
X160265016Y-119781842D01*
X160265016Y-119781846D01*
X160268545Y-119843043D01*
X160280916Y-120057596D01*
X160334741Y-120331948D01*
X160425303Y-120596457D01*
X160550925Y-120846228D01*
X160709282Y-121076639D01*
X160711552Y-121079133D01*
X160711553Y-121079135D01*
X160756948Y-121129023D01*
X160897444Y-121283427D01*
X161111930Y-121462765D01*
X161348771Y-121611335D01*
X161351839Y-121612720D01*
X161351846Y-121612724D01*
X161517358Y-121687455D01*
X161603583Y-121726387D01*
X161606805Y-121727341D01*
X161606812Y-121727344D01*
X161821263Y-121790867D01*
X161871652Y-121805793D01*
X161874977Y-121806302D01*
X161874978Y-121806302D01*
X162144684Y-121847573D01*
X162144687Y-121847573D01*
X162148018Y-121848083D01*
X162151389Y-121848136D01*
X162151390Y-121848136D01*
X162199571Y-121848893D01*
X162427566Y-121852474D01*
X162430903Y-121852070D01*
X162430907Y-121852070D01*
X162701779Y-121819291D01*
X162701784Y-121819290D01*
X162705123Y-121818886D01*
X162975554Y-121747940D01*
X163141590Y-121679165D01*
X163230746Y-121642236D01*
X163230749Y-121642235D01*
X163233855Y-121640948D01*
X163236760Y-121639251D01*
X163236763Y-121639249D01*
X163472329Y-121501595D01*
X163475245Y-121499891D01*
X163695258Y-121327379D01*
X163889823Y-121126603D01*
X163899557Y-121113353D01*
X163915507Y-121091639D01*
X165850000Y-121091639D01*
X165850346Y-121097485D01*
X165852234Y-121113353D01*
X165856128Y-121127519D01*
X165894770Y-121214514D01*
X165904946Y-121229321D01*
X165971108Y-121295367D01*
X165985931Y-121305517D01*
X166072980Y-121344000D01*
X166087185Y-121347873D01*
X166102580Y-121349668D01*
X166108292Y-121350000D01*
X166984320Y-121350000D01*
X166997005Y-121345878D01*
X167000000Y-121341757D01*
X167000000Y-121334320D01*
X167800000Y-121334320D01*
X167804122Y-121347005D01*
X167808243Y-121350000D01*
X168691639Y-121350000D01*
X168697485Y-121349654D01*
X168713353Y-121347766D01*
X168727519Y-121343872D01*
X168814514Y-121305230D01*
X168829321Y-121295054D01*
X168895367Y-121228892D01*
X168905517Y-121214069D01*
X168944000Y-121127020D01*
X168947873Y-121112815D01*
X168949668Y-121097420D01*
X168950000Y-121091708D01*
X168950000Y-120215680D01*
X168945878Y-120202995D01*
X168941757Y-120200000D01*
X167815680Y-120200000D01*
X167802995Y-120204122D01*
X167800000Y-120208243D01*
X167800000Y-121334320D01*
X167000000Y-121334320D01*
X167000000Y-120215680D01*
X166995878Y-120202995D01*
X166991757Y-120200000D01*
X165865680Y-120200000D01*
X165852995Y-120204122D01*
X165850000Y-120208243D01*
X165850000Y-121091639D01*
X163915507Y-121091639D01*
X163956843Y-121035366D01*
X164055340Y-120901280D01*
X164086864Y-120843221D01*
X164187136Y-120658541D01*
X164188745Y-120655578D01*
X164287570Y-120394044D01*
X164332012Y-120200000D01*
X164349234Y-120124808D01*
X164349235Y-120124801D01*
X164349987Y-120121518D01*
X164374840Y-119843043D01*
X164375291Y-119800000D01*
X164356275Y-119521065D01*
X164327956Y-119384320D01*
X165850000Y-119384320D01*
X165854122Y-119397005D01*
X165858243Y-119400000D01*
X166984320Y-119400000D01*
X166997005Y-119395878D01*
X167000000Y-119391757D01*
X167000000Y-119384320D01*
X167800000Y-119384320D01*
X167804122Y-119397005D01*
X167808243Y-119400000D01*
X168934320Y-119400000D01*
X168947005Y-119395878D01*
X168950000Y-119391757D01*
X168950000Y-118508361D01*
X168949654Y-118502515D01*
X168947766Y-118486647D01*
X168943872Y-118472481D01*
X168905230Y-118385486D01*
X168895054Y-118370679D01*
X168828892Y-118304633D01*
X168814069Y-118294483D01*
X168727020Y-118256000D01*
X168712815Y-118252127D01*
X168697420Y-118250332D01*
X168691708Y-118250000D01*
X167815680Y-118250000D01*
X167802995Y-118254122D01*
X167800000Y-118258243D01*
X167800000Y-119384320D01*
X167000000Y-119384320D01*
X167000000Y-118265680D01*
X166995878Y-118252995D01*
X166991757Y-118250000D01*
X166108361Y-118250000D01*
X166102515Y-118250346D01*
X166086647Y-118252234D01*
X166072481Y-118256128D01*
X165985486Y-118294770D01*
X165970679Y-118304946D01*
X165904633Y-118371108D01*
X165894483Y-118385931D01*
X165856000Y-118472980D01*
X165852127Y-118487185D01*
X165850332Y-118502580D01*
X165850000Y-118508292D01*
X165850000Y-119384320D01*
X164327956Y-119384320D01*
X164299579Y-119247292D01*
X164206253Y-118983746D01*
X164194542Y-118961056D01*
X164079573Y-118738308D01*
X164079570Y-118738302D01*
X164078022Y-118735304D01*
X163917261Y-118506563D01*
X163913500Y-118502515D01*
X163729907Y-118304946D01*
X163726944Y-118301757D01*
X163666439Y-118252234D01*
X163513204Y-118126814D01*
X163510591Y-118124675D01*
X163272208Y-117978594D01*
X163269126Y-117977241D01*
X163019288Y-117867569D01*
X163019284Y-117867567D01*
X163016205Y-117866216D01*
X162966917Y-117852176D01*
X162750571Y-117790548D01*
X162750566Y-117790547D01*
X162747319Y-117789622D01*
X162470526Y-117750229D01*
X162467159Y-117750211D01*
X162467154Y-117750211D01*
X162342187Y-117749557D01*
X162190947Y-117748765D01*
X161913757Y-117785257D01*
X161910506Y-117786146D01*
X161910503Y-117786147D01*
X161819615Y-117811012D01*
X161644083Y-117859032D01*
X161386917Y-117968722D01*
X161147018Y-118112299D01*
X160928823Y-118287106D01*
X160926499Y-118289555D01*
X160739466Y-118486647D01*
X160736371Y-118489908D01*
X160734406Y-118492643D01*
X160734404Y-118492645D01*
X160722421Y-118509322D01*
X160573223Y-118716952D01*
X160442398Y-118964038D01*
X160346317Y-119226592D01*
X160345599Y-119229887D01*
X160311927Y-119384320D01*
X160286757Y-119499757D01*
X160264822Y-119778477D01*
X159293824Y-119778477D01*
X159276275Y-119521065D01*
X159219579Y-119247292D01*
X159126253Y-118983746D01*
X159114542Y-118961056D01*
X158999573Y-118738308D01*
X158999570Y-118738302D01*
X158998022Y-118735304D01*
X158837261Y-118506563D01*
X158833500Y-118502515D01*
X158649907Y-118304946D01*
X158646944Y-118301757D01*
X158586439Y-118252234D01*
X158433204Y-118126814D01*
X158430591Y-118124675D01*
X158192208Y-117978594D01*
X158189126Y-117977241D01*
X157939288Y-117867569D01*
X157939284Y-117867567D01*
X157936205Y-117866216D01*
X157886917Y-117852176D01*
X157670571Y-117790548D01*
X157670566Y-117790547D01*
X157667319Y-117789622D01*
X157390526Y-117750229D01*
X157387159Y-117750211D01*
X157387154Y-117750211D01*
X157262187Y-117749557D01*
X157110947Y-117748765D01*
X156833757Y-117785257D01*
X156830506Y-117786146D01*
X156830503Y-117786147D01*
X156739615Y-117811012D01*
X156564083Y-117859032D01*
X156306917Y-117968722D01*
X156067018Y-118112299D01*
X155848823Y-118287106D01*
X155846499Y-118289555D01*
X155659466Y-118486647D01*
X155656371Y-118489908D01*
X155654406Y-118492643D01*
X155654404Y-118492645D01*
X155642421Y-118509322D01*
X155493223Y-118716952D01*
X155362398Y-118964038D01*
X155266317Y-119226592D01*
X155265599Y-119229887D01*
X155231927Y-119384320D01*
X155206757Y-119499757D01*
X155184822Y-119778477D01*
X148280000Y-119778477D01*
X148280000Y-111123763D01*
X155007092Y-111123763D01*
X155007376Y-111126608D01*
X155016060Y-111213605D01*
X155040887Y-111462342D01*
X155113373Y-111794793D01*
X155223589Y-112116708D01*
X155370076Y-112423823D01*
X155371590Y-112426236D01*
X155371593Y-112426242D01*
X155497656Y-112627204D01*
X155550890Y-112712066D01*
X155763635Y-112977616D01*
X155765665Y-112979624D01*
X155765666Y-112979626D01*
X156003461Y-113214943D01*
X156003469Y-113214950D01*
X156005493Y-113216953D01*
X156079925Y-113275315D01*
X156271017Y-113425151D01*
X156271024Y-113425156D01*
X156273256Y-113426906D01*
X156275685Y-113428394D01*
X156275690Y-113428398D01*
X156357761Y-113478691D01*
X156563376Y-113604692D01*
X156565963Y-113605893D01*
X156565967Y-113605895D01*
X156869411Y-113746749D01*
X156869418Y-113746752D01*
X156872008Y-113747954D01*
X157195060Y-113854794D01*
X157528252Y-113923794D01*
X157531090Y-113924047D01*
X157531095Y-113924048D01*
X157816894Y-113949555D01*
X157827480Y-113950500D01*
X158046715Y-113950500D01*
X158299697Y-113935913D01*
X158302505Y-113935423D01*
X158632092Y-113877901D01*
X158632100Y-113877899D01*
X158634891Y-113877412D01*
X158961140Y-113780773D01*
X159274119Y-113647276D01*
X159276584Y-113645870D01*
X159276590Y-113645867D01*
X159567209Y-113480101D01*
X159569681Y-113478691D01*
X159571970Y-113477009D01*
X159571977Y-113477005D01*
X159841609Y-113278940D01*
X159841608Y-113278940D01*
X159843907Y-113277252D01*
X160093162Y-113045629D01*
X160314144Y-112786893D01*
X160503923Y-112504472D01*
X160659984Y-112202110D01*
X160780257Y-111883815D01*
X160863150Y-111553805D01*
X160907563Y-111216455D01*
X160912908Y-110876237D01*
X160906508Y-110812118D01*
X160879396Y-110540492D01*
X160879396Y-110540490D01*
X160879113Y-110537658D01*
X160806627Y-110205207D01*
X160696411Y-109883292D01*
X160549924Y-109576177D01*
X160497849Y-109493161D01*
X160370626Y-109290351D01*
X160369110Y-109287934D01*
X160156365Y-109022384D01*
X160154334Y-109020374D01*
X159916539Y-108785057D01*
X159916531Y-108785050D01*
X159914507Y-108783047D01*
X159789960Y-108685390D01*
X159648983Y-108574849D01*
X159648976Y-108574844D01*
X159646744Y-108573094D01*
X159644315Y-108571606D01*
X159644310Y-108571602D01*
X159359059Y-108396800D01*
X159359057Y-108396799D01*
X159356624Y-108395308D01*
X159354037Y-108394107D01*
X159354033Y-108394105D01*
X159050589Y-108253251D01*
X159050582Y-108253248D01*
X159047992Y-108252046D01*
X158724940Y-108145206D01*
X158391748Y-108076206D01*
X158388910Y-108075953D01*
X158388905Y-108075952D01*
X158094716Y-108049696D01*
X158092520Y-108049500D01*
X157873285Y-108049500D01*
X157620303Y-108064087D01*
X157617496Y-108064577D01*
X157617495Y-108064577D01*
X157287908Y-108122099D01*
X157287900Y-108122101D01*
X157285109Y-108122588D01*
X156958860Y-108219227D01*
X156645881Y-108352724D01*
X156643416Y-108354130D01*
X156643410Y-108354133D01*
X156568607Y-108396800D01*
X156350319Y-108521309D01*
X156348030Y-108522991D01*
X156348023Y-108522995D01*
X156281853Y-108571602D01*
X156076093Y-108722748D01*
X155826838Y-108954371D01*
X155605856Y-109213107D01*
X155416077Y-109495528D01*
X155260016Y-109797890D01*
X155139743Y-110116185D01*
X155056850Y-110446195D01*
X155012437Y-110783545D01*
X155007092Y-111123763D01*
X148280000Y-111123763D01*
X148280000Y-78123763D01*
X155007092Y-78123763D01*
X155007376Y-78126608D01*
X155016060Y-78213605D01*
X155040887Y-78462342D01*
X155113373Y-78794793D01*
X155223589Y-79116708D01*
X155370076Y-79423823D01*
X155371590Y-79426236D01*
X155371593Y-79426242D01*
X155497656Y-79627204D01*
X155550890Y-79712066D01*
X155763635Y-79977616D01*
X155765665Y-79979624D01*
X155765666Y-79979626D01*
X156003461Y-80214943D01*
X156003469Y-80214950D01*
X156005493Y-80216953D01*
X156079925Y-80275315D01*
X156271017Y-80425151D01*
X156271024Y-80425156D01*
X156273256Y-80426906D01*
X156275685Y-80428394D01*
X156275690Y-80428398D01*
X156357761Y-80478691D01*
X156563376Y-80604692D01*
X156565963Y-80605893D01*
X156565967Y-80605895D01*
X156869411Y-80746749D01*
X156869418Y-80746752D01*
X156872008Y-80747954D01*
X157195060Y-80854794D01*
X157528252Y-80923794D01*
X157531090Y-80924047D01*
X157531095Y-80924048D01*
X157816894Y-80949555D01*
X157827480Y-80950500D01*
X158046715Y-80950500D01*
X158299697Y-80935913D01*
X158302505Y-80935423D01*
X158632092Y-80877901D01*
X158632100Y-80877899D01*
X158634891Y-80877412D01*
X158961140Y-80780773D01*
X159274119Y-80647276D01*
X159276584Y-80645870D01*
X159276590Y-80645867D01*
X159567209Y-80480101D01*
X159569681Y-80478691D01*
X159571970Y-80477009D01*
X159571977Y-80477005D01*
X159841609Y-80278940D01*
X159841608Y-80278940D01*
X159843907Y-80277252D01*
X160093162Y-80045629D01*
X160314144Y-79786893D01*
X160503923Y-79504472D01*
X160659984Y-79202110D01*
X160780257Y-78883815D01*
X160863150Y-78553805D01*
X160907563Y-78216455D01*
X160912908Y-77876237D01*
X160906508Y-77812118D01*
X160879396Y-77540492D01*
X160879396Y-77540490D01*
X160879113Y-77537658D01*
X160806627Y-77205207D01*
X160696411Y-76883292D01*
X160549924Y-76576177D01*
X160497849Y-76493161D01*
X160370626Y-76290351D01*
X160369110Y-76287934D01*
X160156365Y-76022384D01*
X160154334Y-76020374D01*
X159916539Y-75785057D01*
X159916531Y-75785050D01*
X159914507Y-75783047D01*
X159789960Y-75685390D01*
X159648983Y-75574849D01*
X159648976Y-75574844D01*
X159646744Y-75573094D01*
X159644315Y-75571606D01*
X159644310Y-75571602D01*
X159359059Y-75396800D01*
X159359057Y-75396799D01*
X159356624Y-75395308D01*
X159354037Y-75394107D01*
X159354033Y-75394105D01*
X159050589Y-75253251D01*
X159050582Y-75253248D01*
X159047992Y-75252046D01*
X158724940Y-75145206D01*
X158391748Y-75076206D01*
X158388910Y-75075953D01*
X158388905Y-75075952D01*
X158094716Y-75049696D01*
X158092520Y-75049500D01*
X157873285Y-75049500D01*
X157620303Y-75064087D01*
X157617496Y-75064577D01*
X157617495Y-75064577D01*
X157287908Y-75122099D01*
X157287900Y-75122101D01*
X157285109Y-75122588D01*
X156958860Y-75219227D01*
X156645881Y-75352724D01*
X156643416Y-75354130D01*
X156643410Y-75354133D01*
X156568607Y-75396800D01*
X156350319Y-75521309D01*
X156348030Y-75522991D01*
X156348023Y-75522995D01*
X156281853Y-75571602D01*
X156076093Y-75722748D01*
X155826838Y-75954371D01*
X155605856Y-76213107D01*
X155416077Y-76495528D01*
X155260016Y-76797890D01*
X155139743Y-77116185D01*
X155056850Y-77446195D01*
X155012437Y-77783545D01*
X155007092Y-78123763D01*
X148280000Y-78123763D01*
X148280000Y-72897045D01*
X148298907Y-72838854D01*
X148348407Y-72802890D01*
X148409593Y-72802890D01*
X148454280Y-72832750D01*
X148460000Y-72839447D01*
X148599601Y-73002899D01*
X148786977Y-73162933D01*
X148997080Y-73291684D01*
X149224738Y-73385983D01*
X149228512Y-73386889D01*
X149228515Y-73386890D01*
X149460571Y-73442601D01*
X149464345Y-73443507D01*
X149468210Y-73443811D01*
X149468215Y-73443812D01*
X149706125Y-73462536D01*
X149710000Y-73462841D01*
X149713875Y-73462536D01*
X149951785Y-73443812D01*
X149951790Y-73443811D01*
X149955655Y-73443507D01*
X149959429Y-73442601D01*
X150191485Y-73386890D01*
X150191488Y-73386889D01*
X150195262Y-73385983D01*
X150422920Y-73291684D01*
X150633023Y-73162933D01*
X150820399Y-73002899D01*
X150960000Y-72839447D01*
X150977905Y-72818483D01*
X150977905Y-72818482D01*
X150980433Y-72815523D01*
X151109184Y-72605420D01*
X151118536Y-72582843D01*
X151158272Y-72536317D01*
X151217767Y-72522033D01*
X151274295Y-72545448D01*
X151301464Y-72582843D01*
X151310816Y-72605420D01*
X151439567Y-72815523D01*
X151442095Y-72818482D01*
X151442095Y-72818483D01*
X151460000Y-72839447D01*
X151599601Y-73002899D01*
X151786977Y-73162933D01*
X151997080Y-73291684D01*
X152224738Y-73385983D01*
X152228512Y-73386889D01*
X152228515Y-73386890D01*
X152460571Y-73442601D01*
X152464345Y-73443507D01*
X152468210Y-73443811D01*
X152468215Y-73443812D01*
X152706125Y-73462536D01*
X152710000Y-73462841D01*
X152713875Y-73462536D01*
X152951785Y-73443812D01*
X152951790Y-73443811D01*
X152955655Y-73443507D01*
X152959429Y-73442601D01*
X153191485Y-73386890D01*
X153191488Y-73386889D01*
X153195262Y-73385983D01*
X153422920Y-73291684D01*
X153633023Y-73162933D01*
X153820399Y-73002899D01*
X153884719Y-72927589D01*
X153936889Y-72895619D01*
X153997886Y-72900420D01*
X154035280Y-72927589D01*
X154099601Y-73002899D01*
X154286977Y-73162933D01*
X154497080Y-73291684D01*
X154724738Y-73385983D01*
X154728512Y-73386889D01*
X154728515Y-73386890D01*
X154960571Y-73442601D01*
X154964345Y-73443507D01*
X154968210Y-73443811D01*
X154968215Y-73443812D01*
X155206125Y-73462536D01*
X155210000Y-73462841D01*
X155213875Y-73462536D01*
X155451785Y-73443812D01*
X155451790Y-73443811D01*
X155455655Y-73443507D01*
X155459429Y-73442601D01*
X155691485Y-73386890D01*
X155691488Y-73386889D01*
X155695262Y-73385983D01*
X155922920Y-73291684D01*
X156133023Y-73162933D01*
X156320399Y-73002899D01*
X156460000Y-72839447D01*
X156477905Y-72818483D01*
X156477905Y-72818482D01*
X156480433Y-72815523D01*
X156609184Y-72605420D01*
X156618536Y-72582843D01*
X156658272Y-72536317D01*
X156717767Y-72522033D01*
X156774295Y-72545448D01*
X156801464Y-72582843D01*
X156810816Y-72605420D01*
X156939567Y-72815523D01*
X156942095Y-72818482D01*
X156942095Y-72818483D01*
X156960000Y-72839447D01*
X157099601Y-73002899D01*
X157286977Y-73162933D01*
X157497080Y-73291684D01*
X157724738Y-73385983D01*
X157728512Y-73386889D01*
X157728515Y-73386890D01*
X157960571Y-73442601D01*
X157964345Y-73443507D01*
X157968210Y-73443811D01*
X157968215Y-73443812D01*
X158206125Y-73462536D01*
X158210000Y-73462841D01*
X158213875Y-73462536D01*
X158451785Y-73443812D01*
X158451790Y-73443811D01*
X158455655Y-73443507D01*
X158459429Y-73442601D01*
X158691485Y-73386890D01*
X158691488Y-73386889D01*
X158695262Y-73385983D01*
X158922920Y-73291684D01*
X159133023Y-73162933D01*
X159320399Y-73002899D01*
X159429196Y-72875514D01*
X160297649Y-72875514D01*
X160301885Y-72879750D01*
X160475589Y-72936191D01*
X160485010Y-72938262D01*
X160682786Y-72961845D01*
X160692413Y-72962047D01*
X160891002Y-72946766D01*
X160900493Y-72945093D01*
X161092332Y-72891531D01*
X161101312Y-72888048D01*
X161112928Y-72882180D01*
X161119641Y-72875514D01*
X163297649Y-72875514D01*
X163301885Y-72879750D01*
X163475589Y-72936191D01*
X163485010Y-72938262D01*
X163682786Y-72961845D01*
X163692413Y-72962047D01*
X163891002Y-72946766D01*
X163900493Y-72945093D01*
X164092332Y-72891531D01*
X164101312Y-72888048D01*
X164112928Y-72882180D01*
X164120968Y-72874196D01*
X164115775Y-72863961D01*
X163721086Y-72469272D01*
X163709203Y-72463218D01*
X163704172Y-72464014D01*
X163302820Y-72865366D01*
X163297649Y-72875514D01*
X161119641Y-72875514D01*
X161120968Y-72874196D01*
X161115775Y-72863961D01*
X160721086Y-72469272D01*
X160709203Y-72463218D01*
X160704172Y-72464014D01*
X160302820Y-72865366D01*
X160297649Y-72875514D01*
X159429196Y-72875514D01*
X159460000Y-72839447D01*
X159477905Y-72818483D01*
X159477905Y-72818482D01*
X159480433Y-72815523D01*
X159609184Y-72605420D01*
X159703483Y-72377762D01*
X159704389Y-72373989D01*
X159704393Y-72373976D01*
X159711003Y-72346443D01*
X159737263Y-72299551D01*
X160133228Y-71903586D01*
X160138470Y-71893297D01*
X161280718Y-71893297D01*
X161281514Y-71898328D01*
X161682369Y-72299183D01*
X161692517Y-72304354D01*
X161696871Y-72300000D01*
X161752032Y-72134182D01*
X161754166Y-72124788D01*
X161779388Y-71925132D01*
X161779775Y-71919606D01*
X161780114Y-71895259D01*
X161779884Y-71889761D01*
X161779160Y-71882378D01*
X162640356Y-71882378D01*
X162657023Y-72080864D01*
X162658761Y-72090332D01*
X162713661Y-72281792D01*
X162717212Y-72290760D01*
X162719836Y-72295866D01*
X162727963Y-72303937D01*
X162738027Y-72298787D01*
X163133228Y-71903586D01*
X163138470Y-71893297D01*
X164280718Y-71893297D01*
X164281514Y-71898328D01*
X164682369Y-72299183D01*
X164692517Y-72304354D01*
X164696871Y-72300000D01*
X164752032Y-72134182D01*
X164754166Y-72124788D01*
X164779388Y-71925132D01*
X164779775Y-71919606D01*
X164780114Y-71895259D01*
X164779884Y-71889761D01*
X164760244Y-71689450D01*
X164758375Y-71680012D01*
X164700804Y-71489328D01*
X164699708Y-71486668D01*
X164692825Y-71480021D01*
X164683107Y-71485079D01*
X164286772Y-71881414D01*
X164280718Y-71893297D01*
X163138470Y-71893297D01*
X163139282Y-71891703D01*
X163138486Y-71886672D01*
X162736592Y-71484778D01*
X162726444Y-71479607D01*
X162722322Y-71483729D01*
X162664696Y-71665388D01*
X162662692Y-71674816D01*
X162640490Y-71872750D01*
X162640356Y-71882378D01*
X161779160Y-71882378D01*
X161760244Y-71689450D01*
X161758375Y-71680012D01*
X161700804Y-71489328D01*
X161699708Y-71486668D01*
X161692825Y-71480021D01*
X161683107Y-71485079D01*
X161286772Y-71881414D01*
X161280718Y-71893297D01*
X160138470Y-71893297D01*
X160139282Y-71891703D01*
X160138486Y-71886672D01*
X159737263Y-71485449D01*
X159711002Y-71438556D01*
X159704389Y-71411011D01*
X159704388Y-71411009D01*
X159703483Y-71407238D01*
X159609184Y-71179580D01*
X159480433Y-70969477D01*
X159429710Y-70910087D01*
X160298059Y-70910087D01*
X160303165Y-70919979D01*
X160698914Y-71315728D01*
X160710797Y-71321782D01*
X160715828Y-71320986D01*
X161117605Y-70919209D01*
X161122253Y-70910087D01*
X163298059Y-70910087D01*
X163303165Y-70919979D01*
X163698914Y-71315728D01*
X163710797Y-71321782D01*
X163715828Y-71320986D01*
X164117605Y-70919209D01*
X164122973Y-70908673D01*
X164118439Y-70904027D01*
X163929806Y-70845636D01*
X163920372Y-70843699D01*
X163722287Y-70822879D01*
X163712649Y-70822812D01*
X163514292Y-70840863D01*
X163504829Y-70842669D01*
X163313757Y-70898904D01*
X163305903Y-70902078D01*
X163298059Y-70910087D01*
X161122253Y-70910087D01*
X161122973Y-70908673D01*
X161118439Y-70904027D01*
X160929806Y-70845636D01*
X160920372Y-70843699D01*
X160722287Y-70822879D01*
X160712649Y-70822812D01*
X160514292Y-70840863D01*
X160504829Y-70842669D01*
X160313757Y-70898904D01*
X160305903Y-70902078D01*
X160298059Y-70910087D01*
X159429710Y-70910087D01*
X159424534Y-70904027D01*
X159322933Y-70785068D01*
X159320399Y-70782101D01*
X159245089Y-70717780D01*
X159213119Y-70665611D01*
X159217920Y-70604614D01*
X159245089Y-70567220D01*
X159317432Y-70505433D01*
X159320399Y-70502899D01*
X159429196Y-70375514D01*
X160297649Y-70375514D01*
X160301885Y-70379750D01*
X160475589Y-70436191D01*
X160485010Y-70438262D01*
X160682786Y-70461845D01*
X160692413Y-70462047D01*
X160891002Y-70446766D01*
X160900493Y-70445093D01*
X161092332Y-70391531D01*
X161101312Y-70388048D01*
X161112928Y-70382180D01*
X161119641Y-70375514D01*
X163297649Y-70375514D01*
X163301885Y-70379750D01*
X163475589Y-70436191D01*
X163485010Y-70438262D01*
X163682786Y-70461845D01*
X163692413Y-70462047D01*
X163891002Y-70446766D01*
X163900493Y-70445093D01*
X164092332Y-70391531D01*
X164101312Y-70388048D01*
X164112928Y-70382180D01*
X164120968Y-70374196D01*
X164115775Y-70363961D01*
X163721086Y-69969272D01*
X163709203Y-69963218D01*
X163704172Y-69964014D01*
X163302820Y-70365366D01*
X163297649Y-70375514D01*
X161119641Y-70375514D01*
X161120968Y-70374196D01*
X161115775Y-70363961D01*
X160721086Y-69969272D01*
X160709203Y-69963218D01*
X160704172Y-69964014D01*
X160302820Y-70365366D01*
X160297649Y-70375514D01*
X159429196Y-70375514D01*
X159460000Y-70339447D01*
X159477905Y-70318483D01*
X159477905Y-70318482D01*
X159480433Y-70315523D01*
X159609184Y-70105420D01*
X159703483Y-69877762D01*
X159704389Y-69873989D01*
X159704393Y-69873976D01*
X159711003Y-69846443D01*
X159737263Y-69799551D01*
X160133228Y-69403586D01*
X160138470Y-69393297D01*
X161280718Y-69393297D01*
X161281514Y-69398328D01*
X161682369Y-69799183D01*
X161692517Y-69804354D01*
X161696871Y-69800000D01*
X161752032Y-69634182D01*
X161754166Y-69624788D01*
X161779388Y-69425132D01*
X161779775Y-69419606D01*
X161780114Y-69395259D01*
X161779884Y-69389761D01*
X161779160Y-69382378D01*
X162640356Y-69382378D01*
X162657023Y-69580864D01*
X162658761Y-69590332D01*
X162713661Y-69781792D01*
X162717212Y-69790760D01*
X162719836Y-69795866D01*
X162727963Y-69803937D01*
X162738027Y-69798787D01*
X163133228Y-69403586D01*
X163138470Y-69393297D01*
X164280718Y-69393297D01*
X164281514Y-69398328D01*
X164682369Y-69799183D01*
X164692517Y-69804354D01*
X164696871Y-69800000D01*
X164752032Y-69634182D01*
X164754166Y-69624788D01*
X164779388Y-69425132D01*
X164779775Y-69419606D01*
X164780114Y-69395259D01*
X164779884Y-69389761D01*
X164760244Y-69189450D01*
X164758375Y-69180012D01*
X164700804Y-68989328D01*
X164699708Y-68986668D01*
X164692825Y-68980021D01*
X164683107Y-68985079D01*
X164286772Y-69381414D01*
X164280718Y-69393297D01*
X163138470Y-69393297D01*
X163139282Y-69391703D01*
X163138486Y-69386672D01*
X162736592Y-68984778D01*
X162726444Y-68979607D01*
X162722322Y-68983729D01*
X162664696Y-69165388D01*
X162662692Y-69174816D01*
X162640490Y-69372750D01*
X162640356Y-69382378D01*
X161779160Y-69382378D01*
X161760244Y-69189450D01*
X161758375Y-69180012D01*
X161700804Y-68989328D01*
X161699708Y-68986668D01*
X161692825Y-68980021D01*
X161683107Y-68985079D01*
X161286772Y-69381414D01*
X161280718Y-69393297D01*
X160138470Y-69393297D01*
X160139282Y-69391703D01*
X160138486Y-69386672D01*
X159737263Y-68985449D01*
X159711002Y-68938556D01*
X159704389Y-68911011D01*
X159704388Y-68911009D01*
X159703483Y-68907238D01*
X159695635Y-68888290D01*
X159634025Y-68739552D01*
X159609184Y-68679580D01*
X159480433Y-68469477D01*
X159429710Y-68410087D01*
X160298059Y-68410087D01*
X160303165Y-68419979D01*
X160698914Y-68815728D01*
X160710797Y-68821782D01*
X160715828Y-68820986D01*
X161117605Y-68419209D01*
X161122253Y-68410087D01*
X163298059Y-68410087D01*
X163303165Y-68419979D01*
X163698914Y-68815728D01*
X163710797Y-68821782D01*
X163715828Y-68820986D01*
X164117605Y-68419209D01*
X164122973Y-68408673D01*
X164118439Y-68404027D01*
X163929806Y-68345636D01*
X163920372Y-68343699D01*
X163722287Y-68322879D01*
X163712649Y-68322812D01*
X163514292Y-68340863D01*
X163504829Y-68342669D01*
X163313757Y-68398904D01*
X163305903Y-68402078D01*
X163298059Y-68410087D01*
X161122253Y-68410087D01*
X161122973Y-68408673D01*
X161118439Y-68404027D01*
X160929806Y-68345636D01*
X160920372Y-68343699D01*
X160722287Y-68322879D01*
X160712649Y-68322812D01*
X160514292Y-68340863D01*
X160504829Y-68342669D01*
X160313757Y-68398904D01*
X160305903Y-68402078D01*
X160298059Y-68410087D01*
X159429710Y-68410087D01*
X159424534Y-68404027D01*
X159322933Y-68285068D01*
X159320399Y-68282101D01*
X159275293Y-68243577D01*
X159245089Y-68217780D01*
X159213119Y-68165611D01*
X159217920Y-68104614D01*
X159245089Y-68067220D01*
X159317432Y-68005433D01*
X159320399Y-68002899D01*
X159429196Y-67875514D01*
X160297649Y-67875514D01*
X160301885Y-67879750D01*
X160475589Y-67936191D01*
X160485010Y-67938262D01*
X160682786Y-67961845D01*
X160692413Y-67962047D01*
X160891002Y-67946766D01*
X160900493Y-67945093D01*
X161092332Y-67891531D01*
X161101312Y-67888048D01*
X161112928Y-67882180D01*
X161119641Y-67875514D01*
X163297649Y-67875514D01*
X163301885Y-67879750D01*
X163475589Y-67936191D01*
X163485010Y-67938262D01*
X163682786Y-67961845D01*
X163692413Y-67962047D01*
X163891002Y-67946766D01*
X163900493Y-67945093D01*
X164092332Y-67891531D01*
X164101312Y-67888048D01*
X164112928Y-67882180D01*
X164120968Y-67874196D01*
X164115775Y-67863961D01*
X163721086Y-67469272D01*
X163709203Y-67463218D01*
X163704172Y-67464014D01*
X163302820Y-67865366D01*
X163297649Y-67875514D01*
X161119641Y-67875514D01*
X161120968Y-67874196D01*
X161115775Y-67863961D01*
X160721086Y-67469272D01*
X160709203Y-67463218D01*
X160704172Y-67464014D01*
X160302820Y-67865366D01*
X160297649Y-67875514D01*
X159429196Y-67875514D01*
X159460000Y-67839447D01*
X159477905Y-67818483D01*
X159477905Y-67818482D01*
X159480433Y-67815523D01*
X159609184Y-67605420D01*
X159703483Y-67377762D01*
X159704389Y-67373989D01*
X159704393Y-67373976D01*
X159711003Y-67346443D01*
X159737263Y-67299551D01*
X160133228Y-66903586D01*
X160138470Y-66893297D01*
X161280718Y-66893297D01*
X161281514Y-66898328D01*
X161682369Y-67299183D01*
X161692517Y-67304354D01*
X161696871Y-67300000D01*
X161752032Y-67134182D01*
X161754166Y-67124788D01*
X161779388Y-66925132D01*
X161779775Y-66919606D01*
X161780114Y-66895259D01*
X161779884Y-66889761D01*
X161779160Y-66882378D01*
X162640356Y-66882378D01*
X162657023Y-67080864D01*
X162658761Y-67090332D01*
X162713661Y-67281792D01*
X162717212Y-67290760D01*
X162719836Y-67295866D01*
X162727963Y-67303937D01*
X162738027Y-67298787D01*
X163133228Y-66903586D01*
X163138470Y-66893297D01*
X164280718Y-66893297D01*
X164281514Y-66898328D01*
X164682369Y-67299183D01*
X164692517Y-67304354D01*
X164696871Y-67300000D01*
X164752032Y-67134182D01*
X164754166Y-67124788D01*
X164779388Y-66925132D01*
X164779775Y-66919606D01*
X164780114Y-66895259D01*
X164779884Y-66889761D01*
X164760244Y-66689450D01*
X164758375Y-66680012D01*
X164700804Y-66489328D01*
X164699708Y-66486668D01*
X164692825Y-66480021D01*
X164683107Y-66485079D01*
X164286772Y-66881414D01*
X164280718Y-66893297D01*
X163138470Y-66893297D01*
X163139282Y-66891703D01*
X163138486Y-66886672D01*
X162736592Y-66484778D01*
X162726444Y-66479607D01*
X162722322Y-66483729D01*
X162664696Y-66665388D01*
X162662692Y-66674816D01*
X162640490Y-66872750D01*
X162640356Y-66882378D01*
X161779160Y-66882378D01*
X161760244Y-66689450D01*
X161758375Y-66680012D01*
X161700804Y-66489328D01*
X161699708Y-66486668D01*
X161692825Y-66480021D01*
X161683107Y-66485079D01*
X161286772Y-66881414D01*
X161280718Y-66893297D01*
X160138470Y-66893297D01*
X160139282Y-66891703D01*
X160138486Y-66886672D01*
X159737263Y-66485449D01*
X159711002Y-66438556D01*
X159704389Y-66411011D01*
X159704388Y-66411009D01*
X159703483Y-66407238D01*
X159609184Y-66179580D01*
X159480433Y-65969477D01*
X159429710Y-65910087D01*
X160298059Y-65910087D01*
X160303165Y-65919979D01*
X160698914Y-66315728D01*
X160710797Y-66321782D01*
X160715828Y-66320986D01*
X161117605Y-65919209D01*
X161122253Y-65910087D01*
X163298059Y-65910087D01*
X163303165Y-65919979D01*
X163698914Y-66315728D01*
X163710797Y-66321782D01*
X163715828Y-66320986D01*
X164117605Y-65919209D01*
X164122973Y-65908673D01*
X164118439Y-65904027D01*
X163929806Y-65845636D01*
X163920372Y-65843699D01*
X163722287Y-65822879D01*
X163712649Y-65822812D01*
X163514292Y-65840863D01*
X163504829Y-65842669D01*
X163313757Y-65898904D01*
X163305903Y-65902078D01*
X163298059Y-65910087D01*
X161122253Y-65910087D01*
X161122973Y-65908673D01*
X161118439Y-65904027D01*
X160929806Y-65845636D01*
X160920372Y-65843699D01*
X160722287Y-65822879D01*
X160712649Y-65822812D01*
X160514292Y-65840863D01*
X160504829Y-65842669D01*
X160313757Y-65898904D01*
X160305903Y-65902078D01*
X160298059Y-65910087D01*
X159429710Y-65910087D01*
X159424534Y-65904027D01*
X159322933Y-65785068D01*
X159320399Y-65782101D01*
X159245089Y-65717780D01*
X159213119Y-65665611D01*
X159217920Y-65604614D01*
X159245089Y-65567220D01*
X159317432Y-65505433D01*
X159320399Y-65502899D01*
X159429196Y-65375514D01*
X160297649Y-65375514D01*
X160301885Y-65379750D01*
X160475589Y-65436191D01*
X160485010Y-65438262D01*
X160682786Y-65461845D01*
X160692413Y-65462047D01*
X160891002Y-65446766D01*
X160900493Y-65445093D01*
X161092332Y-65391531D01*
X161101312Y-65388048D01*
X161112928Y-65382180D01*
X161119641Y-65375514D01*
X163297649Y-65375514D01*
X163301885Y-65379750D01*
X163475589Y-65436191D01*
X163485010Y-65438262D01*
X163682786Y-65461845D01*
X163692413Y-65462047D01*
X163891002Y-65446766D01*
X163900493Y-65445093D01*
X164092332Y-65391531D01*
X164101312Y-65388048D01*
X164112928Y-65382180D01*
X164120968Y-65374196D01*
X164115775Y-65363961D01*
X163721086Y-64969272D01*
X163709203Y-64963218D01*
X163704172Y-64964014D01*
X163302820Y-65365366D01*
X163297649Y-65375514D01*
X161119641Y-65375514D01*
X161120968Y-65374196D01*
X161115775Y-65363961D01*
X160721086Y-64969272D01*
X160709203Y-64963218D01*
X160704172Y-64964014D01*
X160302820Y-65365366D01*
X160297649Y-65375514D01*
X159429196Y-65375514D01*
X159460000Y-65339447D01*
X159477905Y-65318483D01*
X159477905Y-65318482D01*
X159480433Y-65315523D01*
X159609184Y-65105420D01*
X159703483Y-64877762D01*
X159704389Y-64873989D01*
X159704393Y-64873976D01*
X159711003Y-64846443D01*
X159737263Y-64799551D01*
X160133228Y-64403586D01*
X160138470Y-64393297D01*
X161280718Y-64393297D01*
X161281514Y-64398328D01*
X161682369Y-64799183D01*
X161692517Y-64804354D01*
X161696871Y-64800000D01*
X161752032Y-64634182D01*
X161754166Y-64624788D01*
X161779388Y-64425132D01*
X161779775Y-64419606D01*
X161780114Y-64395259D01*
X161779884Y-64389761D01*
X161779160Y-64382378D01*
X162640356Y-64382378D01*
X162657023Y-64580864D01*
X162658761Y-64590332D01*
X162713661Y-64781792D01*
X162717212Y-64790760D01*
X162719836Y-64795866D01*
X162727963Y-64803937D01*
X162738027Y-64798787D01*
X163133228Y-64403586D01*
X163138470Y-64393297D01*
X164280718Y-64393297D01*
X164281514Y-64398328D01*
X164682369Y-64799183D01*
X164692517Y-64804354D01*
X164696871Y-64800000D01*
X164752032Y-64634182D01*
X164754166Y-64624788D01*
X164779388Y-64425132D01*
X164779775Y-64419606D01*
X164780114Y-64395259D01*
X164779884Y-64389761D01*
X164760244Y-64189450D01*
X164758375Y-64180012D01*
X164700804Y-63989328D01*
X164699708Y-63986668D01*
X164692825Y-63980021D01*
X164683107Y-63985079D01*
X164286772Y-64381414D01*
X164280718Y-64393297D01*
X163138470Y-64393297D01*
X163139282Y-64391703D01*
X163138486Y-64386672D01*
X162736592Y-63984778D01*
X162726444Y-63979607D01*
X162722322Y-63983729D01*
X162664696Y-64165388D01*
X162662692Y-64174816D01*
X162640490Y-64372750D01*
X162640356Y-64382378D01*
X161779160Y-64382378D01*
X161760244Y-64189450D01*
X161758375Y-64180012D01*
X161700804Y-63989328D01*
X161699708Y-63986668D01*
X161692825Y-63980021D01*
X161683107Y-63985079D01*
X161286772Y-64381414D01*
X161280718Y-64393297D01*
X160138470Y-64393297D01*
X160139282Y-64391703D01*
X160138486Y-64386672D01*
X159737263Y-63985449D01*
X159711002Y-63938556D01*
X159704389Y-63911011D01*
X159704388Y-63911009D01*
X159703483Y-63907238D01*
X159609184Y-63679580D01*
X159480433Y-63469477D01*
X159429710Y-63410087D01*
X160298059Y-63410087D01*
X160303165Y-63419979D01*
X160698914Y-63815728D01*
X160710797Y-63821782D01*
X160715828Y-63820986D01*
X161117605Y-63419209D01*
X161122253Y-63410087D01*
X163298059Y-63410087D01*
X163303165Y-63419979D01*
X163698914Y-63815728D01*
X163710797Y-63821782D01*
X163715828Y-63820986D01*
X164117605Y-63419209D01*
X164122973Y-63408673D01*
X164118439Y-63404027D01*
X163929806Y-63345636D01*
X163920372Y-63343699D01*
X163722287Y-63322879D01*
X163712649Y-63322812D01*
X163514292Y-63340863D01*
X163504829Y-63342669D01*
X163313757Y-63398904D01*
X163305903Y-63402078D01*
X163298059Y-63410087D01*
X161122253Y-63410087D01*
X161122973Y-63408673D01*
X161118439Y-63404027D01*
X160929806Y-63345636D01*
X160920372Y-63343699D01*
X160722287Y-63322879D01*
X160712649Y-63322812D01*
X160514292Y-63340863D01*
X160504829Y-63342669D01*
X160313757Y-63398904D01*
X160305903Y-63402078D01*
X160298059Y-63410087D01*
X159429710Y-63410087D01*
X159424534Y-63404027D01*
X159322933Y-63285068D01*
X159320399Y-63282101D01*
X159245089Y-63217780D01*
X159213119Y-63165611D01*
X159217920Y-63104614D01*
X159245089Y-63067220D01*
X159317432Y-63005433D01*
X159320399Y-63002899D01*
X159429196Y-62875514D01*
X160297649Y-62875514D01*
X160301885Y-62879750D01*
X160475589Y-62936191D01*
X160485010Y-62938262D01*
X160682786Y-62961845D01*
X160692413Y-62962047D01*
X160891002Y-62946766D01*
X160900493Y-62945093D01*
X161092332Y-62891531D01*
X161101312Y-62888048D01*
X161112928Y-62882180D01*
X161119641Y-62875514D01*
X163297649Y-62875514D01*
X163301885Y-62879750D01*
X163475589Y-62936191D01*
X163485010Y-62938262D01*
X163682786Y-62961845D01*
X163692413Y-62962047D01*
X163891002Y-62946766D01*
X163900493Y-62945093D01*
X164092332Y-62891531D01*
X164101312Y-62888048D01*
X164112928Y-62882180D01*
X164120968Y-62874196D01*
X164115775Y-62863961D01*
X163721086Y-62469272D01*
X163709203Y-62463218D01*
X163704172Y-62464014D01*
X163302820Y-62865366D01*
X163297649Y-62875514D01*
X161119641Y-62875514D01*
X161120968Y-62874196D01*
X161115775Y-62863961D01*
X160721086Y-62469272D01*
X160709203Y-62463218D01*
X160704172Y-62464014D01*
X160302820Y-62865366D01*
X160297649Y-62875514D01*
X159429196Y-62875514D01*
X159460000Y-62839447D01*
X159477905Y-62818483D01*
X159477905Y-62818482D01*
X159480433Y-62815523D01*
X159609184Y-62605420D01*
X159703483Y-62377762D01*
X159704389Y-62373989D01*
X159704393Y-62373976D01*
X159711003Y-62346443D01*
X159737263Y-62299551D01*
X160133228Y-61903586D01*
X160138470Y-61893297D01*
X161280718Y-61893297D01*
X161281514Y-61898328D01*
X161682369Y-62299183D01*
X161692517Y-62304354D01*
X161696871Y-62300000D01*
X161752032Y-62134182D01*
X161754166Y-62124788D01*
X161779388Y-61925132D01*
X161779775Y-61919606D01*
X161780114Y-61895259D01*
X161779884Y-61889761D01*
X161779160Y-61882378D01*
X162640356Y-61882378D01*
X162657023Y-62080864D01*
X162658761Y-62090332D01*
X162713661Y-62281792D01*
X162717212Y-62290760D01*
X162719836Y-62295866D01*
X162727963Y-62303937D01*
X162738027Y-62298787D01*
X163133228Y-61903586D01*
X163138470Y-61893297D01*
X164280718Y-61893297D01*
X164281514Y-61898328D01*
X164682369Y-62299183D01*
X164692517Y-62304354D01*
X164696871Y-62300000D01*
X164752032Y-62134182D01*
X164754166Y-62124788D01*
X164779388Y-61925132D01*
X164779775Y-61919606D01*
X164780114Y-61895259D01*
X164779884Y-61889761D01*
X164760244Y-61689450D01*
X164758375Y-61680012D01*
X164700804Y-61489328D01*
X164699708Y-61486668D01*
X164692825Y-61480021D01*
X164683107Y-61485079D01*
X164286772Y-61881414D01*
X164280718Y-61893297D01*
X163138470Y-61893297D01*
X163139282Y-61891703D01*
X163138486Y-61886672D01*
X162736592Y-61484778D01*
X162726444Y-61479607D01*
X162722322Y-61483729D01*
X162664696Y-61665388D01*
X162662692Y-61674816D01*
X162640490Y-61872750D01*
X162640356Y-61882378D01*
X161779160Y-61882378D01*
X161760244Y-61689450D01*
X161758375Y-61680012D01*
X161700804Y-61489328D01*
X161699708Y-61486668D01*
X161692825Y-61480021D01*
X161683107Y-61485079D01*
X161286772Y-61881414D01*
X161280718Y-61893297D01*
X160138470Y-61893297D01*
X160139282Y-61891703D01*
X160138486Y-61886672D01*
X159737263Y-61485449D01*
X159711002Y-61438556D01*
X159704389Y-61411011D01*
X159704388Y-61411009D01*
X159703483Y-61407238D01*
X159609184Y-61179580D01*
X159480433Y-60969477D01*
X159429710Y-60910087D01*
X160298059Y-60910087D01*
X160303165Y-60919979D01*
X160698914Y-61315728D01*
X160710797Y-61321782D01*
X160715828Y-61320986D01*
X161117605Y-60919209D01*
X161122253Y-60910087D01*
X163298059Y-60910087D01*
X163303165Y-60919979D01*
X163698914Y-61315728D01*
X163710797Y-61321782D01*
X163715828Y-61320986D01*
X164117605Y-60919209D01*
X164122973Y-60908673D01*
X164118439Y-60904027D01*
X163929806Y-60845636D01*
X163920372Y-60843699D01*
X163722287Y-60822879D01*
X163712649Y-60822812D01*
X163514292Y-60840863D01*
X163504829Y-60842669D01*
X163313757Y-60898904D01*
X163305903Y-60902078D01*
X163298059Y-60910087D01*
X161122253Y-60910087D01*
X161122973Y-60908673D01*
X161118439Y-60904027D01*
X160929806Y-60845636D01*
X160920372Y-60843699D01*
X160722287Y-60822879D01*
X160712649Y-60822812D01*
X160514292Y-60840863D01*
X160504829Y-60842669D01*
X160313757Y-60898904D01*
X160305903Y-60902078D01*
X160298059Y-60910087D01*
X159429710Y-60910087D01*
X159424534Y-60904027D01*
X159322933Y-60785068D01*
X159320399Y-60782101D01*
X159133023Y-60622067D01*
X159020986Y-60553411D01*
X158981249Y-60506886D01*
X158976448Y-60445889D01*
X159008417Y-60393720D01*
X159064945Y-60370305D01*
X159072713Y-60370000D01*
X170761000Y-60370000D01*
X170819191Y-60388907D01*
G37*
%TD.AperFunction*%
%TD*%
M02*
