%TF.GenerationSoftware,KiCad,Pcbnew,(6.0.1-0)*%
%TF.CreationDate,2022-12-23T21:27:23-08:00*%
%TF.ProjectId,ESC Daughterboard,45534320-4461-4756-9768-746572626f61,rev?*%
%TF.SameCoordinates,Original*%
%TF.FileFunction,Copper,L1,Top*%
%TF.FilePolarity,Positive*%
%FSLAX46Y46*%
G04 Gerber Fmt 4.6, Leading zero omitted, Abs format (unit mm)*
G04 Created by KiCad (PCBNEW (6.0.1-0)) date 2022-12-23 21:27:23*
%MOMM*%
%LPD*%
G01*
G04 APERTURE LIST*
G04 Aperture macros list*
%AMRoundRect*
0 Rectangle with rounded corners*
0 $1 Rounding radius*
0 $2 $3 $4 $5 $6 $7 $8 $9 X,Y pos of 4 corners*
0 Add a 4 corners polygon primitive as box body*
4,1,4,$2,$3,$4,$5,$6,$7,$8,$9,$2,$3,0*
0 Add four circle primitives for the rounded corners*
1,1,$1+$1,$2,$3*
1,1,$1+$1,$4,$5*
1,1,$1+$1,$6,$7*
1,1,$1+$1,$8,$9*
0 Add four rect primitives between the rounded corners*
20,1,$1+$1,$2,$3,$4,$5,0*
20,1,$1+$1,$4,$5,$6,$7,0*
20,1,$1+$1,$6,$7,$8,$9,0*
20,1,$1+$1,$8,$9,$2,$3,0*%
G04 Aperture macros list end*
%TA.AperFunction,ComponentPad*%
%ADD10R,2.500000X2.500000*%
%TD*%
%TA.AperFunction,ComponentPad*%
%ADD11C,2.500000*%
%TD*%
%TA.AperFunction,ComponentPad*%
%ADD12R,1.110000X1.110000*%
%TD*%
%TA.AperFunction,ComponentPad*%
%ADD13C,1.110000*%
%TD*%
%TA.AperFunction,ComponentPad*%
%ADD14C,1.528000*%
%TD*%
%TA.AperFunction,SMDPad,CuDef*%
%ADD15RoundRect,0.150000X-0.150000X-0.700000X0.150000X-0.700000X0.150000X0.700000X-0.150000X0.700000X0*%
%TD*%
%TA.AperFunction,SMDPad,CuDef*%
%ADD16RoundRect,0.250000X-0.250000X-1.150000X0.250000X-1.150000X0.250000X1.150000X-0.250000X1.150000X0*%
%TD*%
%TA.AperFunction,ViaPad*%
%ADD17C,0.800000*%
%TD*%
%TA.AperFunction,Conductor*%
%ADD18C,0.250000*%
%TD*%
G04 APERTURE END LIST*
D10*
%TO.P,Phase 1,1,Pin_1*%
%TO.N,/Phase_1*%
X154815000Y-69100000D03*
D11*
%TO.P,Phase 1,2,Pin_2*%
%TO.N,/Phase_2*%
X159895000Y-69100000D03*
%TO.P,Phase 1,3,Pin_3*%
%TO.N,/Phase_3*%
X164975000Y-69100000D03*
%TD*%
D12*
%TO.P,J4,1,1*%
%TO.N,GND*%
X159400000Y-120700000D03*
D13*
%TO.P,J4,2,2*%
%TO.N,+5V*%
X158130000Y-119430000D03*
%TO.P,J4,3,3*%
%TO.N,/Phase_3*%
X156860000Y-120700000D03*
%TO.P,J4,4,4*%
X155590000Y-119430000D03*
%TO.P,J4,5,5*%
X154320000Y-120700000D03*
%TO.P,J4,6,6*%
X153050000Y-119430000D03*
%TO.P,J4,7,7*%
%TO.N,/Phase_2*%
X151780000Y-120700000D03*
%TO.P,J4,8,8*%
X150510000Y-119430000D03*
%TO.P,J4,9,9*%
X149240000Y-120700000D03*
%TO.P,J4,10,10*%
X147970000Y-119430000D03*
%TO.P,J4,11,11*%
%TO.N,/Phase_1*%
X146700000Y-120700000D03*
%TO.P,J4,12,12*%
X145430000Y-119430000D03*
%TO.P,J4,13,13*%
X144160000Y-120700000D03*
%TO.P,J4,14,14*%
X142890000Y-119430000D03*
%TO.P,J4,15,15*%
%TO.N,/CAH*%
X159400000Y-118160000D03*
%TO.P,J4,16,16*%
%TO.N,/CAL*%
X158130000Y-116890000D03*
%TO.P,J4,17,17*%
%TO.N,/Phase_3*%
X156860000Y-118160000D03*
%TO.P,J4,18,18*%
X155590000Y-116890000D03*
%TO.P,J4,19,19*%
X154320000Y-118160000D03*
%TO.P,J4,20,20*%
X153050000Y-116890000D03*
%TO.P,J4,21,21*%
%TO.N,/Phase_2*%
X151780000Y-118160000D03*
%TO.P,J4,22,22*%
X150510000Y-116890000D03*
%TO.P,J4,23,23*%
X149240000Y-118160000D03*
%TO.P,J4,24,24*%
X147970000Y-116890000D03*
%TO.P,J4,25,25*%
%TO.N,/Phase_1*%
X146700000Y-118160000D03*
%TO.P,J4,26,26*%
X145430000Y-116890000D03*
%TO.P,J4,27,27*%
X144160000Y-118160000D03*
%TO.P,J4,28,28*%
X142890000Y-116890000D03*
D14*
%TO.P,J4,A1,A1*%
%TO.N,GND*%
X139609996Y-116890000D03*
%TO.P,J4,A2,A2*%
X137109996Y-116890000D03*
%TO.P,J4,A3,A3*%
X134609996Y-116890000D03*
%TO.P,J4,A4,A4*%
X132109996Y-116890000D03*
%TO.P,J4,A5,A5*%
X129609999Y-116890000D03*
%TO.P,J4,B1,B1*%
%TO.N,/16V*%
X127609995Y-116890000D03*
%TO.P,J4,B2,B2*%
X125109995Y-116890000D03*
%TO.P,J4,B3,B3*%
X122609995Y-116890000D03*
%TO.P,J4,B4,B4*%
X120109995Y-116890000D03*
%TO.P,J4,B5,B5*%
X117609995Y-116890000D03*
%TO.P,J4,C1,C1*%
%TO.N,GND*%
X139609996Y-119390000D03*
%TO.P,J4,C2,C2*%
X137109996Y-119390000D03*
%TO.P,J4,C3,C3*%
X134609996Y-119390000D03*
%TO.P,J4,C4,C4*%
X132109996Y-119390000D03*
%TO.P,J4,C5,C5*%
X129609999Y-119390000D03*
%TO.P,J4,D1,D1*%
%TO.N,/16V*%
X127609995Y-119390000D03*
%TO.P,J4,D2,D2*%
X125109995Y-119390000D03*
%TO.P,J4,D3,D3*%
X122609995Y-119390000D03*
%TO.P,J4,D4,D4*%
X120109995Y-119390000D03*
%TO.P,J4,D5,D5*%
X117609995Y-119390000D03*
%TD*%
D15*
%TO.P,CAN,1,Pin_1*%
%TO.N,GND*%
X136725000Y-70650000D03*
%TO.P,CAN,2,Pin_2*%
%TO.N,/CAL*%
X137975000Y-70650000D03*
%TO.P,CAN,3,Pin_3*%
%TO.N,/CAH*%
X139225000Y-70650000D03*
%TO.P,CAN,4,Pin_4*%
%TO.N,+5V*%
X140475000Y-70650000D03*
D16*
%TO.P,CAN,MP*%
%TO.N,N/C*%
X134875000Y-67300000D03*
X142325000Y-67300000D03*
%TD*%
D10*
%TO.P,PWR,1,Pin_1*%
%TO.N,/16V*%
X117620000Y-69100000D03*
D11*
%TO.P,PWR,2,Pin_2*%
%TO.N,GND*%
X122700000Y-69100000D03*
%TD*%
D17*
%TO.N,GND*%
X136210000Y-73200000D03*
%TO.N,+5V*%
X140980000Y-73200000D03*
%TO.N,/CAH*%
X139220000Y-72800000D03*
%TO.N,/CAL*%
X137960000Y-72790000D03*
%TD*%
D18*
%TO.N,GND*%
X136725000Y-72685000D02*
X136725000Y-70650000D01*
X136210000Y-73200000D02*
X136725000Y-72685000D01*
%TO.N,+5V*%
X140475000Y-70650000D02*
X140475000Y-72695000D01*
X140475000Y-72695000D02*
X140980000Y-73200000D01*
%TO.N,/CAH*%
X139220000Y-72800000D02*
X139225000Y-72795000D01*
X139225000Y-72795000D02*
X139225000Y-70650000D01*
%TO.N,/CAL*%
X137960000Y-72790000D02*
X137975000Y-72775000D01*
X137975000Y-72775000D02*
X137975000Y-70650000D01*
%TD*%
%TA.AperFunction,Conductor*%
%TO.N,/16V*%
G36*
X172442121Y-63520002D02*
G01*
X172488614Y-63573658D01*
X172500000Y-63626000D01*
X172500000Y-122374000D01*
X172479998Y-122442121D01*
X172426342Y-122488614D01*
X172374000Y-122500000D01*
X110126000Y-122500000D01*
X110057879Y-122479998D01*
X110011386Y-122426342D01*
X110000000Y-122374000D01*
X110000000Y-120692053D01*
X116843892Y-120692053D01*
X116849619Y-120699703D01*
X116916308Y-120740570D01*
X116925102Y-120745051D01*
X117136123Y-120832458D01*
X117145508Y-120835507D01*
X117367608Y-120888830D01*
X117377355Y-120890373D01*
X117605065Y-120908294D01*
X117614925Y-120908294D01*
X117842635Y-120890373D01*
X117852382Y-120888830D01*
X118074482Y-120835507D01*
X118083867Y-120832458D01*
X118294888Y-120745051D01*
X118303682Y-120740570D01*
X118366705Y-120701950D01*
X118375659Y-120692053D01*
X119343892Y-120692053D01*
X119349619Y-120699703D01*
X119416308Y-120740570D01*
X119425102Y-120745051D01*
X119636123Y-120832458D01*
X119645508Y-120835507D01*
X119867608Y-120888830D01*
X119877355Y-120890373D01*
X120105065Y-120908294D01*
X120114925Y-120908294D01*
X120342635Y-120890373D01*
X120352382Y-120888830D01*
X120574482Y-120835507D01*
X120583867Y-120832458D01*
X120794888Y-120745051D01*
X120803682Y-120740570D01*
X120866705Y-120701950D01*
X120875659Y-120692053D01*
X121843892Y-120692053D01*
X121849619Y-120699703D01*
X121916308Y-120740570D01*
X121925102Y-120745051D01*
X122136123Y-120832458D01*
X122145508Y-120835507D01*
X122367608Y-120888830D01*
X122377355Y-120890373D01*
X122605065Y-120908294D01*
X122614925Y-120908294D01*
X122842635Y-120890373D01*
X122852382Y-120888830D01*
X123074482Y-120835507D01*
X123083867Y-120832458D01*
X123294888Y-120745051D01*
X123303682Y-120740570D01*
X123366705Y-120701950D01*
X123375659Y-120692053D01*
X124343892Y-120692053D01*
X124349619Y-120699703D01*
X124416308Y-120740570D01*
X124425102Y-120745051D01*
X124636123Y-120832458D01*
X124645508Y-120835507D01*
X124867608Y-120888830D01*
X124877355Y-120890373D01*
X125105065Y-120908294D01*
X125114925Y-120908294D01*
X125342635Y-120890373D01*
X125352382Y-120888830D01*
X125574482Y-120835507D01*
X125583867Y-120832458D01*
X125794888Y-120745051D01*
X125803682Y-120740570D01*
X125866705Y-120701950D01*
X125875659Y-120692053D01*
X126843892Y-120692053D01*
X126849619Y-120699703D01*
X126916308Y-120740570D01*
X126925102Y-120745051D01*
X127136123Y-120832458D01*
X127145508Y-120835507D01*
X127367608Y-120888830D01*
X127377355Y-120890373D01*
X127605065Y-120908294D01*
X127614925Y-120908294D01*
X127842635Y-120890373D01*
X127852382Y-120888830D01*
X128074482Y-120835507D01*
X128083867Y-120832458D01*
X128294888Y-120745051D01*
X128303682Y-120740570D01*
X128366705Y-120701950D01*
X128376165Y-120691494D01*
X128372381Y-120682716D01*
X127622807Y-119933142D01*
X127608863Y-119925528D01*
X127607030Y-119925659D01*
X127600415Y-119929910D01*
X126850652Y-120679673D01*
X126843892Y-120692053D01*
X125875659Y-120692053D01*
X125876165Y-120691494D01*
X125872381Y-120682716D01*
X125122807Y-119933142D01*
X125108863Y-119925528D01*
X125107030Y-119925659D01*
X125100415Y-119929910D01*
X124350652Y-120679673D01*
X124343892Y-120692053D01*
X123375659Y-120692053D01*
X123376165Y-120691494D01*
X123372381Y-120682716D01*
X122622807Y-119933142D01*
X122608863Y-119925528D01*
X122607030Y-119925659D01*
X122600415Y-119929910D01*
X121850652Y-120679673D01*
X121843892Y-120692053D01*
X120875659Y-120692053D01*
X120876165Y-120691494D01*
X120872381Y-120682716D01*
X120122807Y-119933142D01*
X120108863Y-119925528D01*
X120107030Y-119925659D01*
X120100415Y-119929910D01*
X119350652Y-120679673D01*
X119343892Y-120692053D01*
X118375659Y-120692053D01*
X118376165Y-120691494D01*
X118372381Y-120682716D01*
X117622807Y-119933142D01*
X117608863Y-119925528D01*
X117607030Y-119925659D01*
X117600415Y-119929910D01*
X116850652Y-120679673D01*
X116843892Y-120692053D01*
X110000000Y-120692053D01*
X110000000Y-119394930D01*
X116091701Y-119394930D01*
X116109622Y-119622640D01*
X116111165Y-119632387D01*
X116164488Y-119854487D01*
X116167537Y-119863872D01*
X116254944Y-120074893D01*
X116259425Y-120083687D01*
X116298045Y-120146710D01*
X116308501Y-120156170D01*
X116317279Y-120152386D01*
X117066853Y-119402812D01*
X117073231Y-119391132D01*
X118145523Y-119391132D01*
X118145654Y-119392965D01*
X118149905Y-119399580D01*
X118847183Y-120096858D01*
X118861127Y-120104472D01*
X118862960Y-120104341D01*
X118869575Y-120100090D01*
X119566853Y-119402812D01*
X119573231Y-119391132D01*
X120645523Y-119391132D01*
X120645654Y-119392965D01*
X120649905Y-119399580D01*
X121347183Y-120096858D01*
X121361127Y-120104472D01*
X121362960Y-120104341D01*
X121369575Y-120100090D01*
X122066853Y-119402812D01*
X122073231Y-119391132D01*
X123145523Y-119391132D01*
X123145654Y-119392965D01*
X123149905Y-119399580D01*
X123847183Y-120096858D01*
X123861127Y-120104472D01*
X123862960Y-120104341D01*
X123869575Y-120100090D01*
X124566853Y-119402812D01*
X124573231Y-119391132D01*
X125645523Y-119391132D01*
X125645654Y-119392965D01*
X125649905Y-119399580D01*
X126347183Y-120096858D01*
X126361127Y-120104472D01*
X126362960Y-120104341D01*
X126369575Y-120100090D01*
X127066853Y-119402812D01*
X127073231Y-119391132D01*
X128145523Y-119391132D01*
X128145654Y-119392965D01*
X128149905Y-119399580D01*
X128335790Y-119585465D01*
X128368402Y-119641949D01*
X128417219Y-119824136D01*
X128419542Y-119829117D01*
X128419542Y-119829118D01*
X128508401Y-120019678D01*
X128508404Y-120019683D01*
X128510727Y-120024665D01*
X128513883Y-120029172D01*
X128513884Y-120029174D01*
X128602808Y-120156170D01*
X128637636Y-120205910D01*
X128794089Y-120362363D01*
X128798597Y-120365520D01*
X128798600Y-120365522D01*
X128965804Y-120482599D01*
X128975334Y-120489272D01*
X128980316Y-120491595D01*
X128980321Y-120491598D01*
X129170881Y-120580457D01*
X129175863Y-120582780D01*
X129181171Y-120584202D01*
X129181173Y-120584203D01*
X129384267Y-120638622D01*
X129384269Y-120638622D01*
X129389582Y-120640046D01*
X129609999Y-120659330D01*
X129830416Y-120640046D01*
X129835729Y-120638622D01*
X129835731Y-120638622D01*
X130038825Y-120584203D01*
X130038827Y-120584202D01*
X130044135Y-120582780D01*
X130049117Y-120580457D01*
X130239677Y-120491598D01*
X130239682Y-120491595D01*
X130244664Y-120489272D01*
X130254194Y-120482599D01*
X130421398Y-120365522D01*
X130421401Y-120365520D01*
X130425909Y-120362363D01*
X130582362Y-120205910D01*
X130617191Y-120156170D01*
X130706114Y-120029174D01*
X130706115Y-120029172D01*
X130709271Y-120024665D01*
X130711594Y-120019684D01*
X130711600Y-120019673D01*
X130745804Y-119946322D01*
X130792721Y-119893038D01*
X130860998Y-119873577D01*
X130928958Y-119894119D01*
X130974193Y-119946324D01*
X131008396Y-120019674D01*
X131008399Y-120019680D01*
X131010724Y-120024665D01*
X131013880Y-120029172D01*
X131013881Y-120029174D01*
X131102805Y-120156170D01*
X131137633Y-120205910D01*
X131294086Y-120362363D01*
X131298594Y-120365520D01*
X131298597Y-120365522D01*
X131465801Y-120482599D01*
X131475331Y-120489272D01*
X131480313Y-120491595D01*
X131480318Y-120491598D01*
X131670878Y-120580457D01*
X131675860Y-120582780D01*
X131681168Y-120584202D01*
X131681170Y-120584203D01*
X131884264Y-120638622D01*
X131884266Y-120638622D01*
X131889579Y-120640046D01*
X132109996Y-120659330D01*
X132330413Y-120640046D01*
X132335726Y-120638622D01*
X132335728Y-120638622D01*
X132538822Y-120584203D01*
X132538824Y-120584202D01*
X132544132Y-120582780D01*
X132549114Y-120580457D01*
X132739674Y-120491598D01*
X132739679Y-120491595D01*
X132744661Y-120489272D01*
X132754191Y-120482599D01*
X132921395Y-120365522D01*
X132921398Y-120365520D01*
X132925906Y-120362363D01*
X133082359Y-120205910D01*
X133117188Y-120156170D01*
X133206111Y-120029174D01*
X133206112Y-120029172D01*
X133209268Y-120024665D01*
X133211591Y-120019683D01*
X133211594Y-120019678D01*
X133245801Y-119946320D01*
X133292718Y-119893035D01*
X133360996Y-119873574D01*
X133428956Y-119894116D01*
X133474191Y-119946320D01*
X133508398Y-120019678D01*
X133508401Y-120019683D01*
X133510724Y-120024665D01*
X133513880Y-120029172D01*
X133513881Y-120029174D01*
X133602805Y-120156170D01*
X133637633Y-120205910D01*
X133794086Y-120362363D01*
X133798594Y-120365520D01*
X133798597Y-120365522D01*
X133965801Y-120482599D01*
X133975331Y-120489272D01*
X133980313Y-120491595D01*
X133980318Y-120491598D01*
X134170878Y-120580457D01*
X134175860Y-120582780D01*
X134181168Y-120584202D01*
X134181170Y-120584203D01*
X134384264Y-120638622D01*
X134384266Y-120638622D01*
X134389579Y-120640046D01*
X134609996Y-120659330D01*
X134830413Y-120640046D01*
X134835726Y-120638622D01*
X134835728Y-120638622D01*
X135038822Y-120584203D01*
X135038824Y-120584202D01*
X135044132Y-120582780D01*
X135049114Y-120580457D01*
X135239674Y-120491598D01*
X135239679Y-120491595D01*
X135244661Y-120489272D01*
X135254191Y-120482599D01*
X135421395Y-120365522D01*
X135421398Y-120365520D01*
X135425906Y-120362363D01*
X135582359Y-120205910D01*
X135617188Y-120156170D01*
X135706111Y-120029174D01*
X135706112Y-120029172D01*
X135709268Y-120024665D01*
X135711591Y-120019683D01*
X135711594Y-120019678D01*
X135745801Y-119946320D01*
X135792718Y-119893035D01*
X135860996Y-119873574D01*
X135928956Y-119894116D01*
X135974191Y-119946320D01*
X136008398Y-120019678D01*
X136008401Y-120019683D01*
X136010724Y-120024665D01*
X136013880Y-120029172D01*
X136013881Y-120029174D01*
X136102805Y-120156170D01*
X136137633Y-120205910D01*
X136294086Y-120362363D01*
X136298594Y-120365520D01*
X136298597Y-120365522D01*
X136465801Y-120482599D01*
X136475331Y-120489272D01*
X136480313Y-120491595D01*
X136480318Y-120491598D01*
X136670878Y-120580457D01*
X136675860Y-120582780D01*
X136681168Y-120584202D01*
X136681170Y-120584203D01*
X136884264Y-120638622D01*
X136884266Y-120638622D01*
X136889579Y-120640046D01*
X137109996Y-120659330D01*
X137330413Y-120640046D01*
X137335726Y-120638622D01*
X137335728Y-120638622D01*
X137538822Y-120584203D01*
X137538824Y-120584202D01*
X137544132Y-120582780D01*
X137549114Y-120580457D01*
X137739674Y-120491598D01*
X137739679Y-120491595D01*
X137744661Y-120489272D01*
X137754191Y-120482599D01*
X137921395Y-120365522D01*
X137921398Y-120365520D01*
X137925906Y-120362363D01*
X138082359Y-120205910D01*
X138117188Y-120156170D01*
X138206111Y-120029174D01*
X138206112Y-120029172D01*
X138209268Y-120024665D01*
X138211591Y-120019683D01*
X138211594Y-120019678D01*
X138245801Y-119946320D01*
X138292718Y-119893035D01*
X138360996Y-119873574D01*
X138428956Y-119894116D01*
X138474191Y-119946320D01*
X138508398Y-120019678D01*
X138508401Y-120019683D01*
X138510724Y-120024665D01*
X138513880Y-120029172D01*
X138513881Y-120029174D01*
X138602805Y-120156170D01*
X138637633Y-120205910D01*
X138794086Y-120362363D01*
X138798594Y-120365520D01*
X138798597Y-120365522D01*
X138965801Y-120482599D01*
X138975331Y-120489272D01*
X138980313Y-120491595D01*
X138980318Y-120491598D01*
X139170878Y-120580457D01*
X139175860Y-120582780D01*
X139181168Y-120584202D01*
X139181170Y-120584203D01*
X139384264Y-120638622D01*
X139384266Y-120638622D01*
X139389579Y-120640046D01*
X139609996Y-120659330D01*
X139830413Y-120640046D01*
X139835726Y-120638622D01*
X139835728Y-120638622D01*
X140038822Y-120584203D01*
X140038824Y-120584202D01*
X140044132Y-120582780D01*
X140049114Y-120580457D01*
X140239674Y-120491598D01*
X140239679Y-120491595D01*
X140244661Y-120489272D01*
X140254191Y-120482599D01*
X140421395Y-120365522D01*
X140421398Y-120365520D01*
X140425906Y-120362363D01*
X140582359Y-120205910D01*
X140617188Y-120156170D01*
X140706111Y-120029174D01*
X140706112Y-120029172D01*
X140709268Y-120024665D01*
X140711591Y-120019683D01*
X140711594Y-120019678D01*
X140800453Y-119829118D01*
X140800453Y-119829117D01*
X140802776Y-119824136D01*
X140849357Y-119650296D01*
X140858618Y-119615732D01*
X140858618Y-119615730D01*
X140860042Y-119610417D01*
X140877122Y-119415192D01*
X141829496Y-119415192D01*
X141831035Y-119433522D01*
X141845905Y-119610594D01*
X141846817Y-119621460D01*
X141848515Y-119627381D01*
X141848515Y-119627382D01*
X141896475Y-119794635D01*
X141903873Y-119820435D01*
X141998489Y-120004540D01*
X142127063Y-120166760D01*
X142284697Y-120300917D01*
X142465387Y-120401901D01*
X142662250Y-120465865D01*
X142867788Y-120490374D01*
X142873923Y-120489902D01*
X142873925Y-120489902D01*
X142971697Y-120482379D01*
X143041151Y-120497097D01*
X143091623Y-120547027D01*
X143106578Y-120622053D01*
X143099496Y-120685192D01*
X143100903Y-120701950D01*
X143104523Y-120745051D01*
X143116817Y-120891460D01*
X143173873Y-121090435D01*
X143268489Y-121274540D01*
X143397063Y-121436760D01*
X143401756Y-121440754D01*
X143401757Y-121440755D01*
X143428363Y-121463398D01*
X143554697Y-121570917D01*
X143560075Y-121573923D01*
X143560077Y-121573924D01*
X143629183Y-121612546D01*
X143735387Y-121671901D01*
X143932250Y-121735865D01*
X144137788Y-121760374D01*
X144143923Y-121759902D01*
X144143925Y-121759902D01*
X144338030Y-121744967D01*
X144338034Y-121744966D01*
X144344172Y-121744494D01*
X144350105Y-121742838D01*
X144350108Y-121742837D01*
X144537607Y-121690486D01*
X144537606Y-121690486D01*
X144543542Y-121688829D01*
X144728302Y-121595500D01*
X144853322Y-121497824D01*
X144886559Y-121471856D01*
X144891415Y-121468062D01*
X144922604Y-121431929D01*
X145022641Y-121316036D01*
X145022642Y-121316034D01*
X145026670Y-121311368D01*
X145128913Y-121131388D01*
X145194250Y-120934976D01*
X145220193Y-120729614D01*
X145220607Y-120700000D01*
X145214775Y-120640525D01*
X145212888Y-120621274D01*
X145226148Y-120551527D01*
X145275010Y-120500020D01*
X145343963Y-120483107D01*
X145353191Y-120483864D01*
X145407788Y-120490374D01*
X145413923Y-120489902D01*
X145413925Y-120489902D01*
X145511697Y-120482379D01*
X145581151Y-120497097D01*
X145631623Y-120547027D01*
X145646578Y-120622053D01*
X145639496Y-120685192D01*
X145640903Y-120701950D01*
X145644523Y-120745051D01*
X145656817Y-120891460D01*
X145713873Y-121090435D01*
X145808489Y-121274540D01*
X145937063Y-121436760D01*
X145941756Y-121440754D01*
X145941757Y-121440755D01*
X145968363Y-121463398D01*
X146094697Y-121570917D01*
X146100075Y-121573923D01*
X146100077Y-121573924D01*
X146169183Y-121612546D01*
X146275387Y-121671901D01*
X146472250Y-121735865D01*
X146677788Y-121760374D01*
X146683923Y-121759902D01*
X146683925Y-121759902D01*
X146878030Y-121744967D01*
X146878034Y-121744966D01*
X146884172Y-121744494D01*
X146890105Y-121742838D01*
X146890108Y-121742837D01*
X147077607Y-121690486D01*
X147077606Y-121690486D01*
X147083542Y-121688829D01*
X147268302Y-121595500D01*
X147393322Y-121497824D01*
X147426559Y-121471856D01*
X147431415Y-121468062D01*
X147462604Y-121431929D01*
X147562641Y-121316036D01*
X147562642Y-121316034D01*
X147566670Y-121311368D01*
X147668913Y-121131388D01*
X147734250Y-120934976D01*
X147760193Y-120729614D01*
X147760607Y-120700000D01*
X147754775Y-120640525D01*
X147752888Y-120621274D01*
X147766148Y-120551527D01*
X147815010Y-120500020D01*
X147883963Y-120483107D01*
X147893191Y-120483864D01*
X147947788Y-120490374D01*
X147953923Y-120489902D01*
X147953925Y-120489902D01*
X148051697Y-120482379D01*
X148121151Y-120497097D01*
X148171623Y-120547027D01*
X148186578Y-120622053D01*
X148179496Y-120685192D01*
X148180903Y-120701950D01*
X148184523Y-120745051D01*
X148196817Y-120891460D01*
X148253873Y-121090435D01*
X148348489Y-121274540D01*
X148477063Y-121436760D01*
X148481756Y-121440754D01*
X148481757Y-121440755D01*
X148508363Y-121463398D01*
X148634697Y-121570917D01*
X148640075Y-121573923D01*
X148640077Y-121573924D01*
X148709183Y-121612546D01*
X148815387Y-121671901D01*
X149012250Y-121735865D01*
X149217788Y-121760374D01*
X149223923Y-121759902D01*
X149223925Y-121759902D01*
X149418030Y-121744967D01*
X149418034Y-121744966D01*
X149424172Y-121744494D01*
X149430105Y-121742838D01*
X149430108Y-121742837D01*
X149617607Y-121690486D01*
X149617606Y-121690486D01*
X149623542Y-121688829D01*
X149808302Y-121595500D01*
X149933322Y-121497824D01*
X149966559Y-121471856D01*
X149971415Y-121468062D01*
X150002604Y-121431929D01*
X150102641Y-121316036D01*
X150102642Y-121316034D01*
X150106670Y-121311368D01*
X150208913Y-121131388D01*
X150274250Y-120934976D01*
X150300193Y-120729614D01*
X150300607Y-120700000D01*
X150294775Y-120640525D01*
X150292888Y-120621274D01*
X150306148Y-120551527D01*
X150355010Y-120500020D01*
X150423963Y-120483107D01*
X150433191Y-120483864D01*
X150487788Y-120490374D01*
X150493923Y-120489902D01*
X150493925Y-120489902D01*
X150591697Y-120482379D01*
X150661151Y-120497097D01*
X150711623Y-120547027D01*
X150726578Y-120622053D01*
X150719496Y-120685192D01*
X150720903Y-120701950D01*
X150724523Y-120745051D01*
X150736817Y-120891460D01*
X150793873Y-121090435D01*
X150888489Y-121274540D01*
X151017063Y-121436760D01*
X151021756Y-121440754D01*
X151021757Y-121440755D01*
X151048363Y-121463398D01*
X151174697Y-121570917D01*
X151180075Y-121573923D01*
X151180077Y-121573924D01*
X151249183Y-121612546D01*
X151355387Y-121671901D01*
X151552250Y-121735865D01*
X151757788Y-121760374D01*
X151763923Y-121759902D01*
X151763925Y-121759902D01*
X151958030Y-121744967D01*
X151958034Y-121744966D01*
X151964172Y-121744494D01*
X151970105Y-121742838D01*
X151970108Y-121742837D01*
X152157607Y-121690486D01*
X152157606Y-121690486D01*
X152163542Y-121688829D01*
X152348302Y-121595500D01*
X152473322Y-121497824D01*
X152506559Y-121471856D01*
X152511415Y-121468062D01*
X152542604Y-121431929D01*
X152642641Y-121316036D01*
X152642642Y-121316034D01*
X152646670Y-121311368D01*
X152748913Y-121131388D01*
X152814250Y-120934976D01*
X152840193Y-120729614D01*
X152840607Y-120700000D01*
X152834775Y-120640525D01*
X152832888Y-120621274D01*
X152846148Y-120551527D01*
X152895010Y-120500020D01*
X152963963Y-120483107D01*
X152973191Y-120483864D01*
X153027788Y-120490374D01*
X153033923Y-120489902D01*
X153033925Y-120489902D01*
X153131697Y-120482379D01*
X153201151Y-120497097D01*
X153251623Y-120547027D01*
X153266578Y-120622053D01*
X153259496Y-120685192D01*
X153260903Y-120701950D01*
X153264523Y-120745051D01*
X153276817Y-120891460D01*
X153333873Y-121090435D01*
X153428489Y-121274540D01*
X153557063Y-121436760D01*
X153561756Y-121440754D01*
X153561757Y-121440755D01*
X153588363Y-121463398D01*
X153714697Y-121570917D01*
X153720075Y-121573923D01*
X153720077Y-121573924D01*
X153789183Y-121612546D01*
X153895387Y-121671901D01*
X154092250Y-121735865D01*
X154297788Y-121760374D01*
X154303923Y-121759902D01*
X154303925Y-121759902D01*
X154498030Y-121744967D01*
X154498034Y-121744966D01*
X154504172Y-121744494D01*
X154510105Y-121742838D01*
X154510108Y-121742837D01*
X154697607Y-121690486D01*
X154697606Y-121690486D01*
X154703542Y-121688829D01*
X154888302Y-121595500D01*
X155013322Y-121497824D01*
X155046559Y-121471856D01*
X155051415Y-121468062D01*
X155082604Y-121431929D01*
X155182641Y-121316036D01*
X155182642Y-121316034D01*
X155186670Y-121311368D01*
X155288913Y-121131388D01*
X155354250Y-120934976D01*
X155380193Y-120729614D01*
X155380607Y-120700000D01*
X155374775Y-120640525D01*
X155372888Y-120621274D01*
X155386148Y-120551527D01*
X155435010Y-120500020D01*
X155503963Y-120483107D01*
X155513191Y-120483864D01*
X155567788Y-120490374D01*
X155573923Y-120489902D01*
X155573925Y-120489902D01*
X155671697Y-120482379D01*
X155741151Y-120497097D01*
X155791623Y-120547027D01*
X155806578Y-120622053D01*
X155799496Y-120685192D01*
X155800903Y-120701950D01*
X155804523Y-120745051D01*
X155816817Y-120891460D01*
X155873873Y-121090435D01*
X155968489Y-121274540D01*
X156097063Y-121436760D01*
X156101756Y-121440754D01*
X156101757Y-121440755D01*
X156128363Y-121463398D01*
X156254697Y-121570917D01*
X156260075Y-121573923D01*
X156260077Y-121573924D01*
X156329183Y-121612546D01*
X156435387Y-121671901D01*
X156632250Y-121735865D01*
X156837788Y-121760374D01*
X156843923Y-121759902D01*
X156843925Y-121759902D01*
X157038030Y-121744967D01*
X157038034Y-121744966D01*
X157044172Y-121744494D01*
X157050105Y-121742838D01*
X157050108Y-121742837D01*
X157237607Y-121690486D01*
X157237606Y-121690486D01*
X157243542Y-121688829D01*
X157428302Y-121595500D01*
X157553322Y-121497824D01*
X157586559Y-121471856D01*
X157591415Y-121468062D01*
X157622604Y-121431929D01*
X157722641Y-121316036D01*
X157722642Y-121316034D01*
X157726670Y-121311368D01*
X157828913Y-121131388D01*
X157894250Y-120934976D01*
X157920193Y-120729614D01*
X157920607Y-120700000D01*
X157914775Y-120640525D01*
X157912888Y-120621274D01*
X157926148Y-120551527D01*
X157975010Y-120500020D01*
X158043963Y-120483107D01*
X158053191Y-120483864D01*
X158107788Y-120490374D01*
X158113923Y-120489902D01*
X158113924Y-120489902D01*
X158151126Y-120487039D01*
X158208834Y-120482599D01*
X158278288Y-120497316D01*
X158328760Y-120547247D01*
X158344500Y-120608228D01*
X158344501Y-121084515D01*
X158344501Y-121302376D01*
X158344870Y-121305770D01*
X158344870Y-121305776D01*
X158345985Y-121316036D01*
X158351149Y-121363580D01*
X158401474Y-121497824D01*
X158406854Y-121505003D01*
X158406856Y-121505006D01*
X158476761Y-121598278D01*
X158487454Y-121612546D01*
X158494635Y-121617928D01*
X158594994Y-121693144D01*
X158594997Y-121693146D01*
X158602176Y-121698526D01*
X158691561Y-121732034D01*
X158729025Y-121746079D01*
X158729027Y-121746079D01*
X158736420Y-121748851D01*
X158744270Y-121749704D01*
X158744271Y-121749704D01*
X158794217Y-121755130D01*
X158797623Y-121755500D01*
X159399911Y-121755500D01*
X160002376Y-121755499D01*
X160005770Y-121755130D01*
X160005776Y-121755130D01*
X160055722Y-121749705D01*
X160055726Y-121749704D01*
X160063580Y-121748851D01*
X160197824Y-121698526D01*
X160205003Y-121693146D01*
X160205006Y-121693144D01*
X160305365Y-121617928D01*
X160312546Y-121612546D01*
X160323239Y-121598278D01*
X160393144Y-121505006D01*
X160393146Y-121505003D01*
X160398526Y-121497824D01*
X160448851Y-121363580D01*
X160455500Y-121302377D01*
X160455499Y-120097624D01*
X160448851Y-120036420D01*
X160398526Y-119902176D01*
X160393146Y-119894997D01*
X160393144Y-119894994D01*
X160317928Y-119794635D01*
X160312546Y-119787454D01*
X160305365Y-119782072D01*
X160205006Y-119706856D01*
X160205003Y-119706854D01*
X160197824Y-119701474D01*
X160100464Y-119664976D01*
X160070975Y-119653921D01*
X160070973Y-119653921D01*
X160063580Y-119651149D01*
X160055730Y-119650296D01*
X160055729Y-119650296D01*
X160005774Y-119644869D01*
X160005773Y-119644869D01*
X160002377Y-119644500D01*
X159982867Y-119644500D01*
X159309755Y-119644501D01*
X159241635Y-119624499D01*
X159195142Y-119570843D01*
X159184749Y-119502709D01*
X159189753Y-119463094D01*
X159190193Y-119459614D01*
X159190607Y-119430000D01*
X159182888Y-119351274D01*
X159196148Y-119281527D01*
X159245010Y-119230020D01*
X159313963Y-119213107D01*
X159323191Y-119213864D01*
X159377788Y-119220374D01*
X159383923Y-119219902D01*
X159383925Y-119219902D01*
X159578030Y-119204967D01*
X159578034Y-119204966D01*
X159584172Y-119204494D01*
X159590105Y-119202838D01*
X159590108Y-119202837D01*
X159777607Y-119150486D01*
X159777606Y-119150486D01*
X159783542Y-119148829D01*
X159968302Y-119055500D01*
X160016235Y-119018051D01*
X160126559Y-118931856D01*
X160131415Y-118928062D01*
X160167824Y-118885882D01*
X160262641Y-118776036D01*
X160262642Y-118776034D01*
X160266670Y-118771368D01*
X160278340Y-118750826D01*
X160365865Y-118596753D01*
X160368913Y-118591388D01*
X160434250Y-118394976D01*
X160460193Y-118189614D01*
X160460607Y-118160000D01*
X160440408Y-117953994D01*
X160380580Y-117755834D01*
X160311950Y-117626760D01*
X160286296Y-117578511D01*
X160286294Y-117578508D01*
X160283402Y-117573069D01*
X160279511Y-117568299D01*
X160279509Y-117568295D01*
X160156471Y-117417435D01*
X160156468Y-117417432D01*
X160152576Y-117412660D01*
X160128857Y-117393038D01*
X159997834Y-117284646D01*
X159997831Y-117284644D01*
X159993084Y-117280717D01*
X159811002Y-117182265D01*
X159712134Y-117151661D01*
X159619152Y-117122878D01*
X159619149Y-117122877D01*
X159613265Y-117121056D01*
X159607140Y-117120412D01*
X159607139Y-117120412D01*
X159413532Y-117100063D01*
X159413531Y-117100063D01*
X159407404Y-117099419D01*
X159320753Y-117107305D01*
X159251102Y-117093560D01*
X159199937Y-117044339D01*
X159183506Y-116975270D01*
X159184329Y-116966032D01*
X159189750Y-116923118D01*
X159190193Y-116919614D01*
X159190473Y-116899580D01*
X159190558Y-116893522D01*
X159190558Y-116893518D01*
X159190607Y-116890000D01*
X159170408Y-116683994D01*
X159110580Y-116485834D01*
X159057435Y-116385882D01*
X159016296Y-116308511D01*
X159016294Y-116308508D01*
X159013402Y-116303069D01*
X159009511Y-116298299D01*
X159009509Y-116298295D01*
X158886471Y-116147435D01*
X158886468Y-116147432D01*
X158882576Y-116142660D01*
X158875667Y-116136944D01*
X158727834Y-116014646D01*
X158727831Y-116014644D01*
X158723084Y-116010717D01*
X158541002Y-115912265D01*
X158442134Y-115881661D01*
X158349152Y-115852878D01*
X158349149Y-115852877D01*
X158343265Y-115851056D01*
X158337140Y-115850412D01*
X158337139Y-115850412D01*
X158143532Y-115830063D01*
X158143531Y-115830063D01*
X158137404Y-115829419D01*
X158050465Y-115837331D01*
X157937401Y-115847620D01*
X157937398Y-115847621D01*
X157931262Y-115848179D01*
X157732690Y-115906622D01*
X157711620Y-115917637D01*
X157554711Y-115999667D01*
X157554707Y-115999670D01*
X157549251Y-116002522D01*
X157387932Y-116132225D01*
X157254879Y-116290792D01*
X157251915Y-116296184D01*
X157251912Y-116296188D01*
X157169672Y-116445783D01*
X157155159Y-116472182D01*
X157153298Y-116478049D01*
X157153297Y-116478051D01*
X157150828Y-116485834D01*
X157092570Y-116669487D01*
X157069496Y-116875192D01*
X157070012Y-116881336D01*
X157070012Y-116881337D01*
X157077547Y-116971072D01*
X157063315Y-117040627D01*
X157013738Y-117091447D01*
X156938818Y-117106925D01*
X156873532Y-117100063D01*
X156873531Y-117100063D01*
X156867404Y-117099419D01*
X156780753Y-117107305D01*
X156711102Y-117093560D01*
X156659937Y-117044339D01*
X156643506Y-116975270D01*
X156644329Y-116966032D01*
X156649750Y-116923118D01*
X156650193Y-116919614D01*
X156650473Y-116899580D01*
X156650558Y-116893522D01*
X156650558Y-116893518D01*
X156650607Y-116890000D01*
X156630408Y-116683994D01*
X156570580Y-116485834D01*
X156517435Y-116385882D01*
X156476296Y-116308511D01*
X156476294Y-116308508D01*
X156473402Y-116303069D01*
X156469511Y-116298299D01*
X156469509Y-116298295D01*
X156346471Y-116147435D01*
X156346468Y-116147432D01*
X156342576Y-116142660D01*
X156335667Y-116136944D01*
X156187834Y-116014646D01*
X156187831Y-116014644D01*
X156183084Y-116010717D01*
X156001002Y-115912265D01*
X155902134Y-115881661D01*
X155809152Y-115852878D01*
X155809149Y-115852877D01*
X155803265Y-115851056D01*
X155797140Y-115850412D01*
X155797139Y-115850412D01*
X155603532Y-115830063D01*
X155603531Y-115830063D01*
X155597404Y-115829419D01*
X155510465Y-115837331D01*
X155397401Y-115847620D01*
X155397398Y-115847621D01*
X155391262Y-115848179D01*
X155192690Y-115906622D01*
X155171620Y-115917637D01*
X155014711Y-115999667D01*
X155014707Y-115999670D01*
X155009251Y-116002522D01*
X154847932Y-116132225D01*
X154714879Y-116290792D01*
X154711915Y-116296184D01*
X154711912Y-116296188D01*
X154629672Y-116445783D01*
X154615159Y-116472182D01*
X154613298Y-116478049D01*
X154613297Y-116478051D01*
X154610828Y-116485834D01*
X154552570Y-116669487D01*
X154529496Y-116875192D01*
X154530012Y-116881336D01*
X154530012Y-116881337D01*
X154537547Y-116971072D01*
X154523315Y-117040627D01*
X154473738Y-117091447D01*
X154398818Y-117106925D01*
X154333532Y-117100063D01*
X154333531Y-117100063D01*
X154327404Y-117099419D01*
X154240753Y-117107305D01*
X154171102Y-117093560D01*
X154119937Y-117044339D01*
X154103506Y-116975270D01*
X154104329Y-116966032D01*
X154109750Y-116923118D01*
X154110193Y-116919614D01*
X154110473Y-116899580D01*
X154110558Y-116893522D01*
X154110558Y-116893518D01*
X154110607Y-116890000D01*
X154090408Y-116683994D01*
X154030580Y-116485834D01*
X153977435Y-116385882D01*
X153936296Y-116308511D01*
X153936294Y-116308508D01*
X153933402Y-116303069D01*
X153929511Y-116298299D01*
X153929509Y-116298295D01*
X153806471Y-116147435D01*
X153806468Y-116147432D01*
X153802576Y-116142660D01*
X153795667Y-116136944D01*
X153647834Y-116014646D01*
X153647831Y-116014644D01*
X153643084Y-116010717D01*
X153461002Y-115912265D01*
X153362134Y-115881661D01*
X153269152Y-115852878D01*
X153269149Y-115852877D01*
X153263265Y-115851056D01*
X153257140Y-115850412D01*
X153257139Y-115850412D01*
X153063532Y-115830063D01*
X153063531Y-115830063D01*
X153057404Y-115829419D01*
X152970465Y-115837331D01*
X152857401Y-115847620D01*
X152857398Y-115847621D01*
X152851262Y-115848179D01*
X152652690Y-115906622D01*
X152631620Y-115917637D01*
X152474711Y-115999667D01*
X152474707Y-115999670D01*
X152469251Y-116002522D01*
X152307932Y-116132225D01*
X152174879Y-116290792D01*
X152171915Y-116296184D01*
X152171912Y-116296188D01*
X152089672Y-116445783D01*
X152075159Y-116472182D01*
X152073298Y-116478049D01*
X152073297Y-116478051D01*
X152070828Y-116485834D01*
X152012570Y-116669487D01*
X151989496Y-116875192D01*
X151990012Y-116881336D01*
X151990012Y-116881337D01*
X151997547Y-116971072D01*
X151983315Y-117040627D01*
X151933738Y-117091447D01*
X151858818Y-117106925D01*
X151793532Y-117100063D01*
X151793531Y-117100063D01*
X151787404Y-117099419D01*
X151700753Y-117107305D01*
X151631102Y-117093560D01*
X151579937Y-117044339D01*
X151563506Y-116975270D01*
X151564329Y-116966032D01*
X151569750Y-116923118D01*
X151570193Y-116919614D01*
X151570473Y-116899580D01*
X151570558Y-116893522D01*
X151570558Y-116893518D01*
X151570607Y-116890000D01*
X151550408Y-116683994D01*
X151490580Y-116485834D01*
X151437435Y-116385882D01*
X151396296Y-116308511D01*
X151396294Y-116308508D01*
X151393402Y-116303069D01*
X151389511Y-116298299D01*
X151389509Y-116298295D01*
X151266471Y-116147435D01*
X151266468Y-116147432D01*
X151262576Y-116142660D01*
X151255667Y-116136944D01*
X151107834Y-116014646D01*
X151107831Y-116014644D01*
X151103084Y-116010717D01*
X150921002Y-115912265D01*
X150822134Y-115881661D01*
X150729152Y-115852878D01*
X150729149Y-115852877D01*
X150723265Y-115851056D01*
X150717140Y-115850412D01*
X150717139Y-115850412D01*
X150523532Y-115830063D01*
X150523531Y-115830063D01*
X150517404Y-115829419D01*
X150430465Y-115837331D01*
X150317401Y-115847620D01*
X150317398Y-115847621D01*
X150311262Y-115848179D01*
X150112690Y-115906622D01*
X150091620Y-115917637D01*
X149934711Y-115999667D01*
X149934707Y-115999670D01*
X149929251Y-116002522D01*
X149767932Y-116132225D01*
X149634879Y-116290792D01*
X149631915Y-116296184D01*
X149631912Y-116296188D01*
X149549672Y-116445783D01*
X149535159Y-116472182D01*
X149533298Y-116478049D01*
X149533297Y-116478051D01*
X149530828Y-116485834D01*
X149472570Y-116669487D01*
X149449496Y-116875192D01*
X149450012Y-116881336D01*
X149450012Y-116881337D01*
X149457547Y-116971072D01*
X149443315Y-117040627D01*
X149393738Y-117091447D01*
X149318818Y-117106925D01*
X149253532Y-117100063D01*
X149253531Y-117100063D01*
X149247404Y-117099419D01*
X149160753Y-117107305D01*
X149091102Y-117093560D01*
X149039937Y-117044339D01*
X149023506Y-116975270D01*
X149024329Y-116966032D01*
X149029750Y-116923118D01*
X149030193Y-116919614D01*
X149030473Y-116899580D01*
X149030558Y-116893522D01*
X149030558Y-116893518D01*
X149030607Y-116890000D01*
X149010408Y-116683994D01*
X148950580Y-116485834D01*
X148897435Y-116385882D01*
X148856296Y-116308511D01*
X148856294Y-116308508D01*
X148853402Y-116303069D01*
X148849511Y-116298299D01*
X148849509Y-116298295D01*
X148726471Y-116147435D01*
X148726468Y-116147432D01*
X148722576Y-116142660D01*
X148715667Y-116136944D01*
X148567834Y-116014646D01*
X148567831Y-116014644D01*
X148563084Y-116010717D01*
X148381002Y-115912265D01*
X148282134Y-115881661D01*
X148189152Y-115852878D01*
X148189149Y-115852877D01*
X148183265Y-115851056D01*
X148177140Y-115850412D01*
X148177139Y-115850412D01*
X147983532Y-115830063D01*
X147983531Y-115830063D01*
X147977404Y-115829419D01*
X147890465Y-115837331D01*
X147777401Y-115847620D01*
X147777398Y-115847621D01*
X147771262Y-115848179D01*
X147572690Y-115906622D01*
X147551620Y-115917637D01*
X147394711Y-115999667D01*
X147394707Y-115999670D01*
X147389251Y-116002522D01*
X147227932Y-116132225D01*
X147094879Y-116290792D01*
X147091915Y-116296184D01*
X147091912Y-116296188D01*
X147009672Y-116445783D01*
X146995159Y-116472182D01*
X146993298Y-116478049D01*
X146993297Y-116478051D01*
X146990828Y-116485834D01*
X146932570Y-116669487D01*
X146909496Y-116875192D01*
X146910012Y-116881336D01*
X146910012Y-116881337D01*
X146917547Y-116971072D01*
X146903315Y-117040627D01*
X146853738Y-117091447D01*
X146778818Y-117106925D01*
X146713532Y-117100063D01*
X146713531Y-117100063D01*
X146707404Y-117099419D01*
X146620753Y-117107305D01*
X146551102Y-117093560D01*
X146499937Y-117044339D01*
X146483506Y-116975270D01*
X146484329Y-116966032D01*
X146489750Y-116923118D01*
X146490193Y-116919614D01*
X146490473Y-116899580D01*
X146490558Y-116893522D01*
X146490558Y-116893518D01*
X146490607Y-116890000D01*
X146470408Y-116683994D01*
X146410580Y-116485834D01*
X146357435Y-116385882D01*
X146316296Y-116308511D01*
X146316294Y-116308508D01*
X146313402Y-116303069D01*
X146309511Y-116298299D01*
X146309509Y-116298295D01*
X146186471Y-116147435D01*
X146186468Y-116147432D01*
X146182576Y-116142660D01*
X146175667Y-116136944D01*
X146027834Y-116014646D01*
X146027831Y-116014644D01*
X146023084Y-116010717D01*
X145841002Y-115912265D01*
X145742134Y-115881661D01*
X145649152Y-115852878D01*
X145649149Y-115852877D01*
X145643265Y-115851056D01*
X145637140Y-115850412D01*
X145637139Y-115850412D01*
X145443532Y-115830063D01*
X145443531Y-115830063D01*
X145437404Y-115829419D01*
X145350465Y-115837331D01*
X145237401Y-115847620D01*
X145237398Y-115847621D01*
X145231262Y-115848179D01*
X145032690Y-115906622D01*
X145011620Y-115917637D01*
X144854711Y-115999667D01*
X144854707Y-115999670D01*
X144849251Y-116002522D01*
X144687932Y-116132225D01*
X144554879Y-116290792D01*
X144551915Y-116296184D01*
X144551912Y-116296188D01*
X144469672Y-116445783D01*
X144455159Y-116472182D01*
X144453298Y-116478049D01*
X144453297Y-116478051D01*
X144450828Y-116485834D01*
X144392570Y-116669487D01*
X144369496Y-116875192D01*
X144370012Y-116881336D01*
X144370012Y-116881337D01*
X144377547Y-116971072D01*
X144363315Y-117040627D01*
X144313738Y-117091447D01*
X144238818Y-117106925D01*
X144173532Y-117100063D01*
X144173531Y-117100063D01*
X144167404Y-117099419D01*
X144080753Y-117107305D01*
X144011102Y-117093560D01*
X143959937Y-117044339D01*
X143943506Y-116975270D01*
X143944329Y-116966032D01*
X143949750Y-116923118D01*
X143950193Y-116919614D01*
X143950473Y-116899580D01*
X143950558Y-116893522D01*
X143950558Y-116893518D01*
X143950607Y-116890000D01*
X143930408Y-116683994D01*
X143870580Y-116485834D01*
X143817435Y-116385882D01*
X143776296Y-116308511D01*
X143776294Y-116308508D01*
X143773402Y-116303069D01*
X143769511Y-116298299D01*
X143769509Y-116298295D01*
X143646471Y-116147435D01*
X143646468Y-116147432D01*
X143642576Y-116142660D01*
X143635667Y-116136944D01*
X143487834Y-116014646D01*
X143487831Y-116014644D01*
X143483084Y-116010717D01*
X143301002Y-115912265D01*
X143202134Y-115881661D01*
X143109152Y-115852878D01*
X143109149Y-115852877D01*
X143103265Y-115851056D01*
X143097140Y-115850412D01*
X143097139Y-115850412D01*
X142903532Y-115830063D01*
X142903531Y-115830063D01*
X142897404Y-115829419D01*
X142810465Y-115837331D01*
X142697401Y-115847620D01*
X142697398Y-115847621D01*
X142691262Y-115848179D01*
X142492690Y-115906622D01*
X142471620Y-115917637D01*
X142314711Y-115999667D01*
X142314707Y-115999670D01*
X142309251Y-116002522D01*
X142147932Y-116132225D01*
X142014879Y-116290792D01*
X142011915Y-116296184D01*
X142011912Y-116296188D01*
X141929672Y-116445783D01*
X141915159Y-116472182D01*
X141913298Y-116478049D01*
X141913297Y-116478051D01*
X141910828Y-116485834D01*
X141852570Y-116669487D01*
X141829496Y-116875192D01*
X141830835Y-116891132D01*
X141843700Y-117044339D01*
X141846817Y-117081460D01*
X141848515Y-117087381D01*
X141848515Y-117087382D01*
X141858694Y-117122878D01*
X141903873Y-117280435D01*
X141906688Y-117285912D01*
X141974281Y-117417435D01*
X141998489Y-117464540D01*
X142127063Y-117626760D01*
X142131756Y-117630754D01*
X142131757Y-117630755D01*
X142214764Y-117701399D01*
X142284697Y-117760917D01*
X142465387Y-117861901D01*
X142662250Y-117925865D01*
X142867788Y-117950374D01*
X142873923Y-117949902D01*
X142873925Y-117949902D01*
X142971697Y-117942379D01*
X143041151Y-117957097D01*
X143091623Y-118007027D01*
X143106578Y-118082053D01*
X143101153Y-118130420D01*
X143099496Y-118145192D01*
X143100012Y-118151337D01*
X143107547Y-118241072D01*
X143093315Y-118310627D01*
X143043738Y-118361447D01*
X142968818Y-118376925D01*
X142903532Y-118370063D01*
X142903531Y-118370063D01*
X142897404Y-118369419D01*
X142814925Y-118376925D01*
X142697401Y-118387620D01*
X142697398Y-118387621D01*
X142691262Y-118388179D01*
X142492690Y-118446622D01*
X142487230Y-118449476D01*
X142487231Y-118449476D01*
X142314711Y-118539667D01*
X142314707Y-118539670D01*
X142309251Y-118542522D01*
X142147932Y-118672225D01*
X142014879Y-118830792D01*
X142011915Y-118836184D01*
X142011912Y-118836188D01*
X141948859Y-118950882D01*
X141915159Y-119012182D01*
X141913298Y-119018049D01*
X141913297Y-119018051D01*
X141854432Y-119203617D01*
X141852570Y-119209487D01*
X141829496Y-119415192D01*
X140877122Y-119415192D01*
X140879326Y-119390000D01*
X140860042Y-119169583D01*
X140830218Y-119058278D01*
X140804199Y-118961174D01*
X140804198Y-118961172D01*
X140802776Y-118955864D01*
X140779723Y-118906426D01*
X140711594Y-118760322D01*
X140711591Y-118760317D01*
X140709268Y-118755335D01*
X140674098Y-118705107D01*
X140585518Y-118578601D01*
X140585516Y-118578598D01*
X140582359Y-118574090D01*
X140425906Y-118417637D01*
X140421398Y-118414480D01*
X140421395Y-118414478D01*
X140249170Y-118293885D01*
X140249168Y-118293884D01*
X140244661Y-118290728D01*
X140239679Y-118288405D01*
X140239674Y-118288402D01*
X140166316Y-118254195D01*
X140113031Y-118207278D01*
X140093570Y-118139000D01*
X140114112Y-118071040D01*
X140166316Y-118025805D01*
X140239674Y-117991598D01*
X140239679Y-117991595D01*
X140244661Y-117989272D01*
X140249170Y-117986115D01*
X140421395Y-117865522D01*
X140421398Y-117865520D01*
X140425906Y-117862363D01*
X140582359Y-117705910D01*
X140617188Y-117656170D01*
X140706111Y-117529174D01*
X140706112Y-117529172D01*
X140709268Y-117524665D01*
X140711591Y-117519683D01*
X140711594Y-117519678D01*
X140800453Y-117329118D01*
X140800453Y-117329117D01*
X140802776Y-117324136D01*
X140813358Y-117284646D01*
X140858618Y-117115732D01*
X140858618Y-117115730D01*
X140860042Y-117110417D01*
X140879326Y-116890000D01*
X140860042Y-116669583D01*
X140858618Y-116664268D01*
X140804199Y-116461174D01*
X140804198Y-116461172D01*
X140802776Y-116455864D01*
X140779723Y-116406426D01*
X140711594Y-116260322D01*
X140711591Y-116260317D01*
X140709268Y-116255335D01*
X140674098Y-116205107D01*
X140585518Y-116078601D01*
X140585516Y-116078598D01*
X140582359Y-116074090D01*
X140425906Y-115917637D01*
X140421398Y-115914480D01*
X140421395Y-115914478D01*
X140249170Y-115793885D01*
X140249168Y-115793884D01*
X140244661Y-115790728D01*
X140239679Y-115788405D01*
X140239674Y-115788402D01*
X140049114Y-115699543D01*
X140049113Y-115699543D01*
X140044132Y-115697220D01*
X140038824Y-115695798D01*
X140038822Y-115695797D01*
X139835728Y-115641378D01*
X139835726Y-115641378D01*
X139830413Y-115639954D01*
X139609996Y-115620670D01*
X139389579Y-115639954D01*
X139384266Y-115641378D01*
X139384264Y-115641378D01*
X139181170Y-115695797D01*
X139181168Y-115695798D01*
X139175860Y-115697220D01*
X139170879Y-115699543D01*
X139170878Y-115699543D01*
X138980318Y-115788402D01*
X138980313Y-115788405D01*
X138975331Y-115790728D01*
X138970824Y-115793884D01*
X138970822Y-115793885D01*
X138798597Y-115914478D01*
X138798594Y-115914480D01*
X138794086Y-115917637D01*
X138637633Y-116074090D01*
X138634476Y-116078598D01*
X138634474Y-116078601D01*
X138545894Y-116205107D01*
X138510724Y-116255335D01*
X138508401Y-116260317D01*
X138508398Y-116260322D01*
X138474191Y-116333680D01*
X138427274Y-116386965D01*
X138358996Y-116406426D01*
X138291036Y-116385884D01*
X138245801Y-116333680D01*
X138211594Y-116260322D01*
X138211591Y-116260317D01*
X138209268Y-116255335D01*
X138174098Y-116205107D01*
X138085518Y-116078601D01*
X138085516Y-116078598D01*
X138082359Y-116074090D01*
X137925906Y-115917637D01*
X137921398Y-115914480D01*
X137921395Y-115914478D01*
X137749170Y-115793885D01*
X137749168Y-115793884D01*
X137744661Y-115790728D01*
X137739679Y-115788405D01*
X137739674Y-115788402D01*
X137549114Y-115699543D01*
X137549113Y-115699543D01*
X137544132Y-115697220D01*
X137538824Y-115695798D01*
X137538822Y-115695797D01*
X137335728Y-115641378D01*
X137335726Y-115641378D01*
X137330413Y-115639954D01*
X137109996Y-115620670D01*
X136889579Y-115639954D01*
X136884266Y-115641378D01*
X136884264Y-115641378D01*
X136681170Y-115695797D01*
X136681168Y-115695798D01*
X136675860Y-115697220D01*
X136670879Y-115699543D01*
X136670878Y-115699543D01*
X136480318Y-115788402D01*
X136480313Y-115788405D01*
X136475331Y-115790728D01*
X136470824Y-115793884D01*
X136470822Y-115793885D01*
X136298597Y-115914478D01*
X136298594Y-115914480D01*
X136294086Y-115917637D01*
X136137633Y-116074090D01*
X136134476Y-116078598D01*
X136134474Y-116078601D01*
X136045894Y-116205107D01*
X136010724Y-116255335D01*
X136008401Y-116260317D01*
X136008398Y-116260322D01*
X135974191Y-116333680D01*
X135927274Y-116386965D01*
X135858996Y-116406426D01*
X135791036Y-116385884D01*
X135745801Y-116333680D01*
X135711594Y-116260322D01*
X135711591Y-116260317D01*
X135709268Y-116255335D01*
X135674098Y-116205107D01*
X135585518Y-116078601D01*
X135585516Y-116078598D01*
X135582359Y-116074090D01*
X135425906Y-115917637D01*
X135421398Y-115914480D01*
X135421395Y-115914478D01*
X135249170Y-115793885D01*
X135249168Y-115793884D01*
X135244661Y-115790728D01*
X135239679Y-115788405D01*
X135239674Y-115788402D01*
X135049114Y-115699543D01*
X135049113Y-115699543D01*
X135044132Y-115697220D01*
X135038824Y-115695798D01*
X135038822Y-115695797D01*
X134835728Y-115641378D01*
X134835726Y-115641378D01*
X134830413Y-115639954D01*
X134609996Y-115620670D01*
X134389579Y-115639954D01*
X134384266Y-115641378D01*
X134384264Y-115641378D01*
X134181170Y-115695797D01*
X134181168Y-115695798D01*
X134175860Y-115697220D01*
X134170879Y-115699543D01*
X134170878Y-115699543D01*
X133980318Y-115788402D01*
X133980313Y-115788405D01*
X133975331Y-115790728D01*
X133970824Y-115793884D01*
X133970822Y-115793885D01*
X133798597Y-115914478D01*
X133798594Y-115914480D01*
X133794086Y-115917637D01*
X133637633Y-116074090D01*
X133634476Y-116078598D01*
X133634474Y-116078601D01*
X133545894Y-116205107D01*
X133510724Y-116255335D01*
X133508401Y-116260317D01*
X133508398Y-116260322D01*
X133474191Y-116333680D01*
X133427274Y-116386965D01*
X133358996Y-116406426D01*
X133291036Y-116385884D01*
X133245801Y-116333680D01*
X133211594Y-116260322D01*
X133211591Y-116260317D01*
X133209268Y-116255335D01*
X133174098Y-116205107D01*
X133085518Y-116078601D01*
X133085516Y-116078598D01*
X133082359Y-116074090D01*
X132925906Y-115917637D01*
X132921398Y-115914480D01*
X132921395Y-115914478D01*
X132749170Y-115793885D01*
X132749168Y-115793884D01*
X132744661Y-115790728D01*
X132739679Y-115788405D01*
X132739674Y-115788402D01*
X132549114Y-115699543D01*
X132549113Y-115699543D01*
X132544132Y-115697220D01*
X132538824Y-115695798D01*
X132538822Y-115695797D01*
X132335728Y-115641378D01*
X132335726Y-115641378D01*
X132330413Y-115639954D01*
X132109996Y-115620670D01*
X131889579Y-115639954D01*
X131884266Y-115641378D01*
X131884264Y-115641378D01*
X131681170Y-115695797D01*
X131681168Y-115695798D01*
X131675860Y-115697220D01*
X131670879Y-115699543D01*
X131670878Y-115699543D01*
X131480318Y-115788402D01*
X131480313Y-115788405D01*
X131475331Y-115790728D01*
X131470824Y-115793884D01*
X131470822Y-115793885D01*
X131298597Y-115914478D01*
X131298594Y-115914480D01*
X131294086Y-115917637D01*
X131137633Y-116074090D01*
X131134476Y-116078598D01*
X131134474Y-116078601D01*
X131045894Y-116205107D01*
X131010724Y-116255335D01*
X131008399Y-116260320D01*
X131008396Y-116260326D01*
X130974193Y-116333676D01*
X130927276Y-116386962D01*
X130858999Y-116406423D01*
X130791039Y-116385882D01*
X130745804Y-116333678D01*
X130711600Y-116260327D01*
X130711594Y-116260316D01*
X130709271Y-116255335D01*
X130674101Y-116205107D01*
X130585521Y-116078601D01*
X130585519Y-116078598D01*
X130582362Y-116074090D01*
X130425909Y-115917637D01*
X130421401Y-115914480D01*
X130421398Y-115914478D01*
X130249173Y-115793885D01*
X130249171Y-115793884D01*
X130244664Y-115790728D01*
X130239682Y-115788405D01*
X130239677Y-115788402D01*
X130049117Y-115699543D01*
X130049116Y-115699543D01*
X130044135Y-115697220D01*
X130038827Y-115695798D01*
X130038825Y-115695797D01*
X129835731Y-115641378D01*
X129835729Y-115641378D01*
X129830416Y-115639954D01*
X129609999Y-115620670D01*
X129389582Y-115639954D01*
X129384269Y-115641378D01*
X129384267Y-115641378D01*
X129181173Y-115695797D01*
X129181171Y-115695798D01*
X129175863Y-115697220D01*
X129170882Y-115699543D01*
X129170881Y-115699543D01*
X128980321Y-115788402D01*
X128980316Y-115788405D01*
X128975334Y-115790728D01*
X128970827Y-115793884D01*
X128970825Y-115793885D01*
X128798600Y-115914478D01*
X128798597Y-115914480D01*
X128794089Y-115917637D01*
X128637636Y-116074090D01*
X128634479Y-116078598D01*
X128634477Y-116078601D01*
X128545897Y-116205107D01*
X128510727Y-116255335D01*
X128508404Y-116260317D01*
X128508401Y-116260322D01*
X128440272Y-116406426D01*
X128417219Y-116455864D01*
X128415797Y-116461172D01*
X128415796Y-116461174D01*
X128368402Y-116638051D01*
X128335790Y-116694535D01*
X128153137Y-116877188D01*
X128145523Y-116891132D01*
X128145654Y-116892965D01*
X128149905Y-116899580D01*
X128335790Y-117085465D01*
X128368402Y-117141949D01*
X128404800Y-117277786D01*
X128417219Y-117324136D01*
X128419542Y-117329117D01*
X128419542Y-117329118D01*
X128508401Y-117519678D01*
X128508404Y-117519683D01*
X128510727Y-117524665D01*
X128513883Y-117529172D01*
X128513884Y-117529174D01*
X128602808Y-117656170D01*
X128637636Y-117705910D01*
X128794089Y-117862363D01*
X128798597Y-117865520D01*
X128798600Y-117865522D01*
X128970825Y-117986115D01*
X128975334Y-117989272D01*
X128980316Y-117991595D01*
X128980321Y-117991598D01*
X129053679Y-118025805D01*
X129106964Y-118072722D01*
X129126425Y-118141000D01*
X129105883Y-118208960D01*
X129053679Y-118254195D01*
X128980321Y-118288402D01*
X128980316Y-118288405D01*
X128975334Y-118290728D01*
X128970827Y-118293884D01*
X128970825Y-118293885D01*
X128798600Y-118414478D01*
X128798597Y-118414480D01*
X128794089Y-118417637D01*
X128637636Y-118574090D01*
X128634479Y-118578598D01*
X128634477Y-118578601D01*
X128545897Y-118705107D01*
X128510727Y-118755335D01*
X128508404Y-118760317D01*
X128508401Y-118760322D01*
X128440272Y-118906426D01*
X128417219Y-118955864D01*
X128415797Y-118961172D01*
X128415796Y-118961174D01*
X128368402Y-119138051D01*
X128335790Y-119194535D01*
X128153137Y-119377188D01*
X128145523Y-119391132D01*
X127073231Y-119391132D01*
X127074467Y-119388868D01*
X127074336Y-119387035D01*
X127070085Y-119380420D01*
X126372807Y-118683142D01*
X126358863Y-118675528D01*
X126357030Y-118675659D01*
X126350415Y-118679910D01*
X125653137Y-119377188D01*
X125645523Y-119391132D01*
X124573231Y-119391132D01*
X124574467Y-119388868D01*
X124574336Y-119387035D01*
X124570085Y-119380420D01*
X123872807Y-118683142D01*
X123858863Y-118675528D01*
X123857030Y-118675659D01*
X123850415Y-118679910D01*
X123153137Y-119377188D01*
X123145523Y-119391132D01*
X122073231Y-119391132D01*
X122074467Y-119388868D01*
X122074336Y-119387035D01*
X122070085Y-119380420D01*
X121372807Y-118683142D01*
X121358863Y-118675528D01*
X121357030Y-118675659D01*
X121350415Y-118679910D01*
X120653137Y-119377188D01*
X120645523Y-119391132D01*
X119573231Y-119391132D01*
X119574467Y-119388868D01*
X119574336Y-119387035D01*
X119570085Y-119380420D01*
X118872807Y-118683142D01*
X118858863Y-118675528D01*
X118857030Y-118675659D01*
X118850415Y-118679910D01*
X118153137Y-119377188D01*
X118145523Y-119391132D01*
X117073231Y-119391132D01*
X117074467Y-119388868D01*
X117074336Y-119387035D01*
X117070085Y-119380420D01*
X116320322Y-118630657D01*
X116307942Y-118623897D01*
X116300292Y-118629624D01*
X116259425Y-118696313D01*
X116254944Y-118705107D01*
X116167537Y-118916128D01*
X116164488Y-118925513D01*
X116111165Y-119147613D01*
X116109622Y-119157360D01*
X116091701Y-119385070D01*
X116091701Y-119394930D01*
X110000000Y-119394930D01*
X110000000Y-118141132D01*
X116895523Y-118141132D01*
X116895654Y-118142965D01*
X116899905Y-118149580D01*
X117597183Y-118846858D01*
X117611127Y-118854472D01*
X117612960Y-118854341D01*
X117619575Y-118850090D01*
X118316853Y-118152812D01*
X118323231Y-118141132D01*
X119395523Y-118141132D01*
X119395654Y-118142965D01*
X119399905Y-118149580D01*
X120097183Y-118846858D01*
X120111127Y-118854472D01*
X120112960Y-118854341D01*
X120119575Y-118850090D01*
X120816853Y-118152812D01*
X120823231Y-118141132D01*
X121895523Y-118141132D01*
X121895654Y-118142965D01*
X121899905Y-118149580D01*
X122597183Y-118846858D01*
X122611127Y-118854472D01*
X122612960Y-118854341D01*
X122619575Y-118850090D01*
X123316853Y-118152812D01*
X123323231Y-118141132D01*
X124395523Y-118141132D01*
X124395654Y-118142965D01*
X124399905Y-118149580D01*
X125097183Y-118846858D01*
X125111127Y-118854472D01*
X125112960Y-118854341D01*
X125119575Y-118850090D01*
X125816853Y-118152812D01*
X125823231Y-118141132D01*
X126895523Y-118141132D01*
X126895654Y-118142965D01*
X126899905Y-118149580D01*
X127597183Y-118846858D01*
X127611127Y-118854472D01*
X127612960Y-118854341D01*
X127619575Y-118850090D01*
X128316853Y-118152812D01*
X128324467Y-118138868D01*
X128324336Y-118137035D01*
X128320085Y-118130420D01*
X127622807Y-117433142D01*
X127608863Y-117425528D01*
X127607030Y-117425659D01*
X127600415Y-117429910D01*
X126903137Y-118127188D01*
X126895523Y-118141132D01*
X125823231Y-118141132D01*
X125824467Y-118138868D01*
X125824336Y-118137035D01*
X125820085Y-118130420D01*
X125122807Y-117433142D01*
X125108863Y-117425528D01*
X125107030Y-117425659D01*
X125100415Y-117429910D01*
X124403137Y-118127188D01*
X124395523Y-118141132D01*
X123323231Y-118141132D01*
X123324467Y-118138868D01*
X123324336Y-118137035D01*
X123320085Y-118130420D01*
X122622807Y-117433142D01*
X122608863Y-117425528D01*
X122607030Y-117425659D01*
X122600415Y-117429910D01*
X121903137Y-118127188D01*
X121895523Y-118141132D01*
X120823231Y-118141132D01*
X120824467Y-118138868D01*
X120824336Y-118137035D01*
X120820085Y-118130420D01*
X120122807Y-117433142D01*
X120108863Y-117425528D01*
X120107030Y-117425659D01*
X120100415Y-117429910D01*
X119403137Y-118127188D01*
X119395523Y-118141132D01*
X118323231Y-118141132D01*
X118324467Y-118138868D01*
X118324336Y-118137035D01*
X118320085Y-118130420D01*
X117622807Y-117433142D01*
X117608863Y-117425528D01*
X117607030Y-117425659D01*
X117600415Y-117429910D01*
X116903137Y-118127188D01*
X116895523Y-118141132D01*
X110000000Y-118141132D01*
X110000000Y-116894930D01*
X116091701Y-116894930D01*
X116109622Y-117122640D01*
X116111165Y-117132387D01*
X116164488Y-117354487D01*
X116167537Y-117363872D01*
X116254944Y-117574893D01*
X116259425Y-117583687D01*
X116298045Y-117646710D01*
X116308501Y-117656170D01*
X116317279Y-117652386D01*
X117066853Y-116902812D01*
X117073231Y-116891132D01*
X118145523Y-116891132D01*
X118145654Y-116892965D01*
X118149905Y-116899580D01*
X118847183Y-117596858D01*
X118861127Y-117604472D01*
X118862960Y-117604341D01*
X118869575Y-117600090D01*
X119566853Y-116902812D01*
X119573231Y-116891132D01*
X120645523Y-116891132D01*
X120645654Y-116892965D01*
X120649905Y-116899580D01*
X121347183Y-117596858D01*
X121361127Y-117604472D01*
X121362960Y-117604341D01*
X121369575Y-117600090D01*
X122066853Y-116902812D01*
X122073231Y-116891132D01*
X123145523Y-116891132D01*
X123145654Y-116892965D01*
X123149905Y-116899580D01*
X123847183Y-117596858D01*
X123861127Y-117604472D01*
X123862960Y-117604341D01*
X123869575Y-117600090D01*
X124566853Y-116902812D01*
X124573231Y-116891132D01*
X125645523Y-116891132D01*
X125645654Y-116892965D01*
X125649905Y-116899580D01*
X126347183Y-117596858D01*
X126361127Y-117604472D01*
X126362960Y-117604341D01*
X126369575Y-117600090D01*
X127066853Y-116902812D01*
X127074467Y-116888868D01*
X127074336Y-116887035D01*
X127070085Y-116880420D01*
X126372807Y-116183142D01*
X126358863Y-116175528D01*
X126357030Y-116175659D01*
X126350415Y-116179910D01*
X125653137Y-116877188D01*
X125645523Y-116891132D01*
X124573231Y-116891132D01*
X124574467Y-116888868D01*
X124574336Y-116887035D01*
X124570085Y-116880420D01*
X123872807Y-116183142D01*
X123858863Y-116175528D01*
X123857030Y-116175659D01*
X123850415Y-116179910D01*
X123153137Y-116877188D01*
X123145523Y-116891132D01*
X122073231Y-116891132D01*
X122074467Y-116888868D01*
X122074336Y-116887035D01*
X122070085Y-116880420D01*
X121372807Y-116183142D01*
X121358863Y-116175528D01*
X121357030Y-116175659D01*
X121350415Y-116179910D01*
X120653137Y-116877188D01*
X120645523Y-116891132D01*
X119573231Y-116891132D01*
X119574467Y-116888868D01*
X119574336Y-116887035D01*
X119570085Y-116880420D01*
X118872807Y-116183142D01*
X118858863Y-116175528D01*
X118857030Y-116175659D01*
X118850415Y-116179910D01*
X118153137Y-116877188D01*
X118145523Y-116891132D01*
X117073231Y-116891132D01*
X117074467Y-116888868D01*
X117074336Y-116887035D01*
X117070085Y-116880420D01*
X116320322Y-116130657D01*
X116307942Y-116123897D01*
X116300292Y-116129624D01*
X116259425Y-116196313D01*
X116254944Y-116205107D01*
X116167537Y-116416128D01*
X116164488Y-116425513D01*
X116111165Y-116647613D01*
X116109622Y-116657360D01*
X116091701Y-116885070D01*
X116091701Y-116894930D01*
X110000000Y-116894930D01*
X110000000Y-115588506D01*
X116843825Y-115588506D01*
X116847609Y-115597284D01*
X117597183Y-116346858D01*
X117611127Y-116354472D01*
X117612960Y-116354341D01*
X117619575Y-116350090D01*
X118369338Y-115600327D01*
X118375793Y-115588506D01*
X119343825Y-115588506D01*
X119347609Y-115597284D01*
X120097183Y-116346858D01*
X120111127Y-116354472D01*
X120112960Y-116354341D01*
X120119575Y-116350090D01*
X120869338Y-115600327D01*
X120875793Y-115588506D01*
X121843825Y-115588506D01*
X121847609Y-115597284D01*
X122597183Y-116346858D01*
X122611127Y-116354472D01*
X122612960Y-116354341D01*
X122619575Y-116350090D01*
X123369338Y-115600327D01*
X123375793Y-115588506D01*
X124343825Y-115588506D01*
X124347609Y-115597284D01*
X125097183Y-116346858D01*
X125111127Y-116354472D01*
X125112960Y-116354341D01*
X125119575Y-116350090D01*
X125869338Y-115600327D01*
X125875793Y-115588506D01*
X126843825Y-115588506D01*
X126847609Y-115597284D01*
X127597183Y-116346858D01*
X127611127Y-116354472D01*
X127612960Y-116354341D01*
X127619575Y-116350090D01*
X128369338Y-115600327D01*
X128376098Y-115587947D01*
X128370371Y-115580297D01*
X128303682Y-115539430D01*
X128294888Y-115534949D01*
X128083867Y-115447542D01*
X128074482Y-115444493D01*
X127852382Y-115391170D01*
X127842635Y-115389627D01*
X127614925Y-115371706D01*
X127605065Y-115371706D01*
X127377355Y-115389627D01*
X127367608Y-115391170D01*
X127145508Y-115444493D01*
X127136123Y-115447542D01*
X126925102Y-115534949D01*
X126916308Y-115539430D01*
X126853285Y-115578050D01*
X126843825Y-115588506D01*
X125875793Y-115588506D01*
X125876098Y-115587947D01*
X125870371Y-115580297D01*
X125803682Y-115539430D01*
X125794888Y-115534949D01*
X125583867Y-115447542D01*
X125574482Y-115444493D01*
X125352382Y-115391170D01*
X125342635Y-115389627D01*
X125114925Y-115371706D01*
X125105065Y-115371706D01*
X124877355Y-115389627D01*
X124867608Y-115391170D01*
X124645508Y-115444493D01*
X124636123Y-115447542D01*
X124425102Y-115534949D01*
X124416308Y-115539430D01*
X124353285Y-115578050D01*
X124343825Y-115588506D01*
X123375793Y-115588506D01*
X123376098Y-115587947D01*
X123370371Y-115580297D01*
X123303682Y-115539430D01*
X123294888Y-115534949D01*
X123083867Y-115447542D01*
X123074482Y-115444493D01*
X122852382Y-115391170D01*
X122842635Y-115389627D01*
X122614925Y-115371706D01*
X122605065Y-115371706D01*
X122377355Y-115389627D01*
X122367608Y-115391170D01*
X122145508Y-115444493D01*
X122136123Y-115447542D01*
X121925102Y-115534949D01*
X121916308Y-115539430D01*
X121853285Y-115578050D01*
X121843825Y-115588506D01*
X120875793Y-115588506D01*
X120876098Y-115587947D01*
X120870371Y-115580297D01*
X120803682Y-115539430D01*
X120794888Y-115534949D01*
X120583867Y-115447542D01*
X120574482Y-115444493D01*
X120352382Y-115391170D01*
X120342635Y-115389627D01*
X120114925Y-115371706D01*
X120105065Y-115371706D01*
X119877355Y-115389627D01*
X119867608Y-115391170D01*
X119645508Y-115444493D01*
X119636123Y-115447542D01*
X119425102Y-115534949D01*
X119416308Y-115539430D01*
X119353285Y-115578050D01*
X119343825Y-115588506D01*
X118375793Y-115588506D01*
X118376098Y-115587947D01*
X118370371Y-115580297D01*
X118303682Y-115539430D01*
X118294888Y-115534949D01*
X118083867Y-115447542D01*
X118074482Y-115444493D01*
X117852382Y-115391170D01*
X117842635Y-115389627D01*
X117614925Y-115371706D01*
X117605065Y-115371706D01*
X117377355Y-115389627D01*
X117367608Y-115391170D01*
X117145508Y-115444493D01*
X117136123Y-115447542D01*
X116925102Y-115534949D01*
X116916308Y-115539430D01*
X116853285Y-115578050D01*
X116843825Y-115588506D01*
X110000000Y-115588506D01*
X110000000Y-111046346D01*
X155304867Y-111046346D01*
X155330307Y-111369579D01*
X155394948Y-111687304D01*
X155497829Y-111994782D01*
X155637415Y-112287430D01*
X155811625Y-112560885D01*
X156017863Y-112811072D01*
X156253054Y-113034259D01*
X156513691Y-113227121D01*
X156654790Y-113306951D01*
X156792532Y-113384882D01*
X156792536Y-113384884D01*
X156795889Y-113386781D01*
X157095442Y-113510860D01*
X157407883Y-113597507D01*
X157728555Y-113645432D01*
X157731853Y-113645576D01*
X157843257Y-113650440D01*
X157843261Y-113650440D01*
X157844633Y-113650500D01*
X158042354Y-113650500D01*
X158283629Y-113635743D01*
X158287412Y-113635042D01*
X158287419Y-113635041D01*
X158489931Y-113597507D01*
X158602433Y-113576656D01*
X158815785Y-113509386D01*
X158907987Y-113480315D01*
X158907990Y-113480314D01*
X158911659Y-113479157D01*
X158915156Y-113477563D01*
X158915162Y-113477561D01*
X159203191Y-113346299D01*
X159203195Y-113346297D01*
X159206699Y-113344700D01*
X159483153Y-113175289D01*
X159486157Y-113172899D01*
X159486162Y-113172896D01*
X159610027Y-113074369D01*
X159736901Y-112973449D01*
X159739595Y-112970708D01*
X159739599Y-112970704D01*
X159961463Y-112744932D01*
X159964159Y-112742189D01*
X160050945Y-112629088D01*
X160159205Y-112488001D01*
X160159210Y-112487993D01*
X160161540Y-112484957D01*
X160326101Y-112205589D01*
X160455389Y-111908247D01*
X160547476Y-111597366D01*
X160600990Y-111277579D01*
X160615133Y-110953654D01*
X160589693Y-110630421D01*
X160525052Y-110312696D01*
X160422171Y-110005218D01*
X160282585Y-109712570D01*
X160108375Y-109439115D01*
X159902137Y-109188928D01*
X159666946Y-108965741D01*
X159406309Y-108772879D01*
X159265210Y-108693049D01*
X159127468Y-108615118D01*
X159127464Y-108615116D01*
X159124111Y-108613219D01*
X158824558Y-108489140D01*
X158512117Y-108402493D01*
X158191445Y-108354568D01*
X158188147Y-108354424D01*
X158076743Y-108349560D01*
X158076739Y-108349560D01*
X158075367Y-108349500D01*
X157877646Y-108349500D01*
X157636371Y-108364257D01*
X157632588Y-108364958D01*
X157632581Y-108364959D01*
X157476969Y-108393801D01*
X157317567Y-108423344D01*
X157132930Y-108481560D01*
X157012013Y-108519685D01*
X157012010Y-108519686D01*
X157008341Y-108520843D01*
X157004844Y-108522437D01*
X157004838Y-108522439D01*
X156716809Y-108653701D01*
X156716805Y-108653703D01*
X156713301Y-108655300D01*
X156436847Y-108824711D01*
X156433843Y-108827101D01*
X156433838Y-108827104D01*
X156309973Y-108925631D01*
X156183099Y-109026551D01*
X156180405Y-109029292D01*
X156180401Y-109029296D01*
X156065515Y-109146206D01*
X155955841Y-109257811D01*
X155869055Y-109370912D01*
X155760795Y-109511999D01*
X155760790Y-109512007D01*
X155758460Y-109515043D01*
X155593899Y-109794411D01*
X155464611Y-110091753D01*
X155372524Y-110402634D01*
X155319010Y-110722421D01*
X155304867Y-111046346D01*
X110000000Y-111046346D01*
X110000000Y-94646346D01*
X138904867Y-94646346D01*
X138930307Y-94969579D01*
X138994948Y-95287304D01*
X139097829Y-95594782D01*
X139237415Y-95887430D01*
X139411625Y-96160885D01*
X139617863Y-96411072D01*
X139853054Y-96634259D01*
X140113691Y-96827121D01*
X140254790Y-96906951D01*
X140392532Y-96984882D01*
X140392536Y-96984884D01*
X140395889Y-96986781D01*
X140695442Y-97110860D01*
X141007883Y-97197507D01*
X141328555Y-97245432D01*
X141331853Y-97245576D01*
X141443257Y-97250440D01*
X141443261Y-97250440D01*
X141444633Y-97250500D01*
X141642354Y-97250500D01*
X141883629Y-97235743D01*
X141887412Y-97235042D01*
X141887419Y-97235041D01*
X142089931Y-97197507D01*
X142202433Y-97176656D01*
X142415785Y-97109386D01*
X142507987Y-97080315D01*
X142507990Y-97080314D01*
X142511659Y-97079157D01*
X142515156Y-97077563D01*
X142515162Y-97077561D01*
X142803191Y-96946299D01*
X142803195Y-96946297D01*
X142806699Y-96944700D01*
X143083153Y-96775289D01*
X143086157Y-96772899D01*
X143086162Y-96772896D01*
X143210027Y-96674369D01*
X143336901Y-96573449D01*
X143339595Y-96570708D01*
X143339599Y-96570704D01*
X143561463Y-96344932D01*
X143564159Y-96342189D01*
X143650945Y-96229088D01*
X143759205Y-96088001D01*
X143759210Y-96087993D01*
X143761540Y-96084957D01*
X143926101Y-95805589D01*
X144055389Y-95508247D01*
X144147476Y-95197366D01*
X144200990Y-94877579D01*
X144215133Y-94553654D01*
X144189693Y-94230421D01*
X144125052Y-93912696D01*
X144022171Y-93605218D01*
X143882585Y-93312570D01*
X143708375Y-93039115D01*
X143502137Y-92788928D01*
X143266946Y-92565741D01*
X143006309Y-92372879D01*
X142865210Y-92293049D01*
X142727468Y-92215118D01*
X142727464Y-92215116D01*
X142724111Y-92213219D01*
X142424558Y-92089140D01*
X142112117Y-92002493D01*
X141791445Y-91954568D01*
X141788147Y-91954424D01*
X141676743Y-91949560D01*
X141676739Y-91949560D01*
X141675367Y-91949500D01*
X141477646Y-91949500D01*
X141236371Y-91964257D01*
X141232588Y-91964958D01*
X141232581Y-91964959D01*
X141076969Y-91993800D01*
X140917567Y-92023344D01*
X140732930Y-92081560D01*
X140612013Y-92119685D01*
X140612010Y-92119686D01*
X140608341Y-92120843D01*
X140604844Y-92122437D01*
X140604838Y-92122439D01*
X140316809Y-92253701D01*
X140316805Y-92253703D01*
X140313301Y-92255300D01*
X140036847Y-92424711D01*
X140033843Y-92427101D01*
X140033838Y-92427104D01*
X139909973Y-92525631D01*
X139783099Y-92626551D01*
X139780405Y-92629292D01*
X139780401Y-92629296D01*
X139665515Y-92746206D01*
X139555841Y-92857811D01*
X139469055Y-92970912D01*
X139360795Y-93111999D01*
X139360790Y-93112007D01*
X139358460Y-93115043D01*
X139193899Y-93394411D01*
X139064611Y-93691753D01*
X138972524Y-94002634D01*
X138919010Y-94322421D01*
X138904867Y-94646346D01*
X110000000Y-94646346D01*
X110000000Y-78046346D01*
X155304867Y-78046346D01*
X155330307Y-78369579D01*
X155394948Y-78687304D01*
X155497829Y-78994782D01*
X155637415Y-79287430D01*
X155811625Y-79560885D01*
X156017863Y-79811072D01*
X156253054Y-80034259D01*
X156513691Y-80227121D01*
X156654790Y-80306951D01*
X156792532Y-80384882D01*
X156792536Y-80384884D01*
X156795889Y-80386781D01*
X157095442Y-80510860D01*
X157407883Y-80597507D01*
X157728555Y-80645432D01*
X157731853Y-80645576D01*
X157843257Y-80650440D01*
X157843261Y-80650440D01*
X157844633Y-80650500D01*
X158042354Y-80650500D01*
X158283629Y-80635743D01*
X158287412Y-80635042D01*
X158287419Y-80635041D01*
X158489931Y-80597507D01*
X158602433Y-80576656D01*
X158815785Y-80509386D01*
X158907987Y-80480315D01*
X158907990Y-80480314D01*
X158911659Y-80479157D01*
X158915156Y-80477563D01*
X158915162Y-80477561D01*
X159203191Y-80346299D01*
X159203195Y-80346297D01*
X159206699Y-80344700D01*
X159483153Y-80175289D01*
X159486157Y-80172899D01*
X159486162Y-80172896D01*
X159610027Y-80074369D01*
X159736901Y-79973449D01*
X159739595Y-79970708D01*
X159739599Y-79970704D01*
X159961463Y-79744932D01*
X159964159Y-79742189D01*
X160050945Y-79629088D01*
X160159205Y-79488001D01*
X160159210Y-79487993D01*
X160161540Y-79484957D01*
X160326101Y-79205589D01*
X160455389Y-78908247D01*
X160547476Y-78597366D01*
X160600990Y-78277579D01*
X160615133Y-77953654D01*
X160589693Y-77630421D01*
X160525052Y-77312696D01*
X160422171Y-77005218D01*
X160282585Y-76712570D01*
X160108375Y-76439115D01*
X159902137Y-76188928D01*
X159666946Y-75965741D01*
X159406309Y-75772879D01*
X159265210Y-75693049D01*
X159127468Y-75615118D01*
X159127464Y-75615116D01*
X159124111Y-75613219D01*
X158824558Y-75489140D01*
X158512117Y-75402493D01*
X158191445Y-75354568D01*
X158188147Y-75354424D01*
X158076743Y-75349560D01*
X158076739Y-75349560D01*
X158075367Y-75349500D01*
X157877646Y-75349500D01*
X157636371Y-75364257D01*
X157632588Y-75364958D01*
X157632581Y-75364959D01*
X157476969Y-75393801D01*
X157317567Y-75423344D01*
X157132930Y-75481560D01*
X157012013Y-75519685D01*
X157012010Y-75519686D01*
X157008341Y-75520843D01*
X157004844Y-75522437D01*
X157004838Y-75522439D01*
X156716809Y-75653701D01*
X156716805Y-75653703D01*
X156713301Y-75655300D01*
X156436847Y-75824711D01*
X156433843Y-75827101D01*
X156433838Y-75827104D01*
X156309973Y-75925631D01*
X156183099Y-76026551D01*
X156180405Y-76029292D01*
X156180401Y-76029296D01*
X156065515Y-76146206D01*
X155955841Y-76257811D01*
X155869055Y-76370912D01*
X155760795Y-76511999D01*
X155760790Y-76512007D01*
X155758460Y-76515043D01*
X155593899Y-76794411D01*
X155464611Y-77091753D01*
X155372524Y-77402634D01*
X155319010Y-77722421D01*
X155304867Y-78046346D01*
X110000000Y-78046346D01*
X110000000Y-73200000D01*
X135304540Y-73200000D01*
X135324326Y-73388256D01*
X135382821Y-73568284D01*
X135386124Y-73574006D01*
X135386125Y-73574007D01*
X135429108Y-73648455D01*
X135477467Y-73732216D01*
X135604129Y-73872888D01*
X135757270Y-73984151D01*
X135930197Y-74061144D01*
X136028212Y-74081978D01*
X136108897Y-74099128D01*
X136108901Y-74099128D01*
X136115354Y-74100500D01*
X136304646Y-74100500D01*
X136311099Y-74099128D01*
X136311103Y-74099128D01*
X136391788Y-74081978D01*
X136489803Y-74061144D01*
X136662730Y-73984151D01*
X136815871Y-73872888D01*
X136942533Y-73732216D01*
X136990892Y-73648455D01*
X137033875Y-73574007D01*
X137033876Y-73574006D01*
X137037179Y-73568284D01*
X137078950Y-73439727D01*
X137119024Y-73381121D01*
X137184420Y-73353484D01*
X137254377Y-73365591D01*
X137292419Y-73394353D01*
X137349709Y-73457981D01*
X137349718Y-73457989D01*
X137354129Y-73462888D01*
X137359468Y-73466767D01*
X137499195Y-73568284D01*
X137507270Y-73574151D01*
X137680197Y-73651144D01*
X137778212Y-73671978D01*
X137858897Y-73689128D01*
X137858901Y-73689128D01*
X137865354Y-73690500D01*
X138054646Y-73690500D01*
X138061099Y-73689128D01*
X138061103Y-73689128D01*
X138141788Y-73671978D01*
X138239803Y-73651144D01*
X138412730Y-73574151D01*
X138418072Y-73570270D01*
X138418077Y-73570267D01*
X138509058Y-73504166D01*
X138575925Y-73480307D01*
X138645077Y-73496388D01*
X138657178Y-73504166D01*
X138761923Y-73580267D01*
X138761928Y-73580270D01*
X138767270Y-73584151D01*
X138940197Y-73661144D01*
X139038212Y-73681978D01*
X139118897Y-73699128D01*
X139118901Y-73699128D01*
X139125354Y-73700500D01*
X139314646Y-73700500D01*
X139321099Y-73699128D01*
X139321103Y-73699128D01*
X139401788Y-73681978D01*
X139499803Y-73661144D01*
X139672730Y-73584151D01*
X139825871Y-73472888D01*
X139830282Y-73467989D01*
X139830291Y-73467981D01*
X139897317Y-73393540D01*
X139957763Y-73356300D01*
X140028746Y-73357652D01*
X140087731Y-73397165D01*
X140110786Y-73438913D01*
X140152821Y-73568284D01*
X140156124Y-73574006D01*
X140156125Y-73574007D01*
X140199108Y-73648455D01*
X140247467Y-73732216D01*
X140374129Y-73872888D01*
X140527270Y-73984151D01*
X140700197Y-74061144D01*
X140798212Y-74081978D01*
X140878897Y-74099128D01*
X140878901Y-74099128D01*
X140885354Y-74100500D01*
X141074646Y-74100500D01*
X141081099Y-74099128D01*
X141081103Y-74099128D01*
X141161788Y-74081978D01*
X141259803Y-74061144D01*
X141432730Y-73984151D01*
X141585871Y-73872888D01*
X141712533Y-73732216D01*
X141760892Y-73648455D01*
X141803875Y-73574007D01*
X141803876Y-73574006D01*
X141807179Y-73568284D01*
X141865674Y-73388256D01*
X141885460Y-73200000D01*
X141865674Y-73011744D01*
X141807179Y-72831716D01*
X141712533Y-72667784D01*
X141585871Y-72527112D01*
X141432730Y-72415849D01*
X141259803Y-72338856D01*
X141200303Y-72326209D01*
X141137830Y-72292481D01*
X141103508Y-72230331D01*
X141100500Y-72202962D01*
X141100500Y-71846636D01*
X141120502Y-71778515D01*
X141137405Y-71757541D01*
X141143081Y-71751865D01*
X141226744Y-71610398D01*
X141272598Y-71452569D01*
X141273633Y-71439416D01*
X141275307Y-71418153D01*
X141275308Y-71418140D01*
X141275500Y-71415694D01*
X141275500Y-69884306D01*
X141275308Y-69881860D01*
X141275307Y-69881847D01*
X141273103Y-69853850D01*
X141272598Y-69847431D01*
X141226744Y-69689602D01*
X141143081Y-69548135D01*
X141026865Y-69431919D01*
X140885398Y-69348256D01*
X140877786Y-69346045D01*
X140877785Y-69346044D01*
X140733754Y-69304199D01*
X140733755Y-69304199D01*
X140727569Y-69302402D01*
X140714416Y-69301367D01*
X140693153Y-69299693D01*
X140693140Y-69299692D01*
X140690694Y-69299500D01*
X140259306Y-69299500D01*
X140256860Y-69299692D01*
X140256847Y-69299693D01*
X140235584Y-69301367D01*
X140222431Y-69302402D01*
X140216245Y-69304199D01*
X140216246Y-69304199D01*
X140072215Y-69346044D01*
X140072214Y-69346045D01*
X140064602Y-69348256D01*
X139924696Y-69430996D01*
X139924693Y-69430997D01*
X139923135Y-69431919D01*
X139922986Y-69431668D01*
X139861141Y-69455950D01*
X139791518Y-69442049D01*
X139778861Y-69433915D01*
X139776865Y-69431919D01*
X139635398Y-69348256D01*
X139627786Y-69346045D01*
X139627785Y-69346044D01*
X139483754Y-69304199D01*
X139483755Y-69304199D01*
X139477569Y-69302402D01*
X139464416Y-69301367D01*
X139443153Y-69299693D01*
X139443140Y-69299692D01*
X139440694Y-69299500D01*
X139009306Y-69299500D01*
X139006860Y-69299692D01*
X139006847Y-69299693D01*
X138985584Y-69301367D01*
X138972431Y-69302402D01*
X138966245Y-69304199D01*
X138966246Y-69304199D01*
X138822215Y-69346044D01*
X138822214Y-69346045D01*
X138814602Y-69348256D01*
X138674696Y-69430996D01*
X138674693Y-69430997D01*
X138673135Y-69431919D01*
X138672986Y-69431668D01*
X138611141Y-69455950D01*
X138541518Y-69442049D01*
X138528861Y-69433915D01*
X138526865Y-69431919D01*
X138385398Y-69348256D01*
X138377786Y-69346045D01*
X138377785Y-69346044D01*
X138233754Y-69304199D01*
X138233755Y-69304199D01*
X138227569Y-69302402D01*
X138214416Y-69301367D01*
X138193153Y-69299693D01*
X138193140Y-69299692D01*
X138190694Y-69299500D01*
X137759306Y-69299500D01*
X137756860Y-69299692D01*
X137756847Y-69299693D01*
X137735584Y-69301367D01*
X137722431Y-69302402D01*
X137716245Y-69304199D01*
X137716246Y-69304199D01*
X137572215Y-69346044D01*
X137572214Y-69346045D01*
X137564602Y-69348256D01*
X137424696Y-69430996D01*
X137424693Y-69430997D01*
X137423135Y-69431919D01*
X137422986Y-69431668D01*
X137361141Y-69455950D01*
X137291518Y-69442049D01*
X137278861Y-69433915D01*
X137276865Y-69431919D01*
X137135398Y-69348256D01*
X137127786Y-69346045D01*
X137127785Y-69346044D01*
X136983754Y-69304199D01*
X136983755Y-69304199D01*
X136977569Y-69302402D01*
X136964416Y-69301367D01*
X136943153Y-69299693D01*
X136943140Y-69299692D01*
X136940694Y-69299500D01*
X136509306Y-69299500D01*
X136506860Y-69299692D01*
X136506847Y-69299693D01*
X136485584Y-69301367D01*
X136472431Y-69302402D01*
X136466245Y-69304199D01*
X136466246Y-69304199D01*
X136322215Y-69346044D01*
X136322214Y-69346045D01*
X136314602Y-69348256D01*
X136173135Y-69431919D01*
X136056919Y-69548135D01*
X135973256Y-69689602D01*
X135927402Y-69847431D01*
X135926897Y-69853850D01*
X135924693Y-69881847D01*
X135924692Y-69881860D01*
X135924500Y-69884306D01*
X135924500Y-71415694D01*
X135924692Y-71418140D01*
X135924693Y-71418153D01*
X135926367Y-71439416D01*
X135927402Y-71452569D01*
X135973256Y-71610398D01*
X136056919Y-71751865D01*
X136062595Y-71757541D01*
X136062632Y-71757610D01*
X136067381Y-71763731D01*
X136066393Y-71764497D01*
X136096621Y-71819853D01*
X136099500Y-71846636D01*
X136099500Y-72200837D01*
X136079498Y-72268958D01*
X136025842Y-72315451D01*
X135999698Y-72324083D01*
X135967391Y-72330950D01*
X135936660Y-72337482D01*
X135936658Y-72337483D01*
X135930197Y-72338856D01*
X135757270Y-72415849D01*
X135604129Y-72527112D01*
X135477467Y-72667784D01*
X135382821Y-72831716D01*
X135324326Y-73011744D01*
X135304540Y-73200000D01*
X110000000Y-73200000D01*
X110000000Y-70396567D01*
X115620001Y-70396567D01*
X115620339Y-70403087D01*
X115630140Y-70497560D01*
X115633031Y-70510951D01*
X115683882Y-70663368D01*
X115690056Y-70676547D01*
X115774374Y-70812804D01*
X115783410Y-70824205D01*
X115896821Y-70937418D01*
X115908232Y-70946430D01*
X116044646Y-71030516D01*
X116057827Y-71036663D01*
X116210343Y-71087251D01*
X116223719Y-71090118D01*
X116316966Y-71099672D01*
X116323382Y-71100000D01*
X117226885Y-71100000D01*
X117242124Y-71095525D01*
X117243329Y-71094135D01*
X117245000Y-71086452D01*
X117245000Y-71081884D01*
X117995000Y-71081884D01*
X117999475Y-71097123D01*
X118000865Y-71098328D01*
X118008548Y-71099999D01*
X118916567Y-71099999D01*
X118923087Y-71099661D01*
X119017560Y-71089860D01*
X119030951Y-71086969D01*
X119183368Y-71036118D01*
X119196547Y-71029944D01*
X119332804Y-70945626D01*
X119344205Y-70936590D01*
X119457418Y-70823179D01*
X119466430Y-70811768D01*
X119550516Y-70675354D01*
X119556663Y-70662173D01*
X119607251Y-70509657D01*
X119610118Y-70496281D01*
X119619672Y-70403034D01*
X119620000Y-70396618D01*
X119620000Y-69493115D01*
X119615525Y-69477876D01*
X119614135Y-69476671D01*
X119606452Y-69475000D01*
X118013115Y-69475000D01*
X117997876Y-69479475D01*
X117996671Y-69480865D01*
X117995000Y-69488548D01*
X117995000Y-71081884D01*
X117245000Y-71081884D01*
X117245000Y-69493115D01*
X117240525Y-69477876D01*
X117239135Y-69476671D01*
X117231452Y-69475000D01*
X115638116Y-69475000D01*
X115622877Y-69479475D01*
X115621672Y-69480865D01*
X115620001Y-69488548D01*
X115620001Y-70396567D01*
X110000000Y-70396567D01*
X110000000Y-69054049D01*
X120945194Y-69054049D01*
X120945418Y-69058715D01*
X120945418Y-69058720D01*
X120949073Y-69134814D01*
X120957677Y-69313930D01*
X121008435Y-69569112D01*
X121096355Y-69813989D01*
X121219504Y-70043180D01*
X121222299Y-70046923D01*
X121222301Y-70046926D01*
X121372385Y-70247913D01*
X121372390Y-70247919D01*
X121375177Y-70251651D01*
X121378486Y-70254931D01*
X121378491Y-70254937D01*
X121527886Y-70403034D01*
X121559954Y-70434823D01*
X121563716Y-70437581D01*
X121563719Y-70437584D01*
X121676332Y-70520155D01*
X121769775Y-70588670D01*
X121773910Y-70590846D01*
X121773914Y-70590848D01*
X121899774Y-70657066D01*
X122000033Y-70709815D01*
X122245667Y-70795594D01*
X122250260Y-70796466D01*
X122496693Y-70843253D01*
X122496696Y-70843253D01*
X122501282Y-70844124D01*
X122631272Y-70849231D01*
X122756595Y-70854156D01*
X122756601Y-70854156D01*
X122761263Y-70854339D01*
X122862489Y-70843253D01*
X123015245Y-70826524D01*
X123015250Y-70826523D01*
X123019898Y-70826014D01*
X123131331Y-70796676D01*
X123266982Y-70760962D01*
X123266984Y-70760961D01*
X123271505Y-70759771D01*
X123495889Y-70663368D01*
X123506263Y-70658911D01*
X123506265Y-70658910D01*
X123510557Y-70657066D01*
X123731803Y-70520155D01*
X123744204Y-70509657D01*
X123926809Y-70355071D01*
X123926811Y-70355069D01*
X123930382Y-70352046D01*
X124101931Y-70156431D01*
X124242683Y-69937608D01*
X124349544Y-69700385D01*
X124354509Y-69682779D01*
X124418898Y-69454476D01*
X124418899Y-69454473D01*
X124420168Y-69449972D01*
X124436891Y-69318518D01*
X124452604Y-69195001D01*
X124452604Y-69194997D01*
X124453002Y-69191871D01*
X124455408Y-69100000D01*
X124436126Y-68840534D01*
X124378705Y-68586768D01*
X124377012Y-68582414D01*
X124344911Y-68499866D01*
X133874500Y-68499866D01*
X133874837Y-68503112D01*
X133874837Y-68503116D01*
X133884515Y-68596383D01*
X133885359Y-68604519D01*
X133940744Y-68770529D01*
X134032834Y-68919345D01*
X134156689Y-69042984D01*
X134162919Y-69046824D01*
X134162920Y-69046825D01*
X134174640Y-69054049D01*
X134305666Y-69134814D01*
X134312614Y-69137119D01*
X134312615Y-69137119D01*
X134465241Y-69187744D01*
X134465243Y-69187745D01*
X134471772Y-69189910D01*
X134575134Y-69200500D01*
X135174866Y-69200500D01*
X135178112Y-69200163D01*
X135178116Y-69200163D01*
X135272661Y-69190353D01*
X135272665Y-69190352D01*
X135279519Y-69189641D01*
X135286055Y-69187460D01*
X135286057Y-69187460D01*
X135438581Y-69136574D01*
X135445529Y-69134256D01*
X135594345Y-69042166D01*
X135717984Y-68918311D01*
X135809814Y-68769334D01*
X135824519Y-68725000D01*
X135862744Y-68609759D01*
X135862745Y-68609757D01*
X135864910Y-68603228D01*
X135875500Y-68499866D01*
X141324500Y-68499866D01*
X141324837Y-68503112D01*
X141324837Y-68503116D01*
X141334515Y-68596383D01*
X141335359Y-68604519D01*
X141390744Y-68770529D01*
X141482834Y-68919345D01*
X141606689Y-69042984D01*
X141612919Y-69046824D01*
X141612920Y-69046825D01*
X141624640Y-69054049D01*
X141755666Y-69134814D01*
X141762614Y-69137119D01*
X141762615Y-69137119D01*
X141915241Y-69187744D01*
X141915243Y-69187745D01*
X141921772Y-69189910D01*
X142025134Y-69200500D01*
X142624866Y-69200500D01*
X142628112Y-69200163D01*
X142628116Y-69200163D01*
X142722661Y-69190353D01*
X142722665Y-69190352D01*
X142729519Y-69189641D01*
X142736055Y-69187460D01*
X142736057Y-69187460D01*
X142888581Y-69136574D01*
X142895529Y-69134256D01*
X143044345Y-69042166D01*
X143167984Y-68918311D01*
X143259814Y-68769334D01*
X143274519Y-68725000D01*
X143312744Y-68609759D01*
X143312745Y-68609757D01*
X143314910Y-68603228D01*
X143325500Y-68499866D01*
X143325500Y-67802623D01*
X153064500Y-67802623D01*
X153064501Y-70397376D01*
X153064870Y-70400770D01*
X153064870Y-70400776D01*
X153068569Y-70434823D01*
X153071149Y-70458580D01*
X153121474Y-70592824D01*
X153126854Y-70600003D01*
X153126856Y-70600006D01*
X153174344Y-70663368D01*
X153207454Y-70707546D01*
X153214635Y-70712928D01*
X153314994Y-70788144D01*
X153314997Y-70788146D01*
X153322176Y-70793526D01*
X153405662Y-70824823D01*
X153449025Y-70841079D01*
X153449027Y-70841079D01*
X153456420Y-70843851D01*
X153464270Y-70844704D01*
X153464271Y-70844704D01*
X153514217Y-70850130D01*
X153517623Y-70850500D01*
X154814810Y-70850500D01*
X156112376Y-70850499D01*
X156115770Y-70850130D01*
X156115776Y-70850130D01*
X156165722Y-70844705D01*
X156165726Y-70844704D01*
X156173580Y-70843851D01*
X156307824Y-70793526D01*
X156315003Y-70788146D01*
X156315006Y-70788144D01*
X156415365Y-70712928D01*
X156422546Y-70707546D01*
X156455656Y-70663368D01*
X156503144Y-70600006D01*
X156503146Y-70600003D01*
X156508526Y-70592824D01*
X156558851Y-70458580D01*
X156565500Y-70397377D01*
X156565499Y-69054049D01*
X158140194Y-69054049D01*
X158140418Y-69058715D01*
X158140418Y-69058720D01*
X158144073Y-69134814D01*
X158152677Y-69313930D01*
X158203435Y-69569112D01*
X158291355Y-69813989D01*
X158414504Y-70043180D01*
X158417299Y-70046923D01*
X158417301Y-70046926D01*
X158567385Y-70247913D01*
X158567390Y-70247919D01*
X158570177Y-70251651D01*
X158573486Y-70254931D01*
X158573491Y-70254937D01*
X158722886Y-70403034D01*
X158754954Y-70434823D01*
X158758716Y-70437581D01*
X158758719Y-70437584D01*
X158871332Y-70520155D01*
X158964775Y-70588670D01*
X158968910Y-70590846D01*
X158968914Y-70590848D01*
X159094774Y-70657066D01*
X159195033Y-70709815D01*
X159440667Y-70795594D01*
X159445260Y-70796466D01*
X159691693Y-70843253D01*
X159691696Y-70843253D01*
X159696282Y-70844124D01*
X159826272Y-70849231D01*
X159951595Y-70854156D01*
X159951601Y-70854156D01*
X159956263Y-70854339D01*
X160057489Y-70843253D01*
X160210245Y-70826524D01*
X160210250Y-70826523D01*
X160214898Y-70826014D01*
X160326331Y-70796676D01*
X160461982Y-70760962D01*
X160461984Y-70760961D01*
X160466505Y-70759771D01*
X160690889Y-70663368D01*
X160701263Y-70658911D01*
X160701265Y-70658910D01*
X160705557Y-70657066D01*
X160926803Y-70520155D01*
X160939204Y-70509657D01*
X161121809Y-70355071D01*
X161121811Y-70355069D01*
X161125382Y-70352046D01*
X161296931Y-70156431D01*
X161437683Y-69937608D01*
X161544544Y-69700385D01*
X161549509Y-69682779D01*
X161613898Y-69454476D01*
X161613899Y-69454473D01*
X161615168Y-69449972D01*
X161631891Y-69318518D01*
X161647604Y-69195001D01*
X161647604Y-69194997D01*
X161648002Y-69191871D01*
X161650408Y-69100000D01*
X161646993Y-69054049D01*
X163220194Y-69054049D01*
X163220418Y-69058715D01*
X163220418Y-69058720D01*
X163224073Y-69134814D01*
X163232677Y-69313930D01*
X163283435Y-69569112D01*
X163371355Y-69813989D01*
X163494504Y-70043180D01*
X163497299Y-70046923D01*
X163497301Y-70046926D01*
X163647385Y-70247913D01*
X163647390Y-70247919D01*
X163650177Y-70251651D01*
X163653486Y-70254931D01*
X163653491Y-70254937D01*
X163802886Y-70403034D01*
X163834954Y-70434823D01*
X163838716Y-70437581D01*
X163838719Y-70437584D01*
X163951332Y-70520155D01*
X164044775Y-70588670D01*
X164048910Y-70590846D01*
X164048914Y-70590848D01*
X164174774Y-70657066D01*
X164275033Y-70709815D01*
X164520667Y-70795594D01*
X164525260Y-70796466D01*
X164771693Y-70843253D01*
X164771696Y-70843253D01*
X164776282Y-70844124D01*
X164906272Y-70849231D01*
X165031595Y-70854156D01*
X165031601Y-70854156D01*
X165036263Y-70854339D01*
X165137489Y-70843253D01*
X165290245Y-70826524D01*
X165290250Y-70826523D01*
X165294898Y-70826014D01*
X165406331Y-70796676D01*
X165541982Y-70760962D01*
X165541984Y-70760961D01*
X165546505Y-70759771D01*
X165770889Y-70663368D01*
X165781263Y-70658911D01*
X165781265Y-70658910D01*
X165785557Y-70657066D01*
X166006803Y-70520155D01*
X166019204Y-70509657D01*
X166201809Y-70355071D01*
X166201811Y-70355069D01*
X166205382Y-70352046D01*
X166376931Y-70156431D01*
X166517683Y-69937608D01*
X166624544Y-69700385D01*
X166629509Y-69682779D01*
X166693898Y-69454476D01*
X166693899Y-69454473D01*
X166695168Y-69449972D01*
X166711891Y-69318518D01*
X166727604Y-69195001D01*
X166727604Y-69194997D01*
X166728002Y-69191871D01*
X166730408Y-69100000D01*
X166711126Y-68840534D01*
X166653705Y-68586768D01*
X166652012Y-68582414D01*
X166561098Y-68348630D01*
X166561097Y-68348628D01*
X166559405Y-68344277D01*
X166430299Y-68118388D01*
X166269223Y-67914064D01*
X166079714Y-67735792D01*
X165865937Y-67587489D01*
X165861747Y-67585423D01*
X165861744Y-67585421D01*
X165636775Y-67474479D01*
X165636772Y-67474478D01*
X165632587Y-67472414D01*
X165384792Y-67393094D01*
X165244569Y-67370257D01*
X165132606Y-67352023D01*
X165132605Y-67352023D01*
X165127994Y-67351272D01*
X164997914Y-67349569D01*
X164872512Y-67347927D01*
X164872509Y-67347927D01*
X164867835Y-67347866D01*
X164610030Y-67382952D01*
X164360243Y-67455758D01*
X164355990Y-67457718D01*
X164355989Y-67457719D01*
X164319634Y-67474479D01*
X164123961Y-67564686D01*
X164120056Y-67567246D01*
X164120051Y-67567249D01*
X163910288Y-67704775D01*
X163910283Y-67704779D01*
X163906375Y-67707341D01*
X163712265Y-67880591D01*
X163545895Y-68080629D01*
X163410920Y-68303061D01*
X163409111Y-68307375D01*
X163409110Y-68307377D01*
X163327052Y-68503065D01*
X163310305Y-68543001D01*
X163309154Y-68547533D01*
X163309153Y-68547536D01*
X163293351Y-68609759D01*
X163246261Y-68795177D01*
X163220194Y-69054049D01*
X161646993Y-69054049D01*
X161631126Y-68840534D01*
X161573705Y-68586768D01*
X161572012Y-68582414D01*
X161481098Y-68348630D01*
X161481097Y-68348628D01*
X161479405Y-68344277D01*
X161350299Y-68118388D01*
X161189223Y-67914064D01*
X160999714Y-67735792D01*
X160785937Y-67587489D01*
X160781747Y-67585423D01*
X160781744Y-67585421D01*
X160556775Y-67474479D01*
X160556772Y-67474478D01*
X160552587Y-67472414D01*
X160304792Y-67393094D01*
X160164569Y-67370257D01*
X160052606Y-67352023D01*
X160052605Y-67352023D01*
X160047994Y-67351272D01*
X159917914Y-67349569D01*
X159792512Y-67347927D01*
X159792509Y-67347927D01*
X159787835Y-67347866D01*
X159530030Y-67382952D01*
X159280243Y-67455758D01*
X159275990Y-67457718D01*
X159275989Y-67457719D01*
X159239634Y-67474479D01*
X159043961Y-67564686D01*
X159040056Y-67567246D01*
X159040051Y-67567249D01*
X158830288Y-67704775D01*
X158830283Y-67704779D01*
X158826375Y-67707341D01*
X158632265Y-67880591D01*
X158465895Y-68080629D01*
X158330920Y-68303061D01*
X158329111Y-68307375D01*
X158329110Y-68307377D01*
X158247052Y-68503065D01*
X158230305Y-68543001D01*
X158229154Y-68547533D01*
X158229153Y-68547536D01*
X158213351Y-68609759D01*
X158166261Y-68795177D01*
X158140194Y-69054049D01*
X156565499Y-69054049D01*
X156565499Y-67802624D01*
X156565130Y-67799224D01*
X156559705Y-67749278D01*
X156559704Y-67749274D01*
X156558851Y-67741420D01*
X156508526Y-67607176D01*
X156503146Y-67599997D01*
X156503144Y-67599994D01*
X156427928Y-67499635D01*
X156422546Y-67492454D01*
X156371834Y-67454447D01*
X156315006Y-67411856D01*
X156315003Y-67411854D01*
X156307824Y-67406474D01*
X156218439Y-67372966D01*
X156180975Y-67358921D01*
X156180973Y-67358921D01*
X156173580Y-67356149D01*
X156165730Y-67355296D01*
X156165729Y-67355296D01*
X156115774Y-67349869D01*
X156115773Y-67349869D01*
X156112377Y-67349500D01*
X154815190Y-67349500D01*
X153517624Y-67349501D01*
X153514230Y-67349870D01*
X153514224Y-67349870D01*
X153464278Y-67355295D01*
X153464274Y-67355296D01*
X153456420Y-67356149D01*
X153322176Y-67406474D01*
X153314997Y-67411854D01*
X153314994Y-67411856D01*
X153258166Y-67454447D01*
X153207454Y-67492454D01*
X153202072Y-67499635D01*
X153126856Y-67599994D01*
X153126854Y-67599997D01*
X153121474Y-67607176D01*
X153071149Y-67741420D01*
X153064500Y-67802623D01*
X143325500Y-67802623D01*
X143325500Y-66100134D01*
X143325163Y-66096884D01*
X143315353Y-66002339D01*
X143315352Y-66002335D01*
X143314641Y-65995481D01*
X143259256Y-65829471D01*
X143167166Y-65680655D01*
X143043311Y-65557016D01*
X142894334Y-65465186D01*
X142887385Y-65462881D01*
X142734759Y-65412256D01*
X142734757Y-65412255D01*
X142728228Y-65410090D01*
X142624866Y-65399500D01*
X142025134Y-65399500D01*
X142021888Y-65399837D01*
X142021884Y-65399837D01*
X141927339Y-65409647D01*
X141927335Y-65409648D01*
X141920481Y-65410359D01*
X141913945Y-65412540D01*
X141913943Y-65412540D01*
X141774860Y-65458942D01*
X141754471Y-65465744D01*
X141605655Y-65557834D01*
X141482016Y-65681689D01*
X141390186Y-65830666D01*
X141335090Y-65996772D01*
X141324500Y-66100134D01*
X141324500Y-68499866D01*
X135875500Y-68499866D01*
X135875500Y-66100134D01*
X135875163Y-66096884D01*
X135865353Y-66002339D01*
X135865352Y-66002335D01*
X135864641Y-65995481D01*
X135809256Y-65829471D01*
X135717166Y-65680655D01*
X135593311Y-65557016D01*
X135444334Y-65465186D01*
X135437385Y-65462881D01*
X135284759Y-65412256D01*
X135284757Y-65412255D01*
X135278228Y-65410090D01*
X135174866Y-65399500D01*
X134575134Y-65399500D01*
X134571888Y-65399837D01*
X134571884Y-65399837D01*
X134477339Y-65409647D01*
X134477335Y-65409648D01*
X134470481Y-65410359D01*
X134463945Y-65412540D01*
X134463943Y-65412540D01*
X134324860Y-65458942D01*
X134304471Y-65465744D01*
X134155655Y-65557834D01*
X134032016Y-65681689D01*
X133940186Y-65830666D01*
X133885090Y-65996772D01*
X133874500Y-66100134D01*
X133874500Y-68499866D01*
X124344911Y-68499866D01*
X124286098Y-68348630D01*
X124286097Y-68348628D01*
X124284405Y-68344277D01*
X124155299Y-68118388D01*
X123994223Y-67914064D01*
X123804714Y-67735792D01*
X123590937Y-67587489D01*
X123586747Y-67585423D01*
X123586744Y-67585421D01*
X123361775Y-67474479D01*
X123361772Y-67474478D01*
X123357587Y-67472414D01*
X123109792Y-67393094D01*
X122969569Y-67370257D01*
X122857606Y-67352023D01*
X122857605Y-67352023D01*
X122852994Y-67351272D01*
X122722914Y-67349569D01*
X122597512Y-67347927D01*
X122597509Y-67347927D01*
X122592835Y-67347866D01*
X122335030Y-67382952D01*
X122085243Y-67455758D01*
X122080990Y-67457718D01*
X122080989Y-67457719D01*
X122044634Y-67474479D01*
X121848961Y-67564686D01*
X121845056Y-67567246D01*
X121845051Y-67567249D01*
X121635288Y-67704775D01*
X121635283Y-67704779D01*
X121631375Y-67707341D01*
X121437265Y-67880591D01*
X121270895Y-68080629D01*
X121135920Y-68303061D01*
X121134111Y-68307375D01*
X121134110Y-68307377D01*
X121052052Y-68503065D01*
X121035305Y-68543001D01*
X121034154Y-68547533D01*
X121034153Y-68547536D01*
X121018351Y-68609759D01*
X120971261Y-68795177D01*
X120945194Y-69054049D01*
X110000000Y-69054049D01*
X110000000Y-68706885D01*
X115620000Y-68706885D01*
X115624475Y-68722124D01*
X115625865Y-68723329D01*
X115633548Y-68725000D01*
X117226885Y-68725000D01*
X117242124Y-68720525D01*
X117243329Y-68719135D01*
X117245000Y-68711452D01*
X117245000Y-68706885D01*
X117995000Y-68706885D01*
X117999475Y-68722124D01*
X118000865Y-68723329D01*
X118008548Y-68725000D01*
X119601884Y-68725000D01*
X119617123Y-68720525D01*
X119618328Y-68719135D01*
X119619999Y-68711452D01*
X119619999Y-67803433D01*
X119619661Y-67796913D01*
X119609860Y-67702440D01*
X119606969Y-67689049D01*
X119556118Y-67536632D01*
X119549944Y-67523453D01*
X119465626Y-67387196D01*
X119456590Y-67375795D01*
X119343179Y-67262582D01*
X119331768Y-67253570D01*
X119195354Y-67169484D01*
X119182173Y-67163337D01*
X119029657Y-67112749D01*
X119016281Y-67109882D01*
X118923034Y-67100328D01*
X118916617Y-67100000D01*
X118013115Y-67100000D01*
X117997876Y-67104475D01*
X117996671Y-67105865D01*
X117995000Y-67113548D01*
X117995000Y-68706885D01*
X117245000Y-68706885D01*
X117245000Y-67118116D01*
X117240525Y-67102877D01*
X117239135Y-67101672D01*
X117231452Y-67100001D01*
X116323433Y-67100001D01*
X116316913Y-67100339D01*
X116222440Y-67110140D01*
X116209049Y-67113031D01*
X116056632Y-67163882D01*
X116043453Y-67170056D01*
X115907196Y-67254374D01*
X115895795Y-67263410D01*
X115782582Y-67376821D01*
X115773570Y-67388232D01*
X115689484Y-67524646D01*
X115683337Y-67537827D01*
X115632749Y-67690343D01*
X115629882Y-67703719D01*
X115620328Y-67796966D01*
X115620000Y-67803383D01*
X115620000Y-68706885D01*
X110000000Y-68706885D01*
X110000000Y-63626000D01*
X110020002Y-63557879D01*
X110073658Y-63511386D01*
X110126000Y-63500000D01*
X172374000Y-63500000D01*
X172442121Y-63520002D01*
G37*
%TD.AperFunction*%
%TD*%
M02*
