M48
; DRILL file {KiCad (6.0.1-0)} date Friday, December 23, 2022 at 09:27:02 PM
; FORMAT={-:-/ absolute / metric / decimal}
; #@! TF.CreationDate,2022-12-23T21:27:02-08:00
; #@! TF.GenerationSoftware,Kicad,Pcbnew,(6.0.1-0)
; #@! TF.FileFunction,MixedPlating,1,6
FMAT,2
METRIC
; #@! TA.AperFunction,Plated,PTH,ViaDrill
T1C0.400
; #@! TA.AperFunction,Plated,PTH,ComponentDrill
T2C0.762
; #@! TA.AperFunction,Plated,PTH,ComponentDrill
T3C1.016
; #@! TA.AperFunction,Plated,PTH,ComponentDrill
T4C1.300
; #@! TA.AperFunction,NonPlated,NPTH,ComponentDrill
T5C4.300
%
G90
G05
T1
X136.21Y-73.2
X137.96Y-72.79
X139.22Y-72.8
X140.98Y-73.2
T2
X142.89Y-116.89
X142.89Y-119.43
X144.16Y-118.16
X144.16Y-120.7
X145.43Y-116.89
X145.43Y-119.43
X146.7Y-118.16
X146.7Y-120.7
X147.97Y-116.89
X147.97Y-119.43
X149.24Y-118.16
X149.24Y-120.7
X150.51Y-116.89
X150.51Y-119.43
X151.78Y-118.16
X151.78Y-120.7
X153.05Y-116.89
X153.05Y-119.43
X154.32Y-118.16
X154.32Y-120.7
X155.59Y-116.89
X155.59Y-119.43
X156.86Y-118.16
X156.86Y-120.7
X158.13Y-116.89
X158.13Y-119.43
X159.4Y-118.16
X159.4Y-120.7
T3
X117.61Y-116.89
X117.61Y-119.39
X120.11Y-116.89
X120.11Y-119.39
X122.61Y-116.89
X122.61Y-119.39
X125.11Y-116.89
X125.11Y-119.39
X127.61Y-116.89
X127.61Y-119.39
X129.61Y-116.89
X129.61Y-119.39
X132.11Y-116.89
X132.11Y-119.39
X134.61Y-116.89
X134.61Y-119.39
X137.11Y-116.89
X137.11Y-119.39
X139.61Y-116.89
X139.61Y-119.39
T4
X117.62Y-69.1
X122.7Y-69.1
X154.815Y-69.1
X159.895Y-69.1
X164.975Y-69.1
T5
X141.56Y-94.6
X157.96Y-78.0
X157.96Y-111.0
T0
M30
