%TF.GenerationSoftware,KiCad,Pcbnew,(6.0.1-0)*%
%TF.CreationDate,2022-12-23T21:27:23-08:00*%
%TF.ProjectId,ESC Daughterboard,45534320-4461-4756-9768-746572626f61,rev?*%
%TF.SameCoordinates,Original*%
%TF.FileFunction,Copper,L2,Inr*%
%TF.FilePolarity,Positive*%
%FSLAX46Y46*%
G04 Gerber Fmt 4.6, Leading zero omitted, Abs format (unit mm)*
G04 Created by KiCad (PCBNEW (6.0.1-0)) date 2022-12-23 21:27:23*
%MOMM*%
%LPD*%
G01*
G04 APERTURE LIST*
%TA.AperFunction,ComponentPad*%
%ADD10R,2.500000X2.500000*%
%TD*%
%TA.AperFunction,ComponentPad*%
%ADD11C,2.500000*%
%TD*%
%TA.AperFunction,ComponentPad*%
%ADD12R,1.110000X1.110000*%
%TD*%
%TA.AperFunction,ComponentPad*%
%ADD13C,1.110000*%
%TD*%
%TA.AperFunction,ComponentPad*%
%ADD14C,1.528000*%
%TD*%
%TA.AperFunction,ViaPad*%
%ADD15C,0.800000*%
%TD*%
G04 APERTURE END LIST*
D10*
%TO.N,/Phase_1*%
%TO.C,Phase 1*%
X154815000Y-69100000D03*
D11*
%TO.N,/Phase_2*%
X159895000Y-69100000D03*
%TO.N,/Phase_3*%
X164975000Y-69100000D03*
%TD*%
D12*
%TO.N,GND*%
%TO.C,J4*%
X159400000Y-120700000D03*
D13*
%TO.N,+5V*%
X158130000Y-119430000D03*
%TO.N,/Phase_3*%
X156860000Y-120700000D03*
X155590000Y-119430000D03*
X154320000Y-120700000D03*
X153050000Y-119430000D03*
%TO.N,/Phase_2*%
X151780000Y-120700000D03*
X150510000Y-119430000D03*
X149240000Y-120700000D03*
X147970000Y-119430000D03*
%TO.N,/Phase_1*%
X146700000Y-120700000D03*
X145430000Y-119430000D03*
X144160000Y-120700000D03*
X142890000Y-119430000D03*
%TO.N,/CAH*%
X159400000Y-118160000D03*
%TO.N,/CAL*%
X158130000Y-116890000D03*
%TO.N,/Phase_3*%
X156860000Y-118160000D03*
X155590000Y-116890000D03*
X154320000Y-118160000D03*
X153050000Y-116890000D03*
%TO.N,/Phase_2*%
X151780000Y-118160000D03*
X150510000Y-116890000D03*
X149240000Y-118160000D03*
X147970000Y-116890000D03*
%TO.N,/Phase_1*%
X146700000Y-118160000D03*
X145430000Y-116890000D03*
X144160000Y-118160000D03*
X142890000Y-116890000D03*
D14*
%TO.N,GND*%
X139609996Y-116890000D03*
X137109996Y-116890000D03*
X134609996Y-116890000D03*
X132109996Y-116890000D03*
X129609999Y-116890000D03*
%TO.N,/16V*%
X127609995Y-116890000D03*
X125109995Y-116890000D03*
X122609995Y-116890000D03*
X120109995Y-116890000D03*
X117609995Y-116890000D03*
%TO.N,GND*%
X139609996Y-119390000D03*
X137109996Y-119390000D03*
X134609996Y-119390000D03*
X132109996Y-119390000D03*
X129609999Y-119390000D03*
%TO.N,/16V*%
X127609995Y-119390000D03*
X125109995Y-119390000D03*
X122609995Y-119390000D03*
X120109995Y-119390000D03*
X117609995Y-119390000D03*
%TD*%
D10*
%TO.N,/16V*%
%TO.C,PWR*%
X117620000Y-69100000D03*
D11*
%TO.N,GND*%
X122700000Y-69100000D03*
%TD*%
D15*
%TO.N,GND*%
X136210000Y-73200000D03*
%TO.N,+5V*%
X140980000Y-73200000D03*
%TO.N,/CAH*%
X139220000Y-72800000D03*
%TO.N,/CAL*%
X137960000Y-72790000D03*
%TD*%
%TA.AperFunction,Conductor*%
%TO.N,/Phase_1*%
G36*
X170502121Y-65620002D02*
G01*
X170548614Y-65673658D01*
X170560000Y-65726000D01*
X170560000Y-122274000D01*
X170539998Y-122342121D01*
X170486342Y-122388614D01*
X170434000Y-122400000D01*
X111586000Y-122400000D01*
X111517879Y-122379998D01*
X111471386Y-122326342D01*
X111460000Y-122274000D01*
X111460000Y-121609552D01*
X143615278Y-121609552D01*
X143620187Y-121616110D01*
X143726992Y-121675800D01*
X143738232Y-121680711D01*
X143924777Y-121741323D01*
X143936744Y-121743955D01*
X144131519Y-121767180D01*
X144143768Y-121767437D01*
X144339339Y-121752389D01*
X144351417Y-121750259D01*
X144540331Y-121697512D01*
X144551764Y-121693078D01*
X144696448Y-121619993D01*
X144706732Y-121610348D01*
X144706464Y-121609552D01*
X146155278Y-121609552D01*
X146160187Y-121616110D01*
X146266992Y-121675800D01*
X146278232Y-121680711D01*
X146464777Y-121741323D01*
X146476744Y-121743955D01*
X146671519Y-121767180D01*
X146683768Y-121767437D01*
X146879339Y-121752389D01*
X146891417Y-121750259D01*
X147080331Y-121697512D01*
X147091764Y-121693078D01*
X147236448Y-121619993D01*
X147246732Y-121610348D01*
X147244494Y-121603704D01*
X146712812Y-121072022D01*
X146698868Y-121064408D01*
X146697035Y-121064539D01*
X146690420Y-121068790D01*
X146162038Y-121597172D01*
X146155278Y-121609552D01*
X144706464Y-121609552D01*
X144704494Y-121603704D01*
X144172812Y-121072022D01*
X144158868Y-121064408D01*
X144157035Y-121064539D01*
X144150420Y-121068790D01*
X143622038Y-121597172D01*
X143615278Y-121609552D01*
X111460000Y-121609552D01*
X111460000Y-119390000D01*
X116340665Y-119390000D01*
X116359949Y-119610417D01*
X116361373Y-119615730D01*
X116361373Y-119615732D01*
X116411290Y-119802022D01*
X116417215Y-119824136D01*
X116419538Y-119829117D01*
X116419538Y-119829118D01*
X116508397Y-120019678D01*
X116508400Y-120019683D01*
X116510723Y-120024665D01*
X116513879Y-120029172D01*
X116513880Y-120029174D01*
X116609993Y-120166437D01*
X116637632Y-120205910D01*
X116794085Y-120362363D01*
X116798593Y-120365520D01*
X116798596Y-120365522D01*
X116970821Y-120486115D01*
X116975330Y-120489272D01*
X116980312Y-120491595D01*
X116980317Y-120491598D01*
X117170877Y-120580457D01*
X117175859Y-120582780D01*
X117181167Y-120584202D01*
X117181169Y-120584203D01*
X117384263Y-120638622D01*
X117384265Y-120638622D01*
X117389578Y-120640046D01*
X117609995Y-120659330D01*
X117830412Y-120640046D01*
X117835725Y-120638622D01*
X117835727Y-120638622D01*
X118038821Y-120584203D01*
X118038823Y-120584202D01*
X118044131Y-120582780D01*
X118049113Y-120580457D01*
X118239673Y-120491598D01*
X118239678Y-120491595D01*
X118244660Y-120489272D01*
X118249169Y-120486115D01*
X118421394Y-120365522D01*
X118421397Y-120365520D01*
X118425905Y-120362363D01*
X118582358Y-120205910D01*
X118609998Y-120166437D01*
X118706110Y-120029174D01*
X118706111Y-120029172D01*
X118709267Y-120024665D01*
X118711590Y-120019683D01*
X118711593Y-120019678D01*
X118745800Y-119946320D01*
X118792717Y-119893035D01*
X118860995Y-119873574D01*
X118928955Y-119894116D01*
X118974190Y-119946320D01*
X119008397Y-120019678D01*
X119008400Y-120019683D01*
X119010723Y-120024665D01*
X119013879Y-120029172D01*
X119013880Y-120029174D01*
X119109993Y-120166437D01*
X119137632Y-120205910D01*
X119294085Y-120362363D01*
X119298593Y-120365520D01*
X119298596Y-120365522D01*
X119470821Y-120486115D01*
X119475330Y-120489272D01*
X119480312Y-120491595D01*
X119480317Y-120491598D01*
X119670877Y-120580457D01*
X119675859Y-120582780D01*
X119681167Y-120584202D01*
X119681169Y-120584203D01*
X119884263Y-120638622D01*
X119884265Y-120638622D01*
X119889578Y-120640046D01*
X120109995Y-120659330D01*
X120330412Y-120640046D01*
X120335725Y-120638622D01*
X120335727Y-120638622D01*
X120538821Y-120584203D01*
X120538823Y-120584202D01*
X120544131Y-120582780D01*
X120549113Y-120580457D01*
X120739673Y-120491598D01*
X120739678Y-120491595D01*
X120744660Y-120489272D01*
X120749169Y-120486115D01*
X120921394Y-120365522D01*
X120921397Y-120365520D01*
X120925905Y-120362363D01*
X121082358Y-120205910D01*
X121109998Y-120166437D01*
X121206110Y-120029174D01*
X121206111Y-120029172D01*
X121209267Y-120024665D01*
X121211590Y-120019683D01*
X121211593Y-120019678D01*
X121245800Y-119946320D01*
X121292717Y-119893035D01*
X121360995Y-119873574D01*
X121428955Y-119894116D01*
X121474190Y-119946320D01*
X121508397Y-120019678D01*
X121508400Y-120019683D01*
X121510723Y-120024665D01*
X121513879Y-120029172D01*
X121513880Y-120029174D01*
X121609993Y-120166437D01*
X121637632Y-120205910D01*
X121794085Y-120362363D01*
X121798593Y-120365520D01*
X121798596Y-120365522D01*
X121970821Y-120486115D01*
X121975330Y-120489272D01*
X121980312Y-120491595D01*
X121980317Y-120491598D01*
X122170877Y-120580457D01*
X122175859Y-120582780D01*
X122181167Y-120584202D01*
X122181169Y-120584203D01*
X122384263Y-120638622D01*
X122384265Y-120638622D01*
X122389578Y-120640046D01*
X122609995Y-120659330D01*
X122830412Y-120640046D01*
X122835725Y-120638622D01*
X122835727Y-120638622D01*
X123038821Y-120584203D01*
X123038823Y-120584202D01*
X123044131Y-120582780D01*
X123049113Y-120580457D01*
X123239673Y-120491598D01*
X123239678Y-120491595D01*
X123244660Y-120489272D01*
X123249169Y-120486115D01*
X123421394Y-120365522D01*
X123421397Y-120365520D01*
X123425905Y-120362363D01*
X123582358Y-120205910D01*
X123609998Y-120166437D01*
X123706110Y-120029174D01*
X123706111Y-120029172D01*
X123709267Y-120024665D01*
X123711590Y-120019683D01*
X123711593Y-120019678D01*
X123745800Y-119946320D01*
X123792717Y-119893035D01*
X123860995Y-119873574D01*
X123928955Y-119894116D01*
X123974190Y-119946320D01*
X124008397Y-120019678D01*
X124008400Y-120019683D01*
X124010723Y-120024665D01*
X124013879Y-120029172D01*
X124013880Y-120029174D01*
X124109993Y-120166437D01*
X124137632Y-120205910D01*
X124294085Y-120362363D01*
X124298593Y-120365520D01*
X124298596Y-120365522D01*
X124470821Y-120486115D01*
X124475330Y-120489272D01*
X124480312Y-120491595D01*
X124480317Y-120491598D01*
X124670877Y-120580457D01*
X124675859Y-120582780D01*
X124681167Y-120584202D01*
X124681169Y-120584203D01*
X124884263Y-120638622D01*
X124884265Y-120638622D01*
X124889578Y-120640046D01*
X125109995Y-120659330D01*
X125330412Y-120640046D01*
X125335725Y-120638622D01*
X125335727Y-120638622D01*
X125538821Y-120584203D01*
X125538823Y-120584202D01*
X125544131Y-120582780D01*
X125549113Y-120580457D01*
X125739673Y-120491598D01*
X125739678Y-120491595D01*
X125744660Y-120489272D01*
X125749169Y-120486115D01*
X125921394Y-120365522D01*
X125921397Y-120365520D01*
X125925905Y-120362363D01*
X126082358Y-120205910D01*
X126109998Y-120166437D01*
X126206110Y-120029174D01*
X126206111Y-120029172D01*
X126209267Y-120024665D01*
X126211590Y-120019683D01*
X126211593Y-120019678D01*
X126245800Y-119946320D01*
X126292717Y-119893035D01*
X126360995Y-119873574D01*
X126428955Y-119894116D01*
X126474190Y-119946320D01*
X126508397Y-120019678D01*
X126508400Y-120019683D01*
X126510723Y-120024665D01*
X126513879Y-120029172D01*
X126513880Y-120029174D01*
X126609993Y-120166437D01*
X126637632Y-120205910D01*
X126794085Y-120362363D01*
X126798593Y-120365520D01*
X126798596Y-120365522D01*
X126970821Y-120486115D01*
X126975330Y-120489272D01*
X126980312Y-120491595D01*
X126980317Y-120491598D01*
X127170877Y-120580457D01*
X127175859Y-120582780D01*
X127181167Y-120584202D01*
X127181169Y-120584203D01*
X127384263Y-120638622D01*
X127384265Y-120638622D01*
X127389578Y-120640046D01*
X127609995Y-120659330D01*
X127830412Y-120640046D01*
X127835725Y-120638622D01*
X127835727Y-120638622D01*
X128038821Y-120584203D01*
X128038823Y-120584202D01*
X128044131Y-120582780D01*
X128049113Y-120580457D01*
X128239673Y-120491598D01*
X128239678Y-120491595D01*
X128244660Y-120489272D01*
X128249169Y-120486115D01*
X128421394Y-120365522D01*
X128421397Y-120365520D01*
X128425905Y-120362363D01*
X128520902Y-120267366D01*
X128583214Y-120233340D01*
X128654029Y-120238405D01*
X128699092Y-120267366D01*
X128794089Y-120362363D01*
X128798597Y-120365520D01*
X128798600Y-120365522D01*
X128970825Y-120486115D01*
X128975334Y-120489272D01*
X128980316Y-120491595D01*
X128980321Y-120491598D01*
X129170881Y-120580457D01*
X129175863Y-120582780D01*
X129181171Y-120584202D01*
X129181173Y-120584203D01*
X129384267Y-120638622D01*
X129384269Y-120638622D01*
X129389582Y-120640046D01*
X129609999Y-120659330D01*
X129830416Y-120640046D01*
X129835729Y-120638622D01*
X129835731Y-120638622D01*
X130038825Y-120584203D01*
X130038827Y-120584202D01*
X130044135Y-120582780D01*
X130049117Y-120580457D01*
X130239677Y-120491598D01*
X130239682Y-120491595D01*
X130244664Y-120489272D01*
X130249173Y-120486115D01*
X130421398Y-120365522D01*
X130421401Y-120365520D01*
X130425909Y-120362363D01*
X130582362Y-120205910D01*
X130610002Y-120166437D01*
X130706114Y-120029174D01*
X130706115Y-120029172D01*
X130709271Y-120024665D01*
X130711594Y-120019684D01*
X130711600Y-120019673D01*
X130745804Y-119946322D01*
X130792721Y-119893038D01*
X130860998Y-119873577D01*
X130928958Y-119894119D01*
X130974193Y-119946324D01*
X131008396Y-120019674D01*
X131008399Y-120019680D01*
X131010724Y-120024665D01*
X131013880Y-120029172D01*
X131013881Y-120029174D01*
X131109994Y-120166437D01*
X131137633Y-120205910D01*
X131294086Y-120362363D01*
X131298594Y-120365520D01*
X131298597Y-120365522D01*
X131470822Y-120486115D01*
X131475331Y-120489272D01*
X131480313Y-120491595D01*
X131480318Y-120491598D01*
X131670878Y-120580457D01*
X131675860Y-120582780D01*
X131681168Y-120584202D01*
X131681170Y-120584203D01*
X131884264Y-120638622D01*
X131884266Y-120638622D01*
X131889579Y-120640046D01*
X132109996Y-120659330D01*
X132330413Y-120640046D01*
X132335726Y-120638622D01*
X132335728Y-120638622D01*
X132538822Y-120584203D01*
X132538824Y-120584202D01*
X132544132Y-120582780D01*
X132549114Y-120580457D01*
X132739674Y-120491598D01*
X132739679Y-120491595D01*
X132744661Y-120489272D01*
X132749170Y-120486115D01*
X132921395Y-120365522D01*
X132921398Y-120365520D01*
X132925906Y-120362363D01*
X133082359Y-120205910D01*
X133109999Y-120166437D01*
X133206111Y-120029174D01*
X133206112Y-120029172D01*
X133209268Y-120024665D01*
X133211591Y-120019683D01*
X133211594Y-120019678D01*
X133245801Y-119946320D01*
X133292718Y-119893035D01*
X133360996Y-119873574D01*
X133428956Y-119894116D01*
X133474191Y-119946320D01*
X133508398Y-120019678D01*
X133508401Y-120019683D01*
X133510724Y-120024665D01*
X133513880Y-120029172D01*
X133513881Y-120029174D01*
X133609994Y-120166437D01*
X133637633Y-120205910D01*
X133794086Y-120362363D01*
X133798594Y-120365520D01*
X133798597Y-120365522D01*
X133970822Y-120486115D01*
X133975331Y-120489272D01*
X133980313Y-120491595D01*
X133980318Y-120491598D01*
X134170878Y-120580457D01*
X134175860Y-120582780D01*
X134181168Y-120584202D01*
X134181170Y-120584203D01*
X134384264Y-120638622D01*
X134384266Y-120638622D01*
X134389579Y-120640046D01*
X134609996Y-120659330D01*
X134830413Y-120640046D01*
X134835726Y-120638622D01*
X134835728Y-120638622D01*
X135038822Y-120584203D01*
X135038824Y-120584202D01*
X135044132Y-120582780D01*
X135049114Y-120580457D01*
X135239674Y-120491598D01*
X135239679Y-120491595D01*
X135244661Y-120489272D01*
X135249170Y-120486115D01*
X135421395Y-120365522D01*
X135421398Y-120365520D01*
X135425906Y-120362363D01*
X135582359Y-120205910D01*
X135609999Y-120166437D01*
X135706111Y-120029174D01*
X135706112Y-120029172D01*
X135709268Y-120024665D01*
X135711591Y-120019683D01*
X135711594Y-120019678D01*
X135745801Y-119946320D01*
X135792718Y-119893035D01*
X135860996Y-119873574D01*
X135928956Y-119894116D01*
X135974191Y-119946320D01*
X136008398Y-120019678D01*
X136008401Y-120019683D01*
X136010724Y-120024665D01*
X136013880Y-120029172D01*
X136013881Y-120029174D01*
X136109994Y-120166437D01*
X136137633Y-120205910D01*
X136294086Y-120362363D01*
X136298594Y-120365520D01*
X136298597Y-120365522D01*
X136470822Y-120486115D01*
X136475331Y-120489272D01*
X136480313Y-120491595D01*
X136480318Y-120491598D01*
X136670878Y-120580457D01*
X136675860Y-120582780D01*
X136681168Y-120584202D01*
X136681170Y-120584203D01*
X136884264Y-120638622D01*
X136884266Y-120638622D01*
X136889579Y-120640046D01*
X137109996Y-120659330D01*
X137330413Y-120640046D01*
X137335726Y-120638622D01*
X137335728Y-120638622D01*
X137538822Y-120584203D01*
X137538824Y-120584202D01*
X137544132Y-120582780D01*
X137549114Y-120580457D01*
X137739674Y-120491598D01*
X137739679Y-120491595D01*
X137744661Y-120489272D01*
X137749170Y-120486115D01*
X137921395Y-120365522D01*
X137921398Y-120365520D01*
X137925906Y-120362363D01*
X138082359Y-120205910D01*
X138109999Y-120166437D01*
X138206111Y-120029174D01*
X138206112Y-120029172D01*
X138209268Y-120024665D01*
X138211591Y-120019683D01*
X138211594Y-120019678D01*
X138245801Y-119946320D01*
X138292718Y-119893035D01*
X138360996Y-119873574D01*
X138428956Y-119894116D01*
X138474191Y-119946320D01*
X138508398Y-120019678D01*
X138508401Y-120019683D01*
X138510724Y-120024665D01*
X138513880Y-120029172D01*
X138513881Y-120029174D01*
X138609994Y-120166437D01*
X138637633Y-120205910D01*
X138794086Y-120362363D01*
X138798594Y-120365520D01*
X138798597Y-120365522D01*
X138970822Y-120486115D01*
X138975331Y-120489272D01*
X138980313Y-120491595D01*
X138980318Y-120491598D01*
X139170878Y-120580457D01*
X139175860Y-120582780D01*
X139181168Y-120584202D01*
X139181170Y-120584203D01*
X139384264Y-120638622D01*
X139384266Y-120638622D01*
X139389579Y-120640046D01*
X139609996Y-120659330D01*
X139830413Y-120640046D01*
X139835726Y-120638622D01*
X139835728Y-120638622D01*
X140038822Y-120584203D01*
X140038824Y-120584202D01*
X140044132Y-120582780D01*
X140049114Y-120580457D01*
X140239674Y-120491598D01*
X140239679Y-120491595D01*
X140244661Y-120489272D01*
X140249170Y-120486115D01*
X140421395Y-120365522D01*
X140421398Y-120365520D01*
X140425906Y-120362363D01*
X140448717Y-120339552D01*
X142345278Y-120339552D01*
X142350187Y-120346110D01*
X142456992Y-120405800D01*
X142468232Y-120410711D01*
X142654777Y-120471323D01*
X142666744Y-120473955D01*
X142861519Y-120497180D01*
X142873768Y-120497437D01*
X142963233Y-120490553D01*
X143032687Y-120505270D01*
X143083159Y-120555201D01*
X143098114Y-120630226D01*
X143092648Y-120678959D01*
X143092477Y-120691230D01*
X143108889Y-120886679D01*
X143111104Y-120898744D01*
X143165166Y-121087283D01*
X143169685Y-121098695D01*
X143240300Y-121236096D01*
X143250019Y-121246315D01*
X143256819Y-121243971D01*
X143787978Y-120712812D01*
X143794356Y-120701132D01*
X144524408Y-120701132D01*
X144524539Y-120702965D01*
X144528790Y-120709580D01*
X145057002Y-121237792D01*
X145069382Y-121244552D01*
X145076116Y-121239511D01*
X145132750Y-121139816D01*
X145137744Y-121128600D01*
X145199652Y-120942497D01*
X145202372Y-120930525D01*
X145227285Y-120733326D01*
X145227776Y-120726301D01*
X145228094Y-120703505D01*
X145227801Y-120696513D01*
X145221262Y-120629828D01*
X145234521Y-120560081D01*
X145283383Y-120508574D01*
X145352336Y-120491660D01*
X145361579Y-120492418D01*
X145401518Y-120497180D01*
X145413768Y-120497437D01*
X145503233Y-120490553D01*
X145572687Y-120505270D01*
X145623159Y-120555201D01*
X145638114Y-120630226D01*
X145632648Y-120678959D01*
X145632477Y-120691230D01*
X145648889Y-120886679D01*
X145651104Y-120898744D01*
X145705166Y-121087283D01*
X145709685Y-121098695D01*
X145780300Y-121236096D01*
X145790019Y-121246315D01*
X145796819Y-121243971D01*
X146327978Y-120712812D01*
X146335592Y-120698868D01*
X146335461Y-120697035D01*
X146331210Y-120690420D01*
X145442812Y-119802022D01*
X145428868Y-119794408D01*
X145427035Y-119794539D01*
X145420420Y-119798790D01*
X144532022Y-120687188D01*
X144524408Y-120701132D01*
X143794356Y-120701132D01*
X143795592Y-120698868D01*
X143795461Y-120697035D01*
X143791210Y-120690420D01*
X142902812Y-119802022D01*
X142888868Y-119794408D01*
X142887035Y-119794539D01*
X142880420Y-119798790D01*
X142352038Y-120327172D01*
X142345278Y-120339552D01*
X140448717Y-120339552D01*
X140582359Y-120205910D01*
X140609999Y-120166437D01*
X140706111Y-120029174D01*
X140706112Y-120029172D01*
X140709268Y-120024665D01*
X140711591Y-120019683D01*
X140711594Y-120019678D01*
X140800453Y-119829118D01*
X140800453Y-119829117D01*
X140802776Y-119824136D01*
X140808702Y-119802022D01*
X140858618Y-119615732D01*
X140858618Y-119615730D01*
X140860042Y-119610417D01*
X140876594Y-119421230D01*
X141822477Y-119421230D01*
X141838889Y-119616679D01*
X141841104Y-119628744D01*
X141895166Y-119817283D01*
X141899685Y-119828695D01*
X141970300Y-119966096D01*
X141980019Y-119976315D01*
X141986819Y-119973971D01*
X142517978Y-119442812D01*
X142524356Y-119431132D01*
X143254408Y-119431132D01*
X143254539Y-119432965D01*
X143258790Y-119439580D01*
X144147188Y-120327978D01*
X144161132Y-120335592D01*
X144162965Y-120335461D01*
X144169580Y-120331210D01*
X145057978Y-119442812D01*
X145064356Y-119431132D01*
X145794408Y-119431132D01*
X145794539Y-119432965D01*
X145798790Y-119439580D01*
X147597002Y-121237792D01*
X147609382Y-121244552D01*
X147616116Y-121239511D01*
X147672750Y-121139816D01*
X147677744Y-121128600D01*
X147739652Y-120942497D01*
X147742372Y-120930525D01*
X147767285Y-120733326D01*
X147767776Y-120726301D01*
X147768094Y-120703505D01*
X147767801Y-120696513D01*
X147760513Y-120622185D01*
X147773772Y-120552437D01*
X147822635Y-120500930D01*
X147891588Y-120484017D01*
X147900830Y-120484775D01*
X147936088Y-120488979D01*
X147947788Y-120490374D01*
X147953923Y-120489902D01*
X147953925Y-120489902D01*
X148051697Y-120482379D01*
X148121151Y-120497097D01*
X148171623Y-120547027D01*
X148186578Y-120622053D01*
X148184720Y-120638622D01*
X148179496Y-120685192D01*
X148180835Y-120701132D01*
X148183521Y-120733118D01*
X148196817Y-120891460D01*
X148198515Y-120897381D01*
X148198515Y-120897382D01*
X148246410Y-121064408D01*
X148253873Y-121090435D01*
X148348489Y-121274540D01*
X148477063Y-121436760D01*
X148481756Y-121440754D01*
X148481757Y-121440755D01*
X148508363Y-121463398D01*
X148634697Y-121570917D01*
X148640075Y-121573923D01*
X148640077Y-121573924D01*
X148718813Y-121617928D01*
X148815387Y-121671901D01*
X149012250Y-121735865D01*
X149217788Y-121760374D01*
X149223923Y-121759902D01*
X149223925Y-121759902D01*
X149418030Y-121744967D01*
X149418034Y-121744966D01*
X149424172Y-121744494D01*
X149430105Y-121742838D01*
X149430108Y-121742837D01*
X149617607Y-121690486D01*
X149617606Y-121690486D01*
X149623542Y-121688829D01*
X149808302Y-121595500D01*
X149933322Y-121497824D01*
X149966559Y-121471856D01*
X149971415Y-121468062D01*
X150002604Y-121431929D01*
X150102641Y-121316036D01*
X150102642Y-121316034D01*
X150106670Y-121311368D01*
X150208913Y-121131388D01*
X150274250Y-120934976D01*
X150300193Y-120729614D01*
X150300607Y-120700000D01*
X150294775Y-120640525D01*
X150292888Y-120621274D01*
X150306148Y-120551527D01*
X150355010Y-120500020D01*
X150423963Y-120483107D01*
X150433191Y-120483864D01*
X150487788Y-120490374D01*
X150493923Y-120489902D01*
X150493925Y-120489902D01*
X150591697Y-120482379D01*
X150661151Y-120497097D01*
X150711623Y-120547027D01*
X150726578Y-120622053D01*
X150724720Y-120638622D01*
X150719496Y-120685192D01*
X150720835Y-120701132D01*
X150723521Y-120733118D01*
X150736817Y-120891460D01*
X150738515Y-120897381D01*
X150738515Y-120897382D01*
X150786410Y-121064408D01*
X150793873Y-121090435D01*
X150888489Y-121274540D01*
X151017063Y-121436760D01*
X151021756Y-121440754D01*
X151021757Y-121440755D01*
X151048363Y-121463398D01*
X151174697Y-121570917D01*
X151180075Y-121573923D01*
X151180077Y-121573924D01*
X151258813Y-121617928D01*
X151355387Y-121671901D01*
X151552250Y-121735865D01*
X151757788Y-121760374D01*
X151763923Y-121759902D01*
X151763925Y-121759902D01*
X151958030Y-121744967D01*
X151958034Y-121744966D01*
X151964172Y-121744494D01*
X151970105Y-121742838D01*
X151970108Y-121742837D01*
X152157607Y-121690486D01*
X152157606Y-121690486D01*
X152163542Y-121688829D01*
X152348302Y-121595500D01*
X152473322Y-121497824D01*
X152506559Y-121471856D01*
X152511415Y-121468062D01*
X152542604Y-121431929D01*
X152642641Y-121316036D01*
X152642642Y-121316034D01*
X152646670Y-121311368D01*
X152748913Y-121131388D01*
X152814250Y-120934976D01*
X152840193Y-120729614D01*
X152840607Y-120700000D01*
X152834775Y-120640525D01*
X152832888Y-120621274D01*
X152846148Y-120551527D01*
X152895010Y-120500020D01*
X152963963Y-120483107D01*
X152973191Y-120483864D01*
X153027788Y-120490374D01*
X153033923Y-120489902D01*
X153033925Y-120489902D01*
X153131697Y-120482379D01*
X153201151Y-120497097D01*
X153251623Y-120547027D01*
X153266578Y-120622053D01*
X153264720Y-120638622D01*
X153259496Y-120685192D01*
X153260835Y-120701132D01*
X153263521Y-120733118D01*
X153276817Y-120891460D01*
X153278515Y-120897381D01*
X153278515Y-120897382D01*
X153326410Y-121064408D01*
X153333873Y-121090435D01*
X153428489Y-121274540D01*
X153557063Y-121436760D01*
X153561756Y-121440754D01*
X153561757Y-121440755D01*
X153588363Y-121463398D01*
X153714697Y-121570917D01*
X153720075Y-121573923D01*
X153720077Y-121573924D01*
X153798813Y-121617928D01*
X153895387Y-121671901D01*
X154092250Y-121735865D01*
X154297788Y-121760374D01*
X154303923Y-121759902D01*
X154303925Y-121759902D01*
X154498030Y-121744967D01*
X154498034Y-121744966D01*
X154504172Y-121744494D01*
X154510105Y-121742838D01*
X154510108Y-121742837D01*
X154697607Y-121690486D01*
X154697606Y-121690486D01*
X154703542Y-121688829D01*
X154888302Y-121595500D01*
X155013322Y-121497824D01*
X155046559Y-121471856D01*
X155051415Y-121468062D01*
X155082604Y-121431929D01*
X155182641Y-121316036D01*
X155182642Y-121316034D01*
X155186670Y-121311368D01*
X155288913Y-121131388D01*
X155354250Y-120934976D01*
X155380193Y-120729614D01*
X155380607Y-120700000D01*
X155374775Y-120640525D01*
X155372888Y-120621274D01*
X155386148Y-120551527D01*
X155435010Y-120500020D01*
X155503963Y-120483107D01*
X155513191Y-120483864D01*
X155567788Y-120490374D01*
X155573923Y-120489902D01*
X155573925Y-120489902D01*
X155671697Y-120482379D01*
X155741151Y-120497097D01*
X155791623Y-120547027D01*
X155806578Y-120622053D01*
X155804720Y-120638622D01*
X155799496Y-120685192D01*
X155800835Y-120701132D01*
X155803521Y-120733118D01*
X155816817Y-120891460D01*
X155818515Y-120897381D01*
X155818515Y-120897382D01*
X155866410Y-121064408D01*
X155873873Y-121090435D01*
X155968489Y-121274540D01*
X156097063Y-121436760D01*
X156101756Y-121440754D01*
X156101757Y-121440755D01*
X156128363Y-121463398D01*
X156254697Y-121570917D01*
X156260075Y-121573923D01*
X156260077Y-121573924D01*
X156338813Y-121617928D01*
X156435387Y-121671901D01*
X156632250Y-121735865D01*
X156837788Y-121760374D01*
X156843923Y-121759902D01*
X156843925Y-121759902D01*
X157038030Y-121744967D01*
X157038034Y-121744966D01*
X157044172Y-121744494D01*
X157050105Y-121742838D01*
X157050108Y-121742837D01*
X157237607Y-121690486D01*
X157237606Y-121690486D01*
X157243542Y-121688829D01*
X157428302Y-121595500D01*
X157553322Y-121497824D01*
X157586559Y-121471856D01*
X157591415Y-121468062D01*
X157622604Y-121431929D01*
X157722641Y-121316036D01*
X157722642Y-121316034D01*
X157726670Y-121311368D01*
X157828913Y-121131388D01*
X157894250Y-120934976D01*
X157920193Y-120729614D01*
X157920607Y-120700000D01*
X157914775Y-120640525D01*
X157912888Y-120621274D01*
X157926148Y-120551527D01*
X157975010Y-120500020D01*
X158043963Y-120483107D01*
X158053191Y-120483864D01*
X158107788Y-120490374D01*
X158113923Y-120489902D01*
X158113924Y-120489902D01*
X158151126Y-120487039D01*
X158208834Y-120482599D01*
X158278288Y-120497316D01*
X158328760Y-120547247D01*
X158344500Y-120608228D01*
X158344501Y-121064408D01*
X158344501Y-121302376D01*
X158344870Y-121305770D01*
X158344870Y-121305776D01*
X158345985Y-121316036D01*
X158351149Y-121363580D01*
X158401474Y-121497824D01*
X158406854Y-121505003D01*
X158406856Y-121505006D01*
X158475932Y-121597172D01*
X158487454Y-121612546D01*
X158494635Y-121617928D01*
X158594994Y-121693144D01*
X158594997Y-121693146D01*
X158602176Y-121698526D01*
X158691561Y-121732034D01*
X158729025Y-121746079D01*
X158729027Y-121746079D01*
X158736420Y-121748851D01*
X158744270Y-121749704D01*
X158744271Y-121749704D01*
X158794217Y-121755130D01*
X158797623Y-121755500D01*
X159399911Y-121755500D01*
X160002376Y-121755499D01*
X160005770Y-121755130D01*
X160005776Y-121755130D01*
X160055722Y-121749705D01*
X160055726Y-121749704D01*
X160063580Y-121748851D01*
X160197824Y-121698526D01*
X160205003Y-121693146D01*
X160205006Y-121693144D01*
X160305365Y-121617928D01*
X160312546Y-121612546D01*
X160324068Y-121597172D01*
X160393144Y-121505006D01*
X160393146Y-121505003D01*
X160398526Y-121497824D01*
X160448851Y-121363580D01*
X160455500Y-121302377D01*
X160455499Y-120097624D01*
X160448851Y-120036420D01*
X160398526Y-119902176D01*
X160393146Y-119894997D01*
X160393144Y-119894994D01*
X160317928Y-119794635D01*
X160312546Y-119787454D01*
X160305365Y-119782072D01*
X160205006Y-119706856D01*
X160205003Y-119706854D01*
X160197824Y-119701474D01*
X160100464Y-119664976D01*
X160070975Y-119653921D01*
X160070973Y-119653921D01*
X160063580Y-119651149D01*
X160055730Y-119650296D01*
X160055729Y-119650296D01*
X160005774Y-119644869D01*
X160005773Y-119644869D01*
X160002377Y-119644500D01*
X159982867Y-119644500D01*
X159309755Y-119644501D01*
X159241635Y-119624499D01*
X159195142Y-119570843D01*
X159184749Y-119502709D01*
X159189753Y-119463094D01*
X159190193Y-119459614D01*
X159190607Y-119430000D01*
X159182888Y-119351274D01*
X159196148Y-119281527D01*
X159245010Y-119230020D01*
X159313963Y-119213107D01*
X159323191Y-119213864D01*
X159377788Y-119220374D01*
X159383923Y-119219902D01*
X159383925Y-119219902D01*
X159578030Y-119204967D01*
X159578034Y-119204966D01*
X159584172Y-119204494D01*
X159590105Y-119202838D01*
X159590108Y-119202837D01*
X159777607Y-119150486D01*
X159777606Y-119150486D01*
X159783542Y-119148829D01*
X159968302Y-119055500D01*
X160020034Y-119015083D01*
X160126559Y-118931856D01*
X160131415Y-118928062D01*
X160212884Y-118833680D01*
X160262641Y-118776036D01*
X160262642Y-118776034D01*
X160266670Y-118771368D01*
X160278340Y-118750826D01*
X160365865Y-118596753D01*
X160368913Y-118591388D01*
X160434250Y-118394976D01*
X160460193Y-118189614D01*
X160460607Y-118160000D01*
X160440408Y-117953994D01*
X160380580Y-117755834D01*
X160283402Y-117573069D01*
X160279511Y-117568299D01*
X160279509Y-117568295D01*
X160156471Y-117417435D01*
X160156468Y-117417432D01*
X160152576Y-117412660D01*
X160128857Y-117393038D01*
X159997834Y-117284646D01*
X159997831Y-117284644D01*
X159993084Y-117280717D01*
X159811002Y-117182265D01*
X159712134Y-117151661D01*
X159619152Y-117122878D01*
X159619149Y-117122877D01*
X159613265Y-117121056D01*
X159607140Y-117120412D01*
X159607139Y-117120412D01*
X159413532Y-117100063D01*
X159413531Y-117100063D01*
X159407404Y-117099419D01*
X159320753Y-117107305D01*
X159251102Y-117093560D01*
X159199937Y-117044339D01*
X159183506Y-116975270D01*
X159184329Y-116966032D01*
X159184754Y-116962665D01*
X159190193Y-116919614D01*
X159190473Y-116899580D01*
X159190558Y-116893522D01*
X159190558Y-116893518D01*
X159190607Y-116890000D01*
X159170408Y-116683994D01*
X159110580Y-116485834D01*
X159036743Y-116346967D01*
X159016296Y-116308511D01*
X159016294Y-116308508D01*
X159013402Y-116303069D01*
X159009511Y-116298299D01*
X159009509Y-116298295D01*
X158886471Y-116147435D01*
X158886468Y-116147432D01*
X158882576Y-116142660D01*
X158875667Y-116136944D01*
X158727834Y-116014646D01*
X158727831Y-116014644D01*
X158723084Y-116010717D01*
X158541002Y-115912265D01*
X158442134Y-115881661D01*
X158349152Y-115852878D01*
X158349149Y-115852877D01*
X158343265Y-115851056D01*
X158337140Y-115850412D01*
X158337139Y-115850412D01*
X158143532Y-115830063D01*
X158143531Y-115830063D01*
X158137404Y-115829419D01*
X158050465Y-115837331D01*
X157937401Y-115847620D01*
X157937398Y-115847621D01*
X157931262Y-115848179D01*
X157732690Y-115906622D01*
X157711620Y-115917637D01*
X157554711Y-115999667D01*
X157554707Y-115999670D01*
X157549251Y-116002522D01*
X157387932Y-116132225D01*
X157254879Y-116290792D01*
X157251915Y-116296184D01*
X157251912Y-116296188D01*
X157222410Y-116349852D01*
X157155159Y-116472182D01*
X157153298Y-116478049D01*
X157153297Y-116478051D01*
X157094432Y-116663617D01*
X157092570Y-116669487D01*
X157069496Y-116875192D01*
X157070012Y-116881337D01*
X157077547Y-116971072D01*
X157063315Y-117040627D01*
X157013738Y-117091447D01*
X156938818Y-117106925D01*
X156873532Y-117100063D01*
X156873531Y-117100063D01*
X156867404Y-117099419D01*
X156780753Y-117107305D01*
X156711102Y-117093560D01*
X156659937Y-117044339D01*
X156643506Y-116975270D01*
X156644329Y-116966032D01*
X156644754Y-116962665D01*
X156650193Y-116919614D01*
X156650473Y-116899580D01*
X156650558Y-116893522D01*
X156650558Y-116893518D01*
X156650607Y-116890000D01*
X156630408Y-116683994D01*
X156570580Y-116485834D01*
X156496743Y-116346967D01*
X156476296Y-116308511D01*
X156476294Y-116308508D01*
X156473402Y-116303069D01*
X156469511Y-116298299D01*
X156469509Y-116298295D01*
X156346471Y-116147435D01*
X156346468Y-116147432D01*
X156342576Y-116142660D01*
X156335667Y-116136944D01*
X156187834Y-116014646D01*
X156187831Y-116014644D01*
X156183084Y-116010717D01*
X156001002Y-115912265D01*
X155902134Y-115881661D01*
X155809152Y-115852878D01*
X155809149Y-115852877D01*
X155803265Y-115851056D01*
X155797140Y-115850412D01*
X155797139Y-115850412D01*
X155603532Y-115830063D01*
X155603531Y-115830063D01*
X155597404Y-115829419D01*
X155510465Y-115837331D01*
X155397401Y-115847620D01*
X155397398Y-115847621D01*
X155391262Y-115848179D01*
X155192690Y-115906622D01*
X155171620Y-115917637D01*
X155014711Y-115999667D01*
X155014707Y-115999670D01*
X155009251Y-116002522D01*
X154847932Y-116132225D01*
X154714879Y-116290792D01*
X154711915Y-116296184D01*
X154711912Y-116296188D01*
X154682410Y-116349852D01*
X154615159Y-116472182D01*
X154613298Y-116478049D01*
X154613297Y-116478051D01*
X154554432Y-116663617D01*
X154552570Y-116669487D01*
X154529496Y-116875192D01*
X154530012Y-116881337D01*
X154537547Y-116971072D01*
X154523315Y-117040627D01*
X154473738Y-117091447D01*
X154398818Y-117106925D01*
X154333532Y-117100063D01*
X154333531Y-117100063D01*
X154327404Y-117099419D01*
X154240753Y-117107305D01*
X154171102Y-117093560D01*
X154119937Y-117044339D01*
X154103506Y-116975270D01*
X154104329Y-116966032D01*
X154104754Y-116962665D01*
X154110193Y-116919614D01*
X154110473Y-116899580D01*
X154110558Y-116893522D01*
X154110558Y-116893518D01*
X154110607Y-116890000D01*
X154090408Y-116683994D01*
X154030580Y-116485834D01*
X153956743Y-116346967D01*
X153936296Y-116308511D01*
X153936294Y-116308508D01*
X153933402Y-116303069D01*
X153929511Y-116298299D01*
X153929509Y-116298295D01*
X153806471Y-116147435D01*
X153806468Y-116147432D01*
X153802576Y-116142660D01*
X153795667Y-116136944D01*
X153647834Y-116014646D01*
X153647831Y-116014644D01*
X153643084Y-116010717D01*
X153461002Y-115912265D01*
X153362134Y-115881661D01*
X153269152Y-115852878D01*
X153269149Y-115852877D01*
X153263265Y-115851056D01*
X153257140Y-115850412D01*
X153257139Y-115850412D01*
X153063532Y-115830063D01*
X153063531Y-115830063D01*
X153057404Y-115829419D01*
X152970465Y-115837331D01*
X152857401Y-115847620D01*
X152857398Y-115847621D01*
X152851262Y-115848179D01*
X152652690Y-115906622D01*
X152631620Y-115917637D01*
X152474711Y-115999667D01*
X152474707Y-115999670D01*
X152469251Y-116002522D01*
X152307932Y-116132225D01*
X152174879Y-116290792D01*
X152171915Y-116296184D01*
X152171912Y-116296188D01*
X152142410Y-116349852D01*
X152075159Y-116472182D01*
X152073298Y-116478049D01*
X152073297Y-116478051D01*
X152014432Y-116663617D01*
X152012570Y-116669487D01*
X151989496Y-116875192D01*
X151990012Y-116881337D01*
X151997547Y-116971072D01*
X151983315Y-117040627D01*
X151933738Y-117091447D01*
X151858818Y-117106925D01*
X151793532Y-117100063D01*
X151793531Y-117100063D01*
X151787404Y-117099419D01*
X151700753Y-117107305D01*
X151631102Y-117093560D01*
X151579937Y-117044339D01*
X151563506Y-116975270D01*
X151564329Y-116966032D01*
X151564754Y-116962665D01*
X151570193Y-116919614D01*
X151570473Y-116899580D01*
X151570558Y-116893522D01*
X151570558Y-116893518D01*
X151570607Y-116890000D01*
X151550408Y-116683994D01*
X151490580Y-116485834D01*
X151416743Y-116346967D01*
X151396296Y-116308511D01*
X151396294Y-116308508D01*
X151393402Y-116303069D01*
X151389511Y-116298299D01*
X151389509Y-116298295D01*
X151266471Y-116147435D01*
X151266468Y-116147432D01*
X151262576Y-116142660D01*
X151255667Y-116136944D01*
X151107834Y-116014646D01*
X151107831Y-116014644D01*
X151103084Y-116010717D01*
X150921002Y-115912265D01*
X150822134Y-115881661D01*
X150729152Y-115852878D01*
X150729149Y-115852877D01*
X150723265Y-115851056D01*
X150717140Y-115850412D01*
X150717139Y-115850412D01*
X150523532Y-115830063D01*
X150523531Y-115830063D01*
X150517404Y-115829419D01*
X150430465Y-115837331D01*
X150317401Y-115847620D01*
X150317398Y-115847621D01*
X150311262Y-115848179D01*
X150112690Y-115906622D01*
X150091620Y-115917637D01*
X149934711Y-115999667D01*
X149934707Y-115999670D01*
X149929251Y-116002522D01*
X149767932Y-116132225D01*
X149634879Y-116290792D01*
X149631915Y-116296184D01*
X149631912Y-116296188D01*
X149602410Y-116349852D01*
X149535159Y-116472182D01*
X149533298Y-116478049D01*
X149533297Y-116478051D01*
X149474432Y-116663617D01*
X149472570Y-116669487D01*
X149449496Y-116875192D01*
X149450012Y-116881337D01*
X149457547Y-116971072D01*
X149443315Y-117040627D01*
X149393738Y-117091447D01*
X149318818Y-117106925D01*
X149253532Y-117100063D01*
X149253531Y-117100063D01*
X149247404Y-117099419D01*
X149160753Y-117107305D01*
X149091102Y-117093560D01*
X149039937Y-117044339D01*
X149023506Y-116975270D01*
X149024329Y-116966032D01*
X149024754Y-116962665D01*
X149030193Y-116919614D01*
X149030473Y-116899580D01*
X149030558Y-116893522D01*
X149030558Y-116893518D01*
X149030607Y-116890000D01*
X149010408Y-116683994D01*
X148950580Y-116485834D01*
X148876743Y-116346967D01*
X148856296Y-116308511D01*
X148856294Y-116308508D01*
X148853402Y-116303069D01*
X148849511Y-116298299D01*
X148849509Y-116298295D01*
X148726471Y-116147435D01*
X148726468Y-116147432D01*
X148722576Y-116142660D01*
X148715667Y-116136944D01*
X148567834Y-116014646D01*
X148567831Y-116014644D01*
X148563084Y-116010717D01*
X148381002Y-115912265D01*
X148282134Y-115881661D01*
X148189152Y-115852878D01*
X148189149Y-115852877D01*
X148183265Y-115851056D01*
X148177140Y-115850412D01*
X148177139Y-115850412D01*
X147983532Y-115830063D01*
X147983531Y-115830063D01*
X147977404Y-115829419D01*
X147890465Y-115837331D01*
X147777401Y-115847620D01*
X147777398Y-115847621D01*
X147771262Y-115848179D01*
X147572690Y-115906622D01*
X147551620Y-115917637D01*
X147394711Y-115999667D01*
X147394707Y-115999670D01*
X147389251Y-116002522D01*
X147227932Y-116132225D01*
X147094879Y-116290792D01*
X147091915Y-116296184D01*
X147091912Y-116296188D01*
X147062410Y-116349852D01*
X146995159Y-116472182D01*
X146993298Y-116478049D01*
X146993297Y-116478051D01*
X146934432Y-116663617D01*
X146932570Y-116669487D01*
X146909496Y-116875192D01*
X146910012Y-116881337D01*
X146916908Y-116963463D01*
X146902676Y-117033018D01*
X146853099Y-117083838D01*
X146778180Y-117099316D01*
X146713587Y-117092527D01*
X146701317Y-117092442D01*
X146629366Y-117098990D01*
X146559713Y-117085245D01*
X146508548Y-117036024D01*
X146492117Y-116966955D01*
X146492940Y-116957717D01*
X146497285Y-116923326D01*
X146497776Y-116916301D01*
X146498094Y-116893505D01*
X146497801Y-116886513D01*
X146478401Y-116688664D01*
X146476018Y-116676627D01*
X146419328Y-116488862D01*
X146414654Y-116477521D01*
X146349230Y-116354478D01*
X146339371Y-116344398D01*
X146332243Y-116346967D01*
X145802022Y-116877188D01*
X145794408Y-116891132D01*
X145794539Y-116892965D01*
X145798790Y-116899580D01*
X146970115Y-118070905D01*
X147004141Y-118133217D01*
X146999076Y-118204032D01*
X146970115Y-118249095D01*
X145802022Y-119417188D01*
X145794408Y-119431132D01*
X145064356Y-119431132D01*
X145065592Y-119428868D01*
X145065461Y-119427035D01*
X145061210Y-119420420D01*
X144172812Y-118532022D01*
X144158868Y-118524408D01*
X144157035Y-118524539D01*
X144150420Y-118528790D01*
X143262022Y-119417188D01*
X143254408Y-119431132D01*
X142524356Y-119431132D01*
X142525592Y-119428868D01*
X142525461Y-119427035D01*
X142521210Y-119420420D01*
X141992620Y-118891830D01*
X141980240Y-118885070D01*
X141973852Y-118889852D01*
X141911198Y-119003819D01*
X141906370Y-119015083D01*
X141847060Y-119202052D01*
X141844512Y-119214040D01*
X141822648Y-119408961D01*
X141822477Y-119421230D01*
X140876594Y-119421230D01*
X140879326Y-119390000D01*
X140860042Y-119169583D01*
X140832143Y-119065461D01*
X140804199Y-118961174D01*
X140804198Y-118961172D01*
X140802776Y-118955864D01*
X140779723Y-118906426D01*
X140711594Y-118760322D01*
X140711591Y-118760317D01*
X140709268Y-118755335D01*
X140651074Y-118672225D01*
X140585518Y-118578601D01*
X140585516Y-118578598D01*
X140582359Y-118574090D01*
X140528611Y-118520342D01*
X142344061Y-118520342D01*
X142346516Y-118527306D01*
X142877188Y-119057978D01*
X142891132Y-119065592D01*
X142892965Y-119065461D01*
X142899580Y-119061210D01*
X143787978Y-118172812D01*
X143794356Y-118161132D01*
X144524408Y-118161132D01*
X144524539Y-118162965D01*
X144528790Y-118169580D01*
X145417188Y-119057978D01*
X145431132Y-119065592D01*
X145432965Y-119065461D01*
X145439580Y-119061210D01*
X146327978Y-118172812D01*
X146335592Y-118158868D01*
X146335461Y-118157035D01*
X146331210Y-118150420D01*
X145442812Y-117262022D01*
X145428868Y-117254408D01*
X145427035Y-117254539D01*
X145420420Y-117258790D01*
X144532022Y-118147188D01*
X144524408Y-118161132D01*
X143794356Y-118161132D01*
X143795592Y-118158868D01*
X143795461Y-118157035D01*
X143791210Y-118150420D01*
X142902812Y-117262022D01*
X142888868Y-117254408D01*
X142887035Y-117254539D01*
X142880420Y-117258790D01*
X142352038Y-117787172D01*
X142345278Y-117799552D01*
X142350187Y-117806110D01*
X142456992Y-117865800D01*
X142468232Y-117870711D01*
X142654777Y-117931323D01*
X142666744Y-117933955D01*
X142861519Y-117957180D01*
X142873768Y-117957437D01*
X142963233Y-117950553D01*
X143032687Y-117965270D01*
X143083159Y-118015201D01*
X143098114Y-118090226D01*
X143092648Y-118138959D01*
X143092477Y-118151230D01*
X143099315Y-118232665D01*
X143085083Y-118302220D01*
X143035506Y-118353040D01*
X142960587Y-118368518D01*
X142903587Y-118362527D01*
X142891317Y-118362442D01*
X142695989Y-118380218D01*
X142683940Y-118382516D01*
X142495776Y-118437896D01*
X142484408Y-118442489D01*
X142354210Y-118510555D01*
X142344061Y-118520342D01*
X140528611Y-118520342D01*
X140425906Y-118417637D01*
X140421398Y-118414480D01*
X140421395Y-118414478D01*
X140249170Y-118293885D01*
X140249168Y-118293884D01*
X140244661Y-118290728D01*
X140239679Y-118288405D01*
X140239674Y-118288402D01*
X140166316Y-118254195D01*
X140113031Y-118207278D01*
X140093570Y-118139000D01*
X140114112Y-118071040D01*
X140166316Y-118025805D01*
X140239674Y-117991598D01*
X140239679Y-117991595D01*
X140244661Y-117989272D01*
X140274221Y-117968574D01*
X140421395Y-117865522D01*
X140421398Y-117865520D01*
X140425906Y-117862363D01*
X140582359Y-117705910D01*
X140609999Y-117666437D01*
X140706111Y-117529174D01*
X140706112Y-117529172D01*
X140709268Y-117524665D01*
X140711591Y-117519683D01*
X140711594Y-117519678D01*
X140800453Y-117329118D01*
X140800453Y-117329117D01*
X140802776Y-117324136D01*
X140812273Y-117288695D01*
X140858618Y-117115732D01*
X140858618Y-117115730D01*
X140860042Y-117110417D01*
X140879326Y-116890000D01*
X140878559Y-116881230D01*
X141822477Y-116881230D01*
X141838889Y-117076679D01*
X141841104Y-117088744D01*
X141895166Y-117277283D01*
X141899685Y-117288695D01*
X141970300Y-117426096D01*
X141980019Y-117436315D01*
X141986819Y-117433971D01*
X142517978Y-116902812D01*
X142524356Y-116891132D01*
X143254408Y-116891132D01*
X143254539Y-116892965D01*
X143258790Y-116899580D01*
X144147188Y-117787978D01*
X144161132Y-117795592D01*
X144162965Y-117795461D01*
X144169580Y-117791210D01*
X145057978Y-116902812D01*
X145065592Y-116888868D01*
X145065461Y-116887035D01*
X145061210Y-116880420D01*
X144532620Y-116351830D01*
X144520240Y-116345070D01*
X144513852Y-116349852D01*
X144451198Y-116463819D01*
X144446370Y-116475083D01*
X144387060Y-116662052D01*
X144384512Y-116674040D01*
X144362648Y-116868961D01*
X144362477Y-116881230D01*
X144369315Y-116962665D01*
X144355083Y-117032220D01*
X144305506Y-117083040D01*
X144230587Y-117098518D01*
X144173587Y-117092527D01*
X144161317Y-117092442D01*
X144089366Y-117098990D01*
X144019713Y-117085245D01*
X143968548Y-117036024D01*
X143952117Y-116966955D01*
X143952940Y-116957717D01*
X143957285Y-116923326D01*
X143957776Y-116916301D01*
X143958094Y-116893505D01*
X143957801Y-116886513D01*
X143938401Y-116688664D01*
X143936018Y-116676627D01*
X143879328Y-116488862D01*
X143874654Y-116477521D01*
X143809230Y-116354478D01*
X143799371Y-116344398D01*
X143792243Y-116346967D01*
X143262022Y-116877188D01*
X143254408Y-116891132D01*
X142524356Y-116891132D01*
X142525592Y-116888868D01*
X142525461Y-116887035D01*
X142521210Y-116880420D01*
X141992620Y-116351830D01*
X141980240Y-116345070D01*
X141973852Y-116349852D01*
X141911198Y-116463819D01*
X141906370Y-116475083D01*
X141847060Y-116662052D01*
X141844512Y-116674040D01*
X141822648Y-116868961D01*
X141822477Y-116881230D01*
X140878559Y-116881230D01*
X140860042Y-116669583D01*
X140858618Y-116664268D01*
X140804199Y-116461174D01*
X140804198Y-116461172D01*
X140802776Y-116455864D01*
X140779723Y-116406426D01*
X140711594Y-116260322D01*
X140711591Y-116260317D01*
X140709268Y-116255335D01*
X140633716Y-116147435D01*
X140585518Y-116078601D01*
X140585516Y-116078598D01*
X140582359Y-116074090D01*
X140488611Y-115980342D01*
X142344061Y-115980342D01*
X142346516Y-115987306D01*
X142877188Y-116517978D01*
X142891132Y-116525592D01*
X142892965Y-116525461D01*
X142899580Y-116521210D01*
X143428418Y-115992372D01*
X143434987Y-115980342D01*
X144884061Y-115980342D01*
X144886516Y-115987306D01*
X145417188Y-116517978D01*
X145431132Y-116525592D01*
X145432965Y-116525461D01*
X145439580Y-116521210D01*
X145968418Y-115992372D01*
X145975178Y-115979992D01*
X145970519Y-115973769D01*
X145849340Y-115908248D01*
X145838035Y-115903496D01*
X145650667Y-115845496D01*
X145638654Y-115843030D01*
X145443585Y-115822527D01*
X145431317Y-115822442D01*
X145235989Y-115840218D01*
X145223940Y-115842516D01*
X145035776Y-115897896D01*
X145024408Y-115902489D01*
X144894210Y-115970555D01*
X144884061Y-115980342D01*
X143434987Y-115980342D01*
X143435178Y-115979992D01*
X143430519Y-115973769D01*
X143309340Y-115908248D01*
X143298035Y-115903496D01*
X143110667Y-115845496D01*
X143098654Y-115843030D01*
X142903585Y-115822527D01*
X142891317Y-115822442D01*
X142695989Y-115840218D01*
X142683940Y-115842516D01*
X142495776Y-115897896D01*
X142484408Y-115902489D01*
X142354210Y-115970555D01*
X142344061Y-115980342D01*
X140488611Y-115980342D01*
X140425906Y-115917637D01*
X140421398Y-115914480D01*
X140421395Y-115914478D01*
X140249170Y-115793885D01*
X140249168Y-115793884D01*
X140244661Y-115790728D01*
X140239679Y-115788405D01*
X140239674Y-115788402D01*
X140049114Y-115699543D01*
X140049113Y-115699543D01*
X140044132Y-115697220D01*
X140038824Y-115695798D01*
X140038822Y-115695797D01*
X139835728Y-115641378D01*
X139835726Y-115641378D01*
X139830413Y-115639954D01*
X139609996Y-115620670D01*
X139389579Y-115639954D01*
X139384266Y-115641378D01*
X139384264Y-115641378D01*
X139181170Y-115695797D01*
X139181168Y-115695798D01*
X139175860Y-115697220D01*
X139170879Y-115699543D01*
X139170878Y-115699543D01*
X138980318Y-115788402D01*
X138980313Y-115788405D01*
X138975331Y-115790728D01*
X138970824Y-115793884D01*
X138970822Y-115793885D01*
X138798597Y-115914478D01*
X138798594Y-115914480D01*
X138794086Y-115917637D01*
X138637633Y-116074090D01*
X138634476Y-116078598D01*
X138634474Y-116078601D01*
X138586276Y-116147435D01*
X138510724Y-116255335D01*
X138508401Y-116260317D01*
X138508398Y-116260322D01*
X138474191Y-116333680D01*
X138427274Y-116386965D01*
X138358996Y-116406426D01*
X138291036Y-116385884D01*
X138245801Y-116333680D01*
X138211594Y-116260322D01*
X138211591Y-116260317D01*
X138209268Y-116255335D01*
X138133716Y-116147435D01*
X138085518Y-116078601D01*
X138085516Y-116078598D01*
X138082359Y-116074090D01*
X137925906Y-115917637D01*
X137921398Y-115914480D01*
X137921395Y-115914478D01*
X137749170Y-115793885D01*
X137749168Y-115793884D01*
X137744661Y-115790728D01*
X137739679Y-115788405D01*
X137739674Y-115788402D01*
X137549114Y-115699543D01*
X137549113Y-115699543D01*
X137544132Y-115697220D01*
X137538824Y-115695798D01*
X137538822Y-115695797D01*
X137335728Y-115641378D01*
X137335726Y-115641378D01*
X137330413Y-115639954D01*
X137109996Y-115620670D01*
X136889579Y-115639954D01*
X136884266Y-115641378D01*
X136884264Y-115641378D01*
X136681170Y-115695797D01*
X136681168Y-115695798D01*
X136675860Y-115697220D01*
X136670879Y-115699543D01*
X136670878Y-115699543D01*
X136480318Y-115788402D01*
X136480313Y-115788405D01*
X136475331Y-115790728D01*
X136470824Y-115793884D01*
X136470822Y-115793885D01*
X136298597Y-115914478D01*
X136298594Y-115914480D01*
X136294086Y-115917637D01*
X136137633Y-116074090D01*
X136134476Y-116078598D01*
X136134474Y-116078601D01*
X136086276Y-116147435D01*
X136010724Y-116255335D01*
X136008401Y-116260317D01*
X136008398Y-116260322D01*
X135974191Y-116333680D01*
X135927274Y-116386965D01*
X135858996Y-116406426D01*
X135791036Y-116385884D01*
X135745801Y-116333680D01*
X135711594Y-116260322D01*
X135711591Y-116260317D01*
X135709268Y-116255335D01*
X135633716Y-116147435D01*
X135585518Y-116078601D01*
X135585516Y-116078598D01*
X135582359Y-116074090D01*
X135425906Y-115917637D01*
X135421398Y-115914480D01*
X135421395Y-115914478D01*
X135249170Y-115793885D01*
X135249168Y-115793884D01*
X135244661Y-115790728D01*
X135239679Y-115788405D01*
X135239674Y-115788402D01*
X135049114Y-115699543D01*
X135049113Y-115699543D01*
X135044132Y-115697220D01*
X135038824Y-115695798D01*
X135038822Y-115695797D01*
X134835728Y-115641378D01*
X134835726Y-115641378D01*
X134830413Y-115639954D01*
X134609996Y-115620670D01*
X134389579Y-115639954D01*
X134384266Y-115641378D01*
X134384264Y-115641378D01*
X134181170Y-115695797D01*
X134181168Y-115695798D01*
X134175860Y-115697220D01*
X134170879Y-115699543D01*
X134170878Y-115699543D01*
X133980318Y-115788402D01*
X133980313Y-115788405D01*
X133975331Y-115790728D01*
X133970824Y-115793884D01*
X133970822Y-115793885D01*
X133798597Y-115914478D01*
X133798594Y-115914480D01*
X133794086Y-115917637D01*
X133637633Y-116074090D01*
X133634476Y-116078598D01*
X133634474Y-116078601D01*
X133586276Y-116147435D01*
X133510724Y-116255335D01*
X133508401Y-116260317D01*
X133508398Y-116260322D01*
X133474191Y-116333680D01*
X133427274Y-116386965D01*
X133358996Y-116406426D01*
X133291036Y-116385884D01*
X133245801Y-116333680D01*
X133211594Y-116260322D01*
X133211591Y-116260317D01*
X133209268Y-116255335D01*
X133133716Y-116147435D01*
X133085518Y-116078601D01*
X133085516Y-116078598D01*
X133082359Y-116074090D01*
X132925906Y-115917637D01*
X132921398Y-115914480D01*
X132921395Y-115914478D01*
X132749170Y-115793885D01*
X132749168Y-115793884D01*
X132744661Y-115790728D01*
X132739679Y-115788405D01*
X132739674Y-115788402D01*
X132549114Y-115699543D01*
X132549113Y-115699543D01*
X132544132Y-115697220D01*
X132538824Y-115695798D01*
X132538822Y-115695797D01*
X132335728Y-115641378D01*
X132335726Y-115641378D01*
X132330413Y-115639954D01*
X132109996Y-115620670D01*
X131889579Y-115639954D01*
X131884266Y-115641378D01*
X131884264Y-115641378D01*
X131681170Y-115695797D01*
X131681168Y-115695798D01*
X131675860Y-115697220D01*
X131670879Y-115699543D01*
X131670878Y-115699543D01*
X131480318Y-115788402D01*
X131480313Y-115788405D01*
X131475331Y-115790728D01*
X131470824Y-115793884D01*
X131470822Y-115793885D01*
X131298597Y-115914478D01*
X131298594Y-115914480D01*
X131294086Y-115917637D01*
X131137633Y-116074090D01*
X131134476Y-116078598D01*
X131134474Y-116078601D01*
X131086276Y-116147435D01*
X131010724Y-116255335D01*
X131008399Y-116260320D01*
X131008396Y-116260326D01*
X130974193Y-116333676D01*
X130927276Y-116386962D01*
X130858999Y-116406423D01*
X130791039Y-116385882D01*
X130745804Y-116333678D01*
X130711600Y-116260327D01*
X130711594Y-116260316D01*
X130709271Y-116255335D01*
X130633719Y-116147435D01*
X130585521Y-116078601D01*
X130585519Y-116078598D01*
X130582362Y-116074090D01*
X130425909Y-115917637D01*
X130421401Y-115914480D01*
X130421398Y-115914478D01*
X130249173Y-115793885D01*
X130249171Y-115793884D01*
X130244664Y-115790728D01*
X130239682Y-115788405D01*
X130239677Y-115788402D01*
X130049117Y-115699543D01*
X130049116Y-115699543D01*
X130044135Y-115697220D01*
X130038827Y-115695798D01*
X130038825Y-115695797D01*
X129835731Y-115641378D01*
X129835729Y-115641378D01*
X129830416Y-115639954D01*
X129609999Y-115620670D01*
X129389582Y-115639954D01*
X129384269Y-115641378D01*
X129384267Y-115641378D01*
X129181173Y-115695797D01*
X129181171Y-115695798D01*
X129175863Y-115697220D01*
X129170882Y-115699543D01*
X129170881Y-115699543D01*
X128980321Y-115788402D01*
X128980316Y-115788405D01*
X128975334Y-115790728D01*
X128970827Y-115793884D01*
X128970825Y-115793885D01*
X128798600Y-115914478D01*
X128798597Y-115914480D01*
X128794089Y-115917637D01*
X128699092Y-116012634D01*
X128636780Y-116046660D01*
X128565965Y-116041595D01*
X128520902Y-116012634D01*
X128425905Y-115917637D01*
X128421397Y-115914480D01*
X128421394Y-115914478D01*
X128249169Y-115793885D01*
X128249167Y-115793884D01*
X128244660Y-115790728D01*
X128239678Y-115788405D01*
X128239673Y-115788402D01*
X128049113Y-115699543D01*
X128049112Y-115699543D01*
X128044131Y-115697220D01*
X128038823Y-115695798D01*
X128038821Y-115695797D01*
X127835727Y-115641378D01*
X127835725Y-115641378D01*
X127830412Y-115639954D01*
X127609995Y-115620670D01*
X127389578Y-115639954D01*
X127384265Y-115641378D01*
X127384263Y-115641378D01*
X127181169Y-115695797D01*
X127181167Y-115695798D01*
X127175859Y-115697220D01*
X127170878Y-115699543D01*
X127170877Y-115699543D01*
X126980317Y-115788402D01*
X126980312Y-115788405D01*
X126975330Y-115790728D01*
X126970823Y-115793884D01*
X126970821Y-115793885D01*
X126798596Y-115914478D01*
X126798593Y-115914480D01*
X126794085Y-115917637D01*
X126637632Y-116074090D01*
X126634475Y-116078598D01*
X126634473Y-116078601D01*
X126586275Y-116147435D01*
X126510723Y-116255335D01*
X126508400Y-116260317D01*
X126508397Y-116260322D01*
X126474190Y-116333680D01*
X126427273Y-116386965D01*
X126358995Y-116406426D01*
X126291035Y-116385884D01*
X126245800Y-116333680D01*
X126211593Y-116260322D01*
X126211590Y-116260317D01*
X126209267Y-116255335D01*
X126133715Y-116147435D01*
X126085517Y-116078601D01*
X126085515Y-116078598D01*
X126082358Y-116074090D01*
X125925905Y-115917637D01*
X125921397Y-115914480D01*
X125921394Y-115914478D01*
X125749169Y-115793885D01*
X125749167Y-115793884D01*
X125744660Y-115790728D01*
X125739678Y-115788405D01*
X125739673Y-115788402D01*
X125549113Y-115699543D01*
X125549112Y-115699543D01*
X125544131Y-115697220D01*
X125538823Y-115695798D01*
X125538821Y-115695797D01*
X125335727Y-115641378D01*
X125335725Y-115641378D01*
X125330412Y-115639954D01*
X125109995Y-115620670D01*
X124889578Y-115639954D01*
X124884265Y-115641378D01*
X124884263Y-115641378D01*
X124681169Y-115695797D01*
X124681167Y-115695798D01*
X124675859Y-115697220D01*
X124670878Y-115699543D01*
X124670877Y-115699543D01*
X124480317Y-115788402D01*
X124480312Y-115788405D01*
X124475330Y-115790728D01*
X124470823Y-115793884D01*
X124470821Y-115793885D01*
X124298596Y-115914478D01*
X124298593Y-115914480D01*
X124294085Y-115917637D01*
X124137632Y-116074090D01*
X124134475Y-116078598D01*
X124134473Y-116078601D01*
X124086275Y-116147435D01*
X124010723Y-116255335D01*
X124008400Y-116260317D01*
X124008397Y-116260322D01*
X123974190Y-116333680D01*
X123927273Y-116386965D01*
X123858995Y-116406426D01*
X123791035Y-116385884D01*
X123745800Y-116333680D01*
X123711593Y-116260322D01*
X123711590Y-116260317D01*
X123709267Y-116255335D01*
X123633715Y-116147435D01*
X123585517Y-116078601D01*
X123585515Y-116078598D01*
X123582358Y-116074090D01*
X123425905Y-115917637D01*
X123421397Y-115914480D01*
X123421394Y-115914478D01*
X123249169Y-115793885D01*
X123249167Y-115793884D01*
X123244660Y-115790728D01*
X123239678Y-115788405D01*
X123239673Y-115788402D01*
X123049113Y-115699543D01*
X123049112Y-115699543D01*
X123044131Y-115697220D01*
X123038823Y-115695798D01*
X123038821Y-115695797D01*
X122835727Y-115641378D01*
X122835725Y-115641378D01*
X122830412Y-115639954D01*
X122609995Y-115620670D01*
X122389578Y-115639954D01*
X122384265Y-115641378D01*
X122384263Y-115641378D01*
X122181169Y-115695797D01*
X122181167Y-115695798D01*
X122175859Y-115697220D01*
X122170878Y-115699543D01*
X122170877Y-115699543D01*
X121980317Y-115788402D01*
X121980312Y-115788405D01*
X121975330Y-115790728D01*
X121970823Y-115793884D01*
X121970821Y-115793885D01*
X121798596Y-115914478D01*
X121798593Y-115914480D01*
X121794085Y-115917637D01*
X121637632Y-116074090D01*
X121634475Y-116078598D01*
X121634473Y-116078601D01*
X121586275Y-116147435D01*
X121510723Y-116255335D01*
X121508400Y-116260317D01*
X121508397Y-116260322D01*
X121474190Y-116333680D01*
X121427273Y-116386965D01*
X121358995Y-116406426D01*
X121291035Y-116385884D01*
X121245800Y-116333680D01*
X121211593Y-116260322D01*
X121211590Y-116260317D01*
X121209267Y-116255335D01*
X121133715Y-116147435D01*
X121085517Y-116078601D01*
X121085515Y-116078598D01*
X121082358Y-116074090D01*
X120925905Y-115917637D01*
X120921397Y-115914480D01*
X120921394Y-115914478D01*
X120749169Y-115793885D01*
X120749167Y-115793884D01*
X120744660Y-115790728D01*
X120739678Y-115788405D01*
X120739673Y-115788402D01*
X120549113Y-115699543D01*
X120549112Y-115699543D01*
X120544131Y-115697220D01*
X120538823Y-115695798D01*
X120538821Y-115695797D01*
X120335727Y-115641378D01*
X120335725Y-115641378D01*
X120330412Y-115639954D01*
X120109995Y-115620670D01*
X119889578Y-115639954D01*
X119884265Y-115641378D01*
X119884263Y-115641378D01*
X119681169Y-115695797D01*
X119681167Y-115695798D01*
X119675859Y-115697220D01*
X119670878Y-115699543D01*
X119670877Y-115699543D01*
X119480317Y-115788402D01*
X119480312Y-115788405D01*
X119475330Y-115790728D01*
X119470823Y-115793884D01*
X119470821Y-115793885D01*
X119298596Y-115914478D01*
X119298593Y-115914480D01*
X119294085Y-115917637D01*
X119137632Y-116074090D01*
X119134475Y-116078598D01*
X119134473Y-116078601D01*
X119086275Y-116147435D01*
X119010723Y-116255335D01*
X119008400Y-116260317D01*
X119008397Y-116260322D01*
X118974190Y-116333680D01*
X118927273Y-116386965D01*
X118858995Y-116406426D01*
X118791035Y-116385884D01*
X118745800Y-116333680D01*
X118711593Y-116260322D01*
X118711590Y-116260317D01*
X118709267Y-116255335D01*
X118633715Y-116147435D01*
X118585517Y-116078601D01*
X118585515Y-116078598D01*
X118582358Y-116074090D01*
X118425905Y-115917637D01*
X118421397Y-115914480D01*
X118421394Y-115914478D01*
X118249169Y-115793885D01*
X118249167Y-115793884D01*
X118244660Y-115790728D01*
X118239678Y-115788405D01*
X118239673Y-115788402D01*
X118049113Y-115699543D01*
X118049112Y-115699543D01*
X118044131Y-115697220D01*
X118038823Y-115695798D01*
X118038821Y-115695797D01*
X117835727Y-115641378D01*
X117835725Y-115641378D01*
X117830412Y-115639954D01*
X117609995Y-115620670D01*
X117389578Y-115639954D01*
X117384265Y-115641378D01*
X117384263Y-115641378D01*
X117181169Y-115695797D01*
X117181167Y-115695798D01*
X117175859Y-115697220D01*
X117170878Y-115699543D01*
X117170877Y-115699543D01*
X116980317Y-115788402D01*
X116980312Y-115788405D01*
X116975330Y-115790728D01*
X116970823Y-115793884D01*
X116970821Y-115793885D01*
X116798596Y-115914478D01*
X116798593Y-115914480D01*
X116794085Y-115917637D01*
X116637632Y-116074090D01*
X116634475Y-116078598D01*
X116634473Y-116078601D01*
X116586275Y-116147435D01*
X116510723Y-116255335D01*
X116508400Y-116260317D01*
X116508397Y-116260322D01*
X116440268Y-116406426D01*
X116417215Y-116455864D01*
X116415793Y-116461172D01*
X116415792Y-116461174D01*
X116361373Y-116664268D01*
X116359949Y-116669583D01*
X116340665Y-116890000D01*
X116359949Y-117110417D01*
X116361373Y-117115730D01*
X116361373Y-117115732D01*
X116407719Y-117288695D01*
X116417215Y-117324136D01*
X116419538Y-117329117D01*
X116419538Y-117329118D01*
X116508397Y-117519678D01*
X116508400Y-117519683D01*
X116510723Y-117524665D01*
X116513879Y-117529172D01*
X116513880Y-117529174D01*
X116609993Y-117666437D01*
X116637632Y-117705910D01*
X116794085Y-117862363D01*
X116798593Y-117865520D01*
X116798596Y-117865522D01*
X116945770Y-117968574D01*
X116975330Y-117989272D01*
X116980312Y-117991595D01*
X116980317Y-117991598D01*
X117053675Y-118025805D01*
X117106960Y-118072722D01*
X117126421Y-118141000D01*
X117105879Y-118208960D01*
X117053675Y-118254195D01*
X116980317Y-118288402D01*
X116980312Y-118288405D01*
X116975330Y-118290728D01*
X116970823Y-118293884D01*
X116970821Y-118293885D01*
X116798596Y-118414478D01*
X116798593Y-118414480D01*
X116794085Y-118417637D01*
X116637632Y-118574090D01*
X116634475Y-118578598D01*
X116634473Y-118578601D01*
X116568917Y-118672225D01*
X116510723Y-118755335D01*
X116508400Y-118760317D01*
X116508397Y-118760322D01*
X116440268Y-118906426D01*
X116417215Y-118955864D01*
X116415793Y-118961172D01*
X116415792Y-118961174D01*
X116387848Y-119065461D01*
X116359949Y-119169583D01*
X116340665Y-119390000D01*
X111460000Y-119390000D01*
X111460000Y-111046346D01*
X155304867Y-111046346D01*
X155330307Y-111369579D01*
X155394948Y-111687304D01*
X155497829Y-111994782D01*
X155637415Y-112287430D01*
X155811625Y-112560885D01*
X156017863Y-112811072D01*
X156253054Y-113034259D01*
X156513691Y-113227121D01*
X156654790Y-113306951D01*
X156792532Y-113384882D01*
X156792536Y-113384884D01*
X156795889Y-113386781D01*
X157095442Y-113510860D01*
X157407883Y-113597507D01*
X157728555Y-113645432D01*
X157731853Y-113645576D01*
X157843257Y-113650440D01*
X157843261Y-113650440D01*
X157844633Y-113650500D01*
X158042354Y-113650500D01*
X158283629Y-113635743D01*
X158287412Y-113635042D01*
X158287419Y-113635041D01*
X158489931Y-113597507D01*
X158602433Y-113576656D01*
X158815785Y-113509386D01*
X158907987Y-113480315D01*
X158907990Y-113480314D01*
X158911659Y-113479157D01*
X158915156Y-113477563D01*
X158915162Y-113477561D01*
X159203191Y-113346299D01*
X159203195Y-113346297D01*
X159206699Y-113344700D01*
X159483153Y-113175289D01*
X159486157Y-113172899D01*
X159486162Y-113172896D01*
X159610027Y-113074369D01*
X159736901Y-112973449D01*
X159739595Y-112970708D01*
X159739599Y-112970704D01*
X159961463Y-112744932D01*
X159964159Y-112742189D01*
X160050945Y-112629088D01*
X160159205Y-112488001D01*
X160159210Y-112487993D01*
X160161540Y-112484957D01*
X160326101Y-112205589D01*
X160455389Y-111908247D01*
X160547476Y-111597366D01*
X160600990Y-111277579D01*
X160615133Y-110953654D01*
X160589693Y-110630421D01*
X160525052Y-110312696D01*
X160422171Y-110005218D01*
X160282585Y-109712570D01*
X160108375Y-109439115D01*
X159902137Y-109188928D01*
X159666946Y-108965741D01*
X159406309Y-108772879D01*
X159265210Y-108693049D01*
X159127468Y-108615118D01*
X159127464Y-108615116D01*
X159124111Y-108613219D01*
X158824558Y-108489140D01*
X158512117Y-108402493D01*
X158191445Y-108354568D01*
X158188147Y-108354424D01*
X158076743Y-108349560D01*
X158076739Y-108349560D01*
X158075367Y-108349500D01*
X157877646Y-108349500D01*
X157636371Y-108364257D01*
X157632588Y-108364958D01*
X157632581Y-108364959D01*
X157476969Y-108393801D01*
X157317567Y-108423344D01*
X157132930Y-108481560D01*
X157012013Y-108519685D01*
X157012010Y-108519686D01*
X157008341Y-108520843D01*
X157004844Y-108522437D01*
X157004838Y-108522439D01*
X156716809Y-108653701D01*
X156716805Y-108653703D01*
X156713301Y-108655300D01*
X156436847Y-108824711D01*
X156433843Y-108827101D01*
X156433838Y-108827104D01*
X156309973Y-108925631D01*
X156183099Y-109026551D01*
X156180405Y-109029292D01*
X156180401Y-109029296D01*
X156065515Y-109146206D01*
X155955841Y-109257811D01*
X155869055Y-109370912D01*
X155760795Y-109511999D01*
X155760790Y-109512007D01*
X155758460Y-109515043D01*
X155593899Y-109794411D01*
X155464611Y-110091753D01*
X155372524Y-110402634D01*
X155319010Y-110722421D01*
X155304867Y-111046346D01*
X111460000Y-111046346D01*
X111460000Y-94646346D01*
X138904867Y-94646346D01*
X138930307Y-94969579D01*
X138994948Y-95287304D01*
X139097829Y-95594782D01*
X139237415Y-95887430D01*
X139411625Y-96160885D01*
X139617863Y-96411072D01*
X139853054Y-96634259D01*
X140113691Y-96827121D01*
X140254790Y-96906951D01*
X140392532Y-96984882D01*
X140392536Y-96984884D01*
X140395889Y-96986781D01*
X140695442Y-97110860D01*
X141007883Y-97197507D01*
X141328555Y-97245432D01*
X141331853Y-97245576D01*
X141443257Y-97250440D01*
X141443261Y-97250440D01*
X141444633Y-97250500D01*
X141642354Y-97250500D01*
X141883629Y-97235743D01*
X141887412Y-97235042D01*
X141887419Y-97235041D01*
X142089931Y-97197507D01*
X142202433Y-97176656D01*
X142415785Y-97109386D01*
X142507987Y-97080315D01*
X142507990Y-97080314D01*
X142511659Y-97079157D01*
X142515156Y-97077563D01*
X142515162Y-97077561D01*
X142803191Y-96946299D01*
X142803195Y-96946297D01*
X142806699Y-96944700D01*
X143083153Y-96775289D01*
X143086157Y-96772899D01*
X143086162Y-96772896D01*
X143210027Y-96674369D01*
X143336901Y-96573449D01*
X143339595Y-96570708D01*
X143339599Y-96570704D01*
X143561463Y-96344932D01*
X143564159Y-96342189D01*
X143650945Y-96229088D01*
X143759205Y-96088001D01*
X143759210Y-96087993D01*
X143761540Y-96084957D01*
X143926101Y-95805589D01*
X144055389Y-95508247D01*
X144147476Y-95197366D01*
X144200990Y-94877579D01*
X144215133Y-94553654D01*
X144189693Y-94230421D01*
X144125052Y-93912696D01*
X144022171Y-93605218D01*
X143882585Y-93312570D01*
X143708375Y-93039115D01*
X143502137Y-92788928D01*
X143266946Y-92565741D01*
X143006309Y-92372879D01*
X142865210Y-92293049D01*
X142727468Y-92215118D01*
X142727464Y-92215116D01*
X142724111Y-92213219D01*
X142424558Y-92089140D01*
X142112117Y-92002493D01*
X141791445Y-91954568D01*
X141788147Y-91954424D01*
X141676743Y-91949560D01*
X141676739Y-91949560D01*
X141675367Y-91949500D01*
X141477646Y-91949500D01*
X141236371Y-91964257D01*
X141232588Y-91964958D01*
X141232581Y-91964959D01*
X141076969Y-91993800D01*
X140917567Y-92023344D01*
X140732930Y-92081560D01*
X140612013Y-92119685D01*
X140612010Y-92119686D01*
X140608341Y-92120843D01*
X140604844Y-92122437D01*
X140604838Y-92122439D01*
X140316809Y-92253701D01*
X140316805Y-92253703D01*
X140313301Y-92255300D01*
X140036847Y-92424711D01*
X140033843Y-92427101D01*
X140033838Y-92427104D01*
X139909973Y-92525631D01*
X139783099Y-92626551D01*
X139780405Y-92629292D01*
X139780401Y-92629296D01*
X139665515Y-92746206D01*
X139555841Y-92857811D01*
X139469055Y-92970912D01*
X139360795Y-93111999D01*
X139360790Y-93112007D01*
X139358460Y-93115043D01*
X139193899Y-93394411D01*
X139064611Y-93691753D01*
X138972524Y-94002634D01*
X138919010Y-94322421D01*
X138904867Y-94646346D01*
X111460000Y-94646346D01*
X111460000Y-78046346D01*
X155304867Y-78046346D01*
X155330307Y-78369579D01*
X155394948Y-78687304D01*
X155497829Y-78994782D01*
X155637415Y-79287430D01*
X155811625Y-79560885D01*
X156017863Y-79811072D01*
X156253054Y-80034259D01*
X156513691Y-80227121D01*
X156654790Y-80306951D01*
X156792532Y-80384882D01*
X156792536Y-80384884D01*
X156795889Y-80386781D01*
X157095442Y-80510860D01*
X157407883Y-80597507D01*
X157728555Y-80645432D01*
X157731853Y-80645576D01*
X157843257Y-80650440D01*
X157843261Y-80650440D01*
X157844633Y-80650500D01*
X158042354Y-80650500D01*
X158283629Y-80635743D01*
X158287412Y-80635042D01*
X158287419Y-80635041D01*
X158489931Y-80597507D01*
X158602433Y-80576656D01*
X158815785Y-80509386D01*
X158907987Y-80480315D01*
X158907990Y-80480314D01*
X158911659Y-80479157D01*
X158915156Y-80477563D01*
X158915162Y-80477561D01*
X159203191Y-80346299D01*
X159203195Y-80346297D01*
X159206699Y-80344700D01*
X159483153Y-80175289D01*
X159486157Y-80172899D01*
X159486162Y-80172896D01*
X159610027Y-80074369D01*
X159736901Y-79973449D01*
X159739595Y-79970708D01*
X159739599Y-79970704D01*
X159961463Y-79744932D01*
X159964159Y-79742189D01*
X160050945Y-79629088D01*
X160159205Y-79488001D01*
X160159210Y-79487993D01*
X160161540Y-79484957D01*
X160326101Y-79205589D01*
X160455389Y-78908247D01*
X160547476Y-78597366D01*
X160600990Y-78277579D01*
X160615133Y-77953654D01*
X160589693Y-77630421D01*
X160525052Y-77312696D01*
X160422171Y-77005218D01*
X160282585Y-76712570D01*
X160108375Y-76439115D01*
X159902137Y-76188928D01*
X159666946Y-75965741D01*
X159406309Y-75772879D01*
X159265210Y-75693049D01*
X159127468Y-75615118D01*
X159127464Y-75615116D01*
X159124111Y-75613219D01*
X158824558Y-75489140D01*
X158512117Y-75402493D01*
X158191445Y-75354568D01*
X158188147Y-75354424D01*
X158076743Y-75349560D01*
X158076739Y-75349560D01*
X158075367Y-75349500D01*
X157877646Y-75349500D01*
X157636371Y-75364257D01*
X157632588Y-75364958D01*
X157632581Y-75364959D01*
X157476969Y-75393801D01*
X157317567Y-75423344D01*
X157132930Y-75481560D01*
X157012013Y-75519685D01*
X157012010Y-75519686D01*
X157008341Y-75520843D01*
X157004844Y-75522437D01*
X157004838Y-75522439D01*
X156716809Y-75653701D01*
X156716805Y-75653703D01*
X156713301Y-75655300D01*
X156436847Y-75824711D01*
X156433843Y-75827101D01*
X156433838Y-75827104D01*
X156309973Y-75925631D01*
X156183099Y-76026551D01*
X156180405Y-76029292D01*
X156180401Y-76029296D01*
X156065515Y-76146206D01*
X155955841Y-76257811D01*
X155869055Y-76370912D01*
X155760795Y-76511999D01*
X155760790Y-76512007D01*
X155758460Y-76515043D01*
X155593899Y-76794411D01*
X155464611Y-77091753D01*
X155372524Y-77402634D01*
X155319010Y-77722421D01*
X155304867Y-78046346D01*
X111460000Y-78046346D01*
X111460000Y-73200000D01*
X135304540Y-73200000D01*
X135324326Y-73388256D01*
X135382821Y-73568284D01*
X135386124Y-73574006D01*
X135386125Y-73574007D01*
X135429108Y-73648455D01*
X135477467Y-73732216D01*
X135604129Y-73872888D01*
X135757270Y-73984151D01*
X135930197Y-74061144D01*
X136028212Y-74081978D01*
X136108897Y-74099128D01*
X136108901Y-74099128D01*
X136115354Y-74100500D01*
X136304646Y-74100500D01*
X136311099Y-74099128D01*
X136311103Y-74099128D01*
X136391788Y-74081978D01*
X136489803Y-74061144D01*
X136662730Y-73984151D01*
X136815871Y-73872888D01*
X136942533Y-73732216D01*
X136990892Y-73648455D01*
X137033875Y-73574007D01*
X137033876Y-73574006D01*
X137037179Y-73568284D01*
X137078950Y-73439727D01*
X137119024Y-73381121D01*
X137184420Y-73353484D01*
X137254377Y-73365591D01*
X137292419Y-73394353D01*
X137349709Y-73457981D01*
X137349718Y-73457989D01*
X137354129Y-73462888D01*
X137359468Y-73466767D01*
X137499195Y-73568284D01*
X137507270Y-73574151D01*
X137680197Y-73651144D01*
X137778212Y-73671978D01*
X137858897Y-73689128D01*
X137858901Y-73689128D01*
X137865354Y-73690500D01*
X138054646Y-73690500D01*
X138061099Y-73689128D01*
X138061103Y-73689128D01*
X138141788Y-73671978D01*
X138239803Y-73651144D01*
X138412730Y-73574151D01*
X138418072Y-73570270D01*
X138418077Y-73570267D01*
X138509058Y-73504166D01*
X138575925Y-73480307D01*
X138645077Y-73496388D01*
X138657178Y-73504166D01*
X138761923Y-73580267D01*
X138761928Y-73580270D01*
X138767270Y-73584151D01*
X138940197Y-73661144D01*
X139038212Y-73681978D01*
X139118897Y-73699128D01*
X139118901Y-73699128D01*
X139125354Y-73700500D01*
X139314646Y-73700500D01*
X139321099Y-73699128D01*
X139321103Y-73699128D01*
X139401788Y-73681978D01*
X139499803Y-73661144D01*
X139672730Y-73584151D01*
X139825871Y-73472888D01*
X139830282Y-73467989D01*
X139830291Y-73467981D01*
X139897317Y-73393540D01*
X139957763Y-73356300D01*
X140028746Y-73357652D01*
X140087731Y-73397165D01*
X140110786Y-73438913D01*
X140152821Y-73568284D01*
X140156124Y-73574006D01*
X140156125Y-73574007D01*
X140199108Y-73648455D01*
X140247467Y-73732216D01*
X140374129Y-73872888D01*
X140527270Y-73984151D01*
X140700197Y-74061144D01*
X140798212Y-74081978D01*
X140878897Y-74099128D01*
X140878901Y-74099128D01*
X140885354Y-74100500D01*
X141074646Y-74100500D01*
X141081099Y-74099128D01*
X141081103Y-74099128D01*
X141161788Y-74081978D01*
X141259803Y-74061144D01*
X141432730Y-73984151D01*
X141585871Y-73872888D01*
X141712533Y-73732216D01*
X141760892Y-73648455D01*
X141803875Y-73574007D01*
X141803876Y-73574006D01*
X141807179Y-73568284D01*
X141865674Y-73388256D01*
X141885460Y-73200000D01*
X141865674Y-73011744D01*
X141807179Y-72831716D01*
X141712533Y-72667784D01*
X141659495Y-72608879D01*
X141590286Y-72532015D01*
X141590284Y-72532014D01*
X141585871Y-72527112D01*
X141446692Y-72425993D01*
X141438072Y-72419730D01*
X141438071Y-72419729D01*
X141432730Y-72415849D01*
X141259803Y-72338856D01*
X141161788Y-72318022D01*
X141081103Y-72300872D01*
X141081099Y-72300872D01*
X141074646Y-72299500D01*
X140885354Y-72299500D01*
X140878901Y-72300872D01*
X140878897Y-72300872D01*
X140798212Y-72318022D01*
X140700197Y-72338856D01*
X140527270Y-72415849D01*
X140521929Y-72419729D01*
X140521928Y-72419730D01*
X140513308Y-72425993D01*
X140374129Y-72527112D01*
X140369718Y-72532011D01*
X140369709Y-72532019D01*
X140302683Y-72606460D01*
X140242237Y-72643700D01*
X140171254Y-72642348D01*
X140112269Y-72602835D01*
X140089214Y-72561086D01*
X140085701Y-72550273D01*
X140047179Y-72431716D01*
X140036468Y-72413163D01*
X139955836Y-72273505D01*
X139952533Y-72267784D01*
X139825871Y-72127112D01*
X139779762Y-72093612D01*
X139678072Y-72019730D01*
X139678071Y-72019729D01*
X139672730Y-72015849D01*
X139499803Y-71938856D01*
X139401788Y-71918022D01*
X139321103Y-71900872D01*
X139321099Y-71900872D01*
X139314646Y-71899500D01*
X139125354Y-71899500D01*
X139118901Y-71900872D01*
X139118897Y-71900872D01*
X139038212Y-71918022D01*
X138940197Y-71938856D01*
X138767270Y-72015849D01*
X138761928Y-72019730D01*
X138761923Y-72019733D01*
X138670942Y-72085834D01*
X138604075Y-72109693D01*
X138534923Y-72093612D01*
X138522822Y-72085834D01*
X138418077Y-72009733D01*
X138418072Y-72009730D01*
X138412730Y-72005849D01*
X138239803Y-71928856D01*
X138108148Y-71900872D01*
X138061103Y-71890872D01*
X138061099Y-71890872D01*
X138054646Y-71889500D01*
X137865354Y-71889500D01*
X137858901Y-71890872D01*
X137858897Y-71890872D01*
X137811852Y-71900872D01*
X137680197Y-71928856D01*
X137507270Y-72005849D01*
X137354129Y-72117112D01*
X137349716Y-72122014D01*
X137349714Y-72122015D01*
X137345125Y-72127112D01*
X137227467Y-72257784D01*
X137132821Y-72421716D01*
X137130779Y-72428001D01*
X137091050Y-72550273D01*
X137050976Y-72608879D01*
X136985580Y-72636516D01*
X136915623Y-72624409D01*
X136877581Y-72595647D01*
X136820291Y-72532019D01*
X136820282Y-72532011D01*
X136815871Y-72527112D01*
X136676692Y-72425993D01*
X136668072Y-72419730D01*
X136668071Y-72419729D01*
X136662730Y-72415849D01*
X136489803Y-72338856D01*
X136391788Y-72318022D01*
X136311103Y-72300872D01*
X136311099Y-72300872D01*
X136304646Y-72299500D01*
X136115354Y-72299500D01*
X136108901Y-72300872D01*
X136108897Y-72300872D01*
X136028212Y-72318022D01*
X135930197Y-72338856D01*
X135757270Y-72415849D01*
X135751929Y-72419729D01*
X135751928Y-72419730D01*
X135743308Y-72425993D01*
X135604129Y-72527112D01*
X135599716Y-72532014D01*
X135599714Y-72532015D01*
X135530505Y-72608879D01*
X135477467Y-72667784D01*
X135382821Y-72831716D01*
X135324326Y-73011744D01*
X135304540Y-73200000D01*
X111460000Y-73200000D01*
X111460000Y-67802623D01*
X115869500Y-67802623D01*
X115869501Y-70397376D01*
X115869870Y-70400770D01*
X115869870Y-70400776D01*
X115873569Y-70434823D01*
X115876149Y-70458580D01*
X115926474Y-70592824D01*
X115931854Y-70600003D01*
X115931856Y-70600006D01*
X116007072Y-70700365D01*
X116012454Y-70707546D01*
X116019635Y-70712928D01*
X116119994Y-70788144D01*
X116119997Y-70788146D01*
X116127176Y-70793526D01*
X116210662Y-70824823D01*
X116254025Y-70841079D01*
X116254027Y-70841079D01*
X116261420Y-70843851D01*
X116269270Y-70844704D01*
X116269271Y-70844704D01*
X116304020Y-70848479D01*
X116322623Y-70850500D01*
X117619810Y-70850500D01*
X118917376Y-70850499D01*
X118920770Y-70850130D01*
X118920776Y-70850130D01*
X118970722Y-70844705D01*
X118970726Y-70844704D01*
X118978580Y-70843851D01*
X119112824Y-70793526D01*
X119120003Y-70788146D01*
X119120006Y-70788144D01*
X119220365Y-70712928D01*
X119227546Y-70707546D01*
X119232928Y-70700365D01*
X119308144Y-70600006D01*
X119308146Y-70600003D01*
X119313526Y-70592824D01*
X119347034Y-70503439D01*
X119361079Y-70465975D01*
X119361079Y-70465973D01*
X119363851Y-70458580D01*
X119370500Y-70397377D01*
X119370499Y-69054049D01*
X120945194Y-69054049D01*
X120957677Y-69313930D01*
X121008435Y-69569112D01*
X121096355Y-69813989D01*
X121219504Y-70043180D01*
X121222299Y-70046923D01*
X121222301Y-70046926D01*
X121372385Y-70247913D01*
X121372390Y-70247919D01*
X121375177Y-70251651D01*
X121378486Y-70254931D01*
X121378491Y-70254937D01*
X121526325Y-70401486D01*
X121559954Y-70434823D01*
X121563716Y-70437581D01*
X121563719Y-70437584D01*
X121676332Y-70520155D01*
X121769775Y-70588670D01*
X121773910Y-70590846D01*
X121773914Y-70590848D01*
X121899774Y-70657066D01*
X122000033Y-70709815D01*
X122245667Y-70795594D01*
X122250260Y-70796466D01*
X122496693Y-70843253D01*
X122496696Y-70843253D01*
X122501282Y-70844124D01*
X122631272Y-70849231D01*
X122756595Y-70854156D01*
X122756601Y-70854156D01*
X122761263Y-70854339D01*
X122862489Y-70843253D01*
X123015245Y-70826524D01*
X123015250Y-70826523D01*
X123019898Y-70826014D01*
X123024422Y-70824823D01*
X123266982Y-70760962D01*
X123266984Y-70760961D01*
X123271505Y-70759771D01*
X123510557Y-70657066D01*
X123731803Y-70520155D01*
X123804539Y-70458580D01*
X123880034Y-70394669D01*
X153057001Y-70394669D01*
X153057371Y-70401490D01*
X153062895Y-70452352D01*
X153066521Y-70467604D01*
X153111676Y-70588054D01*
X153120214Y-70603649D01*
X153196715Y-70705724D01*
X153209276Y-70718285D01*
X153311351Y-70794786D01*
X153326946Y-70803324D01*
X153447394Y-70848478D01*
X153462649Y-70852105D01*
X153513514Y-70857631D01*
X153520328Y-70858000D01*
X154542885Y-70858000D01*
X154558124Y-70853525D01*
X154559329Y-70852135D01*
X154561000Y-70844452D01*
X154561000Y-70839884D01*
X155069000Y-70839884D01*
X155073475Y-70855123D01*
X155074865Y-70856328D01*
X155082548Y-70857999D01*
X156109669Y-70857999D01*
X156116490Y-70857629D01*
X156167352Y-70852105D01*
X156182604Y-70848479D01*
X156303054Y-70803324D01*
X156318649Y-70794786D01*
X156420724Y-70718285D01*
X156433285Y-70705724D01*
X156509786Y-70603649D01*
X156518324Y-70588054D01*
X156563478Y-70467606D01*
X156567105Y-70452351D01*
X156572631Y-70401486D01*
X156573000Y-70394672D01*
X156573000Y-69372115D01*
X156568525Y-69356876D01*
X156567135Y-69355671D01*
X156559452Y-69354000D01*
X155087115Y-69354000D01*
X155071876Y-69358475D01*
X155070671Y-69359865D01*
X155069000Y-69367548D01*
X155069000Y-70839884D01*
X154561000Y-70839884D01*
X154561000Y-69372115D01*
X154556525Y-69356876D01*
X154555135Y-69355671D01*
X154547452Y-69354000D01*
X153075116Y-69354000D01*
X153059877Y-69358475D01*
X153058672Y-69359865D01*
X153057001Y-69367548D01*
X153057001Y-70394669D01*
X123880034Y-70394669D01*
X123926809Y-70355071D01*
X123926811Y-70355069D01*
X123930382Y-70352046D01*
X124101931Y-70156431D01*
X124242683Y-69937608D01*
X124349544Y-69700385D01*
X124350814Y-69695882D01*
X124418898Y-69454476D01*
X124418899Y-69454473D01*
X124420168Y-69449972D01*
X124423584Y-69423116D01*
X124452604Y-69195001D01*
X124452604Y-69194997D01*
X124453002Y-69191871D01*
X124455408Y-69100000D01*
X124451993Y-69054049D01*
X158140194Y-69054049D01*
X158152677Y-69313930D01*
X158203435Y-69569112D01*
X158291355Y-69813989D01*
X158414504Y-70043180D01*
X158417299Y-70046923D01*
X158417301Y-70046926D01*
X158567385Y-70247913D01*
X158567390Y-70247919D01*
X158570177Y-70251651D01*
X158573486Y-70254931D01*
X158573491Y-70254937D01*
X158721325Y-70401486D01*
X158754954Y-70434823D01*
X158758716Y-70437581D01*
X158758719Y-70437584D01*
X158871332Y-70520155D01*
X158964775Y-70588670D01*
X158968910Y-70590846D01*
X158968914Y-70590848D01*
X159094774Y-70657066D01*
X159195033Y-70709815D01*
X159440667Y-70795594D01*
X159445260Y-70796466D01*
X159691693Y-70843253D01*
X159691696Y-70843253D01*
X159696282Y-70844124D01*
X159826272Y-70849231D01*
X159951595Y-70854156D01*
X159951601Y-70854156D01*
X159956263Y-70854339D01*
X160057489Y-70843253D01*
X160210245Y-70826524D01*
X160210250Y-70826523D01*
X160214898Y-70826014D01*
X160219422Y-70824823D01*
X160461982Y-70760962D01*
X160461984Y-70760961D01*
X160466505Y-70759771D01*
X160705557Y-70657066D01*
X160926803Y-70520155D01*
X160999539Y-70458580D01*
X161121809Y-70355071D01*
X161121811Y-70355069D01*
X161125382Y-70352046D01*
X161296931Y-70156431D01*
X161437683Y-69937608D01*
X161544544Y-69700385D01*
X161545814Y-69695882D01*
X161613898Y-69454476D01*
X161613899Y-69454473D01*
X161615168Y-69449972D01*
X161618584Y-69423116D01*
X161647604Y-69195001D01*
X161647604Y-69194997D01*
X161648002Y-69191871D01*
X161650408Y-69100000D01*
X161646993Y-69054049D01*
X163220194Y-69054049D01*
X163232677Y-69313930D01*
X163283435Y-69569112D01*
X163371355Y-69813989D01*
X163494504Y-70043180D01*
X163497299Y-70046923D01*
X163497301Y-70046926D01*
X163647385Y-70247913D01*
X163647390Y-70247919D01*
X163650177Y-70251651D01*
X163653486Y-70254931D01*
X163653491Y-70254937D01*
X163801325Y-70401486D01*
X163834954Y-70434823D01*
X163838716Y-70437581D01*
X163838719Y-70437584D01*
X163951332Y-70520155D01*
X164044775Y-70588670D01*
X164048910Y-70590846D01*
X164048914Y-70590848D01*
X164174774Y-70657066D01*
X164275033Y-70709815D01*
X164520667Y-70795594D01*
X164525260Y-70796466D01*
X164771693Y-70843253D01*
X164771696Y-70843253D01*
X164776282Y-70844124D01*
X164906272Y-70849231D01*
X165031595Y-70854156D01*
X165031601Y-70854156D01*
X165036263Y-70854339D01*
X165137489Y-70843253D01*
X165290245Y-70826524D01*
X165290250Y-70826523D01*
X165294898Y-70826014D01*
X165299422Y-70824823D01*
X165541982Y-70760962D01*
X165541984Y-70760961D01*
X165546505Y-70759771D01*
X165785557Y-70657066D01*
X166006803Y-70520155D01*
X166079539Y-70458580D01*
X166201809Y-70355071D01*
X166201811Y-70355069D01*
X166205382Y-70352046D01*
X166376931Y-70156431D01*
X166517683Y-69937608D01*
X166624544Y-69700385D01*
X166625814Y-69695882D01*
X166693898Y-69454476D01*
X166693899Y-69454473D01*
X166695168Y-69449972D01*
X166698584Y-69423116D01*
X166727604Y-69195001D01*
X166727604Y-69194997D01*
X166728002Y-69191871D01*
X166730408Y-69100000D01*
X166711126Y-68840534D01*
X166653705Y-68586768D01*
X166652012Y-68582414D01*
X166561098Y-68348630D01*
X166561097Y-68348628D01*
X166559405Y-68344277D01*
X166430299Y-68118388D01*
X166269223Y-67914064D01*
X166079714Y-67735792D01*
X165906430Y-67615580D01*
X165869779Y-67590154D01*
X165869776Y-67590152D01*
X165865937Y-67587489D01*
X165861747Y-67585423D01*
X165861744Y-67585421D01*
X165636775Y-67474479D01*
X165636772Y-67474478D01*
X165632587Y-67472414D01*
X165384792Y-67393094D01*
X165244569Y-67370257D01*
X165132606Y-67352023D01*
X165132605Y-67352023D01*
X165127994Y-67351272D01*
X164997914Y-67349569D01*
X164872512Y-67347927D01*
X164872509Y-67347927D01*
X164867835Y-67347866D01*
X164610030Y-67382952D01*
X164360243Y-67455758D01*
X164355990Y-67457718D01*
X164355989Y-67457719D01*
X164319634Y-67474479D01*
X164123961Y-67564686D01*
X164120056Y-67567246D01*
X164120051Y-67567249D01*
X163910288Y-67704775D01*
X163910283Y-67704779D01*
X163906375Y-67707341D01*
X163712265Y-67880591D01*
X163545895Y-68080629D01*
X163410920Y-68303061D01*
X163409111Y-68307375D01*
X163409110Y-68307377D01*
X163395338Y-68340221D01*
X163310305Y-68543001D01*
X163246261Y-68795177D01*
X163220194Y-69054049D01*
X161646993Y-69054049D01*
X161631126Y-68840534D01*
X161573705Y-68586768D01*
X161572012Y-68582414D01*
X161481098Y-68348630D01*
X161481097Y-68348628D01*
X161479405Y-68344277D01*
X161350299Y-68118388D01*
X161189223Y-67914064D01*
X160999714Y-67735792D01*
X160826430Y-67615580D01*
X160789779Y-67590154D01*
X160789776Y-67590152D01*
X160785937Y-67587489D01*
X160781747Y-67585423D01*
X160781744Y-67585421D01*
X160556775Y-67474479D01*
X160556772Y-67474478D01*
X160552587Y-67472414D01*
X160304792Y-67393094D01*
X160164569Y-67370257D01*
X160052606Y-67352023D01*
X160052605Y-67352023D01*
X160047994Y-67351272D01*
X159917914Y-67349569D01*
X159792512Y-67347927D01*
X159792509Y-67347927D01*
X159787835Y-67347866D01*
X159530030Y-67382952D01*
X159280243Y-67455758D01*
X159275990Y-67457718D01*
X159275989Y-67457719D01*
X159239634Y-67474479D01*
X159043961Y-67564686D01*
X159040056Y-67567246D01*
X159040051Y-67567249D01*
X158830288Y-67704775D01*
X158830283Y-67704779D01*
X158826375Y-67707341D01*
X158632265Y-67880591D01*
X158465895Y-68080629D01*
X158330920Y-68303061D01*
X158329111Y-68307375D01*
X158329110Y-68307377D01*
X158315338Y-68340221D01*
X158230305Y-68543001D01*
X158166261Y-68795177D01*
X158140194Y-69054049D01*
X124451993Y-69054049D01*
X124436126Y-68840534D01*
X124433264Y-68827885D01*
X153057000Y-68827885D01*
X153061475Y-68843124D01*
X153062865Y-68844329D01*
X153070548Y-68846000D01*
X154542885Y-68846000D01*
X154558124Y-68841525D01*
X154559329Y-68840135D01*
X154561000Y-68832452D01*
X154561000Y-68827885D01*
X155069000Y-68827885D01*
X155073475Y-68843124D01*
X155074865Y-68844329D01*
X155082548Y-68846000D01*
X156554884Y-68846000D01*
X156570123Y-68841525D01*
X156571328Y-68840135D01*
X156572999Y-68832452D01*
X156572999Y-67805331D01*
X156572629Y-67798510D01*
X156567105Y-67747648D01*
X156563479Y-67732396D01*
X156518324Y-67611946D01*
X156509786Y-67596351D01*
X156433285Y-67494276D01*
X156420724Y-67481715D01*
X156318649Y-67405214D01*
X156303054Y-67396676D01*
X156182606Y-67351522D01*
X156167351Y-67347895D01*
X156116486Y-67342369D01*
X156109672Y-67342000D01*
X155087115Y-67342000D01*
X155071876Y-67346475D01*
X155070671Y-67347865D01*
X155069000Y-67355548D01*
X155069000Y-68827885D01*
X154561000Y-68827885D01*
X154561000Y-67360116D01*
X154556525Y-67344877D01*
X154555135Y-67343672D01*
X154547452Y-67342001D01*
X153520331Y-67342001D01*
X153513510Y-67342371D01*
X153462648Y-67347895D01*
X153447396Y-67351521D01*
X153326946Y-67396676D01*
X153311351Y-67405214D01*
X153209276Y-67481715D01*
X153196715Y-67494276D01*
X153120214Y-67596351D01*
X153111676Y-67611946D01*
X153066522Y-67732394D01*
X153062895Y-67747649D01*
X153057369Y-67798514D01*
X153057000Y-67805328D01*
X153057000Y-68827885D01*
X124433264Y-68827885D01*
X124378705Y-68586768D01*
X124377012Y-68582414D01*
X124286098Y-68348630D01*
X124286097Y-68348628D01*
X124284405Y-68344277D01*
X124155299Y-68118388D01*
X123994223Y-67914064D01*
X123804714Y-67735792D01*
X123631430Y-67615580D01*
X123594779Y-67590154D01*
X123594776Y-67590152D01*
X123590937Y-67587489D01*
X123586747Y-67585423D01*
X123586744Y-67585421D01*
X123361775Y-67474479D01*
X123361772Y-67474478D01*
X123357587Y-67472414D01*
X123109792Y-67393094D01*
X122969569Y-67370257D01*
X122857606Y-67352023D01*
X122857605Y-67352023D01*
X122852994Y-67351272D01*
X122722914Y-67349569D01*
X122597512Y-67347927D01*
X122597509Y-67347927D01*
X122592835Y-67347866D01*
X122335030Y-67382952D01*
X122085243Y-67455758D01*
X122080990Y-67457718D01*
X122080989Y-67457719D01*
X122044634Y-67474479D01*
X121848961Y-67564686D01*
X121845056Y-67567246D01*
X121845051Y-67567249D01*
X121635288Y-67704775D01*
X121635283Y-67704779D01*
X121631375Y-67707341D01*
X121437265Y-67880591D01*
X121270895Y-68080629D01*
X121135920Y-68303061D01*
X121134111Y-68307375D01*
X121134110Y-68307377D01*
X121120338Y-68340221D01*
X121035305Y-68543001D01*
X120971261Y-68795177D01*
X120945194Y-69054049D01*
X119370499Y-69054049D01*
X119370499Y-67802624D01*
X119363851Y-67741420D01*
X119313526Y-67607176D01*
X119308146Y-67599997D01*
X119308144Y-67599994D01*
X119232928Y-67499635D01*
X119227546Y-67492454D01*
X119176834Y-67454447D01*
X119120006Y-67411856D01*
X119120003Y-67411854D01*
X119112824Y-67406474D01*
X119023439Y-67372966D01*
X118985975Y-67358921D01*
X118985973Y-67358921D01*
X118978580Y-67356149D01*
X118970730Y-67355296D01*
X118970729Y-67355296D01*
X118920774Y-67349869D01*
X118920773Y-67349869D01*
X118917377Y-67349500D01*
X117620190Y-67349500D01*
X116322624Y-67349501D01*
X116319230Y-67349870D01*
X116319224Y-67349870D01*
X116269278Y-67355295D01*
X116269274Y-67355296D01*
X116261420Y-67356149D01*
X116127176Y-67406474D01*
X116119997Y-67411854D01*
X116119994Y-67411856D01*
X116063166Y-67454447D01*
X116012454Y-67492454D01*
X116007072Y-67499635D01*
X115931856Y-67599994D01*
X115931854Y-67599997D01*
X115926474Y-67607176D01*
X115923324Y-67615580D01*
X115879533Y-67732394D01*
X115876149Y-67741420D01*
X115869500Y-67802623D01*
X111460000Y-67802623D01*
X111460000Y-65726000D01*
X111480002Y-65657879D01*
X111533658Y-65611386D01*
X111586000Y-65600000D01*
X170434000Y-65600000D01*
X170502121Y-65620002D01*
G37*
%TD.AperFunction*%
%TD*%
M02*
