%TF.GenerationSoftware,KiCad,Pcbnew,(6.0.1-0)*%
%TF.CreationDate,2022-12-23T21:27:24-08:00*%
%TF.ProjectId,ESC Daughterboard,45534320-4461-4756-9768-746572626f61,rev?*%
%TF.SameCoordinates,Original*%
%TF.FileFunction,Soldermask,Bot*%
%TF.FilePolarity,Negative*%
%FSLAX46Y46*%
G04 Gerber Fmt 4.6, Leading zero omitted, Abs format (unit mm)*
G04 Created by KiCad (PCBNEW (6.0.1-0)) date 2022-12-23 21:27:24*
%MOMM*%
%LPD*%
G01*
G04 APERTURE LIST*
%ADD10R,2.500000X2.500000*%
%ADD11C,2.500000*%
%ADD12C,4.300000*%
%ADD13R,1.110000X1.110000*%
%ADD14C,1.110000*%
%ADD15C,1.528000*%
G04 APERTURE END LIST*
D10*
%TO.C,Phase 1*%
X154815000Y-69100000D03*
D11*
X159895000Y-69100000D03*
X164975000Y-69100000D03*
%TD*%
D12*
%TO.C,H1*%
X157960000Y-111000000D03*
%TD*%
D13*
%TO.C,J4*%
X159400000Y-120700000D03*
D14*
X158130000Y-119430000D03*
X156860000Y-120700000D03*
X155590000Y-119430000D03*
X154320000Y-120700000D03*
X153050000Y-119430000D03*
X151780000Y-120700000D03*
X150510000Y-119430000D03*
X149240000Y-120700000D03*
X147970000Y-119430000D03*
X146700000Y-120700000D03*
X145430000Y-119430000D03*
X144160000Y-120700000D03*
X142890000Y-119430000D03*
X159400000Y-118160000D03*
X158130000Y-116890000D03*
X156860000Y-118160000D03*
X155590000Y-116890000D03*
X154320000Y-118160000D03*
X153050000Y-116890000D03*
X151780000Y-118160000D03*
X150510000Y-116890000D03*
X149240000Y-118160000D03*
X147970000Y-116890000D03*
X146700000Y-118160000D03*
X145430000Y-116890000D03*
X144160000Y-118160000D03*
X142890000Y-116890000D03*
D15*
X139609996Y-116890000D03*
X137109996Y-116890000D03*
X134609996Y-116890000D03*
X132109996Y-116890000D03*
X129609999Y-116890000D03*
X127609995Y-116890000D03*
X125109995Y-116890000D03*
X122609995Y-116890000D03*
X120109995Y-116890000D03*
X117609995Y-116890000D03*
X139609996Y-119390000D03*
X137109996Y-119390000D03*
X134609996Y-119390000D03*
X132109996Y-119390000D03*
X129609999Y-119390000D03*
X127609995Y-119390000D03*
X125109995Y-119390000D03*
X122609995Y-119390000D03*
X120109995Y-119390000D03*
X117609995Y-119390000D03*
%TD*%
D12*
%TO.C,H3*%
X141560000Y-94600000D03*
%TD*%
%TO.C,H2*%
X157960000Y-78000000D03*
%TD*%
D10*
%TO.C,PWR*%
X117620000Y-69100000D03*
D11*
X122700000Y-69100000D03*
%TD*%
M02*
