%TF.GenerationSoftware,KiCad,Pcbnew,(6.0.1-0)*%
%TF.CreationDate,2022-12-23T21:27:24-08:00*%
%TF.ProjectId,ESC Daughterboard,45534320-4461-4756-9768-746572626f61,rev?*%
%TF.SameCoordinates,Original*%
%TF.FileFunction,Legend,Bot*%
%TF.FilePolarity,Positive*%
%FSLAX46Y46*%
G04 Gerber Fmt 4.6, Leading zero omitted, Abs format (unit mm)*
G04 Created by KiCad (PCBNEW (6.0.1-0)) date 2022-12-23 21:27:24*
%MOMM*%
%LPD*%
G01*
G04 APERTURE LIST*
%ADD10C,0.040000*%
%ADD11C,0.125000*%
%ADD12C,0.300000*%
%ADD13C,0.150000*%
G04 APERTURE END LIST*
D10*
X129241996Y-78340241D02*
X129236883Y-78350877D01*
X129236883Y-78350877D02*
X129239065Y-78370310D01*
X129239065Y-78370310D02*
X129249413Y-78399936D01*
X129249413Y-78399936D02*
X129298094Y-78495355D01*
X129298094Y-78495355D02*
X129389895Y-78648303D01*
X129389895Y-78648303D02*
X129531789Y-78869952D01*
X129531789Y-78869952D02*
X129730745Y-79171473D01*
X129730745Y-79171473D02*
X130327730Y-80058808D01*
X130327730Y-80058808D02*
X130505082Y-80323922D01*
X130505082Y-80323922D02*
X130580188Y-80439147D01*
X130580188Y-80439147D02*
X130647109Y-80544574D01*
X130647109Y-80544574D02*
X130706493Y-80641522D01*
X130706493Y-80641522D02*
X130758984Y-80731308D01*
X130758984Y-80731308D02*
X130805230Y-80815252D01*
X130805230Y-80815252D02*
X130845876Y-80894671D01*
X130845876Y-80894671D02*
X130881569Y-80970883D01*
X130881569Y-80970883D02*
X130912956Y-81045207D01*
X130912956Y-81045207D02*
X130940682Y-81118961D01*
X130940682Y-81118961D02*
X130965394Y-81193462D01*
X130965394Y-81193462D02*
X130987738Y-81270029D01*
X130987738Y-81270029D02*
X131008361Y-81349981D01*
X131008361Y-81349981D02*
X131027908Y-81434635D01*
X131027908Y-81434635D02*
X131047027Y-81525309D01*
X131047027Y-81525309D02*
X131074390Y-81675334D01*
X131074390Y-81675334D02*
X131093396Y-81816441D01*
X131093396Y-81816441D02*
X131099653Y-81883915D01*
X131099653Y-81883915D02*
X131103685Y-81949477D01*
X131103685Y-81949477D02*
X131105448Y-82013234D01*
X131105448Y-82013234D02*
X131104897Y-82075291D01*
X131104897Y-82075291D02*
X131101986Y-82135754D01*
X131101986Y-82135754D02*
X131096670Y-82194731D01*
X131096670Y-82194731D02*
X131088905Y-82252325D01*
X131088905Y-82252325D02*
X131078645Y-82308644D01*
X131078645Y-82308644D02*
X131065846Y-82363794D01*
X131065846Y-82363794D02*
X131050461Y-82417880D01*
X131050461Y-82417880D02*
X131032446Y-82471009D01*
X131032446Y-82471009D02*
X131011757Y-82523287D01*
X131011757Y-82523287D02*
X130988347Y-82574819D01*
X130988347Y-82574819D02*
X130962173Y-82625712D01*
X130962173Y-82625712D02*
X130933188Y-82676071D01*
X130933188Y-82676071D02*
X130901348Y-82726003D01*
X130901348Y-82726003D02*
X130866608Y-82775614D01*
X130866608Y-82775614D02*
X130828922Y-82825010D01*
X130828922Y-82825010D02*
X130788246Y-82874297D01*
X130788246Y-82874297D02*
X130744534Y-82923580D01*
X130744534Y-82923580D02*
X130697742Y-82972966D01*
X130697742Y-82972966D02*
X130647824Y-83022562D01*
X130647824Y-83022562D02*
X130538432Y-83122803D01*
X130538432Y-83122803D02*
X130415996Y-83225151D01*
X130415996Y-83225151D02*
X130280157Y-83330456D01*
X130280157Y-83330456D02*
X130124615Y-83444894D01*
X130124615Y-83444894D02*
X129982317Y-83543913D01*
X129982317Y-83543913D02*
X129846316Y-83631359D01*
X129846316Y-83631359D02*
X129778505Y-83671945D01*
X129778505Y-83671945D02*
X129709663Y-83711080D01*
X129709663Y-83711080D02*
X129638922Y-83749245D01*
X129638922Y-83749245D02*
X129565413Y-83786922D01*
X129565413Y-83786922D02*
X129406617Y-83862731D01*
X129406617Y-83862731D02*
X129226329Y-83942355D01*
X129226329Y-83942355D02*
X129017602Y-84029641D01*
X129017602Y-84029641D02*
X128930253Y-84065884D01*
X128930253Y-84065884D02*
X128853692Y-84098532D01*
X128853692Y-84098532D02*
X128787910Y-84127597D01*
X128787910Y-84127597D02*
X128732899Y-84153092D01*
X128732899Y-84153092D02*
X128688650Y-84175028D01*
X128688650Y-84175028D02*
X128655155Y-84193419D01*
X128655155Y-84193419D02*
X128632405Y-84208277D01*
X128632405Y-84208277D02*
X128625057Y-84214385D01*
X128625057Y-84214385D02*
X128620391Y-84219614D01*
X128620391Y-84219614D02*
X128618408Y-84223966D01*
X128618408Y-84223966D02*
X128619106Y-84227443D01*
X128619106Y-84227443D02*
X128622483Y-84230045D01*
X128622483Y-84230045D02*
X128628539Y-84231775D01*
X128628539Y-84231775D02*
X128637273Y-84232635D01*
X128637273Y-84232635D02*
X128648683Y-84232624D01*
X128648683Y-84232624D02*
X128679530Y-84230002D01*
X128679530Y-84230002D02*
X128721069Y-84223921D01*
X128721069Y-84223921D02*
X128773294Y-84214393D01*
X128773294Y-84214393D02*
X128836196Y-84201432D01*
X128836196Y-84201432D02*
X128909765Y-84185048D01*
X128909765Y-84185048D02*
X129156419Y-84124069D01*
X129156419Y-84124069D02*
X129399055Y-84055355D01*
X129399055Y-84055355D02*
X129636522Y-83979538D01*
X129636522Y-83979538D02*
X129867668Y-83897252D01*
X129867668Y-83897252D02*
X130091342Y-83809129D01*
X130091342Y-83809129D02*
X130306393Y-83715802D01*
X130306393Y-83715802D02*
X130511668Y-83617904D01*
X130511668Y-83617904D02*
X130706017Y-83516069D01*
X130706017Y-83516069D02*
X130888288Y-83410928D01*
X130888288Y-83410928D02*
X131057330Y-83303116D01*
X131057330Y-83303116D02*
X131211991Y-83193265D01*
X131211991Y-83193265D02*
X131351121Y-83082007D01*
X131351121Y-83082007D02*
X131414501Y-83026049D01*
X131414501Y-83026049D02*
X131473567Y-82969977D01*
X131473567Y-82969977D02*
X131528174Y-82913869D01*
X131528174Y-82913869D02*
X131578178Y-82857806D01*
X131578178Y-82857806D02*
X131623436Y-82801865D01*
X131623436Y-82801865D02*
X131663804Y-82746127D01*
X131663804Y-82746127D02*
X131699137Y-82690671D01*
X131699137Y-82690671D02*
X131729291Y-82635575D01*
X131729291Y-82635575D02*
X131741234Y-82610231D01*
X131741234Y-82610231D02*
X131754042Y-82580302D01*
X131754042Y-82580302D02*
X131781251Y-82509954D01*
X131781251Y-82509954D02*
X131808904Y-82431061D01*
X131808904Y-82431061D02*
X131834985Y-82350151D01*
X131834985Y-82350151D02*
X131857479Y-82273753D01*
X131857479Y-82273753D02*
X131874371Y-82208395D01*
X131874371Y-82208395D02*
X131880086Y-82181898D01*
X131880086Y-82181898D02*
X131883646Y-82160608D01*
X131883646Y-82160608D02*
X131884798Y-82145344D01*
X131884798Y-82145344D02*
X131884392Y-82140226D01*
X131884392Y-82140226D02*
X131883289Y-82136920D01*
X131883289Y-82136920D02*
X131882720Y-82135797D01*
X131882720Y-82135797D02*
X131882264Y-82134443D01*
X131882264Y-82134443D02*
X131881919Y-82132877D01*
X131881919Y-82132877D02*
X131881683Y-82131118D01*
X131881683Y-82131118D02*
X131881555Y-82129184D01*
X131881555Y-82129184D02*
X131881532Y-82127093D01*
X131881532Y-82127093D02*
X131881613Y-82124863D01*
X131881613Y-82124863D02*
X131881796Y-82122513D01*
X131881796Y-82122513D02*
X131882079Y-82120061D01*
X131882079Y-82120061D02*
X131882460Y-82117526D01*
X131882460Y-82117526D02*
X131882937Y-82114926D01*
X131882937Y-82114926D02*
X131883509Y-82112279D01*
X131883509Y-82112279D02*
X131884173Y-82109604D01*
X131884173Y-82109604D02*
X131884928Y-82106919D01*
X131884928Y-82106919D02*
X131885772Y-82104243D01*
X131885772Y-82104243D02*
X131886703Y-82101593D01*
X131886703Y-82101593D02*
X131888424Y-82098702D01*
X131888424Y-82098702D02*
X131891107Y-82096719D01*
X131891107Y-82096719D02*
X131894743Y-82095638D01*
X131894743Y-82095638D02*
X131899326Y-82095456D01*
X131899326Y-82095456D02*
X131911301Y-82097764D01*
X131911301Y-82097764D02*
X131926973Y-82103604D01*
X131926973Y-82103604D02*
X131946284Y-82112936D01*
X131946284Y-82112936D02*
X131969175Y-82125720D01*
X131969175Y-82125720D02*
X131995586Y-82141916D01*
X131995586Y-82141916D02*
X132025459Y-82161485D01*
X132025459Y-82161485D02*
X132095356Y-82210582D01*
X132095356Y-82210582D02*
X132178396Y-82272690D01*
X132178396Y-82272690D02*
X132274107Y-82347494D01*
X132274107Y-82347494D02*
X132382020Y-82434673D01*
X132382020Y-82434673D02*
X133434109Y-83283180D01*
X133434109Y-83283180D02*
X134638099Y-84246351D01*
X134638099Y-84246351D02*
X135432968Y-84870557D01*
X135432968Y-84870557D02*
X136239032Y-85488683D01*
X136239032Y-85488683D02*
X137141154Y-86165031D01*
X137141154Y-86165031D02*
X138224198Y-86963904D01*
X138224198Y-86963904D02*
X139231343Y-87700000D01*
X139231343Y-87700000D02*
X140021524Y-88269709D01*
X140021524Y-88269709D02*
X140721994Y-88763858D01*
X140721994Y-88763858D02*
X141460000Y-89273272D01*
X141460000Y-89273272D02*
X141840295Y-89534385D01*
X141840295Y-89534385D02*
X142128784Y-89733965D01*
X142128784Y-89733965D02*
X142346346Y-89886566D01*
X142346346Y-89886566D02*
X142513862Y-90006744D01*
X142513862Y-90006744D02*
X142587720Y-90059785D01*
X142587720Y-90059785D02*
X142663832Y-90113133D01*
X142663832Y-90113133D02*
X142733238Y-90160580D01*
X142733238Y-90160580D02*
X142762625Y-90180151D01*
X142762625Y-90180151D02*
X142786976Y-90195920D01*
X142786976Y-90195920D02*
X142890876Y-90261898D01*
X142890876Y-90261898D02*
X142807755Y-90254699D01*
X142807755Y-90254699D02*
X142284576Y-90211675D01*
X142284576Y-90211675D02*
X141832330Y-90181077D01*
X141832330Y-90181077D02*
X141352741Y-90157159D01*
X141352741Y-90157159D02*
X140747529Y-90134173D01*
X140747529Y-90134173D02*
X139862527Y-90107121D01*
X139862527Y-90107121D02*
X138740739Y-90080738D01*
X138740739Y-90080738D02*
X137771147Y-90057178D01*
X137771147Y-90057178D02*
X137013788Y-90030354D01*
X137013788Y-90030354D02*
X136334703Y-89994417D01*
X136334703Y-89994417D02*
X135599935Y-89943513D01*
X135599935Y-89943513D02*
X134633615Y-89870375D01*
X134633615Y-89870375D02*
X134001078Y-89819675D01*
X134001078Y-89819675D02*
X133774592Y-89799741D01*
X133774592Y-89799741D02*
X133589087Y-89781819D01*
X133589087Y-89781819D02*
X133430410Y-89764709D01*
X133430410Y-89764709D02*
X133284406Y-89747213D01*
X133284406Y-89747213D02*
X132348507Y-89620090D01*
X132348507Y-89620090D02*
X131348575Y-89466696D01*
X131348575Y-89466696D02*
X130342368Y-89296352D01*
X130342368Y-89296352D02*
X129387639Y-89118383D01*
X129387639Y-89118383D02*
X129299249Y-89100659D01*
X129299249Y-89100659D02*
X129220639Y-89083976D01*
X129220639Y-89083976D02*
X129148450Y-89067461D01*
X129148450Y-89067461D02*
X129079320Y-89050244D01*
X129079320Y-89050244D02*
X129009888Y-89031450D01*
X129009888Y-89031450D02*
X128936791Y-89010208D01*
X128936791Y-89010208D02*
X128856668Y-88985645D01*
X128856668Y-88985645D02*
X128766158Y-88956890D01*
X128766158Y-88956890D02*
X128540618Y-88884622D01*
X128540618Y-88884622D02*
X128469427Y-88862022D01*
X128469427Y-88862022D02*
X128440203Y-88852989D01*
X128440203Y-88852989D02*
X128437543Y-88851697D01*
X128437543Y-88851697D02*
X128436764Y-88849587D01*
X128436764Y-88849587D02*
X128437794Y-88846696D01*
X128437794Y-88846696D02*
X128440562Y-88843062D01*
X128440562Y-88843062D02*
X128451020Y-88833719D01*
X128451020Y-88833719D02*
X128467563Y-88821861D01*
X128467563Y-88821861D02*
X128516597Y-88791819D01*
X128516597Y-88791819D02*
X128583050Y-88755367D01*
X128583050Y-88755367D02*
X128662313Y-88714939D01*
X128662313Y-88714939D02*
X128749774Y-88672968D01*
X128749774Y-88672968D02*
X128840821Y-88631885D01*
X128840821Y-88631885D02*
X128930843Y-88594124D01*
X128930843Y-88594124D02*
X129073997Y-88538515D01*
X129073997Y-88538515D02*
X129211094Y-88489269D01*
X129211094Y-88489269D02*
X129346262Y-88445260D01*
X129346262Y-88445260D02*
X129483629Y-88405357D01*
X129483629Y-88405357D02*
X129627325Y-88368432D01*
X129627325Y-88368432D02*
X129781477Y-88333356D01*
X129781477Y-88333356D02*
X129950214Y-88299000D01*
X129950214Y-88299000D02*
X130137664Y-88264236D01*
X130137664Y-88264236D02*
X130384616Y-88219669D01*
X130384616Y-88219669D02*
X130594832Y-88180892D01*
X130594832Y-88180892D02*
X130770412Y-88150651D01*
X130770412Y-88150651D02*
X130971632Y-88120955D01*
X130971632Y-88120955D02*
X131194304Y-88092248D01*
X131194304Y-88092248D02*
X131434240Y-88064976D01*
X131434240Y-88064976D02*
X131687253Y-88039587D01*
X131687253Y-88039587D02*
X131949156Y-88016526D01*
X131949156Y-88016526D02*
X132215760Y-87996240D01*
X132215760Y-87996240D02*
X132482879Y-87979174D01*
X132482879Y-87979174D02*
X132660546Y-87968367D01*
X132660546Y-87968367D02*
X132832676Y-87956900D01*
X132832676Y-87956900D02*
X132979618Y-87946142D01*
X132979618Y-87946142D02*
X133081725Y-87937465D01*
X133081725Y-87937465D02*
X133149758Y-87930601D01*
X133149758Y-87930601D02*
X133176677Y-87927989D01*
X133176677Y-87927989D02*
X133199279Y-87926110D01*
X133199279Y-87926110D02*
X133217876Y-87925099D01*
X133217876Y-87925099D02*
X133225770Y-87924964D01*
X133225770Y-87924964D02*
X133232780Y-87925097D01*
X133232780Y-87925097D02*
X133238944Y-87925517D01*
X133238944Y-87925517D02*
X133244302Y-87926241D01*
X133244302Y-87926241D02*
X133248892Y-87927286D01*
X133248892Y-87927286D02*
X133252754Y-87928670D01*
X133252754Y-87928670D02*
X133255925Y-87930409D01*
X133255925Y-87930409D02*
X133258446Y-87932521D01*
X133258446Y-87932521D02*
X133260356Y-87935024D01*
X133260356Y-87935024D02*
X133261692Y-87937934D01*
X133261692Y-87937934D02*
X133262495Y-87941269D01*
X133262495Y-87941269D02*
X133262802Y-87945046D01*
X133262802Y-87945046D02*
X133262654Y-87949283D01*
X133262654Y-87949283D02*
X133262088Y-87953996D01*
X133262088Y-87953996D02*
X133261145Y-87959203D01*
X133261145Y-87959203D02*
X133259862Y-87964922D01*
X133259862Y-87964922D02*
X133256435Y-87977962D01*
X133256435Y-87977962D02*
X133247224Y-88010938D01*
X133247224Y-88010938D02*
X133240701Y-88038815D01*
X133240701Y-88038815D02*
X133235180Y-88069674D01*
X133235180Y-88069674D02*
X133230652Y-88103004D01*
X133230652Y-88103004D02*
X133227107Y-88138297D01*
X133227107Y-88138297D02*
X133224533Y-88175042D01*
X133224533Y-88175042D02*
X133222923Y-88212729D01*
X133222923Y-88212729D02*
X133222264Y-88250850D01*
X133222264Y-88250850D02*
X133222548Y-88288894D01*
X133222548Y-88288894D02*
X133223764Y-88326352D01*
X133223764Y-88326352D02*
X133225902Y-88362714D01*
X133225902Y-88362714D02*
X133228953Y-88397471D01*
X133228953Y-88397471D02*
X133232905Y-88430113D01*
X133232905Y-88430113D02*
X133237751Y-88460129D01*
X133237751Y-88460129D02*
X133243478Y-88487012D01*
X133243478Y-88487012D02*
X133250078Y-88510250D01*
X133250078Y-88510250D02*
X133257540Y-88529334D01*
X133257540Y-88529334D02*
X133283101Y-88577221D01*
X133283101Y-88577221D02*
X133313227Y-88621823D01*
X133313227Y-88621823D02*
X133347677Y-88663147D01*
X133347677Y-88663147D02*
X133386209Y-88701201D01*
X133386209Y-88701201D02*
X133428581Y-88735993D01*
X133428581Y-88735993D02*
X133474550Y-88767531D01*
X133474550Y-88767531D02*
X133523875Y-88795821D01*
X133523875Y-88795821D02*
X133576314Y-88820873D01*
X133576314Y-88820873D02*
X133631625Y-88842692D01*
X133631625Y-88842692D02*
X133689565Y-88861287D01*
X133689565Y-88861287D02*
X133749892Y-88876666D01*
X133749892Y-88876666D02*
X133812366Y-88888836D01*
X133812366Y-88888836D02*
X133876743Y-88897805D01*
X133876743Y-88897805D02*
X133942781Y-88903580D01*
X133942781Y-88903580D02*
X134078876Y-88905579D01*
X134078876Y-88905579D02*
X134218712Y-88894896D01*
X134218712Y-88894896D02*
X134360355Y-88871590D01*
X134360355Y-88871590D02*
X134501868Y-88835724D01*
X134501868Y-88835724D02*
X134641315Y-88787357D01*
X134641315Y-88787357D02*
X134709659Y-88758505D01*
X134709659Y-88758505D02*
X134776760Y-88726551D01*
X134776760Y-88726551D02*
X134842377Y-88691503D01*
X134842377Y-88691503D02*
X134906267Y-88653367D01*
X134906267Y-88653367D02*
X134968189Y-88612153D01*
X134968189Y-88612153D02*
X135027900Y-88567866D01*
X135027900Y-88567866D02*
X135085158Y-88520516D01*
X135085158Y-88520516D02*
X135139722Y-88470109D01*
X135139722Y-88470109D02*
X135169485Y-88438211D01*
X135169485Y-88438211D02*
X135197225Y-88402869D01*
X135197225Y-88402869D02*
X135222843Y-88364486D01*
X135222843Y-88364486D02*
X135246236Y-88323463D01*
X135246236Y-88323463D02*
X135267304Y-88280200D01*
X135267304Y-88280200D02*
X135285944Y-88235100D01*
X135285944Y-88235100D02*
X135302057Y-88188563D01*
X135302057Y-88188563D02*
X135315539Y-88140991D01*
X135315539Y-88140991D02*
X135326291Y-88092785D01*
X135326291Y-88092785D02*
X135334211Y-88044346D01*
X135334211Y-88044346D02*
X135339197Y-87996076D01*
X135339197Y-87996076D02*
X135340546Y-87963103D01*
X135340546Y-87963103D02*
X134815118Y-87963103D01*
X134815118Y-87963103D02*
X134814323Y-87992515D01*
X134814323Y-87992515D02*
X134810956Y-88021197D01*
X134810956Y-88021197D02*
X134808271Y-88035119D01*
X134808271Y-88035119D02*
X134804898Y-88048684D01*
X134804898Y-88048684D02*
X134800822Y-88061834D01*
X134800822Y-88061834D02*
X134796029Y-88074512D01*
X134796029Y-88074512D02*
X134790504Y-88086658D01*
X134790504Y-88086658D02*
X134784231Y-88098216D01*
X134784231Y-88098216D02*
X134761204Y-88133622D01*
X134761204Y-88133622D02*
X134735203Y-88167291D01*
X134735203Y-88167291D02*
X134706469Y-88199195D01*
X134706469Y-88199195D02*
X134675246Y-88229304D01*
X134675246Y-88229304D02*
X134641776Y-88257587D01*
X134641776Y-88257587D02*
X134606304Y-88284014D01*
X134606304Y-88284014D02*
X134569072Y-88308556D01*
X134569072Y-88308556D02*
X134530323Y-88331183D01*
X134530323Y-88331183D02*
X134490299Y-88351865D01*
X134490299Y-88351865D02*
X134449245Y-88370572D01*
X134449245Y-88370572D02*
X134407403Y-88387273D01*
X134407403Y-88387273D02*
X134365017Y-88401941D01*
X134365017Y-88401941D02*
X134322329Y-88414543D01*
X134322329Y-88414543D02*
X134279582Y-88425051D01*
X134279582Y-88425051D02*
X134237019Y-88433434D01*
X134237019Y-88433434D02*
X134194884Y-88439663D01*
X134194884Y-88439663D02*
X134153420Y-88443708D01*
X134153420Y-88443708D02*
X134112869Y-88445538D01*
X134112869Y-88445538D02*
X134073475Y-88445124D01*
X134073475Y-88445124D02*
X134035481Y-88442437D01*
X134035481Y-88442437D02*
X133999129Y-88437445D01*
X133999129Y-88437445D02*
X133964663Y-88430120D01*
X133964663Y-88430120D02*
X133932326Y-88420431D01*
X133932326Y-88420431D02*
X133902362Y-88408349D01*
X133902362Y-88408349D02*
X133875012Y-88393843D01*
X133875012Y-88393843D02*
X133850520Y-88376883D01*
X133850520Y-88376883D02*
X133829129Y-88357441D01*
X133829129Y-88357441D02*
X133811083Y-88335485D01*
X133811083Y-88335485D02*
X133796623Y-88310986D01*
X133796623Y-88310986D02*
X133785994Y-88283915D01*
X133785994Y-88283915D02*
X133779439Y-88254240D01*
X133779439Y-88254240D02*
X133777199Y-88221933D01*
X133777199Y-88221933D02*
X133778152Y-88208359D01*
X133778152Y-88208359D02*
X133780959Y-88194022D01*
X133780959Y-88194022D02*
X133785547Y-88178986D01*
X133785547Y-88178986D02*
X133791840Y-88163315D01*
X133791840Y-88163315D02*
X133809248Y-88130320D01*
X133809248Y-88130320D02*
X133832585Y-88095548D01*
X133832585Y-88095548D02*
X133861256Y-88059507D01*
X133861256Y-88059507D02*
X133894665Y-88022709D01*
X133894665Y-88022709D02*
X133932216Y-87985661D01*
X133932216Y-87985661D02*
X133973314Y-87948875D01*
X133973314Y-87948875D02*
X134017361Y-87912859D01*
X134017361Y-87912859D02*
X134063762Y-87878123D01*
X134063762Y-87878123D02*
X134111921Y-87845177D01*
X134111921Y-87845177D02*
X134161243Y-87814531D01*
X134161243Y-87814531D02*
X134211131Y-87786693D01*
X134211131Y-87786693D02*
X134260989Y-87762175D01*
X134260989Y-87762175D02*
X134310221Y-87741485D01*
X134310221Y-87741485D02*
X134358231Y-87725133D01*
X134358231Y-87725133D02*
X134373368Y-87721162D01*
X134373368Y-87721162D02*
X134390126Y-87717710D01*
X134390126Y-87717710D02*
X134408313Y-87714778D01*
X134408313Y-87714778D02*
X134427740Y-87712366D01*
X134427740Y-87712366D02*
X134448216Y-87710475D01*
X134448216Y-87710475D02*
X134469552Y-87709105D01*
X134469552Y-87709105D02*
X134491556Y-87708258D01*
X134491556Y-87708258D02*
X134514038Y-87707934D01*
X134514038Y-87707934D02*
X134536808Y-87708133D01*
X134536808Y-87708133D02*
X134559676Y-87708857D01*
X134559676Y-87708857D02*
X134582450Y-87710105D01*
X134582450Y-87710105D02*
X134604942Y-87711879D01*
X134604942Y-87711879D02*
X134626960Y-87714180D01*
X134626960Y-87714180D02*
X134648314Y-87717007D01*
X134648314Y-87717007D02*
X134668814Y-87720361D01*
X134668814Y-87720361D02*
X134688270Y-87724244D01*
X134688270Y-87724244D02*
X134698227Y-87727059D01*
X134698227Y-87727059D02*
X134707885Y-87731027D01*
X134707885Y-87731027D02*
X134717228Y-87736091D01*
X134717228Y-87736091D02*
X134726242Y-87742191D01*
X134726242Y-87742191D02*
X134734911Y-87749270D01*
X134734911Y-87749270D02*
X134743221Y-87757270D01*
X134743221Y-87757270D02*
X134751156Y-87766132D01*
X134751156Y-87766132D02*
X134758702Y-87775799D01*
X134758702Y-87775799D02*
X134765844Y-87786213D01*
X134765844Y-87786213D02*
X134772567Y-87797315D01*
X134772567Y-87797315D02*
X134784696Y-87821352D01*
X134784696Y-87821352D02*
X134794969Y-87847446D01*
X134794969Y-87847446D02*
X134803267Y-87875133D01*
X134803267Y-87875133D02*
X134809471Y-87903948D01*
X134809471Y-87903948D02*
X134813461Y-87933426D01*
X134813461Y-87933426D02*
X134815118Y-87963103D01*
X134815118Y-87963103D02*
X135340546Y-87963103D01*
X135340546Y-87963103D02*
X135341148Y-87948375D01*
X135341148Y-87948375D02*
X135339963Y-87901646D01*
X135339963Y-87901646D02*
X135335541Y-87856289D01*
X135335541Y-87856289D02*
X135327779Y-87812705D01*
X135327779Y-87812705D02*
X135316578Y-87771296D01*
X135316578Y-87771296D02*
X135312726Y-87759188D01*
X135312726Y-87759188D02*
X135309127Y-87747540D01*
X135309127Y-87747540D02*
X135305861Y-87736634D01*
X135305861Y-87736634D02*
X135303006Y-87726748D01*
X135303006Y-87726748D02*
X135300642Y-87718164D01*
X135300642Y-87718164D02*
X135298847Y-87711160D01*
X135298847Y-87711160D02*
X135297701Y-87706018D01*
X135297701Y-87706018D02*
X135297396Y-87704232D01*
X135297396Y-87704232D02*
X135297283Y-87703017D01*
X135297283Y-87703017D02*
X135298732Y-87702110D01*
X135298732Y-87702110D02*
X135303011Y-87701228D01*
X135303011Y-87701228D02*
X135319481Y-87699558D01*
X135319481Y-87699558D02*
X135345538Y-87698043D01*
X135345538Y-87698043D02*
X135380024Y-87696718D01*
X135380024Y-87696718D02*
X135469664Y-87694783D01*
X135469664Y-87694783D02*
X135579154Y-87694038D01*
X135579154Y-87694038D02*
X135817180Y-87692158D01*
X135817180Y-87692158D02*
X136043195Y-87686831D01*
X136043195Y-87686831D02*
X136251745Y-87678444D01*
X136251745Y-87678444D02*
X136437374Y-87667385D01*
X136437374Y-87667385D02*
X136594626Y-87654040D01*
X136594626Y-87654040D02*
X136660905Y-87646631D01*
X136660905Y-87646631D02*
X136718044Y-87638796D01*
X136718044Y-87638796D02*
X136765362Y-87630583D01*
X136765362Y-87630583D02*
X136802175Y-87622041D01*
X136802175Y-87622041D02*
X136827802Y-87613218D01*
X136827802Y-87613218D02*
X136836208Y-87608716D01*
X136836208Y-87608716D02*
X136841561Y-87604162D01*
X136841561Y-87604162D02*
X136846008Y-87596247D01*
X136846008Y-87596247D02*
X136846750Y-87587825D01*
X136846750Y-87587825D02*
X136843922Y-87578935D01*
X136843922Y-87578935D02*
X136837660Y-87569617D01*
X136837660Y-87569617D02*
X136815377Y-87549862D01*
X136815377Y-87549862D02*
X136780987Y-87528884D01*
X136780987Y-87528884D02*
X136735579Y-87507007D01*
X136735579Y-87507007D02*
X136680238Y-87484554D01*
X136680238Y-87484554D02*
X136616052Y-87461849D01*
X136616052Y-87461849D02*
X136544106Y-87439218D01*
X136544106Y-87439218D02*
X136381283Y-87395468D01*
X136381283Y-87395468D02*
X136200464Y-87355897D01*
X136200464Y-87355897D02*
X136106023Y-87338488D01*
X136106023Y-87338488D02*
X136010343Y-87323095D01*
X136010343Y-87323095D02*
X135914511Y-87310043D01*
X135914511Y-87310043D02*
X135819613Y-87299655D01*
X135819613Y-87299655D02*
X135585248Y-87288527D01*
X135585248Y-87288527D02*
X135206747Y-87283548D01*
X135206747Y-87283548D02*
X134152422Y-87290137D01*
X134152422Y-87290137D02*
X132926813Y-87315623D01*
X132926813Y-87315623D02*
X131800094Y-87356208D01*
X131800094Y-87356208D02*
X131296822Y-87385209D01*
X131296822Y-87385209D02*
X130816131Y-87423178D01*
X130816131Y-87423178D02*
X130359308Y-87469744D01*
X130359308Y-87469744D02*
X129927640Y-87524536D01*
X129927640Y-87524536D02*
X129522414Y-87587182D01*
X129522414Y-87587182D02*
X129144917Y-87657311D01*
X129144917Y-87657311D02*
X128796436Y-87734552D01*
X128796436Y-87734552D02*
X128478258Y-87818534D01*
X128478258Y-87818534D02*
X128330934Y-87862937D01*
X128330934Y-87862937D02*
X128191669Y-87908886D01*
X128191669Y-87908886D02*
X128060623Y-87956335D01*
X128060623Y-87956335D02*
X127937957Y-88005237D01*
X127937957Y-88005237D02*
X127823832Y-88055545D01*
X127823832Y-88055545D02*
X127718409Y-88107215D01*
X127718409Y-88107215D02*
X127621848Y-88160198D01*
X127621848Y-88160198D02*
X127534311Y-88214449D01*
X127534311Y-88214449D02*
X127455958Y-88269921D01*
X127455958Y-88269921D02*
X127386951Y-88326568D01*
X127386951Y-88326568D02*
X127327450Y-88384344D01*
X127327450Y-88384344D02*
X127277616Y-88443202D01*
X127277616Y-88443202D02*
X127237609Y-88503096D01*
X127237609Y-88503096D02*
X127207592Y-88563978D01*
X127207592Y-88563978D02*
X127187724Y-88625804D01*
X127187724Y-88625804D02*
X127178167Y-88688527D01*
X127178167Y-88688527D02*
X127176653Y-88723932D01*
X127176653Y-88723932D02*
X127177013Y-88759096D01*
X127177013Y-88759096D02*
X127179247Y-88794021D01*
X127179247Y-88794021D02*
X127183357Y-88828710D01*
X127183357Y-88828710D02*
X127189346Y-88863164D01*
X127189346Y-88863164D02*
X127197215Y-88897386D01*
X127197215Y-88897386D02*
X127206966Y-88931378D01*
X127206966Y-88931378D02*
X127218601Y-88965142D01*
X127218601Y-88965142D02*
X127247531Y-89031996D01*
X127247531Y-89031996D02*
X127284020Y-89097964D01*
X127284020Y-89097964D02*
X127328084Y-89163064D01*
X127328084Y-89163064D02*
X127379737Y-89227313D01*
X127379737Y-89227313D02*
X127438995Y-89290730D01*
X127438995Y-89290730D02*
X127505873Y-89353330D01*
X127505873Y-89353330D02*
X127580387Y-89415132D01*
X127580387Y-89415132D02*
X127662550Y-89476154D01*
X127662550Y-89476154D02*
X127752379Y-89536411D01*
X127752379Y-89536411D02*
X127849890Y-89595922D01*
X127849890Y-89595922D02*
X127955096Y-89654705D01*
X127955096Y-89654705D02*
X128068014Y-89712776D01*
X128068014Y-89712776D02*
X128267036Y-89807431D01*
X128267036Y-89807431D02*
X128467362Y-89894900D01*
X128467362Y-89894900D02*
X128671058Y-89975587D01*
X128671058Y-89975587D02*
X128880189Y-90049895D01*
X128880189Y-90049895D02*
X129096823Y-90118227D01*
X129096823Y-90118227D02*
X129323026Y-90180988D01*
X129323026Y-90180988D02*
X129560865Y-90238580D01*
X129560865Y-90238580D02*
X129812406Y-90291408D01*
X129812406Y-90291408D02*
X130364860Y-90384381D01*
X130364860Y-90384381D02*
X130996923Y-90463134D01*
X130996923Y-90463134D02*
X131725125Y-90530897D01*
X131725125Y-90530897D02*
X132565999Y-90590896D01*
X132565999Y-90590896D02*
X133748777Y-90661199D01*
X133748777Y-90661199D02*
X134805891Y-90713648D01*
X134805891Y-90713648D02*
X135796921Y-90750847D01*
X135796921Y-90750847D02*
X136781446Y-90775396D01*
X136781446Y-90775396D02*
X138246605Y-90805100D01*
X138246605Y-90805100D02*
X138761740Y-90818431D01*
X138761740Y-90818431D02*
X139187897Y-90832968D01*
X139187897Y-90832968D02*
X139567065Y-90850379D01*
X139567065Y-90850379D02*
X139941233Y-90872330D01*
X139941233Y-90872330D02*
X140842525Y-90936517D01*
X140842525Y-90936517D02*
X141461199Y-90984058D01*
X141461199Y-90984058D02*
X141984039Y-91027876D01*
X141984039Y-91027876D02*
X142428791Y-91070134D01*
X142428791Y-91070134D02*
X142813200Y-91112994D01*
X142813200Y-91112994D02*
X143155011Y-91158619D01*
X143155011Y-91158619D02*
X143471967Y-91209174D01*
X143471967Y-91209174D02*
X143781815Y-91266820D01*
X143781815Y-91266820D02*
X144102298Y-91333720D01*
X144102298Y-91333720D02*
X144573339Y-91443478D01*
X144573339Y-91443478D02*
X145050331Y-91570713D01*
X145050331Y-91570713D02*
X145554711Y-91722878D01*
X145554711Y-91722878D02*
X146107919Y-91907425D01*
X146107919Y-91907425D02*
X146731393Y-92131804D01*
X146731393Y-92131804D02*
X147446572Y-92403468D01*
X147446572Y-92403468D02*
X148274893Y-92729868D01*
X148274893Y-92729868D02*
X149237796Y-93118457D01*
X149237796Y-93118457D02*
X150371811Y-93578149D01*
X150371811Y-93578149D02*
X151139261Y-93891820D01*
X151139261Y-93891820D02*
X151978988Y-94243891D01*
X151978988Y-94243891D02*
X154236961Y-95216607D01*
X154236961Y-95216607D02*
X155025836Y-95558871D01*
X155025836Y-95558871D02*
X155513469Y-95768994D01*
X155513469Y-95768994D02*
X155979284Y-95966606D01*
X155979284Y-95966606D02*
X156141287Y-96034914D01*
X156141287Y-96034914D02*
X156262917Y-96085755D01*
X156262917Y-96085755D02*
X156349349Y-96121280D01*
X156349349Y-96121280D02*
X156405754Y-96143636D01*
X156405754Y-96143636D02*
X156424314Y-96150547D01*
X156424314Y-96150547D02*
X156437307Y-96154972D01*
X156437307Y-96154972D02*
X156445380Y-96157180D01*
X156445380Y-96157180D02*
X156447774Y-96157536D01*
X156447774Y-96157536D02*
X156449180Y-96157438D01*
X156449180Y-96157438D02*
X156299005Y-96076730D01*
X156299005Y-96076730D02*
X155808792Y-95835834D01*
X155808792Y-95835834D02*
X153720420Y-94830760D01*
X153720420Y-94830760D02*
X151785313Y-93901459D01*
X151785313Y-93901459D02*
X150532117Y-93292938D01*
X150532117Y-93292938D02*
X149628794Y-92851320D01*
X149628794Y-92851320D02*
X149042025Y-92568797D01*
X149042025Y-92568797D02*
X148527909Y-92329830D01*
X148527909Y-92329830D02*
X147842543Y-92018878D01*
X147842543Y-92018878D02*
X147355135Y-91796783D01*
X147355135Y-91796783D02*
X146923992Y-91596547D01*
X146923992Y-91596547D02*
X146538767Y-91412986D01*
X146538767Y-91412986D02*
X146189111Y-91240913D01*
X146189111Y-91240913D02*
X145864678Y-91075144D01*
X145864678Y-91075144D02*
X145555118Y-90910494D01*
X145555118Y-90910494D02*
X145250084Y-90741777D01*
X145250084Y-90741777D02*
X144939228Y-90563807D01*
X144939228Y-90563807D02*
X144258608Y-90154008D01*
X144258608Y-90154008D02*
X143513229Y-89675220D01*
X143513229Y-89675220D02*
X142672291Y-89105337D01*
X142672291Y-89105337D02*
X141704994Y-88422250D01*
X141704994Y-88422250D02*
X140580540Y-87603854D01*
X140580540Y-87603854D02*
X139268130Y-86628040D01*
X139268130Y-86628040D02*
X135956243Y-84115731D01*
X135956243Y-84115731D02*
X134643279Y-83104390D01*
X134643279Y-83104390D02*
X134121552Y-82694260D01*
X134121552Y-82694260D02*
X133650447Y-82315947D01*
X133650447Y-82315947D02*
X133200553Y-81945545D01*
X133200553Y-81945545D02*
X132742458Y-81559147D01*
X132742458Y-81559147D02*
X131684022Y-80642737D01*
X131684022Y-80642737D02*
X131231641Y-80243803D01*
X131231641Y-80243803D02*
X131045862Y-80075935D01*
X131045862Y-80075935D02*
X130868819Y-79912066D01*
X130868819Y-79912066D02*
X130686857Y-79739395D01*
X130686857Y-79739395D02*
X130486322Y-79545123D01*
X130486322Y-79545123D02*
X129974911Y-79040570D01*
X129974911Y-79040570D02*
X129698613Y-78767389D01*
X129698613Y-78767389D02*
X129470505Y-78543678D01*
X129470505Y-78543678D02*
X129314255Y-78392522D01*
X129314255Y-78392522D02*
X129270473Y-78351366D01*
X129270473Y-78351366D02*
X129258463Y-78340656D01*
X129258463Y-78340656D02*
X129253533Y-78337006D01*
X129253533Y-78337006D02*
X129241996Y-78340241D01*
G36*
X135334211Y-88044346D02*
G01*
X135326291Y-88092785D01*
X135315539Y-88140991D01*
X135302057Y-88188563D01*
X135285944Y-88235100D01*
X135267304Y-88280200D01*
X135246236Y-88323463D01*
X135222843Y-88364486D01*
X135197225Y-88402869D01*
X135169485Y-88438211D01*
X135139722Y-88470109D01*
X135085158Y-88520516D01*
X135027900Y-88567866D01*
X134968189Y-88612153D01*
X134906267Y-88653367D01*
X134842377Y-88691503D01*
X134776760Y-88726551D01*
X134709659Y-88758505D01*
X134641315Y-88787357D01*
X134501868Y-88835724D01*
X134360355Y-88871590D01*
X134218712Y-88894896D01*
X134078876Y-88905579D01*
X133942781Y-88903580D01*
X133876743Y-88897805D01*
X133812366Y-88888836D01*
X133749892Y-88876666D01*
X133689565Y-88861287D01*
X133631625Y-88842692D01*
X133576314Y-88820873D01*
X133523875Y-88795821D01*
X133474550Y-88767531D01*
X133428581Y-88735993D01*
X133386209Y-88701201D01*
X133347677Y-88663147D01*
X133313227Y-88621823D01*
X133283101Y-88577221D01*
X133257540Y-88529334D01*
X133250078Y-88510250D01*
X133243478Y-88487012D01*
X133237751Y-88460129D01*
X133232905Y-88430113D01*
X133228953Y-88397471D01*
X133225902Y-88362714D01*
X133223764Y-88326352D01*
X133222548Y-88288894D01*
X133222264Y-88250850D01*
X133222764Y-88221933D01*
X133777199Y-88221933D01*
X133779439Y-88254240D01*
X133785994Y-88283915D01*
X133796623Y-88310986D01*
X133811083Y-88335485D01*
X133829129Y-88357441D01*
X133850520Y-88376883D01*
X133875012Y-88393843D01*
X133902362Y-88408349D01*
X133932326Y-88420431D01*
X133964663Y-88430120D01*
X133999129Y-88437445D01*
X134035481Y-88442437D01*
X134073475Y-88445124D01*
X134112869Y-88445538D01*
X134153420Y-88443708D01*
X134194884Y-88439663D01*
X134237019Y-88433434D01*
X134279582Y-88425051D01*
X134322329Y-88414543D01*
X134365017Y-88401941D01*
X134407403Y-88387273D01*
X134449245Y-88370572D01*
X134490299Y-88351865D01*
X134530323Y-88331183D01*
X134569072Y-88308556D01*
X134606304Y-88284014D01*
X134641776Y-88257587D01*
X134675246Y-88229304D01*
X134706469Y-88199195D01*
X134735203Y-88167291D01*
X134761204Y-88133622D01*
X134784231Y-88098216D01*
X134790504Y-88086658D01*
X134796029Y-88074512D01*
X134800822Y-88061834D01*
X134804898Y-88048684D01*
X134808271Y-88035119D01*
X134810956Y-88021197D01*
X134814323Y-87992515D01*
X134815118Y-87963103D01*
X134813461Y-87933426D01*
X134809471Y-87903948D01*
X134803267Y-87875133D01*
X134794969Y-87847446D01*
X134784696Y-87821352D01*
X134772567Y-87797315D01*
X134765844Y-87786213D01*
X134758702Y-87775799D01*
X134751156Y-87766132D01*
X134743221Y-87757270D01*
X134734911Y-87749270D01*
X134726242Y-87742191D01*
X134717228Y-87736091D01*
X134707885Y-87731027D01*
X134698227Y-87727059D01*
X134688270Y-87724244D01*
X134668814Y-87720361D01*
X134648314Y-87717007D01*
X134626960Y-87714180D01*
X134604942Y-87711879D01*
X134582450Y-87710105D01*
X134559676Y-87708857D01*
X134536808Y-87708133D01*
X134514038Y-87707934D01*
X134491556Y-87708258D01*
X134469552Y-87709105D01*
X134448216Y-87710475D01*
X134427740Y-87712366D01*
X134408313Y-87714778D01*
X134390126Y-87717710D01*
X134373368Y-87721162D01*
X134358231Y-87725133D01*
X134310221Y-87741485D01*
X134260989Y-87762175D01*
X134211131Y-87786693D01*
X134161243Y-87814531D01*
X134111921Y-87845177D01*
X134063762Y-87878123D01*
X134017361Y-87912859D01*
X133973314Y-87948875D01*
X133932216Y-87985661D01*
X133894665Y-88022709D01*
X133861256Y-88059507D01*
X133832585Y-88095548D01*
X133809248Y-88130320D01*
X133791840Y-88163315D01*
X133785547Y-88178986D01*
X133780959Y-88194022D01*
X133778152Y-88208359D01*
X133777199Y-88221933D01*
X133222764Y-88221933D01*
X133222923Y-88212729D01*
X133224533Y-88175042D01*
X133227107Y-88138297D01*
X133230652Y-88103004D01*
X133235180Y-88069674D01*
X133240701Y-88038815D01*
X133247224Y-88010938D01*
X133256435Y-87977962D01*
X133259862Y-87964922D01*
X133261145Y-87959203D01*
X133262088Y-87953996D01*
X133262654Y-87949283D01*
X133262802Y-87945046D01*
X133262495Y-87941269D01*
X133261692Y-87937934D01*
X133260356Y-87935024D01*
X133258446Y-87932521D01*
X133255925Y-87930409D01*
X133252754Y-87928670D01*
X133248892Y-87927286D01*
X133244302Y-87926241D01*
X133238944Y-87925517D01*
X133232780Y-87925097D01*
X133225770Y-87924964D01*
X133217876Y-87925099D01*
X133199279Y-87926110D01*
X133176677Y-87927989D01*
X133149758Y-87930601D01*
X133081725Y-87937465D01*
X132979618Y-87946142D01*
X132832676Y-87956900D01*
X132660546Y-87968367D01*
X132482879Y-87979174D01*
X132215760Y-87996240D01*
X131949156Y-88016526D01*
X131687253Y-88039587D01*
X131434240Y-88064976D01*
X131194304Y-88092248D01*
X130971632Y-88120955D01*
X130770412Y-88150651D01*
X130594832Y-88180892D01*
X130384616Y-88219669D01*
X130137664Y-88264236D01*
X129950214Y-88299000D01*
X129781477Y-88333356D01*
X129627325Y-88368432D01*
X129483629Y-88405357D01*
X129346262Y-88445260D01*
X129211094Y-88489269D01*
X129073997Y-88538515D01*
X128930843Y-88594124D01*
X128840821Y-88631885D01*
X128749774Y-88672968D01*
X128662313Y-88714939D01*
X128583050Y-88755367D01*
X128516597Y-88791819D01*
X128467563Y-88821861D01*
X128451020Y-88833719D01*
X128440562Y-88843062D01*
X128437794Y-88846696D01*
X128436764Y-88849587D01*
X128437543Y-88851697D01*
X128440203Y-88852989D01*
X128469427Y-88862022D01*
X128540618Y-88884622D01*
X128766158Y-88956890D01*
X128856668Y-88985645D01*
X128936791Y-89010208D01*
X129009888Y-89031450D01*
X129079320Y-89050244D01*
X129148450Y-89067461D01*
X129220639Y-89083976D01*
X129299249Y-89100659D01*
X129387639Y-89118383D01*
X130342368Y-89296352D01*
X131348575Y-89466696D01*
X132348507Y-89620090D01*
X133284406Y-89747213D01*
X133430410Y-89764709D01*
X133589087Y-89781819D01*
X133774592Y-89799741D01*
X134001078Y-89819675D01*
X134633615Y-89870375D01*
X135599935Y-89943513D01*
X136334703Y-89994417D01*
X137013788Y-90030354D01*
X137771147Y-90057178D01*
X138740739Y-90080738D01*
X139862527Y-90107121D01*
X140747529Y-90134173D01*
X141352741Y-90157159D01*
X141832330Y-90181077D01*
X142284576Y-90211675D01*
X142807755Y-90254699D01*
X142890876Y-90261898D01*
X142786976Y-90195920D01*
X142762625Y-90180151D01*
X142733238Y-90160580D01*
X142663832Y-90113133D01*
X142587720Y-90059785D01*
X142513862Y-90006744D01*
X142346346Y-89886566D01*
X142128784Y-89733965D01*
X141840295Y-89534385D01*
X141460000Y-89273272D01*
X140721994Y-88763858D01*
X140021524Y-88269709D01*
X139231343Y-87700000D01*
X138224198Y-86963904D01*
X137141154Y-86165031D01*
X136239032Y-85488683D01*
X135432968Y-84870557D01*
X134638099Y-84246351D01*
X133434109Y-83283180D01*
X132382020Y-82434673D01*
X132274107Y-82347494D01*
X132178396Y-82272690D01*
X132095356Y-82210582D01*
X132025459Y-82161485D01*
X131995586Y-82141916D01*
X131969175Y-82125720D01*
X131946284Y-82112936D01*
X131926973Y-82103604D01*
X131911301Y-82097764D01*
X131899326Y-82095456D01*
X131894743Y-82095638D01*
X131891107Y-82096719D01*
X131888424Y-82098702D01*
X131886703Y-82101593D01*
X131885772Y-82104243D01*
X131884928Y-82106919D01*
X131884173Y-82109604D01*
X131883509Y-82112279D01*
X131882937Y-82114926D01*
X131882460Y-82117526D01*
X131882079Y-82120061D01*
X131881796Y-82122513D01*
X131881613Y-82124863D01*
X131881532Y-82127093D01*
X131881555Y-82129184D01*
X131881683Y-82131118D01*
X131881919Y-82132877D01*
X131882264Y-82134443D01*
X131882720Y-82135797D01*
X131883289Y-82136920D01*
X131884392Y-82140226D01*
X131884798Y-82145344D01*
X131883646Y-82160608D01*
X131880086Y-82181898D01*
X131874371Y-82208395D01*
X131857479Y-82273753D01*
X131834985Y-82350151D01*
X131808904Y-82431061D01*
X131781251Y-82509954D01*
X131754042Y-82580302D01*
X131741234Y-82610231D01*
X131729291Y-82635575D01*
X131699137Y-82690671D01*
X131663804Y-82746127D01*
X131623436Y-82801865D01*
X131578178Y-82857806D01*
X131528174Y-82913869D01*
X131473567Y-82969977D01*
X131414501Y-83026049D01*
X131351121Y-83082007D01*
X131211991Y-83193265D01*
X131057330Y-83303116D01*
X130888288Y-83410928D01*
X130706017Y-83516069D01*
X130511668Y-83617904D01*
X130306393Y-83715802D01*
X130091342Y-83809129D01*
X129867668Y-83897252D01*
X129636522Y-83979538D01*
X129399055Y-84055355D01*
X129156419Y-84124069D01*
X128909765Y-84185048D01*
X128836196Y-84201432D01*
X128773294Y-84214393D01*
X128721069Y-84223921D01*
X128679530Y-84230002D01*
X128648683Y-84232624D01*
X128637273Y-84232635D01*
X128628539Y-84231775D01*
X128622483Y-84230045D01*
X128619106Y-84227443D01*
X128618408Y-84223966D01*
X128620391Y-84219614D01*
X128625057Y-84214385D01*
X128632405Y-84208277D01*
X128655155Y-84193419D01*
X128688650Y-84175028D01*
X128732899Y-84153092D01*
X128787910Y-84127597D01*
X128853692Y-84098532D01*
X128930253Y-84065884D01*
X129017602Y-84029641D01*
X129226329Y-83942355D01*
X129406617Y-83862731D01*
X129565413Y-83786922D01*
X129638922Y-83749245D01*
X129709663Y-83711080D01*
X129778505Y-83671945D01*
X129846316Y-83631359D01*
X129982317Y-83543913D01*
X130124615Y-83444894D01*
X130280157Y-83330456D01*
X130415996Y-83225151D01*
X130538432Y-83122803D01*
X130647824Y-83022562D01*
X130697742Y-82972966D01*
X130744534Y-82923580D01*
X130788246Y-82874297D01*
X130828922Y-82825010D01*
X130866608Y-82775614D01*
X130901348Y-82726003D01*
X130933188Y-82676071D01*
X130962173Y-82625712D01*
X130988347Y-82574819D01*
X131011757Y-82523287D01*
X131032446Y-82471009D01*
X131050461Y-82417880D01*
X131065846Y-82363794D01*
X131078645Y-82308644D01*
X131088905Y-82252325D01*
X131096670Y-82194731D01*
X131101986Y-82135754D01*
X131104897Y-82075291D01*
X131105448Y-82013234D01*
X131103685Y-81949477D01*
X131099653Y-81883915D01*
X131093396Y-81816441D01*
X131074390Y-81675334D01*
X131047027Y-81525309D01*
X131027908Y-81434635D01*
X131008361Y-81349981D01*
X130987738Y-81270029D01*
X130965394Y-81193462D01*
X130940682Y-81118961D01*
X130912956Y-81045207D01*
X130881569Y-80970883D01*
X130845876Y-80894671D01*
X130805230Y-80815252D01*
X130758984Y-80731308D01*
X130706493Y-80641522D01*
X130647109Y-80544574D01*
X130580188Y-80439147D01*
X130505082Y-80323922D01*
X130327730Y-80058808D01*
X129730745Y-79171473D01*
X129531789Y-78869952D01*
X129389895Y-78648303D01*
X129298094Y-78495355D01*
X129249413Y-78399936D01*
X129239065Y-78370310D01*
X129236883Y-78350877D01*
X129241996Y-78340241D01*
X129253533Y-78337006D01*
X129258463Y-78340656D01*
X129270473Y-78351366D01*
X129314255Y-78392522D01*
X129470505Y-78543678D01*
X129698613Y-78767389D01*
X129974911Y-79040570D01*
X130486322Y-79545123D01*
X130686857Y-79739395D01*
X130868819Y-79912066D01*
X131045862Y-80075935D01*
X131231641Y-80243803D01*
X131684022Y-80642737D01*
X132742458Y-81559147D01*
X133200553Y-81945545D01*
X133650447Y-82315947D01*
X134121552Y-82694260D01*
X134643279Y-83104390D01*
X135956243Y-84115731D01*
X139268130Y-86628040D01*
X140580540Y-87603854D01*
X141704994Y-88422250D01*
X142672291Y-89105337D01*
X143513229Y-89675220D01*
X144258608Y-90154008D01*
X144939228Y-90563807D01*
X145250084Y-90741777D01*
X145555118Y-90910494D01*
X145864678Y-91075144D01*
X146189111Y-91240913D01*
X146538767Y-91412986D01*
X146923992Y-91596547D01*
X147355135Y-91796783D01*
X147842543Y-92018878D01*
X148527909Y-92329830D01*
X149042025Y-92568797D01*
X149628794Y-92851320D01*
X150532117Y-93292938D01*
X151785313Y-93901459D01*
X153720420Y-94830760D01*
X155808792Y-95835834D01*
X156299005Y-96076730D01*
X156449180Y-96157438D01*
X156447774Y-96157536D01*
X156445380Y-96157180D01*
X156437307Y-96154972D01*
X156424314Y-96150547D01*
X156405754Y-96143636D01*
X156349349Y-96121280D01*
X156262917Y-96085755D01*
X156141287Y-96034914D01*
X155979284Y-95966606D01*
X155513469Y-95768994D01*
X155025836Y-95558871D01*
X154236961Y-95216607D01*
X151978988Y-94243891D01*
X151139261Y-93891820D01*
X150371811Y-93578149D01*
X149237796Y-93118457D01*
X148274893Y-92729868D01*
X147446572Y-92403468D01*
X146731393Y-92131804D01*
X146107919Y-91907425D01*
X145554711Y-91722878D01*
X145050331Y-91570713D01*
X144573339Y-91443478D01*
X144102298Y-91333720D01*
X143781815Y-91266820D01*
X143471967Y-91209174D01*
X143155011Y-91158619D01*
X142813200Y-91112994D01*
X142428791Y-91070134D01*
X141984039Y-91027876D01*
X141461199Y-90984058D01*
X140842525Y-90936517D01*
X139941233Y-90872330D01*
X139567065Y-90850379D01*
X139187897Y-90832968D01*
X138761740Y-90818431D01*
X138246605Y-90805100D01*
X136781446Y-90775396D01*
X135796921Y-90750847D01*
X134805891Y-90713648D01*
X133748777Y-90661199D01*
X132565999Y-90590896D01*
X131725125Y-90530897D01*
X130996923Y-90463134D01*
X130364860Y-90384381D01*
X129812406Y-90291408D01*
X129560865Y-90238580D01*
X129323026Y-90180988D01*
X129096823Y-90118227D01*
X128880189Y-90049895D01*
X128671058Y-89975587D01*
X128467362Y-89894900D01*
X128267036Y-89807431D01*
X128068014Y-89712776D01*
X127955096Y-89654705D01*
X127849890Y-89595922D01*
X127752379Y-89536411D01*
X127662550Y-89476154D01*
X127580387Y-89415132D01*
X127505873Y-89353330D01*
X127438995Y-89290730D01*
X127379737Y-89227313D01*
X127328084Y-89163064D01*
X127284020Y-89097964D01*
X127247531Y-89031996D01*
X127218601Y-88965142D01*
X127206966Y-88931378D01*
X127197215Y-88897386D01*
X127189346Y-88863164D01*
X127183357Y-88828710D01*
X127179247Y-88794021D01*
X127177013Y-88759096D01*
X127176653Y-88723932D01*
X127178167Y-88688527D01*
X127187724Y-88625804D01*
X127207592Y-88563978D01*
X127237609Y-88503096D01*
X127277616Y-88443202D01*
X127327450Y-88384344D01*
X127386951Y-88326568D01*
X127455958Y-88269921D01*
X127534311Y-88214449D01*
X127621848Y-88160198D01*
X127718409Y-88107215D01*
X127823832Y-88055545D01*
X127937957Y-88005237D01*
X128060623Y-87956335D01*
X128191669Y-87908886D01*
X128330934Y-87862937D01*
X128478258Y-87818534D01*
X128796436Y-87734552D01*
X129144917Y-87657311D01*
X129522414Y-87587182D01*
X129927640Y-87524536D01*
X130359308Y-87469744D01*
X130816131Y-87423178D01*
X131296822Y-87385209D01*
X131800094Y-87356208D01*
X132926813Y-87315623D01*
X134152422Y-87290137D01*
X135206747Y-87283548D01*
X135585248Y-87288527D01*
X135819613Y-87299655D01*
X135914511Y-87310043D01*
X136010343Y-87323095D01*
X136106023Y-87338488D01*
X136200464Y-87355897D01*
X136381283Y-87395468D01*
X136544106Y-87439218D01*
X136616052Y-87461849D01*
X136680238Y-87484554D01*
X136735579Y-87507007D01*
X136780987Y-87528884D01*
X136815377Y-87549862D01*
X136837660Y-87569617D01*
X136843922Y-87578935D01*
X136846750Y-87587825D01*
X136846008Y-87596247D01*
X136841561Y-87604162D01*
X136836208Y-87608716D01*
X136827802Y-87613218D01*
X136802175Y-87622041D01*
X136765362Y-87630583D01*
X136718044Y-87638796D01*
X136660905Y-87646631D01*
X136594626Y-87654040D01*
X136437374Y-87667385D01*
X136251745Y-87678444D01*
X136043195Y-87686831D01*
X135817180Y-87692158D01*
X135579154Y-87694038D01*
X135469664Y-87694783D01*
X135380024Y-87696718D01*
X135345538Y-87698043D01*
X135319481Y-87699558D01*
X135303011Y-87701228D01*
X135298732Y-87702110D01*
X135297283Y-87703017D01*
X135297396Y-87704232D01*
X135297701Y-87706018D01*
X135298847Y-87711160D01*
X135300642Y-87718164D01*
X135303006Y-87726748D01*
X135305861Y-87736634D01*
X135309127Y-87747540D01*
X135312726Y-87759188D01*
X135316578Y-87771296D01*
X135327779Y-87812705D01*
X135335541Y-87856289D01*
X135339963Y-87901646D01*
X135341148Y-87948375D01*
X135340546Y-87963103D01*
X135339197Y-87996076D01*
X135334211Y-88044346D01*
G37*
X135334211Y-88044346D02*
X135326291Y-88092785D01*
X135315539Y-88140991D01*
X135302057Y-88188563D01*
X135285944Y-88235100D01*
X135267304Y-88280200D01*
X135246236Y-88323463D01*
X135222843Y-88364486D01*
X135197225Y-88402869D01*
X135169485Y-88438211D01*
X135139722Y-88470109D01*
X135085158Y-88520516D01*
X135027900Y-88567866D01*
X134968189Y-88612153D01*
X134906267Y-88653367D01*
X134842377Y-88691503D01*
X134776760Y-88726551D01*
X134709659Y-88758505D01*
X134641315Y-88787357D01*
X134501868Y-88835724D01*
X134360355Y-88871590D01*
X134218712Y-88894896D01*
X134078876Y-88905579D01*
X133942781Y-88903580D01*
X133876743Y-88897805D01*
X133812366Y-88888836D01*
X133749892Y-88876666D01*
X133689565Y-88861287D01*
X133631625Y-88842692D01*
X133576314Y-88820873D01*
X133523875Y-88795821D01*
X133474550Y-88767531D01*
X133428581Y-88735993D01*
X133386209Y-88701201D01*
X133347677Y-88663147D01*
X133313227Y-88621823D01*
X133283101Y-88577221D01*
X133257540Y-88529334D01*
X133250078Y-88510250D01*
X133243478Y-88487012D01*
X133237751Y-88460129D01*
X133232905Y-88430113D01*
X133228953Y-88397471D01*
X133225902Y-88362714D01*
X133223764Y-88326352D01*
X133222548Y-88288894D01*
X133222264Y-88250850D01*
X133222764Y-88221933D01*
X133777199Y-88221933D01*
X133779439Y-88254240D01*
X133785994Y-88283915D01*
X133796623Y-88310986D01*
X133811083Y-88335485D01*
X133829129Y-88357441D01*
X133850520Y-88376883D01*
X133875012Y-88393843D01*
X133902362Y-88408349D01*
X133932326Y-88420431D01*
X133964663Y-88430120D01*
X133999129Y-88437445D01*
X134035481Y-88442437D01*
X134073475Y-88445124D01*
X134112869Y-88445538D01*
X134153420Y-88443708D01*
X134194884Y-88439663D01*
X134237019Y-88433434D01*
X134279582Y-88425051D01*
X134322329Y-88414543D01*
X134365017Y-88401941D01*
X134407403Y-88387273D01*
X134449245Y-88370572D01*
X134490299Y-88351865D01*
X134530323Y-88331183D01*
X134569072Y-88308556D01*
X134606304Y-88284014D01*
X134641776Y-88257587D01*
X134675246Y-88229304D01*
X134706469Y-88199195D01*
X134735203Y-88167291D01*
X134761204Y-88133622D01*
X134784231Y-88098216D01*
X134790504Y-88086658D01*
X134796029Y-88074512D01*
X134800822Y-88061834D01*
X134804898Y-88048684D01*
X134808271Y-88035119D01*
X134810956Y-88021197D01*
X134814323Y-87992515D01*
X134815118Y-87963103D01*
X134813461Y-87933426D01*
X134809471Y-87903948D01*
X134803267Y-87875133D01*
X134794969Y-87847446D01*
X134784696Y-87821352D01*
X134772567Y-87797315D01*
X134765844Y-87786213D01*
X134758702Y-87775799D01*
X134751156Y-87766132D01*
X134743221Y-87757270D01*
X134734911Y-87749270D01*
X134726242Y-87742191D01*
X134717228Y-87736091D01*
X134707885Y-87731027D01*
X134698227Y-87727059D01*
X134688270Y-87724244D01*
X134668814Y-87720361D01*
X134648314Y-87717007D01*
X134626960Y-87714180D01*
X134604942Y-87711879D01*
X134582450Y-87710105D01*
X134559676Y-87708857D01*
X134536808Y-87708133D01*
X134514038Y-87707934D01*
X134491556Y-87708258D01*
X134469552Y-87709105D01*
X134448216Y-87710475D01*
X134427740Y-87712366D01*
X134408313Y-87714778D01*
X134390126Y-87717710D01*
X134373368Y-87721162D01*
X134358231Y-87725133D01*
X134310221Y-87741485D01*
X134260989Y-87762175D01*
X134211131Y-87786693D01*
X134161243Y-87814531D01*
X134111921Y-87845177D01*
X134063762Y-87878123D01*
X134017361Y-87912859D01*
X133973314Y-87948875D01*
X133932216Y-87985661D01*
X133894665Y-88022709D01*
X133861256Y-88059507D01*
X133832585Y-88095548D01*
X133809248Y-88130320D01*
X133791840Y-88163315D01*
X133785547Y-88178986D01*
X133780959Y-88194022D01*
X133778152Y-88208359D01*
X133777199Y-88221933D01*
X133222764Y-88221933D01*
X133222923Y-88212729D01*
X133224533Y-88175042D01*
X133227107Y-88138297D01*
X133230652Y-88103004D01*
X133235180Y-88069674D01*
X133240701Y-88038815D01*
X133247224Y-88010938D01*
X133256435Y-87977962D01*
X133259862Y-87964922D01*
X133261145Y-87959203D01*
X133262088Y-87953996D01*
X133262654Y-87949283D01*
X133262802Y-87945046D01*
X133262495Y-87941269D01*
X133261692Y-87937934D01*
X133260356Y-87935024D01*
X133258446Y-87932521D01*
X133255925Y-87930409D01*
X133252754Y-87928670D01*
X133248892Y-87927286D01*
X133244302Y-87926241D01*
X133238944Y-87925517D01*
X133232780Y-87925097D01*
X133225770Y-87924964D01*
X133217876Y-87925099D01*
X133199279Y-87926110D01*
X133176677Y-87927989D01*
X133149758Y-87930601D01*
X133081725Y-87937465D01*
X132979618Y-87946142D01*
X132832676Y-87956900D01*
X132660546Y-87968367D01*
X132482879Y-87979174D01*
X132215760Y-87996240D01*
X131949156Y-88016526D01*
X131687253Y-88039587D01*
X131434240Y-88064976D01*
X131194304Y-88092248D01*
X130971632Y-88120955D01*
X130770412Y-88150651D01*
X130594832Y-88180892D01*
X130384616Y-88219669D01*
X130137664Y-88264236D01*
X129950214Y-88299000D01*
X129781477Y-88333356D01*
X129627325Y-88368432D01*
X129483629Y-88405357D01*
X129346262Y-88445260D01*
X129211094Y-88489269D01*
X129073997Y-88538515D01*
X128930843Y-88594124D01*
X128840821Y-88631885D01*
X128749774Y-88672968D01*
X128662313Y-88714939D01*
X128583050Y-88755367D01*
X128516597Y-88791819D01*
X128467563Y-88821861D01*
X128451020Y-88833719D01*
X128440562Y-88843062D01*
X128437794Y-88846696D01*
X128436764Y-88849587D01*
X128437543Y-88851697D01*
X128440203Y-88852989D01*
X128469427Y-88862022D01*
X128540618Y-88884622D01*
X128766158Y-88956890D01*
X128856668Y-88985645D01*
X128936791Y-89010208D01*
X129009888Y-89031450D01*
X129079320Y-89050244D01*
X129148450Y-89067461D01*
X129220639Y-89083976D01*
X129299249Y-89100659D01*
X129387639Y-89118383D01*
X130342368Y-89296352D01*
X131348575Y-89466696D01*
X132348507Y-89620090D01*
X133284406Y-89747213D01*
X133430410Y-89764709D01*
X133589087Y-89781819D01*
X133774592Y-89799741D01*
X134001078Y-89819675D01*
X134633615Y-89870375D01*
X135599935Y-89943513D01*
X136334703Y-89994417D01*
X137013788Y-90030354D01*
X137771147Y-90057178D01*
X138740739Y-90080738D01*
X139862527Y-90107121D01*
X140747529Y-90134173D01*
X141352741Y-90157159D01*
X141832330Y-90181077D01*
X142284576Y-90211675D01*
X142807755Y-90254699D01*
X142890876Y-90261898D01*
X142786976Y-90195920D01*
X142762625Y-90180151D01*
X142733238Y-90160580D01*
X142663832Y-90113133D01*
X142587720Y-90059785D01*
X142513862Y-90006744D01*
X142346346Y-89886566D01*
X142128784Y-89733965D01*
X141840295Y-89534385D01*
X141460000Y-89273272D01*
X140721994Y-88763858D01*
X140021524Y-88269709D01*
X139231343Y-87700000D01*
X138224198Y-86963904D01*
X137141154Y-86165031D01*
X136239032Y-85488683D01*
X135432968Y-84870557D01*
X134638099Y-84246351D01*
X133434109Y-83283180D01*
X132382020Y-82434673D01*
X132274107Y-82347494D01*
X132178396Y-82272690D01*
X132095356Y-82210582D01*
X132025459Y-82161485D01*
X131995586Y-82141916D01*
X131969175Y-82125720D01*
X131946284Y-82112936D01*
X131926973Y-82103604D01*
X131911301Y-82097764D01*
X131899326Y-82095456D01*
X131894743Y-82095638D01*
X131891107Y-82096719D01*
X131888424Y-82098702D01*
X131886703Y-82101593D01*
X131885772Y-82104243D01*
X131884928Y-82106919D01*
X131884173Y-82109604D01*
X131883509Y-82112279D01*
X131882937Y-82114926D01*
X131882460Y-82117526D01*
X131882079Y-82120061D01*
X131881796Y-82122513D01*
X131881613Y-82124863D01*
X131881532Y-82127093D01*
X131881555Y-82129184D01*
X131881683Y-82131118D01*
X131881919Y-82132877D01*
X131882264Y-82134443D01*
X131882720Y-82135797D01*
X131883289Y-82136920D01*
X131884392Y-82140226D01*
X131884798Y-82145344D01*
X131883646Y-82160608D01*
X131880086Y-82181898D01*
X131874371Y-82208395D01*
X131857479Y-82273753D01*
X131834985Y-82350151D01*
X131808904Y-82431061D01*
X131781251Y-82509954D01*
X131754042Y-82580302D01*
X131741234Y-82610231D01*
X131729291Y-82635575D01*
X131699137Y-82690671D01*
X131663804Y-82746127D01*
X131623436Y-82801865D01*
X131578178Y-82857806D01*
X131528174Y-82913869D01*
X131473567Y-82969977D01*
X131414501Y-83026049D01*
X131351121Y-83082007D01*
X131211991Y-83193265D01*
X131057330Y-83303116D01*
X130888288Y-83410928D01*
X130706017Y-83516069D01*
X130511668Y-83617904D01*
X130306393Y-83715802D01*
X130091342Y-83809129D01*
X129867668Y-83897252D01*
X129636522Y-83979538D01*
X129399055Y-84055355D01*
X129156419Y-84124069D01*
X128909765Y-84185048D01*
X128836196Y-84201432D01*
X128773294Y-84214393D01*
X128721069Y-84223921D01*
X128679530Y-84230002D01*
X128648683Y-84232624D01*
X128637273Y-84232635D01*
X128628539Y-84231775D01*
X128622483Y-84230045D01*
X128619106Y-84227443D01*
X128618408Y-84223966D01*
X128620391Y-84219614D01*
X128625057Y-84214385D01*
X128632405Y-84208277D01*
X128655155Y-84193419D01*
X128688650Y-84175028D01*
X128732899Y-84153092D01*
X128787910Y-84127597D01*
X128853692Y-84098532D01*
X128930253Y-84065884D01*
X129017602Y-84029641D01*
X129226329Y-83942355D01*
X129406617Y-83862731D01*
X129565413Y-83786922D01*
X129638922Y-83749245D01*
X129709663Y-83711080D01*
X129778505Y-83671945D01*
X129846316Y-83631359D01*
X129982317Y-83543913D01*
X130124615Y-83444894D01*
X130280157Y-83330456D01*
X130415996Y-83225151D01*
X130538432Y-83122803D01*
X130647824Y-83022562D01*
X130697742Y-82972966D01*
X130744534Y-82923580D01*
X130788246Y-82874297D01*
X130828922Y-82825010D01*
X130866608Y-82775614D01*
X130901348Y-82726003D01*
X130933188Y-82676071D01*
X130962173Y-82625712D01*
X130988347Y-82574819D01*
X131011757Y-82523287D01*
X131032446Y-82471009D01*
X131050461Y-82417880D01*
X131065846Y-82363794D01*
X131078645Y-82308644D01*
X131088905Y-82252325D01*
X131096670Y-82194731D01*
X131101986Y-82135754D01*
X131104897Y-82075291D01*
X131105448Y-82013234D01*
X131103685Y-81949477D01*
X131099653Y-81883915D01*
X131093396Y-81816441D01*
X131074390Y-81675334D01*
X131047027Y-81525309D01*
X131027908Y-81434635D01*
X131008361Y-81349981D01*
X130987738Y-81270029D01*
X130965394Y-81193462D01*
X130940682Y-81118961D01*
X130912956Y-81045207D01*
X130881569Y-80970883D01*
X130845876Y-80894671D01*
X130805230Y-80815252D01*
X130758984Y-80731308D01*
X130706493Y-80641522D01*
X130647109Y-80544574D01*
X130580188Y-80439147D01*
X130505082Y-80323922D01*
X130327730Y-80058808D01*
X129730745Y-79171473D01*
X129531789Y-78869952D01*
X129389895Y-78648303D01*
X129298094Y-78495355D01*
X129249413Y-78399936D01*
X129239065Y-78370310D01*
X129236883Y-78350877D01*
X129241996Y-78340241D01*
X129253533Y-78337006D01*
X129258463Y-78340656D01*
X129270473Y-78351366D01*
X129314255Y-78392522D01*
X129470505Y-78543678D01*
X129698613Y-78767389D01*
X129974911Y-79040570D01*
X130486322Y-79545123D01*
X130686857Y-79739395D01*
X130868819Y-79912066D01*
X131045862Y-80075935D01*
X131231641Y-80243803D01*
X131684022Y-80642737D01*
X132742458Y-81559147D01*
X133200553Y-81945545D01*
X133650447Y-82315947D01*
X134121552Y-82694260D01*
X134643279Y-83104390D01*
X135956243Y-84115731D01*
X139268130Y-86628040D01*
X140580540Y-87603854D01*
X141704994Y-88422250D01*
X142672291Y-89105337D01*
X143513229Y-89675220D01*
X144258608Y-90154008D01*
X144939228Y-90563807D01*
X145250084Y-90741777D01*
X145555118Y-90910494D01*
X145864678Y-91075144D01*
X146189111Y-91240913D01*
X146538767Y-91412986D01*
X146923992Y-91596547D01*
X147355135Y-91796783D01*
X147842543Y-92018878D01*
X148527909Y-92329830D01*
X149042025Y-92568797D01*
X149628794Y-92851320D01*
X150532117Y-93292938D01*
X151785313Y-93901459D01*
X153720420Y-94830760D01*
X155808792Y-95835834D01*
X156299005Y-96076730D01*
X156449180Y-96157438D01*
X156447774Y-96157536D01*
X156445380Y-96157180D01*
X156437307Y-96154972D01*
X156424314Y-96150547D01*
X156405754Y-96143636D01*
X156349349Y-96121280D01*
X156262917Y-96085755D01*
X156141287Y-96034914D01*
X155979284Y-95966606D01*
X155513469Y-95768994D01*
X155025836Y-95558871D01*
X154236961Y-95216607D01*
X151978988Y-94243891D01*
X151139261Y-93891820D01*
X150371811Y-93578149D01*
X149237796Y-93118457D01*
X148274893Y-92729868D01*
X147446572Y-92403468D01*
X146731393Y-92131804D01*
X146107919Y-91907425D01*
X145554711Y-91722878D01*
X145050331Y-91570713D01*
X144573339Y-91443478D01*
X144102298Y-91333720D01*
X143781815Y-91266820D01*
X143471967Y-91209174D01*
X143155011Y-91158619D01*
X142813200Y-91112994D01*
X142428791Y-91070134D01*
X141984039Y-91027876D01*
X141461199Y-90984058D01*
X140842525Y-90936517D01*
X139941233Y-90872330D01*
X139567065Y-90850379D01*
X139187897Y-90832968D01*
X138761740Y-90818431D01*
X138246605Y-90805100D01*
X136781446Y-90775396D01*
X135796921Y-90750847D01*
X134805891Y-90713648D01*
X133748777Y-90661199D01*
X132565999Y-90590896D01*
X131725125Y-90530897D01*
X130996923Y-90463134D01*
X130364860Y-90384381D01*
X129812406Y-90291408D01*
X129560865Y-90238580D01*
X129323026Y-90180988D01*
X129096823Y-90118227D01*
X128880189Y-90049895D01*
X128671058Y-89975587D01*
X128467362Y-89894900D01*
X128267036Y-89807431D01*
X128068014Y-89712776D01*
X127955096Y-89654705D01*
X127849890Y-89595922D01*
X127752379Y-89536411D01*
X127662550Y-89476154D01*
X127580387Y-89415132D01*
X127505873Y-89353330D01*
X127438995Y-89290730D01*
X127379737Y-89227313D01*
X127328084Y-89163064D01*
X127284020Y-89097964D01*
X127247531Y-89031996D01*
X127218601Y-88965142D01*
X127206966Y-88931378D01*
X127197215Y-88897386D01*
X127189346Y-88863164D01*
X127183357Y-88828710D01*
X127179247Y-88794021D01*
X127177013Y-88759096D01*
X127176653Y-88723932D01*
X127178167Y-88688527D01*
X127187724Y-88625804D01*
X127207592Y-88563978D01*
X127237609Y-88503096D01*
X127277616Y-88443202D01*
X127327450Y-88384344D01*
X127386951Y-88326568D01*
X127455958Y-88269921D01*
X127534311Y-88214449D01*
X127621848Y-88160198D01*
X127718409Y-88107215D01*
X127823832Y-88055545D01*
X127937957Y-88005237D01*
X128060623Y-87956335D01*
X128191669Y-87908886D01*
X128330934Y-87862937D01*
X128478258Y-87818534D01*
X128796436Y-87734552D01*
X129144917Y-87657311D01*
X129522414Y-87587182D01*
X129927640Y-87524536D01*
X130359308Y-87469744D01*
X130816131Y-87423178D01*
X131296822Y-87385209D01*
X131800094Y-87356208D01*
X132926813Y-87315623D01*
X134152422Y-87290137D01*
X135206747Y-87283548D01*
X135585248Y-87288527D01*
X135819613Y-87299655D01*
X135914511Y-87310043D01*
X136010343Y-87323095D01*
X136106023Y-87338488D01*
X136200464Y-87355897D01*
X136381283Y-87395468D01*
X136544106Y-87439218D01*
X136616052Y-87461849D01*
X136680238Y-87484554D01*
X136735579Y-87507007D01*
X136780987Y-87528884D01*
X136815377Y-87549862D01*
X136837660Y-87569617D01*
X136843922Y-87578935D01*
X136846750Y-87587825D01*
X136846008Y-87596247D01*
X136841561Y-87604162D01*
X136836208Y-87608716D01*
X136827802Y-87613218D01*
X136802175Y-87622041D01*
X136765362Y-87630583D01*
X136718044Y-87638796D01*
X136660905Y-87646631D01*
X136594626Y-87654040D01*
X136437374Y-87667385D01*
X136251745Y-87678444D01*
X136043195Y-87686831D01*
X135817180Y-87692158D01*
X135579154Y-87694038D01*
X135469664Y-87694783D01*
X135380024Y-87696718D01*
X135345538Y-87698043D01*
X135319481Y-87699558D01*
X135303011Y-87701228D01*
X135298732Y-87702110D01*
X135297283Y-87703017D01*
X135297396Y-87704232D01*
X135297701Y-87706018D01*
X135298847Y-87711160D01*
X135300642Y-87718164D01*
X135303006Y-87726748D01*
X135305861Y-87736634D01*
X135309127Y-87747540D01*
X135312726Y-87759188D01*
X135316578Y-87771296D01*
X135327779Y-87812705D01*
X135335541Y-87856289D01*
X135339963Y-87901646D01*
X135341148Y-87948375D01*
X135340546Y-87963103D01*
X135339197Y-87996076D01*
X135334211Y-88044346D01*
D11*
X151255152Y-102652380D02*
X151255152Y-101652380D01*
X151017057Y-101652380D01*
X150874200Y-101700000D01*
X150778962Y-101795238D01*
X150731343Y-101890476D01*
X150683723Y-102080952D01*
X150683723Y-102223809D01*
X150731343Y-102414285D01*
X150778962Y-102509523D01*
X150874200Y-102604761D01*
X151017057Y-102652380D01*
X151255152Y-102652380D01*
X149874200Y-102604761D02*
X149969438Y-102652380D01*
X150159914Y-102652380D01*
X150255152Y-102604761D01*
X150302771Y-102509523D01*
X150302771Y-102128571D01*
X150255152Y-102033333D01*
X150159914Y-101985714D01*
X149969438Y-101985714D01*
X149874200Y-102033333D01*
X149826581Y-102128571D01*
X149826581Y-102223809D01*
X150302771Y-102319047D01*
X149445628Y-102604761D02*
X149350390Y-102652380D01*
X149159914Y-102652380D01*
X149064676Y-102604761D01*
X149017057Y-102509523D01*
X149017057Y-102461904D01*
X149064676Y-102366666D01*
X149159914Y-102319047D01*
X149302771Y-102319047D01*
X149398009Y-102271428D01*
X149445628Y-102176190D01*
X149445628Y-102128571D01*
X149398009Y-102033333D01*
X149302771Y-101985714D01*
X149159914Y-101985714D01*
X149064676Y-102033333D01*
X148588485Y-102652380D02*
X148588485Y-101985714D01*
X148588485Y-101652380D02*
X148636104Y-101700000D01*
X148588485Y-101747619D01*
X148540866Y-101700000D01*
X148588485Y-101652380D01*
X148588485Y-101747619D01*
X147683723Y-101985714D02*
X147683723Y-102795238D01*
X147731343Y-102890476D01*
X147778962Y-102938095D01*
X147874200Y-102985714D01*
X148017057Y-102985714D01*
X148112295Y-102938095D01*
X147683723Y-102604761D02*
X147778962Y-102652380D01*
X147969438Y-102652380D01*
X148064676Y-102604761D01*
X148112295Y-102557142D01*
X148159914Y-102461904D01*
X148159914Y-102176190D01*
X148112295Y-102080952D01*
X148064676Y-102033333D01*
X147969438Y-101985714D01*
X147778962Y-101985714D01*
X147683723Y-102033333D01*
X147207533Y-101985714D02*
X147207533Y-102652380D01*
X147207533Y-102080952D02*
X147159914Y-102033333D01*
X147064676Y-101985714D01*
X146921819Y-101985714D01*
X146826581Y-102033333D01*
X146778962Y-102128571D01*
X146778962Y-102652380D01*
X145921819Y-102604761D02*
X146017057Y-102652380D01*
X146207533Y-102652380D01*
X146302771Y-102604761D01*
X146350390Y-102509523D01*
X146350390Y-102128571D01*
X146302771Y-102033333D01*
X146207533Y-101985714D01*
X146017057Y-101985714D01*
X145921819Y-102033333D01*
X145874200Y-102128571D01*
X145874200Y-102223809D01*
X146350390Y-102319047D01*
X145017057Y-102652380D02*
X145017057Y-101652380D01*
X145017057Y-102604761D02*
X145112295Y-102652380D01*
X145302771Y-102652380D01*
X145398009Y-102604761D01*
X145445628Y-102557142D01*
X145493247Y-102461904D01*
X145493247Y-102176190D01*
X145445628Y-102080952D01*
X145398009Y-102033333D01*
X145302771Y-101985714D01*
X145112295Y-101985714D01*
X145017057Y-102033333D01*
X143778962Y-102652380D02*
X143778962Y-101652380D01*
X143778962Y-102033333D02*
X143683723Y-101985714D01*
X143493247Y-101985714D01*
X143398009Y-102033333D01*
X143350390Y-102080952D01*
X143302771Y-102176190D01*
X143302771Y-102461904D01*
X143350390Y-102557142D01*
X143398009Y-102604761D01*
X143493247Y-102652380D01*
X143683723Y-102652380D01*
X143778962Y-102604761D01*
X142969438Y-101985714D02*
X142731343Y-102652380D01*
X142493247Y-101985714D02*
X142731343Y-102652380D01*
X142826581Y-102890476D01*
X142874200Y-102938095D01*
X142969438Y-102985714D01*
X141350390Y-102128571D02*
X141017057Y-102128571D01*
X140874200Y-102652380D02*
X141350390Y-102652380D01*
X141350390Y-101652380D01*
X140874200Y-101652380D01*
X140017057Y-102652380D02*
X140017057Y-102128571D01*
X140064676Y-102033333D01*
X140159914Y-101985714D01*
X140350390Y-101985714D01*
X140445628Y-102033333D01*
X140017057Y-102604761D02*
X140112295Y-102652380D01*
X140350390Y-102652380D01*
X140445628Y-102604761D01*
X140493247Y-102509523D01*
X140493247Y-102414285D01*
X140445628Y-102319047D01*
X140350390Y-102271428D01*
X140112295Y-102271428D01*
X140017057Y-102223809D01*
X139683723Y-101985714D02*
X139302771Y-101985714D01*
X139540866Y-101652380D02*
X139540866Y-102509523D01*
X139493247Y-102604761D01*
X139398009Y-102652380D01*
X139302771Y-102652380D01*
X138826581Y-102652380D02*
X138921819Y-102604761D01*
X138969438Y-102557142D01*
X139017057Y-102461904D01*
X139017057Y-102176190D01*
X138969438Y-102080952D01*
X138921819Y-102033333D01*
X138826581Y-101985714D01*
X138683723Y-101985714D01*
X138588485Y-102033333D01*
X138540866Y-102080952D01*
X138493247Y-102176190D01*
X138493247Y-102461904D01*
X138540866Y-102557142D01*
X138588485Y-102604761D01*
X138683723Y-102652380D01*
X138826581Y-102652380D01*
X138064676Y-101985714D02*
X138064676Y-102652380D01*
X138064676Y-102080952D02*
X138017057Y-102033333D01*
X137921819Y-101985714D01*
X137778962Y-101985714D01*
X137683723Y-102033333D01*
X137636104Y-102128571D01*
X137636104Y-102652380D01*
X136398009Y-102652380D02*
X136398009Y-101652380D01*
X136398009Y-102128571D02*
X135826581Y-102128571D01*
X135826581Y-102652380D02*
X135826581Y-101652380D01*
X134921819Y-101985714D02*
X134921819Y-102652380D01*
X135350390Y-101985714D02*
X135350390Y-102509523D01*
X135302771Y-102604761D01*
X135207533Y-102652380D01*
X135064676Y-102652380D01*
X134969438Y-102604761D01*
X134921819Y-102557142D01*
X134017057Y-102652380D02*
X134017057Y-102128571D01*
X134064676Y-102033333D01*
X134159914Y-101985714D01*
X134350390Y-101985714D01*
X134445628Y-102033333D01*
X134017057Y-102604761D02*
X134112295Y-102652380D01*
X134350390Y-102652380D01*
X134445628Y-102604761D01*
X134493247Y-102509523D01*
X134493247Y-102414285D01*
X134445628Y-102319047D01*
X134350390Y-102271428D01*
X134112295Y-102271428D01*
X134017057Y-102223809D01*
X133540866Y-101985714D02*
X133540866Y-102652380D01*
X133540866Y-102080952D02*
X133493247Y-102033333D01*
X133398009Y-101985714D01*
X133255152Y-101985714D01*
X133159914Y-102033333D01*
X133112295Y-102128571D01*
X133112295Y-102652380D01*
X132207533Y-101985714D02*
X132207533Y-102795238D01*
X132255152Y-102890476D01*
X132302771Y-102938095D01*
X132398009Y-102985714D01*
X132540866Y-102985714D01*
X132636104Y-102938095D01*
X132207533Y-102604761D02*
X132302771Y-102652380D01*
X132493247Y-102652380D01*
X132588485Y-102604761D01*
X132636104Y-102557142D01*
X132683723Y-102461904D01*
X132683723Y-102176190D01*
X132636104Y-102080952D01*
X132588485Y-102033333D01*
X132493247Y-101985714D01*
X132302771Y-101985714D01*
X132207533Y-102033333D01*
D12*
X155778962Y-99557142D02*
X155112295Y-99557142D01*
X154826581Y-100604761D02*
X155778962Y-100604761D01*
X155778962Y-98604761D01*
X154826581Y-98604761D01*
X154064676Y-100509523D02*
X153778962Y-100604761D01*
X153302771Y-100604761D01*
X153112295Y-100509523D01*
X153017057Y-100414285D01*
X152921819Y-100223809D01*
X152921819Y-100033333D01*
X153017057Y-99842857D01*
X153112295Y-99747619D01*
X153302771Y-99652380D01*
X153683723Y-99557142D01*
X153874200Y-99461904D01*
X153969438Y-99366666D01*
X154064676Y-99176190D01*
X154064676Y-98985714D01*
X153969438Y-98795238D01*
X153874200Y-98700000D01*
X153683723Y-98604761D01*
X153207533Y-98604761D01*
X152921819Y-98700000D01*
X150921819Y-100414285D02*
X151017057Y-100509523D01*
X151302771Y-100604761D01*
X151493247Y-100604761D01*
X151778962Y-100509523D01*
X151969438Y-100319047D01*
X152064676Y-100128571D01*
X152159914Y-99747619D01*
X152159914Y-99461904D01*
X152064676Y-99080952D01*
X151969438Y-98890476D01*
X151778962Y-98700000D01*
X151493247Y-98604761D01*
X151302771Y-98604761D01*
X151017057Y-98700000D01*
X150921819Y-98795238D01*
X148540866Y-100604761D02*
X148540866Y-98604761D01*
X148064676Y-98604761D01*
X147778962Y-98700000D01*
X147588485Y-98890476D01*
X147493247Y-99080952D01*
X147398009Y-99461904D01*
X147398009Y-99747619D01*
X147493247Y-100128571D01*
X147588485Y-100319047D01*
X147778962Y-100509523D01*
X148064676Y-100604761D01*
X148540866Y-100604761D01*
X145683723Y-100604761D02*
X145683723Y-99557142D01*
X145778962Y-99366666D01*
X145969438Y-99271428D01*
X146350390Y-99271428D01*
X146540866Y-99366666D01*
X145683723Y-100509523D02*
X145874200Y-100604761D01*
X146350390Y-100604761D01*
X146540866Y-100509523D01*
X146636104Y-100319047D01*
X146636104Y-100128571D01*
X146540866Y-99938095D01*
X146350390Y-99842857D01*
X145874200Y-99842857D01*
X145683723Y-99747619D01*
X143874200Y-99271428D02*
X143874200Y-100604761D01*
X144731343Y-99271428D02*
X144731343Y-100319047D01*
X144636104Y-100509523D01*
X144445628Y-100604761D01*
X144159914Y-100604761D01*
X143969438Y-100509523D01*
X143874200Y-100414285D01*
X142064676Y-99271428D02*
X142064676Y-100890476D01*
X142159914Y-101080952D01*
X142255152Y-101176190D01*
X142445628Y-101271428D01*
X142731343Y-101271428D01*
X142921819Y-101176190D01*
X142064676Y-100509523D02*
X142255152Y-100604761D01*
X142636104Y-100604761D01*
X142826581Y-100509523D01*
X142921819Y-100414285D01*
X143017057Y-100223809D01*
X143017057Y-99652380D01*
X142921819Y-99461904D01*
X142826581Y-99366666D01*
X142636104Y-99271428D01*
X142255152Y-99271428D01*
X142064676Y-99366666D01*
X141112295Y-100604761D02*
X141112295Y-98604761D01*
X140255152Y-100604761D02*
X140255152Y-99557142D01*
X140350390Y-99366666D01*
X140540866Y-99271428D01*
X140826581Y-99271428D01*
X141017057Y-99366666D01*
X141112295Y-99461904D01*
X139588485Y-99271428D02*
X138826581Y-99271428D01*
X139302771Y-98604761D02*
X139302771Y-100319047D01*
X139207533Y-100509523D01*
X139017057Y-100604761D01*
X138826581Y-100604761D01*
X137398009Y-100509523D02*
X137588485Y-100604761D01*
X137969438Y-100604761D01*
X138159914Y-100509523D01*
X138255152Y-100319047D01*
X138255152Y-99557142D01*
X138159914Y-99366666D01*
X137969438Y-99271428D01*
X137588485Y-99271428D01*
X137398009Y-99366666D01*
X137302771Y-99557142D01*
X137302771Y-99747619D01*
X138255152Y-99938095D01*
X136445628Y-100604761D02*
X136445628Y-99271428D01*
X136445628Y-99652380D02*
X136350390Y-99461904D01*
X136255152Y-99366666D01*
X136064676Y-99271428D01*
X135874200Y-99271428D01*
X135207533Y-100604761D02*
X135207533Y-98604761D01*
X135207533Y-99366666D02*
X135017057Y-99271428D01*
X134636104Y-99271428D01*
X134445628Y-99366666D01*
X134350390Y-99461904D01*
X134255152Y-99652380D01*
X134255152Y-100223809D01*
X134350390Y-100414285D01*
X134445628Y-100509523D01*
X134636104Y-100604761D01*
X135017057Y-100604761D01*
X135207533Y-100509523D01*
X133112295Y-100604761D02*
X133302771Y-100509523D01*
X133398009Y-100414285D01*
X133493247Y-100223809D01*
X133493247Y-99652380D01*
X133398009Y-99461904D01*
X133302771Y-99366666D01*
X133112295Y-99271428D01*
X132826581Y-99271428D01*
X132636104Y-99366666D01*
X132540866Y-99461904D01*
X132445628Y-99652380D01*
X132445628Y-100223809D01*
X132540866Y-100414285D01*
X132636104Y-100509523D01*
X132826581Y-100604761D01*
X133112295Y-100604761D01*
X130731343Y-100604761D02*
X130731343Y-99557142D01*
X130826581Y-99366666D01*
X131017057Y-99271428D01*
X131398009Y-99271428D01*
X131588485Y-99366666D01*
X130731343Y-100509523D02*
X130921819Y-100604761D01*
X131398009Y-100604761D01*
X131588485Y-100509523D01*
X131683723Y-100319047D01*
X131683723Y-100128571D01*
X131588485Y-99938095D01*
X131398009Y-99842857D01*
X130921819Y-99842857D01*
X130731343Y-99747619D01*
X129778962Y-100604761D02*
X129778962Y-99271428D01*
X129778962Y-99652380D02*
X129683723Y-99461904D01*
X129588485Y-99366666D01*
X129398009Y-99271428D01*
X129207533Y-99271428D01*
X127683723Y-100604761D02*
X127683723Y-98604761D01*
X127683723Y-100509523D02*
X127874200Y-100604761D01*
X128255152Y-100604761D01*
X128445628Y-100509523D01*
X128540866Y-100414285D01*
X128636104Y-100223809D01*
X128636104Y-99652380D01*
X128540866Y-99461904D01*
X128445628Y-99366666D01*
X128255152Y-99271428D01*
X127874200Y-99271428D01*
X127683723Y-99366666D01*
D13*
%TO.C,J4*%
X125681432Y-115152380D02*
X125681432Y-114152380D01*
X125300480Y-114152380D01*
X125205242Y-114200000D01*
X125157623Y-114247619D01*
X125110004Y-114342857D01*
X125110004Y-114485714D01*
X125157623Y-114580952D01*
X125205242Y-114628571D01*
X125300480Y-114676190D01*
X125681432Y-114676190D01*
X124776670Y-114152380D02*
X124538575Y-115152380D01*
X124348099Y-114438095D01*
X124157623Y-115152380D01*
X123919527Y-114152380D01*
X122967146Y-115152380D02*
X123300480Y-114676190D01*
X123538575Y-115152380D02*
X123538575Y-114152380D01*
X123157623Y-114152380D01*
X123062384Y-114200000D01*
X123014765Y-114247619D01*
X122967146Y-114342857D01*
X122967146Y-114485714D01*
X123014765Y-114580952D01*
X123062384Y-114628571D01*
X123157623Y-114676190D01*
X123538575Y-114676190D01*
X122776670Y-115247619D02*
X122014765Y-115247619D01*
X121443337Y-114628571D02*
X121300480Y-114676190D01*
X121252861Y-114723809D01*
X121205242Y-114819047D01*
X121205242Y-114961904D01*
X121252861Y-115057142D01*
X121300480Y-115104761D01*
X121395718Y-115152380D01*
X121776670Y-115152380D01*
X121776670Y-114152380D01*
X121443337Y-114152380D01*
X121348099Y-114200000D01*
X121300480Y-114247619D01*
X121252861Y-114342857D01*
X121252861Y-114438095D01*
X121300480Y-114533333D01*
X121348099Y-114580952D01*
X121443337Y-114628571D01*
X121776670Y-114628571D01*
X120824289Y-114866666D02*
X120348099Y-114866666D01*
X120919527Y-115152380D02*
X120586194Y-114152380D01*
X120252861Y-115152380D01*
X119729051Y-114676190D02*
X119729051Y-115152380D01*
X120062384Y-114152380D02*
X119729051Y-114676190D01*
X119395718Y-114152380D01*
X152579047Y-115152380D02*
X152579047Y-114152380D01*
X152198095Y-114152380D01*
X152102857Y-114200000D01*
X152055238Y-114247619D01*
X152007619Y-114342857D01*
X152007619Y-114485714D01*
X152055238Y-114580952D01*
X152102857Y-114628571D01*
X152198095Y-114676190D01*
X152579047Y-114676190D01*
X151579047Y-115152380D02*
X151579047Y-114152380D01*
X151579047Y-114628571D02*
X151007619Y-114628571D01*
X151007619Y-115152380D02*
X151007619Y-114152380D01*
X150579047Y-114866666D02*
X150102857Y-114866666D01*
X150674285Y-115152380D02*
X150340952Y-114152380D01*
X150007619Y-115152380D01*
X149721904Y-115104761D02*
X149579047Y-115152380D01*
X149340952Y-115152380D01*
X149245714Y-115104761D01*
X149198095Y-115057142D01*
X149150476Y-114961904D01*
X149150476Y-114866666D01*
X149198095Y-114771428D01*
X149245714Y-114723809D01*
X149340952Y-114676190D01*
X149531428Y-114628571D01*
X149626666Y-114580952D01*
X149674285Y-114533333D01*
X149721904Y-114438095D01*
X149721904Y-114342857D01*
X149674285Y-114247619D01*
X149626666Y-114200000D01*
X149531428Y-114152380D01*
X149293333Y-114152380D01*
X149150476Y-114200000D01*
X148721904Y-114628571D02*
X148388571Y-114628571D01*
X148245714Y-115152380D02*
X148721904Y-115152380D01*
X148721904Y-114152380D01*
X148245714Y-114152380D01*
X147102857Y-114104761D02*
X147960000Y-115390476D01*
X146198095Y-115057142D02*
X146245714Y-115104761D01*
X146388571Y-115152380D01*
X146483809Y-115152380D01*
X146626666Y-115104761D01*
X146721904Y-115009523D01*
X146769523Y-114914285D01*
X146817142Y-114723809D01*
X146817142Y-114580952D01*
X146769523Y-114390476D01*
X146721904Y-114295238D01*
X146626666Y-114200000D01*
X146483809Y-114152380D01*
X146388571Y-114152380D01*
X146245714Y-114200000D01*
X146198095Y-114247619D01*
X145817142Y-114866666D02*
X145340952Y-114866666D01*
X145912380Y-115152380D02*
X145579047Y-114152380D01*
X145245714Y-115152380D01*
X144912380Y-115152380D02*
X144912380Y-114152380D01*
X144340952Y-115152380D01*
X144340952Y-114152380D01*
X137100000Y-114200000D02*
X137195238Y-114152380D01*
X137338095Y-114152380D01*
X137480952Y-114200000D01*
X137576190Y-114295238D01*
X137623809Y-114390476D01*
X137671428Y-114580952D01*
X137671428Y-114723809D01*
X137623809Y-114914285D01*
X137576190Y-115009523D01*
X137480952Y-115104761D01*
X137338095Y-115152380D01*
X137242857Y-115152380D01*
X137100000Y-115104761D01*
X137052380Y-115057142D01*
X137052380Y-114723809D01*
X137242857Y-114723809D01*
X136623809Y-115152380D02*
X136623809Y-114152380D01*
X136052380Y-115152380D01*
X136052380Y-114152380D01*
X135576190Y-115152380D02*
X135576190Y-114152380D01*
X135338095Y-114152380D01*
X135195238Y-114200000D01*
X135100000Y-114295238D01*
X135052380Y-114390476D01*
X135004761Y-114580952D01*
X135004761Y-114723809D01*
X135052380Y-114914285D01*
X135100000Y-115009523D01*
X135195238Y-115104761D01*
X135338095Y-115152380D01*
X135576190Y-115152380D01*
X134814285Y-115247619D02*
X134052380Y-115247619D01*
X133480952Y-114628571D02*
X133338095Y-114676190D01*
X133290476Y-114723809D01*
X133242857Y-114819047D01*
X133242857Y-114961904D01*
X133290476Y-115057142D01*
X133338095Y-115104761D01*
X133433333Y-115152380D01*
X133814285Y-115152380D01*
X133814285Y-114152380D01*
X133480952Y-114152380D01*
X133385714Y-114200000D01*
X133338095Y-114247619D01*
X133290476Y-114342857D01*
X133290476Y-114438095D01*
X133338095Y-114533333D01*
X133385714Y-114580952D01*
X133480952Y-114628571D01*
X133814285Y-114628571D01*
X132861904Y-114866666D02*
X132385714Y-114866666D01*
X132957142Y-115152380D02*
X132623809Y-114152380D01*
X132290476Y-115152380D01*
X131766666Y-114676190D02*
X131766666Y-115152380D01*
X132100000Y-114152380D02*
X131766666Y-114676190D01*
X131433333Y-114152380D01*
%TD*%
M02*
